<?xml version="1.0" encoding="UTF-8" standalone="no"?>
<!-- Created with Inkscape (http://www.inkscape.org/) -->

<svg
   width="186.59323mm"
   height="323.45126mm"
   viewBox="0 0 186.59323 323.45126"
   version="1.1"
   id="svg5"
   inkscape:version="1.2 (dc2aedaf03, 2022-05-15)"
   sodipodi:docname="DualSense SVG Action Buttons.svg"
   xml:space="preserve"
   xmlns:inkscape="http://www.inkscape.org/namespaces/inkscape"
   xmlns:sodipodi="http://sodipodi.sourceforge.net/DTD/sodipodi-0.dtd"
   xmlns="http://www.w3.org/2000/svg"
   xmlns:svg="http://www.w3.org/2000/svg"><sodipodi:namedview
     id="namedview7"
     pagecolor="#ffffff"
     bordercolor="#666666"
     borderopacity="1.0"
     inkscape:pageshadow="2"
     inkscape:pageopacity="0.0"
     inkscape:pagecheckerboard="0"
     inkscape:document-units="mm"
     showgrid="false"
     inkscape:zoom="1.4556537"
     inkscape:cx="362.72363"
     inkscape:cy="752.23936"
     inkscape:window-width="2560"
     inkscape:window-height="1334"
     inkscape:window-x="-11"
     inkscape:window-y="-11"
     inkscape:window-maximized="1"
     inkscape:current-layer="layer1"
     inkscape:showpageshadow="2"
     inkscape:deskcolor="#d1d1d1" /><defs
     id="defs2"><linearGradient
       id="linearGradient1053"
       inkscape:swatch="solid"><stop
         style="stop-color:#25d1f5;stop-opacity:1;"
         offset="0"
         id="stop1051" /></linearGradient><linearGradient
       id="linearGradient1033"
       inkscape:swatch="solid"><stop
         style="stop-color:#107893;stop-opacity:1;"
         offset="0"
         id="stop1031" /></linearGradient><linearGradient
       id="linearGradient1021"
       inkscape:swatch="solid"><stop
         style="stop-color:#000000;stop-opacity:0;"
         offset="0"
         id="stop1019" /></linearGradient><linearGradient
       id="linearGradient999"
       inkscape:swatch="solid"><stop
         style="stop-color:#25d1f5;stop-opacity:0;"
         offset="0"
         id="stop997" /></linearGradient></defs><g
     inkscape:label="Layer 1"
     inkscape:groupmode="layer"
     id="layer1"
     transform="translate(-26.408178,50.181884)"><g
       inkscape:label="Layer 1"
       id="layer1-3"
       transform="translate(14.884178,16.1187)"
       style="fill:#107893;fill-opacity:0.50196081;stroke:#24d2f6;stroke-opacity:1"><path
         style="opacity:1;fill:#107893;fill-opacity:0.50196081;stroke:#24d2f6;stroke-width:1.3;stroke-linecap:round;stroke-linejoin:round;stroke-miterlimit:4;stroke-dasharray:none;stroke-opacity:1"
         d="m 44.081929,67.092333 c -0.547081,-0.203543 -1.201925,-0.531996 -1.455208,-0.729894 -1.694217,-1.323751 -6.358581,-5.266925 -6.719753,-5.680768 -0.530759,-0.608159 -0.912537,-2.037479 -1.158916,-4.338799 -0.101266,-0.945885 -0.236111,-1.957916 -0.299655,-2.248958 -0.06354,-0.291042 -0.185421,-2.20438 -0.270837,-4.251863 -0.19066,-4.570267 0.157597,-6.007758 1.71689,-7.086772 2.290335,-1.584884 5.544231,-2.140977 11.487,-1.963135 3.504695,0.104882 4.603025,0.234363 5.879706,0.693155 1.64855,0.592428 2.855076,1.542101 3.480758,2.739747 0.801404,1.534014 0.227962,14.708966 -0.698654,16.051685 -0.434628,0.629802 -5.972863,5.328388 -7.419139,6.294328 -1.187815,0.79332 -3.1926,1.023394 -4.542192,0.521274 z"
         id="path977"
         inkscape:export-filename="C:\Users\AL200\OneDrive\Pictures\AL2009man Work Projects\VSCView - Controller Theme Layout\VSCView - Controller Theme (Ver. 1.10)\DualSense Controller Image\Image Assets\DualSense_D-PAD_Up.png"
         inkscape:export-xdpi="95.011826"
         inkscape:export-ydpi="95.011826" /><path
         style="opacity:1;fill:#107893;fill-opacity:0.50196081;stroke:#24d2f6;stroke-width:1.3;stroke-linecap:round;stroke-linejoin:round;stroke-miterlimit:4;stroke-dasharray:none;stroke-opacity:1"
         d="m 64.788083,80.661723 c -1.673489,-0.116507 -3.45966,-0.33356 -3.969266,-0.482341 -0.509606,-0.14878 -2.057418,-1.109165 -3.439583,-2.134192 -6.435394,-4.772544 -6.517643,-4.882232 -6.253242,-8.339508 0.110085,-1.439479 0.317881,-2.327076 0.650388,-2.778124 0.807662,-1.095597 7.924446,-6.315452 8.989978,-6.593764 1.254382,-0.327638 7.479568,-0.838211 10.976473,-0.90026 2.408729,-0.04274 2.846369,0.02396 4.025461,0.613505 1.625166,0.812583 2.860963,2.544301 3.353318,4.69899 0.537657,2.352955 0.440209,9.845176 -0.153344,11.789525 -1.018514,3.336427 -3.039827,4.436732 -8.038545,4.375782 -1.704411,-0.02078 -4.468148,-0.133106 -6.141638,-0.249613 z"
         id="path975"
         inkscape:export-filename="C:\Users\AL200\OneDrive\Pictures\AL2009man Work Projects\VSCView - Controller Theme Layout\VSCView - Controller Theme (Ver. 1.10)\DualSense Controller Image\Image Assets\DualSense_D-PAD_Right.png"
         inkscape:export-xdpi="97.281357"
         inkscape:export-ydpi="97.281357" /><path
         style="opacity:1;fill:#107893;fill-opacity:0.50196081;stroke:#24d2f6;stroke-width:1.3;stroke-linecap:round;stroke-linejoin:round;stroke-miterlimit:4;stroke-dasharray:none;stroke-opacity:1"
         d="m 16.509504,80.52728 c -1.358213,-0.497218 -2.408908,-1.509858 -3.223675,-3.106912 -0.935946,-1.834581 -1.348847,-6.250844 -0.974054,-10.418177 0.346102,-3.848312 0.929386,-5.262881 2.636297,-6.393492 1.976695,-1.309309 3.088509,-1.440326 9.279324,-1.093484 3.026868,0.169581 5.947353,0.422055 6.489967,0.561054 1.114093,0.285391 8.854944,5.935694 9.435028,6.886937 0.441179,0.723462 0.612343,3.957482 0.2786,5.263955 -0.288197,1.128181 -1.07991,1.900767 -4.879366,4.761497 -4.092362,3.081271 -4.260191,3.139771 -10.271872,3.580527 -6.21024,0.455313 -7.427937,0.449495 -8.770249,-0.0419 z"
         id="path973"
         inkscape:export-filename="C:\Users\AL200\OneDrive\Pictures\AL2009man Work Projects\VSCView - Controller Theme Layout\VSCView - Controller Theme (Ver. 1.10)\DualSense Controller Image\Image Assets\DualSense_D-PAD_Left.png"
         inkscape:export-xdpi="96.404747"
         inkscape:export-ydpi="96.404747" /><path
         style="opacity:1;fill:#107893;fill-opacity:0.50196081;stroke:#24d2f6;stroke-width:1.3;stroke-linecap:round;stroke-linejoin:round;stroke-miterlimit:4;stroke-dasharray:none;stroke-opacity:1"
         d="m 39.784958,98.417489 c -2.545009,-0.54446 -4.165636,-1.62617 -4.917779,-3.282444 -0.584066,-1.286153 -0.655034,-4.130718 -0.233328,-9.35228 0.438101,-5.424577 0.254773,-5.080053 4.754232,-8.934564 1.527969,-1.308951 2.840959,-2.463508 2.917754,-2.565685 0.0768,-0.102177 0.672108,-0.427313 1.322917,-0.722524 1.446646,-0.656209 2.974943,-0.684141 4.290499,-0.07841 1.299935,0.598537 7.742428,6.087395 8.143846,6.938375 0.864499,1.832673 1.667507,12.554989 1.074766,14.351012 -0.415642,1.259412 -1.716114,2.37911 -3.639034,3.13318 -1.408171,0.5522 -2.028682,0.61098 -7.099289,0.67242 -3.055938,0.037 -6.0325,-0.0346 -6.614584,-0.15908 z"
         id="path961"
         inkscape:export-filename="C:\Users\AL200\OneDrive\Pictures\AL2009man Work Projects\VSCView - Controller Theme Layout\VSCView - Controller Theme (Ver. 1.10)\DualSense Controller Image\Image Assets\DualSense_D-PAD_Down.png"
         inkscape:export-xdpi="94.97644"
         inkscape:export-ydpi="94.97644" /></g><g
       inkscape:label="Face Buttons"
       id="layer1-6"
       transform="translate(345.65971,-102.28463)"
       style="fill:#107893;fill-opacity:0.50196081;stroke:#24d2f6;stroke-opacity:1"><path
         style="display:inline;fill:#107893;fill-opacity:0.50196081;stroke:#24d2f6;stroke-width:1.6;stroke-linecap:round;stroke-linejoin:round;stroke-miterlimit:4;stroke-dasharray:none;stroke-opacity:1"
         d="m -177.83944,179.59151 c -4.43917,-0.49009 -8.69261,-3.81516 -10.50022,-8.20842 -0.98777,-2.4007 -0.826,-6.2488 0.38384,-9.1305 2.26214,-5.38815 6.9622,-8.34625 13.29138,-8.36526 4.29361,-0.0129 8.00569,1.64349 10.382,4.63261 1.46276,1.83998 2.00891,3.17196 2.48046,6.04944 0.66788,4.07547 0.0476,6.72927 -2.29639,9.82568 -0.72787,0.96148 -1.41601,1.74815 -1.52922,1.74815 -0.1132,0 -0.43845,0.21673 -0.72278,0.48163 -2.38657,2.22342 -7.12907,3.44802 -11.48907,2.96667 z"
         id="path1676"
         inkscape:export-filename="C:\Users\AL200\OneDrive\Pictures\AL2009man Work Projects\VSCView - Controller Theme Layout\VSCView - Controller Theme (Ver. 1.10)\DualSense Controller Image\Image Assets\DualSense_Triangle.png"
         inkscape:export-xdpi="71.111275"
         inkscape:export-ydpi="71.111275" /><path
         style="display:inline;fill:#107893;fill-opacity:0.50196081;stroke:#24d2f6;stroke-width:1.6;stroke-linecap:round;stroke-linejoin:round;stroke-miterlimit:4;stroke-dasharray:none;stroke-opacity:1"
         d="m -151.33446,203.39471 c -2.11068,-0.44846 -3.9961,-1.51823 -5.70017,-3.23425 -1.34335,-1.35276 -1.81645,-2.07616 -2.55644,-3.90891 -0.77033,-1.90792 -0.91244,-2.59001 -0.9371,-4.49792 -0.016,-1.23693 0.0639,-2.42755 0.17762,-2.64583 0.11368,-0.21829 0.4079,-0.96074 0.65383,-1.6499 0.24592,-0.68916 0.6102,-1.38834 0.8095,-1.55375 0.1993,-0.1654 0.36236,-0.43746 0.36236,-0.60458 0,-0.59738 4.12566,-4.27819 5.76748,-5.14561 7.20435,-3.80622 15.39519,-2.17289 18.36507,3.66217 0.33329,0.65484 0.72671,1.21679 0.75663,1.32292 0.0417,0.14781 0.1617,1.32291 0.17523,2.77812 0.0218,2.34338 -0.0767,2.94382 -0.86174,5.25261 -0.4875,1.43373 -1.15702,2.75624 -1.29972,3.06355 -0.1367,0.29439 -0.34569,0.61565 -0.41337,0.73822 -0.20196,0.36575 -3.22329,3.77791 -3.62409,3.77791 -0.18956,0 -0.34466,0.0939 -0.34466,0.20872 0,0.28134 -2.46503,1.5006 -4.10104,2.02845 -1.59635,0.51506 -5.64915,0.74383 -7.22939,0.40808 z"
         id="path1674"
         inkscape:export-filename="C:\Users\AL200\OneDrive\Pictures\AL2009man Work Projects\VSCView - Controller Theme Layout\VSCView - Controller Theme (Ver. 1.10)\DualSense Controller Image\Image Assets\DualSense_Circle.png"
         inkscape:export-xdpi="71.153824"
         inkscape:export-ydpi="71.153824"
         sodipodi:nodetypes="sssssssssssssssssss" /><path
         style="display:inline;fill:#107893;fill-opacity:0.50196081;stroke:#24d2f6;stroke-width:1.6;stroke-linecap:round;stroke-linejoin:round;stroke-miterlimit:4;stroke-dasharray:none;stroke-opacity:1"
         d="m -208.79129,203.77516 c -3.05072,-0.66126 -4.79935,-1.56306 -7.05419,-3.63798 -4.01403,-3.69375 -4.27943,-10.87854 -0.57559,-15.58175 0.91046,-1.15612 3.82177,-3.1205 5.50871,-3.71694 5.76074,-2.0368 12.10729,-0.80912 16.02025,3.09897 2.60527,2.60201 3.35892,4.9575 3.01144,9.41202 -0.12677,1.62511 -0.37411,2.67589 -0.88312,3.75185 -2.42508,5.1262 -9.52607,8.08304 -16.0275,6.67383 z"
         id="path1672"
         inkscape:export-filename="C:\Users\AL200\OneDrive\Pictures\AL2009man Work Projects\VSCView - Controller Theme Layout\VSCView - Controller Theme (Ver. 1.10)\DualSense Controller Image\Image Assets\DualSense_Square.png"
         inkscape:export-xdpi="70.715858"
         inkscape:export-ydpi="70.715858" /><path
         style="display:inline;fill:#107893;fill-opacity:0.50196081;stroke:#24d2f6;stroke-width:1.6;stroke-linecap:round;stroke-linejoin:round;stroke-miterlimit:4;stroke-dasharray:none;stroke-opacity:1"
         d="m -180.22069,227.22262 c -2.14437,-0.2974 -5.35088,-1.73372 -6.82081,-3.05531 -1.55945,-1.40208 -2.53295,-3.14286 -3.08068,-5.50874 -0.91372,-3.94682 -0.32967,-6.66017 1.99507,-9.26846 2.70494,-3.03488 6.13378,-4.58146 11.2343,-5.06726 1.78304,-0.16983 4.57827,0.14896 5.80024,0.66148 0.29105,0.12207 1.09859,0.42745 1.79455,0.67861 2.26679,0.81805 4.55471,2.80092 5.61146,4.86327 0.40497,0.79034 0.4433,1.33422 0.2849,4.04239 -0.22934,3.92086 -0.66886,5.40986 -2.18394,7.39878 -0.88184,1.15763 -2.96751,2.83975 -4.44863,3.58789 -2.76547,1.39687 -7.06377,2.10043 -10.18646,1.66735 z"
         id="path1646"
         inkscape:export-filename="C:\Users\AL200\OneDrive\Pictures\AL2009man Work Projects\VSCView - Controller Theme Layout\VSCView - Controller Theme (Ver. 1.10)\DualSense Controller Image\Image Assets\DualSense_Cross.png"
         inkscape:export-xdpi="71.718361"
         inkscape:export-ydpi="71.718361" /></g><g
       inkscape:label="Bumpers"
       id="layer1-0"
       transform="translate(129.49639,-119.83825)"
       style="fill:#107893;fill-opacity:0.501961;stroke:#24d2f6;stroke-opacity:1"><path
         style="display:inline;opacity:1;fill:#107893;fill-opacity:0.50196081;stroke:#24d2f6;stroke-width:1.3;stroke-linecap:round;stroke-linejoin:round;stroke-miterlimit:4;stroke-dasharray:none;stroke-opacity:1"
         d="m -70.851633,154.14157 c -3.671222,-0.53475 -6.530269,-1.64824 -8.362369,-3.25685 l -0.973571,-0.85481 0.166638,-3.18058 c 0.305041,-5.82229 1.616022,-14.15782 2.419565,-15.38418 10.315857,-8.62685 28.275439,-10.90462 39.071233,-10.41479 5.908773,0.31798 10.840532,0.92251 11.870361,1.45505 1.277573,0.66066 2.279171,3.57243 3.320796,9.65396 0.550741,3.21551 0.664036,4.52953 0.52468,6.08542 -0.437896,4.88901 -1.824559,7.49021 -5.686523,10.66719 -1.407933,1.15822 -2.113756,1.428 -4.250812,1.62474 -1.091406,0.10048 -2.69875,0.28936 -3.571875,0.41973 -0.873124,0.13037 -2.599531,0.35593 -3.836458,0.50124 -1.236927,0.14531 -4.451614,0.56496 -7.143749,0.93254 -12.013147,1.64027 -20.153817,2.24572 -23.547916,1.75134 z"
         id="path863"
         sodipodi:nodetypes="sscsccssssssscs"
         inkscape:label="L1"
         inkscape:export-filename="C:\Users\AL200\OneDrive\Pictures\AL2009man Work Projects\VSCView - Controller Theme Layout\VSCView - Controller Theme (Ver. 1.10)\DualSense Controller Image\Image Assets\DualSense_L1-Active.png"
         inkscape:export-xdpi="95.886299"
         inkscape:export-ydpi="95.886299" /><path
         style="display:inline;opacity:1;fill:#107893;fill-opacity:0.50196081;stroke:#24d2f6;stroke-width:1.3;stroke-linecap:round;stroke-linejoin:round;stroke-miterlimit:4;stroke-dasharray:none;stroke-opacity:1"
         d="m 46.696046,154.14157 c 3.671222,-0.53475 6.530269,-1.64824 8.362369,-3.25685 l 0.973571,-0.85481 -0.166638,-3.18058 C 55.560307,141.02704 54.249326,132.69151 53.445783,131.46515 43.129926,122.8383 25.170344,120.56053 14.37455,121.05036 c -5.9087728,0.31798 -10.8405318,0.92251 -11.8703608,1.45505 -1.277573,0.66066 -2.27917102,3.57243 -3.32079602,9.65396 -0.55074098,3.21551 -0.66403598,4.52953 -0.52467998,6.08542 0.43789598,4.88901 1.82455903,7.49021 5.686523,10.66719 1.407933,1.15822 2.113756,1.428 4.250812,1.62474 1.091406,0.10048 2.6987498,0.28936 3.5718748,0.41973 0.873124,0.13037 2.599531,0.35593 3.836458,0.50124 1.236927,0.14531 4.451614,0.56496 7.143749,0.93254 12.013147,1.64027 20.153817,2.24572 23.547916,1.75134 z"
         id="path863-8"
         sodipodi:nodetypes="sscsccssssssscs"
         inkscape:label="R1"
         inkscape:export-filename="C:\Users\AL200\OneDrive\Pictures\AL2009man Work Projects\VSCView - Controller Theme Layout\VSCView - Controller Theme (Ver. 1.10)\DualSense Controller Image\Image Assets\DualSense_R1-Active.png"
         inkscape:export-xdpi="95.886299"
         inkscape:export-ydpi="95.886299" /></g><g
       id="g1183"
       inkscape:label="Triggers"
       style="fill:#107893;fill-opacity:0.50196081"><path
         style="fill:#107893;fill-opacity:0.50196081;stroke:#24d2f6;stroke-width:1.6;stroke-linecap:round;stroke-linejoin:round;stroke-miterlimit:4;stroke-dasharray:none;stroke-opacity:1"
         d="m 123.72653,-14.30721 c 0.006,-8.35383 1.52213,-22.15593 2.75878,-25.11566 0.56847,-1.36054 2.58399,-3.83398 4.18959,-5.14144 3.64268,-2.96629 7.4284,-4.46639 11.95222,-4.73609 5.23946,-0.31238 8.21968,0.20663 12.36678,2.15366 6.89133,3.23543 12.70394,9.78196 19.55795,22.02739 0.78719,1.4064 1.81852,5.19311 1.82166,6.68858 l 0.002,0.88147 -0.86659,-0.53557 c -3.28009,-2.02721 -8.98636,-4.33499 -13.6855,-5.53481 -5.02692,-1.28351 -8.0954,-1.8104 -13.49375,-2.31701 -9.6599,-0.90652 -19.92599,-0.0637 -21.0325,1.72662 -0.40988,0.66321 -1.52919,5.09737 -2.37327,9.40179 -0.50665,2.5837 -0.98403,4.76049 -1.06083,4.83729 -0.0768,0.0768 -0.13818,-1.8745 -0.1364,-4.33622 z"
         id="path1478"
         inkscape:label="R2"
         inkscape:export-filename="C:\Users\AL200\OneDrive\Pictures\AL2009man Work Projects\VSCView - Controller Theme Layout\VSCView - Controller Theme (Ver. 1.10)\DualSense Controller Image\Image Assets\DualSense_R2-Active.png"
         inkscape:export-xdpi="94.284332"
         inkscape:export-ydpi="94.284332" /><path
         style="display:inline;fill:#107893;fill-opacity:0.50196081;stroke:#24d2f6;stroke-width:1.6;stroke-linecap:round;stroke-linejoin:round;stroke-miterlimit:4;stroke-dasharray:none;stroke-opacity:1"
         d="m 109.65659,-13.83477 c -0.006,-8.35383 -1.52213,-22.15593 -2.75878,-25.11566 -0.56847,-1.36054 -2.58399,-3.83398 -4.18959,-5.14144 -3.642684,-2.96629 -7.428404,-4.46639 -11.952224,-4.73609 -5.23946,-0.31238 -8.21968,0.20663 -12.36678,2.15366 -6.89133,3.23543 -12.70394,9.78196 -19.557949,22.02739 -0.78719,1.4064 -1.81852,5.19311 -1.82166,6.68858 l -0.002,0.88147 0.86659,-0.53557 c 3.280089,-2.02721 8.986359,-4.33499 13.685499,-5.53481 5.02692,-1.28351 8.0954,-1.8104 13.49375,-2.31701 9.6599,-0.90652 19.925994,-0.0637 21.032504,1.72662 0.40988,0.66321 1.52919,5.09737 2.37327,9.40179 0.50665,2.5837 0.98403,4.76049 1.06083,4.83729 0.0768,0.0768 0.13818,-1.8745 0.1364,-4.33622 z"
         id="path1478-3"
         inkscape:label="L2"
         inkscape:export-filename="C:\Users\AL200\OneDrive\Pictures\AL2009man Work Projects\VSCView - Controller Theme Layout\VSCView - Controller Theme (Ver. 1.10)\DualSense Controller Image\Image Assets\DualSense_L2-Active.png"
         inkscape:export-xdpi="94.284332"
         inkscape:export-ydpi="94.284332" /></g><path
       style="fill:#107893;fill-opacity:0.501961;stroke:#24d2f6;stroke-width:1.3;stroke-miterlimit:4;stroke-dasharray:none;stroke-opacity:1"
       d="m 62.165764,170.57845 c -2.49578,-0.6443 -4.10104,-2.41641 -4.10104,-4.52731 0,-0.9945 2.56985,-10.25257 3.02712,-10.90541 1.47082,-2.09989 4.79904,-2.92674 7.00623,-1.7406 1.51629,0.81485 2.6727,2.25941 2.84454,3.55333 0.1865,1.40421 -2.35857,10.45173 -3.29244,11.70435 -1.08429,1.4544 -3.71358,2.37278 -5.48441,1.91564 z"
       id="path2267"
       inkscape:label="Options Button"
       inkscape:export-filename="C:\Users\AL200\OneDrive\Pictures\AL2009man Work Projects\VSCView - Controller Theme Layout\VSCView - Controller Theme (Ver. 1.10)\DualSense Controller Image\Image Assets\DualSense_Option_Button.png"
       inkscape:export-xdpi="97.959503"
       inkscape:export-ydpi="97.959503" /><path
       style="display:inline;fill:#107893;fill-opacity:0.501961;stroke:#24d2f6;stroke-width:1.3;stroke-miterlimit:4;stroke-dasharray:none;stroke-opacity:1"
       d="m 41.866624,170.57845 c 2.49578,-0.6443 4.10104,-2.41641 4.10104,-4.52731 0,-0.9945 -2.56985,-10.25257 -3.02712,-10.90541 -1.47082,-2.09989 -4.79904,-2.92674 -7.00623,-1.7406 -1.51629,0.81485 -2.6727,2.25941 -2.84454,3.55333 -0.1865,1.40421 2.35857,10.45173 3.29244,11.70435 1.08429,1.4544 3.71358,2.37278 5.48441,1.91564 z"
       id="path2267-2"
       inkscape:label="Create Button"
       inkscape:export-filename="C:\Users\AL200\OneDrive\Pictures\AL2009man Work Projects\VSCView - Controller Theme Layout\VSCView - Controller Theme (Ver. 1.10)\DualSense Controller Image\Image Assets\DualSense_Create_Button.png"
       inkscape:export-xdpi="97.959503"
       inkscape:export-ydpi="97.959503" /><path
       style="display:inline;fill:#107893;fill-opacity:0.50196081;stroke:#24d2f6;stroke-width:2.5;stroke-miterlimit:4;stroke-dasharray:none;stroke-opacity:1"
       d="m 74.485026,271.88273 -8.069792,-0.13668 -2.614717,-0.90053 c -5.403349,-1.86097 -9.250471,-5.33648 -11.526695,-10.41328 -0.83784,-1.86868 -1.824525,-5.51953 -7.415671,-27.43887 -1.132136,-4.43839 -2.776995,-10.86776 -3.655243,-14.2875 -1.960409,-7.63348 -2.293595,-9.65167 -2.096261,-12.69756 0.471569,-7.27873 4.886325,-12.34244 12.444744,-14.27406 3.451102,-0.88196 15.309089,-1.74946 33.516968,-2.45201 12.059753,-0.46532 61.182221,-0.46462 72.495831,0.001 13.24791,0.54527 23.41538,1.22678 28.60049,1.91704 4.61294,0.61409 8.02381,2.07912 10.7584,4.62092 3.41008,3.16966 4.69089,6.36126 4.67113,11.63984 -0.0107,2.87133 -0.11921,3.57989 -1.13403,7.40833 -1.09649,4.13656 -2.1828,8.2845 -3.77643,14.41979 -0.43468,1.67349 -1.66367,6.37646 -2.73107,10.45105 -1.0674,4.07458 -2.61906,10.0277 -3.44813,13.22916 -1.74356,6.73281 -2.7232,8.91946 -5.21359,11.63728 -2.98427,3.2568 -7.03105,5.57253 -11.85177,6.78207 l -2.51354,0.63065 h -44.18542 c -24.30198,0 -47.816819,-0.0615 -52.255204,-0.13668 z"
       id="path847"
       inkscape:export-filename="C:\Users\AL200\OneDrive\Pictures\AL2009man Work Projects\VSCView - Controller Theme Layout\VSCView - Controller Theme (Ver. 1.10)\DualSense Controller Image\Image Assets\DualSense_Touchpad-Click.png"
       inkscape:export-xdpi="95.585197"
       inkscape:export-ydpi="95.585197"
       inkscape:label="Touchpad Click" /><path
       id="path921"
       style="display:inline;fill:#107893;fill-opacity:0.501961;stroke:#24d2f6;stroke-width:0.600001;stroke-miterlimit:4;stroke-dasharray:none;stroke-opacity:1"
       d="m 95.934484,157.92861 -0.0884,7.38963 c -1.57159,0.37317 -7.72221,1.97783 -8.4196,2.26922 -1.69774,0.70935 -1.01403,1.56785 1.67431,2.10219 1.95559,0.3887 4.36145,0.49868 5.31596,0.24288 0.20312,-0.0544 0.95453,-0.30112 1.66605,-0.53544 l 0.005,1.03877 3.951176,0.9865 c 2.89545,-0.70058 13.91096,-2.68784 10.70116,-4.36562 -0.88478,-0.4485 -1.60905,-0.74569 -4.52427,-0.74569 -2.73012,0 -4.91251,0.41064 -6.17689,0.72192 v -4.34186 c 0.001,-0.54869 -0.233056,-2.89297 0.8847,-2.4722 2.28685,0.86088 -1.224156,5.54749 2.81947,5.45393 0.45887,-0.0106 0.907,-0.0874 1.30845,-0.32349 1.92622,-1.133 1.47161,-3.84828 -0.0661,-5.07928 -2.21771,-1.77532 -6.293416,-2.28454 -9.051176,-2.34146 z m 0.13596,8.9979 0.005,1.01906 c -0.63115,0.19954 -1.47842,0.45759 -2.45256,0.72451 -3.28283,0.89949 -3.91376,-0.004 -0.8599,-0.7984 1.31176,-0.34113 2.47017,-0.68811 3.30729,-0.94517 z m 11.007076,0.53175 c 0.55016,0.006 0.89917,0.082 0.89917,0.23668 0,0.13283 -1.32344,0.55895 -2.94297,0.9462 -2.12287,0.5076 -3.81449,1.07819 -4.98626,1.45572 l -0.008,-1.28103 c 0.98387,-0.26243 2.48444,-0.64421 3.29386,-0.84649 1.35144,-0.33772 2.82755,-0.52135 3.74447,-0.51108 z"
       sodipodi:nodetypes="ccsssccccscccccscccsscsssccss"
       inkscape:export-filename="C:\Users\AL200\OneDrive\Pictures\AL2009man Work Projects\VSCView - Controller Theme Layout\VSCView - Controller Theme (Ver. 1.10)\DualSense Controller Image\Image Assets\DualSense_Home_Button.png"
       inkscape:export-xdpi="97.959503"
       inkscape:export-ydpi="97.959503"
       inkscape:label="PS Button" /><path
       style="fill:#107893;fill-opacity:0.501961;stroke:#24d2f6;stroke-width:0.697244;stroke-linecap:round;stroke-linejoin:round;stroke-miterlimit:4;stroke-dasharray:none;stroke-opacity:1"
       d="m 129.51374,168.37081 c -0.3781,-0.16901 -0.88426,-0.53084 -1.12481,-0.80407 -0.36744,-0.41734 -0.39484,-0.59129 -0.17135,-1.08801 0.52717,-1.17171 1.20277,-1.26333 9.31635,-1.26333 8.17994,0 8.89439,0.0981 9.18248,1.26051 0.21322,0.86029 0.006,1.21163 -1.02743,1.74576 -0.86959,0.44927 -1.30747,0.47412 -8.20321,0.46553 -5.53042,-0.007 -7.45013,-0.0831 -7.97203,-0.31639 z"
       id="path847-7"
       inkscape:export-filename="C:\Users\AL200\OneDrive\Pictures\AL2009man Work Projects\VSCView - Controller Theme Layout\VSCView - Controller Theme (Ver. 1.10)\DualSense Controller Image\Image Assets\DualSense_Mute_Button.png"
       inkscape:export-xdpi="97.959503"
       inkscape:export-ydpi="97.959503"
       inkscape:label="Mute" /><ellipse
       style="display:inline;fill:#107893;fill-opacity:0.50196081;stroke:#24d2f6;stroke-width:3.43824;stroke-linecap:round;stroke-linejoin:round;stroke-miterlimit:4;stroke-dasharray:none;stroke-opacity:1"
       id="path4352"
       cx="178.54344"
       cy="159.20859"
       rx="24.210047"
       ry="20.770466"
       inkscape:label="Stick Click"
       inkscape:export-filename="..\DualSense_AnalogStick_Click.png"
       inkscape:export-xdpi="95.999985"
       inkscape:export-ydpi="95.999985" /></g></svg>
