<?xml version="1.0" encoding="UTF-8" standalone="no"?>
<!-- Created with Inkscape (http://www.inkscape.org/) -->

<svg
   width="166.94989mm"
   height="399.85031mm"
   viewBox="0 0 166.9499 399.85033"
   version="1.1"
   id="svg5"
   inkscape:version="1.1 (c68e22c387, 2021-05-23)"
   sodipodi:docname="Wikimedia Xbox 360 Active buttons.svg.2022_02_16_22_47_07.0.svg"
   xmlns:inkscape="http://www.inkscape.org/namespaces/inkscape"
   xmlns:sodipodi="http://sodipodi.sourceforge.net/DTD/sodipodi-0.dtd"
   xmlns="http://www.w3.org/2000/svg"
   xmlns:svg="http://www.w3.org/2000/svg">
  <sodipodi:namedview
     id="namedview7"
     pagecolor="#ffffff"
     bordercolor="#666666"
     borderopacity="1.0"
     inkscape:pageshadow="2"
     inkscape:pageopacity="0.0"
     inkscape:pagecheckerboard="0"
     inkscape:document-units="mm"
     showgrid="false"
     inkscape:zoom="1.5554293"
     inkscape:cx="299.9172"
     inkscape:cy="1460.69"
     inkscape:window-width="2560"
     inkscape:window-height="1334"
     inkscape:window-x="-11"
     inkscape:window-y="-11"
     inkscape:window-maximized="1"
     inkscape:current-layer="layer1" />
  <defs
     id="defs2" />
  <g
     inkscape:label="Layer 1"
     inkscape:groupmode="layer"
     id="layer1"
     transform="translate(-25.096702,9.3260925)">
    <g
       id="g6657"
       inkscape:export-filename="C:\Users\AL200\OneDrive\Pictures\AL2009man Work Projects\VSCView - Controller Theme Layout\VSCView - Controller Theme (Ver. 1.20)\Xbox 360 Controller Images\Wikimedia\Active Images\Wikimedia_X-Button.png"
       inkscape:export-xdpi="95.9851"
       inkscape:export-ydpi="95.9851">
      <path
         d="m 90.76594,99.43117 c 0,7.05472 -6.548015,12.77371 -14.625401,12.77371 -8.077394,0 -14.625409,-5.71899 -14.625409,-12.77371 0,-7.05473 6.548015,-12.77372 14.625409,-12.77372 8.077386,0 14.625401,5.71899 14.625401,12.77372 z"
         style="display:inline;fill:#80a4ff;fill-opacity:1;stroke:#000000;stroke-width:0.610124;stroke-miterlimit:4;stroke-opacity:1"
         inkscape:connector-curvature="0"
         inkscape:label="Layer 2"
         id="path4957" />
      <path
         d="m 89.794223,101.48959 c 0,5.90275 -5.967877,10.68787 -13.329624,10.68787 -7.361754,0 -13.329631,-4.78512 -13.329631,-10.68787 0,-5.90274 5.967877,-10.687863 13.329631,-10.687863 7.361747,0 13.329624,4.785123 13.329624,10.687863 z"
         style="display:inline;fill:#80a3ff;fill-opacity:1;stroke:#000000;stroke-width:0.610124;stroke-miterlimit:4;stroke-opacity:1"
         inkscape:connector-curvature="0"
         inkscape:label="Layer 1"
         id="path4959" />
      <path
         d="m 78.874257,101.33503 5.156987,7.34008 h -3.99218 l -3.474497,-4.91265 -3.444626,4.91265 h -4.01209 l 5.156981,-7.34008 -4.957875,-7.04146 h 4.002141 l 3.255469,4.6333 3.24552,-4.6333 h 4.022045 z"
         style="font-style:normal;font-weight:bold;font-size:32.8385px;line-height:125%;font-family:'Bitstream Vera Sans';-inkscape-font-specification:'Bitstream Vera Sans Bold';letter-spacing:0px;word-spacing:0px;display:inline;fill:#000000;fill-opacity:1;stroke:none;stroke-width:0.610735"
         inkscape:connector-curvature="0"
         inkscape:label="Layer 1"
         id="path5204" />
    </g>
    <g
       id="g6642"
       inkscape:export-filename="C:\Users\AL200\OneDrive\Pictures\AL2009man Work Projects\VSCView - Controller Theme Layout\VSCView - Controller Theme (Ver. 1.20)\Xbox 360 Controller Images\Wikimedia\Active Images\Wikimedia_Y-Button.png"
       inkscape:export-xdpi="95.9851"
       inkscape:export-ydpi="95.9851">
      <path
         d="m 126.63723,66.802475 c 1.82812,7.284204 -3.61037,14.926051 -12.14722,17.068549 -8.53684,2.142497 -16.939303,-2.025677 -18.767425,-9.309881 -1.828122,-7.284203 3.610369,-14.926058 12.147205,-17.068554 8.53685,-2.142499 16.93932,2.025682 18.76744,9.309886 z"
         style="display:inline;fill:#fff280;fill-opacity:1;stroke:#000000;stroke-width:0.721497;stroke-miterlimit:4;stroke-opacity:1"
         inkscape:connector-curvature="0"
         inkscape:label="Layer 2"
         id="path4965" />
      <path
         d="m 125.38047,70.270163 c 1.62315,6.714144 -3.15761,13.63089 -10.67814,15.448988 -7.52052,1.818097 -14.932937,-2.15093 -16.556091,-8.865075 -1.623154,-6.714145 3.157611,-13.630897 10.678131,-15.448994 7.52053,-1.818098 14.93294,2.150936 16.5561,8.865081 z"
         style="display:inline;fill:#fff380;fill-opacity:1;stroke:#000000;stroke-width:0.64876;stroke-miterlimit:4;stroke-opacity:1"
         inkscape:connector-curvature="0"
         inkscape:label="Layer 1"
         id="path8" />
      <path
         d="m 104.64314,66.685688 h 4.19129 l 3.38489,5.124574 3.3849,-5.124574 h 4.20124 l -5.66472,8.32261 v 6.058938 h -3.83288 v -6.058938 z"
         style="font-style:normal;font-weight:bold;font-size:32.8385px;line-height:125%;font-family:'Bitstream Vera Sans';-inkscape-font-specification:'Bitstream Vera Sans Bold';letter-spacing:0px;word-spacing:0px;display:inline;fill:#000000;fill-opacity:1;stroke:none;stroke-width:0.610735"
         inkscape:connector-curvature="0"
         inkscape:label="Layer 1"
         id="path5208" />
    </g>
    <g
       id="g6647"
       inkscape:export-filename="C:\Users\AL200\OneDrive\Pictures\AL2009man Work Projects\VSCView - Controller Theme Layout\VSCView - Controller Theme (Ver. 1.20)\Xbox 360 Controller Images\Wikimedia\Active Images\Wikimedia_B-Button.png"
       inkscape:export-xdpi="95.9851"
       inkscape:export-ydpi="95.9851">
      <path
         d="m 157.47795,90.903402 c 2.51604,6.493678 -1.85793,14.442938 -9.76953,17.755168 -7.9116,3.31223 -16.36488,0.73316 -18.88091,-5.76052 -2.51604,-6.49367 1.85793,-14.442932 9.76953,-17.755161 7.9116,-3.312229 16.36487,-0.733159 18.88091,5.760513 z"
         style="display:inline;fill:#ff8780;fill-opacity:1;stroke:#000000;stroke-width:0.758822;stroke-miterlimit:4;stroke-opacity:1"
         inkscape:connector-curvature="0"
         inkscape:label="Layer 2"
         id="path4969" />
      <path
         d="m 156.54761,93.472268 c 2.19124,5.701282 -1.61809,12.680522 -8.50838,15.588572 -6.89029,2.90805 -14.25233,0.64369 -16.44357,-5.05759 -2.19124,-5.70127 1.61809,-12.680512 8.50838,-15.588563 6.89029,-2.90805 14.25233,-0.643693 16.44357,5.057581 z"
         style="display:inline;fill:#ff8780;fill-opacity:1;stroke:#000000;stroke-width:0.66354;stroke-miterlimit:4;stroke-opacity:1"
         inkscape:connector-curvature="0"
         inkscape:label="Layer 1"
         id="path4971" />
      <path
         d="m 145.5058,97.53479 c 0.61512,0.008 1.08328,-0.11639 1.40448,-0.37378 0.32118,-0.25737 0.48516,-0.64114 0.49197,-1.1513 0.007,-0.5036 -0.14703,-0.88995 -0.46119,-1.15909 -0.31418,-0.2691 -0.77883,-0.40775 -1.39395,-0.41596 l -2.1597,-0.0288 -0.0413,3.10014 z m 0.0465,6.40805 c 0.78411,0.0104 1.37602,-0.14193 1.77574,-0.45715 0.39969,-0.3152 0.60387,-0.79655 0.6125,-1.44405 0.008,-0.63441 -0.18125,-1.11284 -0.56907,-1.43528 -0.38784,-0.32242 -0.97719,-0.48891 -1.76806,-0.49945 l -2.29151,-0.0305 -0.0511,3.83593 z m 3.70011,-5.2199 c 0.83505,0.24662 1.47817,0.69021 1.92939,1.33073 0.45118,0.64055 0.67064,1.42192 0.65837,2.34411 -0.0188,1.41271 -0.52632,2.45914 -1.52244,3.13927 -0.99616,0.68013 -2.50142,1.00677 -4.51577,0.97994 l -6.4791,-0.0863 0.19516,-14.64716 5.86059,0.07809 c 2.10223,0.02803 3.62074,0.355704 4.55553,0.983052 0.93476,0.627377 1.39313,1.617978 1.3751,2.971818 -0.01,0.71291 -0.18996,1.31723 -0.54135,1.81297 -0.35143,0.49575 -0.85658,0.86026 -1.51548,1.09351 z"
         style="font-style:normal;font-weight:bold;font-size:33.4479px;line-height:125%;font-family:'Bitstream Vera Sans';-inkscape-font-specification:'Bitstream Vera Sans Bold';letter-spacing:0px;word-spacing:0px;display:inline;fill:#000000;fill-opacity:1;stroke:none;stroke-width:0.610735"
         inkscape:connector-curvature="0"
         inkscape:label="Layer 1"
         id="path5216" />
    </g>
    <g
       id="g6652"
       inkscape:export-filename="C:\Users\AL200\OneDrive\Pictures\AL2009man Work Projects\VSCView - Controller Theme Layout\VSCView - Controller Theme (Ver. 1.20)\Xbox 360 Controller Images\Wikimedia\Active Images\Wikimedia_A-Button.png"
       inkscape:export-xdpi="95.9851"
       inkscape:export-ydpi="95.9851">
      <path
         d="m 122.74399,122.89876 c 1.02249,6.63012 -4.96696,13.0564 -13.37779,14.35351 -8.41085,1.29712 -16.058081,-3.02613 -17.080572,-9.65625 -1.022491,-6.63011 4.966955,-13.05639 13.377802,-14.35351 8.41084,-1.29711 16.05807,3.02614 17.08056,9.65625 z"
         style="display:inline;fill:#9eff80;fill-opacity:1;stroke:#000000;stroke-width:0.81842;stroke-miterlimit:4;stroke-opacity:1"
         inkscape:connector-curvature="0"
         id="path4963" />
      <path
         d="m 121.95728,125.48171 c 1.04127,6.08481 -4.13131,12.04714 -11.55327,13.31724 -7.42198,1.27009 -14.282796,-2.63299 -15.324069,-8.71781 -1.041273,-6.0848 4.131308,-12.04712 11.553279,-13.31722 7.42197,-1.2701 14.28279,2.63299 15.32406,8.71779 z"
         style="display:inline;fill:#9fff80;fill-opacity:1;stroke:#000000;stroke-width:0.738487;stroke-miterlimit:4;stroke-opacity:1"
         inkscape:connector-curvature="0"
         id="path4961" />
      <path
         d="m 111.90312,132.37724 h -5.99325 l -0.94578,2.62008 h -3.85281 l 5.50543,-14.38154 h 4.56961 l 5.50543,14.38154 h -3.85281 z M 106.8656,129.709 h 4.07183 l -2.03094,-5.7218 z"
         style="font-style:normal;font-weight:bold;font-size:32.8385px;line-height:125%;font-family:'Bitstream Vera Sans';-inkscape-font-specification:'Bitstream Vera Sans Bold';letter-spacing:0px;word-spacing:0px;display:inline;fill:#000000;fill-opacity:1;stroke:none;stroke-width:0.610735"
         inkscape:connector-curvature="0"
         id="path5212" />
    </g>
    <g
       id="g10647"
       transform="translate(0,-50.281627)"
       inkscape:export-filename="C:\Users\AL200\OneDrive\Pictures\AL2009man Work Projects\VSCView - Controller Theme Layout\VSCView - Controller Theme (Ver. 1.20)\Xbox 360 Controller Images\Wikimedia\Active Images\Wikimedia_XboxGuide.png"
       inkscape:export-xdpi="95.9851"
       inkscape:export-ydpi="95.9851">
      <path
         d="m 130.30548,352.79385 c 0,9.2185 -9.24571,16.6916 -20.6509,16.6916 -11.4052,0 -20.65091,-7.4731 -20.65091,-16.6916 0,-9.21853 9.24571,-16.69163 20.65091,-16.69163 11.40519,0 20.6509,7.4731 20.6509,16.69163 z"
         style="display:inline;fill:#717171;fill-opacity:1;stroke:#000000;stroke-width:0.610125;stroke-miterlimit:4;stroke-opacity:1"
         inkscape:connector-curvature="0"
         id="path4979" />
      <path
         d="m 109.34689,353.74844 8.94557,5.62954 c 0,0 4.62702,2.85333 4.93549,3.31603 0.30846,0.4627 1.23386,1.61946 1.23386,1.61946 0,0 1.27243,-1.07964 1.50379,-1.38811 0.23135,-0.30847 -0.19279,-1.73514 -0.19279,-1.73514 0,0 -1.00253,-2.42918 -5.01261,-5.51385 -4.01008,-3.08468 -7.24899,-6.7863 -7.24899,-6.7863 l 3.93296,-4.5499 c 0,0 2.89189,-3.27747 3.47027,-3.54738 0.28813,-0.13446 1.50378,-0.88685 1.50378,-0.88685 0,0 -1.27243,-1.1953 -2.66054,-1.58089 -1.3881,-0.38558 -10.71925,5.62954 -10.71925,5.62954 0,0 -9.601069,-4.43423 -10.98917,-4.89693 -1.15676,0.50126 -2.05502,1.13893 -2.77621,1.73513 1.63087,0.48053 2.15927,1.15676 2.15927,1.15676 0,0 6.16379,5.81626 6.5935,6.28503 0.42415,0.4627 0.73262,0.77117 0.73262,0.77117 l -6.71882,7.32611 c 0,0 -3.57741,4.53701 -3.54738,5.71629 0.0231,0.90685 -0.46602,1.50752 -0.16388,1.87009 0,0 2.17856,2.17856 1.87009,1.40739 -0.30847,-0.77117 0.77117,-1.72549 0.77117,-1.72549 0,0 3.26012,-2.88529 4.22215,-3.50883 1.04109,-0.67477 8.15512,-6.34287 8.15512,-6.34287 z"
         style="display:inline;fill:#4e9a00;fill-opacity:1;stroke:#000000;stroke-width:0.610735px;stroke-linecap:butt;stroke-linejoin:miter;stroke-opacity:1"
         inkscape:connector-curvature="0"
         id="path4993" />
    </g>
    <g
       id="g233"
       inkscape:label="D-PAD"
       transform="matrix(0.61073515,0,0,0.61073515,-63.974736,-363.8576)"
       style="display:inline">
      <path
         id="path4981"
         style="display:inline;fill:#bfbfbf;fill-opacity:1;stroke:#000000;stroke-width:2.30829px;stroke-linecap:butt;stroke-linejoin:miter;stroke-opacity:1"
         d="M 170.41992,52.619141 C 168.22323,49.738159 166.53253,47.20548 165.83594,46.625 164.08716,45.167661 158.34742,17.882364 157.38281,12.523438 156.07119,5.2368104 148.64062,2.3222656 148.64062,2.3222656 L 124.01172,1.15625 c 0,0 -6.55849,0.291847 -16.75977,0.4375 -8.114427,0.115922 -14.448904,0.4523589 -16.867184,1.7324219 -1.43795,0.761159 -2.994427,1.2496596 -4.847657,2.9316406 -2.25532,0.01856 -4.809668,32.7898305 -5.392578,38.6191405 -0.194427,1.944305 -1.567923,4.21302 -3.480469,6.513672 L 124.1543,98.882812 Z"
         transform="matrix(0.43322107,0,0,0.43322107,224.67543,580.49921)"
         inkscape:export-filename="C:\Users\AL200\OneDrive\Pictures\AL2009man Work Projects\VSCView - Controller Theme Layout\VSCView - Controller Theme (Ver. 1.20)\Xbox 360 Controller Images\Wikimedia\Active Images\Wikimedia_D-PAD_Up.png"
         inkscape:export-xdpi="95.9851"
         inkscape:export-ydpi="95.9851" />
      <path
         id="path11149"
         style="display:inline;fill:#bfbfbf;fill-opacity:1;stroke:#000000;stroke-width:2.30829px;stroke-linecap:butt;stroke-linejoin:miter;stroke-opacity:1"
         d="m 173.39258,148.12109 c 0.43202,-1.94095 0.83625,-3.59865 1.1875,-4.73047 0.28215,-0.90913 0.72437,-1.74862 1.25,-2.54492 4.9617,-4.71896 13.40625,-6.76367 13.40625,-6.76367 0,0 46.56714,-4.48801 49.09179,-5.89062 0.65387,-0.36325 1.24709,-1.20422 1.77344,-2.24024 1.39893,-0.24437 2.37603,-0.46107 2.68164,-0.63086 2.62319,-1.45731 4.3711,-10.20117 4.3711,-10.20117 l -0.58203,-28.271484 c 0,0 -4.37245,-11.367047 -7.28711,-13.990234 -2.91465,-2.623207 -49.84075,-9.326769 -56.83594,-10.201172 -3.80403,-0.475494 -7.83313,-4.733987 -11.0293,-8.763672 l -46.1289,46.126952 z"
         transform="matrix(0.43322107,0,0,0.43322107,224.67543,580.49921)"
         inkscape:export-filename="C:\Users\AL200\OneDrive\Pictures\AL2009man Work Projects\VSCView - Controller Theme Layout\VSCView - Controller Theme (Ver. 1.20)\Xbox 360 Controller Images\Wikimedia\Active Images\Wikimedia_D-PAD_Right.png"
         inkscape:export-xdpi="95.9851"
         inkscape:export-ydpi="95.9851" />
      <path
         id="path11147"
         style="display:inline;fill:#bfbfbf;fill-opacity:1;stroke:#000000;stroke-width:2.30829px;stroke-linecap:butt;stroke-linejoin:miter;stroke-opacity:1"
         d="m 81.441406,143.87109 c 1.29983,1.17117 2.416222,2.37355 3.324219,3.52344 1.67594,2.54809 2.375,4.44922 2.375,4.44922 0,0 7.286522,36.14213 10.201172,40.22266 2.31754,3.24456 10.282363,5.50069 13.550783,6.3164 1.22745,0.32144 2.04297,0.5 2.04297,0.5 0,0 31.69847,-0.56271 38.15039,-1.40429 0.30306,-0.0395 0.5924,-0.0942 0.88086,-0.1504 0.0411,-0.005 0.13065,-0.0105 0.16992,-0.0156 6.70372,-0.87438 9.91045,-5.82844 12.24219,-8.16016 1.92949,-1.92949 5.83791,-26.04034 8.62109,-39.15039 l -48.8457,-48.8457 z"
         transform="matrix(0.43322107,0,0,0.43322107,224.67543,580.49921)"
         inkscape:export-filename="C:\Users\AL200\OneDrive\Pictures\AL2009man Work Projects\VSCView - Controller Theme Layout\VSCView - Controller Theme (Ver. 1.20)\Xbox 360 Controller Images\Wikimedia\Active Images\Wikimedia_D-PAD_Down.png"
         inkscape:export-xdpi="95.9851"
         inkscape:export-ydpi="95.9851" />
      <path
         id="path11145"
         style="display:inline;fill:#bfbfbf;fill-opacity:1;stroke:#000000;stroke-width:2.30829px;stroke-linecap:butt;stroke-linejoin:miter;stroke-opacity:1"
         d="m 75.601562,52.601562 c -3.803558,4.196859 -9.058548,8.333595 -12.070312,10.636719 -4.95491,3.789059 -48.965755,8.743688 -52.171875,9.035157 -3.20612,0.291467 -8.7443062,10.784419 -9.9101562,12.533203 -1.16587006,1.748807 1.4580756,23.025709 2.0410156,29.146479 0.53942,5.66388 5.3264762,12.0719 12.5039066,16 1.71223,1.36222 3.646307,2.58077 5.773437,3.56836 7.85449,3.64671 34.22409,0.56028 48.25,4.20704 4.229128,1.09957 7.564406,2.99479 10.19336,5.09765 l 42.806642,-42.80664 z"
         transform="matrix(0.43322107,0,0,0.43322107,224.67543,580.49921)"
         inkscape:export-filename="C:\Users\AL200\OneDrive\Pictures\AL2009man Work Projects\VSCView - Controller Theme Layout\VSCView - Controller Theme (Ver. 1.20)\Xbox 360 Controller Images\Wikimedia\Active Images\Wikimedia_D-PAD_Left.png"
         inkscape:export-xdpi="95.9851"
         inkscape:export-ydpi="95.9851" />
    </g>
    <g
       id="g1065"
       inkscape:label="Right Bumper"
       inkscape:export-filename="C:\Users\AL200\OneDrive\Pictures\AL2009man Work Projects\VSCView - Controller Theme Layout\VSCView - Controller Theme (Ver. 1.20)\Xbox 360 Controller Images\Wikimedia\Active Images\Wikimedia_RB.png"
       inkscape:export-xdpi="95.9851"
       inkscape:export-ydpi="95.9851">
      <path
         id="path4953"
         style="display:inline;fill:#bfbfbf;fill-opacity:1;stroke:#000000;stroke-width:0.610124;stroke-linecap:butt;stroke-linejoin:miter;stroke-miterlimit:4;stroke-dasharray:none;stroke-opacity:1"
         d="m 136.26196,241.5294 c -0.31615,0.003 -0.62665,0.006 -0.93276,0.0124 -2.60558,0.058 -5.69168,0.21748 -8.16074,0.40253 -2.69619,0.19241 -4.89507,0.41331 -5.33559,0.57878 -0.87071,0.3271 -2.17651,4.25246 -3.26492,4.47053 -1.0884,0.21807 -3.80958,0.98134 -3.80958,0.98134 l -0.3266,7.74113 2.50321,8.61396 c 0,0 7.83683,-5.45179 28.40757,-2.61692 20.57074,2.83491 26.99215,5.99708 26.99215,5.99708 0,0 18.39386,7.1959 19.0469,6.65075 0.65304,-0.54518 0.21755,-3.81633 0.21755,-3.81633 l -0.65319,-6.43268 c 0,0 0.0835,-1.12696 -0.5519,-2.70526 -0.0908,-0.22545 -0.19588,-0.46035 -0.31833,-0.70228 -0.97956,-1.93535 -3.048,-4.33414 -7.40161,-6.18773 -7.61872,-3.24377 -14.2375,-7.23868 -22.55418,-9.57461 -0.59405,-0.16685 -1.19632,-0.32533 -1.80868,-0.4744 -0.61235,-0.14904 -1.23443,-0.28858 -1.86707,-0.41804 -1.26526,-0.25898 -2.46775,-0.49398 -3.61269,-0.70694 -1.14495,-0.21296 -2.23234,-0.40376 -3.26802,-0.57412 -1.03568,-0.17037 -2.01946,-0.32049 -2.95693,-0.45167 -2.8124,-0.39354 -5.20799,-0.61865 -7.33547,-0.72088 -0.70916,-0.0341 -1.38864,-0.054 -2.0438,-0.0625 -0.32758,-0.004 -0.64916,-0.006 -0.96532,-0.004 z" />
      <path
         id="path5172"
         style="font-style:normal;font-variant:normal;font-weight:bold;font-stretch:normal;font-size:12.254px;line-height:125%;font-family:Arial;-inkscape-font-specification:'Arial Bold';letter-spacing:0px;word-spacing:0px;fill:#000000;fill-opacity:1;stroke:none;stroke-width:0.610735"
         d="m 140.19195,243.86051 -0.14521,4.07521 1.42007,0.0506 0.0605,-1.70119 0.28784,0.0103 c 0.32623,0.0117 0.5639,0.0354 0.71314,0.0713 0.14923,0.0359 0.28976,0.0977 0.42116,0.185 0.13139,0.0872 0.37376,0.29538 0.72709,0.62528 l 0.99477,0.92345 1.6986,0.0605 -0.83044,-0.82526 c -0.32775,-0.32899 -0.58949,-0.5591 -0.78497,-0.69041 -0.19547,-0.13128 -0.44493,-0.25477 -0.74827,-0.36949 0.61913,-0.0299 1.08774,-0.13893 1.40508,-0.3271 0.31733,-0.18818 0.48107,-0.43474 0.49196,-0.74052 0.009,-0.24093 -0.0862,-0.45871 -0.28422,-0.6532 -0.19803,-0.19447 -0.46607,-0.33428 -0.80408,-0.4196 -0.33803,-0.0853 -0.88241,-0.14169 -1.63401,-0.16847 z m 7.10034,0.25323 -0.1452,4.07519 2.39416,0.0853 c 0.90527,0.0286 1.47638,0.0394 1.71359,0.0331 0.37827,-0.0106 0.69791,-0.0636 0.95912,-0.15918 0.26119,-0.0955 0.46929,-0.22807 0.62425,-0.3979 0.155,-0.16984 0.23575,-0.34746 0.24236,-0.5328 0.008,-0.23534 -0.0994,-0.44442 -0.32349,-0.62682 -0.22409,-0.1824 -0.54914,-0.31761 -0.97514,-0.40516 0.30668,-0.0688 0.55166,-0.17973 0.73485,-0.33279 0.18317,-0.15306 0.27793,-0.32483 0.28473,-0.51572 0.006,-0.17606 -0.0601,-0.33783 -0.19896,-0.48472 -0.13888,-0.1469 -0.31477,-0.26673 -0.52761,-0.35968 -0.21286,-0.093 -0.4551,-0.15766 -0.72761,-0.19431 -0.2725,-0.0366 -0.68734,-0.0649 -1.24384,-0.0847 z m -5.70507,0.48678 1.10846,0.0393 c 0.57569,0.0206 0.92077,0.0379 1.03559,0.0512 0.22948,0.0305 0.40583,0.09 0.52917,0.17881 0.12331,0.0888 0.18265,0.20185 0.17777,0.33898 -0.004,0.12232 -0.0562,0.22265 -0.15503,0.30078 -0.0989,0.0781 -0.23342,0.13078 -0.40411,0.15812 -0.17071,0.0274 -0.59671,0.0289 -1.27796,0.005 l -1.05058,-0.0377 z m 7.10085,0.24185 0.81546,0.0289 c 0.66845,0.0238 1.07296,0.0431 1.21336,0.0573 0.23608,0.0252 0.41255,0.0792 0.52969,0.16227 0.11712,0.0831 0.17346,0.18766 0.16898,0.31369 -0.005,0.13158 -0.0776,0.23489 -0.21963,0.31056 -0.142,0.0757 -0.3351,0.11756 -0.57878,0.12558 -0.13466,0.004 -0.47866,-0.003 -1.03197,-0.0228 l -0.93069,-0.033 z m -0.0579,1.62058 1.14669,0.0408 c 0.64607,0.023 1.06517,0.0575 1.25729,0.10334 0.19211,0.0458 0.33786,0.11316 0.43719,0.20206 0.0993,0.0889 0.14698,0.19445 0.14262,0.31676 -0.005,0.14457 -0.0755,0.25754 -0.21136,0.33901 -0.1358,0.0814 -0.31005,0.12944 -0.52193,0.14418 -0.13812,0.0117 -0.46288,0.009 -0.97462,-0.009 l -1.31464,-0.047 z"
         inkscape:label="path5172" />
      <path
         style="color:#000000;display:inline;fill:#000000;-inkscape-stroke:none"
         d="m 135.32227,241.23633 c -2.45546,0.0546 -5.35188,0.19805 -7.7461,0.36914 -1.1971,0.0855 -2.26692,0.17951 -3.09765,0.27148 -0.83074,0.092 -1.3818,0.16274 -1.69727,0.28125 l -0.24023,0.0899 0.0488,0.2539 c 0.39493,2.03189 0.26605,4.22791 0.76368,5.99024 l 0.64843,3.4707 0.39258,-0.44141 c 0.004,-0.002 0.01,-0.006 0.0332,-0.0176 0.0554,-0.0276 0.17564,-0.0779 0.39063,-0.13086 0.42998,-0.10592 1.24283,-0.22809 2.70312,-0.26172 2.92059,-0.0673 8.42885,0.21857 18.70508,1.63476 10.28078,1.41682 15.86591,2.42485 18.8711,3.07618 1.50259,0.32566 2.3611,0.5607 2.83593,0.71289 0.23742,0.0761 0.37795,0.13086 0.45508,0.16406 0.0771,0.0332 0.0684,0.0312 0.0684,0.0312 l 0.0254,0.0176 0.0312,0.0117 c 0,0 1.5758,0.62655 3.25195,1.2871 1.67616,0.66056 3.42838,1.34747 3.86719,1.49805 0.9214,0.31619 4.07458,1.57578 6.97071,2.74805 2.89612,1.17227 5.55273,2.26367 5.55273,2.26367 l 0.0644,0.0254 0.0703,-0.004 2.93945,-0.17773 0.0195,-0.26562 c 0,0 0.10947,-1.56928 -0.90234,-3.56836 -1.01182,-1.99909 -3.14584,-4.45298 -7.55469,-6.33008 -8.67913,-3.69525 -16.10505,-8.40241 -26.28711,-10.48633 -10.13537,-2.07436 -16.25756,-2.62334 -21.18359,-2.51367 z m 0.0137,0.61133 c 4.86953,-0.10841 10.93804,0.43106 21.04687,2.5 10.06214,2.05937 17.43681,6.73015 26.17188,10.44921 4.29836,1.83007 6.30074,4.1733 7.24804,6.04493 0.81087,1.60205 0.82838,2.65889 0.82227,2.98242 l -2.30469,0.14062 c -0.0641,-0.0263 -2.62607,-1.07779 -5.48828,-2.23632 -2.89777,-1.17294 -6.01613,-2.42148 -7.00195,-2.75977 -0.36582,-0.12553 -2.16664,-0.83008 -3.8418,-1.49023 -1.67516,-0.66016 -3.25,-1.28516 -3.25,-1.28516 l 0.0586,0.0312 c 0,0 -0.0651,-0.0405 -0.16601,-0.084 -0.10092,-0.0434 -0.26024,-0.10494 -0.51172,-0.18554 -0.50296,-0.1612 -1.37722,-0.40204 -2.89258,-0.73047 -3.03071,-0.65686 -8.62607,-1.66591 -18.91601,-3.08399 -10.29448,-1.4187 -15.82515,-1.70725 -18.80274,-1.63867 -1.48879,0.0343 -2.33977,0.15709 -2.83593,0.2793 -0.1232,0.0303 -0.17176,0.0585 -0.25586,0.0879 l -0.47071,-2.5293 -0.004,-0.0137 c -0.42904,-1.51942 -0.36871,-3.60603 -0.71289,-5.63476 0.22167,-0.0533 0.62111,-0.13201 1.3164,-0.20899 0.81807,-0.0906 1.88441,-0.18242 3.07617,-0.26758 2.38353,-0.17032 5.27251,-0.31282 7.71485,-0.36718 z"
         id="path877" />
    </g>
    <g
       id="g1072"
       inkscape:label="Left Bumper"
       inkscape:export-filename="C:\Users\AL200\OneDrive\Pictures\AL2009man Work Projects\VSCView - Controller Theme Layout\VSCView - Controller Theme (Ver. 1.20)\Xbox 360 Controller Images\Wikimedia\Active Images\Wikimedia_LB.png"
       inkscape:export-xdpi="95.9851"
       inkscape:export-ydpi="95.9851">
      <path
         id="path4943"
         style="display:inline;fill:#bfbfbf;fill-opacity:1;stroke:#000000;stroke-width:0.610735px;stroke-linecap:butt;stroke-linejoin:miter;stroke-opacity:1"
         d="m 80.993497,241.48701 c -0.316793,-0.003 -0.638619,-1.3e-4 -0.966864,0.004 -0.65649,0.008 -1.337345,0.029 -2.047939,0.0631 -2.131779,0.10226 -4.531849,0.32726 -7.349937,0.72088 -0.939363,0.13123 -1.925354,0.28125 -2.963127,0.45167 -1.037773,0.17039 -2.127478,0.36111 -3.274737,0.57412 -1.147258,0.21302 -2.352112,0.44791 -3.619934,0.70694 -0.63391,0.12951 -1.257091,0.26951 -1.870687,0.41857 -0.613595,0.14907 -1.217559,0.3075 -1.812808,0.4744 -8.333493,2.33648 -14.965463,6.33264 -22.599656,9.57718 -4.362392,1.85401 -6.434547,4.25296 -7.416085,6.18879 -0.122692,0.24196 -0.228406,0.47675 -0.31936,0.70228 -0.636679,1.57864 -0.553454,2.70576 -0.553454,2.70576 l -0.654224,6.43475 c 0,0 -0.436286,3.27152 0.218074,3.81682 0.65436,0.54531 19.085658,-6.65231 19.085658,-6.65231 0,0 6.434616,-3.16304 27.04693,-5.99858 20.612309,-2.83557 28.464413,2.61739 28.464413,2.61739 l 2.50837,-8.61549 -0.32711,-7.74319 c 0,0 -2.726742,-0.76322 -3.817338,-0.98134 -0.976133,-0.19521 -2.125832,-3.35392 -2.982246,-4.25091 -0.07137,-0.0967 -0.164396,-0.17377 -0.289388,-0.22066 -0.872479,-0.32716 -8.615516,-0.87278 -13.523206,-0.98184 -0.306732,-0.007 -0.618549,-0.0109 -0.935345,-0.0124 z" />
      <path
         id="path5157"
         style="font-style:normal;font-variant:normal;font-weight:bold;font-stretch:normal;font-size:12.254px;line-height:125%;font-family:Arial;-inkscape-font-specification:'Arial Bold';letter-spacing:0px;word-spacing:0px;fill:#000000;fill-opacity:1;stroke:none;stroke-width:0.610735"
         d="m 76.764299,244.24291 c -0.258765,0.003 -0.596659,0.0175 -1.013375,0.0455 l -2.806547,0.18862 0.273368,4.0685 2.390034,-0.16021 c 0.903425,-0.0644 1.472597,-0.11247 1.707907,-0.14314 0.375176,-0.0494 0.687892,-0.13451 0.937926,-0.25633 0.250018,-0.12181 0.44359,-0.27559 0.580327,-0.46043 0.136795,-0.18483 0.198435,-0.36946 0.186036,-0.55448 -0.01579,-0.23501 -0.144428,-0.43167 -0.386024,-0.59016 -0.241604,-0.15845 -0.578575,-0.25939 -1.011306,-0.30281 0.298002,-0.1 0.530068,-0.23567 0.696597,-0.40669 0.166524,-0.17106 0.243303,-0.3515 0.230479,-0.54211 -0.01183,-0.17576 -0.09434,-0.32956 -0.247531,-0.46146 -0.153215,-0.13187 -0.339942,-0.23323 -0.561208,-0.30384 -0.221263,-0.0706 -0.46932,-0.11039 -0.744141,-0.11886 -0.0687,-0.003 -0.146288,-0.003 -0.232542,-0.003 z m -8.363315,0.57312 -1.418,0.0951 0.271301,4.03543 4.942851,-0.33229 -0.04599,-0.68522 -3.525367,0.23667 z m 8.033618,0.12038 c 0.237413,0 0.418608,0.0364 0.543637,0.10697 0.125031,0.0706 0.191561,0.16926 0.199988,0.29509 0.0088,0.13137 -0.05358,0.24194 -0.187069,0.33177 -0.133506,0.0898 -0.320675,0.15097 -0.562239,0.18396 -0.133496,0.0183 -0.476462,0.0461 -1.028878,0.0832 l -0.929142,0.0625 -0.06356,-0.94104 0.814419,-0.0548 c 0.667375,-0.0449 1.071719,-0.0675 1.212845,-0.0677 z m 0.172601,1.62264 c 0.136599,-3e-5 0.241797,0.005 0.315227,0.0151 0.195789,0.0259 0.347364,0.0778 0.455269,0.15605 0.107923,0.0783 0.165965,0.17812 0.174148,0.30025 0.0097,0.14433 -0.04896,0.26422 -0.175699,0.35915 -0.126741,0.095 -0.29459,0.16049 -0.503846,0.1969 -0.136194,0.0259 -0.459573,0.0561 -0.970484,0.0904 l -1.312579,0.0878 -0.07287,-1.08778 1.144635,-0.077 c 0.403137,-0.0271 0.718531,-0.0408 0.946195,-0.0408 z" />
      <path
         style="color:#000000;fill:#000000;-inkscape-stroke:none"
         d="m 81.935547,241.19336 c -4.935916,-0.10968 -11.070748,0.44078 -21.226563,2.51562 -10.202479,2.08439 -17.644983,6.79214 -26.341797,10.48829 -4.417633,1.87749 -6.554454,4.33238 -7.568359,6.33203 -1.013905,1.99964 -0.904297,3.56836 -0.904297,3.56836 l 0.28711,-0.31055 0.01758,0.59375 h 0.328125 l -0.0059,-0.0859 c 1.083321,-0.13997 2.235383,-0.64981 3.460938,-0.95312 l 0.0059,-0.002 h 0.0059 c 0,0 2.470672,-0.72025 5.039062,-1.48242 1.284195,-0.38108 2.593213,-0.77378 3.630859,-1.0918 0.518824,-0.159 0.969068,-0.2982 1.316407,-0.41015 0.347339,-0.11196 0.57776,-0.18825 0.710937,-0.2461 3.846004,-1.67056 10.867188,-3.55468 10.867188,-3.55468 l 0.04492,-0.0117 0.0098,-0.006 c 0.0039,-10e-4 0.002,-2.9e-4 0.0078,-0.002 0.04082,-0.0118 0.129829,-0.0353 0.296875,-0.0742 0.33409,-0.0778 0.983829,-0.21762 2.232422,-0.46485 2.497184,-0.49446 7.387051,-1.41526 16.949218,-3.11914 10.226802,-1.8223 15.974515,-2.05105 19.140625,-1.83008 1.583056,0.11049 2.521032,0.33367 3.048828,0.51954 0.263899,0.0929 0.423679,0.17576 0.513672,0.23046 0.08999,0.0547 0.08984,0.0586 0.08984,0.0586 l 0.484375,0.51172 0.158203,-2.66211 0.509766,-2.22656 c 0.02858,-0.0552 0.506222,-0.97152 0.734375,-1.83594 0.139372,-0.52809 0.355474,-1.22659 0.425781,-1.86719 0.03515,-0.3203 0.0385,-0.62963 -0.04687,-0.91406 -0.08538,-0.28443 -0.291024,-0.5503 -0.599609,-0.66602 -0.165527,-0.0621 -0.379278,-0.10088 -0.691407,-0.14844 -0.312128,-0.0476 -0.708336,-0.0968 -1.173828,-0.14648 -0.930984,-0.0994 -2.137172,-0.20127 -3.46875,-0.29687 -2.663155,-0.19121 -5.827484,-0.35546 -8.289062,-0.41016 z m -0.01367,0.61133 c 2.446107,0.0544 5.606258,0.21769 8.259766,0.4082 1.326753,0.0953 2.527642,0.19669 3.447265,0.29492 0.459812,0.0491 0.848986,0.0973 1.146485,0.14258 0.297498,0.0453 0.515766,0.0975 0.568359,0.11719 0.127654,0.0479 0.181584,0.11318 0.228516,0.26953 0.04693,0.15635 0.0556,0.39666 0.02539,0.67187 -0.06041,0.55044 -0.263765,1.23007 -0.408203,1.77735 -0.205868,0.77999 -0.708984,1.76758 -0.708984,1.76758 l -0.01758,0.0352 -0.535157,2.33008 -0.08984,1.52734 c -0.109641,-0.0524 -0.183436,-0.0984 -0.347657,-0.15625 -0.596569,-0.21008 -1.583951,-0.43945 -3.207031,-0.55273 -3.246159,-0.22656 -9.034055,0.0102 -19.291016,1.83789 -9.564181,1.70424 -14.456471,2.62519 -16.960937,3.12109 -1.252233,0.24796 -1.905822,0.39012 -2.251953,0.47071 -0.173066,0.0403 -0.270165,0.0653 -0.328125,0.082 -0.02286,0.007 -0.03596,0.0106 -0.05078,0.0156 -0.004,10e-4 -0.0099,0.003 -0.01367,0.004 -0.0239,0.006 -7.005655,1.87137 -10.939453,3.58008 -0.06214,0.027 -0.31183,0.11422 -0.654297,0.22461 -0.342467,0.11038 -0.791379,0.24969 -1.308594,0.4082 -1.034429,0.31703 -2.341744,0.70904 -3.625,1.08984 -2.566513,0.76162 -5.035156,1.48047 -5.035156,1.48047 l 0.01172,-0.002 c -1.283238,0.31759 -2.391348,0.78381 -3.304687,0.92187 0.0038,-0.42115 0.05943,-1.38195 0.8125,-2.86718 0.949168,-1.87197 2.956529,-4.21634 7.263672,-6.04688 8.752753,-3.71992 16.141981,-8.39127 26.224609,-10.45117 10.129294,-2.06943 16.210384,-2.61038 21.089844,-2.50195 z"
         id="path973" />
    </g>
    <g
       id="g2512"
       inkscape:label="Left Trigger"
       transform="matrix(0.61073515,0,0,0.61073515,-42.18157,2.9950643)"
       style="display:inline"
       inkscape:export-filename="C:\Users\AL200\OneDrive\Pictures\AL2009man Work Projects\VSCView - Controller Theme Layout\VSCView - Controller Theme (Ver. 1.20)\Xbox 360 Controller Images\Wikimedia\Active Images\Wikimedia_LeftTrigger-Active.png"
       inkscape:export-xdpi="95.9851"
       inkscape:export-ydpi="95.9851">
      <path
         id="path4945"
         style="display:inline;fill:#bfbfbf;fill-opacity:1;stroke:#000000;stroke-width:2.30829px;stroke-linecap:butt;stroke-linejoin:miter;stroke-opacity:1"
         d="m 177.69922,819.39648 c -5.35854,0 -19.78489,12.36608 -21.02149,17.72461 -1.23657,5.35854 -5.7714,43.27998 -6.18359,49.46289 -0.29052,4.35786 -6.46264,42.8381 -10.83984,69.9336 35.45049,-7.02611 57.39111,-8.9101 75.14258,-8.51563 9.61462,0.21366 22.05392,0.87174 32.31835,1.62696 l 5.19141,-66.3418 c 0,0 -0.41194,-20.60926 -1.23633,-39.98242 -0.82438,-19.37314 -28.4414,-23.90821 -28.4414,-23.90821 z"
         transform="matrix(0.43322107,0,0,0.43322107,110.15949,-46.367949)" />
      <path
         id="path5162"
         style="font-style:normal;font-variant:normal;font-weight:bold;font-stretch:normal;font-size:11.6627px;line-height:125%;font-family:Arial;-inkscape-font-specification:'Arial Bold';letter-spacing:0px;word-spacing:0px;display:inline;fill:#090909;fill-opacity:1;stroke:none;stroke-width:1"
         d="m 194.37482,353.73087 v 1.12959 h 3.09686 v 5.54726 h 2.10772 v -5.54726 h 3.09009 v -1.12959 z m -8.1102,0.0542 v 6.62269 h 7.34784 v -1.12536 h -5.24011 v -5.49733 z" />
    </g>
    <g
       id="g2518"
       inkscape:label="Right Trigger"
       transform="matrix(0.61073515,0,0,0.61073515,-206.24471,2.9951823)"
       style="display:inline"
       inkscape:export-filename="C:\Users\AL200\OneDrive\Pictures\AL2009man Work Projects\VSCView - Controller Theme Layout\VSCView - Controller Theme (Ver. 1.20)\Xbox 360 Controller Images\Wikimedia\Active Images\Wikimedia_RightTrigger-Active.png"
       inkscape:export-xdpi="95.9851"
       inkscape:export-ydpi="95.9851">
      <path
         id="path4951"
         style="display:inline;fill:#bfbfbf;fill-opacity:1;stroke:#000000;stroke-width:2.30569px;stroke-linecap:butt;stroke-linejoin:miter;stroke-opacity:1"
         d="m 416.97266,818.42188 c 0,0 -27.56212,4.5318 -28.38477,23.90039 -0.82265,19.36861 -1.23437,39.97461 -1.23437,39.97461 l 5.22851,66.9375 c 8.21249,-0.50664 16.91384,-0.91353 24.04492,-1.07227 18.51136,-0.4121 41.54789,1.64866 79.80469,9.47851 1.28692,0.26339 2.56,0.53897 3.82422,0.82422 -4.25327,-26.34345 -10.99181,-68.31695 -11.29492,-72.87109 -0.41122,-6.18146 -4.93754,-44.09391 -6.17188,-49.45117 -1.23385,-5.35729 -15.63046,-17.7207 -20.97851,-17.7207 z"
         transform="matrix(0.43322107,0,0,0.43322107,378.79171,-46.368143)" />
      <path
         id="path5167"
         style="font-style:normal;font-variant:normal;font-weight:bold;font-stretch:normal;font-size:11.6627px;line-height:125%;font-family:Arial;-inkscape-font-specification:'Arial Bold';letter-spacing:0px;word-spacing:0px;display:inline;fill:#000000;fill-opacity:1;stroke:none;stroke-width:1"
         d="m 563.82908,353.99192 v 6.67685 h 2.10772 v -2.78717 h 0.4273 c 0.48417,0 0.83711,0.0253 1.06021,0.0753 0.22309,0.0501 0.4344,0.14241 0.63376,0.27753 0.19936,0.13513 0.56984,0.46229 1.11097,0.98151 l 1.52389,1.45282 h 2.52064 l -1.27513,-1.3022 c -0.50315,-0.51923 -0.90316,-0.88046 -1.19982,-1.0839 -0.29667,-0.20344 -0.67223,-0.39009 -1.1279,-0.56014 0.91611,-0.085 1.60414,-0.29126 2.06457,-0.61768 0.46042,-0.32641 0.69045,-0.73942 0.69045,-1.24044 0,-0.39473 -0.15145,-0.7459 -0.45522,-1.05259 -0.3038,-0.30667 -0.7087,-0.51973 -1.21421,-0.63968 -0.50553,-0.11992 -1.31632,-0.18021 -2.43179,-0.18022 z m 9.78302,0 v 1.12959 h 3.09685 v 5.54726 h 2.10772 v -5.54726 h 3.09008 v -1.12959 z m -7.6753,1.12959 h 1.64404 c 0.85439,0 1.36739,0.008 1.53828,0.0228 0.34176,0.0365 0.60618,0.12415 0.79368,0.2623 0.18746,0.13817 0.28176,0.31938 0.28176,0.54407 0,0.2004 -0.0717,0.36731 -0.21407,0.50091 -0.14241,0.13361 -0.33903,0.22798 -0.59061,0.28261 -0.25157,0.0546 -0.88261,0.0821 -1.89365,0.0821 h -1.55943 z" />
    </g>
    <g
       id="g1004"
       inkscape:label="Back Button"
       transform="translate(0,-36.084315)"
       inkscape:export-filename="C:\Users\AL200\OneDrive\Pictures\AL2009man Work Projects\VSCView - Controller Theme Layout\VSCView - Controller Theme (Ver. 1.20)\Xbox 360 Controller Images\Wikimedia\Active Images\Wikimedia_Back-Button.png"
       inkscape:export-xdpi="95.9851"
       inkscape:export-ydpi="95.9851">
      <path
         d="m 93.978986,186.74404 c 0,0 -2.873979,-0.0884 -3.568031,-0.0113 -0.694052,0.0771 -6.901967,0.77117 -7.133319,7.36467 -0.231347,6.5935 7.337408,7.90916 7.337408,7.90916 l 3.343293,0.0678 3.520118,0.0113 c 0,0 7.700395,-1.0477 7.816075,-7.71831 0.11568,-6.67062 -7.943046,-7.59602 -7.943046,-7.59602 z"
         style="fill:#bfbfbf;fill-opacity:1;stroke:#000000;stroke-width:0.610735px;stroke-linecap:butt;stroke-linejoin:miter;stroke-opacity:1"
         inkscape:connector-curvature="0"
         inkscape:label="Button Color"
         id="path4983" />
      <path
         id="path958"
         style="color:#000000;fill:#000000;fill-opacity:1;stroke-width:0.610735px;-inkscape-stroke:none"
         d="m 97.412135,191.9748 -0.442349,0.20257 -9.121926,4.18321 9.381858,4.99453 z" />
    </g>
    <g
       id="g296"
       inkscape:label="Start Button"
       transform="matrix(0.61073515,0,0,0.61073515,-152.66126,-157.14719)"
       style="display:inline"
       inkscape:export-filename="C:\Users\AL200\OneDrive\Pictures\AL2009man Work Projects\VSCView - Controller Theme Layout\VSCView - Controller Theme (Ver. 1.20)\Xbox 360 Controller Images\Wikimedia\Active Images\Wikimedia_Start-Button.png"
       inkscape:export-xdpi="95.9851"
       inkscape:export-ydpi="95.9851">
      <path
         d="m 456.50153,504.52982 c 0,0 -4.70577,-0.14476 -5.84219,-0.0185 -1.13642,0.12627 -11.30108,1.26269 -11.67989,12.05869 -0.3788,10.79601 12.01406,12.95024 12.01406,12.95024 l 5.47421,0.11095 5.76374,0.0185 c 0,0 12.60841,-1.71547 12.79781,-12.63774 0.18941,-10.92228 -13.00571,-12.43751 -13.00571,-12.43751 z"
         style="display:inline;fill:#bfbfbf;fill-opacity:1;stroke:#000000;stroke-width:1px;stroke-linecap:butt;stroke-linejoin:miter;stroke-opacity:1"
         inkscape:connector-curvature="0"
         inkscape:label="Button Color"
         id="path4985" />
      <path
         id="path948"
         style="color:#000000;fill:#000000;fill-opacity:1;stroke-width:1px;-inkscape-stroke:none"
         d="m 451.72651,512.8668 -0.0389,0.76406 -0.71076,13.92992 16.14426,-6.99669 z" />
    </g>
    <path
       d="m 170.513,366.98817 c 0,12.17018 -11.80159,22.03605 -26.35959,22.03605 -14.558,0 -26.3596,-9.86587 -26.3596,-22.03605 0,-12.17017 11.8016,-22.03605 26.3596,-22.03605 14.558,0 26.35959,9.86588 26.35959,22.03605 z"
       style="display:inline;fill:#afafaf;fill-opacity:1;stroke:#606060;stroke-width:4.5;stroke-miterlimit:4;stroke-dasharray:none;stroke-opacity:1"
       inkscape:connector-curvature="0"
       id="path4995"
       inkscape:export-filename="C:\Users\AL200\OneDrive\Pictures\AL2009man Work Projects\VSCView - Controller Theme Layout\VSCView - Controller Theme (Ver. 1.20)\Xbox 360 Controller Images\Wikimedia\Active Images\Wikimedia_RightStick-Click.png"
       inkscape:export-xdpi="95.9851"
       inkscape:export-ydpi="95.9851" />
    <path
       d="m 98.387247,366.35676 c 0,12.17018 -11.801587,22.03605 -26.359587,22.03605 -14.558,0 -26.3596,-9.86587 -26.3596,-22.03605 0,-12.17017 11.8016,-22.03605 26.3596,-22.03605 14.558,0 26.359587,9.86588 26.359587,22.03605 z"
       style="display:inline;fill:#afafaf;fill-opacity:1;stroke:#606060;stroke-width:4.5;stroke-miterlimit:4;stroke-dasharray:none;stroke-opacity:1"
       inkscape:connector-curvature="0"
       id="path4997"
       inkscape:export-filename="C:\Users\AL200\OneDrive\Pictures\AL2009man Work Projects\VSCView - Controller Theme Layout\VSCView - Controller Theme (Ver. 1.20)\Xbox 360 Controller Images\Wikimedia\Active Images\Wikimedia_LeftStick-Click.png"
       inkscape:export-xdpi="95.9851"
       inkscape:export-ydpi="95.9851" />
  </g>
</svg>
