<?xml version="1.0" encoding="UTF-8" standalone="no"?>
<!-- Created with Inkscape (http://www.inkscape.org/) -->

<svg
   width="419.12717mm"
   height="304.54602mm"
   viewBox="0 0 419.12717 304.54603"
   version="1.1"
   id="svg5"
   inkscape:version="1.1 (c68e22c387, 2021-05-23)"
   sodipodi:docname="Switch Pro Controller VSCView.svg"
   inkscape:export-filename="C:\Users\AL200\OneDrive\Pictures\AL2009man Work Projects\VSCView - Controller Theme Layout\VSCView - Controller Theme (Ver. 1.20)\Nintendo Switch Controller Images\Switch Pro Controller\Templates\Switch Pro Controller Overlay.png"
   inkscape:export-xdpi="89.994171"
   inkscape:export-ydpi="89.994171"
   xmlns:inkscape="http://www.inkscape.org/namespaces/inkscape"
   xmlns:sodipodi="http://sodipodi.sourceforge.net/DTD/sodipodi-0.dtd"
   xmlns="http://www.w3.org/2000/svg"
   xmlns:svg="http://www.w3.org/2000/svg">
  <sodipodi:namedview
     id="namedview7"
     pagecolor="#ffffff"
     bordercolor="#666666"
     borderopacity="1.0"
     inkscape:pageshadow="2"
     inkscape:pageopacity="0.0"
     inkscape:pagecheckerboard="0"
     inkscape:document-units="mm"
     showgrid="false"
     inkscape:zoom="0.5"
     inkscape:cx="709"
     inkscape:cy="694"
     inkscape:window-width="1920"
     inkscape:window-height="995"
     inkscape:window-x="-9"
     inkscape:window-y="-9"
     inkscape:window-maximized="1"
     inkscape:current-layer="svg5" />
  <defs
     id="defs2">
    <inkscape:path-effect
       effect="bspline"
       id="path-effect11354"
       is_visible="true"
       lpeversion="1"
       weight="33.333333"
       steps="2"
       helper_size="0"
       apply_no_weight="true"
       apply_with_weight="true"
       only_selected="false" />
    <inkscape:path-effect
       effect="bspline"
       id="path-effect11187"
       is_visible="true"
       lpeversion="1"
       weight="33.333333"
       steps="2"
       helper_size="0"
       apply_no_weight="true"
       apply_with_weight="true"
       only_selected="false" />
    <inkscape:path-effect
       effect="bspline"
       id="path-effect41470"
       is_visible="true"
       lpeversion="1"
       weight="33.333333"
       steps="2"
       helper_size="0"
       apply_no_weight="true"
       apply_with_weight="true"
       only_selected="false" />
  </defs>
  <g
     id="layer2"
     inkscape:label="Nintendo Switch Pro Controller"
     style="display:inline"
     transform="translate(-80.073102,14.620127)">
    <g
       id="g10592"
       inkscape:label="Digital Triggers"
       style="display:inline">
      <path
         id="path1458"
         style="display:inline;fill:#686b6e;fill-opacity:1;fill-rule:nonzero;stroke:#211e1e;stroke-width:8.31496;stroke-linecap:round;stroke-linejoin:round;stroke-miterlimit:9.53846;stroke-dasharray:none;stroke-opacity:1"
         inkscape:label="ZR Trigger"
         d="m 1193.8594,3.9244459 c -30.6291,0.049759 -51.9558,10.8927201 -82.25,24.1087571 l -30.9864,15.619141 v 0 c 60.6006,-2.534721 177.2868,6.012391 206.2911,17.507812 17.5526,6.941643 47.521,19.514293 73.8007,43.001954 C 1310.1862,40.291377 1254.6354,3.8257017 1193.8594,3.9244459 Z"
         sodipodi:nodetypes="scccccs"
         inkscape:export-filename="C:\Users\AL200\OneDrive\Pictures\AL2009man Work Projects\VSCView - Controller Theme Layout\VSCView - Controller Theme (Ver. 1.20)\Nintendo Switch Controller Images\Switch Pro Controller\Theme SVG\Theme Assets\Active Presses\Button Color\NSwitchPro_ZR.png"
         inkscape:export-xdpi="89.874435"
         inkscape:export-ydpi="89.874435"
         transform="matrix(0.26458333,0,0,0.26458333,80.073102,-14.558417)" />
      <path
         id="path8519"
         style="display:inline;fill:#686b6e;fill-opacity:1;fill-rule:nonzero;stroke:#211e1e;stroke-width:8.31496;stroke-linecap:round;stroke-linejoin:round;stroke-miterlimit:9.53846;stroke-dasharray:none;stroke-opacity:1"
         inkscape:label="ZL Trigger"
         d="M 388.70312,3.9244459 C 327.84634,3.8255797 272.22886,40.385003 221.64648,104.41406 247.97833,80.800743 278.04726,68.120999 295.64844,61.160156 324.65272,49.664735 441.33889,41.117623 501.93945,43.652344 v 0 L 470.95312,28.033203 C 440.65896,14.817164 419.33216,3.9742049 388.70312,3.9244459 Z"
         transform="matrix(0.26458333,0,0,0.26458333,80.073102,-14.558417)"
         sodipodi:nodetypes="scccccs"
         inkscape:export-filename="C:\Users\AL200\OneDrive\Pictures\AL2009man Work Projects\VSCView - Controller Theme Layout\VSCView - Controller Theme (Ver. 1.20)\Nintendo Switch Controller Images\Switch Pro Controller\Theme SVG\Theme Assets\Active Presses\Button Color\NSwitchPro_ZL.png"
         inkscape:export-xdpi="90.144424"
         inkscape:export-ydpi="90.144424" />
    </g>
    <g
       id="g3226"
       style="display:inline"
       inkscape:label="Controller Body"
       inkscape:export-filename="C:\Users\AL200\OneDrive\Pictures\AL2009~1\VSCVIE~1\VSCVIE~1.20)\NINTEN~1\SWITCH~1\TEMPLA~1\SWITCH~4.PNG"
       inkscape:export-xdpi="89.994171"
       inkscape:export-ydpi="89.994171">
      <g
         id="g20999"
         inkscape:label="Shoulders"
         style="display:inline">
        <path
           style="display:inline;fill:#3a3b40;fill-opacity:1;fill-rule:nonzero;stroke:#211e1e;stroke-width:2.8;stroke-linecap:butt;stroke-linejoin:round;stroke-miterlimit:9.53846;stroke-dasharray:none;stroke-opacity:1"
           d="m 278.583,-2.464337 c -28.76946,0 -85.94915,1.52074839 -111.02858,7.9960404 -25.07936,6.4590456 269.26062,6.4590456 244.18129,0 C 386.63998,-0.94358861 329.46023,-2.464337 300.69077,-2.464337 Z m 0,0"
           id="path1675-3"
           inkscape:label="Shoulder Top" />
        <g
           id="g3215"
           inkscape:label="Bumpers"
           style="display:inline">
          <path
             style="display:inline;fill:#686b6e;fill-opacity:1;fill-rule:nonzero;stroke:#211e1e;stroke-width:2.2;stroke-linejoin:round;stroke-miterlimit:9.53846;stroke-dasharray:none;stroke-opacity:1"
             d="m 349.00293,5.0036016 20.78687,-9.8062225 c 16.0339,-0.670645 43.10528,3.3847582 50.77933,6.426255 7.69035,3.041349 24.39363,10.1544219 30.7451,27.7326099"
             id="path5183"
             sodipodi:nodetypes="cccc"
             inkscape:label="R Bumper" />
          <path
             style="display:inline;fill:#686b6e;fill-opacity:1;fill-rule:nonzero;stroke:#211e1e;stroke-width:2.2;stroke-linejoin:round;stroke-miterlimit:9.53846;stroke-dasharray:none;stroke-opacity:1"
             d="m 229.86272,5.0036016 -20.78687,-9.8062225 c -16.0339,-0.670645 -43.10528,3.3847582 -50.77933,6.426255 -7.69035,3.041349 -24.39363,10.1544219 -30.7451,27.7326099"
             id="path2365"
             sodipodi:nodetypes="cccc"
             inkscape:label="L Bumper" />
        </g>
        <path
           style="display:inline;fill:#3a3b40;fill-opacity:1;fill-rule:nonzero;stroke:#211e1e;stroke-width:2.8;stroke-linecap:butt;stroke-linejoin:round;stroke-miterlimit:9.53846;stroke-dasharray:none;stroke-opacity:1"
           d="m 278.583,3.9619915 c -28.76946,0 -85.94915,1.5206749 -111.02858,7.9795715 -25.07936,6.475292 -47.95454,23.203229 -47.95454,23.203229 -1.22458,2.387321 -2.92887,6.475293 -2.92887,6.475293 27.03871,4.692961 105.59767,6.818626 168.0186,6.93317 54.12641,0.118702 146.98623,3.335721 180.52342,0.01486 0,0 -3.30226,-9.876446 -5.131,-13.441106 0,0 -23.26699,-16.711541 -48.34632,-23.186833 C 386.63998,5.4812083 329.46023,3.9604598 300.69077,3.9604598 Z"
           id="path1685-5"
           sodipodi:nodetypes="cccccccccc"
           inkscape:label="Shoulder Middle" />
      </g>
      <path
         id="path9077"
         style="color:#000000;display:inline;fill:#303136;fill-opacity:1;stroke-width:6.04724;stroke-linejoin:round;stroke-miterlimit:9.53846;-inkscape-stroke:none"
         d="m 1492.3419,363.6276 c 0,0 -120.2829,187.36702 -214.886,314.43124 -47.6216,63.96202 -90.2553,112.22577 -99.0594,118.48022 27.4793,18.41386 45.2809,61.44345 90.4551,155.73242 68.1907,142.33002 119.3493,163.89862 176.1855,159.57232 56.836,-4.3279 127.8652,-70.4537 132.1231,-182.56255 2.9038,-76.49795 -44.0083,-367.63608 -84.8183,-565.65365 z"
         transform="matrix(0.26458333,0,0,0.26458333,80.574244,-5.6765164)"
         inkscape:label="Secondary Color - Right Grip"
         sodipodi:nodetypes="cscsccc" />
      <path
         id="path9067"
         style="color:#000000;display:inline;fill:#303136;fill-opacity:1;stroke-width:6.04724;stroke-linejoin:round;stroke-miterlimit:9.53846;-inkscape-stroke:none"
         d="M 402.42219,795.85127 C 399.38105,793.06819 336.76422,723.08734 320.52137,703.52495 258.47949,628.80361 167.18978,498.80406 115.64482,412.79566 95.419032,379.04672 87.37911,367.31405 87.37911,367.31405 46.574325,565.32969 0.25264151,852.79352 3.15625,929.28125 c 4.2576,112.10885 75.287003,178.23635 132.12305,182.56255 56.836,4.3277 107.99474,-17.2423 176.18554,-159.57232 45.17551,-94.29154 63.47682,-138.00721 90.95735,-156.42021 z"
         transform="matrix(0.26458333,0,0,0.26458333,80.574244,-5.6765164)"
         inkscape:label="Secondary Color - Left Grip"
         sodipodi:nodetypes="csscccsc" />
      <path
         id="path9073"
         style="color:#000000;display:inline;opacity:1;fill:#3a3b40;fill-opacity:1;stroke-width:6.04724;stroke-linejoin:round;stroke-miterlimit:9.53846;-inkscape-stroke:none"
         d="m 747.63867,60.839844 c -110.83321,0 -331.01859,5.748832 -427.6582,30.222656 -96.57774,24.41158 -184.70117,87.69531 -184.70117,87.69531 -11.01001,20.95955 -28.77243,92.5631 -47.282585,181.69038 0.873431,0.0997 0.707604,2.43957 1.16188,3.1922 0.715225,1.38029 27.588795,50.1741 66.836665,108.25343 66.51882,98.43512 163.05602,227.8697 177.48473,243.46334 32.4081,35.02463 70.21689,79.2567 70.90251,79.45725 12.98151,-7.07235 30.71466,-10.76753 51.98078,-10.76753 h 667.58982 c 21.3568,0 38.2517,2.93993 51.2679,10.08307 1.7345,-0.43644 25.6031,-26.33704 59.4122,-64.27553 13.2152,-14.82933 41.5543,-49.99609 41.5543,-49.99609 0,0 59.0253,-77.54759 113.8892,-157.48009 54.4807,-79.37419 104.8128,-161.13504 101.9565,-161.74543 -18.5107,-89.12547 -35.9671,-160.91574 -46.9961,-181.875 0,0 -88.0614,-63.28373 -184.7012,-87.69531 C 1163.7579,66.588676 943.50977,60.839844 832.73828,60.839844 Z"
         transform="matrix(0.26458333,0,0,0.26458333,80.574244,-5.6765164)"
         inkscape:label="Primary Color - Front"
         sodipodi:nodetypes="sccccsscsscscscccss" />
      <path
         id="path44935"
         style="color:#000000;display:inline;fill:#211e1e;stroke-width:1;stroke-linejoin:round;stroke-miterlimit:9.53846;-inkscape-stroke:none"
         d="m 278.38666,9.1209533 c -29.36903,0 -87.49413,1.4566687 -113.4706,8.0351677 -25.88784,6.543567 -49.30656,23.408391 -49.30655,23.408391 -0.16443,0.117573 -0.29839,0.272371 -0.39274,0.451134 a 0.50005001,0.50005001 0 0 0 -0.002,0 c -1.28805,2.452052 -2.7102,6.774486 -4.34548,12.705167 -1.63548,5.931445 -3.44791,13.429921 -5.35367,22.011576 -3.81155,17.163289 -7.995508,38.658521 -11.851476,60.523441 -3.855972,21.86493 -7.382584,44.0963 -9.876917,62.7326 -2.494304,18.63606 -3.96839,33.60292 -3.677812,41.25743 1.146538,30.19005 20.208895,48.33477 36.160065,49.54891 7.71368,0.58736 15.31861,-0.64567 23.09006,-6.83782 7.76932,-6.19044 15.73229,-17.19509 24.79694,-36.11511 9.02811,-18.84372 13.9548,-29.97353 18.73994,-36.1425 2.39403,-3.08636 4.69,-4.92631 7.52564,-6.06474 2.83367,-1.13765 6.27904,-1.56631 10.89804,-1.56631 h 176.63315 c 4.61903,0 8.06488,0.42866 10.89856,1.56631 2.83565,1.13843 5.1311,2.97839 7.52512,6.06474 4.78521,6.16902 9.71394,17.29881 18.74201,36.1425 9.06463,18.92 17.02604,29.92469 24.79538,36.11511 7.77147,6.1921 15.37586,7.42499 23.08955,6.83782 15.95108,-1.21461 35.01344,-19.35886 36.16006,-49.54891 0.29056,-7.6544 -1.18272,-22.62137 -3.67574,-41.25743 -2.49301,-18.63629 -6.01778,-40.86765 -9.87273,-62.7326 -3.85495,-21.86495 -8.03917,-43.362164 -11.85148,-60.525507 -1.90614,-8.581679 -3.7191,-16.077965 -5.35574,-22.00951 -1.6364,-5.93072 -3.05906,-10.252647 -4.34961,-12.705167 a 0.50005001,0.50005001 0 0 0 -0.002,0 c -0.0944,-0.178761 -0.22833,-0.333558 -0.39275,-0.451134 -0.004,-0.0028 -23.40438,-16.865401 -49.30654,-23.408391 -25.9608,-6.578724 -84.10235,-8.0351677 -113.45509,-8.0351677 z m 0,2.5998407 h 22.51593 c 29.26218,0 87.6711,1.584111 112.8143,7.955071 5.3e-4,1.38e-4 0.001,-1.38e-4 0.002,0 a 0.50005001,0.50005001 0 0 0 0,0.0021 c 24.79081,6.262258 47.36709,22.251704 48.14021,22.802741 1.05212,2.078752 2.46999,6.229985 4.04317,11.931573 1.61812,5.864421 3.42424,13.330539 5.32422,21.884452 3.79997,17.107826 7.97854,38.573109 11.82822,60.408199 3.84968,21.83505 7.36883,44.04288 9.85521,62.62925 2.48634,18.58613 3.92719,33.63042 3.65456,40.81249 -1.10646,29.13294 -19.64105,45.98175 -33.75608,47.05656 -7.32887,0.55788 -14.00144,-0.48695 -21.27105,-6.2792 -7.26742,-5.79049 -15.09723,-16.4695 -24.0745,-35.20716 -9.01368,-18.81362 -13.85919,-29.94323 -19.0314,-36.6112 -2.58745,-3.33571 -5.31452,-5.56064 -8.61291,-6.88485 -3.29649,-1.32345 -7.08838,-1.75183 -11.86543,-1.75183 h -176.6325 c -4.77702,0 -8.56894,0.42838 -11.86543,1.75183 -3.29844,1.32423 -6.02399,3.54923 -8.61136,6.88485 -5.17218,6.66792 -10.01976,17.79755 -19.03346,36.6112 -8.97728,18.73766 -16.80657,29.41662 -24.07399,35.20716 -7.2696,5.7923 -13.94274,6.83726 -21.27156,6.2792 -14.11497,-1.07438 -32.649174,-17.92362 -33.755566,-47.05656 -0.27264,-7.18195 1.16849,-22.22637 3.656108,-40.81249 2.487652,-18.58637 6.008639,-40.79417 9.859345,-62.62925 3.850713,-21.83509 8.031053,-43.300284 11.830283,-60.408199 1.8996,-8.553937 3.70513,-16.019931 5.32216,-21.884452 1.5725,-5.70302 2.99039,-9.854922 4.04109,-11.93364 0.78309,-0.557723 23.367,-16.539757 48.1366,-22.800674 a 0.50005001,0.50005001 0 0 0 0,-5.3e-4 0.50005001,0.50005001 0 0 0 0,-5.29e-4 0.50005001,0.50005001 0 0 0 0,-5.29e-4 0.50005001,0.50005001 0 0 0 0,-5.29e-4 c 5.3e-4,-1.38e-4 10e-4,1.38e-4 0.002,0 25.16012,-6.37119 83.55126,-7.955071 112.8298,-7.955071 z"
         inkscape:label="Controller Outline" />
      <path
         id="path15766"
         style="color:#000000;display:inline;opacity:1;fill:#211e1e;fill-opacity:1;stroke-width:0.2;stroke-linecap:square;stroke-miterlimit:9.53846;-inkscape-stroke:none"
         d="m 103.54984,89.758219 c -0.46441,0.240657 -0.80478,0.65855 -0.56351,1.122682 8.42782,16.264539 56.93552,89.848909 83.91219,114.452959 0.38624,0.35299 0.64705,0.10389 0.99937,-0.28288 0.35301,-0.3863 0.66878,-0.77094 0.28172,-1.12321 -26.41372,-24.09041 -75.45466,-98.34021 -83.58167,-114.024199 -0.1369,-0.265665 -0.95889,-0.191562 -1.0481,-0.145352 z m 371.93828,-0.254497 -0.10335,0.0041 c -0.33848,0.01543 -0.64484,0.210875 -0.80099,0.511598 -8.10964,15.68127 -57.07626,89.81787 -83.48999,113.90829 -0.38727,0.35208 -0.30372,0.78502 0.0491,1.17149 0.35227,0.38708 0.84561,0.58765 1.23193,0.2346 26.97647,-24.60363 75.48404,-98.17394 83.89668,-114.441079 0.23913,-0.46419 0.0557,-1.03981 -0.40823,-1.279509 -0.11581,-0.05996 -0.2459,-0.07335 -0.37518,-0.08217 z"
         sodipodi:nodetypes="ccccccccccccccccc"
         inkscape:label="Outline Color Blend" />
      <g
         id="g20546"
         style="display:inline"
         inkscape:label="Joystick Outline">
        <g
           id="g20740"
           style="display:inline"
           inkscape:label="Analog Stick Outline Body - Right">
          <path
             style="display:inline;fill:none;stroke:#211e1e;stroke-width:1.6;stroke-linecap:butt;stroke-linejoin:round;stroke-miterlimit:9.53846;stroke-dasharray:none;stroke-opacity:1"
             d="m 377.83935,140.67905 c 0,18.82089 -15.0705,34.07712 -33.66779,34.07712 -18.5973,0 -33.66772,-15.25623 -33.66772,-34.07712 0,-18.82088 15.07042,-34.07703 33.66772,-34.07703 18.59729,0 33.66779,15.25615 33.66779,34.07703 z m 0,0"
             id="path1711-8"
             inkscape:label="Outline #2" />
          <path
             style="display:inline;fill:#2c2c2c;fill-opacity:1;fill-rule:nonzero;stroke:#211e1e;stroke-width:1.6;stroke-miterlimit:9.53846;stroke-dasharray:none;stroke-opacity:1"
             d="m 370.998,140.67905 c 0,14.99458 -12.00083,27.16027 -26.82644,27.16027 -14.82554,0 -26.82652,-12.16569 -26.82652,-27.16027 0,-14.99457 12.00098,-27.14386 26.82652,-27.14386 14.82561,0 26.82644,12.14929 26.82644,27.14386"
             id="path1713-1"
             inkscape:label="Outline #1" />
        </g>
        <g
           id="g20744"
           style="display:inline"
           inkscape:label="Analog Stick Outline Body - Left">
          <path
             style="display:inline;fill:none;stroke:#211e1e;stroke-width:1.6;stroke-linecap:butt;stroke-linejoin:round;stroke-miterlimit:9.53846;stroke-dasharray:none;stroke-opacity:1"
             d="m 207.91654,82.385032 c 0,18.820888 -15.07045,34.077108 -33.66774,34.077108 -18.59729,0 -33.66783,-15.25622 -33.66783,-34.077108 0,-18.82096 15.07054,-34.077037 33.66783,-34.077037 18.59729,0 33.66774,15.256077 33.66774,34.077037 z m 0,0"
             id="path1695-1"
             inkscape:label="Outline #2" />
          <path
             style="display:inline;fill:#2c2c2c;fill-opacity:1;stroke:#211e1e;stroke-width:1.6;stroke-linecap:butt;stroke-linejoin:round;stroke-miterlimit:9.53846;stroke-dasharray:none;stroke-opacity:1"
             d="m 201.07528,82.385032 c 0,14.99457 -12.01729,27.143938 -26.82648,27.143938 -14.82564,0 -26.82648,-12.149368 -26.82648,-27.143938 0,-14.99457 12.00084,-27.160262 26.82648,-27.160262 14.80919,0 26.82648,12.165692 26.82648,27.160262 z m 0,0"
             id="path1699-1"
             inkscape:label="Outline #1" />
        </g>
      </g>
      <path
         id="path14321"
         style="display:inline;fill:#c7c7c7;fill-opacity:1;fill-rule:nonzero;stroke:none;stroke-width:0.297881"
         d="m 287.64024,16.987688 v 5.61e-4 h -7.18474 c -4.55541,0 -8.25167,3.691333 -8.25167,8.246746 V 40.91088 c 0,4.555458 3.69626,8.246199 8.25167,8.246199 h 7.18474 c 0.1302,0 0.23893,-0.103795 0.23893,-0.233995 V 17.222229 c 0,-0.1302 -0.10873,-0.234541 -0.23893,-0.234541 z m 3.19589,0 c -0.11456,0 -0.20769,0.09424 -0.20769,0.208785 V 48.92307 c 0,0.1302 0.10381,0.233996 0.23399,0.233996 h 5.26348 c 4.5554,0 8.24674,-3.690743 8.24674,-8.246201 l -5.6e-4,-15.676431 c 0,-4.555413 -3.6908,-8.246746 -8.2462,-8.246746 z m -10.38063,2.74928 h 4.67 v 26.670816 h -4.67 c -1.47336,0 -2.85306,-0.572603 -3.88911,-1.613838 -1.04123,-1.036003 -1.61384,-2.415507 -1.61384,-3.883628 V 25.234434 c 0,-1.46812 0.57261,-2.847867 1.61384,-3.889106 1.03605,-1.036003 2.41575,-1.60836 3.88911,-1.60836 z m -0.14084,3.878693 c -1.67116,0 -3.02437,1.353716 -3.02437,3.02492 0,1.665928 1.35321,3.024922 3.02437,3.024922 1.67121,0 3.02492,-1.358994 3.02492,-3.024922 0,-1.671204 -1.35371,-3.02492 -3.02492,-3.02492 z m 16.90998,8.03851 c 1.67114,0 3.02492,1.35895 3.02492,3.024919 0,1.671206 -1.35378,3.024373 -3.02492,3.024373 -1.67121,0 -3.02492,-1.353167 -3.02492,-3.024373 0,-1.665969 1.35371,-3.024919 3.02492,-3.024919 z m 12.75507,22.209604 c -1.21304,0 -2.19689,0.984148 -2.19689,2.202384 0,1.218235 0.98385,2.207317 2.19689,2.207317 1.21824,0 2.2024,-0.989082 2.2024,-2.207317 0,-1.218236 -0.98416,-2.202384 -2.2024,-2.202384 z m -45.34587,0.135355 v 4.138989 h 0.95791 v -2.519672 l 1.87412,2.519672 h 0.90091 V 53.99913 h -0.95789 v 2.478023 l -1.85331,-2.478023 z m 6.62744,0 v 4.138989 h 1.03625 V 53.99913 Z m 3.93075,0 v 4.138989 h 0.95296 v -2.519672 l 1.87907,2.519672 h 0.89541 V 53.99913 h -0.95788 v 2.478023 l -1.85332,-2.478023 z m 6.46084,0 v 0.994606 h 1.28066 v 3.144383 h 1.00501 v -3.144383 h 1.24943 V 53.99913 Z m 6.34631,0 v 4.138989 h 3.25398 v -0.885007 h -2.2961 V 56.46181 h 2.12402 v -0.869667 h -2.12402 v -0.712937 h 2.2961 V 53.99913 Z m 6.45589,0 v 4.138989 h 0.95242 v -2.519672 l 1.87961,2.519672 h 0.89542 V 53.99913 h -0.95788 v 2.478023 l -1.85332,-2.478023 z m 6.99679,0 v 4.138989 h 1.72891 c 1.17657,0 2.12896,-0.926652 2.12896,-2.07196 0,-1.140206 -0.95239,-2.067029 -2.12896,-2.067029 z m 8.52785,0.895421 c 0.64557,0 1.17162,0.526025 1.17162,1.171608 0,0.650864 -0.52609,1.171061 -1.17162,1.171061 -0.64035,0 -1.16613,-0.520331 -1.16613,-1.171061 0,-0.645537 0.52578,-1.171608 1.16613,-1.171608 z m -7.55956,0.08822 h 0.80226 c 0.5987,0 1.08284,0.484688 1.08284,1.083382 0,0.603927 -0.48414,1.087766 -1.08284,1.087766 h -0.80226 z m -2.38431,4.784525 c -2.30114,0 -4.16475,1.864213 -4.16475,4.165296 0,2.295982 1.86361,4.159815 4.16475,4.159815 1.47859,0 2.78567,-0.775887 3.51975,-1.942089 l -1.4478,-1.259831 c -0.36465,0.739317 -1.13484,1.249423 -2.03031,1.249423 -1.24427,0 -2.25389,-0.98908 -2.25389,-2.207314 0,-1.223426 1.00962,-2.212795 2.25389,-2.212795 0.89547,0 1.66585,0.51015 2.03031,1.249422 l 1.4478,-1.259834 C 302.82151,60.543141 301.51443,59.7673 300.03584,59.7673 Z m -32.22638,0.140836 c -1.61911,0 -3.49289,0.78078 -3.49289,2.40514 0,1.327587 0.95255,1.936495 3.11313,2.311434 1.57748,0.270735 2.24558,0.406117 2.22322,0.921724 -0.0156,0.535922 -0.68738,0.83295 -1.86921,0.83295 -1.67115,0 -2.7438,-0.760066 -2.7438,-0.760066 l -0.84828,1.536022 c 0,0 1.45729,0.87953 3.48249,0.87953 2.76447,0 3.80581,-1.093181 3.80581,-2.540496 0,-1.213046 -0.63007,-1.993651 -3.56634,-2.509259 -0.87986,-0.156193 -1.66074,-0.286757 -1.71796,-0.734309 -0.0312,-0.21333 0.11992,-0.697596 1.6922,-0.697596 1.17659,0 2.37938,0.562239 2.37938,0.562239 l 0.64006,-1.561778 c 0,0 -1.43703,-0.645535 -3.09781,-0.645535 z m 4.25901,0.10905 2.21225,7.809447 h 2.02045 l 1.30148,-4.597113 1.29108,4.597113 h 2.02538 l 2.22813,-7.809447 h -1.93167 l -1.35354,5.09195 -1.4889,-5.09195 h -1.54644 l -1.47848,5.071127 -1.34862,-5.071127 z m 12.67178,0 v 7.809447 h 1.9525 v -7.809447 z m 3.55045,0 v 1.874684 h 2.41062 v 5.934763 h 1.89497 v -5.934763 h 2.35308 v -1.874684 z m 16.7379,0 v 7.814926 h 1.83249 v -3.009573 h 3.24905 v 3.009577 h 1.83741 v -7.814926 h -1.83741 v 2.967929 h -3.24905 v -2.967929 z"
         inkscape:label="Nintendo Switch Logo" />
    </g>
    <g
       id="g10760"
       inkscape:label="Analog Joysticks"
       style="display:inline">
      <g
         id="g2495"
         inkscape:label="Right Joystick"
         style="display:inline;stroke-width:0.901068"
         transform="matrix(1.1098172,0,0,1.1097717,-37.796036,-15.434424)"
         inkscape:export-filename="C:\Users\AL200\OneDrive\Pictures\AL2009~1\VSCVIE~1\VSCVIE~1.20)\NINTEN~1\SWITCH~1\THEMES~1\THEMEA~1\ACTIVE~1\BUTTON~1\NSWITC~4.PNG"
         inkscape:export-xdpi="90.207504"
         inkscape:export-ydpi="90.207504">
        <path
           style="display:inline;fill:#686b6e;fill-opacity:1;fill-rule:nonzero;stroke:none;stroke-width:1.44171;stroke-miterlimit:9.53846;stroke-dasharray:none"
           d="m 366.06709,140.67905 c 0,12.23121 -9.79667,22.15669 -21.89553,22.15669 -12.08246,0 -21.89553,-9.92548 -21.89553,-22.15669 0,-12.23112 9.81307,-22.1566 21.89553,-22.1566 12.09886,0 21.89553,9.92548 21.89553,22.1566"
           id="path1717-9"
           inkscape:label="Color" />
        <path
           id="path1719-5"
           style="color:#000000;fill:#211e1e;stroke-width:3.77953;stroke-linecap:round;stroke-linejoin:round;stroke-miterlimit:9.53846;-inkscape-stroke:none"
           d="m 998.16797,457.98242 c -52.54376,0 -95.24609,43.2182 -95.24609,96.33985 0,53.12169 42.70233,96.33203 95.24609,96.33203 52.61003,0 95.24803,-43.21336 95.24803,-96.33203 0,-53.11863 -42.638,-96.33985 -95.24803,-96.33985 z m 0,6.80664 c 48.88923,0 88.43943,40.04719 88.43943,89.53321 0,49.48601 -39.5502,89.5332 -88.43943,89.5332 -48.81792,0 -88.4375,-40.05021 -88.4375,-89.5332 0,-49.483 39.61958,-89.53321 88.4375,-89.53321 z m -0.0312,19.52344 c -38.2086,0 -69.17774,31.42482 -69.17774,70.00977 0,38.64299 30.9725,70.00195 69.17774,70.00195 38.20533,0 69.24223,-31.35568 69.24223,-70.00195 0,-38.58827 -31.0336,-70.00977 -69.24223,-70.00977 z m 0,6.04492 c 34.89833,0 63.19733,28.61127 63.19733,63.96485 0,35.4169 -28.2957,63.95703 -63.19733,63.95703 -34.90163,0 -63.13281,-28.53685 -63.13281,-63.95703 0,-35.35685 28.23449,-63.96485 63.13281,-63.96485 z"
           transform="matrix(0.23840262,0,0,0.2384124,106.2058,8.5222802)"
           inkscape:label="Outline" />
      </g>
      <g
         id="g2489"
         inkscape:label="Left Joystick"
         style="display:inline;stroke-width:0.901069"
         transform="matrix(1.1098161,0,0,1.1097704,-19.135317,-9.0434377)"
         inkscape:export-filename="C:\Users\AL200\OneDrive\Pictures\AL2009~1\VSCVIE~1\VSCVIE~1.20)\NINTEN~1\SWITCH~1\THEMES~1\THEMEA~1\ACTIVE~1\BUTTON~1\NSWITC~3.PNG"
         inkscape:export-xdpi="87.630684"
         inkscape:export-ydpi="87.630684">
        <path
           style="display:inline;fill:#686b6e;fill-opacity:1;fill-rule:nonzero;stroke:none;stroke-width:1.44171;stroke-miterlimit:9.53846;stroke-dasharray:none"
           d="m 196.14423,82.385032 c 0,12.231124 -9.81296,22.156678 -21.89551,22.156678 -12.09884,0 -21.89543,-9.925554 -21.89543,-22.156678 0,-12.231198 9.79659,-22.156755 21.89543,-22.156755 12.08255,0 21.89551,9.925557 21.89551,22.156755"
           id="path1701-7"
           inkscape:label="Color" />
        <path
           id="path1707-6"
           style="display:inline;fill:none;stroke:#211e1e;stroke-width:1.44171;stroke-linecap:round;stroke-linejoin:round;stroke-miterlimit:9.53846;stroke-dasharray:none;stroke-opacity:1"
           d="m 190.02859,82.385027 c 0,8.814462 -7.05807,15.969873 -15.77265,15.969873 -8.71458,0 -15.78701,-7.155411 -15.78701,-15.969873 0,-8.814527 7.07243,-15.969941 15.78701,-15.969941 8.71458,0 15.77265,7.155414 15.77265,15.969941 z m 0,0 m 6.11564,5e-6 c 0,12.231124 -9.81296,22.156678 -21.89551,22.156678 -12.09884,0 -21.89543,-9.925554 -21.89543,-22.156678 0,-12.231198 9.79659,-22.156755 21.89543,-22.156755 12.08255,0 21.89551,9.925557 21.89551,22.156755 z m 0,0"
           inkscape:label="Outline" />
      </g>
    </g>
    <g
       id="g1427"
       inkscape:label="Face Buttons"
       style="display:inline">
      <g
         id="g10427"
         inkscape:label="X Button">
        <path
           style="display:inline;fill:#686b6e;fill-opacity:1;fill-rule:nonzero;stroke:none;stroke-width:1.6;stroke-miterlimit:9.53846;stroke-dasharray:none"
           d="m 414.49511,53.671306 c 0,-8.323055 -6.66169,-15.043682 -14.87451,-15.043682 -8.21289,0 -14.85826,6.720627 -14.85826,15.043682 0,8.306659 6.64537,15.043533 14.85826,15.043533 8.21282,0 14.87451,-6.736874 14.87451,-15.043533"
           id="path1737-4"
           inkscape:label="Color" />
        <path
           style="display:inline;fill:none;stroke:#211e1e;stroke-width:1.6;stroke-linecap:butt;stroke-linejoin:miter;stroke-miterlimit:9.53846;stroke-dasharray:none;stroke-opacity:1"
           d="m 414.49511,53.671306 c 0,-8.323055 -6.66169,-15.043607 -14.87451,-15.043607 -8.21289,0 -14.85826,6.720552 -14.85826,15.043607 0,8.306659 6.64537,15.043681 14.85826,15.043681 8.21282,0 14.87451,-6.737022 14.87451,-15.043681 z m 0,0"
           id="path1739-4"
           inkscape:label="Outline" />
        <path
           id="path5694"
           style="color:#000000;display:inline;fill:#ffffff;stroke-width:0.499999;stroke-miterlimit:10;-inkscape-stroke:none"
           d="m 395.50194,48.189305 0.23257,0.379307 3.00548,4.923729 -3.45093,5.644618 h 1.79472 l 2.5528,-4.183724 2.5373,4.183724 h 1.79473 l -3.45094,-5.644618 3.23805,-5.303036 h -1.77715 l -2.34199,3.842145 -2.34145,-3.842145 z"
           inkscape:label="Text" />
      </g>
      <g
         id="g10432"
         inkscape:label="Y Button">
        <path
           style="display:inline;fill:#686b6e;fill-opacity:1;fill-rule:nonzero;stroke:none;stroke-width:1.6;stroke-miterlimit:9.53846;stroke-dasharray:none"
           d="m 367.25896,67.68476 c -8.21282,0 -14.87451,6.720553 -14.87451,15.043607 0,8.306734 6.66169,15.043682 14.87451,15.043682 8.21289,0 14.87459,-6.736948 14.87459,-15.043682 0,-8.323054 -6.6617,-15.043607 -14.87459,-15.043607"
           id="path1733-7"
           inkscape:label="Color" />
        <path
           style="display:inline;fill:none;stroke:#211e1e;stroke-width:1.6;stroke-linecap:butt;stroke-linejoin:miter;stroke-miterlimit:9.53846;stroke-dasharray:none;stroke-opacity:1"
           d="m 367.25904,67.68476 c -8.2129,0 -14.87459,6.720553 -14.87459,15.043607 0,8.306734 6.66169,15.043682 14.87459,15.043682 8.21281,0 14.87451,-6.736948 14.87451,-15.043682 0,-8.323054 -6.6617,-15.043607 -14.87451,-15.043607 z m 0,0"
           id="path1735-4"
           inkscape:label="Outline" />
        <path
           id="path5704"
           style="color:#000000;display:inline;fill:#ffffff;stroke-width:0.499999;stroke-miterlimit:10;-inkscape-stroke:none"
           d="m 363.00989,77.245929 0.23048,0.379306 3.29488,5.402255 v 5.167643 h 1.51154 V 83.02749 l 3.47472,-5.781561 h -1.77562 l -2.47272,4.086055 -2.50372,-4.086055 z"
           inkscape:label="Text" />
      </g>
      <g
         id="g10422"
         inkscape:label="A Button">
        <path
           style="display:inline;fill:#686b6e;fill-opacity:1;fill-rule:nonzero;stroke:none;stroke-width:1.6;stroke-miterlimit:9.53846;stroke-dasharray:none"
           d="m 432.60263,97.772049 c 8.21289,0 14.87458,-6.736948 14.87458,-15.043682 0,-8.30666 -6.66169,-15.060003 -14.87458,-15.060003 -8.21282,0 -14.87459,6.753343 -14.87459,15.060003 0,8.306734 6.66177,15.043682 14.87459,15.043682"
           id="path1725-4"
           inkscape:label="Color" />
        <path
           style="display:inline;fill:none;stroke:#211e1e;stroke-width:1.6;stroke-linecap:butt;stroke-linejoin:miter;stroke-miterlimit:9.53846;stroke-dasharray:none;stroke-opacity:1"
           d="m 432.60263,97.772049 c 8.21281,0 14.87451,-6.736948 14.87451,-15.043682 0,-8.30666 -6.6617,-15.060003 -14.87451,-15.060003 -8.2129,0 -14.87467,6.753343 -14.87467,15.060003 0,8.306734 6.66177,15.043682 14.87467,15.043682 z m 0,0"
           id="path1727-2"
           inkscape:label="Outline" />
        <path
           id="path5684"
           style="color:#000000;display:inline;fill:#ffffff;stroke-width:0.499999;stroke-miterlimit:10;-inkscape-stroke:none"
           d="m 432.3457,76.134888 -5.11546,10.947135 h 1.71101 l 1.59991,-3.433384 h 4.14031 l 1.61541,3.433384 h 1.67587 l -5.04672,-10.947135 h -0.1602 z m 0.28731,3.064412 1.35911,2.935221 h -2.74196 z"
           inkscape:label="Text" />
      </g>
      <g
         id="g10417"
         inkscape:label="B Button"
         style="display:inline">
        <path
           style="display:inline;fill:#686b6e;fill-opacity:1;fill-rule:nonzero;stroke:none;stroke-width:1.6;stroke-miterlimit:9.53846;stroke-dasharray:none"
           d="m 384.76234,111.19683 c 0,8.30666 6.64537,15.04361 14.85826,15.04361 8.21282,0 14.87451,-6.73695 14.87451,-15.04361 0,-8.32305 -6.66169,-15.059925 -14.87451,-15.059925 -8.21289,0 -14.85826,6.736875 -14.85826,15.059925"
           id="path1729-5"
           inkscape:label="Color" />
        <path
           style="display:inline;fill:none;stroke:#211e1e;stroke-width:1.6;stroke-linecap:butt;stroke-linejoin:miter;stroke-miterlimit:9.53846;stroke-dasharray:none;stroke-opacity:1"
           d="m 384.76234,111.19683 c 0,8.30666 6.64544,15.04361 14.85826,15.04361 8.21282,0 14.87451,-6.73695 14.87451,-15.04361 0,-8.32305 -6.66169,-15.060074 -14.87451,-15.060074 -8.21282,0 -14.85826,6.737024 -14.85826,15.060074 z m 0,0"
           id="path1731-8"
           inkscape:label="Outline" />
        <path
           id="path5714"
           style="color:#000000;display:inline;fill:#ffffff;stroke-width:0.499999;stroke-miterlimit:10;-inkscape-stroke:none"
           d="m 399.47225,105.71448 -2.29081,5.3e-4 v 0.24959 10.69961 h 3.09181 c 1.07363,0 1.95181,-0.30075 2.62154,-0.93586 h 0.003 v -0.002 c 0.64646,-0.62979 0.97462,-1.41132 0.97462,-2.30425 0,-0.44095 -0.0871,-0.86836 -0.26718,-1.24799 l -0.003,-0.002 c -0.17555,-0.38581 -0.41021,-0.71541 -0.72864,-0.99839 l -0.004,-0.002 -0.003,-0.002 c -0.24373,-0.20363 -0.61497,-0.35596 -0.98599,-0.51004 0.29816,-0.22146 0.60555,-0.43885 0.77721,-0.74207 0.25247,-0.41527 0.3788,-0.88916 0.3788,-1.4025 0,-0.53531 -0.14348,-1.04004 -0.41031,-1.48622 l -0.003,-0.004 -0.004,-0.006 c -0.28318,-0.42562 -0.66442,-0.77237 -1.15033,-0.98857 h -0.003 c -0.49593,-0.22406 -1.16128,-0.31626 -1.99625,-0.31626 z m -0.77668,1.52962 h 0.94101 c 0.7048,0 1.16608,0.13228 1.42214,0.34985 l 0.006,0.006 0.006,0.004 c 0.28122,0.21413 0.40618,0.49457 0.40618,0.91209 0,0.31298 -0.0794,0.58368 -0.24804,0.83768 -0.18725,0.25995 -0.40392,0.43401 -0.70126,0.54725 -0.27373,0.10158 -0.79496,0.17932 -1.47846,0.17932 h -0.35346 z m 0.33742,4.39456 c 0.85844,0 1.47833,0.0404 1.76993,0.11111 0.4972,0.12048 0.85116,0.33801 1.10897,0.63872 l 0.003,0.004 0.003,0.002 c 0.27053,0.2999 0.39274,0.6386 0.39274,1.04283 0,0.32553 -0.096,0.61375 -0.28318,0.88884 v 0.002 l -0.003,0.002 c -0.18621,0.28793 -0.41764,0.47979 -0.73432,0.60927 h -0.003 -0.003 c -0.28475,0.12139 -0.8182,0.20877 -1.55083,0.20877 h -1.0392 v -3.5078 z"
           inkscape:label="Text" />
      </g>
    </g>
    <g
       id="g1458"
       inkscape:label="Home"
       style="display:inline">
      <g
         id="g3754"
         inkscape:label="LED"
         style="display:inline">
        <path
           id="path1749-3"
           style="display:none;mix-blend-mode:lighten;fill:#b0b0b0;fill-opacity:1;fill-rule:nonzero;stroke:none;stroke-width:6.04724;stroke-miterlimit:9.53846;stroke-dasharray:none;stroke-opacity:1"
           inkscape:label="OFF"
           d="m 902.57812,287.30469 c -25.42484,0 -46.0996,20.88841 -46.0996,46.66015 0,25.77147 20.67476,46.59961 46.0996,46.59961 25.48661,0 46.09766,-20.82814 46.09766,-46.59961 0,-25.77174 -20.61105,-46.66015 -46.09766,-46.66015 z m 0,12.66992 c 18.5751,0 33.57032,15.20215 33.57032,33.99023 0,18.72584 -14.99522,33.99219 -33.57032,33.99219 -18.51337,0 -33.57226,-15.26635 -33.57226,-33.99219 0,-18.78808 15.05889,-33.99023 33.57226,-33.99023 z"
           transform="matrix(0.26458333,0,0,0.26458333,80.072992,-5.9766386)" />
        <path
           id="path4088"
           style="display:inline;mix-blend-mode:lighten;fill:#2a4fff;fill-opacity:1;fill-rule:nonzero;stroke:none;stroke-width:6.04724;stroke-miterlimit:9.53846;stroke-dasharray:none;stroke-opacity:1"
           inkscape:label="ON"
           d="m 902.57812,287.30469 c -25.42484,0 -46.0996,20.88841 -46.0996,46.66015 0,25.77147 20.67476,46.59961 46.0996,46.59961 25.48661,0 46.09766,-20.82814 46.09766,-46.59961 0,-25.77174 -20.61105,-46.66015 -46.09766,-46.66015 z m 0,12.66992 c 18.5751,0 33.57032,15.20215 33.57032,33.99023 0,18.72584 -14.99522,33.99219 -33.57032,33.99219 -18.51337,0 -33.57226,-15.26635 -33.57226,-33.99219 0,-18.78808 15.05889,-33.99023 33.57226,-33.99023 z"
           transform="matrix(0.26458333,0,0,0.26458333,80.072992,-5.9766386)" />
      </g>
      <path
         style="display:inline;fill:#686b6e;fill-opacity:1;fill-rule:nonzero;stroke:none;stroke-width:1.6;stroke-miterlimit:9.53846;stroke-dasharray:none"
         d="m 318.87991,73.39148 c 4.91466,0 8.88234,4.022539 8.88234,8.993552 0,4.954544 -3.96768,8.993478 -8.88234,8.993478 -4.89833,0 -8.88233,-4.038934 -8.88233,-8.993478 0,-4.971013 3.984,-8.993552 8.88233,-8.993552"
         id="path4084"
         inkscape:label="Color" />
      <path
         id="path1751-4"
         style="color:#000000;display:inline;fill:#211e1e;stroke-width:3.77953;stroke-miterlimit:9.53846;-inkscape-stroke:none"
         d="m 900.68555,283.15039 c -27.08126,0 -49.125,22.29152 -49.125,49.67969 0,27.38843 22.04865,49.62109 49.125,49.62109 27.13383,0 49.11914,-22.23751 49.11914,-49.62109 0,-27.38333 -21.98043,-49.67969 -49.11914,-49.67969 z m 0,6.04492 c 23.83442,0 43.07422,19.47576 43.07422,43.63477 0,24.1593 -19.23489,43.57617 -43.07422,43.57617 -23.77391,0 -43.08008,-19.42172 -43.08008,-43.57617 0,-24.15416 19.31108,-43.63477 43.08008,-43.63477 z m 0,6.6211 c -20.1687,0 -36.59766,16.61035 -36.59766,37.01367 0,20.34695 16.42224,37.01367 36.59766,37.01367 20.23162,0 36.59375,-16.67339 36.59375,-37.01367 0,-20.39667 -16.36882,-37.01367 -36.59375,-37.01367 z m 0,6.04687 c 16.92521,0 30.54687,13.7879 30.54687,30.9668 0,17.11191 -13.62835,30.96679 -30.54687,30.9668 -16.85129,0 -30.55274,-13.86156 -30.55274,-30.9668 0,-17.17225 13.69472,-30.9668 30.55274,-30.9668 z"
         transform="matrix(0.26458333,0,0,0.26458333,80.574244,-5.6765164)"
         inkscape:label="Outline" />
      <path
         style="display:inline;fill:#000000;fill-opacity:1;fill-rule:nonzero;stroke:none;stroke-width:0.297882"
         d="m 320.56433,84.51897 c 0,0.245744 -0.0984,0.344162 -0.33691,0.344162 h -2.69787 c -0.23909,0 -0.33751,-0.09842 -0.33751,-0.344162 v -2.016361 c 0,-0.239102 0.0984,-0.336311 0.33751,-0.336311 h 2.69787 c 0.23185,0 0.32302,0.09117 0.33691,0.323631 z m 3.56907,-3.280941 c -1.67914,-1.426277 -3.35829,-2.852432 -5.03743,-4.278708 -0.15457,-0.140683 -0.28076,-0.140683 -0.43533,0 -1.67214,1.426276 -3.35829,2.852431 -5.03744,4.278708 -0.29525,0.252988 -0.1757,0.589904 0.22462,0.589904 h 0.65336 c 0.23186,0 0.33027,0.09842 0.33027,0.337519 v 4.376944 c 0,0.245743 0.0984,0.343557 0.34416,0.343557 h 7.41215 c 0.2391,0 0.33751,-0.09842 0.33751,-0.343557 v -4.376944 c 0,-0.239101 0.0984,-0.337519 0.33028,-0.337519 h 0.65336 c 0.40032,0 0.52711,-0.336916 0.22462,-0.589904"
         id="path14283"
         inkscape:label="Icon" />
    </g>
    <g
       id="g1451"
       inkscape:label="Capture"
       style="display:inline">
      <path
         style="display:inline;fill:#686b6e;fill-opacity:1;fill-rule:nonzero;stroke:none;stroke-width:0.564261"
         d="m 255.83852,90.838877 c -2.02465,0 -3.67381,-1.667934 -3.67381,-3.711846 v -8.813649 c 0,-2.043912 1.64916,-3.695451 3.67381,-3.695451 h 8.57199 c 2.02473,0 3.65741,1.651539 3.65741,3.695451 v 8.813649 c 0,2.043912 -1.63268,3.711846 -3.65741,3.711846 z m 0,0"
         id="path1759-9"
         inkscape:label="Color" />
      <path
         style="display:inline;fill:#211e1e;fill-opacity:1;fill-rule:nonzero;stroke:none;stroke-width:0.564261"
         d="m 264.41051,73.751285 h -8.58839 c -2.46546,0 -4.50643,2.06038 -4.50643,4.562097 v 8.813649 c 0,2.518112 2.04097,4.562172 4.50643,4.562172 h 8.58839 c 2.48186,0 4.50651,-2.04406 4.50651,-4.562172 v -8.813649 c 0,-2.501717 -2.02465,-4.562097 -4.50651,-4.562097 m 0,1.716971 c 1.5512,0 2.80845,1.27534 2.80845,2.845126 v 8.813649 c 0,1.569787 -1.25725,2.861595 -2.80845,2.861595 h -8.58839 c -1.55112,0 -2.8083,-1.291808 -2.8083,-2.861595 v -8.813649 c 0,-1.569786 1.25718,-2.845126 2.8083,-2.845126 h 8.58839"
         id="path1761-8"
         inkscape:label="Outline" />
      <path
         style="display:inline;fill:#545759;fill-opacity:1;stroke:#211e1e;stroke-width:1.6;stroke-linecap:butt;stroke-linejoin:miter;stroke-miterlimit:10;stroke-dasharray:none;stroke-opacity:1"
         d="m 265.42287,82.728367 c 0,2.959595 -2.3675,5.363385 -5.30656,5.363385 -2.92265,0 -5.30641,-2.40379 -5.30641,-5.363385 0,-2.97599 2.38376,-5.379707 5.30641,-5.379707 2.93906,0 5.30656,2.403717 5.30656,5.379707 z m 0,0"
         id="path1765-8"
         inkscape:label="Symbol" />
    </g>
    <g
       id="g1445"
       inkscape:label="Minus"
       style="display:inline">
      <path
         style="display:inline;fill:#686b6e;fill-opacity:1;fill-rule:nonzero;stroke:none;stroke-width:1.6;stroke-miterlimit:9.53846;stroke-dasharray:none"
         d="m 247.75631,51.005934 c 0,5.281706 -4.21264,9.549506 -9.43749,9.549506 -5.19221,0 -9.4211,-4.2678 -9.4211,-9.549506 0,-5.281557 4.22889,-9.549357 9.4211,-9.549357 5.22485,0 9.43749,4.2678 9.43749,9.549357"
         id="path1767-5"
         inkscape:label="Color" />
      <path
         style="display:inline;fill:none;stroke:#211e1e;stroke-width:1.6;stroke-linecap:butt;stroke-linejoin:miter;stroke-miterlimit:9.53846;stroke-dasharray:none;stroke-opacity:1"
         d="m 247.75624,51.005934 c 0,5.281706 -4.21257,9.549506 -9.43742,9.549506 -5.19221,0 -9.4211,-4.2678 -9.4211,-9.549506 0,-5.281557 4.22889,-9.549357 9.4211,-9.549357 5.22485,0 9.43742,4.2678 9.43742,9.549357 z m 0,0"
         id="path1769-6"
         inkscape:label="Outline" />
      <path
         id="path6584"
         style="color:#000000;display:inline;fill:#000000;fill-opacity:1;stroke-width:0.499999;stroke-miterlimit:9.53846;-inkscape-stroke:none"
         d="m 233.05657,50.134924 v 0.249598 1.492414 h 10.55646 v -1.742012 z"
         inkscape:label="Symbol" />
    </g>
    <g
       id="g1440"
       inkscape:label="Plus"
       style="display:inline">
      <path
         style="display:inline;fill:#686b6e;fill-opacity:1;fill-rule:nonzero;stroke:none;stroke-width:1.6;stroke-miterlimit:9.53846;stroke-dasharray:none"
         d="m 350.06585,51.005934 c 0,5.085409 -4.08195,9.222343 -9.11089,9.222343 -5.02887,0 -9.11083,-4.136934 -9.11083,-9.222343 0,-5.085408 4.08196,-9.222343 9.11083,-9.222343 5.02894,0 9.11089,4.136935 9.11089,9.222343"
         id="path1773-8"
         inkscape:label="Color" />
      <path
         style="display:inline;fill:none;stroke:#211e1e;stroke-width:1.6;stroke-linecap:butt;stroke-linejoin:miter;stroke-miterlimit:9.53846;stroke-dasharray:none;stroke-opacity:1"
         d="m 350.06585,51.005934 c 0,5.085409 -4.08195,9.222492 -9.11082,9.222492 -5.02894,0 -9.1109,-4.137083 -9.1109,-9.222492 0,-5.085408 4.08196,-9.222343 9.1109,-9.222343 5.02887,0 9.11082,4.136935 9.11082,9.222343 z m 0,0"
         id="path1775-8"
         inkscape:label="Outline" />
      <path
         id="path6498"
         style="color:#000000;display:inline;fill:#000000;fill-opacity:1;stroke-width:0.499999;stroke-miterlimit:9.53846;-inkscape-stroke:none"
         d="m 340.03506,45.866968 v 4.218863 h -4.1951 v 1.840198 h 4.1951 v 4.202843 h 1.82211 v -4.202843 h 4.19766 v -1.840198 h -4.19766 v -4.218863 z"
         inkscape:label="Symbol" />
    </g>
    <g
       id="g1435"
       inkscape:label="D-PAD"
       style="display:inline">
      <path
         style="display:inline;fill:#686b6e;fill-opacity:1;fill-rule:nonzero;stroke:none;stroke-width:0.564261"
         d="m 215.9498,171.45317 c -0.47339,0 -0.84908,-0.37613 -0.84908,-0.85085 v -19.19701 h -18.95656 c -0.47338,0 -0.849,-0.37613 -0.849,-0.85077 v -19.73672 c 0,-0.47482 0.37557,-0.86621 0.849,-0.86621 h 18.95656 V 110.771 c 0,-0.47482 0.37558,-0.86628 0.84908,-0.86628 h 19.49534 c 0.47345,0 0.8491,0.39322 0.8491,0.86628 v 19.18061 h 18.97279 c 0.45713,0 0.84903,0.39248 0.84903,0.86621 v 19.73672 c 0,0.47482 -0.39182,0.85077 -0.84903,0.85077 h -18.97279 v 19.19701 c 0,0.47482 -0.3755,0.85085 -0.8491,0.85085 z m 0,0"
         id="path1779-7"
         inkscape:label="Color" />
      <path
         style="display:inline;fill:#211e1e;fill-opacity:1;fill-rule:nonzero;stroke:none;stroke-width:1.6;stroke-miterlimit:9.53846;stroke-dasharray:none"
         d="M 235.44514,109.05477 H 215.9498 c -0.93071,0 -1.69808,0.76895 -1.69808,1.7169 v 18.33036 h -18.10749 c -0.94692,0 -1.69807,0.76887 -1.69807,1.7169 v 19.73665 c 0,0.9481 0.75107,1.71689 1.69807,1.71689 h 18.10749 v 18.33037 c 0,0.9481 0.76745,1.70058 1.69808,1.70058 h 19.49534 c 0.94698,0 1.69805,-0.75226 1.69805,-1.70058 v -18.33037 h 18.12384 c 0.93066,0 1.68173,-0.76887 1.68173,-1.71689 v -19.73665 c 0,-0.9481 -0.75107,-1.7169 -1.68173,-1.7169 h -18.12384 v -18.33036 c 0,-0.9481 -0.75107,-1.7169 -1.69805,-1.7169 m 0,1.7169 v 20.04726 h 19.82189 v 19.73665 h -19.82189 v 20.04726 H 215.9498 v -20.04726 h -19.80557 v -19.73665 h 19.80557 v -20.04726 h 19.49534"
         id="path1781-2"
         inkscape:label="Outline" />
      <path
         id="path1783-2"
         style="display:inline;fill:#ffffff;fill-opacity:1;fill-rule:nonzero;stroke:none;stroke-width:2.13264"
         d="m 548.21875,463.86523 c -0.77142,0 -1.54272,0.51065 -2.12891,1.53125 l -3.26953,5.68555 c -1.17267,2.03928 -3.0854,5.43727 -4.25781,7.47852 l -3.27148,5.74804 c -1.17238,2.04084 -0.18743,3.70899 2.16015,3.70899 h 21.53711 c 2.3562,0 3.33257,-1.66774 2.16016,-3.70899 l -3.27149,-5.74804 c -1.1721,-2.03955 -3.08544,-5.43727 -4.25781,-7.47852 l -3.27148,-5.68555 c -0.58606,-1.0206 -1.35749,-1.53125 -2.12891,-1.53125 z m -67.85352,77.11524 c -0.48532,0.006 -1.02874,0.16564 -1.60156,0.49609 l -5.61523,3.27539 c -2.03543,1.23364 -5.36999,3.15108 -7.40625,4.32617 l -5.61524,3.33594 c -2.03539,1.17468 -2.03539,3.08881 0,4.26367 l 5.61524,3.33789 c 2.03539,1.17495 5.36999,3.09052 7.40625,4.32813 l 5.61523,3.27344 c 2.03539,1.17494 3.70313,0.16819 3.70313,-2.16211 v -21.81641 c 0,-1.68879 -0.86129,-2.67406 -2.10157,-2.6582 z m 135.65821,0.002 c -1.22227,-0.0113 -2.05078,0.97942 -2.05078,2.6543 v 21.8164 c 0,2.34966 1.60436,3.33507 3.64062,2.16016 l 5.67774,-3.27344 c 2.03625,-1.23647 5.3689,-3.15299 7.34375,-4.32812 l 5.67773,-3.33399 c 2.03626,-1.17498 2.03626,-3.09053 0,-4.26562 l -5.67773,-3.33594 c -1.97458,-1.17468 -5.3075,-3.09048 -7.34375,-4.32812 l -5.67774,-3.27344 c -0.5727,-0.33046 -1.11156,-0.48775 -1.58984,-0.49219 z m -78.57227,80.0918 c -2.35619,0 -3.33256,1.66774 -2.16015,3.70898 l 3.27148,5.74805 c 1.17237,2.03928 3.08544,5.37551 4.25781,7.47852 l 3.26953,5.68554 c 1.17241,2.04125 3.08544,2.04125 4.25782,0 l 3.27148,-5.68554 c 1.17241,-2.10123 3.08544,-5.43727 4.25781,-7.47852 l 3.27149,-5.74805 c 1.17267,-2.04079 0.18742,-3.70898 -2.16016,-3.70898 z"
         transform="matrix(0.26458333,0,0,0.26458333,80.574244,-5.6765164)"
         inkscape:label="Symbols" />
    </g>
  </g>
</svg>
