<?xml version="1.0" encoding="UTF-8" standalone="no"?>
<svg
   width="2475.4666"
   height="2499.7695"
   viewBox="0 0 256.46274 258.97612"
   preserveAspectRatio="xMidYMid"
   version="1.1"
   id="svg4"
   sodipodi:docname="steam-1-logo-svg-vector.svg"
   inkscape:version="1.1 (c68e22c387, 2021-05-23)"
   xmlns:inkscape="http://www.inkscape.org/namespaces/inkscape"
   xmlns:sodipodi="http://sodipodi.sourceforge.net/DTD/sodipodi-0.dtd"
   xmlns="http://www.w3.org/2000/svg"
   xmlns:svg="http://www.w3.org/2000/svg">
  <defs
     id="defs8" />
  <sodipodi:namedview
     id="namedview6"
     pagecolor="#ffffff"
     bordercolor="#666666"
     borderopacity="1.0"
     inkscape:pageshadow="2"
     inkscape:pageopacity="0.0"
     inkscape:pagecheckerboard="0"
     showgrid="false"
     inkscape:zoom="0.088388348"
     inkscape:cx="780.64588"
     inkscape:cy="1742.3111"
     inkscape:window-width="1920"
     inkscape:window-height="1005"
     inkscape:window-x="-9"
     inkscape:window-y="-9"
     inkscape:window-maximized="1"
     inkscape:current-layer="svg4" />
  <ellipse
     style="display:inline;fill:#0b162c;fill-opacity:1;fill-rule:evenodd;stroke:#99c3dc;stroke-width:0.709418;stroke-linejoin:round"
     id="path953"
     cx="128.23137"
     cy="129.48805"
     rx="127.87666"
     ry="129.13557"
     inkscape:export-filename="C:\Users\AL200\OneDrive\Pictures\AL2009man Work Projects\VSCView - Controller Theme Layout\VSCView - Controller Theme (Ver. 1.10)\Steam Controller Controller Images\SC Support Theme\VSCView Assets\icon.png"
     inkscape:export-xdpi="0.62048912"
     inkscape:export-ydpi="0.62048912" />
  <path
     d="M 128.24025,0.19155379 C 60.881249,0.19155379 5.7012491,52.603554 0.46124905,119.20556 l 68.72399995,28.674 a 35.812,35.812 0 0 1 20.426,-6.366 c 0.682,0 1.356,0.019 2.02,0.056 L 122.19725,96.859554 v -0.626 c 0,-26.903 21.69,-48.796 48.353,-48.796 26.662,0 48.352,21.893 48.352,48.796 0,26.902006 -21.69,48.804006 -48.352,48.804006 -0.37,0 -0.73,-0.009 -1.098,-0.018 l -43.593,31.377 c 0.028,0.582 0.046,1.163 0.046,1.735 0,20.204 -16.283,36.636 -36.294001,36.636 -17.566,0 -32.263,-12.658 -35.584,-29.412 l -49.1559999,-20.51 c 15.2229999,54.313 64.6729999,94.132 123.3690009,94.132 70.818,0 128.221,-57.938 128.221,-129.393 0,-71.463006 -57.403,-129.39300621 -128.221,-129.39300621 z M 80.813249,196.52356 l -15.749,-6.568 c 2.787,5.867 7.621,10.775 14.033,13.47 13.857,5.83 29.836001,-0.803 35.612001,-14.799 a 27.555,27.555 0 0 0 0.046,-21.035 c -2.768,-6.79 -7.999,-12.086 -14.706,-14.909 -6.670001,-2.795 -13.811001,-2.694 -20.085001,-0.304 l 16.275,6.79 c 10.222001,4.3 15.056001,16.145 10.794001,26.46 -4.253,10.314 -15.998001,15.195 -26.220001,10.895 z M 202.77025,96.233554 c 0,-17.925 -14.457,-32.52 -32.217,-32.52 -17.769,0 -32.226,14.595 -32.226,32.52 0,17.926006 14.457,32.512006 32.226,32.512006 17.76,0 32.217,-14.586 32.217,-32.512006 z m -56.37,-0.055 c 0,-13.488 10.84,-24.42 24.2,-24.42 13.368,0 24.208,10.932 24.208,24.42 0,13.488006 -10.84,24.421006 -24.209,24.421006 -13.359,0 -24.2,-10.933 -24.2,-24.420006 z"
     fill="#1a1918"
     id="path2"
     style="display:inline;fill:#6dbfe7;fill-opacity:1"
     inkscape:export-filename="C:\Users\AL200\OneDrive\Pictures\AL2009man Work Projects\VSCView - Controller Theme Layout\VSCView - Controller Theme (Ver. 1.10)\Steam Controller Controller Images\SC Support Theme\VSCView Assets\icon.png"
     inkscape:export-xdpi="0.62048912"
     inkscape:export-ydpi="0.62048912" />
</svg>
