<?xml version="1.0" encoding="UTF-8" standalone="no"?>
<!-- Created with Inkscape (http://www.inkscape.org/) -->

<svg
   width="112.70261mm"
   height="80.972374mm"
   viewBox="0 0 112.70262 80.972374"
   version="1.1"
   id="svg5"
   inkscape:version="1.2 (dc2aedaf03, 2022-05-15)"
   sodipodi:docname="VSCView Xbox 360 Controller.svg"
   inkscape:export-filename="..\Dark Theme\VSCView - Xbox 360 Controller.png"
   inkscape:export-xdpi="32.002808"
   inkscape:export-ydpi="32.002808"
   xmlns:inkscape="http://www.inkscape.org/namespaces/inkscape"
   xmlns:sodipodi="http://sodipodi.sourceforge.net/DTD/sodipodi-0.dtd"
   xmlns="http://www.w3.org/2000/svg"
   xmlns:svg="http://www.w3.org/2000/svg">
  <sodipodi:namedview
     id="namedview7"
     pagecolor="#ffffff"
     bordercolor="#666666"
     borderopacity="1.0"
     inkscape:pageshadow="2"
     inkscape:pageopacity="0.0"
     inkscape:pagecheckerboard="0"
     inkscape:document-units="mm"
     showgrid="false"
     inkscape:zoom="1.4142136"
     inkscape:cx="190.21172"
     inkscape:cy="163.34166"
     inkscape:window-width="2560"
     inkscape:window-height="1334"
     inkscape:window-x="-11"
     inkscape:window-y="-11"
     inkscape:window-maximized="1"
     inkscape:current-layer="layer1"
     inkscape:showpageshadow="2"
     inkscape:deskcolor="#d1d1d1" />
  <defs
     id="defs2">
    <inkscape:path-effect
       effect="bspline"
       id="path-effect1005"
       is_visible="true"
       lpeversion="1"
       weight="33.333333"
       steps="2"
       helper_size="0"
       apply_no_weight="true"
       apply_with_weight="true"
       only_selected="false" />
  </defs>
  <g
     inkscape:label="Layer 1"
     inkscape:groupmode="layer"
     id="layer1"
     transform="translate(-52.631088,-156.01814)">
    <path
       id="path2288"
       style="color:#000000;display:inline;fill:#000000;fill-opacity:1;stroke-width:3.77953;stroke-linecap:round;stroke-linejoin:round;-inkscape-stroke:none;paint-order:stroke fill markers"
       d="M 116.66797,0.01367188 V 0.015625 c -3.25002,0.4583433 -6.53128,0.91809372 -10.76367,1.7792969 -4.23243,0.8612409 -9.402356,2.1168384 -14.585941,3.6699219 -5.183546,1.5530077 -10.394829,3.4090524 -15.236328,5.9042972 -4.841499,2.495282 -9.234933,5.588254 -11.921875,7.78125 -2.686941,2.192995 -3.786231,3.685849 -6.673828,9.220703 -2.887597,5.534815 -7.760399,15.351495 -12.910156,26.861328 -5.149758,11.509795 -10.576883,24.701336 -15.339844,38.238281 -4.762923,13.536947 -8.854481,27.391457 -12.02539,38.865237 -3.170873,11.47377 -5.425704,20.59118 -7.7500005,32.20117 -2.3243717,11.60999 -4.7200172,25.71153 -6.2246094,37.20508 -1.5045165,11.49354 -2.1165335,20.36802 -2.58984372,29.77734 -0.47308347,9.40936 -0.8075379,19.37404 -0.55468751,26.42774 0.25288818,7.05365 1.10704203,11.19193 2.16406253,14.93359 1.0570204,3.74158 2.3293513,7.16618 3.6171875,10.16406 1.287874,2.99789 2.598589,5.58809 4,7.76563 1.4014491,2.17753 2.9037901,3.94201 4.7539061,5.55273 1.850003,1.61061 4.019737,3.05455 5.90625,4.19922 1.886551,1.14467 3.508752,2.00131 4.945313,2.66602 1.436522,0.6647 2.778821,1.1709 4.93164,1.62304 2.152781,0.45215 5.125307,0.8705 7.683594,1.0625 2.558324,0.19087 4.679993,0.14774 7.027344,-0.0234 2.34531,-0.16916 5.067792,-0.48128 8.261718,-1.65429 3.196763,-1.174 6.851011,-3.2063 13.597657,-8.17188 6.746645,-4.96554 16.631438,-12.88916 26.492187,-21.64257 9.860824,-8.75343 19.668564,-18.30864 26.169924,-24.66407 6.50131,-6.35546 9.66055,-9.47477 13.4414,-12.1582 3.78082,-2.68335 8.26432,-4.99519 12.45313,-6.87305 4.18877,-1.87778 8.02355,-3.30051 14.07812,-4.87109 6.05458,-1.57055 14.33876,-3.27587 19.45118,-4.27344 2.48994,-0.48587 3.19121,-0.53494 4.58789,-0.76562 5.24292,2.36768 16.76787,3.88917 29.4707,3.89062 12.64023,-1.7e-4 24.12405,-1.50572 29.4082,-3.85547 1.36192,0.22775 1.99964,0.26734 4.37305,0.73047 5.11242,0.99757 13.3966,2.70289 19.45117,4.27344 6.05458,1.57058 9.88935,2.99331 14.07813,4.87109 4.18881,1.87786 8.67231,4.1897 12.45312,6.87305 3.78085,2.68346 6.94009,5.80274 13.44141,12.1582 6.50135,6.35543 16.30909,15.91064 26.16992,24.66407 9.86075,8.7534 19.74554,16.67703 26.49219,21.64257 6.74664,4.96558 10.40089,6.99788 13.59765,8.17188 3.19393,1.17301 5.91641,1.48514 8.26172,1.65429 2.34732,0.17122 4.46902,0.21363 7.02735,0.0234 2.55828,-0.192 5.53081,-0.61035 7.68359,-1.0625 2.15282,-0.45214 3.49512,-0.95834 4.93164,-1.62304 1.43656,-0.66471 3.05876,-1.52135 4.94531,-2.66602 1.88652,-1.14467 4.05621,-2.58861 5.90625,-4.19922 1.85008,-1.61072 3.35246,-3.3752 4.75391,-5.55273 1.40141,-2.17754 2.71213,-4.76774 4,-7.76563 1.28784,-2.99788 2.56017,-6.42248 3.61719,-10.16406 1.05702,-3.74166 1.91117,-7.87994 2.16406,-14.93359 0.25285,-7.0537 -0.0816,-17.01838 -0.55469,-26.42774 -0.47331,-9.40932 -1.08529,-18.2838 -2.58984,-29.77734 -1.50459,-11.49355 -3.90024,-25.59509 -6.22461,-37.20508 -2.3243,-11.60999 -4.57913,-20.7274 -7.75,-32.20117 -3.17091,-11.47378 -7.26247,-25.32829 -12.02539,-38.865237 -4.76296,-13.536945 -10.19009,-26.728486 -15.33985,-38.238281 -5.14975,-11.509833 -10.02256,-21.326513 -12.91015,-26.861328 -2.8876,-5.534854 -3.98689,-7.027708 -6.67383,-9.220703 -2.68694,-2.192996 -7.08038,-5.285968 -11.92188,-7.78125 C 345.04915,8.8738603 339.83784,7.0178514 334.6543,5.4648438 329.47071,3.9117603 324.30079,2.6561628 320.06836,1.7949219 315.83597,0.93371871 312.5547,0.47396829 309.30469,0.015625 V 0.0136719 c -0.25238,-0.03659492 -0.50972,0.01294707 -0.73047,0.140625 -2.41667,1.3958173 -4.81929,2.7215105 -9.39649,5.2597656 -4.57715,2.5382551 -11.31964,6.2222845 -18.13085,9.7890625 -6.81117,3.566778 -13.66858,6.999552 -19.94532,9.160156 -6.2767,2.160643 -12.04841,3.085501 -18.91211,3.832031 -6.86366,0.746571 -14.76858,1.305254 -20.5957,1.564454 -3.04264,0.13538 -5.52113,0.186327 -7.96094,0.193359 -0.42948,0.0012 -0.86678,-0.0024 -1.29687,-0.0039 v 0.0039 c -2.43857,-0.0072 -4.91598,-0.05812 -7.95703,-0.193359 -5.82713,-0.2592 -13.73208,-0.817883 -20.59571,-1.564454 -6.8637,-0.746531 -12.63541,-1.671388 -18.91211,-3.832031 -6.27673,-2.160604 -13.13415,-5.593378 -19.94531,-9.160156 -6.81124,-3.566778 -13.5537,-7.2508074 -18.13086,-9.7890625 -4.57719,-2.5382551 -6.97981,-3.8639483 -9.39648,-5.2597656 -0.22075,-0.12767793 -0.47809,-0.1772199 -0.73047,-0.14062502 z"
       transform="matrix(0.26458333,0,0,0.26458333,52.629762,156.01763)"
       sodipodi:nodetypes="cccccscccccccssssssssccssscscsscccssssssssccsssssssscsssssssssscccssssssccccccscc" />
    <circle
       style="display:inline;opacity:1;fill:#ffffff;fill-opacity:1;fill-rule:evenodd;stroke:none;stroke-width:1.99998;stroke-miterlimit:9.53846;paint-order:stroke fill markers"
       id="circle4128-9"
       cx="148.31911"
       cy="175.37285"
       r="4.4889321" />
    <circle
       style="display:inline;opacity:1;fill:#ffffff;fill-opacity:1;fill-rule:evenodd;stroke:none;stroke-width:1.99998;stroke-miterlimit:9.53846;paint-order:stroke fill markers"
       id="circle4128-6"
       cx="139.85561"
       cy="167.39893"
       r="4.4889321" />
    <circle
       style="display:inline;opacity:1;fill:#ffffff;fill-opacity:1;fill-rule:evenodd;stroke:none;stroke-width:1.99998;stroke-miterlimit:9.53846;paint-order:stroke fill markers"
       id="circle4128-1"
       cx="131.41873"
       cy="175.66382"
       r="4.4889321" />
    <circle
       style="display:inline;opacity:1;fill:#ffffff;fill-opacity:1;fill-rule:evenodd;stroke:none;stroke-width:1.99998;stroke-miterlimit:9.53846;paint-order:stroke fill markers"
       id="circle4128"
       cx="139.84492"
       cy="184.16986"
       r="4.4889321" />
    <circle
       style="opacity:1;fill:#ffffff;fill-opacity:1;fill-rule:evenodd;stroke:none;stroke-width:0.450001;stroke-linecap:round;stroke-linejoin:round;stroke-miterlimit:9.53846"
       id="path10270"
       cx="76.849693"
       cy="173.3662"
       r="8.3659983" />
    <circle
       style="opacity:1;fill:#ffffff;fill-opacity:1;fill-rule:evenodd;stroke:none;stroke-width:0.450001;stroke-linecap:round;stroke-linejoin:round;stroke-miterlimit:9.53846"
       id="path10376"
       cx="92.476166"
       cy="193.37581"
       r="10.082631" />
    <circle
       style="opacity:1;fill:#ffffff;fill-opacity:1;fill-rule:evenodd;stroke:none;stroke-width:0.450001;stroke-linecap:round;stroke-linejoin:round;stroke-miterlimit:9.53846"
       id="circle10538"
       cx="124.47813"
       cy="193.36116"
       r="8.3659983" />
  </g>
</svg>
