<?xml version="1.0" encoding="UTF-8" standalone="no"?>
<!-- Created with Inkscape (http://www.inkscape.org/) -->

<svg
   width="113.513mm"
   height="80.020088mm"
   viewBox="0 0 113.513 80.020089"
   version="1.1"
   id="svg5"
   xml:space="preserve"
   inkscape:version="1.2 (dc2aedaf03, 2022-05-15)"
   sodipodi:docname="VSCView Switch Joy-Con Grip.svg"
   inkscape:export-filename="..\Dark Theme\VSCView - Switch Joycons Grip.png"
   inkscape:export-xdpi="95.8863"
   inkscape:export-ydpi="95.8863"
   xmlns:inkscape="http://www.inkscape.org/namespaces/inkscape"
   xmlns:sodipodi="http://sodipodi.sourceforge.net/DTD/sodipodi-0.dtd"
   xmlns="http://www.w3.org/2000/svg"
   xmlns:svg="http://www.w3.org/2000/svg"><sodipodi:namedview
     id="namedview7"
     pagecolor="#ffffff"
     bordercolor="#666666"
     borderopacity="1.0"
     inkscape:showpageshadow="2"
     inkscape:pageopacity="0.0"
     inkscape:pagecheckerboard="0"
     inkscape:deskcolor="#d1d1d1"
     inkscape:document-units="mm"
     showgrid="false"
     inkscape:zoom="1"
     inkscape:cx="141"
     inkscape:cy="215"
     inkscape:window-width="2560"
     inkscape:window-height="1334"
     inkscape:window-x="-11"
     inkscape:window-y="-11"
     inkscape:window-maximized="1"
     inkscape:current-layer="svg5" /><defs
     id="defs2"><inkscape:path-effect
       effect="bspline"
       id="path-effect6735"
       is_visible="true"
       lpeversion="1"
       weight="33.333333"
       steps="2"
       helper_size="0"
       apply_no_weight="true"
       apply_with_weight="true"
       only_selected="false" /><inkscape:path-effect
       effect="bspline"
       id="path-effect6729"
       is_visible="true"
       lpeversion="1"
       weight="33.333333"
       steps="2"
       helper_size="0"
       apply_no_weight="true"
       apply_with_weight="true"
       only_selected="false" /></defs><g
     id="g6738"
     style="display:inline;fill:#1a1a1a;fill-opacity:1"
     transform="matrix(1.9549501,0,0,1.9549501,9.4254085,0)"><path
       style="fill:#1a1a1a;fill-opacity:1;stroke:none;stroke-width:0.2673px;stroke-linecap:butt;stroke-linejoin:miter;stroke-opacity:1"
       d="M 2.9508118,6.4194799 C 2.7540782,6.490304 2.5571929,6.5611826 2.3090203,6.809316 2.0608476,7.0574493 1.7615881,7.4827129 1.3441786,8.2072843 0.92676918,8.9318557 0.3912523,9.9556382 0.00929164,10.71169 c -0.38196066,0.756053 -0.61034323,1.244318 -0.87810605,2.126415 -0.26776279,0.882096 -0.57489749,2.157886 -0.88203999,3.508537 -0.3071426,1.350651 -0.6142772,2.776071 -0.9765528,4.28422 -0.3622755,1.508148 -0.7796639,3.098949 -1.0671121,4.355101 -0.2874482,1.256152 -0.4449531,2.177556 -0.572929,2.93951 -0.1279758,0.761953 -0.226416,1.364409 -0.2913804,1.864515 -0.064965,0.500106 -0.096466,0.897807 -0.1220563,1.33687 -0.025591,0.439064 -0.045279,0.919457 -0.03936,1.519975 0.00592,0.600518 0.037419,1.321103 0.076808,1.884207 0.039389,0.563104 0.08664,0.968678 0.1595122,1.362463 0.072872,0.393786 0.1713124,0.775734 0.3249178,1.195107 0.1536055,0.419374 0.3623,0.876139 0.5474077,1.218712 0.1851077,0.342574 0.3465502,0.570956 0.5158779,0.80328 0.1693277,0.232324 0.3465216,0.468582 0.7127817,0.724466 0.3662601,0.255883 0.921465,0.531517 1.3447714,0.722476 0.42330646,0.19096 0.71469043,0.297275 1.02770917,0.344464 0.31301874,0.04719 0.64771677,0.03538 1.05131472,-0.01189 0.40359791,-0.04727 0.87611231,-0.129958 1.29147851,-0.27566 0.4153662,-0.145703 0.77369,-0.354397 1.096567,-0.563091 0.322877,-0.208694 0.6103235,-0.417388 0.9331847,-0.732379 0.3228613,-0.314991 0.6811856,-0.736318 1.0395361,-1.157675"
       id="path6727"
       inkscape:path-effect="#path-effect6729"
       inkscape:original-d="M 2.9508118,6.4194799 C 2.7541941,6.4906258 2.5573088,6.5615045 2.3601563,6.6321158 2.0611522,7.0576637 1.7618927,7.4829273 1.4623599,7.907932 c -0.53527123,1.0240908 -1.07078828,2.0478732 -1.60658332,3.07141 -0.22812411,0.488551 -0.45650638,0.976817 -0.68516052,1.464825 -0.30687976,1.276109 -0.61401446,2.551899 -0.92142276,3.827448 -0.3068797,1.425745 -0.6140144,2.851165 -0.9214227,4.276347 -0.4171376,1.591131 -0.8345259,3.181932 -1.25219,4.772497 -0.1572439,0.921708 -0.3147489,1.843112 -0.4725245,2.764268 -0.098177,0.602749 -0.1966177,1.205204 -0.2953276,1.807407 -0.031235,0.397983 -0.062736,0.795684 -0.094505,1.193124 -0.019422,0.480675 -0.03911,0.961068 -0.059065,1.4412 0.031769,0.720882 0.06327,1.441467 0.094505,2.161799 0.047521,0.40586 0.094772,0.811434 0.1417574,1.21675 0.098711,0.382234 0.1971526,0.764182 0.2953279,1.145873 0.2089697,0.457049 0.4176638,0.913814 0.626095,1.37032 0.1617163,0.228659 0.3231589,0.457041 0.4843374,0.68516 0.1774677,0.236534 0.3546607,0.472793 0.5315901,0.708786 0.5554947,0.275914 1.1106998,0.551548 1.6656488,0.82692 0.29166323,0.106587 0.58304748,0.212902 0.87417029,0.318954 0.33497854,-0.01155 0.66967668,-0.02336 1.00411423,-0.03544 0.47280128,-0.08243 0.94531628,-0.165116 1.41757348,-0.248075 0.3586055,-0.208436 0.7169294,-0.41713 1.0749933,-0.626095 0.2877254,-0.208436 0.575172,-0.41713 0.862357,-0.626095 0.3586057,-0.421075 0.7169293,-0.842402 1.0749932,-1.264003" /><path
       style="fill:#1a1a1a;fill-opacity:1;stroke:none;stroke-width:0.2673px;stroke-linecap:butt;stroke-linejoin:miter;stroke-opacity:1"
       d="m 45.470977,6.4194799 c 0.196734,0.070824 0.393619,0.1417026 0.641792,0.389836 0.248173,0.2481335 0.547432,0.6733969 0.964841,1.3979683 0.41741,0.7245714 0.952926,1.7483539 1.334887,2.5044068 0.381961,0.756052 0.610344,1.244318 0.878106,2.126414 0.267763,0.882096 0.574898,2.157885 0.882041,3.508537 0.307142,1.350651 0.614276,2.776071 0.976552,4.28422 0.362275,1.508148 0.779664,3.098949 1.067112,4.355101 0.287448,1.256152 0.444953,2.177556 0.572929,2.93951 0.127976,0.761954 0.226417,1.364409 0.29138,1.864515 0.06496,0.500107 0.09646,0.897808 0.122054,1.336871 0.02559,0.439062 0.04528,0.919456 0.03936,1.519974 -0.0059,0.600518 -0.03742,1.321103 -0.0768,1.884207 -0.03939,0.563104 -0.08664,0.968678 -0.159512,1.362463 -0.07287,0.393785 -0.171312,0.775734 -0.324918,1.195107 -0.153605,0.419374 -0.3623,0.876139 -0.547407,1.218712 -0.185108,0.342574 -0.346551,0.570956 -0.515878,0.80328 -0.169328,0.232324 -0.346522,0.468583 -0.712782,0.724466 -0.36626,0.255883 -0.921465,0.531517 -1.344771,0.722476 -0.423307,0.19096 -0.714691,0.297276 -1.02771,0.344464 -0.313018,0.04719 -0.647716,0.03538 -1.051314,-0.01189 -0.403598,-0.04727 -0.876113,-0.129958 -1.291479,-0.275661 -0.415366,-0.145702 -0.773689,-0.354396 -1.096567,-0.56309 -0.322877,-0.208694 -0.610323,-0.417388 -0.933184,-0.732379 -0.322862,-0.314991 -0.681186,-0.736318 -1.039537,-1.157675"
       id="path6731"
       inkscape:path-effect="#path-effect6735"
       inkscape:original-d="m 45.470977,6.4194799 c 0.196618,0.071146 0.393503,0.1420246 0.590656,0.2126359 0.299004,0.4255479 0.598263,0.8508115 0.897796,1.2758162 0.535271,1.0240908 1.070788,2.0478732 1.606583,3.07141 0.228125,0.488551 0.456507,0.976817 0.685161,1.464825 0.30688,1.276109 0.614014,2.551899 0.921423,3.827448 0.306879,1.425745 0.614014,2.851165 0.921422,4.276347 0.417138,1.591131 0.834526,3.181932 1.25219,4.772497 0.157244,0.921708 0.314749,1.843112 0.472525,2.764268 0.09818,0.602749 0.196618,1.205204 0.295328,1.807407 0.03124,0.397983 0.06274,0.795684 0.0945,1.193124 0.01942,0.480675 0.03911,0.961068 0.05907,1.4412 -0.03177,0.720882 -0.06327,1.441467 -0.0945,2.161799 -0.04752,0.40586 -0.09477,0.811434 -0.141758,1.21675 -0.09871,0.382234 -0.197152,0.764182 -0.295328,1.145873 -0.208969,0.457049 -0.417664,0.913814 -0.626095,1.37032 -0.161716,0.228659 -0.323159,0.457041 -0.484337,0.68516 -0.177468,0.236534 -0.354661,0.472793 -0.53159,0.708786 -0.555495,0.275914 -1.1107,0.551548 -1.665649,0.82692 -0.291663,0.106587 -0.583048,0.212902 -0.87417,0.318954 -0.334979,-0.01155 -0.669677,-0.02336 -1.004115,-0.03544 -0.472801,-0.08243 -0.945316,-0.165116 -1.417573,-0.248075 -0.358606,-0.208436 -0.716929,-0.41713 -1.074993,-0.626095 -0.287726,-0.208436 -0.575172,-0.41713 -0.862357,-0.626095 -0.358606,-0.421075 -0.71693,-0.842402 -1.074994,-1.264003" /></g><g
     id="g4118"
     transform="matrix(1.9549501,0,0,1.9549501,26.592106,-0.40001896)"><path
       id="path1957"
       style="display:inline;fill:#000000;fill-opacity:1;stroke:none;stroke-width:2.37257;stroke-linecap:round;stroke-linejoin:round;stroke-miterlimit:2"
       d="m 31.561359,0.2046385 c 4.37696,0 7.90075,4.058315 7.90075,9.099689 V 31.976907 c 0,5.04138 -3.52379,9.09969 -7.90075,9.09969 -0.0764,0 -0.15228,-10e-4 -0.22812,-0.004 h -3.88328 c -0.004,3e-5 -0.007,5.2e-4 -0.0103,5.2e-4 h -2.65646 c -0.62201,0 -1.12255,-0.50055 -1.12255,-1.12256 v -0.85675 h -0.0976 c -0.69259,0 -1.25005,-0.55746 -1.25005,-1.25005 V 3.4365735 c 0,-0.692586 0.55746,-1.250555 1.25005,-1.250555 h 0.0976 v -0.856241 c 0,-0.622009 0.50054,-1.122559 1.12255,-1.122559 h 1.63455 1.02191 3.91734 c 0.0679,-0.002 0.136,-0.0026 0.20438,-0.0026 z" /><circle
       style="display:inline;fill:#fdfdfd;fill-opacity:1;stroke:none;stroke-width:8.0524;stroke-linecap:round;stroke-linejoin:round;stroke-miterlimit:2"
       id="path2168-0"
       cx="31.449608"
       cy="21.49057"
       r="2.8623476" /><circle
       style="display:inline;fill:#fdfdfd;fill-opacity:1;stroke:none;stroke-width:3.50156;stroke-linecap:round;stroke-linejoin:round;stroke-miterlimit:2"
       id="path2168"
       cx="27.568127"
       cy="29.803955"
       r="1.2446809" /><circle
       style="display:inline;fill:#fdfdfd;fill-opacity:1;stroke:none;stroke-width:4.34054;stroke-linecap:round;stroke-linejoin:round;stroke-miterlimit:2"
       id="path2168-9"
       cx="31.466133"
       cy="7.0851974"
       r="1.54291" /><circle
       style="display:inline;fill:#fdfdfd;fill-opacity:1;stroke:none;stroke-width:4.34054;stroke-linecap:round;stroke-linejoin:round;stroke-miterlimit:2"
       id="circle2207"
       cx="34.213463"
       cy="9.8234787"
       r="1.54291" /><circle
       style="display:inline;fill:#fdfdfd;fill-opacity:1;stroke:none;stroke-width:4.34054;stroke-linecap:round;stroke-linejoin:round;stroke-miterlimit:2"
       id="circle2209"
       cx="31.484222"
       cy="12.74251"
       r="1.54291" /><circle
       style="display:inline;fill:#fdfdfd;fill-opacity:1;stroke:none;stroke-width:4.34054;stroke-linecap:round;stroke-linejoin:round;stroke-miterlimit:2"
       id="circle2211"
       cx="28.664589"
       cy="9.8325195"
       r="1.54291" /><path
       id="rect2587"
       style="fill:#fdfdfd;fill-opacity:1;stroke:none;stroke-width:2.40241;stroke-linecap:round;stroke-linejoin:round;stroke-miterlimit:2"
       d="m 27.335799,2.1316528 c -0.09604,0 -0.173116,0.067183 -0.173116,0.1503784 v 1.0831381 h -1.083138 c -0.08319,0 -0.150378,0.077079 -0.150378,0.173116 v 0.6991821 c 0,0.096037 0.06718,0.1736328 0.150378,0.1736328 h 1.083138 v 1.0831381 c 0,0.083195 0.07708,0.1498616 0.173116,0.1498616 h 0.699699 c 0.09604,0 0.173116,-0.066666 0.173116,-0.1498616 V 4.4111002 h 1.083138 c 0.0832,0 0.150379,-0.077596 0.150379,-0.1736328 V 3.5382853 c 0,-0.096037 -0.06718,-0.173116 -0.150379,-0.173116 H 28.208614 V 2.2820312 c 0,-0.083195 -0.07708,-0.1503784 -0.173116,-0.1503784 z" /></g><g
     id="g4128"
     transform="matrix(1.9549501,0,0,1.9549501,9.3246904,-0.40001896)"><path
       id="rect1894"
       style="display:inline;fill:#000000;fill-opacity:1;stroke:none;stroke-width:2.37257;stroke-linecap:round;stroke-linejoin:round;stroke-miterlimit:2"
       d="m 7.9522655,0.2046385 c -4.376954,0 -7.90074604,4.058315 -7.90074604,9.099689 V 31.976907 c 0,5.04138 3.52379204,9.09969 7.90074604,9.09969 0.07637,0 0.152284,-10e-4 0.228125,-0.004 h 3.8832775 c 0.0035,3e-5 0.0068,5.2e-4 0.01032,5.2e-4 h 2.656463 c 0.622009,0 1.122558,-0.50055 1.122558,-1.12256 v -0.85675 h 0.09755 c 0.692587,0 1.250039,-0.55745 1.250039,-1.25005 V 3.4365735 c 0,-0.692586 -0.557452,-1.250555 -1.250039,-1.250555 h -0.09755 v -0.856241 c 0,-0.622009 -0.500549,-1.122559 -1.122558,-1.122559 H 13.095902 12.073988 8.1566465 c -0.06797,-0.002 -0.135992,-0.0026 -0.204383,-0.0026 z" /><rect
       style="display:inline;fill:#fdfdfd;fill-opacity:1;fill-rule:evenodd;stroke:none;stroke-width:0.380391;stroke-linecap:round;stroke-linejoin:round;stroke-miterlimit:4;stroke-dasharray:none;stroke-opacity:1;paint-order:stroke fill markers"
       id="rect7609"
       width="2.467078"
       height="2.4069762"
       x="10.590444"
       y="28.589516"
       rx="0.20701282"
       ry="0.2195036" /><circle
       style="display:inline;fill:#fdfdfd;fill-opacity:1;stroke:none;stroke-width:8.0524;stroke-linecap:round;stroke-linejoin:round;stroke-miterlimit:2"
       id="circle2205"
       cx="8.4588547"
       cy="9.8867493"
       r="2.8623476" /><circle
       style="display:inline;fill:#fdfdfd;fill-opacity:1;stroke:none;stroke-width:4.34054;stroke-linecap:round;stroke-linejoin:round;stroke-miterlimit:2"
       id="circle2525"
       cx="8.1287689"
       cy="18.600512"
       r="1.54291" /><circle
       style="display:inline;fill:#fdfdfd;fill-opacity:1;stroke:none;stroke-width:4.34054;stroke-linecap:round;stroke-linejoin:round;stroke-miterlimit:2"
       id="circle2527"
       cx="10.876099"
       cy="21.338793"
       r="1.54291" /><circle
       style="display:inline;fill:#fdfdfd;fill-opacity:1;stroke:none;stroke-width:4.34054;stroke-linecap:round;stroke-linejoin:round;stroke-miterlimit:2"
       id="circle2529"
       cx="8.1468582"
       cy="24.257824"
       r="1.54291" /><circle
       style="display:inline;fill:#fdfdfd;fill-opacity:1;stroke:none;stroke-width:4.34054;stroke-linecap:round;stroke-linejoin:round;stroke-miterlimit:2"
       id="circle2531"
       cx="5.3272247"
       cy="21.347834"
       r="1.54291" /><rect
       style="fill:#fdfdfd;fill-opacity:1;stroke:none;stroke-width:2.38501;stroke-linecap:round;stroke-linejoin:round;stroke-miterlimit:2"
       id="rect3315"
       width="1.0189286"
       height="3.5539165"
       x="3.4281511"
       y="-13.473204"
       rx="0.16886356"
       ry="0.15193942"
       transform="rotate(90)" /></g><rect
     style="display:inline;opacity:1;fill:#1a1a1a;fill-opacity:1;stroke:none;stroke-width:4.56133;stroke-linecap:round;stroke-linejoin:round;stroke-miterlimit:2"
     id="rect4204"
     width="32.577179"
     height="79.900215"
     x="40.285484"
     y="0.00099073758"
     rx="0"
     ry="1.9163541" /></svg>
