<?xml version="1.0" encoding="UTF-8" standalone="no"?>
<!-- Created with Inkscape (http://www.inkscape.org/) -->

<svg
   width="113.84983mm"
   height="73.886467mm"
   viewBox="0 0 113.84983 73.886463"
   version="1.1"
   id="svg8281"
   inkscape:version="1.1 (c68e22c387, 2021-05-23)"
   sodipodi:docname="VSCView Device NONE.svg"
   inkscape:export-filename="D:\Videos\Captures\Tools\VSCView-0.5.0.0\icons\DEVICE_NONE.png"
   inkscape:export-xdpi="32.0079"
   inkscape:export-ydpi="32.0079"
   xmlns:inkscape="http://www.inkscape.org/namespaces/inkscape"
   xmlns:sodipodi="http://sodipodi.sourceforge.net/DTD/sodipodi-0.dtd"
   xmlns="http://www.w3.org/2000/svg"
   xmlns:svg="http://www.w3.org/2000/svg">
  <sodipodi:namedview
     id="namedview8283"
     pagecolor="#ffffff"
     bordercolor="#666666"
     borderopacity="1.0"
     inkscape:pageshadow="2"
     inkscape:pageopacity="0.0"
     inkscape:pagecheckerboard="0"
     inkscape:document-units="mm"
     showgrid="false"
     inkscape:zoom="1"
     inkscape:cx="-29.5"
     inkscape:cy="159"
     inkscape:window-width="1920"
     inkscape:window-height="995"
     inkscape:window-x="-9"
     inkscape:window-y="-9"
     inkscape:window-maximized="1"
     inkscape:current-layer="layer1" />
  <defs
     id="defs8278">
    <filter
       style="color-interpolation-filters:sRGB"
       inkscape:label="Invert"
       id="filter8444"
       x="0"
       y="0"
       width="1"
       height="1">
      <feColorMatrix
         values="1 0 0 0 0 0 1 0 0 0 0 0 1 0 0 -0.21 -0.72 -0.07 1 0 "
         result="color2"
         id="feColorMatrix8442" />
    </filter>
  </defs>
  <g
     inkscape:label="Layer 1"
     inkscape:groupmode="layer"
     id="layer1"
     transform="translate(3.052104,-206.11617)">
    <path
       style="color:#000000;fill:#ffffff;stroke-width:2;-inkscape-stroke:none"
       d="m 53.612366,207.11613 c -15.454802,0.006 -30.839945,0.56586 -33.768999,1.67949 -6.937321,2.63757 -9.9516472,8.79873 -16.8883742,34.51985 -7.0418188,26.11083 -6.7831678,31.77658 1.5875,34.72036 7.5872952,2.66832 13.8551552,-0.10003 20.0158322,-8.84028 l 5.679241,-8.05636 h 47.270511 l 5.679241,8.05636 c 6.160678,8.74025 12.428538,11.5086 20.015832,8.84028 8.37067,-2.94379 8.62932,-8.60954 1.5875,-34.72036 -6.93674,-25.72113 -9.951066,-31.88228 -16.888388,-34.51985 -2.929086,-1.11364 -18.314537,-1.67327 -33.769514,-1.67949 -0.173461,-7e-5 -0.520382,0 -0.520382,0 z"
       id="path826" />
    <path
       style="color:#000000;fill:#000000;stroke-width:0.264583;-inkscape-stroke:none"
       d="m 53.61185,206.1162 c -7.73933,0.003 -15.459639,0.14437 -21.626589,0.42529 -3.083473,0.14046 -5.777479,0.31554 -7.902358,0.52762 -2.124882,0.21207 -3.616992,0.41982 -4.595069,0.79168 -3.665453,1.39361 -6.433585,3.87992 -8.987049,9.09919 -2.5534627,5.21926 -5.0384926,13.21872 -8.5111078,26.09505 -3.5264423,13.07592 -5.2624909,21.03463 -5.0193319,26.35394 0.1215796,2.65966 0.7726154,4.70782 2.0241659,6.25957 1.25155049,1.55175 3.0303675,2.54219 5.216219,3.31091 3.9770507,1.39866 7.7597118,1.38377 11.2788978,-0.17053 3.519186,-1.55431 6.74252,-4.57716 9.886219,-9.03718 l 5.380033,-7.63261 h 46.23387 l 5.380032,7.63261 c 3.1437,4.46002 6.367034,7.48235 9.88622,9.03666 3.519186,1.5543 7.301846,1.5697 11.278898,0.17105 2.18585,-0.76872 3.96467,-1.75916 5.21622,-3.31091 1.25155,-1.55175 1.90258,-3.59991 2.02416,-6.25957 0.24316,-5.31931 -1.49289,-13.27802 -5.01933,-26.35394 -3.47262,-12.87634 -5.95764,-20.87579 -8.511108,-26.09505 -2.553464,-5.21927 -5.321593,-7.70558 -8.987046,-9.09919 -0.978088,-0.37187 -2.470153,-0.5796 -4.595069,-0.79168 -2.124916,-0.21208 -4.818835,-0.38716 -7.902361,-0.52762 -6.167051,-0.28092 -13.887685,-0.42218 -21.627102,-0.42529 -0.174265,-7e-5 -0.520898,0 -0.520898,0 z m 5.29e-4,1.99987 h 5.29e-4 c 7.94e-4,0 0.346863,-7e-5 0.519348,0 7.715544,0.003 15.415509,0.14438 21.537186,0.42323 3.06084,0.13943 5.728251,0.31361 7.794874,0.51987 2.066623,0.20626 3.595984,0.48633 4.082439,0.67128 3.271861,1.24396 5.479634,3.15705 7.901842,8.10803 2.42221,4.95097 4.912633,12.89267 8.376753,25.73744 3.51537,13.03487 5.17053,20.96438 4.95215,25.74158 -0.10919,2.38861 -0.65171,3.94082 -1.58285,5.0953 -0.93114,1.15448 -2.32377,1.97625 -4.32325,2.67942 -3.610237,1.26966 -6.755424,1.23468 -9.807154,-0.11317 -3.051731,-1.34784 -6.042422,-4.07947 -9.059394,-8.35969 L 78.02638,260.13925 H 29.71925 l -5.978446,8.48011 c -3.016972,4.28022 -6.007665,7.01184 -9.059395,8.35969 -3.05173,1.34785 -6.1969164,1.38283 -9.8071536,0.11317 -1.9994779,-0.70317 -3.3921122,-1.52494 -4.32325004,-2.67942 -0.93113793,-1.15448 -1.47366004,-2.70669 -1.58284916,-5.0953 -0.2183782,-4.7772 1.43678275,-12.70671 4.9521525,-25.74158 3.4641046,-12.84477 5.9545426,-20.78646 8.3767493,-25.73744 2.422207,-4.95098 4.629981,-6.86407 7.901843,-8.10803 0.486448,-0.18495 2.015851,-0.46502 4.082439,-0.67128 2.066587,-0.20626 4.734087,-0.37992 7.794871,-0.51935 6.121437,-0.27885 13.820873,-0.42063 21.536155,-0.42375 z"
       id="path828" />
  </g>
</svg>
