<?xml version="1.0" encoding="UTF-8" standalone="no"?>
<!-- Created with Inkscape (http://www.inkscape.org/) -->

<svg
   width="112.67665mm"
   height="79.2976mm"
   viewBox="0 0 112.67665 79.2976"
   version="1.1"
   id="svg5"
   inkscape:version="1.2 (dc2aedaf03, 2022-05-15)"
   sodipodi:docname="VSCView Steam Controller.svg"
   inkscape:export-filename="..\Dark Theme\VSCView - Steam Controller.png"
   inkscape:export-xdpi="32.0079"
   inkscape:export-ydpi="32.0079"
   xmlns:inkscape="http://www.inkscape.org/namespaces/inkscape"
   xmlns:sodipodi="http://sodipodi.sourceforge.net/DTD/sodipodi-0.dtd"
   xmlns="http://www.w3.org/2000/svg"
   xmlns:svg="http://www.w3.org/2000/svg">
  <sodipodi:namedview
     id="namedview7"
     pagecolor="#ffffff"
     bordercolor="#666666"
     borderopacity="1.0"
     inkscape:pageshadow="2"
     inkscape:pageopacity="0.0"
     inkscape:pagecheckerboard="0"
     inkscape:document-units="mm"
     showgrid="false"
     inkscape:zoom="1"
     inkscape:cx="0"
     inkscape:cy="183"
     inkscape:window-width="2560"
     inkscape:window-height="1334"
     inkscape:window-x="-11"
     inkscape:window-y="-11"
     inkscape:window-maximized="1"
     inkscape:current-layer="layer1"
     inkscape:showpageshadow="2"
     inkscape:deskcolor="#d1d1d1" />
  <defs
     id="defs2">
    <inkscape:path-effect
       effect="bspline"
       id="path-effect871"
       is_visible="true"
       lpeversion="1"
       weight="33.333333"
       steps="2"
       helper_size="0"
       apply_no_weight="true"
       apply_with_weight="true"
       only_selected="false" />
  </defs>
  <g
     inkscape:label="Layer 1"
     inkscape:groupmode="layer"
     id="layer1"
     transform="translate(35.647216,-185.0144)">
    <path
       id="path3255"
       style="display:inline;fill:#000000;stroke-width:1"
       d="m 17.504367,185.01606 c -14.346214,0.0518 -27.642411,1.30093 -33.606733,3.51555 -3.888782,1.44395 -4.769728,2.43651 -8.009847,9.02684 -4.001297,8.13856 -7.532366,21.32013 -10.343038,37.61527 -1.934426,11.21502 -1.716603,17.39097 2.161109,22.67407 2.218137,3.02205 8.855597,6.4642 13.280843,6.4642 3.605218,0 3.689123,-0.10374 8.843904,-10.87117 7.1988615,-15.03714 6.7785206,-14.92785 30.541289,-14.9288 0.0048,0 0.415306,-1e-5 0.630457,0 23.777258,0.001 23.354416,-0.11136 30.554724,14.9288 5.154781,10.76743 5.238686,10.87117 8.843904,10.87117 4.425246,0 11.003288,-3.48667 13.280842,-6.4642 3.925483,-5.13193 4.051525,-11.45645 2.161109,-22.67407 -2.747894,-16.30584 -6.341745,-29.47671 -10.343042,-37.61527 -3.240119,-6.59033 -4.121065,-7.58289 -8.009847,-9.02684 -6.361943,-2.36226 -21.065448,-3.62596 -36.487695,-3.50987 -0.205473,0.002 -2.541564,-0.009 -3.497979,-0.006 z"
       sodipodi:nodetypes="sscssssscssssssss" />
    <g
       id="g839"
       style="fill:#ffffff;fill-opacity:1">
      <circle
         style="display:inline;fill:#ffffff;fill-opacity:1;fill-rule:evenodd;stroke:none;stroke-width:2.00001;stroke-miterlimit:9.53846;paint-order:stroke fill markers"
         id="path3836"
         cx="52.826466"
         cy="206.52286"
         r="13.914794" />
      <circle
         style="display:inline;fill:#ffffff;fill-opacity:1;fill-rule:evenodd;stroke:none;stroke-width:2.00001;stroke-miterlimit:9.53846;paint-order:stroke fill markers"
         id="circle3918"
         cx="-11.487915"
         cy="206.52286"
         r="13.914794" />
      <circle
         style="display:inline;fill:#ffffff;fill-opacity:1;fill-rule:evenodd;stroke:none;stroke-width:2;stroke-miterlimit:9.53846;paint-order:stroke fill markers"
         id="path3942"
         cx="7.1851087"
         cy="223.61757"
         r="6.9489365" />
      <circle
         style="display:inline;fill:#ffffff;fill-opacity:1;fill-rule:evenodd;stroke:none;stroke-width:1.99999;stroke-miterlimit:9.53846;paint-order:stroke fill markers"
         id="path4046"
         cx="34.714787"
         cy="216.74309"
         r="3.6524112" />
      <circle
         style="display:inline;fill:#ffffff;fill-opacity:1;fill-rule:evenodd;stroke:none;stroke-width:1.99999;stroke-miterlimit:9.53846;paint-order:stroke fill markers"
         id="circle4128"
         cx="41.533798"
         cy="223.55005"
         r="3.6524112" />
      <circle
         style="display:inline;fill:#ffffff;fill-opacity:1;fill-rule:evenodd;stroke:none;stroke-width:1.99999;stroke-miterlimit:9.53846;paint-order:stroke fill markers"
         id="circle4130"
         cx="34.76001"
         cy="230.48485"
         r="3.6524112" />
      <circle
         style="display:inline;fill:#ffffff;fill-opacity:1;fill-rule:evenodd;stroke:none;stroke-width:1.99999;stroke-miterlimit:9.53846;paint-order:stroke fill markers"
         id="circle4132"
         cx="28.073172"
         cy="223.61162"
         r="3.6524112" />
    </g>
  </g>
</svg>
