<?xml version="1.0" encoding="UTF-8" standalone="no"?>
<!-- Created with Inkscape (http://www.inkscape.org/) -->

<svg
   width="113.513mm"
   height="117.72219mm"
   viewBox="0 0 113.513 117.72219"
   version="1.1"
   id="svg5"
   xml:space="preserve"
   inkscape:version="1.2 (dc2aedaf03, 2022-05-15)"
   sodipodi:docname="VSCView Switch Joy-Con.svg"
   xmlns:inkscape="http://www.inkscape.org/namespaces/inkscape"
   xmlns:sodipodi="http://sodipodi.sourceforge.net/DTD/sodipodi-0.dtd"
   xmlns="http://www.w3.org/2000/svg"
   xmlns:svg="http://www.w3.org/2000/svg"><sodipodi:namedview
     id="namedview7"
     pagecolor="#ffffff"
     bordercolor="#666666"
     borderopacity="1.0"
     inkscape:showpageshadow="2"
     inkscape:pageopacity="0.0"
     inkscape:pagecheckerboard="0"
     inkscape:deskcolor="#d1d1d1"
     inkscape:document-units="mm"
     showgrid="false"
     inkscape:zoom="1"
     inkscape:cx="155"
     inkscape:cy="184"
     inkscape:window-width="2560"
     inkscape:window-height="1334"
     inkscape:window-x="-11"
     inkscape:window-y="-11"
     inkscape:window-maximized="1"
     inkscape:current-layer="svg5" /><defs
     id="defs2" /><g
     id="g4118"
     inkscape:export-filename="..\Dark Theme\VSCView - Switch Joycons.png"
     inkscape:export-xdpi="95.8863"
     inkscape:export-ydpi="95.8863"
     transform="matrix(2.8802665,0,0,2.8802665,-0.14838977,-0.58935581)"><path
       id="path1957"
       style="display:inline;fill:#000000;fill-opacity:1;stroke:none;stroke-width:2.37257;stroke-linecap:round;stroke-linejoin:round;stroke-miterlimit:2"
       d="m 31.561359,0.2046385 c 4.37696,0 7.90075,4.058315 7.90075,9.099689 V 31.976907 c 0,5.04138 -3.52379,9.09969 -7.90075,9.09969 -0.0764,0 -0.15228,-10e-4 -0.22812,-0.004 h -3.88328 c -0.004,3e-5 -0.007,5.2e-4 -0.0103,5.2e-4 h -2.65646 c -0.62201,0 -1.12255,-0.50055 -1.12255,-1.12256 v -0.85675 h -0.0976 c -0.69259,0 -1.25005,-0.55746 -1.25005,-1.25005 V 3.4365735 c 0,-0.692586 0.55746,-1.250555 1.25005,-1.250555 h 0.0976 v -0.856241 c 0,-0.622009 0.50054,-1.122559 1.12255,-1.122559 h 1.63455 1.02191 3.91734 c 0.0679,-0.002 0.136,-0.0026 0.20438,-0.0026 z" /><circle
       style="display:inline;fill:#fdfdfd;fill-opacity:1;stroke:none;stroke-width:8.0524;stroke-linecap:round;stroke-linejoin:round;stroke-miterlimit:2"
       id="path2168-0"
       cx="31.449608"
       cy="21.49057"
       r="2.8623476" /><circle
       style="display:inline;fill:#fdfdfd;fill-opacity:1;stroke:none;stroke-width:3.50156;stroke-linecap:round;stroke-linejoin:round;stroke-miterlimit:2"
       id="path2168"
       cx="27.568127"
       cy="29.803955"
       r="1.2446809" /><circle
       style="display:inline;fill:#fdfdfd;fill-opacity:1;stroke:none;stroke-width:4.34054;stroke-linecap:round;stroke-linejoin:round;stroke-miterlimit:2"
       id="path2168-9"
       cx="31.466133"
       cy="7.0851974"
       r="1.54291" /><circle
       style="display:inline;fill:#fdfdfd;fill-opacity:1;stroke:none;stroke-width:4.34054;stroke-linecap:round;stroke-linejoin:round;stroke-miterlimit:2"
       id="circle2207"
       cx="34.213463"
       cy="9.8234787"
       r="1.54291" /><circle
       style="display:inline;fill:#fdfdfd;fill-opacity:1;stroke:none;stroke-width:4.34054;stroke-linecap:round;stroke-linejoin:round;stroke-miterlimit:2"
       id="circle2209"
       cx="31.484222"
       cy="12.74251"
       r="1.54291" /><circle
       style="display:inline;fill:#fdfdfd;fill-opacity:1;stroke:none;stroke-width:4.34054;stroke-linecap:round;stroke-linejoin:round;stroke-miterlimit:2"
       id="circle2211"
       cx="28.664589"
       cy="9.8325195"
       r="1.54291" /><path
       id="rect2587"
       style="fill:#fdfdfd;fill-opacity:1;stroke:none;stroke-width:2.40241;stroke-linecap:round;stroke-linejoin:round;stroke-miterlimit:2"
       d="m 27.335799,2.1316528 c -0.09604,0 -0.173116,0.067183 -0.173116,0.1503784 v 1.0831381 h -1.083138 c -0.08319,0 -0.150378,0.077079 -0.150378,0.173116 v 0.6991821 c 0,0.096037 0.06718,0.1736328 0.150378,0.1736328 h 1.083138 v 1.0831381 c 0,0.083195 0.07708,0.1498616 0.173116,0.1498616 h 0.699699 c 0.09604,0 0.173116,-0.066666 0.173116,-0.1498616 V 4.4111002 h 1.083138 c 0.0832,0 0.150379,-0.077596 0.150379,-0.1736328 V 3.5382853 c 0,-0.096037 -0.06718,-0.173116 -0.150379,-0.173116 H 28.208614 V 2.2820312 c 0,-0.083195 -0.07708,-0.1503784 -0.173116,-0.1503784 z" /></g><g
     id="g4128"
     inkscape:export-filename="..\Dark Theme\VSCView - Switch Joycon Left - Vertical.png"
     inkscape:export-xdpi="95.8863"
     inkscape:export-ydpi="95.8863"
     transform="matrix(2.8802665,0,0,2.8802665,-0.14838977,-0.58935581)"><path
       id="rect1894"
       style="display:inline;fill:#000000;fill-opacity:1;stroke:none;stroke-width:2.37257;stroke-linecap:round;stroke-linejoin:round;stroke-miterlimit:2"
       d="m 7.9522655,0.2046385 c -4.376954,0 -7.90074604,4.058315 -7.90074604,9.099689 V 31.976907 c 0,5.04138 3.52379204,9.09969 7.90074604,9.09969 0.07637,0 0.152284,-10e-4 0.228125,-0.004 h 3.8832775 c 0.0035,3e-5 0.0068,5.2e-4 0.01032,5.2e-4 h 2.656463 c 0.622009,0 1.122558,-0.50055 1.122558,-1.12256 v -0.85675 h 0.09755 c 0.692587,0 1.250039,-0.55745 1.250039,-1.25005 V 3.4365735 c 0,-0.692586 -0.557452,-1.250555 -1.250039,-1.250555 h -0.09755 v -0.856241 c 0,-0.622009 -0.500549,-1.122559 -1.122558,-1.122559 H 13.095902 12.073988 8.1566465 c -0.06797,-0.002 -0.135992,-0.0026 -0.204383,-0.0026 z" /><rect
       style="display:inline;fill:#fdfdfd;fill-opacity:1;fill-rule:evenodd;stroke:none;stroke-width:0.380391;stroke-linecap:round;stroke-linejoin:round;stroke-miterlimit:4;stroke-dasharray:none;stroke-opacity:1;paint-order:stroke fill markers"
       id="rect7609"
       width="2.467078"
       height="2.4069762"
       x="10.590444"
       y="28.589516"
       rx="0.20701282"
       ry="0.2195036" /><circle
       style="display:inline;fill:#fdfdfd;fill-opacity:1;stroke:none;stroke-width:8.0524;stroke-linecap:round;stroke-linejoin:round;stroke-miterlimit:2"
       id="circle2205"
       cx="8.4588547"
       cy="9.8867493"
       r="2.8623476" /><circle
       style="display:inline;fill:#fdfdfd;fill-opacity:1;stroke:none;stroke-width:4.34054;stroke-linecap:round;stroke-linejoin:round;stroke-miterlimit:2"
       id="circle2525"
       cx="8.1287689"
       cy="18.600512"
       r="1.54291" /><circle
       style="display:inline;fill:#fdfdfd;fill-opacity:1;stroke:none;stroke-width:4.34054;stroke-linecap:round;stroke-linejoin:round;stroke-miterlimit:2"
       id="circle2527"
       cx="10.876099"
       cy="21.338793"
       r="1.54291" /><circle
       style="display:inline;fill:#fdfdfd;fill-opacity:1;stroke:none;stroke-width:4.34054;stroke-linecap:round;stroke-linejoin:round;stroke-miterlimit:2"
       id="circle2529"
       cx="8.1468582"
       cy="24.257824"
       r="1.54291" /><circle
       style="display:inline;fill:#fdfdfd;fill-opacity:1;stroke:none;stroke-width:4.34054;stroke-linecap:round;stroke-linejoin:round;stroke-miterlimit:2"
       id="circle2531"
       cx="5.3272247"
       cy="21.347834"
       r="1.54291" /><rect
       style="fill:#fdfdfd;fill-opacity:1;stroke:none;stroke-width:2.38501;stroke-linecap:round;stroke-linejoin:round;stroke-miterlimit:2"
       id="rect3315"
       width="1.0189286"
       height="3.5539165"
       x="3.4281511"
       y="-13.473204"
       rx="0.16886356"
       ry="0.15193942"
       transform="rotate(90)" /></g></svg>
