<?xml version="1.0" encoding="UTF-8" standalone="no"?>
<!-- Created with Inkscape (http://www.inkscape.org/) -->

<svg
   width="120.17343mm"
   height="77.592148mm"
   viewBox="0 0 120.17343 77.592145"
   version="1.1"
   id="svg5"
   inkscape:version="1.2 (dc2aedaf03, 2022-05-15)"
   sodipodi:docname="VSCView Steam Controller Chell.svg"
   inkscape:export-filename="..\Dark Theme\VSCView - Steam Controller Chell.png"
   inkscape:export-xdpi="32.0079"
   inkscape:export-ydpi="32.0079"
   xmlns:inkscape="http://www.inkscape.org/namespaces/inkscape"
   xmlns:sodipodi="http://sodipodi.sourceforge.net/DTD/sodipodi-0.dtd"
   xmlns="http://www.w3.org/2000/svg"
   xmlns:svg="http://www.w3.org/2000/svg">
  <sodipodi:namedview
     id="namedview7"
     pagecolor="#ffffff"
     bordercolor="#666666"
     borderopacity="1.0"
     inkscape:pageshadow="2"
     inkscape:pageopacity="0.0"
     inkscape:pagecheckerboard="0"
     inkscape:document-units="mm"
     showgrid="false"
     inkscape:zoom="2.8284271"
     inkscape:cx="253.49778"
     inkscape:cy="125.1579"
     inkscape:window-width="2560"
     inkscape:window-height="1334"
     inkscape:window-x="-11"
     inkscape:window-y="-11"
     inkscape:window-maximized="1"
     inkscape:current-layer="layer1"
     inkscape:showpageshadow="2"
     inkscape:deskcolor="#d1d1d1" />
  <defs
     id="defs2">
    <inkscape:path-effect
       effect="bspline"
       id="path-effect871"
       is_visible="true"
       lpeversion="1"
       weight="33.333333"
       steps="2"
       helper_size="0"
       apply_no_weight="true"
       apply_with_weight="true"
       only_selected="false" />
  </defs>
  <g
     inkscape:label="Layer 1"
     inkscape:groupmode="layer"
     id="layer1"
     transform="translate(39.775709,-186.52025)">
    <path
       id="path3255"
       style="display:inline;fill:#000000;stroke-width:1"
       d="m -19.062762,188.24023 c -4.147516,1.44663 -4.954783,2.84849 -8.410479,9.4511 -4.267517,8.15371 -8.033521,21.35983 -11.031197,37.6853 -2.06313,11.23591 -1.830815,17.42335 2.304895,22.71629 2.365717,3.02768 11.108305,6.01948 15.661174,6.01948 3.709191,0 3.795518,-0.10026 9.098961,-10.50649 7.4064756,-14.53271 6.9740122,-14.42706 31.422095,-14.428 0.0049,0 0.427285,-1e-5 0.64864,0 24.46299,9.5e-4 24.027953,-0.10762 31.435916,14.428 5.303446,10.40623 5.389771,10.50649 9.098962,10.50649 4.55287,0 13.232085,-3.0364 15.661174,-6.01948 4.186658,-5.14148 4.321087,-11.47777 2.304894,-22.71629 -2.93072,-16.3362 -6.763684,-29.53159 -11.031201,-37.6853 -3.455695,-6.60261 -4.527545,-8.00447 -8.675062,-9.4511 -6.785227,-2.36666 -72.127622,-2.21875 -78.488772,0 z"
       sodipodi:nodetypes="scssssscsssssss" />
    <g
       id="g1028"
       transform="translate(0.07594219,1.3871153)"
       style="display:inline">
      <g
         id="g1004"
         style="display:inline;fill:#ffffff;fill-opacity:1">
        <rect
           style="fill:#ffffff;fill-opacity:1;fill-rule:evenodd;stroke:none;stroke-width:1.3;stroke-linecap:round;stroke-linejoin:round;stroke-miterlimit:9.53846;stroke-dasharray:none;stroke-opacity:1;paint-order:normal"
           id="rect14155"
           width="24.795465"
           height="3.5501881"
           x="8.1190882"
           y="225.41187"
           rx="0.2668781"
           ry="0.2668781" />
        <rect
           style="fill:#ffffff;fill-opacity:1;fill-rule:evenodd;stroke:none;stroke-width:1.3;stroke-linecap:round;stroke-linejoin:round;stroke-miterlimit:9.53846;stroke-dasharray:none;stroke-opacity:1;paint-order:normal"
           id="rect14358"
           width="7.3333263"
           height="3.5501881"
           x="-1.0080405"
           y="225.41187"
           rx="0.2668781"
           ry="0.2668781" />
        <rect
           style="fill:#ffffff;fill-opacity:1;fill-rule:evenodd;stroke:none;stroke-width:1.3;stroke-linecap:round;stroke-linejoin:round;stroke-miterlimit:9.53846;stroke-dasharray:none;stroke-opacity:1;paint-order:normal"
           id="rect14442"
           width="7.3333263"
           height="3.5501881"
           x="34.632336"
           y="225.41187"
           rx="0.2668781"
           ry="0.2668781" />
      </g>
      <g
         id="g993"
         style="display:inline;fill:#ffffff;fill-opacity:1">
        <path
           id="path14975"
           style="color:#000000;display:inline;fill:#ffffff;fill-opacity:1;fill-rule:evenodd;stroke-width:1.3;stroke-linecap:round;stroke-linejoin:round;stroke-miterlimit:9.53846;-inkscape-stroke:none"
           d="m -1.0604978,192.36704 a 0.65006497,0.65006497 0 0 0 -0.3689694,1.18391 c 2.09416651,1.45437 3.8814851,3.33148 5.1991657,6.3438 a 0.65006497,0.65006497 0 0 0 1.2438512,-0.25787 l 0.035142,-6.61717 a 0.65006497,0.65006497 0 0 0 -0.6500891,-0.65267 z" />
        <path
           id="path15003"
           style="color:#000000;display:inline;fill:#ffffff;fill-opacity:1;fill-rule:evenodd;stroke-width:1.3;stroke-linecap:round;stroke-linejoin:round;stroke-miterlimit:9.53846;-inkscape-stroke:none"
           d="m 4.3861988,212.44023 a 0.65006497,0.65006497 0 0 0 -0.6165003,0.38964 c -1.3176779,3.01232 -3.10499919,4.88789 -5.1991657,6.34225 a 0.65006497,0.65006497 0 0 0 0.3689694,1.18339 h 5.4591003 a 0.65006497,0.65006497 0 0 0 0.6500891,-0.65215 l -0.035142,-6.61717 a 0.65006497,0.65006497 0 0 0 -0.517279,-0.63304 0.65006497,0.65006497 0 0 0 -0.1100719,-0.0129 z" />
        <path
           id="path14901"
           style="color:#000000;display:inline;fill:#ffffff;fill-opacity:1;fill-rule:evenodd;stroke-width:1.3;stroke-linecap:round;stroke-linejoin:round;stroke-miterlimit:9.53846;-inkscape-stroke:none"
           d="m 36.138782,192.36704 a 0.65006497,0.65006497 0 0 0 -0.650606,0.65267 l 0.03307,6.61717 a 0.65006497,0.65006497 0 0 0 1.246435,0.25787 c 1.31768,-3.01232 3.104999,-4.88943 5.199166,-6.3438 a 0.65006497,0.65006497 0 0 0 -0.371037,-1.18391 z" />
        <path
           id="path14947"
           style="color:#000000;display:inline;fill:#ffffff;fill-opacity:1;fill-rule:evenodd;stroke-width:1.3;stroke-linecap:round;stroke-linejoin:round;stroke-miterlimit:9.53846;-inkscape-stroke:none"
           d="m 36.150668,212.32293 a 0.65006497,0.65006497 0 0 0 -0.109554,0.0129 0.65006497,0.65006497 0 0 0 -0.519865,0.6351 l -0.03307,6.6151 a 0.65006497,0.65006497 0 0 0 0.650606,0.65422 h 5.457031 a 0.65006497,0.65006497 0 0 0 0.371037,-1.18545 c -2.094166,-1.45437 -3.881486,-3.32942 -5.199166,-6.34174 a 0.65006497,0.65006497 0 0 0 -0.617016,-0.39015 z" />
      </g>
      <g
         id="g999"
         style="display:inline;fill:#ffffff;fill-opacity:1">
        <rect
           style="display:inline;fill:#ffffff;fill-opacity:1;fill-rule:evenodd;stroke:none;stroke-width:2;stroke-miterlimit:9.53846;paint-order:stroke fill markers"
           id="rect6547"
           width="13.240502"
           height="13.408056"
           x="6.4947124"
           y="192.58763"
           rx="0.2875337"
           ry="0.2875337" />
        <rect
           style="display:inline;fill:#ffffff;fill-opacity:1;fill-rule:evenodd;stroke:none;stroke-width:2;stroke-miterlimit:9.53846;paint-order:stroke fill markers"
           id="rect14047"
           width="13.240502"
           height="13.408056"
           x="20.592939"
           y="192.58763"
           rx="0.2875337"
           ry="0.2875337" />
        <rect
           style="display:inline;fill:#ffffff;fill-opacity:1;fill-rule:evenodd;stroke:none;stroke-width:2;stroke-miterlimit:9.53846;paint-order:stroke fill markers"
           id="rect14129"
           width="13.240502"
           height="13.408056"
           x="6.4947124"
           y="206.6151"
           rx="0.2875337"
           ry="0.2875337" />
        <rect
           style="display:inline;fill:#ffffff;fill-opacity:1;fill-rule:evenodd;stroke:none;stroke-width:2;stroke-miterlimit:9.53846;paint-order:stroke fill markers"
           id="rect14131"
           width="13.240502"
           height="13.408056"
           x="20.592939"
           y="206.6151"
           rx="0.2875337"
           ry="0.2875337" />
      </g>
      <g
         id="g982"
         style="display:inline"
         inkscape:label="Right Touchpad">
        <circle
           style="display:inline;fill:#ffffff;fill-opacity:1;fill-rule:evenodd;stroke:none;stroke-width:2.00001;stroke-miterlimit:9.53846;paint-order:stroke fill markers"
           id="path3836"
           cx="51.654205"
           cy="206.52286"
           r="14.773867" />
        <circle
           style="display:inline;fill:none;fill-opacity:1;fill-rule:evenodd;stroke:#000000;stroke-width:0.45;stroke-linecap:round;stroke-linejoin:round;stroke-miterlimit:9.53846;stroke-dasharray:none;stroke-opacity:1;paint-order:normal"
           id="path14466-9"
           cx="51.654205"
           cy="206.52286"
           r="11.562663" />
        <circle
           style="display:inline;fill:none;fill-opacity:1;fill-rule:evenodd;stroke:#000000;stroke-width:0.45;stroke-linecap:round;stroke-linejoin:round;stroke-miterlimit:9.53846;stroke-dasharray:none;stroke-opacity:1;paint-order:normal"
           id="circle14592-6"
           cx="51.654205"
           cy="206.52286"
           r="4.8689227" />
      </g>
      <g
         id="g987"
         style="display:inline"
         inkscape:label="Left Touchpad">
        <circle
           style="display:inline;fill:#ffffff;fill-opacity:1;fill-rule:evenodd;stroke:none;stroke-width:2.00001;stroke-miterlimit:9.53846;paint-order:stroke fill markers"
           id="circle6523"
           cx="-11.184076"
           cy="206.52286"
           r="14.773867" />
        <circle
           style="display:inline;fill:none;fill-opacity:1;fill-rule:evenodd;stroke:#000000;stroke-width:0.45;stroke-linecap:round;stroke-linejoin:round;stroke-miterlimit:9.53846;stroke-dasharray:none;stroke-opacity:1;paint-order:normal"
           id="path14466"
           cx="-11.184076"
           cy="206.52286"
           r="11.562663" />
        <circle
           style="display:inline;fill:none;fill-opacity:1;fill-rule:evenodd;stroke:#000000;stroke-width:0.45;stroke-linecap:round;stroke-linejoin:round;stroke-miterlimit:9.53846;stroke-dasharray:none;stroke-opacity:1;paint-order:normal"
           id="circle14592"
           cx="-11.184076"
           cy="206.52286"
           r="4.8689227" />
      </g>
    </g>
  </g>
</svg>
