<?xml version="1.0" encoding="UTF-8" standalone="no"?>
<!-- Created with Inkscape (http://www.inkscape.org/) -->

<svg
   width="113.51276mm"
   height="74.808189mm"
   viewBox="0 0 113.51278 74.80819"
   version="1.1"
   id="svg5"
   inkscape:version="1.2 (dc2aedaf03, 2022-05-15)"
   sodipodi:docname="VSCView DualSense Controller.svg"
   inkscape:export-filename="..\Dark Theme\VSCView - DualSense.png"
   inkscape:export-xdpi="32.0079"
   inkscape:export-ydpi="32.0079"
   xmlns:inkscape="http://www.inkscape.org/namespaces/inkscape"
   xmlns:sodipodi="http://sodipodi.sourceforge.net/DTD/sodipodi-0.dtd"
   xmlns="http://www.w3.org/2000/svg"
   xmlns:svg="http://www.w3.org/2000/svg">
  <sodipodi:namedview
     id="namedview7"
     pagecolor="#ffffff"
     bordercolor="#666666"
     borderopacity="1.0"
     inkscape:pageshadow="2"
     inkscape:pageopacity="0.0"
     inkscape:pagecheckerboard="0"
     inkscape:document-units="mm"
     showgrid="false"
     inkscape:zoom="1.3466154"
     inkscape:cx="414.97213"
     inkscape:cy="139.44675"
     inkscape:window-width="2560"
     inkscape:window-height="1334"
     inkscape:window-x="-11"
     inkscape:window-y="-11"
     inkscape:window-maximized="1"
     inkscape:current-layer="layer1"
     inkscape:rotation="-1"
     inkscape:showpageshadow="2"
     inkscape:deskcolor="#d1d1d1" />
  <defs
     id="defs2">
    <inkscape:path-effect
       effect="bspline"
       id="path-effect1256"
       is_visible="true"
       lpeversion="1"
       weight="33.333333"
       steps="2"
       helper_size="0"
       apply_no_weight="true"
       apply_with_weight="true"
       only_selected="false" />
    <inkscape:path-effect
       effect="bspline"
       id="path-effect1250"
       is_visible="true"
       lpeversion="1"
       weight="33.333333"
       steps="2"
       helper_size="0"
       apply_no_weight="true"
       apply_with_weight="true"
       only_selected="false" />
    <inkscape:path-effect
       effect="bspline"
       id="path-effect9017"
       is_visible="true"
       lpeversion="1"
       weight="33.333333"
       steps="2"
       helper_size="0"
       apply_no_weight="true"
       apply_with_weight="true"
       only_selected="false" />
    <inkscape:path-effect
       effect="bspline"
       id="path-effect5029"
       is_visible="true"
       lpeversion="1"
       weight="33.333333"
       steps="2"
       helper_size="0"
       apply_no_weight="true"
       apply_with_weight="true"
       only_selected="false" />
    <inkscape:path-effect
       effect="bspline"
       id="path-effect4882"
       is_visible="true"
       lpeversion="1"
       weight="33.333333"
       steps="2"
       helper_size="0"
       apply_no_weight="true"
       apply_with_weight="true"
       only_selected="false" />
    <inkscape:path-effect
       effect="bspline"
       id="path-effect3891"
       is_visible="true"
       lpeversion="1"
       weight="33.333333"
       steps="2"
       helper_size="0"
       apply_no_weight="true"
       apply_with_weight="true"
       only_selected="false" />
    <inkscape:path-effect
       effect="bspline"
       id="path-effect2761"
       is_visible="true"
       lpeversion="1"
       weight="33.333333"
       steps="2"
       helper_size="0"
       apply_no_weight="true"
       apply_with_weight="true"
       only_selected="false" />
  </defs>
  <g
     inkscape:label="Layer 1"
     inkscape:groupmode="layer"
     id="layer1"
     transform="translate(-70.488864,-266.88482)">
    <g
       id="g7696"
       style="display:inline;fill:#000000;fill-opacity:1">
      <path
         id="path2779"
         style="color:#000000;display:inline;fill:#ffffff;fill-opacity:1;stroke-width:0.999999;-inkscape-stroke:none"
         transform="matrix(0.26458333,0,0,0.26458333,70.48901,266.88501)"
         d="m 124.72266,46.53125 c 1.28575,7.717417 2.09734,13.52454 2.64843,18.224609 0.55113,4.70075 0.81871,7.981905 0.44336,12.646485 -0.3753,4.664466 -1.45455,10.683651 -3.28906,15.449218 -1.83451,4.765645 -4.51477,8.747748 -7.78125,12.968748 -7.72608,9.98378 -25.357027,16.14223 -38.728182,37.38768 -25.951339,41.23413 -50.44366,105.59883 -57.55129,128.90804 -2.777629,9.10913 27.656797,10.55462 27.656797,10.55462 0,0 31.826277,-106.69172 57.314175,-139.57104 4.73009,-6.10181 9.37475,-11.37259 14.39453,-17.12695 5.01948,-5.75392 149.91743,-19.63125 150.88476,-19.93164 1.93576,-0.60137 4.44852,-1.62005 6.48633,-2.53125 2.03815,-0.91132 3.8124,-1.86365 5.63281,-3.34375 h 0.002 c 1.52961,-1.243813 3.1671,-2.999783 4.66992,-5.093754 1.23061,3.744831 57.77387,81.073114 61.51367,89.187504 3.74007,8.11483 7.55531,17.75145 11.58985,29.66211 4.03459,11.91079 5.70802,57.63132 10.55605,62.12678 3.22561,2.99103 3.91701,5.6695 8.76601,6.44363 6.06679,0.96856 17.4489,-1.06053 22.09021,-3.56295 2.80781,-1.51386 -46.29692,-121.57104 -50.74821,-125.66372 -4.42519,-4.06868 -49.6872,-71.19881 -50.0625,-75.863276 -0.37531,-4.66458 6.20583,-64.756885 6.17977,-64.581602 -0.15864,0.08508 -20.10702,-3.3067378 -24.65519,-3.6552735 -54.06093,-4.1428013 -110.28962,-2.2331101 -139.95071,0.3633788 -6.11532,0.5353257 -17.23207,2.5008277 -21.29659,3.3293687 -6.73275,1.372453 3.00797,32.314607 3.23431,33.673034 z"
         sodipodi:nodetypes="cccsssscsccscccssssssscsssc" />
      <path
         style="color:#000000;display:inline;opacity:1;stroke-width:2.065;-inkscape-stroke:none"
         d="m 95.990812,266.88656 c -0.621659,0.008 -1.30974,0.0441 -2.012797,0.12196 -1.406114,0.15578 -2.873164,0.47909 -4.157885,0.88263 -1.284723,0.40355 -2.386763,0.88711 -3.153813,1.25935 -0.76705,0.37225 -1.199263,0.63311 -1.458309,0.86558 -0.259045,0.23247 -0.345376,0.43641 -0.383956,0.78859 -0.03857,0.35217 -0.02958,0.85237 -0.06563,1.20613 -0.03605,0.35375 -0.11634,0.55941 -0.21239,0.69763 -0.09604,0.13823 -0.206343,0.20704 -0.492993,0.37879 -0.286649,0.17176 -0.747941,0.44506 -1.322917,0.85162 -0.574976,0.40657 -1.262019,0.94563 -2.223637,2.91972 -0.961618,1.97409 -2.197653,5.38279 -3.397725,9.1457 -1.200073,3.76291 -2.364206,7.87963 -3.287138,11.57758 -0.922932,3.69794 -1.604799,6.97706 -2.140954,9.78545 -0.536155,2.80839 -0.92676,5.14584 -1.09244,7.30343 -0.165679,2.1576 -0.106657,4.1355 0.04858,6.71484 0.155233,2.57934 0.406567,5.75973 0.806669,8.07237 0.400102,2.31264 0.948884,3.75632 1.443322,4.93303 0.494439,1.17673 0.934314,2.08551 1.346688,2.93161 0.412374,0.84609 0.79682,1.62927 1.511536,2.30219 0.714716,0.67291 1.759152,1.23478 2.628263,1.24488 0.869111,0.0101 1.562438,-0.53229 1.943551,-1.01234 0.381113,-0.48004 0.449449,-0.89754 0.553971,-1.70739 0.104523,-0.80985 0.245089,-2.01183 0.628385,-3.92121 0.383298,-1.90937 1.009136,-4.52491 2.069125,-7.68532 1.059988,-3.16041 2.55406,-6.86561 3.63337,-9.41958 1.07931,-2.55397 1.74383,-3.95679 2.441194,-5.27151 0.697364,-1.31473 1.427694,-2.54089 2.282548,-3.85144 0.854854,-1.31054 1.834178,-2.70531 2.645317,-3.79667 0.811139,-1.09136 1.453756,-1.87948 2.228804,-2.70165 0.775048,-0.82216 1.68268,-1.67827 2.61948,-2.68407 0.936799,-1.0058 1.902809,-2.16082 2.779149,-3.30833 0.87634,-1.14749 1.66302,-2.28713 2.20194,-3.68711 0.53892,-1.39997 0.83,-3.06021 0.93586,-4.37596 0.10587,-1.31575 0.0266,-2.28694 -0.12144,-3.54914 -0.14799,-1.2622 -0.36502,-2.81569 -0.70745,-4.87102 -0.34244,-2.05533 -0.81044,-4.61267 -1.06454,-6.08593 -0.2541,-1.47326 -0.29419,-1.86199 -0.31419,-2.05672 -0.0195,-0.19478 -0.0194,-0.19517 -0.0284,-0.26717 -0.009,-0.072 -0.026,-0.21567 -0.14935,-0.28577 -0.12339,-0.07 -0.35245,-0.0664 -0.72398,-0.0574 -0.37153,0.009 -0.88436,0.0218 -1.2423,-0.1111 -0.35795,-0.13294 -0.5594,-0.41158 -0.72037,-0.81081 -0.16096,-0.39924 -0.280892,-0.91816 -0.434083,-1.28829 -0.153188,-0.37013 -0.339542,-0.59131 -0.637685,-0.7643 -0.298146,-0.17299 -0.70792,-0.29798 -1.585434,-0.36638 -0.438759,-0.0342 -0.994264,-0.0544 -1.615923,-0.0465 z m 62.509358,0 c -0.62165,-0.008 -1.17716,0.0123 -1.61592,0.0465 -0.87752,0.0684 -1.28781,0.19339 -1.58595,0.36638 -0.29814,0.17299 -0.48398,0.39417 -0.63717,0.7643 -0.15319,0.37013 -0.27364,0.88905 -0.4346,1.28829 -0.16097,0.39923 -0.3619,0.67787 -0.71985,0.81081 -0.35794,0.13295 -0.87077,0.11982 -1.2423,0.1111 -0.37153,-0.009 -0.60111,-0.0126 -0.72451,0.0574 -0.12339,0.0701 -0.1407,0.21381 -0.14934,0.28577 -0.009,0.072 -0.009,0.0724 -0.0284,0.26717 -0.02,0.19473 -0.0596,0.58346 -0.31368,2.05672 -0.2541,1.47326 -0.72261,4.03059 -1.06505,6.08593 -0.34243,2.05533 -0.55894,3.60882 -0.70693,4.87102 -0.14799,1.2622 -0.22731,2.23339 -0.12144,3.54914 0.10586,1.31575 0.39694,2.97599 0.93586,4.37596 0.53892,1.39998 1.3256,2.53962 2.20193,3.68711 0.87634,1.14751 1.84184,2.30253 2.77864,3.30833 0.9368,1.0058 1.84443,1.86191 2.61948,2.68407 0.77505,0.82217 1.41766,1.61029 2.22881,2.70165 0.81114,1.09135 1.79098,2.48613 2.64583,3.79667 0.85486,1.31055 1.58467,2.53671 2.28203,3.85144 0.69737,1.31472 1.3624,2.71754 2.44171,5.27151 1.07931,2.55397 2.57287,6.25917 3.63285,9.41958 1.06,3.1604 1.68635,5.77595 2.06965,7.68532 0.3833,1.90938 0.52334,3.11136 0.62787,3.92121 0.10451,0.80985 0.17337,1.22735 0.55448,1.70739 0.38112,0.48005 1.07444,1.02244 1.94355,1.01234 0.86911,-0.0101 1.91304,-0.57197 2.62775,-1.24488 0.71471,-0.67292 1.09915,-1.4561 1.51153,-2.30219 0.41238,-0.8461 0.85225,-1.75488 1.34669,-2.93161 0.49444,-1.17671 1.04323,-2.62039 1.44333,-4.93303 0.40009,-2.31264 0.65143,-5.49303 0.80666,-8.07237 0.15524,-2.57934 0.21425,-4.55724 0.0486,-6.71484 -0.16568,-2.15759 -0.55628,-4.49504 -1.09244,-7.30343 -0.53615,-2.80839 -1.21751,-6.08751 -2.14044,-9.78545 -0.92293,-3.69795 -2.08706,-7.81467 -3.28713,-11.57758 -1.20007,-3.76291 -2.43611,-7.17161 -3.39773,-9.1457 -0.96162,-1.9741 -1.64917,-2.51315 -2.22415,-2.91972 -0.57498,-0.40656 -1.03627,-0.67986 -1.32292,-0.85162 -0.28665,-0.17175 -0.39643,-0.24055 -0.49248,-0.37879 -0.0961,-0.13823 -0.17685,-0.34387 -0.2129,-0.69763 -0.0361,-0.35376 -0.027,-0.85396 -0.0656,-1.20613 -0.0386,-0.35218 -0.12492,-0.55612 -0.38396,-0.78859 -0.25905,-0.23247 -0.69074,-0.49334 -1.45779,-0.86558 -0.76705,-0.37224 -1.86909,-0.8558 -3.15381,-1.25935 -1.28473,-0.40354 -2.75229,-0.72685 -4.15841,-0.88263 -0.70305,-0.0779 -1.39062,-0.11406 -2.01228,-0.12196 z m -31.15106,1.68155 c -3.64016,0 -11.42371,0.16809 -16.81655,0.62012 l -0.2806,0.0222 c -0.94331,0.0742 -2.36846,0.18507 -2.97656,0.36845 l -0.006,10e-4 v 10e-4 c -1.80809,0.43924 -2.34921,1.62705 -1.9296,4.23436 0.0213,0.0947 2.22004,10.07218 2.95692,13.81725 0.26271,1.26314 0.86444,2.34422 1.69344,3.04529 1.2222,1.032 2.48169,1.53479 3.85145,1.53479 l 26.41182,-0.0196 c 2.3736,0 3.3226,-0.81113 4.16099,-1.52755 0.91175,-0.7787 1.45239,-2.00793 1.65623,-2.8975 l 2.61689,-12.25197 c 0.0452,-0.22431 0.0949,-0.444 0.14521,-0.66404 0.16633,-0.73435 0.33819,-1.49434 0.35708,-2.46238 0.0315,-1.60003 -0.57146,-2.43929 -2.01796,-2.80861 v -10e-4 c -0.63541,-0.18508 -2.04455,-0.29505 -2.98018,-0.36845 l -0.2806,-0.0222 v -0.001 c -4.9374,-0.42132 -12.22531,-0.64492 -16.56229,-0.62012 z m 19.71765,20.54913 c -0.004,-9.7e-4 -0.009,-3.7e-4 -0.0145,0.003 -0.0414,0.0249 -0.10661,0.20675 -0.28629,0.6599 -0.17969,0.45314 -0.47366,0.8097 -0.85111,1.40767 -0.37742,0.59796 -0.83886,1.06956 -1.24385,1.39888 -0.40504,0.32932 -0.75377,0.51635 -1.26091,0.74311 -0.50713,0.22676 -1.17235,0.49318 -1.60093,0.62632 -0.4286,0.13312 -0.62093,0.13332 -5.17953,0.13332 -1.78969,0 -4.50698,-0.002 -7.12308,-0.003 v -5.2e-4 c -0.53917,2e-5 -0.99379,-1.2e-4 -1.44849,0 -0.27498,-8e-5 -0.4627,6e-5 -0.73794,0 v 5.2e-4 c -0.0731,3e-5 -0.14973,0 -0.22479,0 v -5.2e-4 c -3.47227,7.9e-4 -6.97093,0.003 -9.31003,0.003 -4.5586,0 -4.75095,-1.8e-4 -5.17953,-0.13333 -0.42859,-0.13313 -1.09329,-0.39955 -1.60042,-0.62631 -0.50713,-0.22678 -0.85639,-0.41378 -1.26142,-0.74311 -0.405,-0.32931 -0.86589,-0.80091 -1.24333,-1.39888 -0.37744,-0.59796 -0.67143,-0.95453 -0.85111,-1.40767 -0.17968,-0.45314 -0.24492,-0.63506 -0.28629,-0.6599 -0.0414,-0.0249 -0.0586,0.10708 -0.0672,0.17311 -0.008,0.066 -0.008,0.0662 -0.0289,0.40308 v 5.3e-4 c -0.0204,0.33692 -0.0612,1.01098 -0.34417,1.91047 -0.28284,0.8995 -0.80785,2.02492 -1.7818,3.40186 -0.97395,1.37694 -2.39683,3.00499 -3.72535,4.52789 -1.3285,1.52291 -2.562555,2.93993 -3.842662,4.57285 -1.280105,1.63294 -2.606171,3.48146 -3.766694,5.30045 -1.160524,1.81899 -2.155192,3.60859 -3.163114,5.79552 -1.007922,2.18688 -2.029144,4.77106 -3.105754,7.94938 -1.07661,3.17833 -2.208748,6.95086 -3.0887,9.95236 -0.879951,3.00151 -1.507766,5.23163 -1.83348,6.46369 -0.325715,1.23204 -0.349559,1.46553 -0.244946,1.67225 0.104613,0.20671 0.337434,0.38725 0.713651,0.42788 0.376218,0.0406 0.89576,-0.0583 1.454175,-0.35502 0.558412,-0.29682 1.155413,-0.79219 1.822111,-1.69808 0.666697,-0.90588 1.403491,-2.22236 2.548165,-4.65656 1.144673,-2.43423 2.697749,-5.98544 3.774963,-8.46771 1.077212,-2.48226 1.678633,-3.89487 2.119767,-4.83536 0.441138,-0.94047 0.721873,-1.40872 1.251604,-1.97404 0.529732,-0.56532 1.308244,-1.22799 2.044836,-1.75441 0.736593,-0.52644 1.430801,-0.91652 1.86862,-1.15291 0.437818,-0.23638 1.150718,-0.40152 9.488828,-0.40152 4.24261,0 10.6549,0.005 17.00413,0.006 v 5.3e-4 c 1.13673,6e-5 1.91023,-7e-5 3.04529,0 v -0.002 c 5.7515,-0.002 11.59662,-0.005 15.45177,-0.005 8.33811,0 9.05049,0.16514 9.48831,0.40153 0.43781,0.2364 1.13203,0.62647 1.86862,1.1529 0.73659,0.52644 1.5151,1.18908 2.04484,1.75441 0.52973,0.5653 0.81098,1.03358 1.25212,1.97404 0.44112,0.94049 1.04255,2.3531 2.11976,4.83537 1.07722,2.48224 2.62977,6.03349 3.77445,8.4677 1.14467,2.4342 1.88146,3.75067 2.54816,4.65656 0.6667,0.90589 1.26371,1.40126 1.82211,1.69809 0.55843,0.29679 1.07849,0.39569 1.4547,0.35502 0.37622,-0.0407 0.60853,-0.22117 0.71313,-0.42789 0.10461,-0.20672 0.0808,-0.4402 -0.24494,-1.67224 -0.32573,-1.23205 -0.95353,-3.46219 -1.83349,-6.46369 -0.87993,-3.00151 -2.01158,-6.77405 -3.08818,-9.95237 -1.07661,-3.17833 -2.09835,-5.76196 -3.10627,-7.94886 -1.00793,-2.18693 -2.0026,-3.97704 -3.16311,-5.79603 -1.16055,-1.81899 -2.48659,-3.66752 -3.7667,-5.30046 -1.2801,-1.63291 -2.51364,-3.04995 -3.84214,-4.57284 -1.32852,-1.52292 -2.75191,-3.15095 -3.72587,-4.52789 -0.97394,-1.37692 -1.49895,-2.50238 -1.7818,-3.40186 -0.2829,-0.89949 -0.3237,-1.57357 -0.34417,-1.91048 v -5.3e-4 c -0.0206,-0.33687 -0.0202,-0.33653 -0.0284,-0.40256 -0.007,-0.0576 -0.0218,-0.16558 -0.0527,-0.1757 z"
         id="path2777" />
    </g>
    <g
       id="g1729"
       style="display:inline;fill:#ffffff;fill-opacity:1">
      <circle
         style="display:inline;fill:#ffffff;fill-opacity:1;fill-rule:evenodd;stroke-width:2;stroke-miterlimit:9.53846;paint-order:stroke fill markers"
         id="path914"
         cx="162.66176"
         cy="295.2731"
         r="3.7331173" />
      <circle
         style="display:inline;fill:#ffffff;fill-opacity:1;fill-rule:evenodd;stroke-width:2;stroke-miterlimit:9.53846;paint-order:stroke fill markers"
         id="circle1134"
         cx="169.7775"
         cy="288.3364"
         r="3.7331173" />
      <circle
         style="display:inline;fill:#ffffff;fill-opacity:1;fill-rule:evenodd;stroke-width:2;stroke-miterlimit:9.53846;paint-order:stroke fill markers"
         id="circle1136"
         cx="162.71472"
         cy="280.85391"
         r="3.7331173" />
      <circle
         style="display:inline;fill:#ffffff;fill-opacity:1;fill-rule:evenodd;stroke-width:2;stroke-miterlimit:9.53846;paint-order:stroke fill markers"
         id="circle1138"
         cx="155.63554"
         cy="288.20401"
         r="3.7331173" />
      <path
         style="display:inline;fill:#ffffff;fill-opacity:1;fill-rule:nonzero;stroke:none;stroke-width:1.25473"
         d="m 101.22819,288.98845 c 0,1.25891 -0.20129,2.31652 -0.69298,2.8445 -0.44053,0.47354 -0.892615,0.58903 -1.407395,0.53623 -0.51313,-0.0528 -3.12829,-0.26234 -3.12829,-0.26234 0,0 -0.48344,-0.0957 -0.82993,-0.38938 -0.25904,-0.22109 -1.88918,-1.83639 -1.88918,-1.83639 0,0 -0.35639,-0.33659 -0.35639,-0.89262 0,-0.55603 0.35639,-0.89262 0.35639,-0.89262 0,0 1.63014,-1.61695 1.88918,-1.83804 0.34649,-0.29369 0.82993,-0.38774 0.82993,-0.38774 0,0 2.61516,-0.21119 3.12829,-0.26234 0.51478,-0.0528 0.966865,0.0627 1.407395,0.53458 0.49169,0.52799 0.69298,1.5856 0.69298,2.84616"
         id="path1620" />
      <path
         style="display:inline;fill:#ffffff;fill-opacity:1;fill-rule:nonzero;stroke:none;stroke-width:1.25473"
         d="m 81.861315,288.98845 c 0,1.25891 0.20129,2.31652 0.69297,2.8445 0.44054,0.47354 0.89262,0.58903 1.40741,0.53623 0.51313,-0.0528 3.12829,-0.26234 3.12829,-0.26234 0,0 0.48344,-0.0957 0.82993,-0.38938 0.25904,-0.22109 1.88918,-1.83639 1.88918,-1.83639 0,0 0.35639,-0.33659 0.35639,-0.89262 0,-0.55603 -0.35639,-0.89262 -0.35639,-0.89262 0,0 -1.63014,-1.61695 -1.88918,-1.83804 -0.34649,-0.29369 -0.82993,-0.38774 -0.82993,-0.38774 0,0 -2.61516,-0.21119 -3.12829,-0.26234 -0.51479,-0.0528 -0.96687,0.0627 -1.40741,0.53458 -0.49168,0.52799 -0.69297,1.5856 -0.69297,2.84616"
         id="path1635" />
      <path
         style="display:inline;fill:#ffffff;fill-opacity:1;fill-rule:nonzero;stroke:none;stroke-width:1.25473"
         d="m 91.655655,298.46643 c -1.25891,0 -2.31652,-0.20129 -2.8445,-0.69298 -0.47354,-0.44053 -0.58903,-0.89262 -0.53623,-1.4074 0.0528,-0.51313 0.26234,-3.12829 0.26234,-3.12829 0,0 0.0957,-0.48344 0.38938,-0.82993 0.22109,-0.25904 1.83639,-1.88918 1.83639,-1.88918 0,0 0.33659,-0.35639 0.89262,-0.35639 0.55603,0 0.89262,0.35639 0.89262,0.35639 0,0 1.61695,1.63014 1.83804,1.88918 0.29369,0.34649 0.38774,0.82993 0.38774,0.82993 0,0 0.21119,2.61516 0.26234,3.12829 0.0528,0.51478 -0.0627,0.96687 -0.53458,1.4074 -0.52799,0.49169 -1.5856,0.69298 -2.84616,0.69298"
         id="path1637" />
      <path
         style="display:inline;fill:#ffffff;fill-opacity:1;fill-rule:nonzero;stroke:none;stroke-width:1.25473"
         d="m 91.591405,279.19531 c -1.25891,0 -2.31652,0.20129 -2.8445,0.69297 -0.47354,0.44054 -0.58903,0.89262 -0.53623,1.40741 0.0528,0.51313 0.26234,3.12829 0.26234,3.12829 0,0 0.0957,0.48343 0.38938,0.82993 0.22109,0.25904 1.83639,1.88918 1.83639,1.88918 0,0 0.33659,0.35639 0.89262,0.35639 0.55603,0 0.89262,-0.35639 0.89262,-0.35639 0,0 1.61695,-1.63014 1.83804,-1.88918 0.29369,-0.3465 0.38774,-0.82993 0.38774,-0.82993 0,0 0.21119,-2.61516 0.26234,-3.12829 0.0528,-0.51479 -0.0627,-0.96687 -0.53458,-1.40741 -0.52799,-0.49168 -1.5856,-0.69297 -2.84616,-0.69297"
         id="path1639" />
      <path
         d="m 153.13713,279.66594 c 0.0816,0.0316 0.16507,0.0549 0.24962,0.0729 0.80264,0.17138 1.63316,-0.25804 1.9292,-1.03626 l 1.26162,-2.79069 c 0.15988,-0.41657 0.14591,-0.87246 -0.0366,-1.28029 -0.18658,-0.41418 -0.5218,-0.73022 -0.94777,-0.89211 -0.86589,-0.33004 -1.84907,0.10391 -2.18075,0.96726 l -1.26094,2.78756 c -0.15907,0.41785 -0.14593,0.87247 0.0377,1.28054 0.18552,0.41393 0.52306,0.72937 0.94799,0.89105"
         style="display:inline;fill:#ffffff;fill-opacity:1;fill-rule:nonzero;stroke:none;stroke-width:2.71323"
         id="path954"
         sodipodi:nodetypes="cccccccccc" />
      <path
         d="m 101.44542,279.66594 c -0.0816,0.0316 -0.16507,0.0549 -0.24962,0.0729 -0.80264,0.17138 -1.633159,-0.25804 -1.929199,-1.03626 l -1.26162,-2.79069 c -0.15988,-0.41657 -0.14591,-0.87246 0.0366,-1.28029 0.18658,-0.41418 0.5218,-0.73022 0.94777,-0.89211 0.86589,-0.33004 1.849069,0.10391 2.180749,0.96726 l 1.26094,2.78756 c 0.15907,0.41785 0.14593,0.87247 -0.0377,1.28054 -0.18552,0.41393 -0.52306,0.72937 -0.94799,0.89105"
         style="display:inline;fill:#ffffff;fill-opacity:1;fill-rule:nonzero;stroke:none;stroke-width:2.71323"
         id="path1995"
         sodipodi:nodetypes="cccccccccc" />
      <circle
         style="display:inline;fill:#ffffff;fill-opacity:1;fill-rule:evenodd;stroke-width:2;stroke-miterlimit:9.53846;paint-order:stroke fill markers"
         id="circle9477"
         cx="109.85694"
         cy="306.01804"
         r="7.1466889" />
      <circle
         style="display:inline;fill:#ffffff;fill-opacity:1;fill-rule:evenodd;stroke-width:2;stroke-miterlimit:9.53846;paint-order:stroke fill markers"
         id="circle9477-8"
         cx="143.35564"
         cy="306.01804"
         r="7.1466889" />
    </g>
  </g>
</svg>
