<?xml version="1.0" encoding="UTF-8" standalone="no"?>
<!-- Created with Inkscape (http://www.inkscape.org/) -->

<svg
   width="416.75427mm"
   height="298.23349mm"
   viewBox="0 0 416.75386 298.23348"
   version="1.1"
   id="svg5"
   inkscape:version="1.1 (c68e22c387, 2021-05-23)"
   sodipodi:docname="Steam Controller VSCView.svg"
   inkscape:export-filename="C:\Users\AL200\OneDrive\Pictures\AL2009man Work Projects\VSCView - Controller Theme Layout\VSCView - Controller Theme (Ver. 1.10)\Steam Controller Controller Images\Default Theme\Black\Steam Controller Template\Steam Controller Model Overlay.png"
   inkscape:export-xdpi="89.348557"
   inkscape:export-ydpi="89.348557"
   xmlns:inkscape="http://www.inkscape.org/namespaces/inkscape"
   xmlns:sodipodi="http://sodipodi.sourceforge.net/DTD/sodipodi-0.dtd"
   xmlns:xlink="http://www.w3.org/1999/xlink"
   xmlns="http://www.w3.org/2000/svg"
   xmlns:svg="http://www.w3.org/2000/svg">
  <sodipodi:namedview
     id="namedview7"
     pagecolor="#ffffff"
     bordercolor="#666666"
     borderopacity="1.0"
     inkscape:pageshadow="2"
     inkscape:pageopacity="0.0"
     inkscape:pagecheckerboard="0"
     inkscape:document-units="mm"
     showgrid="false"
     inkscape:zoom="2"
     inkscape:cx="465.75"
     inkscape:cy="144.5"
     inkscape:window-width="1920"
     inkscape:window-height="995"
     inkscape:window-x="-9"
     inkscape:window-y="-9"
     inkscape:window-maximized="1"
     inkscape:current-layer="svg5" />
  <defs
     id="defs2">
    <rect
       x="282.8125"
       y="710.9375"
       width="84.375"
       height="98.4375"
       id="rect95433" />
    <linearGradient
       inkscape:collect="always"
       id="linearGradient85273">
      <stop
         style="stop-color:#182028;stop-opacity:1;"
         offset="0"
         id="stop85269" />
      <stop
         style="stop-color:#182028;stop-opacity:0;"
         offset="1"
         id="stop85271" />
    </linearGradient>
    <linearGradient
       id="linearGradient85220"
       inkscape:swatch="solid">
      <stop
         style="stop-color:#182028;stop-opacity:1;"
         offset="0"
         id="stop85218" />
    </linearGradient>
    <linearGradient
       id="linearGradient38166"
       inkscape:swatch="solid">
      <stop
         style="stop-color:#000000;stop-opacity:1;"
         offset="0"
         id="stop38164" />
    </linearGradient>
    <linearGradient
       id="linearGradient38142"
       inkscape:swatch="solid">
      <stop
         style="stop-color:#000000;stop-opacity:1;"
         offset="0"
         id="stop38140" />
    </linearGradient>
    <linearGradient
       id="linearGradient24429"
       inkscape:swatch="solid">
      <stop
         style="stop-color:#25333f;stop-opacity:1;"
         offset="0"
         id="stop24427" />
    </linearGradient>
    <linearGradient
       id="linearGradient19314"
       inkscape:swatch="solid">
      <stop
         style="stop-color:#35434f;stop-opacity:1;"
         offset="0"
         id="stop19312" />
    </linearGradient>
    <linearGradient
       id="linearGradient12206"
       inkscape:swatch="gradient">
      <stop
         style="stop-color:#000000;stop-opacity:1;"
         offset="0"
         id="stop12202" />
      <stop
         style="stop-color:#000000;stop-opacity:0;"
         offset="1"
         id="stop12204" />
    </linearGradient>
    <inkscape:perspective
       sodipodi:type="inkscape:persp3d"
       inkscape:vp_x="0 : 646.13814 : 1"
       inkscape:vp_y="0 : 999.99927 : 0"
       inkscape:vp_z="119.05417 : 646.13814 : 1"
       inkscape:persp3d-origin="59.527084 : 632.29064 : 1"
       id="perspective919" />
    <radialGradient
       inkscape:collect="always"
       xlink:href="#linearGradient85273"
       id="radialGradient85277"
       cx="267.66797"
       cy="399.82812"
       fx="267.66797"
       fy="399.82812"
       r="20.128904"
       gradientUnits="userSpaceOnUse"
       gradientTransform="matrix(1.8640344,0,0,1.881372,-231.27432,-352.39734)" />
    <radialGradient
       inkscape:collect="always"
       xlink:href="#linearGradient85273"
       id="radialGradient92717"
       cx="267.66992"
       cy="399.82617"
       fx="267.66992"
       fy="399.82617"
       r="19.374685"
       gradientUnits="userSpaceOnUse"
       gradientTransform="matrix(5.4286941,0,0,4.8353501,-1185.4281,-1533.4733)" />
    <linearGradient
       id="linearGradient901"
       inkscape:swatch="solid">
      <stop
         style="stop-color:#25d1f5;stop-opacity:1;"
         offset="0"
         id="stop899" />
    </linearGradient>
    <linearGradient
       id="linearGradient851"
       inkscape:swatch="solid">
      <stop
         style="stop-color:#24d2f6;stop-opacity:1;"
         offset="0"
         id="stop849" />
    </linearGradient>
    <linearGradient
       id="linearGradient1496"
       inkscape:swatch="solid">
      <stop
         style="stop-color:#000000;stop-opacity:0;"
         offset="0"
         id="stop1494" />
    </linearGradient>
    <linearGradient
       id="linearGradient1490"
       inkscape:swatch="solid">
      <stop
         style="stop-color:#107893;stop-opacity:0.5529412;"
         offset="0"
         id="stop1488" />
    </linearGradient>
    <linearGradient
       id="linearGradient1484"
       inkscape:swatch="solid">
      <stop
         style="stop-color:#107893;stop-opacity:0;"
         offset="0"
         id="stop1482" />
    </linearGradient>
    <linearGradient
       id="linearGradient1458"
       inkscape:swatch="solid">
      <stop
         style="stop-color:#1eb3d1;stop-opacity:0;"
         offset="0"
         id="stop1456" />
    </linearGradient>
  </defs>
  <g
     id="surface167109"
     transform="matrix(0.35277778,0,0,0.35277778,768.96576,-66.771446)"
     style="display:inline;opacity:1"
     inkscape:label="Steam Controller Lineart">
    <g
       id="g7257"
       style="display:inline;fill:#35434f;fill-opacity:1"
       inkscape:label="Controller Body and Outline"
       transform="matrix(3.50054,0,0,3.50054,-2660.2363,-781.13604)"
       inkscape:export-filename="C:\Users\AL200\OneDrive\Pictures\AL2009man Work Projects\VSCView - Controller Theme Layout\VSCView - Controller Theme (Ver. 1.10)\Steam Controller Controller Images\Steam Controller Template\Steam Controller Model Overlay.png"
       inkscape:export-xdpi="89.348557"
       inkscape:export-ydpi="89.348557">
      <g
         id="g9617"
         inkscape:label="Triggers"
         style="display:inline;paint-order:stroke markers fill"
         inkscape:export-filename="C:\Users\AL200\OneDrive\Pictures\AL2009man Work Projects\VSCView - Controller Theme Layout\VSCView - Controller Theme (Ver. 1.10)\Steam Controller Controller Images\Steam Controller Template\Steam Controller Model Overlay.png"
         inkscape:export-xdpi="89.348557"
         inkscape:export-ydpi="89.348557">
        <path
           style="clip-rule:evenodd;display:inline;fill:#5d656d;fill-opacity:1;fill-rule:evenodd;stroke:#000000;stroke-width:1.98536;stroke-linecap:round;stroke-linejoin:round;stroke-miterlimit:4;stroke-dasharray:none;stroke-opacity:1;paint-order:stroke markers fill"
           d="m 424.50772,289.43266 c -10.69191,-1.65968 -25.77307,-6.57027 -41.11641,-4.66091 5.0874,-11.84821 33.00834,-4.84514 41.11641,4.66091"
           id="path6220-7-1-4-0-9-9"
           sodipodi:nodetypes="ccc"
           inkscape:label="Right Trigger"
           inkscape:export-filename="C:\Users\AL200\OneDrive\Pictures\AL2009man Work Projects\VSCView - Controller Theme Layout\VSCView - Controller Theme (Ver. 1.10)\Steam Controller Controller Images\VSCView Image Assets\Active Button Function\SC_RightTriggerSoftPull.png"
           inkscape:export-xdpi="89.236916"
           inkscape:export-ydpi="89.236916" />
        <path
           style="clip-rule:evenodd;display:inline;opacity:1;fill:#5d656d;fill-opacity:1;fill-rule:evenodd;stroke:#000000;stroke-width:1.98536;stroke-linecap:round;stroke-linejoin:round;stroke-miterlimit:4;stroke-dasharray:none;stroke-opacity:1;paint-order:stroke markers fill"
           d="m 188.20309,289.11171 c 10.69191,-1.65968 25.77307,-6.57027 41.11641,-4.66091 -5.0874,-11.84821 -33.00834,-4.84514 -41.11641,4.66091"
           id="path6220-7-1-4-0-9"
           sodipodi:nodetypes="ccc"
           inkscape:label="Left Trigger"
           inkscape:export-filename="C:\Users\AL200\OneDrive\Pictures\AL2009man Work Projects\VSCView - Controller Theme Layout\VSCView - Controller Theme (Ver. 1.10)\Steam Controller Controller Images\VSCView Image Assets\Active Button Function\SC_LeftTriggerSoftPull.png"
           inkscape:export-xdpi="89.236916"
           inkscape:export-ydpi="89.236916" />
      </g>
      <g
         id="g111135"
         inkscape:label="Controller Color"
         style="display:inline">
        <path
           style="display:inline;fill:#26343f;fill-opacity:1;stroke:none;stroke-width:1.13386;stroke-linecap:round;stroke-linejoin:round;stroke-miterlimit:4;stroke-dasharray:none;stroke-opacity:1"
           d="M 56.129436,311.61252 C 53.383058,310.89927 48.384431,308.9908 45.021377,307.37146 21.014075,295.8118 7.6099328,276.34691 2.4584641,248.00628 0.92811331,239.5871 0.94719761,218.774 2.4978404,205.06291 6.4935943,169.73166 15.551318,127.69726 26.463191,92.669625 35.182899,64.678944 50.577641,25.174803 56.001868,18.728476 60.505835,13.375816 72.681113,9.712189 98.292396,7.6360169 c 12.202244,-0.9891716 27.467124,-1.124784 47.140324,-2.1571 32.95169,-1.7290807 127.15986,-0.8473361 158.49981,0.24247 9.9732,0.3468049 18.77796,0.4168249 26.69915,0.7008745 11.8444,0.4247336 20.59336,1.4718315 28.53408,2.2575742 10.43737,1.0327893 18.28832,2.0147654 23.98155,3.8481014 5.46641,1.760294 8.94361,4.339363 10.81109,6.89898 5.64853,7.742021 19.12257,39.570052 28.52498,68.280407 16.86318,51.491886 28.87021,121.035916 26.31577,151.186416 -2.82351,33.32626 -17.89989,55.84814 -45.01767,68.55595 -8.68666,4.07071 -16.3771,6.58855 -24.82242,6.20092 -8.3524,-0.38338 -11.85182,-2.3838 -17.54437,-6.66298 -1.19445,-0.89789 -2.45819,-2.11253 -3.66404,-3.27126 -3.11764,-2.99581 -5.86205,-6.64673 -5.31177,-7.5371 0.27028,-0.4373 2.69981,-3.91785 4.50558,-6.31933 9.42324,-12.53186 19.54835,-29.07481 27.15669,-44.63162 11.62864,-23.77715 24.73964,-67.61461 29.92148,-99.60706 0.54549,-3.36784 0.99724,-6.60295 1.34302,-9.66779 1.09812,-9.73315 0.90681,-32.84078 -0.20238,-40.813423 C 413.51036,83.258898 408.74863,67.456406 404.5339,59.139022 399.17608,48.565906 387.02378,37.894974 374.76959,32.046588 362.3962,26.141316 340.89886,22.757563 306.08601,21.378171 284.26729,20.513647 164.7292,20.582533 144.22614,21.448668 90.863199,23.702944 72.716814,28.564694 55.886015,45.191597 c -8.711151,8.605621 -12.58592,15.915361 -17.331369,32.206994 -3.53869,12.148699 -5.133071,19.171352 -5.182209,36.784169 -0.02566,9.19918 1.151904,17.29937 2.182201,25.41757 1.335408,10.52233 2.890889,21.07491 6.094778,34.09004 4.604199,18.70359 13.702215,47.81067 19.204494,60.75361 7.938004,18.67246 20.877253,40.43982 33.546778,57.32583 6.988482,6.26076 0.378653,10.24955 -5.418912,14.46674 -3.67675,2.69643 -7.991248,5.03317 -11.688857,5.8856 -2.111357,0.48674 -5.68317,0.84878 -8.928097,0.80263 -4.059415,-0.0577 -9.155605,-0.51242 -12.235386,-1.31226 z"
           id="path11820"
           transform="matrix(0.75,0,0,0.75,137.26175,283.20184)"
           inkscape:label="Body #1"
           sodipodi:nodetypes="sssssssssssssssssssssssssssssssssssccsss"
           inkscape:export-filename="C:\Users\AL200\OneDrive\Pictures\AL2009man Work Projects\VSCView - Controller Theme Layout\VSCView - Controller Theme (Ver. 1.10)\Steam Controller Controller Images\Steam Controller Template\Steam Controller Model Overlay.png"
           inkscape:export-xdpi="89.348557"
           inkscape:export-ydpi="89.348557" />
        <path
           style="display:inline;mix-blend-mode:darken;fill:#232e35;fill-opacity:1;stroke:none;stroke-width:1.13386;stroke-linecap:round;stroke-linejoin:round;stroke-miterlimit:4;stroke-dasharray:none;stroke-opacity:1;paint-order:stroke fill markers"
           d="M 57.467683,225.54921 C 54.732718,218.20367 48.982137,200.40581 45.867295,189.64637 40.230842,170.17666 37.1788,151.86369 35.238576,134.12546 34.426733,126.70329 34.24716,102.19854 35.063291,96.400263 37.052039,82.271014 42.048368,65.526732 46.602825,57.781393 52.382986,47.951615 62.215562,38.60046 72.942254,33.295915 86.606307,26.538791 104.6891,23.403153 141.67667,21.579586 c 27.58403,-1.359953 152.05614,-1.103819 175.4481,0.381485 26.57524,1.68743 44.92493,4.813513 55.68275,9.428352 13.10176,5.620329 25.51304,16.564182 31.46207,28.300739 1.92233,3.792474 5.16578,13.127799 7.02799,20.155564 6.84619,25.836754 5.42119,59.119584 -4.55562,97.754534 -4.65561,18.02872 -13.13944,44.31614 -18.13903,56.2043 -5.33662,12.68959 -13.46348,27.91525 -21.98752,41.19358 -4.91262,7.65264 -14.17582,20.10057 -14.75155,20.10057 -0.21732,0 -2.5025,-3.76038 -5.07817,-8.35641 -4.46739,-7.97163 -8.55336,-14.75875 -20.48636,-36.99062 -7.90051,-14.71913 -11.13283,-20.63164 -13.6877,-23.876 -4.85573,-6.16616 -8.28536,-8.24855 -18.28677,-9.41303 -6.15167,-0.71624 -131.55801,-0.7195 -138.05159,-0.001 -11.9145,1.31838 -16.37533,4.4886 -22.82634,15.36484 -1.63335,2.75378 -7.58603,13.58691 -13.22817,24.07362 -5.21498,13.76265 -14.90853,28.76214 -22.070518,39.71583 C 82.289503,275.2131 65.768171,247.61035 57.467683,225.54921 Z M 286.28468,202.23142 c 5.92676,-0.60258 8.82792,-1.80951 12.34481,-5.13564 1.38802,-1.31273 11.90522,-13.81103 23.89102,-27.32103 l 21.8857,-24.66884 c 1.23779,-0.0209 9.4379,-0.3523 12.70615,-0.91073 42.92789,-6.79272 58.92965,-55.258278 38.81669,-85.425243 -11.01049,-18.057484 -33.05672,-27.459269 -54.22782,-25.366684 -12.65092,1.250437 -23.03332,5.116049 -32.4707,13.191845 l -2.68655,2.913844 -0.81301,0.235738 -80.79725,-0.921564 -81.1421,0.902551 -1.49999,-1.40625 -3.20028,-2.719658 c -7.88975,-6.704855 -15.90223,-10.067483 -25.98847,-12.06666 -5.62184,-1.114296 -16.763807,-1.114296 -22.385646,0 -22.187091,4.397668 -38.746842,20.261135 -44.338351,41.780828 -1.284097,4.942023 -1.344557,5.783226 -1.647804,12.567822 -0.356926,7.985549 0.374435,11.072276 2.36634,17.398201 2.648879,8.41235 6.67069,15.37281 13.154484,22.07503 10.855469,11.22118 24.91982,17.25445 40.011977,17.26105 l 5.40795,0.26071 22.38734,25.9892 c 26.43879,30.69247 25.74705,29.65724 34.53804,30.58331 5.42334,0.57131 118.05663,1.35464 123.68747,0.7821 z"
           id="path23914"
           transform="matrix(0.75,0,0,0.75,137.26175,283.20184)"
           inkscape:label="Body #2"
           sodipodi:nodetypes="csssssssssssssssssscsccccsscccsscccccsssssscccsscc"
           inkscape:export-filename="C:\Users\AL200\OneDrive\Pictures\AL2009man Work Projects\VSCView - Controller Theme Layout\VSCView - Controller Theme (Ver. 1.10)\Steam Controller Controller Images\Steam Controller Template\Steam Controller Model Overlay.png"
           inkscape:export-xdpi="89.348557"
           inkscape:export-ydpi="89.348557" />
        <path
           style="display:inline;fill:#465159;fill-opacity:1;stroke:none;stroke-width:0.188976;stroke-linecap:round;stroke-linejoin:round;stroke-miterlimit:4;stroke-dasharray:none;stroke-opacity:1;paint-order:stroke fill markers"
           d="m 170.35943,201.83279 c -4.99291,-0.19398 -10.10254,-0.48853 -11.89857,-0.91728 -1.86081,-0.44425 -5.02987,-1.86238 -7.38955,-3.86941 -0.49287,-0.4192 -10.31856,-12.27952 -22.21509,-26.1385 -15.86491,-18.482 -22.16658,-26.00723 -22.00357,-26.11056 0.12223,-0.0775 1.08276,-0.0776 1.40634,-0.079 0.99693,-0.004 5.44726,-0.79473 7.90048,-1.40318 13.8703,-3.44014 25.38273,-11.68438 33.40804,-23.46238 5.32466,-7.8145 8.48048,-16.54304 9.43715,-26.101806 0.22217,-2.219883 0.22217,-8.147796 0,-10.367678 -1.15978,-11.588144 -5.10156,-22.569005 -13.13044,-30.993193 l -1.48297,-1.555981 11.9666,-0.387523 c 22.70317,-0.735213 44.323,-0.459779 67.08165,-0.560218 24.04437,-0.106114 47.69568,-0.202466 71.17503,0.51857 l 10.75112,0.33016 -0.83655,1.122359 c -6.96217,9.340808 -13.01395,19.414062 -14.19566,30.674707 -0.3287,3.132159 -0.32955,8.432215 -0.002,11.577545 0.94871,9.106458 4.28373,18.127738 9.52046,25.752958 3.57528,5.20602 8.74299,10.4545 13.98326,14.20186 7.2284,5.16908 15.13824,8.43366 24.1543,9.95507 1.40488,0.23707 4.26453,0.9499 4.59903,0.95634 -11.93261,14.31571 -9.2575,11.54084 -20.77282,25.01177 -11.54242,13.45573 -21.59237,24.94756 -22.2494,25.61851 -2.26943,2.31753 -5.2325,4.30351 -7.51941,5.00338 -1.19792,0.36661 -4.31411,0.64995 -7.96526,0.94741 -1.67361,0.13635 -17.8101,0.73702 -57.37919,0.75594 -30.30171,0.0145 -55.65653,-0.45273 -56.34312,-0.47993 z"
           id="path35802"
           transform="matrix(0.75,0,0,0.75,137.26175,283.20184)"
           sodipodi:nodetypes="csssscssssscssscsscsssccsssscc"
           inkscape:label="Body #3"
           inkscape:export-filename="C:\Users\AL200\OneDrive\Pictures\AL2009man Work Projects\VSCView - Controller Theme Layout\VSCView - Controller Theme (Ver. 1.10)\Steam Controller Controller Images\Steam Controller Template\Steam Controller Model Overlay.png"
           inkscape:export-xdpi="89.348557"
           inkscape:export-ydpi="89.348557" />
      </g>
      <g
         id="g111130"
         inkscape:label="Bumper Color"
         style="display:inline"
         inkscape:export-filename="C:\Users\AL200\OneDrive\Pictures\AL2009man Work Projects\VSCView - Controller Theme Layout\VSCView - Controller Theme (Ver. 1.10)\Steam Controller Controller Images\Steam Controller Template\Steam Controller Model Overlay.png"
         inkscape:export-xdpi="89.348557"
         inkscape:export-ydpi="89.348557">
        <path
           style="display:inline;fill:#5d656d;fill-opacity:1;stroke:none;stroke-width:0.393071;stroke-linecap:round;stroke-linejoin:round;stroke-miterlimit:4;stroke-dasharray:none;stroke-opacity:1;paint-order:stroke fill markers"
           d="m 343.46148,1.1867016 c 17.16073,1.159007 31.40513,1.6566247 41.74369,7.9116777 8.61575,7.3475897 3.00095,5.3357477 -2.17123,2.9782497 -3.03666,-1.38412 -6.59684,-1.727663 -8.58314,-2.1422017 -15.88028,-3.3141902 -66.92653,-3.893724 -67.71009,-5.0530521 -0.33171,-0.4907818 -3.65743,-3.1654287 9.4144,-3.8245162 6.0861,-0.30686357 12.6744,-0.32763893 27.30637,0.1298426 z"
           id="path66447"
           transform="matrix(0.75,0,0,0.75,137.26175,283.20184)"
           sodipodi:nodetypes="ccssssc"
           inkscape:label="Right Bumper" />
        <path
           style="display:inline;fill:#5d656d;fill-opacity:1;stroke:none;stroke-width:0.294803;stroke-linecap:round;stroke-linejoin:round;stroke-miterlimit:4;stroke-dasharray:none;stroke-opacity:1;paint-order:stroke fill markers"
           d="m 216.83559,284.18808 c 0,10e-6 -23.37074,1.28472 -31.30777,5.93375 -10.87469,7.82457 3.55161,1.58982 8.06578,0.62704 11.4468,-2.44136 50.02748,-2.89254 50.78257,-3.78979 0.28606,-0.33992 2.74307,-2.37407 -7.0608,-2.86839 -4.56458,-0.23014 -9.5058,-0.24572 -20.47978,0.0974 z"
           id="path66447-3"
           sodipodi:nodetypes="ccssscc"
           inkscape:label="Left Bumper" />
      </g>
      <g
         id="g44029"
         inkscape:label="Touchpad Color"
         style="display:inline;fill:#657383;fill-opacity:1"
         inkscape:export-filename="C:\Users\AL200\OneDrive\Pictures\AL2009man Work Projects\VSCView - Controller Theme Layout\VSCView - Controller Theme (Ver. 1.10)\Steam Controller Controller Images\Steam Controller Template\Steam Controller Model Overlay.png"
         inkscape:export-xdpi="89.348557"
         inkscape:export-ydpi="89.348557">
        <path
           style="display:inline;fill:#5d656d;fill-opacity:1;stroke:#5b6875;stroke-width:0.0511396;stroke-linecap:round;stroke-linejoin:round;stroke-miterlimit:4;stroke-dasharray:none;stroke-opacity:1;paint-order:stroke fill markers"
           d="m 391.73964,391.26222 c -10.12851,-1.59049 -18.95367,-6.23713 -25.7495,-13.55767 -2.08278,-2.24358 -5.20159,-6.69459 -6.53696,-9.3292 -4.89866,-9.6648 -5.82972,-21.01236 -2.55674,-31.16093 3.61012,-11.19393 12.44561,-20.95372 23.32192,-25.76166 17.37296,-7.67981 37.91268,-3.25404 50.26778,10.83138 4.96657,5.66215 8.16381,12.12018 9.80256,19.80005 0.70196,3.28962 0.70676,11.90628 0.008,15.15438 -0.79614,3.70312 -1.9974,7.23297 -3.54762,10.42446 -5.74798,11.83369 -17.06151,20.48695 -30.35642,23.21839 -3.59454,0.7385 -11.12876,0.9343 -14.65349,0.3808 z"
           id="path43713"
           inkscape:label="Right Touchpad Color" />
        <path
           style="display:inline;fill:#5d656d;fill-opacity:1;stroke:#5b6875;stroke-width:0.0510803;stroke-linecap:round;stroke-linejoin:round;stroke-miterlimit:4;stroke-dasharray:none;stroke-opacity:1;paint-order:stroke fill markers"
           d="m 210.01984,391.51046 c -6.57945,-0.93735 -10.39708,-2.00039 -14.8733,-4.14156 -12.34837,-5.90676 -21.15115,-17.28397 -23.60187,-30.50442 -0.67731,-3.65374 -0.68842,-10.5976 -0.0227,-14.19073 2.10318,-11.35165 8.58013,-21.17422 18.23734,-27.6577 12.80371,-8.59592 29.56746,-9.67128 43.37651,-2.78251 11.97585,5.97426 20.10371,16.40848 22.94108,29.45086 0.85901,3.94858 0.87415,11.79587 0.0303,15.73479 -0.87831,4.10002 -1.77124,6.65207 -3.6844,10.53027 -5.84517,11.8488 -16.97975,20.26437 -30.29478,22.89692 -2.80422,0.55444 -10.07774,0.95335 -12.10822,0.66408 z"
           id="path43908"
           inkscape:label="Left Touchpad Color" />
      </g>
      <g
         id="g111126"
         style="display:inline"
         inkscape:label="Controller Outline"
         inkscape:export-filename="C:\Users\AL200\OneDrive\Pictures\AL2009man Work Projects\VSCView - Controller Theme Layout\VSCView - Controller Theme (Ver. 1.10)\Steam Controller Controller Images\Steam Controller Template\Steam Controller Model Overlay.png"
         inkscape:export-xdpi="89.348557"
         inkscape:export-ydpi="89.348557">
        <path
           style="display:inline;fill:#000000;fill-opacity:1;fill-rule:nonzero;stroke:none"
           d="m 473.37891,462.5625 c -1.99219,24.32031 -12.6211,40.86328 -32.5,50.56641 -6.10938,2.98046 -11.97657,4.49218 -17.4336,4.49218 -12.67969,0 -18.87109,-7.89843 -19.98437,-9.48047 -0.46875,-0.67187 -1.05469,-1.58984 -1.73438,-2.70312 2.39453,-2.99609 21.47656,-27.39453 31.29297,-56.21094 8.10938,-23.82422 16.75781,-51.63672 16.75781,-80.35937 0,-16.92188 -2.98828,-26.6836 -6.59765,-36.81641 -4.21485,-12.24609 -17.6836,-24.28125 -31.31641,-27.97266 -16.25391,-5.05468 -49.3125,-5.57421 -49.63672,-5.57421 -0.16797,-0.008 -16.90625,-0.53516 -56.22656,-0.53516 -39.32031,0 -56.05859,0.52734 -56.22266,0.53516 -0.35156,0.004 -35.26172,0.76562 -49.62109,5.5664 -13.92969,3.81641 -27.10938,15.57813 -31.32813,27.97266 -3.61718,10.14062 -6.60546,19.90234 -6.60546,36.82422 0,6.63132 0.46099,13.21412 1.26989,19.71053 2.69477,21.64191 9.25079,42.32502 15.48792,60.64884 9.8164,28.81641 28.89844,53.21485 31.29297,56.21094 -0.67969,1.11328 -1.26563,2.03906 -1.73438,2.70312 -1.11328,1.58204 -7.29687,9.48047 -19.98437,9.48047 -5.45703,0 -11.32422,-1.51172 -17.4336,-4.49218 -19.8789,-9.70313 -30.50781,-26.2461 -32.5,-50.56641 -1.83984,-22.5 6.28125,-65.66016 14.60547,-96.25 7.33203,-26.96484 17.20703,-50.01563 21.10938,-58.67578 l 0.25,-0.55469 c 1.39062,-3.15234 3.33203,-7.27734 5.29687,-9.67969 0.0156,-0.0117 0.0273,-0.0351 0.043,-0.0508 0.46094,-0.54687 0.92188,-1.01172 1.37891,-1.33984 1.84375,-1.34766 4.12109,-2.4961 6.24609,-3.16406 5.53906,-1.74219 18.78906,-3.33204 29.03125,-4.00782 8.82031,-0.57812 24.11328,-0.96093 24.27344,-0.96484 0.25781,-0.008 26.05078,-1.01953 65.14453,-1.01953 39.09375,0 64.89453,1.01172 65.15625,1.01953 0.15625,0.004 15.44141,0.38672 24.26953,0.96484 10.23438,0.67578 23.49219,2.26563 29.02344,4.00782 2.12109,0.66796 4.40234,1.8164 6.2539,3.16406 0.45313,0.32812 0.91016,0.79297 1.3711,1.33984 0.0156,0.0156 0.0273,0.0391 0.043,0.0508 1.96484,2.40235 3.90625,6.52735 5.29687,9.67969 l 0.25,0.55469 c 3.90235,8.66015 13.77735,31.71094 21.11719,58.67578 8.32031,30.58984 16.4375,73.75 14.59766,96.25 m -89.54688,10.36719 -1.59766,-2.9961 c -5.82421,-10.90625 -8.48437,-15.21484 -8.51171,-15.26562 -0.125,-0.19141 -2.9961,-4.66016 -6.59375,-6.83985 -4.26563,-2.58203 -12.125,-2.80078 -12.46094,-2.80859 L 306,444.66797 l -48.67578,0.35156 c -0.32813,0.008 -8.1836,0.22656 -12.44531,2.80859 -3.60547,2.17969 -6.47657,6.64844 -6.60157,6.84766 -0.0195,0.043 -2.6875,4.35156 -8.51172,15.25781 l -1.60937,3.02344 c -4.98828,9.33984 -12.75391,23.90234 -17.27344,31.47656 -3.23047,-4.07031 -21.39062,-27.7539 -30.86328,-55.5664 -8.07812,-23.73438 -16.69922,-51.44532 -16.69922,-80 0,-16.7461 2.95703,-26.41407 6.53906,-36.45703 4.11719,-12.08594 16.98047,-23.5586 30.6211,-27.28516 14.22656,-4.75391 48.97656,-5.51563 49.32812,-5.52344 0.16797,-0.008 16.88282,-0.53515 56.19141,-0.53515 39.30078,0 56.03125,0.52734 56.19922,0.53515 0.33594,0 33.23437,0.51172 49.35547,5.53125 13.33203,3.60938 26.48047,15.33594 30.58203,27.28516 3.58203,10.03515 6.54297,19.70312 6.54297,36.44922 0,28.55468 -8.6211,56.26562 -16.70313,80 -9.46875,27.8125 -27.6289,51.49609 -30.85156,55.5664 -4.52734,-7.57422 -12.30859,-22.15234 -17.29297,-31.5039 M 186.42969,290.12109 c 2.35937,-1.24218 4.71093,-2.35937 9.53906,-3.33203 5.08203,-1.01953 10.49609,-1.64062 18.69531,-2.14453 7.78516,-0.46875 24.00391,-0.36719 25.65625,-0.19922 1.82031,0.17578 2.72656,0.6875 3.26172,1.0625 0.32813,0.22656 0.66016,0.69531 0.91406,1.13672 -2.35547,0.0781 -3.625,0.12891 -3.67578,0.12891 -0.15234,0.008 -15.46484,0.39843 -24.3125,0.97656 -10.29687,0.67187 -23.66797,2.27734 -29.28515,4.04297 -1.52344,0.47656 -3.1211,1.1914 -4.59375,2.05859 1.26562,-1.6289 2.5,-3.03906 3.80078,-3.73047 m 181.99609,-4.61328 c 0.52734,-0.375 1.44141,-0.88672 3.25,-1.0625 1.66406,-0.16797 17.88281,-0.26953 25.66797,0.19922 8.19922,0.50391 13.61328,1.125 18.6875,2.14453 4.83594,0.97266 7.17969,2.08985 9.54687,3.33203 1.30079,0.69141 2.52344,2.09766 3.79297,3.71485 -1.21875,-0.70313 -2.78515,-1.47266 -4.59375,-2.04297 -5.61718,-1.76563 -18.98047,-3.3711 -29.27734,-4.04297 -8.85156,-0.57813 -24.16797,-0.96875 -24.30469,-0.97656 -0.0508,0 -1.32812,-0.0508 -3.6914,-0.12891 0.26171,-0.44141 0.58984,-0.90234 0.92187,-1.13672 m 91.41016,80.51563 c -7.35547,-27.04297 -17.25,-50.15235 -21.16797,-58.83203 l -0.25,-0.5586 c -1.51563,-3.44922 -3.42969,-7.46484 -5.44922,-9.92578 -0.58594,-0.71875 -1.17188,-1.48828 -1.73828,-2.23437 -1.6836,-2.23438 -3.28906,-4.34375 -5.14063,-5.32422 -2.35156,-1.23828 -4.87109,-2.4336 -9.83984,-3.4375 -5.13281,-1.03125 -10.58984,-1.66016 -18.83984,-2.16016 -7.45704,-0.45312 -23.91016,-0.39453 -25.84375,-0.20312 -2.0625,0.20312 -3.14063,0.82031 -3.76954,1.25781 -0.67578,0.46875 -1.23437,1.42187 -1.52734,2 C 357,286.32031 335.20703,285.75781 306,285.75781 c -29.20703,0 -50.99609,0.5625 -60.26563,0.84766 -0.29296,-0.57813 -0.84765,-1.53125 -1.52343,-2 -0.62891,-0.4375 -1.70703,-1.05469 -3.77735,-1.25781 -1.93359,-0.19141 -18.3789,-0.25782 -25.83593,0.20312 -8.25782,0.5 -13.71485,1.12891 -18.84766,2.16016 -4.96875,1.0039 -7.48828,2.19922 -9.83203,3.4375 -1.85938,0.98047 -3.45703,3.08984 -5.14844,5.32422 -0.56641,0.74609 -1.14453,1.51562 -1.73828,2.23437 -2.01953,2.46094 -3.93359,6.47656 -5.44922,9.92578 l -0.25,0.5586 c -3.91016,8.67968 -13.8125,31.78906 -21.16797,58.83203 -8.34375,30.67187 -16.48828,74 -14.63672,96.6289 1.99219,24.39844 13.13672,41.71094 33.10938,51.45703 3.13672,1.53125 6.20703,2.6836 9.20312,3.45313 2.98828,0.76953 5.90235,1.15625 8.71485,1.15625 13.23047,0 19.71875,-8.28516 20.88281,-9.94141 3.5625,-5.07422 13.65625,-23.99609 19.68359,-35.30468 l 1.61328,-3.01954 c 5.8086,-10.87109 8.45313,-15.15625 8.47657,-15.1914 0.0273,-0.043 2.85547,-4.44922 6.23047,-6.49219 4.01562,-2.42969 11.83203,-2.64453 11.90625,-2.64844 L 306,445.76562 l 48.64453,0.35547 c 0.082,0.004 7.89844,0.21094 11.91406,2.64844 3.375,2.04297 6.20313,6.44922 6.23438,6.48438 0.0195,0.043 2.67187,4.32812 8.47265,15.19921 l 1.59766,2.98829 c 6.03516,11.3164 16.13672,30.26171 19.69531,35.33593 1.16797,1.65625 7.65625,9.94141 20.88672,9.94141 5.625,0 11.65235,-1.54688 17.91797,-4.60938 19.97266,-9.74609 31.11719,-27.05859 33.10938,-51.45703 1.85156,-22.63672 -6.28516,-65.95703 -14.63672,-96.6289"
           id="path924"
           inkscape:label="Outline"
           sodipodi:nodetypes="ccscccscccscccsscccscccccccccccscccccccscccccccccccccccscccscccsccccccccccccccccccccccccccccccccccccsccccccccccccccscccccccccccccsccc" />
        <path
           style="display:inline;fill:#000000;fill-opacity:1;fill-rule:nonzero;stroke:none"
           d="m 397.96094,390.99609 c -23.32422,0 -42.30469,-18.53906 -42.30469,-41.32031 0,-22.78906 18.98047,-41.32031 42.30469,-41.32031 23.3164,0 42.29687,18.53125 42.29687,41.32031 0,22.78125 -18.98047,41.32031 -42.29687,41.32031 m -35.70313,38.16016 c -0.0312,0.0273 -3.03515,3.48437 -6.42578,4.32031 -3.77734,0.92969 -15.51953,0.9375 -15.63672,0.9375 h -68.46875 c -0.11719,0 -11.86719,-0.008 -15.64844,-0.9375 -3.38281,-0.83594 -6.39453,-4.29297 -6.42578,-4.32031 l -31.94922,-37.23047 c 22.14844,-1.88672 39.57813,-20.12109 39.57813,-42.25 0,-10.89062 -4.22656,-20.84766 -11.16406,-28.37109 6.42578,-0.0742 36.66797,-0.41016 59.88281,-0.41016 23.22266,0 53.34766,0.33594 59.72266,0.40234 -6.9375,7.52344 -11.16407,17.48047 -11.16407,28.37891 0,22.15234 17.46485,40.39063 39.64453,42.25781 z M 213.88672,390.99609 c -23.32422,0 -42.29688,-18.53906 -42.29688,-41.32031 0,-22.78906 18.97266,-41.32031 42.29688,-41.32031 23.32422,0 42.29297,18.53125 42.29297,41.32031 0,22.78125 -18.96875,41.32031 -42.29297,41.32031 m 184.07422,-83.73828 c -12.23438,0 -23.30078,4.97266 -31.19141,12.95703 C 364,320.18359 331,319.79687 306,319.79687 c -24.98047,0 -58.10547,0.38672 -60.92969,0.41797 -7.88281,-7.98437 -18.94922,-12.95703 -31.18359,-12.95703 -23.92578,0 -43.39453,19.02735 -43.39453,42.41797 0,23.39063 19.46875,42.42188 43.39453,42.42188 0.82031,0 1.64062,-0.0234 2.45312,-0.0742 l 32.48047,37.84765 c 0.13281,0.14844 3.27344,3.75 6.9961,4.66797 3.91015,0.96485 15.41796,0.97266 15.91015,0.97266 h 68.46875 c 0.48047,0 11.9961,-0.008 15.90235,-0.97266 3.72656,-0.91797 6.86328,-4.51953 6.99609,-4.67578 l 32.47266,-37.83203 c 0.78906,0.043 1.58593,0.0664 2.39453,0.0664 23.92187,0 43.39453,-19.03125 43.39453,-42.42188 0,-23.39062 -19.47266,-42.41797 -43.39453,-42.41797"
           id="path926"
           inkscape:label="Outline #2" />
        <path
           style="display:inline;opacity:0.4;fill:#272727;fill-opacity:1;fill-rule:nonzero;stroke:none"
           d="m 242.60156,355.85156 h -18.375 c -0.76562,0 -1.53515,0.19922 -2.21094,0.57813 -0.73828,0.41015 -1.35546,1.01172 -1.76562,1.75 -0.38672,0.66797 -0.58594,1.44531 -0.58594,2.23437 v 18.3711 c 0,3.39453 -2.76172,6.14843 -6.14453,6.14843 -3.39062,0 -6.15234,-2.7539 -6.15234,-6.14843 v -18.3711 c 0,-0.78906 -0.19922,-1.5664 -0.58594,-2.23437 -0.41016,-0.73828 -1.02734,-1.33985 -1.76563,-1.75 -0.67578,-0.37891 -1.44531,-0.57813 -2.21875,-0.57813 h -18.36718 c -3.39063,0 -6.15235,-2.76172 -6.15235,-6.15234 0,-3.38672 2.76172,-6.14844 6.15235,-6.14844 h 18.36718 c 0.78907,0 1.56641,-0.20312 2.23829,-0.58984 0.72656,-0.40625 1.33593,-1.00391 1.74609,-1.73828 0.38672,-0.67188 0.58594,-1.44532 0.58594,-2.23438 v -18.37109 c 0,-3.39063 2.76172,-6.15235 6.15234,-6.15235 3.38281,0 6.14453,2.76172 6.14453,6.15235 v 18.37109 c 0,0.78906 0.19922,1.5625 0.58594,2.23438 0.41016,0.73437 1.01953,1.33203 1.73828,1.73828 0.67969,0.38672 1.45703,0.58984 2.23828,0.58984 h 18.375 c 3.39063,0 6.15235,2.76172 6.15235,6.14844 0,3.39062 -2.76172,6.15234 -6.15235,6.15234 m 0,-13.40625 h -18.375 c -1.91015,0 -3.46094,-1.55078 -3.46094,-3.45703 v -18.37109 c 0,-4 -3.2539,-7.25391 -7.24609,-7.25391 -4,0 -7.25391,3.25391 -7.25391,7.25391 v 18.37109 c 0,1.90625 -1.55078,3.45703 -3.46875,3.45703 h -18.36718 c -3.98828,0 -7.24219,3.25391 -7.24219,7.25391 0,3.99219 3.25391,7.24219 7.24219,7.24219 h 18.36718 c 1.91797,0 3.46875,1.5625 3.46875,3.47265 v 18.3711 c 0,4 3.25391,7.24609 7.25391,7.24609 3.99219,0 7.24609,-3.24609 7.24609,-7.24609 v -18.3711 c 0,-1.91015 1.55079,-3.47265 3.46094,-3.47265 h 18.375 c 3.99219,0 7.24219,-3.25 7.24219,-7.24219 0,-4 -3.25,-7.25391 -7.24219,-7.25391"
           id="path928"
           inkscape:label="Left Touchpad D-PAD Outline" />
        <g
           id="g25061"
           style="display:inline;stroke:#000000;stroke-width:0.713999;stroke-linecap:round;stroke-linejoin:round;stroke-miterlimit:4;stroke-dasharray:none;stroke-opacity:1;paint-order:normal"
           transform="matrix(2.8346593,0,0,2.8346371,170.49155,307.258)"
           inkscape:label="Touchpad Outline">
          <ellipse
             style="display:inline;fill:none;fill-opacity:0.496269;stroke:#000000;stroke-width:0.713999;stroke-linecap:round;stroke-linejoin:round;stroke-miterlimit:4;stroke-dasharray:none;stroke-opacity:1;paint-order:normal"
             id="path24852-4"
             cx="80.263214"
             cy="14.991611"
             rx="14.169909"
             ry="13.897943"
             inkscape:label="Right Side" />
          <ellipse
             style="display:inline;opacity:1;fill:none;fill-opacity:0.496269;stroke:#000000;stroke-width:0.713999;stroke-linecap:round;stroke-linejoin:round;stroke-miterlimit:4;stroke-dasharray:none;stroke-opacity:1;paint-order:normal"
             id="path24852"
             cx="15.316269"
             cy="14.994039"
             rx="14.170018"
             ry="13.89813"
             inkscape:label="Left Side" />
        </g>
      </g>
    </g>
    <g
       id="g111145"
       inkscape:label="Left Stick"
       style="display:inline"
       transform="matrix(3.50054,0,0,3.50054,-2660.2363,-781.13604)"
       inkscape:export-filename="C:\Users\AL200\OneDrive\Pictures\AL2009man Work Projects\VSCView - Controller Theme Layout\VSCView - Controller Theme (Ver. 1.10)\Steam Controller Controller Images\Steam Controller Template\Steam Controller Model Overlay - No Thumbstick and Triggers.png"
       inkscape:export-xdpi="89.348557"
       inkscape:export-ydpi="89.348557">
      <g
         id="g69839"
         style="display:inline"
         inkscape:label="Left Analog Stick Bump"
         transform="matrix(1.3529881,0,0,1.3529881,-94.483596,-141.13456)"
         inkscape:export-filename="C:\Users\AL200\OneDrive\Pictures\AL2009man Work Projects\VSCView - Controller Theme Layout\VSCView - Controller Theme (Ver. 1.10)\Steam Controller Controller Images\Steam Controller Template\Steam Controller Model Overlay - No Thumbstick and Triggers.png"
         inkscape:export-xdpi="89.348557"
         inkscape:export-ydpi="89.348557">
        <path
           style="display:inline;opacity:0.98;fill:url(#radialGradient92717);fill-opacity:1;fill-rule:nonzero;stroke:none;stroke-width:1.37375"
           d="m 267.66724,419.20086 c -10.68413,0 -19.372,-8.68789 -19.372,-19.37202 0,-10.68411 8.68787,-19.37735 19.372,-19.37735 10.68412,0 19.37737,8.69324 19.37737,19.37735 0,10.68413 -8.69325,19.37202 -19.37737,19.37202"
           id="path892-6"
           sodipodi:nodetypes="csssc"
           inkscape:label="Color" />
        <path
           style="display:inline;fill:#000000;fill-opacity:1;fill-rule:nonzero;stroke:#272727;stroke-width:0.614072;stroke-miterlimit:4;stroke-dasharray:none;stroke-opacity:1"
           d="m 267.66784,414.8735 c -8.30648,0 -15.06093,-6.75449 -15.06093,-15.06094 0,-8.30645 6.75445,-15.06509 15.06093,-15.06509 8.30646,0 15.0651,6.75864 15.0651,15.06509 0,8.30645 -6.75864,15.06094 -15.0651,15.06094"
           id="path892-6-9"
           sodipodi:nodetypes="csssc"
           inkscape:label="Joystick Empty Area" />
        <path
           style="display:inline;fill:url(#radialGradient85277);fill-opacity:1;fill-rule:nonzero;stroke:none"
           d="m 267.66797,380.79687 c -10.49219,0 -19.03125,8.53516 -19.03125,19.03125 0,10.49219 8.53906,19.03125 19.03125,19.03125 10.49219,0 19.03125,-8.53906 19.03125,-19.03125 0,-10.49609 -8.53906,-19.03125 -19.03125,-19.03125 m 0,39.16016 c -11.09766,0 -20.12891,-9.03125 -20.12891,-20.12891 0,-11.10156 9.03125,-20.1289 20.12891,-20.1289 11.10156,0 20.1289,9.02734 20.1289,20.1289 0,11.09766 -9.02734,20.12891 -20.1289,20.12891"
           id="path890"
           inkscape:label="Outline" />
      </g>
      <g
         id="g1284"
         inkscape:label="Analog Stick"
         style="display:inline"
         transform="matrix(1.4192765,0,0,1.4192765,-112.22721,-167.63652)"
         inkscape:export-filename="C:\Users\AL200\OneDrive\Pictures\AL2009man Work Projects\VSCView - Controller Theme Layout\VSCView - Controller Theme (Ver. 1.10)\Steam Controller Controller Images\VSCView Image Assets\Active Button Function\SC_AnalogStick.png"
         inkscape:export-xdpi="89.396866"
         inkscape:export-ydpi="89.396866">
        <path
           style="display:inline;fill:#424f59;fill-opacity:1;stroke:none;stroke-width:0;stroke-linecap:round;stroke-linejoin:round;stroke-miterlimit:4;stroke-dasharray:none;stroke-opacity:1;paint-order:normal"
           d="m 266.90291,413.3487 c -1.34193,-0.12923 -2.13951,-0.26855 -3.00515,-0.52493 -3.03653,-0.89935 -5.68563,-2.83499 -7.4357,-5.43308 -1.12249,-1.66641 -1.79259,-3.34486 -2.16228,-5.41592 -0.0997,-0.5584 -0.11435,-0.80593 -0.12161,-2.05263 -0.006,-1.13049 0.009,-1.52666 0.0762,-1.9558 0.38468,-2.45229 1.25175,-4.49587 2.73314,-6.44167 0.48372,-0.63537 1.79292,-1.92936 2.46563,-2.437 3.44491,-2.59956 7.65599,-3.42304 11.79484,-2.30649 2.10766,0.56858 4.11003,1.70513 5.72228,3.24796 0.79091,0.75686 1.32136,1.38441 1.93299,2.28682 1.19642,1.76524 1.94358,3.78362 2.2066,5.96091 0.10254,0.84883 0.0843,2.65871 -0.0347,3.44663 -0.58143,3.84945 -2.68961,7.18984 -5.89703,9.34381 -1.73437,1.16474 -3.63694,1.88644 -5.73918,2.17704 -0.5627,0.0777 -2.13853,0.14263 -2.53598,0.10435 z"
           id="path27984"
           sodipodi:nodetypes="ssssccscsssscscss"
           inkscape:label="Color #1" />
        <path
           style="display:inline;fill:#717b84;fill-opacity:1;stroke:#000000;stroke-width:0.41749;stroke-linecap:round;stroke-linejoin:round;stroke-miterlimit:4;stroke-dasharray:none;stroke-opacity:1;paint-order:markers stroke fill"
           d="m 263.16234,409.53003 c -3.93446,-1.81753 -6.23831,-5.40796 -6.23278,-9.71348 0.006,-4.42111 2.47729,-8.06806 6.77174,-9.99191 2.21593,-0.9927 6.56931,-0.87081 8.743,0.24481 4.65509,2.38917 7.09452,8.21388 5.46421,13.0471 -2.08235,6.17338 -8.87274,9.12667 -14.74617,6.41348 z"
           id="path20807"
           inkscape:label="Color #2" />
        <path
           style="display:inline;fill:#000000;fill-opacity:1;fill-rule:nonzero;stroke:none"
           d="m 267.66797,386.82422 c -7.17188,0 -13.00391,5.83203 -13.00391,13.0039 0,7.17188 5.83203,13.00391 13.00391,13.00391 7.17187,0 13.0039,-5.83203 13.0039,-13.00391 0,-7.17187 -5.83203,-13.0039 -13.0039,-13.0039 m 0,27.10547 c -7.77735,0 -14.10156,-6.32422 -14.10156,-14.10157 0,-7.77734 6.32421,-14.10546 14.10156,-14.10546 7.77734,0 14.10547,6.32812 14.10547,14.10546 0,7.77735 -6.32813,14.10157 -14.10547,14.10157"
           id="path892"
           inkscape:label="Outline" />
      </g>
    </g>
    <g
       id="g1270"
       inkscape:label="Steam Guide Button"
       style="display:inline"
       transform="matrix(3.50054,0,0,3.50054,-2660.2363,-781.13604)"
       inkscape:export-filename="C:\Users\AL200\OneDrive\Pictures\AL2009man Work Projects\VSCView - Controller Theme Layout\VSCView - Controller Theme (Ver. 1.10)\Steam Controller Controller Images\Steam Controller Template\Steam Controller Model Overlay.png"
       inkscape:export-xdpi="89.348557"
       inkscape:export-ydpi="89.348557">
      <ellipse
         style="display:inline;fill:#ffffff;fill-opacity:1;fill-rule:evenodd;stroke:none;stroke-width:1.96739;stroke-linecap:round;stroke-linejoin:round;stroke-miterlimit:4;stroke-dasharray:none;stroke-opacity:1;paint-order:normal"
         id="path245335"
         cx="305.72327"
         cy="344.16327"
         rx="11.498217"
         ry="11.425638"
         inkscape:label="Color" />
      <g
         id="g243670"
         style="display:inline"
         inkscape:label="Steam Logo">
        <path
           style="display:inline;fill:#211e1e;fill-opacity:1;fill-rule:nonzero;stroke:none"
           d="m 295.10547,344.47656 c 0,-0.23437 0.008,-0.46875 0.0234,-0.69922 l 5.64843,2.33985 c 0.52735,-0.35938 1.16407,-0.57422 1.84766,-0.57422 0.0625,0 0.12109,0 0.17969,0.008 l 2.76953,-4.00391 c 0,-0.0234 -0.008,-0.0391 -0.008,-0.0625 0,-2.41015 1.96484,-4.37109 4.375,-4.37109 2.41015,0 4.37109,1.96094 4.37109,4.37109 0,2.41016 -1.96094,4.375 -4.37109,4.375 h -0.0977 l -3.9375,2.8125 v 0.15235 c 0,1.8125 -1.47266,3.28515 -3.28125,3.28515 -1.58594,0 -2.91797,-1.13671 -3.21875,-2.63671 l -3.74219,-1.55469 c -0.36719,-1.08203 -0.55859,-2.24219 -0.55859,-3.44141 m 11.03515,-12.125 c -6.6875,0 -12.13281,5.4336 -12.13281,12.125 0,6.6875 5.44531,12.12891 12.13281,12.12891 6.6875,0 12.1211,-5.44141 12.1211,-12.12891 0,-6.6914 -5.4336,-12.125 -12.1211,-12.125"
           id="path902" />
        <path
           style="display:inline;fill:#211e1e;fill-opacity:1;fill-rule:nonzero;stroke:none"
           d="m 301.83203,350.47266 -1.42578,-0.58594 c 0.25391,0.52344 0.6875,0.96484 1.26953,1.20703 1.25391,0.51953 2.69531,-0.0742 3.21875,-1.32813 0.25391,-0.60937 0.25391,-1.27734 0.004,-1.88281 -0.25,-0.60937 -0.72266,-1.08203 -1.32813,-1.33594 -0.60547,-0.25 -1.25,-0.24218 -1.8164,-0.0273 l 1.47265,0.60547 c 0.92188,0.38672 1.35938,1.44922 0.97656,2.37109 -0.38671,0.92578 -1.44921,1.36328 -2.37109,0.97657"
           id="path904" />
        <path
           style="display:inline;fill:#211e1e;fill-opacity:1;fill-rule:nonzero;stroke:none"
           d="m 307.75781,341.48437 c 0,-1.21093 0.98047,-2.1875 2.19141,-2.1875 1.20703,0 2.1875,0.97657 2.1875,2.1875 0,1.20704 -0.98047,2.1875 -2.1875,2.1875 -1.21094,0 -2.19141,-0.98046 -2.19141,-2.1875 m 5.09766,0.004 c 0,-1.60547 -1.30469,-2.91406 -2.91406,-2.91406 -1.60547,0 -2.91016,1.30859 -2.91016,2.91406 0,1.60547 1.30469,2.91406 2.91016,2.91406 1.60937,0 2.91406,-1.30859 2.91406,-2.91406"
           id="path906" />
      </g>
    </g>
    <g
       id="g1280"
       inkscape:label="Face Buttons"
       style="display:inline"
       transform="matrix(3.50054,0,0,3.50054,-2660.2363,-781.13604)"
       inkscape:export-filename="C:\Users\AL200\OneDrive\Pictures\AL2009~1\VSCVIE~1\VSCVIE~1.10)\STEAMC~1\DEFAUL~1\Black\STEAMC~1\STEAMC~3.PNG"
       inkscape:export-xdpi="89.348557"
       inkscape:export-ydpi="89.348557">
      <g
         id="g1011"
         inkscape:label="A">
        <ellipse
           style="display:inline;fill:#211e1e;fill-opacity:1;stroke:none;stroke-width:5.88738;stroke-linecap:round;stroke-linejoin:round;stroke-miterlimit:4;stroke-dasharray:none;stroke-opacity:1;paint-order:normal"
           id="path75748"
           cx="345.74777"
           cy="417.71988"
           rx="8.5629101"
           ry="8.3304548"
           inkscape:label="Color" />
        <path
           style="display:inline;fill:#0d0d0d;fill-opacity:1;fill-rule:nonzero;stroke:none"
           d="m 345.73437,409.47266 c -4.54296,0 -8.23828,3.69531 -8.23828,8.23828 0,4.54297 3.69532,8.23828 8.23828,8.23828 4.54297,0 8.23829,-3.69531 8.23829,-8.23828 0,-4.54297 -3.69532,-8.23828 -8.23829,-8.23828 m 0,17.57421 c -5.14843,0 -9.33593,-4.1875 -9.33593,-9.33593 0,-5.14844 4.1875,-9.33594 9.33593,-9.33594 5.14844,0 9.33594,4.1875 9.33594,9.33594 0,5.14843 -4.1875,9.33593 -9.33594,9.33593"
           id="path896"
           inkscape:label="Outline" />
        <path
           style="display:inline;fill:#3cdb4e;fill-opacity:1;fill-rule:nonzero;stroke:none"
           d="m 344.69922,418.01172 h 1.99609 l -0.99609,-2.79688 z m 4.54297,2.92187 h -1.50391 l -0.60547,-1.69531 h -2.87109 l -0.60547,1.69531 h -1.45703 l 2.8125,-7.54687 h 1.38672 z m 0,0"
           id="path914"
           inkscape:label="Text" />
      </g>
      <g
         id="g1007"
         inkscape:label="B">
        <circle
           style="display:inline;fill:#211e1e;fill-opacity:1;stroke:none;stroke-width:6.39665;stroke-linecap:round;stroke-linejoin:round;stroke-miterlimit:4;stroke-dasharray:none;stroke-opacity:1;paint-order:normal"
           id="path75456"
           cx="364.8783"
           cy="398.98615"
           r="8.5235395"
           inkscape:label="Color" />
        <path
           style="display:inline;fill:#0d0d0d;fill-opacity:1;fill-rule:nonzero;stroke:none"
           d="m 364.82031,390.63281 c -4.54297,0 -8.23828,3.69531 -8.23828,8.23828 0,4.53907 3.69531,8.23438 8.23828,8.23438 4.53906,0 8.23438,-3.69531 8.23438,-8.23438 0,-4.54297 -3.69532,-8.23828 -8.23438,-8.23828 m 0,17.57422 c -5.14844,0 -9.33594,-4.19141 -9.33594,-9.33594 0,-5.14843 4.1875,-9.33593 9.33594,-9.33593 5.14453,0 9.33594,4.1875 9.33594,9.33593 0,5.14453 -4.19141,9.33594 -9.33594,9.33594"
           id="path900"
           inkscape:label="Outline" />
        <path
           style="display:inline;fill:#d04242;fill-opacity:1;fill-rule:nonzero;stroke:none"
           d="m 363.56641,398.17187 h 0.99218 c 0.79297,0 1.26563,-0.375 1.26563,-1.0039 0,-0.37891 -0.13281,-0.87891 -1.29688,-0.87891 h -0.96093 z m 0,3.1836 h 1.26562 c 0.63672,0 1.40234,-0.16797 1.40234,-0.97656 0,-0.4336 -0.14062,-1.01563 -1.35546,-1.01563 h -1.3125 z m 1.375,1.23828 h -2.75782 v -7.54688 h 2.48438 c 1.60937,0 2.53125,0.70704 2.53125,1.94532 0,0.61328 -0.28125,1.17968 -0.76172,1.5625 0.75781,0.33984 1.21094,1.01562 1.21094,1.85156 0,1.37109 -1.01172,2.1875 -2.70703,2.1875"
           id="path912"
           inkscape:label="Text" />
      </g>
      <g
         id="g850"
         inkscape:label="X">
        <ellipse
           style="display:inline;fill:#211e1e;fill-opacity:1;stroke:none;stroke-width:5.97798;stroke-linecap:round;stroke-linejoin:round;stroke-miterlimit:4;stroke-dasharray:none;stroke-opacity:1;paint-order:normal"
           id="path75293"
           cx="327.02768"
           cy="398.93918"
           inkscape:label="Color"
           rx="8.7852154"
           ry="8.597744" />
        <path
           style="display:inline;fill:#0d0d0d;fill-opacity:1;fill-rule:nonzero;stroke:none"
           d="m 327.01172,390.63281 c -4.54297,0 -8.23828,3.69531 -8.23828,8.23828 0,4.53907 3.69531,8.23438 8.23828,8.23438 4.54297,0 8.23437,-3.69531 8.23437,-8.23438 0,-4.54297 -3.6914,-8.23828 -8.23437,-8.23828 m 0,17.57422 c -5.14844,0 -9.33594,-4.19141 -9.33594,-9.33594 0,-5.14843 4.1875,-9.33593 9.33594,-9.33593 5.14844,0 9.33594,4.1875 9.33594,9.33593 0,5.14453 -4.1875,9.33594 -9.33594,9.33594"
           id="path898"
           inkscape:label="Outline" />
        <path
           style="display:inline;fill:#4094d0;fill-opacity:1;fill-rule:nonzero;stroke:none"
           d="m 330.40234,402.63672 h -1.73437 l -1.91016,-2.8086 -1.76172,2.8086 h -1.66797 l 2.63282,-3.89844 -2.53125,-3.64844 h 1.74218 l 1.60157,2.51953 1.59765,-2.51953 h 1.76172 l -2.57031,3.59375 z m 0,0"
           id="path916"
           inkscape:label="Text" />
      </g>
      <g
         id="g1003"
         inkscape:label="Y">
        <ellipse
           style="display:inline;fill:#211e1e;fill-opacity:1;stroke:none;stroke-width:5.24243;stroke-linecap:round;stroke-linejoin:round;stroke-miterlimit:4;stroke-dasharray:none;stroke-opacity:1;paint-order:normal"
           id="path75108"
           cx="345.70758"
           cy="379.91092"
           rx="8.3857641"
           ry="8.3583374"
           inkscape:label="Color" />
        <path
           style="display:inline;fill:#0d0d0d;fill-opacity:1;fill-rule:nonzero;stroke:none"
           d="m 345.73437,371.73437 c -4.54296,0 -8.23828,3.69532 -8.23828,8.23829 0,4.54296 3.69532,8.23828 8.23828,8.23828 4.54297,0 8.23829,-3.69532 8.23829,-8.23828 0,-4.54297 -3.69532,-8.23829 -8.23829,-8.23829 m 0,17.57422 c -5.14843,0 -9.33593,-4.1875 -9.33593,-9.33593 0,-5.14844 4.1875,-9.33594 9.33593,-9.33594 5.14844,0 9.33594,4.1875 9.33594,9.33594 0,5.14843 -4.1875,9.33593 -9.33594,9.33593"
           id="path894"
           inkscape:label="Outline" />
        <path
           style="display:inline;fill:#ecdb33;fill-opacity:1;fill-rule:nonzero;stroke:none"
           d="m 346.42187,384.34375 h -1.37109 v -3.00391 l -2.65234,-4.54687 h 1.60547 l 1.7539,3.16015 1.7461,-3.16015 h 1.55468 l -2.63672,4.55078 z m 0,0"
           id="path918"
           inkscape:label="Text" />
      </g>
    </g>
    <g
       id="g1288"
       style="display:inline"
       inkscape:label="Select Button"
       transform="matrix(3.50054,0,0,3.50054,-2660.2363,-781.13604)"
       inkscape:export-filename="C:\Users\AL200\OneDrive\Pictures\AL2009man Work Projects\VSCView - Controller Theme Layout\VSCView - Controller Theme (Ver. 1.10)\Steam Controller Controller Images\Steam Controller Template\Steam Controller Model Overlay.png"
       inkscape:export-xdpi="89.348557"
       inkscape:export-ydpi="89.348557">
      <path
         style="display:inline;fill:#211e1e;fill-opacity:1;stroke:none;stroke-width:0.727786;stroke-linecap:round;stroke-linejoin:round;stroke-miterlimit:4;stroke-dasharray:none;stroke-opacity:1;paint-order:normal"
         d="m 271.87997,353.19177 c -1.67171,-0.62718 -2.866,-2.09071 -3.14827,-3.85803 -0.38048,-2.38212 1.40192,-4.88377 3.81224,-5.35064 0.27603,-0.0535 2.88206,-0.10095 5.8292,-0.10621 4.77806,-0.009 5.39576,0.008 5.9651,0.16221 1.87723,0.50753 3.26218,2.04876 3.56938,3.97213 0.37249,2.33212 -1.20284,4.66166 -3.60243,5.32717 -0.41815,0.11596 -1.55237,0.13826 -6.14136,0.12074 l -5.62851,-0.0215 z"
         id="path91059"
         inkscape:label="Color" />
      <path
         style="display:inline;fill:#0d0d0d;fill-opacity:1;fill-rule:nonzero;stroke:none"
         d="m 273.76172,344.11328 c -2.51953,0 -4.56641,2.05078 -4.56641,4.56641 0,2.52343 2.04688,4.57031 4.56641,4.57031 h 9.12109 c 2.51953,0 4.57031,-2.04688 4.57031,-4.57031 0,-2.51563 -2.05078,-4.56641 -4.57031,-4.56641 z m 9.12109,10.23438 h -9.12109 c -3.125,0 -5.66797,-2.53907 -5.66797,-5.66797 0,-3.125 2.54297,-5.66797 5.66797,-5.66797 h 9.12109 c 3.125,0 5.66797,2.54297 5.66797,5.66797 0,3.1289 -2.54297,5.66797 -5.66797,5.66797"
         id="path908"
         inkscape:label="Outline" />
      <path
         id="path83412"
         style="display:inline;fill:#dcdcdc;fill-opacity:1;stroke:none;stroke-width:0.481827;stroke-linecap:round;stroke-linejoin:round;stroke-miterlimit:4;stroke-dasharray:none;stroke-opacity:1;paint-order:normal"
         d="m 190.17188,83.541016 c -0.27834,8.3e-4 -0.53065,0.08856 -0.55665,0.101562 l -5.55859,2.88086 c -0.0729,0.03125 -0.70703,0.311196 -0.70703,0.910156 0,0.531253 0.37956,0.828116 0.57227,0.90625 l 5.40039,2.958984 c 0.0312,0.01563 0.32291,0.15625 0.67187,0.15625 0.22396,0 0.42188,-0.05798 0.59375,-0.162109 0.45319,-0.27604 0.56836,-0.728519 0.56836,-0.947266 v -5.837891 c 0,-0.05208 -0.0156,-0.50651 -0.5,-0.839843 -0.14063,-0.09764 -0.31737,-0.127452 -0.48437,-0.126953 z"
         transform="matrix(0.75,0,0,0.75,137.26175,283.20184)"
         inkscape:label="Icon" />
    </g>
    <g
       id="g1292"
       style="display:inline"
       inkscape:label="Start Button"
       transform="matrix(3.50054,0,0,3.50054,-2660.2363,-781.13604)"
       inkscape:export-filename="C:\Users\AL200\OneDrive\Pictures\AL2009man Work Projects\VSCView - Controller Theme Layout\VSCView - Controller Theme (Ver. 1.10)\Steam Controller Controller Images\Steam Controller Template\Steam Controller Model Overlay.png"
       inkscape:export-xdpi="89.348557"
       inkscape:export-ydpi="89.348557">
      <path
         style="display:inline;fill:#211e1e;fill-opacity:1;stroke:none;stroke-width:0.727786;stroke-linecap:round;stroke-linejoin:round;stroke-miterlimit:4;stroke-dasharray:none;stroke-opacity:1;paint-order:normal"
         d="m 327.01231,353.1482 c -1.67171,-0.62718 -2.866,-2.09071 -3.14827,-3.85803 -0.38048,-2.38212 1.40192,-4.88377 3.81224,-5.35064 0.27603,-0.0535 2.88206,-0.10095 5.8292,-0.10621 4.77806,-0.009 5.39576,0.008 5.9651,0.16221 1.87723,0.50753 3.26218,2.04876 3.56938,3.97213 0.37249,2.33212 -1.20284,4.66166 -3.60243,5.32717 -0.41815,0.11596 -1.55237,0.13826 -6.14136,0.12074 l -5.62851,-0.0215 z"
         id="path91059-7"
         inkscape:label="Color" />
      <path
         style="display:inline;fill:#0d0d0d;fill-opacity:1;fill-rule:nonzero;stroke:none"
         d="m 328.95703,344.11328 c -2.51953,0 -4.56641,2.05078 -4.56641,4.56641 0,2.52343 2.04688,4.57031 4.56641,4.57031 h 9.12109 c 2.51954,0 4.57032,-2.04688 4.57032,-4.57031 0,-2.51563 -2.05078,-4.56641 -4.57032,-4.56641 z m 9.12109,10.23438 h -9.12109 c -3.125,0 -5.66797,-2.53907 -5.66797,-5.66797 0,-3.125 2.54297,-5.66797 5.66797,-5.66797 h 9.12109 c 3.125,0 5.66797,2.54297 5.66797,5.66797 0,3.1289 -2.54297,5.66797 -5.66797,5.66797"
         id="path910"
         inkscape:label="Outline" />
      <path
         id="path83412-1"
         style="display:inline;fill:#dcdcdc;fill-opacity:1;stroke:none;stroke-width:0.36137;stroke-linecap:round;stroke-linejoin:round;stroke-miterlimit:4;stroke-dasharray:none;stroke-opacity:1;paint-order:normal"
         d="m 331.97218,345.86858 c 0.20875,6.2e-4 0.39799,0.0664 0.41749,0.0762 l 4.16894,2.16065 c 0.0547,0.0234 0.53027,0.2334 0.53027,0.68262 0,0.39844 -0.28467,0.62108 -0.4292,0.67968 l -4.05029,2.21924 c -0.0234,0.0117 -0.24218,0.11719 -0.5039,0.11719 -0.16797,0 -0.31641,-0.0435 -0.44532,-0.12158 -0.33989,-0.20703 -0.42627,-0.54639 -0.42627,-0.71045 v -4.37842 c 0,-0.0391 0.0117,-0.37988 0.375,-0.62988 0.10548,-0.0732 0.23803,-0.0956 0.36328,-0.0952 z"
         inkscape:label="Icon" />
    </g>
  </g>
</svg>
