<?xml version="1.0" encoding="UTF-8" standalone="no"?>
<svg
   width="208.51801mm"
   height="139.07718mm"
   viewBox="0 0 208.51801 139.07719"
   version="1.1"
   id="svg8"
   sodipodi:docname="DualSense Gyro-Acel.svg"
   inkscape:version="1.1 (c68e22c387, 2021-05-23)"
   inkscape:export-filename="C:\Users\AL200\OneDrive\Pictures\AL2009man Work Projects\VSCView - Controller Theme Layout\VSCView - Controller Theme (Ver. 1.20)\DualSense Controller Image\Image Assets\DualSense_Gyro-Accel.png"
   inkscape:export-xdpi="31.701454"
   inkscape:export-ydpi="31.701454"
   xmlns:inkscape="http://www.inkscape.org/namespaces/inkscape"
   xmlns:sodipodi="http://sodipodi.sourceforge.net/DTD/sodipodi-0.dtd"
   xmlns="http://www.w3.org/2000/svg"
   xmlns:svg="http://www.w3.org/2000/svg"
   xmlns:rdf="http://www.w3.org/1999/02/22-rdf-syntax-ns#"
   xmlns:cc="http://creativecommons.org/ns#"
   xmlns:dc="http://purl.org/dc/elements/1.1/">
  <defs
     id="defs2">
    <linearGradient
       id="linearGradient891"
       inkscape:swatch="solid">
      <stop
         style="stop-color:#000000;stop-opacity:1;"
         offset="0"
         id="stop889" />
    </linearGradient>
    <linearGradient
       id="linearGradient883"
       inkscape:swatch="solid">
      <stop
         style="stop-color:#25d1f5;stop-opacity:1;"
         offset="0"
         id="stop881" />
    </linearGradient>
    <linearGradient
       id="linearGradient851"
       inkscape:swatch="solid">
      <stop
         style="stop-color:#ffffff;stop-opacity:1;"
         offset="0"
         id="stop849" />
    </linearGradient>
    <linearGradient
       id="linearGradient1709"
       inkscape:swatch="solid">
      <stop
         style="stop-color:#24d2f6;stop-opacity:0.58299595;"
         offset="0"
         id="stop1707" />
    </linearGradient>
    <filter
       style="color-interpolation-filters:sRGB"
       inkscape:label="Drop Shadow"
       id="filter1677"
       x="-0.019344436"
       width="1.0386889"
       y="-0.030025028"
       height="1.0600501">
      <feFlood
         flood-opacity="0.498039"
         flood-color="rgb(0,0,0)"
         result="flood"
         id="feFlood1667" />
      <feComposite
         in="flood"
         in2="SourceGraphic"
         operator="in"
         result="composite1"
         id="feComposite1669" />
      <feOffset
         dx="0"
         dy="0"
         result="offset"
         id="feOffset1673" />
      <feComposite
         in="SourceGraphic"
         in2="offset"
         operator="over"
         result="composite2"
         id="feComposite1675" />
    </filter>
    <filter
       style="color-interpolation-filters:sRGB"
       inkscape:label="Drop Shadow"
       id="filter2039"
       x="-0.050983097"
       width="1.1019661"
       y="-0.050977685"
       height="1.1019554">
      <feFlood
         flood-opacity="0.501961"
         flood-color="rgb(0,0,0)"
         result="flood"
         id="feFlood2029" />
      <feComposite
         in="flood"
         in2="SourceGraphic"
         operator="in"
         result="composite1"
         id="feComposite2031" />
      <feOffset
         dx="0"
         dy="0"
         result="offset"
         id="feOffset2035" />
      <feComposite
         in="SourceGraphic"
         in2="offset"
         operator="over"
         result="composite2"
         id="feComposite2037" />
    </filter>
    <filter
       style="color-interpolation-filters:sRGB"
       inkscape:label="Drop Shadow"
       id="filter2039-8"
       x="0"
       width="1"
       y="0"
       height="1">
      <feFlood
         flood-opacity="0.501961"
         flood-color="rgb(0,0,0)"
         result="flood"
         id="feFlood2029-8" />
      <feComposite
         in="flood"
         in2="SourceGraphic"
         operator="in"
         result="composite1"
         id="feComposite2031-1" />
      <feOffset
         dx="0"
         dy="0"
         result="offset"
         id="feOffset2035-8" />
      <feComposite
         in="SourceGraphic"
         in2="offset"
         operator="over"
         result="composite2"
         id="feComposite2037-0" />
    </filter>
  </defs>
  <sodipodi:namedview
     id="base"
     pagecolor="#ffffff"
     bordercolor="#666666"
     borderopacity="1.0"
     inkscape:pageopacity="0.0"
     inkscape:pageshadow="2"
     inkscape:zoom="0.1767767"
     inkscape:cx="-364.8671"
     inkscape:cy="616.59711"
     inkscape:document-units="mm"
     inkscape:current-layer="layer1"
     inkscape:document-rotation="0"
     showgrid="false"
     inkscape:window-width="1920"
     inkscape:window-height="995"
     inkscape:window-x="-9"
     inkscape:window-y="-9"
     inkscape:window-maximized="1"
     inkscape:pagecheckerboard="0" />
  <metadata
     id="metadata5">
    <rdf:RDF>
      <cc:Work
         rdf:about="">
        <dc:format>image/svg+xml</dc:format>
        <dc:type
           rdf:resource="http://purl.org/dc/dcmitype/StillImage" />
        <dc:title />
      </cc:Work>
    </rdf:RDF>
  </metadata>
  <g
     inkscape:label="Gyro Controller "
     inkscape:groupmode="layer"
     id="layer1"
     transform="translate(-285.96498,-80.517837)">
    <path
       style="display:inline;fill:#107893;fill-opacity:1;stroke:#25d1f5;stroke-width:2.3;stroke-linecap:round;stroke-linejoin:round;stroke-miterlimit:4;stroke-dasharray:none;stroke-opacity:1"
       d="m 312.3021,217.85808 c -1.44954,-0.30583 -3.50098,-0.67952 -4.55875,-0.83038 -1.05777,-0.15087 -2.41675,-0.37141 -3.01994,-0.49008 -0.60319,-0.11865 -1.59686,-0.20385 -2.20815,-0.18929 -0.9578,0.0228 -1.25108,-0.0336 -2.12167,-0.40786 -0.55564,-0.23887 -1.45314,-0.74707 -1.99446,-1.12931 -1.26124,-0.8906 -4.20066,-3.81091 -5.22654,-5.19258 -1.01965,-1.37327 -2.21514,-3.7801 -2.86581,-5.76968 -0.60031,-1.83547 -1.50339,-6.08824 -1.93389,-9.10688 -0.16678,-1.16946 -0.33194,-2.17275 -0.36705,-2.22954 -0.0977,-0.15808 -0.59294,-5.03498 -0.78734,-7.75337 -0.19671,-2.75068 -0.0912,-13.09604 0.15182,-14.88717 0.0797,-0.58765 0.23985,-2.38266 0.35582,-3.98893 0.32773,-4.53919 0.8411,-9.07773 1.2811,-11.32565 0.10735,-0.54847 0.26545,-1.44599 0.35134,-1.99445 0.52818,-3.37283 1.377,-7.71956 2.18384,-11.1832 0.19164,-0.82272 0.45953,-2.00871 0.59529,-2.63553 0.44181,-2.03971 2.91047,-11.84863 3.12429,-12.41386 0.11445,-0.30257 0.34986,-1.06296 0.52315,-1.6898 1.5388,-5.56618 6.19224,-17.86291 9.35365,-24.716995 2.40737,-5.219313 3.61327,-7.549094 4.01473,-7.756385 0.20382,-0.105245 0.86799,-0.274827 1.47594,-0.376852 0.60793,-0.102023 1.16677,-0.223471 1.24187,-0.269879 0.0751,-0.0464 0.23393,-0.722967 0.35301,-1.503463 0.36836,-2.414626 0.50834,-2.690739 1.67668,-3.307327 0.29175,-0.153973 0.50011,-0.310308 0.463,-0.347414 -0.0372,-0.0371 0.0126,-0.071 0.1106,-0.07534 0.098,-0.0043 0.84608,-0.370514 1.66252,-0.813739 1.53099,-0.831119 1.84856,-0.972523 4.14278,-1.844597 2.17468,-0.826638 5.1272,-1.562095 7.19429,-1.792058 3.53778,-0.393581 10.4655,-0.04849 11.63947,0.579795 0.30119,0.161191 0.60094,1.186216 0.83758,2.864117 l 0.17506,1.241276 0.76138,0.170389 c 0.41876,0.09371 0.76138,0.211247 0.76138,0.261184 0,0.110496 0.55996,0.08877 0.85476,-0.03317 0.3218,-0.133098 2.42866,-0.494707 4.28566,-0.735562 2.06124,-0.267346 4.13456,-0.585136 5.6154,-0.860708 2.2071,-0.410722 4.71431,-0.771972 5.91213,-0.851848 6.57505,-0.438459 14.5255,-0.868304 19.5884,-1.059057 3.61909,-0.136355 21.06064,-0.145638 24.64578,-0.01312 3.07592,0.1137 9.78797,0.46298 13.81675,0.718994 1.25257,0.0796 3.23092,0.205429 4.39631,0.279628 2.07857,0.132338 5.3149,0.52823 7.57239,0.926312 0.62684,0.110534 1.81282,0.269897 2.63554,0.354139 1.53582,0.157264 4.79847,0.707601 6.3688,1.074281 1.10551,0.258144 1.60387,0.255139 1.95677,-0.01178 0.15211,-0.115039 0.4506,-0.209162 0.66333,-0.209162 0.35988,0 0.39322,-0.05203 0.47928,-0.747921 0.25116,-2.030704 0.56273,-3.187275 0.90727,-3.367884 0.13084,-0.0686 0.91102,-0.244395 1.73374,-0.390676 1.24722,-0.22176 2.22989,-0.265966 5.91213,-0.265966 4.10177,0 4.52753,0.02391 5.97819,0.335631 0.85902,0.184597 1.72447,0.398305 1.92321,0.474908 0.19875,0.0766 0.94402,0.287873 1.65618,0.469493 0.71215,0.18162 1.62355,0.4968 2.02532,0.700398 0.40179,0.203599 0.82067,0.370179 0.93085,0.370179 0.28122,0 3.66706,1.712394 4.8665,2.461253 1.31754,0.822579 1.59123,1.245837 1.70395,2.635252 0.0492,0.605305 0.15711,1.366501 0.24,1.691548 0.16395,0.643078 0.14942,0.635806 2.1162,1.058875 0.43094,0.0927 0.89648,0.226838 1.03451,0.298084 0.27918,0.144104 1.32967,2.146606 2.49056,4.747719 0.41964,0.940243 0.888,1.981996 1.04079,2.314999 0.15281,0.333001 0.41242,0.909959 0.57694,1.282129 0.16452,0.37218 0.35587,0.80491 0.42526,0.96161 0.78783,1.77952 2.34759,5.44093 2.57925,6.05461 0.16269,0.43094 0.3459,0.84764 0.40715,0.92601 0.0611,0.0784 0.26961,0.56291 0.46301,1.07679 0.19343,0.5139 0.51943,1.30112 0.72447,1.74939 0.20504,0.44824 0.37279,0.88232 0.37279,0.96456 0,0.0823 0.15476,0.54515 0.34393,1.02863 0.70283,1.79652 1.90985,5.19343 2.28655,6.43505 0.21394,0.70518 0.70646,2.33991 1.09449,3.63275 0.38802,1.29284 0.86907,2.89553 1.06899,3.56153 0.60157,2.00386 1.31891,4.64912 1.69552,6.25228 0.8094,3.44546 1.21095,5.13881 1.49019,6.28429 0.2701,1.10804 0.53382,2.35537 1.20486,5.69845 0.13367,0.66601 0.33412,1.65966 0.44542,2.20814 0.26397,1.30072 0.89533,4.80222 1.14308,6.33952 0.10733,0.66601 0.35415,2.62128 0.54852,4.34506 0.19436,1.72379 0.48121,3.99961 0.63746,5.05738 0.5115,3.46279 0.91368,12.15478 0.80748,17.45149 -0.0811,4.0467 -0.59647,10.91684 -0.92435,12.32289 -0.0823,0.35259 -0.3455,1.86887 -0.5851,3.36953 -1.37255,8.597 -3.05337,12.35368 -7.35251,16.43305 -2.83518,2.69023 -4.99368,3.8266 -6.96757,3.66816 -0.53807,-0.0433 -1.35691,0.0103 -1.95817,0.12789 -0.56836,0.11117 -1.83473,0.32433 -2.81414,0.47367 -3.17021,0.4834 -6.70086,1.13606 -6.99382,1.29284 -0.6709,0.35906 -1.73754,-0.42779 -2.74821,-2.02734 -1.36854,-2.16593 -3.14674,-5.62991 -3.72508,-7.2565 -0.10073,-0.28348 -0.25214,-0.63608 -0.33637,-0.78355 -0.14707,-0.25755 -0.84274,-1.92941 -1.74173,-4.18579 -0.23412,-0.58764 -0.48418,-1.19668 -0.55571,-1.35338 -0.43882,-0.96161 -0.85196,-1.9782 -0.85196,-2.09634 0,-0.0757 -0.2531,-0.72483 -0.56246,-1.44251 -0.53827,-1.2487 -1.07543,-2.62516 -2.42723,-6.21973 -0.98564,-2.62094 -1.97395,-5.23168 -2.56167,-6.76691 -0.29995,-0.78354 -0.59151,-1.58489 -0.64787,-1.78077 -0.20625,-0.71658 -1.37643,-3.51745 -1.87487,-4.48752 -1.09191,-2.12511 -2.78115,-4.20178 -5.01691,-6.16761 -1.84184,-1.61945 -4.77274,-3.03138 -7.5918,-3.65723 -1.55975,-0.34628 -3.83434,-0.23557 -6.88341,0.33505 -3.6333,0.67996 -4.9841,0.76434 -9.25996,0.5785 -3.12649,-0.13589 -29.07729,-0.1219 -61.0446,0.0329 -1.98306,0.009 -3.19492,-0.13284 -6.3545,-0.74689 -2.42732,-0.47176 -3.49237,-0.5106 -5.53965,-0.20203 -3.85571,0.58114 -6.69795,2.07304 -9.64585,5.06315 -2.14071,2.17137 -3.66682,4.53596 -4.68385,7.25723 -0.69349,1.85563 -1.50361,3.99586 -2.2648,5.98337 -0.40512,1.05778 -0.98581,2.59636 -1.29041,3.41908 -0.30461,0.82271 -0.80314,2.16896 -1.10783,2.99168 -0.30471,0.82272 -0.69018,1.7931 -0.85664,2.15641 -0.16645,0.36332 -0.40491,0.97233 -0.52989,1.35339 -0.125,0.38103 -0.34153,0.94922 -0.48122,1.26264 -0.13966,0.31342 -0.43427,1.05066 -0.65468,1.63831 -0.22041,0.58765 -0.48193,1.19667 -0.58117,1.35338 -0.0992,0.1567 -0.33728,0.70161 -0.52897,1.21092 -0.1917,0.50929 -0.51379,1.27858 -0.71578,1.70952 -0.20198,0.43096 -0.53353,1.2323 -0.73678,1.78078 -0.20325,0.54847 -0.45284,1.12544 -0.55463,1.28213 -0.10176,0.15672 -0.26909,0.54137 -0.37176,0.85477 -0.18967,0.57909 -1.24085,2.92527 -1.65951,3.70399 -1.76042,3.27436 -2.85382,4.79184 -3.7106,5.14983 -0.25336,0.10587 -0.5108,0.18414 -0.57208,0.17397 -0.0612,-0.0102 -1.2974,-0.26874 -2.74695,-0.57459 z"
       id="path887"
       inkscape:label="Controller"
       inkscape:export-filename="C:\Users\AL200\OneDrive\Pictures\VSCView - DS4 Layout image update\VSCView - PlayStation Controller Layout (Ver. 1.02)\DualSense Controller Image\VSCView Image Assets\DualSense_Gyro-Accel.png"
       inkscape:export-xdpi="31.701454"
       inkscape:export-ydpi="31.701454" />
    <path
       id="path17403"
       style="color:#000000;display:inline;mix-blend-mode:normal;fill:#f5f5f5;fill-opacity:1;stroke-width:1.51174;-inkscape-stroke:none;filter:url(#filter2039-8)"
       d="m 392.18164,79.720703 c -1.60985,0.001 -3.21584,0.04094 -4.81836,0.121094 -19.23025,0.9619 -37.86318,7.590987 -53.79492,19.367187 -5.79493,4.283356 -15.61306,14.101516 -19.89648,19.896486 -20.90168,28.2775 -25.29947,64.4297 -11.76758,96.72656 3.55471,8.48413 7.92624,15.73085 14.1582,23.47852 l 3.13281,3.89648 -4.47461,4.48828 c -2.22578,2.23204 -3.49824,3.46476 -4.28125,4.06055 -0.78304,0.59582 -0.86439,0.57015 -1.34179,0.5 -4.23852,-0.6221 -8.87832,2.53672 -10.06836,6.78711 -2.00071,7.14581 4.34815,13.80328 11.40429,11.91601 4.41332,-1.18039 6.97516,-4.46528 7.14258,-9.12695 l 0.0781,-2.09765 4.65234,-4.65235 4.38281,-4.38281 4.04688,3.26172 c 14.93538,12.01958 33.38464,19.60822 51.86523,21.33008 24.4918,2.2819 48.33691,-4.38195 68.19532,-19.06055 5.79489,-4.28335 15.60528,-14.10159 19.88867,-19.89649 26.6441,-36.04639 25.86803,-85.00069 -1.91211,-119.61132 l -3.60352,-4.4961 4.4668,-4.48242 c 2.22458,-2.23094 3.50642,-3.46512 4.28906,-4.06055 0.78265,-0.59538 0.86436,-0.56823 1.3418,-0.49804 4.23855,0.62209 8.87249,-2.53672 10.0625,-6.787112 2.00071,-7.145849 -4.34038,-13.805194 -11.39649,-11.917969 -4.41331,1.180397 -6.98257,4.4731 -7.15039,9.134765 l -0.0723,2.089844 -4.63867,4.638672 -4.36719,4.36719 -4.06836,-3.2461 C 439.73766,90.363098 423.75962,83.321638 406.7168,80.791016 c -4.84837,-0.719918 -9.70561,-1.073427 -14.53516,-1.070313 z m -0.57031,10.34375 c 1.88364,-0.0089 3.76737,0.04256 5.64844,0.154297 15.04854,0.893866 29.91255,5.64014 42.93945,14.15039 16.31809,10.66033 28.92581,26.98887 35.03906,45.38086 9.33174,28.07497 4.29033,58.12884 -13.70898,81.69531 -2.78197,3.64251 -10.27381,11.28712 -14.09375,14.37305 -13.22245,10.68185 -29.36503,17.31706 -46.58594,19.1543 -19.37402,2.06699 -40.17905,-3.05491 -56.91211,-14.02344 -9.51355,-6.23613 -18.69265,-15.42455 -24.97656,-24.99024 -19.23836,-29.28554 -19.23778,-67.1791 0,-96.47656 3.52632,-5.37032 5.28765,-7.53155 10.47656,-12.85937 7.42511,-7.62388 14.29442,-12.66056 23.76953,-17.419925 12.04876,-6.052097 25.2188,-9.07602 38.4043,-9.138672 z m 25.50195,19.402347 c -1.83072,0.0402 -3.69566,0.1663 -5.59375,0.37695 -5.06157,0.56174 -10.35376,1.72561 -15.78711,3.50977 -5.92803,1.94659 -14.94576,6.20199 -20.50976,9.66992 l -3.13282,1.95508 -2.74023,-1.46875 c -8.6932,-4.65644 -16.45171,-6.89898 -23.19922,-6.60938 -6.6976,0.28755 -10.8506,2.67388 -13.33789,7.75781 -1.83589,3.75231 -2.03577,9.65025 -0.68555,15.32227 2.89696,12.16968 12.70819,28.59771 26.92578,45.30859 5.15533,6.05947 19.50308,20.40522 25.5625,25.56055 16.24447,13.82072 32.15319,23.44977 44.30274,26.69727 l 0.94922,0.25 v -0.13477 c 2.45254,0.56199 5.11705,0.93569 7.64843,0.91406 2.84548,-0.0256 5.4436,-0.38829 7.23633,-1.19922 2.86239,-1.29472 5.78975,-4.23178 7.07227,-7.08789 1.45341,-3.23653 1.63111,-9.36983 0.58594,-14.10742 -0.93322,-4.2303 -3.61236,-11.17876 -6.00977,-15.62891 l -1.47656,-2.74023 1.95508,-3.13281 c 1.2371,-1.98489 3.47648,-6.14088 5.03125,-9.32813 12.32715,-25.27056 11.28913,-50.0761 -2.9961,-64.36133 -7.91909,-7.91906 -18.9857,-11.8048 -31.80078,-11.52343 z m 2.99024,10.21875 c 3.10539,-0.0189 4.45912,0.17706 6.9375,0.76953 11.44703,2.73633 19.11803,10.06596 22.20703,21.20117 0.49812,1.79482 0.80868,6.03997 0.81445,10.32617 0.007,4.28624 -0.27778,8.71578 -0.79297,10.97656 -1.43781,6.31078 -3.56962,12.08624 -7.00781,18.96094 -0.95437,1.90835 -1.86653,3.63904 -2.55469,4.88867 -0.29267,0.53127 -0.51646,0.91583 -0.71289,1.24219 -0.0183,-0.0219 -0.0258,-0.03 -0.043,-0.0508 -0.34821,-0.43575 -0.80465,-1.05933 -1.25586,-1.74219 -11.76136,-17.79854 -36.19311,-42.22357 -54.05859,-54.05078 -0.68666,-0.4546 -1.30795,-0.89603 -1.74805,-1.23437 -0.0398,-0.0292 -0.0549,-0.0414 -0.0918,-0.0703 0.22872,-0.15382 0.46414,-0.31571 0.88476,-0.55664 1.10429,-0.63254 2.86859,-1.55717 5.41602,-2.83984 5.80643,-2.92377 10.26921,-4.63185 16.1914,-6.19531 4.33001,-1.1432 5.99904,-1.35588 12.01758,-1.54102 1.53105,-0.047 2.76174,-0.0777 3.79688,-0.084 z m -73.31836,7.34961 c 2.07377,-0.0265 4.78573,0.45881 8.00781,1.5039 1.79917,0.58351 4.00153,1.44815 5.73047,2.21289 0.86449,0.38237 1.61328,0.73628 2.125,1.01367 0.0592,0.0329 0.0763,0.0482 0.1289,0.0781 -0.10084,0.0994 -0.16948,0.17166 -0.29882,0.29297 -0.52454,0.49001 -1.25987,1.13208 -2.07032,1.79883 -1.68476,1.38599 -4.6169,4.10056 -6.58593,6.09375 l -3.92579,3.96875 2.41211,4.64453 2.62696,5.07422 5.88086,-5.92969 c 3.04358,-3.07321 5.97175,-5.77654 8.23437,-7.65039 1.13133,-0.93695 2.09534,-1.67012 2.80469,-2.12695 0.35478,-0.22837 0.64885,-0.38543 0.83398,-0.46289 0.0613,-0.0256 0.0825,-0.0203 0.11133,-0.0215 0.16644,0.0861 0.65334,0.35441 1.3086,0.76953 0.75385,0.47752 1.71987,1.11112 2.7832,1.83399 2.12666,1.44577 4.64644,3.2356 6.65234,4.74023 13.40463,10.05475 27.59332,23.90635 38.19336,37.30078 3.47488,4.39092 8.99443,12.13952 10.26953,14.36524 l 0.54883,0.95703 -2.27539,2.83203 c -1.37419,1.71509 -4.98218,5.61292 -7.93555,8.54883 l -6.13867,6.10156 5.06055,2.62695 4.63086,2.39844 3.53906,-3.47656 c 1.75766,-1.72924 4.47716,-4.66514 6.10156,-6.57813 0.79343,-0.93435 1.55535,-1.78477 2.12696,-2.39258 0.17136,-0.18232 0.2815,-0.28677 0.41406,-0.41992 l 0.0156,0.0215 c 0.24846,0.44971 0.57538,1.12733 0.9336,1.92773 0.7164,1.6008 1.56649,3.71636 2.26367,5.72266 0.64541,1.85759 1.10879,4.27543 1.29883,6.4375 0.18999,2.16206 0.0496,4.13639 -0.24414,4.8457 -0.21485,0.51895 -1.02138,1.40276 -1.45508,1.62695 -0.48932,0.25285 -2.10419,0.51631 -3.8457,0.51368 -1.74152,-0.003 -3.68639,-0.20723 -5.08985,-0.58594 -10.67381,-2.8811 -24.47009,-11.13742 -39.95508,-24.01367 -6.15866,-5.1211 -20.89143,-19.9324 -26.20507,-26.35352 -11.50999,-13.90878 -18.73704,-25.48319 -22.4375,-35.85351 -0.80508,-2.25648 -1.35352,-4.80121 -1.58985,-7.0293 -0.2364,-2.22805 -0.11186,-4.17674 0.24219,-5.03125 0.54946,-1.32651 1.7648,-2.08619 3.92383,-2.28321 v -0.002 c 0.26988,-0.0246 0.55335,-0.0372 0.84961,-0.041 z m 25.59179,25.20507 c -1.15379,-0.0365 -2.15482,0.21343 -3.10547,0.70508 -1.73409,0.89672 -2.51821,2.76117 -2.45507,4.96094 0.0632,2.19977 0.87001,4.83786 2.27734,7.79883 2.81467,5.92201 8.06775,13.12833 15.02148,20.08203 4.18923,4.18923 8.89627,8.05978 13.3086,11.06836 4.41233,3.00858 8.50577,5.15613 11.61914,5.87305 3.04277,0.70061 5.44924,0.47732 6.97265,-0.89844 1.52342,-1.37573 1.88524,-3.69906 1.26954,-6.61524 -1.46076,-6.91818 -8.02124,-16.18764 -16,-24.42773 -7.97877,-8.24009 -17.34584,-15.38685 -24.74219,-17.68359 -1.71411,-0.53225 -3.01222,-0.8277 -4.16602,-0.86329 z m -36.0332,11.47461 c -0.2934,-0.011 -0.44915,0.10026 -0.54883,0.17188 -0.10084,0.0723 -0.15968,0.1387 -0.2207,0.20703 -0.1224,0.13665 -0.2305,0.28075 -0.34961,0.46289 -0.23823,0.36465 -0.51747,0.85591 -0.83594,1.45703 -0.63697,1.20225 -1.42785,2.84437 -2.2539,4.65235 -1.65214,3.61587 -3.43211,7.88048 -4.32422,10.60351 -5.50833,16.81366 -4.96779,32.03094 0.69922,43.51758 5.667,11.4866 16.49149,19.18217 31.22851,20.90234 12.13943,1.41691 26.07677,-1.45193 40.0918,-8.1914 1.64414,-0.79065 3.14006,-1.55605 4.23047,-2.14844 0.54518,-0.29632 0.98988,-0.54616 1.31445,-0.75 0.16223,-0.10194 0.28922,-0.18527 0.40625,-0.27734 0.0585,-0.046 0.10904,-0.0962 0.17773,-0.17188 0.0329,-0.0376 0.0754,-0.0782 0.1211,-0.1582 0.0219,-0.0402 0.0507,-0.0941 0.0723,-0.16211 0.011,-0.0329 0.0293,-0.11377 0.0293,-0.11524 2.9e-4,-0.002 0.008,-0.14893 0.008,-0.15039 v -0.006 c -1.4e-4,-0.003 -0.0147,-0.13109 -0.0293,-0.17968 -0.0146,-0.0486 -0.0294,-0.0882 -0.043,-0.1211 -0.0292,-0.0658 -0.0604,-0.11153 -0.0859,-0.14843 -0.0515,-0.0742 -0.0973,-0.11766 -0.14258,-0.16407 -0.0902,-0.0932 -0.18459,-0.17648 -0.30078,-0.27148 -0.23238,-0.19036 -0.54369,-0.42149 -0.91992,-0.68555 -0.75243,-0.52812 -1.77001,-1.19537 -2.89063,-1.88476 l -4.38086,-2.68946 -4.16796,1.92578 c -4.47047,2.06652 -11.32274,4.38655 -15.80664,5.35938 -5.11591,1.10991 -14.90092,1.33587 -19.16797,0.47266 -12.63423,-2.5558 -20.96609,-10.88349 -23.52149,-23.51563 -1.04323,-5.1569 -0.66619,-14.73981 0.85547,-20.81641 1.24412,-4.96833 3.69971,-11.79894 5.53125,-15.44336 l 1.41211,-2.82617 -2.71875,-4.41601 c -0.69404,-1.12808 -1.36064,-2.15464 -1.89062,-2.91211 -0.26491,-0.37872 -0.49544,-0.68637 -0.68555,-0.91992 -0.095,-0.11693 -0.17709,-0.21603 -0.26953,-0.30665 -0.0464,-0.0453 -0.0899,-0.0923 -0.16407,-0.14453 -0.0369,-0.0256 -0.0835,-0.0537 -0.15039,-0.084 -0.0329,-0.0146 -0.0714,-0.0295 -0.12109,-0.043 -0.0479,-0.0146 -0.16763,-0.0256 -0.17969,-0.0293 z m 49.52734,7.70118 c 0.18233,0.011 0.46078,0.0377 0.86329,0.0918 1.71114,0.22946 4.85452,2.35092 7.36523,4.89649 1.25537,1.27276 2.38199,2.63797 3.17578,3.88867 0.79383,1.25069 1.22656,2.40063 1.22656,3.06055 0,0.31641 -0.011,0.5383 -0.0293,0.65625 -0.11802,0.0183 -0.33987,0.0371 -0.65625,0.0371 -0.66657,0 -1.88512,-0.47681 -3.19727,-1.33399 -1.31215,-0.85718 -2.75094,-2.05937 -4.06836,-3.38281 -1.31741,-1.32345 -2.51369,-2.77137 -3.36719,-4.08985 -0.85345,-1.31851 -1.32812,-2.53728 -1.32812,-3.21093 0,-0.30144 0.005,-0.4725 0.0156,-0.61328 z"
       transform="matrix(0.26458333,0,0,0.26458333,286.46538,81.018474)"
       inkscape:label="Gyro Icon" />
  </g>
</svg>
