<?xml version="1.0" encoding="UTF-8" standalone="no"?>
<!-- Generator: Adobe Illustrator 24.2.3, SVG Export Plug-In . SVG Version: 6.00 Build 0)  -->

<svg
   version="1.1"
   id="Layer_1"
   x="0px"
   y="0px"
   viewBox="0 0 49.400002 40.825485"
   xml:space="preserve"
   sodipodi:docname="Xbox_Series_X_S_black.svg"
   width="49.400002"
   height="40.825485"
   inkscape:version="1.1 (c68e22c387, 2021-05-23)"
   xmlns:inkscape="http://www.inkscape.org/namespaces/inkscape"
   xmlns:sodipodi="http://sodipodi.sourceforge.net/DTD/sodipodi-0.dtd"
   xmlns="http://www.w3.org/2000/svg"
   xmlns:svg="http://www.w3.org/2000/svg"><defs
   id="defs7" /><sodipodi:namedview
   id="namedview5"
   pagecolor="#ffffff"
   bordercolor="#666666"
   borderopacity="1.0"
   inkscape:pageshadow="2"
   inkscape:pageopacity="0.0"
   inkscape:pagecheckerboard="0"
   showgrid="false"
   inkscape:zoom="11.163636"
   inkscape:cx="11.510586"
   inkscape:cy="20.423453"
   inkscape:window-width="1920"
   inkscape:window-height="1005"
   inkscape:window-x="-9"
   inkscape:window-y="-9"
   inkscape:window-maximized="1"
   inkscape:current-layer="Layer_1" />
<path
   d="m 5,0.0254834 c 0.6,0 1.1,0.2 1.5,0.7 0.7,1.3 0.7,2.8 -0.1,4 -0.4,0.5 -1.1,0.8 -1.7,0.7 v 0 -1.2 0 c 0.4,0 0.8,-0.1 1,-0.4 0.2,-0.4 0.3,-0.8 0.3,-1.2 0,-0.3 -0.1,-0.7 -0.2,-1 -0.2,-0.2 -0.4,-0.4 -0.7,-0.3 -0.2,0 -0.5,0.1 -0.6,0.3 -0.2,0.3 -0.3,0.7 -0.4,1.1 l -0.1,0.6 c -0.1,0.6 -0.3,1.1 -0.7,1.6 -0.3,0.4 -0.8,0.5 -1.3,0.5 -0.5,0 -1,-0.2 -1.4,-0.6 -0.3,-0.7 -0.5,-1.3 -0.5,-2 0,-0.7 0.1,-1.4 0.6,-2 0.4,-0.5 1,-0.7 1.6,-0.7 v 0 1.2 0 c -0.4,0.1 -0.7,0.2 -0.9,0.5 -0.2,0.3 -0.3,0.7 -0.2,1 0,0.3 0.1,0.6 0.2,0.9 0.1,0.2 0.4,0.3 0.6,0.3 0.2,0 0.5,-0.1 0.6,-0.3 0.2,-0.3 0.3,-0.6 0.4,-1 l 0.1,-0.6 c 0,-0.6 0.3,-1.1 0.6,-1.6 0.4,-0.4 0.8,-0.6 1.3,-0.5 z M 3.7,35.925483 c -0.4,0.5 -0.6,1.1 -0.7,1.7 l -0.1,0.6 c -0.1,0.4 -0.2,0.7 -0.4,1 -0.1,0.2 -0.4,0.3 -0.6,0.3 -0.2,0 -0.5,-0.1 -0.6,-0.3 -0.2,-0.3 -0.2,-0.6 -0.2,-0.9 0,-0.4 0.1,-0.8 0.3,-1.1 0.2,-0.2 0.5,-0.4 0.8,-0.4 v 0 -1.2 0 c -0.6,0 -1.2,0.3 -1.6,0.7 -0.4,0.6 -0.6,1.3 -0.6,2 0,0.6 0.1,1.3 0.5,1.8 0.3,0.4 0.8,0.7 1.4,0.6 0.5,0 1,-0.2 1.3,-0.5 0.4,-0.5 0.6,-1 0.7,-1.6 l 0.1,-0.6 c 0.1,-0.4 0.2,-0.7 0.4,-1.1 0.1,-0.2 0.4,-0.3 0.6,-0.3 0.3,0 0.5,0.1 0.7,0.3 0.2,0.3 0.3,0.6 0.2,1 0,0.4 -0.1,0.8 -0.3,1.2 -0.2,0.3 -0.6,0.4 -1,0.4 v 0 1.2 0 c 0.7,0 1.3,-0.2 1.7,-0.7 0.8,-1.2 0.8,-2.8 0.1,-4 -0.4,-0.5 -0.9,-0.7 -1.5,-0.7 -0.4,0 -0.9,0.2 -1.2,0.6 z m 3.2,-16.1 v 1.3 0 c -0.2,0.1 -0.5,0.2 -0.8,0.2 H 5.4 c -0.3,0 -0.6,0.1 -0.8,0.3 -0.2,0.2 -0.3,0.5 -0.2,0.8 v 1.6 H 7 v 1.3 H 0.3 v -3 -0.4 0.1 c 0,-0.4 0.1,-0.9 0.4,-1.3 l -0.1,0.1 c 0,-0.1 0.1,-0.2 0.2,-0.2 0.3,-0.4 0.8,-0.6 1.4,-0.6 0.7,0 1.4,0.4 1.6,1.1 0.1,-0.3 0.3,-0.5 0.5,-0.7 0.3,-0.2 0.6,-0.2 0.9,-0.2 l 1,-0.1 c 0.2,-0.1 0.4,-0.1 0.7,-0.3 z m -4.6,1.5 c -0.3,0 -0.5,0.1 -0.7,0.3 -0.2,0.2 -0.3,0.5 -0.2,0.8 v 1.6 h 2 v -1.7 c 0,-0.3 -0.1,-0.6 -0.3,-0.8 -0.3,-0.2 -0.5,-0.3 -0.8,-0.2 z m -2,-4.1 h 6.6 v -1.3 H 0.3 Z M 1.4,8.0254834 H 0.3 V 12.925483 H 6.9 V 8.0254834 H 5.8 V 11.625483 H 4.1 V 8.3254834 H 3 V 11.625483 H 1.4 Z m 0,19.9999996 H 0.3 v 4.9 h 6.6 v -4.9 H 5.8 v 3.6 H 4.1 v -3.3 H 3 v 3.3 H 1.4 Z m 8.3,12.8 h 8.8 l 6.6,-9.1 -4.4,-6 z M 48.1,0.2254834 h -8.8 l -5.4,7.5 4.4,5.9999996 z m -28.4,0 H 10.9 L 40.6,40.825483 h 8.8 z"
   id="path2"
   sodipodi:nodetypes="cccsccscsccccscscscsccssccsccccccsccscscsccscscccscsscccsccsccscccsssscccccccccccsccccccscccscccccccccccccccccccccccccccccccccccccccccccccccc"
   inkscape:export-filename="C:\Users\AL200\OneDrive\Pictures\AL2009man Work Projects\VSCView - Controller Theme Layout\VSCView - Controller Theme (Ver. 1.10)\Xbox Wireless Controller Images\Theme Icon\path2.png"
   inkscape:export-xdpi="95.9851"
   inkscape:export-ydpi="95.9851" />
</svg>
