<?xml version="1.0" encoding="UTF-8" standalone="no"?>
<!-- Created with Inkscape (http://www.inkscape.org/) -->

<svg
   width="317.5mm"
   height="317.5mm"
   viewBox="0 0 317.5 317.5"
   version="1.1"
   id="svg5"
   inkscape:version="1.1 (c68e22c387, 2021-05-23)"
   sodipodi:docname="Xbox Icon  VSCView.svg"
   inkscape:export-filename="C:\Users\AL200\OneDrive\Pictures\AL2009man Work Projects\VSCView - Controller Theme Layout\VSCView - Controller Theme (Ver. 1.10)\Xbox Wireless Controller Images\Theme Icon\1200px-Xbox_one_logo.svg.png"
   inkscape:export-xdpi="1.28"
   inkscape:export-ydpi="1.28"
   xmlns:inkscape="http://www.inkscape.org/namespaces/inkscape"
   xmlns:sodipodi="http://sodipodi.sourceforge.net/DTD/sodipodi-0.dtd"
   xmlns="http://www.w3.org/2000/svg"
   xmlns:svg="http://www.w3.org/2000/svg">
  <sodipodi:namedview
     id="namedview7"
     pagecolor="#ffffff"
     bordercolor="#666666"
     borderopacity="1.0"
     inkscape:pageshadow="2"
     inkscape:pageopacity="0.0"
     inkscape:pagecheckerboard="0"
     inkscape:document-units="mm"
     showgrid="false"
     inkscape:zoom="0.37549453"
     inkscape:cx="861.53053"
     inkscape:cy="820.25163"
     inkscape:window-width="1920"
     inkscape:window-height="1005"
     inkscape:window-x="-9"
     inkscape:window-y="-9"
     inkscape:window-maximized="1"
     inkscape:current-layer="layer1" />
  <defs
     id="defs2" />
  <g
     inkscape:label="Layer 1"
     inkscape:groupmode="layer"
     id="layer1"
     transform="translate(36.765695,9.8273124)">
    <path
       style="color:#000000;display:inline;fill:#ffffff;fill-opacity:1;stroke-width:0;stroke-miterlimit:10;stroke-dasharray:none;paint-order:stroke fill markers"
       d="m 280.73429,148.92269 a 158.75,158.75 0 0 1 -158.75,158.75 158.75,158.75 0 0 1 -158.749985,-158.75 158.75,158.75 0 0 1 158.749985,-158.7500024 158.75,158.75 0 0 1 158.75,158.7500024 z"
       id="path23416-7" />
    <path
       id="path8160-9-5"
       style="display:inline;fill:#000000;fill-opacity:1;fill-rule:nonzero;stroke:none;stroke-width:1.85751"
       d="m 121.97741,-7.457374 c -31.501605,0 -57.782205,8.6388497 -81.824675,23.035316 l -0.22013,0.790362 0.72807,0.285703 c 26.86691,-6.9103043 69.448205,15.475506 80.962445,22.025918 l 0.35467,0.142263 0.29688,-0.142263 c 4.4174,-2.591364 50.47163,-28.7138463 80.74211,-22.235411 l 0.79514,-0.218954 -0.2873,-0.790365 C 179.55446,1.1827187 153.55188,-7.4572539 121.97783,-7.4572539 Z m 105.22914,44.032779 c -7.66701,0.01196 -25.72014,5.617452 -62.21395,41.84257 l -0.21113,0.50486 0.21113,0.428377 c 31.50161,37.502778 92.4802,126.906288 80.53135,163.761258 l 0.15603,0.79037 0.86222,-0.21888 c 20.05961,-26.34553 32.0171,-59.09489 32.0171,-94.79813 0,-43.47735 -17.81955,-82.854181 -46.56946,-111.215202 0.0441,0.04342 -1.29549,-1.10038 -4.78054,-1.095043 z m -210.477455,0.01822 c -3.48405,-0.01521 -4.81975,1.121212 -4.7518,1.076154 -28.74972,28.360995 -46.56947,67.737821 -46.56947,111.215171 0,35.70324 11.885,68.45258 32.0170895,94.79813 l 0.79516,0.21912 0.21088,-0.79033 C -13.517905,206.25702 47.537505,116.92974 79.038955,79.426915 l 0.21113,-0.437837 -0.2874,-0.50486 C 42.468475,42.259702 24.394055,36.627849 16.729185,36.594593 Z m 105.248315,81.342555 -0.50775,0.28571 C 74.615485,153.78124 -5.5488455,241.81781 18.855905,266.65176 c 27.59103,24.04209 63.65394,38.65246 103.121525,38.65246 39.46756,0 75.53594,-14.61037 103.05443,-38.65246 24.47726,-24.83395 -55.69252,-112.87051 -102.54673,-148.42975 z" />
  </g>
</svg>
