<?xml version="1.0" encoding="UTF-8" standalone="no"?>
<!-- Created with Inkscape (http://www.inkscape.org/) -->

<svg
   width="217.96533mm"
   height="416.35056mm"
   viewBox="0 0 217.96534 416.35056"
   version="1.1"
   id="svg5"
   inkscape:version="1.1 (c68e22c387, 2021-05-23)"
   sodipodi:docname="Xbox One Bumpers Active Press.svg"
   xmlns:inkscape="http://www.inkscape.org/namespaces/inkscape"
   xmlns:sodipodi="http://sodipodi.sourceforge.net/DTD/sodipodi-0.dtd"
   xmlns="http://www.w3.org/2000/svg"
   xmlns:svg="http://www.w3.org/2000/svg">
  <sodipodi:namedview
     id="namedview7"
     pagecolor="#ffffff"
     bordercolor="#666666"
     borderopacity="1.0"
     inkscape:pageshadow="2"
     inkscape:pageopacity="0.0"
     inkscape:pagecheckerboard="0"
     inkscape:document-units="mm"
     showgrid="false"
     inkscape:zoom="1"
     inkscape:cx="305.5"
     inkscape:cy="195"
     inkscape:window-width="1920"
     inkscape:window-height="1005"
     inkscape:window-x="-9"
     inkscape:window-y="-9"
     inkscape:window-maximized="1"
     inkscape:current-layer="g4491"
     inkscape:lockguides="true" />
  <defs
     id="defs2">
    <inkscape:path-effect
       effect="bspline"
       id="path-effect1130"
       is_visible="true"
       lpeversion="1"
       weight="33.333333"
       steps="2"
       helper_size="0"
       apply_no_weight="true"
       apply_with_weight="true"
       only_selected="false" />
    <inkscape:path-effect
       effect="bspline"
       id="path-effect9176"
       is_visible="true"
       lpeversion="1"
       weight="33.333333"
       steps="2"
       helper_size="0"
       apply_no_weight="true"
       apply_with_weight="true"
       only_selected="false" />
    <inkscape:path-effect
       effect="bspline"
       id="path-effect8617"
       is_visible="true"
       lpeversion="1"
       weight="33.333333"
       steps="2"
       helper_size="0"
       apply_no_weight="true"
       apply_with_weight="true"
       only_selected="false" />
    <inkscape:path-effect
       effect="bspline"
       id="path-effect7683"
       is_visible="true"
       lpeversion="1"
       weight="33.333333"
       steps="2"
       helper_size="0"
       apply_no_weight="true"
       apply_with_weight="true"
       only_selected="false" />
    <inkscape:path-effect
       effect="bspline"
       id="path-effect6758"
       is_visible="true"
       lpeversion="1"
       weight="33.333333"
       steps="2"
       helper_size="0"
       apply_no_weight="true"
       apply_with_weight="true"
       only_selected="false" />
    <inkscape:path-effect
       effect="bspline"
       id="path-effect47066"
       is_visible="true"
       lpeversion="1"
       weight="33.333333"
       steps="2"
       helper_size="0"
       apply_no_weight="true"
       apply_with_weight="true"
       only_selected="false" />
    <inkscape:path-effect
       effect="bspline"
       id="path-effect47070"
       is_visible="true"
       lpeversion="1"
       weight="33.333333"
       steps="2"
       helper_size="0"
       apply_no_weight="true"
       apply_with_weight="true"
       only_selected="false" />
  </defs>
  <g
     inkscape:label="Layer 1"
     id="layer1"
     transform="translate(-42.012637,38.513143)">
    <g
       id="g4495"
       inkscape:label="Bumpers"
       style="fill:#107893;fill-opacity:0.501961;stroke:#24d2f6;stroke-width:1.6;stroke-miterlimit:4.85714;stroke-dasharray:none;stroke-opacity:1">
      <path
         style="color:#000000;display:inline;fill:#107893;fill-opacity:0.501961;stroke:#24d2f6;stroke-width:1.6;stroke-linecap:round;stroke-linejoin:round;stroke-miterlimit:4.85714;stroke-dasharray:none;stroke-opacity:1"
         d="m 188.29283,31.909162 c -0.54065,-0.01 -1.15954,0.0041 -1.67069,0.03773 -0.51149,0.03368 -0.92779,0.09079 -1.42679,0.207221 -0.499,0.116435 -1.0931,0.292299 -1.78284,0.544153 -0.68977,0.251857 -1.46807,0.576897 -2.33111,0.957564 -0.86305,0.380675 -1.81113,0.817639 -2.6107,1.195795 -0.79957,0.378156 -1.44894,0.696756 -2.11667,1.024742 -0.66773,0.327983 -1.35858,0.667335 -2.08878,1.034563 -0.73019,0.367231 -1.49767,0.761151 -2.24739,1.148768 -0.74975,0.387617 -1.46945,0.762069 -2.20348,1.073319 -0.73401,0.311248 -1.50019,0.567603 -2.4443,0.839224 -0.94409,0.271619 -2.06182,0.556255 -2.87838,0.729155 -0.31144,0.06595 -0.59676,0.07112 -0.85783,0.110588 -0.10342,0.04147 -0.13499,0.12905 -0.1788,0.23151 -0.25175,0.588148 -0.50356,1.311241 -0.75655,1.898592 -0.003,0.0081 -0.007,0.01646 -0.01,0.02479 -0.1247,0.349928 -0.24937,0.698336 -0.37515,1.046964 -0.003,0.0077 -0.005,0.01543 -0.007,0.02326 -0.16367,0.550688 -0.3279,1.100088 -0.49247,1.648997 -0.0987,0.282687 -0.19698,0.564851 -0.29456,0.846458 -0.003,0.009 -0.006,0.01818 -0.008,0.02739 -0.12031,0.442402 -0.24,0.884205 -0.35917,1.325501 -0.12031,0.446527 -0.24046,0.892482 -0.35965,1.337903 0,0.0041 -0.003,0.0083 -0.003,0.01241 -0.11205,0.475422 -0.22394,0.950412 -0.33485,1.42472 0,0.0021 -0.003,0.0045 -0.003,0.0067 -0.0955,0.442433 -0.19034,0.884176 -0.28474,1.325499 v 0.0021 c -0.0708,0.339336 -0.14116,0.678262 -0.21082,1.016477 -0.004,0.01807 -0.006,0.03638 -0.007,0.05478 -0.0332,0.462386 -0.066,0.924105 -0.0982,1.385446 -0.10226,0.823132 -0.20513,1.645579 -0.30851,2.467549 0,0.0098 -0.003,0.01961 -0.003,0.02946 -0.0655,1.205643 -0.13132,2.41078 -0.19791,3.615283 v 0.02997 c 0.013,0.801092 0.0249,1.601565 0.0367,2.401406 0.003,0.232222 -0.01,0.419401 0.0749,0.418062 3.09218,-0.04062 3.76332,-0.08587 4.3222,-0.129193 1.12647,-0.08732 1.99216,-0.167775 2.90992,-0.281636 0.91776,-0.113858 1.88764,-0.260863 2.91248,-0.446484 1.02483,-0.185619 2.10574,-0.410043 3.10523,-0.664559 0.99946,-0.254516 1.90055,-0.534805 2.75227,-0.777214 0.85172,-0.242411 1.67304,-0.452792 2.43449,-0.642337 0.76141,-0.189545 1.45044,-0.35528 2.18437,-0.495578 0.73395,-0.140298 1.52437,-0.257561 2.39157,-0.375171 0.8672,-0.117612 1.80046,-0.233788 2.8639,-0.328144 1.06352,-0.09435 2.26108,-0.166889 3.45459,-0.203605 1.19348,-0.03672 2.38635,-0.03813 3.5021,-0.01497 1.11575,0.0231 2.15461,0.07047 3.17603,0.134358 1.02143,0.06389 2.01467,0.143364 3.54037,0.321426 1.52572,0.17806 3.58187,0.454851 5.64358,0.772562 2.06172,0.317712 4.13515,0.677151 6.05801,1.009243 1.92286,0.332094 3.69149,0.636519 5.04571,0.867129 1.35424,0.230614 2.2932,0.387261 3.57238,0.603065 1.27918,0.215805 2.89589,0.490226 4.54599,0.804601 1.6501,0.314375 3.34068,0.670234 4.81055,0.981337 1.46984,0.311102 2.71698,0.576884 3.74549,0.785997 1.0286,0.209117 1.83444,0.360646 2.9559,0.573093 1.12146,0.212447 2.5635,0.486654 4.09175,0.771012 1.52826,0.284361 3.1423,0.57863 4.8214,0.874366 1.67907,0.295735 3.42207,0.593032 4.85243,0.824754 1.43037,0.231719 2.55,0.398391 3.58685,0.526068 1.03683,0.127667 1.98562,0.215448 2.70889,0.264583 0.72326,0.04913 1.23327,0.06025 1.72132,0.02997 0.48813,-0.03027 0.9352,-0.09764 1.24902,-0.17105 0.15687,-0.0367 0.29096,-0.07209 0.43823,-0.15348 0.14724,-0.08138 0.31142,-0.251081 0.37671,-0.428397 0.0654,-0.177469 0.0565,-0.353782 0.0351,-0.509013 -0.0214,-0.155226 -0.0583,-0.332489 -0.11522,-0.606679 -0.11393,-0.548384 -0.31515,-1.503032 -0.63408,-2.624648 -0.31895,-1.12163 -0.74911,-2.389389 -1.14464,-3.594095 -0.39552,-1.204704 -0.7606,-2.35803 -1.10638,-3.391009 -0.34581,-1.032983 -0.67215,-1.944674 -1.09606,-3.01997 -0.42395,-1.075298 -0.94457,-2.318506 -1.46503,-3.255097 -0.52051,-0.936627 -1.03026,-1.530268 -1.50119,-2.07791 a 0.56038749,0.56038749 0 0 0 -0.0822,-0.04134 c -0.10284,-0.155631 -0.16661,-0.299231 -0.35036,-0.474906 -0.30893,-0.295331 -0.74798,-0.623504 -1.59216,-1.157552 -0.84418,-0.534054 -2.10095,-1.277631 -3.93308,-2.31924 -1.83216,-1.041612 -4.23799,-2.380311 -6.13556,-3.407026 -1.89756,-1.026716 -3.28541,-1.740427 -4.59764,-2.401404 -1.31225,-0.660976 -2.55092,-1.270116 -4.08966,-2.027782 -1.53874,-0.757666 -3.37915,-1.664737 -4.50154,-2.223122 -1.12242,-0.558387 -1.52868,-0.769421 -1.9513,-0.975651 -0.42265,-0.206237 -0.85874,-0.407397 -1.28159,-0.552937 -0.42294,-0.14556 -0.82476,-0.228198 -1.25677,-0.266134 -0.43207,-0.03794 -0.89964,-0.0344 -1.42111,-0.0021 -0.52149,0.03249 -1.07246,0.09189 -1.98228,0.132807 -0.9098,0.04092 -2.1908,0.06371 -3.23339,0.07751 -1.0426,0.01381 -1.8387,0.01908 -3.09904,-0.0067 -1.26032,-0.0258 -2.98389,-0.08283 -4.89945,-0.167431 -1.91553,-0.0846 -4.02524,-0.1968 -5.64359,-0.305409 -1.61835,-0.108606 -2.74606,-0.213174 -4.30826,-0.370519 -1.56224,-0.157345 -3.5528,-0.367231 -4.97232,-0.524 -1.41951,-0.156768 -2.26967,-0.260829 -2.92229,-0.330213 -0.65226,-0.06934 -1.11221,-0.104188 -1.65262,-0.114205 z"
         id="path5713"
         inkscape:export-filename="C:\Users\AL200\OneDrive\Pictures\AL2009man Work Projects\VSCView - Controller Theme Layout\VSCView - Controller Theme (Ver. 1.10)\Xbox Wireless Controller Images\Theme SVG\Theme Assets\Xbox One Active Presses\XB1_RightBumper_Active.png"
         inkscape:export-xdpi="68.423401"
         inkscape:export-ydpi="68.423401" />
      <path
         style="color:#000000;display:inline;fill:#107893;fill-opacity:0.501961;stroke:#24d2f6;stroke-width:1.6;stroke-linecap:round;stroke-linejoin:round;stroke-miterlimit:4.85714;stroke-dasharray:none;stroke-opacity:1"
         d="m 112.89854,32.028018 c -0.89623,0.0035 -1.90979,0.06253 -3.22926,0.172599 -1.31948,0.110077 -2.94545,0.271364 -4.62608,0.433567 -1.68063,0.162203 -3.41707,0.32539 -5.060671,0.468704 -1.643595,0.143312 -3.193537,0.267113 -4.622975,0.35605 -1.429438,0.08894 -2.742626,0.143386 -3.938775,0.182936 -1.19615,0.03955 -2.271628,0.06367 -3.294375,0.06976 -1.022744,0.0061 -1.995485,-0.0062 -2.837553,-0.02739 -0.842066,-0.02119 -1.552295,-0.05091 -2.102197,-0.08888 -0.549886,-0.03797 -0.953494,-0.0852 -1.422135,-0.120922 -0.468654,-0.03572 -0.976238,-0.05789 -1.335318,-0.06925 -0.359092,-0.01135 -0.597524,-0.01199 -0.882634,0.01447 -0.285162,0.02646 -0.618217,0.07793 -0.956013,0.155545 -0.337828,0.07763 -0.681067,0.183534 -1.16427,0.36897 -0.483214,0.185444 -1.126334,0.457745 -2.659788,1.185458 -1.533459,0.727715 -3.964662,1.914059 -6.314342,3.093868 -2.34968,1.179811 -4.615087,2.351886 -6.729822,3.476273 -2.114733,1.124386 -4.078264,2.200894 -5.701977,3.122289 -1.623711,0.921399 -2.904988,1.685854 -3.741891,2.218471 -0.836909,0.532617 -1.250352,0.847312 -1.571996,1.174604 -0.32164,0.327292 -0.540689,0.656654 -0.733806,0.970484 -0.193114,0.313828 -0.381823,0.64475 -0.521933,0.944644 -0.05679,0.121561 -0.06692,0.224804 -0.106968,0.337447 a 0.56038749,0.56038749 0 0 0 -0.03411,0.01241 c -0.408253,0.874988 -0.817029,1.751256 -1.413868,3.041674 -0.596836,1.290418 -1.383808,2.999489 -2.07636,4.651396 -0.692554,1.651905 -1.286036,3.235881 -1.767332,4.588867 -0.481295,1.352987 -0.851675,2.475958 -1.068152,3.259749 -0.216471,0.783775 -0.282691,1.242766 -0.269753,1.620057 0.01294,0.377105 0.124696,0.750252 0.387059,1.006139 0.261972,0.255508 0.560168,0.339243 0.828373,0.41031 0.268124,0.07105 0.615014,0.13701 1.238684,0.165884 0.623634,0.02887 1.552332,0.02763 2.69906,-0.04961 1.146717,-0.07725 2.501995,-0.23038 3.938259,-0.455271 1.436259,-0.22489 2.942251,-0.519396 4.653981,-0.841809 1.71173,-0.322413 3.640159,-0.674896 5.651334,-1.068152 2.011177,-0.393258 4.097086,-0.826024 6.865731,-1.373042 2.768647,-0.547015 6.223899,-1.208638 9.382889,-1.811258 3.158993,-0.60262 6.021671,-1.145992 7.906493,-1.493451 1.884821,-0.347446 2.791844,-0.499459 4.141867,-0.728636 1.350023,-0.229174 3.13595,-0.534599 4.618839,-0.784447 1.482892,-0.24986 2.657436,-0.443061 4.021461,-0.629936 1.364034,-0.186878 2.922834,-0.36789 4.308784,-0.508498 1.38595,-0.140605 2.596,-0.240815 3.84421,-0.305924 1.24821,-0.06511 2.53747,-0.09531 3.76101,-0.0987 1.22355,-0.0034 2.38435,0.02045 3.16001,0.03876 0.77568,0.01831 1.13837,0.02974 1.84227,0.09922 0.70391,0.06948 1.74551,0.197487 2.65617,0.324527 0.91066,0.127042 1.69062,0.252981 2.44171,0.39946 0.75109,0.146481 1.47764,0.314349 2.28151,0.51108 0.80388,0.196731 1.67911,0.421277 2.52078,0.654222 0.84168,0.232944 1.65708,0.476594 2.33009,0.666109 0.67301,0.189516 1.20518,0.324305 1.97817,0.48886 0.77299,0.164553 1.79054,0.360069 2.72852,0.51883 0.93798,0.158768 1.79429,0.280355 2.69183,0.383958 0.89753,0.103603 1.84021,0.189735 2.867,0.248563 1.02679,0.05883 2.13055,0.09026 2.94556,0.112654 0.01,2.64e-4 0.25391,2.41e-4 0.26355,5.29e-4 0,0 0.20451,0.0028 0.30231,-0.11162 0.0892,-0.104447 0.0725,-0.321296 0.0698,-0.432014 -0.0201,-0.800322 -0.0408,-1.601547 -0.062,-2.402954 5e-5,-0.0038 5e-5,-0.0076 0,-0.01138 -0.0655,-1.204698 -0.13184,-2.409962 -0.19844,-3.615801 6e-5,-0.0041 6e-5,-0.0083 0,-0.01241 -0.0695,-0.822798 -0.13976,-1.646187 -0.21032,-2.470134 v -0.0036 c -8e-5,-0.0011 8e-5,-0.0021 0,-0.0031 -0.0323,-0.463886 -0.0647,-0.928198 -0.0982,-1.393198 -0.001,-0.01841 -0.003,-0.03671 -0.007,-0.05478 -0.0697,-0.338196 -0.14004,-0.677122 -0.21084,-1.016476 0,-7.94e-4 0,-0.0013 0,-0.0021 -0.0944,-0.441293 -0.18917,-0.883034 -0.28474,-1.325499 -7.9e-4,-0.0024 -0.002,-0.0045 -0.003,-0.0067 -0.11092,-0.474308 -0.2223,-0.949299 -0.33435,-1.424721 -0.001,-0.0042 -0.002,-0.0083 -0.003,-0.01241 -0.11916,-0.445407 -0.23881,-0.89136 -0.35915,-1.337902 -0.11919,-0.441264 -0.23884,-0.883084 -0.35915,-1.325502 -0.002,-0.0092 -0.005,-0.01836 -0.008,-0.02739 -0.0973,-0.280693 -0.19515,-0.562049 -0.29353,-0.843875 -0.17285,-0.54438 -0.34641,-1.089509 -0.52038,-1.635043 -0.001,-0.0047 -0.003,-0.0093 -0.004,-0.01394 -0.12342,-0.345239 -0.24753,-0.690793 -0.37207,-1.037146 -0.17634,-0.599734 -0.49586,-1.430552 -0.67334,-2.031402 -0.10699,-0.288748 -0.52193,-0.284221 -0.52193,-0.284221 -0.20308,-0.0334 -0.34741,-0.04389 -0.67645,-0.119888 -0.6392,-0.147629 -1.63391,-0.41217 -2.56211,-0.694531 -0.92819,-0.282355 -1.79737,-0.584737 -2.53422,-0.881083 -0.73683,-0.296336 -1.34703,-0.588304 -2.19728,-1.014926 -0.85024,-0.426622 -1.9284,-0.982065 -2.84324,-1.468126 -0.91483,-0.486063 -1.67178,-0.905917 -2.4045,-1.301212 -0.73273,-0.395298 -1.4429,-0.766821 -2.22622,-1.125514 -0.78333,-0.358698 -1.63204,-0.700929 -2.38435,-0.957564 -0.75233,-0.256638 -1.40366,-0.424889 -2.10685,-0.574643 -0.7032,-0.14976 -1.47192,-0.284909 -2.24224,-0.378789 -0.77034,-0.09388 -1.54498,-0.146187 -2.44119,-0.142626 z"
         id="path4030"
         inkscape:export-filename="C:\Users\AL200\OneDrive\Pictures\AL2009man Work Projects\VSCView - Controller Theme Layout\VSCView - Controller Theme (Ver. 1.10)\Xbox Wireless Controller Images\Theme SVG\Theme Assets\Xbox One Active Presses\XB1_LeftBumper_Active.png"
         inkscape:export-xdpi="68.423401"
         inkscape:export-ydpi="68.423401" />
    </g>
    <g
       id="g4491"
       inkscape:label="Analog Trigger"
       style="fill:#107893;fill-opacity:0.501961;stroke:#24d2f6;stroke-width:1.6;stroke-miterlimit:4.85714;stroke-dasharray:none;stroke-opacity:1">
      <path
         style="color:#000000;display:inline;fill:#107893;fill-opacity:0.501961;stroke:#24d2f6;stroke-width:2;stroke-miterlimit:4.85714;stroke-dasharray:none;stroke-opacity:1;paint-order:normal"
         d="m 175.21817,-37.805001 c -0.69427,-0.0286 -1.20232,0.014 -1.77559,0.13539 -0.5733,0.12142 -1.24981,0.32244 -1.90841,0.64802 -0.65866,0.32559 -1.26942,0.76217 -1.83918,1.26452 -0.56975,0.50235 -1.13786,1.11601 -1.71307,2.13424 -0.5752,1.01823 -1.16551,2.43028 -1.85311,4.37389 -0.6876,1.94361 -1.46963,4.4153 -2.05105,6.36706 -0.5814,1.95176 -0.96015,3.37849 -1.3906,4.92476 -0.43045,1.54627 -0.91802,3.232 -1.34411,5.01158 -0.42608,1.77958 -0.78745,3.6362099 -1.05058,5.0007299 -0.2631,1.36451 -0.43267,2.22001 -0.46146,2.76159 -0.0143,0.27065 -0.0212,0.52643 0.19275,0.77566 0.21376,0.24924 0.48371,0.25439 0.59788,0.26562 0.22831,0.0225 0.55308,0.0484 0.99581,0.0765 0.44273,0.028 0.99491,0.0576 2.00919,0.12867 1.01426,0.071 2.49193,0.18372 3.55997,0.26304 1.06807,0.0793 1.73167,0.12547 2.65515,0.17001 0.92347,0.0445 2.10479,0.0876 3.09128,0.11782 0.9865,0.0302 1.78176,0.0478 2.68976,0.0481 0.908,2.7e-4 1.92529,-0.017 2.76521,-0.0403 0.83992,-0.0234 1.50024,-0.0531 2.51767,-0.0972 1.01743,-0.0441 2.39877,-0.10251 3.20085,-0.10903 0.80208,-0.007 0.95327,0.0234 1.35443,0.14727 0.40124,0.1239 0.96784,0.33274 1.78025,0.71314 0.81243,0.3804 1.88394,0.93926 3.14658,1.5751 1.26265,0.63582999 2.70616,1.34329999 4.5651,2.29133 1.85896,0.94803 4.13774,2.13908 5.73659,2.97553 1.59887,0.83644 2.51386,1.31618 3.65768,1.9389 1.14379,0.62271 2.51819,1.38924 3.88088,2.16162 1.36268,0.77238 2.71542,1.55208 3.591,2.0944501 0.87561,0.54236 1.25693,0.83469 1.56993,1.16065 0.15656,0.16305 0.30015,0.34724 0.46871,0.50695 0.0421,0.0399 0.0858,0.0797 0.15296,0.1235 0.0671,0.0438 0.16012,0.11191 0.35761,0.10852 0.19746,-0.003 0.43606,-0.18382 0.50435,-0.32194 0.0683,-0.13811 0.068,-0.22668 0.0703,-0.30696 0.009,-0.32073 -0.0712,-0.63722 -0.19894,-1.10587 -0.12777,-0.46866 -0.31435,-1.0353401 -0.55242,-1.6272901 -0.47615,-1.18395 -1.14038,-2.42505 -1.76837,-3.65146 -0.62796,-1.22641 -1.23031,-2.45624 -1.86087,-3.72639 -0.63055,-1.27014001 -1.28595,-2.57312 -2.281,-4.59817 -0.99502,-2.02504 -2.33016,-4.77312 -3.42511,-7.0662299 -1.09498,-2.29311 -1.95112,-4.13372 -2.58744,-5.48649 -0.6363,-1.35277 -1.051,-2.21468 -1.4733,-3.08767 -0.42231,-0.87298 -0.85429,-1.76335 -1.32136,-2.66857 -0.46707,-0.90522 -0.96708,-1.82096 -1.56993,-2.88561 -0.60286,-1.06465 -1.31019,-2.28022 -1.98128,-3.38222 -0.67109,-1.10201 -1.30342,-2.08571 -1.77715,-2.77864 -0.47374,-0.69295 -0.79719,-1.1066 -1.12861,-1.44281 -0.33144,-0.33627 -0.67855,-0.59683 -1.17047,-0.89503 -0.49196,-0.29823 -1.15392,-0.65388 -1.95958,-1.0201 -0.80568,-0.36622 -1.74503,-0.73833 -2.69594,-1.09037 -0.95094,-0.35204 -1.91397,-0.68401 -2.73214,-0.94361 -0.8182,-0.2596 -1.48498,-0.44481 -2.281,-0.67335 -0.796,-0.22853 -1.73636,-0.50508 -2.51458,-0.68936 -0.77822,-0.18428 -1.38083,-0.271 -2.11873,-0.35915 -0.73792,-0.0882 -1.63224,-0.18176 -2.32648,-0.21032 z"
         id="path67089-4"
         inkscape:export-filename="C:\Users\AL200\OneDrive\Pictures\AL2009man Work Projects\VSCView - Controller Theme Layout\VSCView - Controller Theme (Ver. 1.10)\Xbox Wireless Controller Images\Theme SVG\Theme Assets\Xbox One Active Presses\XB1_RightTrigger_Active.png"
         inkscape:export-xdpi="68.423401"
         inkscape:export-ydpi="68.423401" />
      <path
         style="color:#000000;display:inline;fill:#107893;fill-opacity:0.501961;stroke:#24d2f6;stroke-width:2;stroke-linecap:round;stroke-linejoin:round;stroke-miterlimit:4.85714;stroke-dasharray:none;stroke-opacity:1;paint-order:normal"
         d="m 126.52526,-37.404361 c -0.25772,0.001 -0.52296,0.0111 -0.8108,0.0315 -0.57572,0.0409 -1.24859,0.12409 -2.03037,0.27698 -0.78179,0.1529 -1.67078,0.37496 -3.02824,0.76946 -1.35746,0.39451 -3.19136,0.96356 -5.01778,1.61231 -1.82643,0.64875 -3.62891,1.37045 -4.67517,1.85777 -1.04626,0.48732 -1.40253,0.80701 -1.71514,1.13998 -0.31261,0.33296 -0.70646,0.77658 -1.33015,1.5937 -0.62369,0.81712 -1.47784,2.0066 -2.16421,3.00343 -0.68637,0.99684 -1.20954,1.80941 -1.81694,2.89698 -0.6074,1.08758 -1.29741,2.44501 -1.98128,3.81166 -0.68386,1.36664 -1.36257,2.74409 -2.306831,4.6762 -0.94427,1.93211 -2.15538,4.42146 -3.48403,7.2197099 -1.32865,2.79825 -2.773787,5.90344 -4.013709,8.61342999 -1.239922,2.70999001 -2.277462,5.02852001 -2.960026,6.92878001 -0.682561,1.90024 -0.998741,3.3597401 -1.307412,4.7847201 a 0.52921958,0.52921958 0 0 0 0.982885,0.36328 c 0.202676,-0.37633 0.387556,-0.71018 0.622184,-0.96893 0.234611,-0.25873 0.554299,-0.48991 1.980242,-1.3363501 1.425943,-0.84645 3.908446,-2.28004 6.436816,-3.66748 2.528371,-1.38744 5.109551,-2.73247 6.995441,-3.70003 1.88589,-0.96756 3.07461,-1.55686001 3.99252,-2.00763001 0.91791,-0.45077 1.56411,-0.76289 2.56522,-1.25626 1.0011,-0.49335999 2.35449,-1.16656999 3.23753,-1.58645999 0.88304,-0.4199 1.27752,-0.57918 1.70377,-0.7059 0.42627,-0.12673 0.88201,-0.21792 1.30483,-0.25942 0.42286,-0.0415 0.81944,-0.036 1.63452,0.016 0.81509,0.052 2.03823,0.15096 3.66128,0.21498 1.62304,0.064 3.6408,0.093 5.37383,0.063 1.73303,-0.03 3.17102,-0.1191 4.37544,-0.18913 1.20443,-0.07 2.19104,-0.12169 3.34037,-0.20206 1.14933,-0.0804 2.45537,-0.18874 3.40289,-0.27388 0.94752,-0.0851 1.53618,-0.14716 1.89188,-0.18449 0.35569,-0.0373 0.47249,-0.0459 0.60306,-0.0729 0.0327,-0.007 0.11098,-0.0136 0.22841,-0.092 0.11743,-0.0784 0.21392,-0.23992 0.24029,-0.34313 0.0528,-0.20641 0.0209,-0.26716 0.009,-0.38912 -0.0242,-0.244 -0.0828,-0.69456 -0.26355,-1.66347 -0.18079,-0.96891 -0.48402,-2.45806 -0.79323,-3.8054499 -0.30922,-1.34739 -0.6223,-2.54356 -0.92036,-3.68091 -0.29807,-1.13735 -0.58363,-2.22506 -0.90072,-3.35793 -0.31709,-1.13288 -0.66416,-2.30548 -1.02216,-3.52227 -0.358,-1.21679 -0.72785,-2.48068 -0.9834,-3.33675 -0.25556,-0.85607 -0.39763,-1.3061 -0.56845,-1.82469 -0.17082,-0.5186 -0.37225,-1.11158 -0.632,-1.83555 -0.25975,-0.72397 -0.57752,-1.57847 -0.86868,-2.31097 -0.29116,-0.73251 -0.55659,-1.34498 -0.84491,-1.91668 -0.28833,-0.57172 -0.59495,-1.09309 -0.87953,-1.54926 -0.28459,-0.45618 -0.56315,-0.87303 -0.93121,-1.28829 -0.3681,-0.4153 -0.80095,-0.80601 -1.13947,-1.07539 -0.33856,-0.26941 -0.59562,-0.41887 -0.85369,-0.55397 -0.2581,-0.13511 -0.56038,-0.28219 -0.88728,-0.41134 -0.32696,-0.12918 -0.68984,-0.24299 -1.15394,-0.32505 -0.46416,-0.0821 -1.01742,-0.13379 -1.53221,-0.16123 -0.2574,-0.0137 -0.50761,-0.0209 -0.76533,-0.0196 z"
         id="path52006"
         inkscape:export-filename="C:\Users\AL200\OneDrive\Pictures\AL2009man Work Projects\VSCView - Controller Theme Layout\VSCView - Controller Theme (Ver. 1.10)\Xbox Wireless Controller Images\Theme SVG\Theme Assets\Xbox One Active Presses\XB1_LeftTrigger_Active.png"
         inkscape:export-xdpi="68.423401"
         inkscape:export-ydpi="68.423401" />
    </g>
    <g
       id="g5247"
       transform="matrix(0.26458333,0,0,0.26458333,-173.69652,-9.1168507)"
       inkscape:label="Face BUtton"
       style="fill:#107893;fill-opacity:0.501961;stroke:#24d2f6;stroke-width:6.04724;stroke-miterlimit:4.85714;stroke-dasharray:none;stroke-opacity:1">
      <path
         style="color:#000000;fill:#107893;fill-opacity:0.501961;fill-rule:evenodd;stroke:#24d2f6;stroke-width:6.04724;stroke-miterlimit:4.85714;stroke-dasharray:none;stroke-opacity:1"
         d="m 1216.8773,332.24695 c -32.7822,0 -59.5567,24.49237 -59.5567,54.86719 0,30.37482 26.7745,54.86914 59.5567,54.86914 32.7821,0 59.5585,-24.49432 59.5585,-54.86914 0,-30.37482 -26.7764,-54.86719 -59.5585,-54.86719 z"
         id="path3462-2-8"
         inkscape:export-filename="C:\Users\AL200\OneDrive\Pictures\AL2009man Work Projects\VSCView - Controller Theme Layout\VSCView - Controller Theme (Ver. 1.10)\Xbox Wireless Controller Images\Theme SVG\Theme Assets\Xbox One Active Presses\XB1_Y_Button.png"
         inkscape:export-xdpi="68.423401"
         inkscape:export-ydpi="68.423401" />
      <path
         style="color:#000000;fill:#107893;fill-opacity:0.501961;fill-rule:evenodd;stroke:#24d2f6;stroke-width:6.04724;stroke-miterlimit:4.85714;stroke-dasharray:none;stroke-opacity:1"
         d="m 1092.1409,437.70398 c -33.137,0 -60.2422,24.18453 -60.2422,54.24024 0,30.0557 27.1052,54.24023 60.2422,54.24023 33.1371,0 60.2442,-24.18453 60.2442,-54.24023 0,-30.05571 -27.1071,-54.24024 -60.2442,-54.24024 z"
         id="path3462-2-64"
         inkscape:export-filename="C:\Users\AL200\OneDrive\Pictures\AL2009man Work Projects\VSCView - Controller Theme Layout\VSCView - Controller Theme (Ver. 1.10)\Xbox Wireless Controller Images\Theme SVG\Theme Assets\Xbox One Active Presses\XB1_X_Button.png"
         inkscape:export-xdpi="68.423401"
         inkscape:export-ydpi="68.423401" />
      <path
         style="color:#000000;display:inline;fill:#107893;fill-opacity:0.501961;fill-rule:evenodd;stroke:#24d2f6;stroke-width:6.04724;stroke-miterlimit:4.85714;stroke-dasharray:none;stroke-opacity:1"
         d="m 1326.2054,424.89929 c -31.7226,0 -57.6192,23.9745 -57.6192,53.67774 0,29.70324 25.8966,53.67578 57.6192,53.67578 31.7225,0 57.6191,-23.97254 57.6191,-53.67578 0,-29.70324 -25.8966,-53.67774 -57.6191,-53.67774 z"
         id="path3462-2-6"
         inkscape:export-filename="C:\Users\AL200\OneDrive\Pictures\AL2009man Work Projects\VSCView - Controller Theme Layout\VSCView - Controller Theme (Ver. 1.10)\Xbox Wireless Controller Images\Theme SVG\Theme Assets\Xbox One Active Presses\XB1_B_Button.png"
         inkscape:export-xdpi="68.423401"
         inkscape:export-ydpi="68.423401" />
      <path
         style="color:#000000;display:inline;fill:#107893;fill-opacity:0.501961;fill-rule:evenodd;stroke:#24d2f6;stroke-width:6.04724;stroke-miterlimit:4.85714;stroke-dasharray:none;stroke-opacity:1"
         d="m 1202.8226,532.65515 c -31.7304,0 -57.6446,23.84561 -57.6446,53.4043 0,29.5587 25.9142,53.40234 57.6446,53.40234 31.7303,0 57.6425,-23.84364 57.6425,-53.40234 0,-29.55869 -25.9122,-53.4043 -57.6425,-53.4043 z"
         id="path3462-2"
         inkscape:export-filename="C:\Users\AL200\OneDrive\Pictures\AL2009man Work Projects\VSCView - Controller Theme Layout\VSCView - Controller Theme (Ver. 1.10)\Xbox Wireless Controller Images\Theme SVG\Theme Assets\Xbox One Active Presses\XB1_A_Button.png"
         inkscape:export-xdpi="68.423401"
         inkscape:export-ydpi="68.423401" />
    </g>
    <g
       id="g6227"
       inkscape:label="Select/Start"
       transform="translate(2.1166667)"
       style="fill:#107893;fill-opacity:0.501961;stroke:#24d2f6;stroke-width:1.6;stroke-miterlimit:4.85714;stroke-dasharray:none;stroke-opacity:1">
      <path
         style="color:#000000;fill:#107893;fill-opacity:0.501961;fill-rule:evenodd;stroke:#24d2f6;stroke-width:1.6;stroke-miterlimit:4.85714;stroke-dasharray:none;stroke-opacity:1"
         d="m 112.09589,172.21415 c -5.50055,0 -10.01953,4.10369 -10.01953,9.21494 0,5.11125 4.51898,9.21494 10.01953,9.21494 5.50056,0 10.02006,-4.10369 10.02006,-9.21494 0,-5.11125 -4.5195,-9.21494 -10.02006,-9.21494 z"
         id="path3462"
         inkscape:export-filename="C:\Users\AL200\OneDrive\Pictures\AL2009man Work Projects\VSCView - Controller Theme Layout\VSCView - Controller Theme (Ver. 1.10)\Xbox Wireless Controller Images\Theme SVG\Theme Assets\Xbox One Active Presses\XB1_ViewButton.png"
         inkscape:export-xdpi="68.423401"
         inkscape:export-ydpi="68.423401" />
      <path
         style="color:#000000;display:inline;fill:#107893;fill-opacity:0.501961;fill-rule:evenodd;stroke:#24d2f6;stroke-width:1.6;stroke-miterlimit:4.85714;stroke-dasharray:none;stroke-opacity:1"
         d="m 177.5844,172.23327 c -5.50055,0 -10.02006,4.10369 -10.02006,9.21494 0,5.11124 4.51951,9.21494 10.02006,9.21494 5.50056,0 10.01955,-4.1037 10.01955,-9.21494 0,-5.11125 -4.51899,-9.21494 -10.01955,-9.21494 z"
         id="ellipse26881"
         inkscape:export-filename="C:\Users\AL200\OneDrive\Pictures\AL2009man Work Projects\VSCView - Controller Theme Layout\VSCView - Controller Theme (Ver. 1.10)\Xbox Wireless Controller Images\Theme SVG\Theme Assets\Xbox One Active Presses\XB1_MenuButton.png"
         inkscape:export-xdpi="68.423401"
         inkscape:export-ydpi="68.423401" />
    </g>
    <path
       style="color:#000000;display:inline;fill:#107893;fill-opacity:0.501961;stroke:#24d2f6;stroke-width:1.6;stroke-linecap:round;stroke-linejoin:round;stroke-miterlimit:4.85714;stroke-dasharray:none;stroke-opacity:1;paint-order:normal"
       d="m 164.50652,220.57481 a 16.865718,15.913169 0 0 1 -16.86572,15.91317 16.865718,15.913169 0 0 1 -16.86572,-15.91317 16.865718,15.913169 0 0 1 16.86572,-15.91317 16.865718,15.913169 0 0 1 16.86572,15.91317 z"
       id="path23416"
       inkscape:label="Guide Button"
       inkscape:export-filename="C:\Users\AL200\OneDrive\Pictures\AL2009man Work Projects\VSCView - Controller Theme Layout\VSCView - Controller Theme (Ver. 1.10)\Xbox Wireless Controller Images\Theme SVG\Theme Assets\Xbox One Active Presses\XB1_HomeButton.png"
       inkscape:export-xdpi="68.423401"
       inkscape:export-ydpi="68.423401" />
    <ellipse
       style="display:inline;fill:#107893;fill-opacity:0.501961;fill-rule:evenodd;stroke:#24d2f6;stroke-width:1.6;stroke-linecap:round;stroke-linejoin:round;stroke-miterlimit:4.85714;stroke-dasharray:none;stroke-opacity:1;paint-order:normal"
       id="ellipse14223"
       cx="110.25529"
       cy="351.50415"
       rx="27.021889"
       ry="25.433252"
       inkscape:label="Analog Stick Left"
       inkscape:export-filename="C:\Users\AL200\OneDrive\Pictures\AL2009man Work Projects\VSCView - Controller Theme Layout\VSCView - Controller Theme (Ver. 1.10)\Xbox Wireless Controller Images\Theme SVG\Theme Assets\Xbox One Active Presses\XB1_LeftStick_Click.png"
       inkscape:export-xdpi="68.423401"
       inkscape:export-ydpi="68.423401" />
    <ellipse
       style="display:inline;fill:#107893;fill-opacity:0.501961;fill-rule:evenodd;stroke:#24d2f6;stroke-width:1.6;stroke-linecap:round;stroke-linejoin:round;stroke-miterlimit:4.85714;stroke-dasharray:none;stroke-opacity:1;paint-order:normal"
       id="ellipse13770"
       cx="187.263"
       cy="350.54175"
       rx="27.43"
       ry="25.923134"
       inkscape:label="Analog Stick Right"
       inkscape:export-filename="C:\Users\AL200\OneDrive\Pictures\AL2009man Work Projects\VSCView - Controller Theme Layout\VSCView - Controller Theme (Ver. 1.10)\Xbox Wireless Controller Images\Theme SVG\Theme Assets\Xbox One Active Presses\XB1_RightStick_Click.png"
       inkscape:export-xdpi="68.423401"
       inkscape:export-ydpi="68.423401" />
    <g
       id="g4286"
       inkscape:label="D-PAD"
       transform="translate(-95.250001,5.2916667)"
       style="fill:#107893;fill-opacity:0.501961;stroke:#24d2f6;stroke-opacity:1">
      <path
         id="path3600"
         style="color:#000000;display:inline;fill:#107893;fill-opacity:0.501961;stroke:#24d2f6;stroke-width:6.04724;stroke-linecap:round;stroke-linejoin:miter;stroke-miterlimit:4.85714;stroke-dasharray:none;stroke-opacity:1"
         d="m 120.08594,4.1308594 a 1.9502737,1.950119 0 0 0 -0.0742,0.00195 c -5.83835,0.2025827 -11.67535,0.4046247 -17.51563,0.6054687 a 1.9502737,1.950119 0 0 0 -0.25195,0.023438 c -2.450343,0.4043716 -4.901358,0.80838 -7.353515,1.2109374 A 1.9502737,1.950119 0 0 0 94.322286,6.1582004 C 92.122412,7.2753154 89.922411,8.392509 87.720723,9.5078098 A 1.9502737,1.950119 0 0 0 86.949219,10.214844 C 86.133408,11.519688 85.315672,12.82197 84.498047,14.125 a 1.9502737,1.950119 0 0 0 -0.294922,0.923828 c -0.117543,2.018041 -0.235658,4.034555 -0.355469,6.050781 a 1.9502737,1.950119 0 0 0 0.002,0.25 c 0.434759,6.226356 0.867761,12.45308 1.300782,18.677735 0.201088,5.356864 0.399821,10.711247 0.599609,16.066406 l 47.595703,40.978516 43.01758,-38.410157 c -0.0911,-1.536317 -0.18181,-3.072798 -0.27344,-4.609375 l -0.002,-0.02539 c -0.39417,-8.398224 -0.7896,-16.795124 -1.18555,-25.195313 a 1.9502737,1.950119 0 0 0 0,-0.03125 c -0.26267,-4.209713 -0.52648,-8.419256 -0.79101,-12.630859 A 1.9502737,1.950119 0 0 0 173.85156,15.3125 c -0.42115,-0.725934 -0.84269,-1.451939 -1.26562,-2.179688 a 1.9502737,1.950119 0 0 0 -0.29492,-0.384765 c -0.75047,-0.765846 -1.50163,-1.533084 -2.25391,-2.300781 a 1.9502737,1.950119 0 0 0 -0.5293,-0.382813 c -1.17192,-0.5773605 -2.34587,-1.1571532 -3.51953,-1.736328 a 1.9502737,1.950119 0 0 0 -0.41406,-0.1484375 c -3.29424,-0.7792252 -6.58864,-1.5588044 -9.88477,-2.3398437 a 1.9502737,1.950119 0 0 0 -0.22461,-0.041016 C 150.97106,5.2751746 146.47618,4.7501149 141.98047,4.2246094 a 1.9502737,1.950119 0 0 0 -0.21875,-0.011719 c -7.22249,-0.026457 -14.4475,-0.054063 -21.67188,-0.082031 z"
         transform="matrix(0.26458333,0,0,0.26458333,210.24893,248.74571)"
         inkscape:label="D-PAD Up"
         inkscape:export-filename="C:\Users\AL200\OneDrive\Pictures\AL2009man Work Projects\VSCView - Controller Theme Layout\VSCView - Controller Theme (Ver. 1.10)\Xbox Wireless Controller Images\Theme SVG\Theme Assets\Xbox One Active Presses\XB1_D-PAD_Up.png"
         inkscape:export-xdpi="95.9851"
         inkscape:export-ydpi="95.9851" />
      <path
         id="path2830"
         style="color:#000000;display:inline;fill:#107893;fill-opacity:0.501961;stroke:#24d2f6;stroke-width:6.04724;stroke-linecap:round;stroke-linejoin:miter;stroke-miterlimit:4.85714;stroke-dasharray:none;stroke-opacity:1"
         d="M 86.796875,138.63477 130.90234,99.253906 84.697266,59.472656 c -0.186194,0.009 -0.372091,0.01847 -0.558594,0.02734 a 1.9502737,1.950119 0 0 0 -0.04102,0.002 c -2.153726,0.148914 -4.307388,0.298213 -6.46289,0.445313 a 1.9502737,1.950119 0 0 0 -0.01563,0.002 c -3.056844,0.229417 -6.11517,0.455839 -9.173829,0.683593 -7.852648,0.552227 -15.705932,1.105838 -23.560546,1.65625 a 1.9502737,1.950119 0 0 0 -0.0293,0.002 c -2.845909,0.243023 -5.69134,0.485353 -8.539063,0.726562 a 1.9502737,1.950119 0 0 0 -0.08984,0.01172 c -1.843842,0.243023 -3.689499,0.483475 -5.535156,0.724609 a 1.9502737,1.950119 0 0 0 -0.289062,0.05859 c -1.210696,0.350362 -2.422218,0.700318 -3.634766,1.048828 a 1.9502737,1.950119 0 0 0 -0.126953,0.04492 c -1.039181,0.377197 -2.080098,0.751684 -3.121094,1.126953 a 1.9502737,1.950119 0 0 0 -0.283203,0.126953 c -0.973228,0.538281 -1.944804,1.076815 -2.919922,1.613282 a 1.9502737,1.950119 0 0 0 -0.455078,0.345703 c -0.86812,0.887773 -1.739403,1.774197 -2.609375,2.660156 a 1.9502737,1.950119 0 0 0 -0.359375,0.509765 c -0.657713,1.345134 -1.317035,2.689846 -1.976562,4.033204 a 1.9502737,1.950119 0 0 0 -0.152344,0.433593 c -0.592139,2.650356 -1.185344,5.300602 -1.779297,7.949219 a 1.9502737,1.950119 0 0 0 -0.02734,0.148438 c -0.328441,2.287105 -0.657912,4.574045 -0.988281,6.859375 a 1.9502737,1.950119 0 0 0 -0.01953,0.257812 c -0.02646,2.475553 -0.05091,4.950052 -0.07813,7.423828 a 1.9502737,1.950119 0 0 0 0.01172,0.214844 C 12.16023,101.40751 12.436985,104.20326 12.712891,107 a 1.9502737,1.950119 0 0 0 0.0078,0.0723 c 0.370016,2.70432 0.739296,5.40873 1.107422,8.11132 a 1.9502737,1.950119 0 0 0 0.04492,0.22461 c 0.383055,1.48007 0.765243,2.95922 1.146484,4.4375 a 1.9502737,1.950119 0 0 0 0.07617,0.23242 c 0.699402,1.76278 1.396125,3.5242 2.09375,5.28516 a 1.9502737,1.950119 0 0 0 0.126953,0.25977 c 0.818003,1.41312 1.634908,2.82306 2.451172,4.23437 a 1.9502737,1.950119 0 0 0 0.152344,0.22852 c 1.055357,1.346 2.110481,2.68901 3.164062,4.0332 a 1.9502737,1.950119 0 0 0 0.189454,0.21094 c 1.187262,1.13087 2.373107,2.26156 3.558593,3.39062 a 1.9502737,1.950119 0 0 0 0.289063,0.22461 c 1.002935,0.64676 2.004662,1.29256 3.005859,1.9375 a 1.9502737,1.950119 0 0 0 0.367188,0.18555 c 1.319508,0.49882 2.637345,0.99518 3.955078,1.49219 a 1.9502737,1.950119 0 0 0 0.554687,0.12304 c 1.965468,0.13531 3.930765,0.27058 5.894532,0.4043 a 1.9502737,1.950119 0 0 0 0.220703,0.002 c 4.957417,-0.2279 9.913424,-0.45789 14.86914,-0.6875 a 1.9502737,1.950119 0 0 0 0.08594,-0.008 c 6.274393,-0.57044 12.549535,-1.14063 18.822265,-1.71289 l -0.0078,0.002 c 3.970359,-0.34828 7.939281,-0.69876 11.908203,-1.04882 z"
         transform="matrix(0.26458333,0,0,0.26458333,210.24893,248.74571)"
         inkscape:label="D-PAD Left"
         inkscape:export-filename="C:\Users\AL200\OneDrive\Pictures\AL2009man Work Projects\VSCView - Controller Theme Layout\VSCView - Controller Theme (Ver. 1.10)\Xbox Wireless Controller Images\Theme SVG\Theme Assets\Xbox One Active Presses\XB1_D-PAD_Left.png"
         inkscape:export-xdpi="95.9851"
         inkscape:export-ydpi="95.9851" />
      <path
         id="path3604"
         style="color:#000000;display:inline;fill:#107893;fill-opacity:0.501961;stroke:#24d2f6;stroke-width:6.04724;stroke-linecap:round;stroke-linejoin:miter;stroke-miterlimit:4.85714;stroke-dasharray:none;stroke-opacity:1"
         d="m 179.13672,60.761719 c -3.61609,3.256163 -7.22319,6.506848 -10.9707,9.865234 -5.18112,4.643131 -10.47641,9.373916 -15.85157,14.167969 -5.37516,4.794053 -10.83113,9.651557 -16.33398,14.544922 l 46.00976,39.611326 c 8.00493,1.01555 16.00801,2.03097 24.01172,3.04492 a 1.9502737,1.950119 0 0 0 0.11133,0.0117 c 4.45652,0.3103 8.91038,0.62117 13.36524,0.92969 a 1.9502737,1.950119 0 0 0 0.23046,0.002 c 3.03308,-0.14702 6.06438,-0.29632 9.09571,-0.44531 a 1.9502737,1.950119 0 0 0 0.43164,-0.0703 c 1.72845,-0.48355 3.45489,-0.96573 5.18164,-1.45117 a 1.9502737,1.950119 0 0 0 0.44531,-0.1875 c 1.9392,-1.11595 3.87699,-2.23381 5.81445,-3.35157 a 1.9502737,1.950119 0 0 0 0.22461,-0.15234 c 1.51748,-1.18337 3.03313,-2.36556 4.54883,-3.55078 a 1.9502737,1.950119 0 0 0 0.36719,-0.37695 c 0.76622,-1.03594 1.53246,-2.07359 2.29687,-3.11133 a 1.9502737,1.950119 0 0 0 0.21094,-0.36328 c 0.38381,-0.86147 0.7664,-1.72266 1.14844,-2.58594 a 1.9502737,1.950119 0 0 0 0.13086,-0.41211 c 0.51507,-2.6092 1.02775,-5.21899 1.54101,-7.83008 a 1.9502737,1.950119 0 0 0 0.0176,-0.10547 c 0.25134,-1.78889 0.50228,-3.57836 0.75196,-5.36914 a 1.9502737,1.950119 0 0 0 0.0195,-0.21875 c 0.0797,-3.12026 0.16004,-6.24113 0.23828,-9.36328 a 1.9502737,1.950119 0 0 0 -0.004,-0.17187 c -0.19691,-3.10678 -0.39314,-6.215562 -0.5918,-9.324223 a 1.9502737,1.950119 0 0 0 -0.0176,-0.164063 c -0.36813,-2.447659 -0.73542,-4.896153 -1.10547,-7.345703 A 1.9502737,1.950119 0 0 0 250.40234,86.75 c -0.82964,-2.945235 -1.65877,-5.890804 -2.49023,-8.837891 a 1.9502737,1.950119 0 0 0 -0.16406,-0.402343 c -0.80334,-1.479005 -1.60696,-2.958597 -2.41211,-4.439454 a 1.9502737,1.950119 0 0 0 -0.35742,-0.46875 c -1.06678,-1.034834 -2.13259,-2.070735 -3.20118,-3.107421 a 1.9502737,1.950119 0 0 0 -0.17773,-0.152344 c -1.07985,-0.819515 -2.16248,-1.639571 -3.24414,-2.460938 a 1.9502737,1.950119 0 0 0 -0.70117,-0.339843 c -2.66151,-0.671585 -5.32496,-1.342189 -7.98828,-2.015625 a 1.9502737,1.950119 0 0 0 -0.19532,-0.04102 c -2.29228,-0.335244 -4.58477,-0.670679 -6.8789,-1.007813 a 1.9502737,1.950119 0 0 0 -0.17969,-0.01953 c -4.52016,-0.241134 -9.0424,-0.483501 -13.56445,-0.726562 a 1.9502737,1.950119 0 0 0 -0.0312,-0.002 c -6.37781,-0.24 -12.75515,-0.478738 -19.13477,-0.720704 -3.51427,-0.413998 -7.0294,-0.830556 -10.54492,-1.246093 z"
         transform="matrix(0.26458333,0,0,0.26458333,210.24893,248.74571)"
         inkscape:label="D-PAD Right"
         inkscape:export-filename="C:\Users\AL200\OneDrive\Pictures\AL2009man Work Projects\VSCView - Controller Theme Layout\VSCView - Controller Theme (Ver. 1.10)\Xbox Wireless Controller Images\Theme SVG\Theme Assets\Xbox One Active Presses\XB1_D-PAD_Right.png"
         inkscape:export-xdpi="95.9851"
         inkscape:export-ydpi="95.9851" />
      <path
         id="path3606"
         style="color:#000000;display:inline;fill:#107893;fill-opacity:0.501961;stroke:#24d2f6;stroke-width:6.04724;stroke-linecap:round;stroke-linejoin:miter;stroke-miterlimit:4.85714;stroke-dasharray:none;stroke-opacity:1"
         d="m 178.63672,140.34961 -45.10547,-38.83203 c -11.20697,9.96262 -22.59105,20.06272 -33.880859,30.08984 -3.497353,3.1062 -6.849295,6.09788 -10.320313,9.1836 0.08261,3.6207 0.163274,7.24029 0.244141,10.85937 a 1.9502737,1.950119 0 0 0 0.002,0.0391 c 0.11263,2.69231 0.222866,5.38564 0.333984,8.07617 a 1.9502737,1.950119 0 0 0 0.0039,0.0605 c 0.168567,2.31179 0.337116,4.62355 0.503907,6.9336 a 1.9502737,1.950119 0 0 0 0.01172,0.11132 c 0.345826,2.64484 0.691257,5.28862 1.035156,7.93164 a 1.9502737,1.950119 0 0 0 0.02148,0.13672 c 0.438879,2.15966 0.875398,4.31868 1.3125,6.47657 a 1.9502737,1.950119 0 0 0 0.07227,0.25781 c 0.326929,0.93241 0.6534,1.86237 0.978515,2.79297 a 1.9502737,1.950119 0 0 0 0.13086,0.29297 c 0.541304,0.98978 1.079613,1.97687 1.61914,2.96484 a 1.9502737,1.950119 0 0 0 0.28711,0.39844 c 0.970242,1.0377 1.939737,2.07739 2.908203,3.11328 a 1.9502737,1.950119 0 0 0 0.427734,0.33984 c 1.455152,0.86661 2.909902,1.73286 4.363282,2.59766 a 1.9502737,1.950119 0 0 0 0.39844,0.17969 c 2.71351,0.87609 5.42498,1.75075 8.13671,2.625 a 1.9502737,1.950119 0 0 0 0.30664,0.0723 c 2.64839,0.40048 5.29476,0.80059 7.94141,1.19922 a 1.9502737,1.950119 0 0 0 0.17774,0.0195 c 3.39397,0.20069 6.78741,0.40272 10.17968,0.60156 a 1.9502737,1.950119 0 0 0 0.13672,0.002 c 2.90937,-0.0378 5.81886,-0.0744 8.72656,-0.11328 a 1.9502737,1.950119 0 0 0 0.0605,-0.002 c 3.17968,-0.14173 6.35718,-0.28422 9.53516,-0.42773 a 1.9502737,1.950119 0 0 0 0.20312,-0.0195 c 3.47796,-0.5223 6.95347,-1.04617 10.42969,-1.57032 a 1.9502737,1.950119 0 0 0 0.18359,-0.0371 c 1.79123,-0.44632 3.57965,-0.8917 5.36914,-1.33984 a 1.9502737,1.950119 0 0 0 0.40625,-0.15234 c 1.16712,-0.58938 2.33278,-1.18026 3.49805,-1.77149 a 1.9502737,1.950119 0 0 0 0.27149,-0.16601 c 0.97133,-0.71327 1.94055,-1.42746 2.91015,-2.14258 a 1.9502737,1.950119 0 0 0 0.30664,-0.2793 c 1.0735,-1.21735 2.14707,-2.43705 3.21875,-3.65625 a 1.9502737,1.950119 0 0 0 0.33008,-0.52539 c 0.49538,-1.17018 0.98885,-2.34164 1.48242,-3.51367 a 1.9502737,1.950119 0 0 0 0.0332,-0.0859 c 0.21619,-0.59108 0.43223,-1.18445 0.64649,-1.77734 a 1.9502737,1.950119 0 0 0 0.0859,-0.33008 c 0.0945,-0.54361 0.18865,-1.08712 0.28125,-1.63281 a 1.9502737,1.950119 0 0 0 0.0312,-0.32617 c 9e-4,-1.52172 9e-4,-3.0448 0,-4.56836 l -0.002,0.0117 c 0.0189,-3.99425 0.0389,-7.99001 0.0566,-11.98633 a 1.9502737,1.950119 0 0 0 0,-0.0449 c -0.0737,-4.07229 -0.14939,-8.14266 -0.22461,-12.2168 v -0.0234 c -0.0225,-3.27451 -0.0441,-6.55034 -0.0664,-9.82617 z"
         transform="matrix(0.26458333,0,0,0.26458333,210.24893,248.74571)"
         inkscape:label="D-PAD Down"
         inkscape:export-filename="C:\Users\AL200\OneDrive\Pictures\AL2009man Work Projects\VSCView - Controller Theme Layout\VSCView - Controller Theme (Ver. 1.10)\Xbox Wireless Controller Images\Theme SVG\Theme Assets\Xbox One Active Presses\XB1_D-PAD_Down.png"
         inkscape:export-xdpi="95.9851"
         inkscape:export-ydpi="95.9851" />
    </g>
  </g>
</svg>
