<?xml version="1.0" encoding="UTF-8" standalone="no"?>
<!-- Created with Inkscape (http://www.inkscape.org/) -->

<svg
   width="169.93872mm"
   height="96.866547mm"
   viewBox="0 0 169.93872 96.866548"
   version="1.1"
   id="svg23539"
   inkscape:version="1.2 (dc2aedaf03, 2022-05-15)"
   sodipodi:docname="Steam Deck Active Buttons.svg"
   xml:space="preserve"
   xmlns:inkscape="http://www.inkscape.org/namespaces/inkscape"
   xmlns:sodipodi="http://sodipodi.sourceforge.net/DTD/sodipodi-0.dtd"
   xmlns="http://www.w3.org/2000/svg"
   xmlns:svg="http://www.w3.org/2000/svg"><sodipodi:namedview
     id="namedview23541"
     pagecolor="#ffffff"
     bordercolor="#666666"
     borderopacity="1.0"
     inkscape:showpageshadow="2"
     inkscape:pageopacity="0.0"
     inkscape:pagecheckerboard="0"
     inkscape:deskcolor="#d1d1d1"
     inkscape:document-units="mm"
     showgrid="false"
     inkscape:zoom="1.3266288"
     inkscape:cx="541.97529"
     inkscape:cy="317.34575"
     inkscape:window-width="2560"
     inkscape:window-height="1334"
     inkscape:window-x="-11"
     inkscape:window-y="-11"
     inkscape:window-maximized="1"
     inkscape:current-layer="layer1"
     showguides="false" /><defs
     id="defs23536" /><g
     inkscape:label="Layer 1"
     inkscape:groupmode="layer"
     id="layer1"
     transform="translate(-29.903597,-123.75149)"><g
       id="g5297"
       inkscape:label="Directional Pad"
       transform="translate(14.758587,10.57034)"><path
         id="path5224"
         style="color:#000000;display:inline;fill:#107893;fill-opacity:0.501961;stroke:#24d2f6;stroke-width:1.6;stroke-linecap:round;stroke-linejoin:miter;stroke-dasharray:none;stroke-opacity:1"
         inkscape:label="D-PAD Down"
         d="m 99.611218,139.58534 c 0.114436,0.12276 0.208541,0.26301 0.285253,0.40153 0.09941,0.17959 0.169149,0.35634 0.207219,0.53485 0.0382,0.1785 0.0446,0.35737 0.0481,1.88205 0.003,1.52469 0.004,4.39485 0.004,5.87303 0,1.47817 -4e-5,1.56397 0.0129,1.68724 0.0129,0.12326 0.0387,0.28451 0.36949,0.44803 0.3308,0.16351 0.96743,0.33065 1.51774,0.43822 0.5503,0.10755 1.01324,0.15602 1.54667,0.20722 0.53343,0.0512 1.13655,0.10597 1.63608,0.13332 0.30549,0.0166 0.61614,0.0199 0.89038,0.0202 0.008,0 0.53167,-0.004 0.83716,-0.0202 0.49954,-0.0273 1.10214,-0.0821 1.63556,-0.13332 0.53343,-0.0512 0.99689,-0.0996 1.54719,-0.20722 0.55032,-0.10756 1.18695,-0.27469 1.51774,-0.43822 0.3308,-0.16351 0.35674,-0.32477 0.36949,-0.44803 0.0129,-0.12326 0.0129,-0.20905 0.0129,-1.68724 0,-1.47818 5e-4,-4.34834 0.004,-5.87303 0.003,-1.52468 0.01,-1.70354 0.0481,-1.88205 0.0381,-0.1785 0.10779,-0.35525 0.20722,-0.53485 0.0767,-0.13841 0.17094,-0.27831 0.28525,-0.40101 l -6.49159,-6.4916 z"
         inkscape:export-filename="..\SD_D-PAD_Down.png"
         inkscape:export-xdpi="96.527351"
         inkscape:export-ydpi="96.527351" /><path
         id="path5226"
         style="color:#000000;display:inline;fill:#107893;fill-opacity:0.501961;stroke:#24d2f6;stroke-width:1.6;stroke-linecap:round;stroke-linejoin:miter;stroke-dasharray:none;stroke-opacity:1"
         inkscape:label="D-PAD Right"
         d="m 112.66262,139.51868 c 0.013,-0.0123 0.0247,-0.0259 0.0382,-0.0377 0.16445,-0.1435 0.36352,-0.24833 0.54105,-0.32401 0.17754,-0.0757 0.33397,-0.12173 0.46612,-0.14469 0.13215,-0.023 0.24034,-0.0227 1.68052,-0.0227 h 5.63635 c 1.42508,0 1.50369,-7.3e-4 1.58491,-0.0207 0.0812,-0.0198 0.16572,-0.0585 0.29094,-0.13694 0.12524,-0.0785 0.29136,-0.19701 0.4191,-0.3266 0.12774,-0.12957 0.21732,-0.27025 0.32143,-0.5364 0.10412,-0.26616 0.22263,-0.65763 0.32762,-1.08004 0.10498,-0.42241 0.1963,-0.87655 0.26407,-1.42782 0.0677,-0.55127 0.1127,-1.19885 0.0992,-2.28099 -0.0136,-1.08213 -0.0849,-2.59871 -0.1788,-3.54087 -0.0939,-0.94214 -0.21101,-1.31123 -0.37,-1.61851 -0.15903,-0.30728 -0.36046,-0.55193 -0.52039,-0.70486 -0.15994,-0.15291 -0.27882,-0.21342 -0.52864,-0.25374 -0.24983,-0.0403 -0.63122,-0.06 -2.15026,-0.0703 -1.51905,-0.0101 -4.17541,-0.0103 -5.55005,-0.0103 -1.37464,0 -1.46635,3.4e-4 -1.56115,-0.002 -0.0948,-0.003 -0.19196,-0.01 -0.34261,-0.0589 -0.15066,-0.0493 -0.35605,-0.14271 -0.50695,-0.28164 -0.0114,-0.0105 -0.0207,-0.0226 -0.0315,-0.0336 l -6.42131,6.42132 z"
         inkscape:export-filename="..\SD_D-PAD_Right.png"
         inkscape:export-xdpi="96.527351"
         inkscape:export-ydpi="96.527351" /><path
         id="path5222"
         style="color:#000000;display:inline;fill:#107893;fill-opacity:0.501961;stroke:#24d2f6;stroke-width:1.6;stroke-linecap:round;stroke-linejoin:miter;stroke-dasharray:none;stroke-opacity:1"
         inkscape:label="D-PAD Left"
         d="m 99.613285,126.60525 c -0.01082,0.011 -0.0201,0.0231 -0.03152,0.0336 -0.150904,0.13892 -0.356284,0.23233 -0.506946,0.28164 -0.150681,0.0492 -0.248335,0.0559 -0.343131,0.0589 -0.09477,0.003 -0.185963,0.002 -1.560629,0.002 -1.374637,0 -4.031001,3.1e-4 -5.550048,0.0103 -1.519043,0.0102 -1.90043,0.03 -2.150257,0.0703 -0.249829,0.0403 -0.368724,0.10082 -0.52865,0.25374 -0.15992,0.15291 -0.361881,0.39758 -0.520898,0.70486 -0.159029,0.30728 -0.2756,0.67637 -0.369487,1.61851 -0.09386,0.94216 -0.165275,2.45874 -0.1788,3.54087 -0.01362,1.08214 0.03095,1.72972 0.0987,2.28099 0.06777,0.55127 0.159586,1.00541 0.264583,1.42782 0.105004,0.42241 0.223483,0.81388 0.327629,1.08004 0.104162,0.26615 0.193683,0.40682 0.321427,0.5364 0.127743,0.12958 0.293852,0.2481 0.419096,0.3266 0.125217,0.0785 0.209211,0.11713 0.290422,0.13694 0.08122,0.0198 0.160379,0.0207 1.585433,0.0207 h 5.636348 c 1.440182,0 1.548365,-2.5e-4 1.680518,0.0227 0.132152,0.023 0.288598,0.0691 0.466121,0.14469 0.177533,0.0757 0.376604,0.18048 0.541052,0.32401 0.01352,0.0118 0.0252,0.0254 0.03824,0.0377 l 6.492112,-6.49211 z"
         inkscape:export-filename="..\SD_D-PAD_Left.png"
         inkscape:export-xdpi="96.527351"
         inkscape:export-ydpi="96.527351" /><path
         id="path41304"
         style="color:#000000;display:inline;fill:#107893;fill-opacity:0.501961;stroke:#24d2f6;stroke-width:1.6;stroke-linecap:round;stroke-linejoin:miter;stroke-dasharray:none;stroke-opacity:1"
         inkscape:label="D-PAD Up"
         d="m 112.52671,126.53446 c -0.098,-0.12089 -0.1706,-0.26232 -0.23358,-0.40618 -0.0822,-0.18774 -0.14941,-0.37953 -0.18552,-1.99988 -0.0361,-1.62035 -0.0407,-4.66961 -0.0568,-6.28385 -0.0161,-1.61424 -0.0434,-1.79219 -0.14883,-1.94975 -0.10552,-0.15757 -0.2892,-0.29455 -0.69349,-0.45217 -0.4043,-0.15762 -1.02881,-0.33575 -1.9048,-0.45062 -0.87598,-0.11486 -2.0044,-0.16617 -3.17293,-0.14573 -0.009,1.6e-4 -0.34705,-0.003 -0.49144,-0.004 h -5.2e-4 c -1.01072,-0.002 -1.97082,0.0494 -2.7373,0.14986 -0.87599,0.11489 -1.50102,0.29299 -1.90531,0.45062 -0.40429,0.15762 -0.58744,0.29459 -0.69298,0.45217 -0.1055,0.15756 -0.13288,0.33551 -0.14883,1.94975 -0.0161,1.61424 -0.0215,4.6635 -0.0574,6.28385 -0.0361,1.62035 -0.102836,1.81213 -0.185001,1.99988 -0.063,0.14385 -0.135602,0.28529 -0.233577,0.40618 l 6.423898,6.42389 z"
         inkscape:export-filename="..\SD_D-PAD_Up.png"
         inkscape:export-xdpi="96.527351"
         inkscape:export-ydpi="96.527351" /></g><path
       id="ellipse26997"
       style="display:inline;fill:#107893;fill-opacity:0.501961;stroke:#24d2f6;stroke-width:1.6;stroke-linecap:round;stroke-linejoin:round;stroke-miterlimit:2;stroke-dasharray:none;stroke-opacity:1"
       d="m 164.20059,143.22638 a 7.3400783,7.286527 0 0 1 -7.34009,7.28652 7.3400783,7.286527 0 0 1 -7.34007,-7.28652 7.3400783,7.286527 0 0 1 7.34007,-7.28653 7.3400783,7.286527 0 0 1 7.34009,7.28653 z"
       inkscape:label="Face Button"
       inkscape:export-filename="..\SD_Face_Button.png"
       inkscape:export-xdpi="96.527351"
       inkscape:export-ydpi="96.527351" /><path
       id="rect31073"
       style="display:inline;fill:#107893;fill-opacity:0.501961;stroke:#24d2f6;stroke-width:1.6;stroke-linecap:round;stroke-linejoin:round;stroke-dasharray:none;stroke-opacity:1;paint-order:normal"
       inkscape:label="Touchpad Click"
       d="m 105.5269,167.70879 h 36.69265 c 4.25912,0 7.68794,2.90371 7.68794,6.51056 v 39.08812 c 0,3.60685 -3.42882,6.51056 -7.68794,6.51056 H 105.5269 c -4.25912,0 -7.687936,-2.90371 -7.687936,-6.51056 v -39.08812 c 0,-3.60685 3.428816,-6.51056 7.687936,-6.51056 z"
       inkscape:export-filename="..\SD_Touchpad_Click.png"
       inkscape:export-xdpi="96.527351"
       inkscape:export-ydpi="96.527351" /><path
       id="rect29477"
       style="display:inline;fill:#107893;fill-opacity:0.501961;stroke:#24d2f6;stroke-width:1.6;stroke-linecap:square;stroke-dasharray:none;stroke-opacity:1"
       d="m 181.97286,137.45085 h 8.57905 c 1.65646,0 2.99003,1.44404 2.99003,3.23776 0,1.79372 -1.33357,3.23777 -2.99003,3.23777 h -8.57905 c -1.65648,0 -2.99005,-1.44405 -2.99005,-3.23777 0,-1.79372 1.33357,-3.23776 2.99005,-3.23776 z"
       inkscape:label="View/Menu"
       inkscape:export-filename="..\SD_View-Menu_Button.png"
       inkscape:export-xdpi="96.527351"
       inkscape:export-ydpi="96.527351" /><rect
       style="display:inline;fill:#107893;fill-opacity:0.501961;stroke:#24d2f6;stroke-width:1.6;stroke-linecap:square;stroke-dasharray:none;stroke-opacity:1"
       id="rect37480"
       width="26.124018"
       height="10.595087"
       x="172.9183"
       y="150.33978"
       rx="5.3651395"
       ry="5.2975435"
       inkscape:label="Guide/Quick Access"
       inkscape:export-filename="..\SD_Guide-QuickMenu_Button.png"
       inkscape:export-xdpi="96.527351"
       inkscape:export-ydpi="96.527351" /><path
       style="color:#000000;display:inline;fill:#107893;fill-opacity:0.501961;stroke:#24d2f6;stroke-width:0.7;stroke-linecap:round;stroke-linejoin:round;stroke-dasharray:none;stroke-opacity:1"
       d="m 70.80116,148.14048 c -3.7086,0.0278 -7.8421,0.72179 -11.65506,1.39527 -5.08395,0.89799 -9.59575,1.76002 -13.62509,2.4411 -3.16336,0.53471 -6.10781,0.99533 -8.36171,1.60302 0.67332,-0.009 22.05017,-0.11328 28.97985,-0.11559 l 0.001,0.001 c 6.92968,-0.002 7.86449,-0.006 8.82738,0.0384 0.96287,0.045 1.95351,0.14018 3.0517,0.32002 1.09817,0.17984 2.30466,0.4428 3.59572,0.79621 1.29106,0.3534 2.66781,0.79663 3.98869,1.35559 1.12195,0.47479 2.18507,1.05786 3.33954,1.87015 -1.21506,-1.43754 -2.43094,-2.90365 -4.63367,-4.72215 -2.25143,-1.85871 -5.51202,-4.10635 -9.96923,-4.76315 -1.11429,-0.1642 -2.3032,-0.22945 -3.53939,-0.22016 z"
       id="path41407"
       inkscape:label="R2 Pull"
       inkscape:export-filename="..\SD_R2-Active.png"
       inkscape:export-xdpi="96.527351"
       inkscape:export-ydpi="96.527351" /><path
       style="color:#000000;fill:#107893;fill-opacity:0.501961;stroke:#24d2f6;stroke-width:0.7;stroke-linecap:round;stroke-linejoin:round;stroke-dasharray:none;stroke-opacity:1"
       d="m 50.710469,124.10264 c 3.708601,0.0278 7.842094,0.72179 11.655054,1.39528 5.08396,0.89798 9.59576,1.76001 13.62509,2.44109 3.16337,0.53471 6.10782,0.99533 8.36172,1.60302 -0.67332,-0.009 -22.05017,-0.11328 -28.979855,-0.11558 l -0.0013,0.001 c -6.929686,-0.002 -7.86449,-0.006 -8.827385,0.0384 -0.96287,0.045 -1.953508,0.14018 -3.051701,0.32002 -1.098169,0.17983 -2.304661,0.4428 -3.59572,0.7962 -1.29106,0.35341 -2.667802,0.79664 -3.988686,1.3556 -1.121949,0.47478 -2.185066,1.05786 -3.339539,1.87015 1.215062,-1.43755 2.430942,-2.90366 4.63367,-4.72215 2.251428,-1.85872 5.512023,-4.10636 9.969225,-4.76315 1.114295,-0.16421 2.303199,-0.22946 3.539391,-0.22017 z"
       id="path41413"
       inkscape:label="L2 Pull"
       inkscape:export-filename="..\SD_L2-Active.png"
       inkscape:export-xdpi="96.527351"
       inkscape:export-ydpi="96.527351" /><path
       style="color:#000000;fill:#107893;fill-opacity:0.501961;stroke:#24d2f6;stroke-width:0.7;stroke-linecap:round;stroke-linejoin:round;stroke-dasharray:none;stroke-opacity:1;paint-order:normal"
       d="m 66.13913,153.5049 c -6.92969,0.002 -19.8547,0.004 -26.60886,0.0576 -6.75416,0.0535 -7.33633,0.16022 -7.82637,0.3917 -0.49004,0.23148 -0.88633,0.58739 -1.12133,0.98438 -0.18082,0.30534 -0.26574,0.63413 -0.32898,0.96901 0,0 25.65349,0.0326 31.16311,0.0512 5.50962,0.0186 7.2282,0.0375 8.40881,0.055 1.53327,0.0228 2.46646,0.0429 3.16305,0.0704 0.69658,0.0275 1.15618,0.0623 1.7409,0.11392 0.58471,0.0517 1.29358,0.11997 2.08908,0.21248 0.79546,0.0925 1.73864,0.21791 2.60367,0.35586 0.95558,0.15239 2.85583,0.52099 2.85583,0.52099 l 2.75344,0.6234 c 0.86393,0.19559 1.60614,0.41951 2.39374,0.67972 0.75714,0.25015 1.48082,0.5204 2.23755,0.84613 0.44969,0.19358 0.90969,0.40683 1.36968,0.63235 0.46,0.22552 -0.54471,-1.05634 -1.44986,-1.74986 -1.39436,-1.06834 -2.65762,-1.74389 -3.97848,-2.30285 -1.32089,-0.55896 -2.69763,-1.00219 -3.98869,-1.3556 -1.29106,-0.3534 -2.49757,-0.61637 -3.59574,-0.7962 -1.0982,-0.17984 -2.08881,-0.27506 -3.05168,-0.32002 -0.96289,-0.045 -1.8977,-0.0407 -8.82738,-0.0384 z"
       id="path41391"
       inkscape:label="R1 Click"
       inkscape:export-filename="..\SD_R1_Active.png"
       inkscape:export-xdpi="96.527351"
       inkscape:export-ydpi="96.527351" /><path
       style="color:#000000;fill:#107893;fill-opacity:0.501961;stroke:#24d2f6;stroke-width:0.7;stroke-linecap:round;stroke-linejoin:round;stroke-dasharray:none;stroke-opacity:1;paint-order:normal"
       d="m 55.372503,129.46706 c 6.92969,0.002 19.8547,0.004 26.60886,0.0576 6.75416,0.0535 7.33632,0.16022 7.82637,0.3917 0.49004,0.23149 0.88632,0.58739 1.12133,0.98438 0.18082,0.30534 0.26574,0.63413 0.32898,0.96901 0,0 -25.6535,0.0326 -31.16312,0.0512 -5.509615,0.0186 -7.228196,0.0375 -8.408802,0.055 -1.53327,0.0228 -2.282144,0.21702 -2.978726,0.24449 -0.696583,0.0275 -1.156182,0.0622 -1.7409,0.11392 -0.584717,0.0517 -1.293586,0.11997 -2.089079,0.21249 -0.795468,0.0925 -1.73862,0.2179 -2.60367,0.35585 -0.955562,0.15239 -2.855838,0.52099 -2.855838,0.52099 l -2.753435,0.6234 c -0.863935,0.19559 -1.72133,0.60986 -2.578057,0.92561 -0.748205,0.27576 -1.480829,0.52041 -2.237556,0.84613 -0.449691,0.19359 -0.909687,0.40683 -1.369682,0.63236 -0.459996,0.22551 0.544712,-1.47633 1.449866,-2.16985 1.394354,-1.06834 2.657621,-1.74389 3.97848,-2.30285 1.320884,-0.55896 2.697626,-1.00219 3.988686,-1.3556 1.291059,-0.3534 2.497576,-0.61637 3.595744,-0.7962 1.098194,-0.17984 2.088807,-0.27506 3.051677,-0.32002 0.962895,-0.045 1.897699,-0.0407 8.827385,-0.0384 z"
       id="path41397"
       inkscape:label="L1 Click"
       inkscape:export-filename="..\SD_L1_Active.png"
       inkscape:export-xdpi="96.527351"
       inkscape:export-ydpi="96.527351" /><path
       id="rect11951"
       style="display:inline;fill:#107893;fill-opacity:0.501961;stroke:#24d2f6;stroke-width:1.6;stroke-linecap:round;stroke-linejoin:round;stroke-miterlimit:2;stroke-dasharray:none;stroke-opacity:1"
       inkscape:label="Back Button"
       d="m 52.233343,178.78427 h 22.968671 c 2.812278,0 5.076317,2.38639 5.076317,5.35065 v 22.36287 c 0,2.96426 -2.264039,5.35065 -5.076317,5.35065 H 52.233343 c -2.81228,0 -5.076316,-2.38639 -5.076316,-5.35065 v -22.36287 c 0,-2.96426 2.264036,-5.35065 5.076316,-5.35065 z"
       inkscape:export-filename="..\SD_BackButton.png"
       inkscape:export-xdpi="96.527351"
       inkscape:export-ydpi="96.527351" /><path
       style="color:#000000;fill:#107893;fill-opacity:0.501961;stroke:#24d2f6;stroke-width:2.4;stroke-linecap:round;stroke-linejoin:round;stroke-miterlimit:2;stroke-dasharray:none;stroke-opacity:1"
       d="m 196.74169,190.44249 a 16.547287,16.531237 0 0 1 -16.54728,16.53124 16.547287,16.531237 0 0 1 -16.54729,-16.53124 16.547287,16.531237 0 0 1 16.54729,-16.53124 16.547287,16.531237 0 0 1 16.54728,16.53124 z"
       id="path3897"
       inkscape:label="Stick Click"
       inkscape:export-filename="..\SD_Joystick_Click.png"
       inkscape:export-xdpi="96.527351"
       inkscape:export-ydpi="96.527351" /></g></svg>
