<?xml version="1.0" encoding="UTF-8" standalone="no"?>
<!-- Created with Inkscape (http://www.inkscape.org/) -->

<svg
   width="413.22906mm"
   height="298.40277mm"
   viewBox="0 0 413.22909 298.40279"
   version="1.1"
   id="svg447"
   inkscape:version="1.2 (dc2aedaf03, 2022-05-15)"
   sodipodi:docname="Simple Gamepad.svg"
   xml:space="preserve"
   xmlns:inkscape="http://www.inkscape.org/namespaces/inkscape"
   xmlns:sodipodi="http://sodipodi.sourceforge.net/DTD/sodipodi-0.dtd"
   xmlns="http://www.w3.org/2000/svg"
   xmlns:svg="http://www.w3.org/2000/svg"><sodipodi:namedview
     id="namedview449"
     pagecolor="#ffffff"
     bordercolor="#000000"
     borderopacity="0.25"
     inkscape:showpageshadow="2"
     inkscape:pageopacity="0.0"
     inkscape:pagecheckerboard="0"
     inkscape:deskcolor="#d1d1d1"
     inkscape:document-units="mm"
     showgrid="false"
     inkscape:zoom="0.64693624"
     inkscape:cx="680.12885"
     inkscape:cy="660.03413"
     inkscape:window-width="2560"
     inkscape:window-height="1334"
     inkscape:window-x="-11"
     inkscape:window-y="-11"
     inkscape:window-maximized="1"
     inkscape:current-layer="svg447" /><defs
     id="defs444"><rect
       x="1385.7625"
       y="630.66492"
       width="329.69946"
       height="100.75702"
       id="rect13525" /><rect
       x="1397.4113"
       y="583.6665"
       width="290.74026"
       height="267.24057"
       id="rect11879" /><rect
       x="787.55829"
       y="85.595764"
       width="174.0898"
       height="116.89715"
       id="rect2159" /><rect
       x="643.41736"
       y="115.54462"
       width="149.55106"
       height="111.68025"
       id="rect2153" /><rect
       x="640.50293"
       y="97.277756"
       width="111.48686"
       height="96.184746"
       id="rect2147" /><rect
       x="761.8269"
       y="26.232203"
       width="151.92818"
       height="122.41695"
       id="rect2141" /><rect
       x="510.43494"
       y="87.440674"
       width="107.66133"
       height="116.4054"
       id="rect1351" /><rect
       x="510.43494"
       y="87.440674"
       width="107.66133"
       height="116.4054"
       id="rect1351-0" /><rect
       x="761.8269"
       y="26.232203"
       width="151.92818"
       height="122.41695"
       id="rect2141-3" /><rect
       x="643.41736"
       y="115.54462"
       width="149.55106"
       height="111.68025"
       id="rect2153-8" /><rect
       x="787.55829"
       y="85.595764"
       width="174.0898"
       height="116.89715"
       id="rect2159-7" /><rect
       x="1385.7625"
       y="630.66492"
       width="705.06653"
       height="149.76637"
       id="rect14471" /><rect
       x="1385.7625"
       y="630.66492"
       width="287.16852"
       height="105.48268"
       id="rect14477" /><rect
       x="1385.7625"
       y="630.66492"
       width="705.06653"
       height="149.76637"
       id="rect14487" /></defs><path
     id="rect8021"
     style="fill:#e5faff;fill-opacity:1;stroke:#063647;stroke-width:2.52979;stroke-linecap:round;stroke-linejoin:miter;stroke-dasharray:none;stroke-opacity:1"
     d="m 12.631769,21.365662 c -1.69166,0 -3.05363,1.36162 -3.05363,3.05327 v 1.36024 c 0,1.69166 1.36197,3.05364 3.05363,3.05364 h 4.19611 v 22.25482 h 24.86977 v -22.25482 h 4.19577 c 1.69164,0 3.05362,-1.36198 3.05362,-3.05364 v -1.36024 c 0,-1.69165 -1.36198,-3.05327 -3.05362,-3.05327 z" /><g
     id="g6335"
     style="display:inline"
     inkscape:label="Right Joystick/Trackpad"
     transform="matrix(2.580051,0,0,2.580051,371.98548,262.31321)"
     inkscape:export-filename="C:\Users\AL200\OneDrive\Pictures\AL2009man Work Projects\VSCView - Controller Theme Layout\VSCView - Controller Theme (Ver. 1.20)\Generic\Arcade Stick\Analog Joystick Outline.png"
     inkscape:export-xdpi="95.886261"
     inkscape:export-ydpi="95.886261"><g
       id="g6329"
       inkscape:label="Joystick Body"
       style="display:inline"
       inkscape:export-filename="C:\Users\AL200\OneDrive\Pictures\AL2009man Work Projects\VSCView - Controller Theme Layout\VSCView - Controller Theme (Ver. 1.20)\Generic\Arcade Stick\JoystickOutlineBaseLine.png"
       inkscape:export-xdpi="95.886261"
       inkscape:export-ydpi="95.886261"><path
         style="color:#000000;display:inline;fill:#107893;stroke-width:1.06713;-inkscape-stroke:none"
         d="m -75.074219,-22.761364 c -10.136791,0 -18.374645,8.237854 -18.374645,18.3746453 0,10.1367909 8.237854,18.3746447 18.374645,18.3746447 10.136791,0 18.374645,-8.2378538 18.374645,-18.3746447 0,-10.1367913 -8.237854,-18.3746453 -18.374645,-18.3746453 z"
         id="path6325"
         sodipodi:nodetypes="sssss"
         inkscape:label="Joystick Rear" /><path
         style="color:#000000;display:inline;fill:#203d45;fill-opacity:1;stroke-width:1.8;-inkscape-stroke:none"
         d="M -58.755146,-4.3873529 A 16.318989,16.318989 0 0 1 -75.074135,11.931636 16.318989,16.318989 0 0 1 -91.393124,-4.3873529 16.318989,16.318989 0 0 1 -75.074135,-20.706342 16.318989,16.318989 0 0 1 -58.755146,-4.3873529 Z"
         id="path6327"
         inkscape:label="Joystick Front" /></g><circle
       style="display:inline;fill:#00151a;fill-opacity:1;stroke:none;stroke-width:1.18291;stroke-miterlimit:4;stroke-dasharray:none;stroke-opacity:1"
       id="circle6331"
       cx="-75.074135"
       cy="-4.3873525"
       inkscape:label="Joystick Outline"
       inkscape:export-filename="C:\Users\AL200\OneDrive\Pictures\AL2009man Work Projects\VSCView - Controller Theme Layout\VSCView - Controller Theme (Ver. 1.20)\Generic\Arcade Stick\JoystickOutlineBaseLine.png"
       inkscape:export-xdpi="95.886261"
       inkscape:export-ydpi="95.886261"
       r="4.1019859" /><circle
       style="display:none;fill:#caf5ff;fill-opacity:1;stroke:none;stroke-width:1.18291;stroke-miterlimit:4;stroke-dasharray:none;stroke-opacity:1"
       id="circle6333"
       cx="-75.074135"
       cy="-4.3873525"
       inkscape:label="Analog Joystick"
       inkscape:export-filename="C:\Users\AL200\OneDrive\Pictures\AL2009man Work Projects\VSCView - Controller Theme Layout\VSCView - Controller Theme (Ver. 1.20)\Generic\Arcade Stick\JoystickOutlineBaseLine.png"
       inkscape:export-xdpi="95.886261"
       inkscape:export-ydpi="95.886261"
       r="4.1019859" /></g><g
     id="g84240"
     style="display:inline"
     inkscape:label="Left Joystick/Trackpad"
     transform="matrix(2.580051,0,0,2.580051,241.10284,262.31321)"
     inkscape:export-filename="C:\Users\AL200\OneDrive\Pictures\AL2009man Work Projects\VSCView - Controller Theme Layout\VSCView - Controller Theme (Ver. 1.20)\Generic\Arcade Stick\Analog Joystick Outline.png"
     inkscape:export-xdpi="95.886261"
     inkscape:export-ydpi="95.886261"><g
       id="g84234"
       inkscape:label="Joystick Body"
       style="display:inline"
       inkscape:export-filename="C:\Users\AL200\OneDrive\Pictures\AL2009man Work Projects\VSCView - Controller Theme Layout\VSCView - Controller Theme (Ver. 1.20)\Generic\Arcade Stick\JoystickOutlineBaseLine.png"
       inkscape:export-xdpi="95.886261"
       inkscape:export-ydpi="95.886261"><path
         style="color:#000000;display:inline;fill:#107893;stroke-width:1.06713;-inkscape-stroke:none"
         d="m -75.074219,-22.761364 c -10.136791,0 -18.374645,8.237854 -18.374645,18.3746453 0,10.1367909 8.237854,18.3746447 18.374645,18.3746447 10.136791,0 18.374645,-8.2378538 18.374645,-18.3746447 0,-10.1367913 -8.237854,-18.3746453 -18.374645,-18.3746453 z"
         id="path56566"
         sodipodi:nodetypes="sssss"
         inkscape:label="Joystick Rear" /><path
         style="color:#000000;display:inline;fill:#203d45;fill-opacity:1;stroke-width:1.8;-inkscape-stroke:none"
         d="M -58.755146,-4.3873529 A 16.318989,16.318989 0 0 1 -75.074135,11.931636 16.318989,16.318989 0 0 1 -91.393124,-4.3873529 16.318989,16.318989 0 0 1 -75.074135,-20.706342 16.318989,16.318989 0 0 1 -58.755146,-4.3873529 Z"
         id="path56564"
         inkscape:label="Joystick Front" /></g><circle
       style="display:inline;fill:#00151a;fill-opacity:1;stroke:none;stroke-width:1.18291;stroke-miterlimit:4;stroke-dasharray:none;stroke-opacity:1"
       id="circle66816"
       cx="-75.074135"
       cy="-4.3873525"
       inkscape:label="Joystick Outline"
       inkscape:export-filename="C:\Users\AL200\OneDrive\Pictures\AL2009man Work Projects\VSCView - Controller Theme Layout\VSCView - Controller Theme (Ver. 1.20)\Generic\Arcade Stick\JoystickOutlineBaseLine.png"
       inkscape:export-xdpi="95.886261"
       inkscape:export-ydpi="95.886261"
       r="4.1019859" /><circle
       style="display:none;fill:#caf5ff;fill-opacity:1;stroke:none;stroke-width:1.18291;stroke-miterlimit:4;stroke-dasharray:none;stroke-opacity:1"
       id="circle66734"
       cx="-75.074135"
       cy="-4.3873525"
       inkscape:label="Analog Joystick"
       inkscape:export-filename="C:\Users\AL200\OneDrive\Pictures\AL2009man Work Projects\VSCView - Controller Theme Layout\VSCView - Controller Theme (Ver. 1.20)\Generic\Arcade Stick\JoystickOutlineBaseLine.png"
       inkscape:export-xdpi="95.886261"
       inkscape:export-ydpi="95.886261"
       r="4.1019859" /></g><g
     id="g113945"
     inkscape:label="Directional Pads"
     style="display:inline"
     transform="translate(178.59419,157.67114)"><ellipse
       style="display:inline;fill:#67a6b8;fill-opacity:1;stroke:#107893;stroke-width:3.15097;stroke-miterlimit:4;stroke-dasharray:none;stroke-opacity:1"
       id="circle87268"
       cx="-131.05753"
       cy="-26.677769"
       rx="45.810303"
       ry="45.634132"
       inkscape:label="D-PAD Circle" /><g
       id="g113773"
       inkscape:label="D-PAD Down"
       style="display:inline"><path
         style="display:inline;fill:#e5faff;fill-opacity:1;stroke:#063647;stroke-width:3;stroke-miterlimit:4;stroke-dasharray:none;stroke-opacity:1"
         d="m -131.05761,-25.655685 -13.55886,13.558861 v 27.581777 a 44.459654,44.288678 0 0 0 13.55886,2.12597 44.459654,44.288678 0 0 0 13.38317,-2.064475 v -27.818971 z"
         id="path111982" /><path
         id="path113618"
         style="color:#000000;display:inline;fill:#000000;fill-opacity:1;stroke-width:1;stroke-linecap:round;stroke-linejoin:round;-inkscape-stroke:none"
         d="m -135.02326,7.1464457 a 0.50005001,0.50005001 0 0 0 -0.38499,0.8201051 l 4.26383,5.0978802 a 0.50005001,0.50005001 0 0 0 0.77514,-0.0098 l 4.04317,-5.0973643 a 0.50005001,0.50005001 0 0 0 -0.39068,-0.8108024 z" /></g><g
       id="g113769"
       inkscape:label="D-PAD Right"
       style="display:inline"><path
         style="display:inline;fill:#e5faff;fill-opacity:1;stroke:#063647;stroke-width:3;stroke-miterlimit:4;stroke-dasharray:none;stroke-opacity:1"
         d="m -117.30289,-39.410402 -13.61261,13.612606 13.24106,13.225552 v 0 h 28.732091 c 1.543268,-4.544342 2.335103,-9.308272 2.344558,-14.105599 -0.0012,-4.312755 -0.634683,-8.602216 -1.880505,-12.732554 z"
         id="path111980"
         sodipodi:nodetypes="cccccccc" /><path
         id="path113610"
         style="color:#000000;display:inline;fill:#000000;fill-opacity:1;stroke-width:1;stroke-linecap:round;stroke-linejoin:round;-inkscape-stroke:none"
         d="m -97.706672,-30.853303 a 0.50005001,0.50005001 0 0 0 -0.181901,0.04651 0.50005001,0.50005001 0 0 0 -0.287321,0.453202 v 8.304919 a 0.50005001,0.50005001 0 0 0 0.810802,0.392223 l 5.097364,-4.042648 a 0.50005001,0.50005001 0 0 0 0.0098,-0.775663 l -5.097365,-4.263305 a 0.50005001,0.50005001 0 0 0 -0.351398,-0.115239 z" /></g><g
       id="g113777"
       inkscape:label="D-PAD Left"
       style="display:inline"><path
         style="display:inline;fill:#e5faff;fill-opacity:1;stroke:#063647;stroke-width:3;stroke-miterlimit:4;stroke-dasharray:none;stroke-opacity:1"
         d="m -173.62865,-39.410402 c -1.24845,4.12995 -1.88458,8.41942 -1.88826,12.732554 0.009,4.797298 0.80095,9.56123 2.34404,14.105599 h 28.5564 v 0 l 13.41675,-13.225547 -13.6126,-13.612606 z"
         id="path111978"
         sodipodi:nodetypes="cccccccc" /><path
         id="path113602"
         style="color:#000000;display:inline;fill:#000000;fill-opacity:1;stroke-width:1;stroke-linecap:round;stroke-linejoin:round;-inkscape-stroke:none"
         d="m -164.41268,-30.853303 a 0.50005001,0.50005001 0 0 0 -0.35088,0.115239 l -5.09581,4.263305 a 0.50005001,0.50005001 0 0 0 0.01,0.775663 l 5.09582,4.042648 a 0.50005001,0.50005001 0 0 0 0.81235,-0.392223 v -8.304919 a 0.50005001,0.50005001 0 0 0 -0.28887,-0.453202 0.50005001,0.50005001 0 0 0 -0.18242,-0.04651 z" /></g><g
       id="g113765"
       inkscape:label="D-PAD Up"
       style="display:inline"><path
         style="display:inline;fill:#e5faff;fill-opacity:1;stroke:#063647;stroke-width:3;stroke-miterlimit:4;stroke-dasharray:none;stroke-opacity:1"
         d="m -131.05761,-70.966099 c -4.60284,0.0052 -9.17696,0.722419 -13.55886,2.125969 v 29.34136 l 13.55886,13.558864 13.38317,-13.470496 v 0 -29.500008 c -4.32952,-1.361932 -8.84291,-2.055201 -13.38317,-2.055689 z"
         id="rect86691"
         sodipodi:nodetypes="cccccccc" /><path
         id="path113626"
         style="color:#000000;display:inline;fill:#000000;fill-opacity:1;stroke-width:1;stroke-linecap:round;stroke-linejoin:round;-inkscape-stroke:none"
         d="m -130.75375,-64.716868 a 0.50005001,0.50005001 0 0 0 -0.39067,0.179834 l -4.26383,5.097364 a 0.50005001,0.50005001 0 0 0 0.38499,0.820621 h 8.30647 a 0.50005001,0.50005001 0 0 0 0.39068,-0.810803 l -4.04317,-5.097363 a 0.50005001,0.50005001 0 0 0 -0.38447,-0.189653 z" /></g></g><g
     id="g7775"
     inkscape:label="Face Button"
     transform="translate(-116.00915,-162.46617)"><g
       id="g1171"
       inkscape:label="A Button"
       transform="translate(109.85892,63.814803)"><path
         style="color:#000000;display:inline;fill:#107893;fill-opacity:1;stroke-width:0.79954"
         d="m 184.57966,250.98927 c -11.36349,0 -20.63494,9.11459 -20.63494,20.36715 0,11.25256 9.27145,20.36716 20.63494,20.36716 11.36349,0 20.63649,-9.1146 20.63649,-20.36716 0,-11.25256 -9.273,-20.36715 -20.63649,-20.36715 z"
         id="path3753-9"
         sodipodi:nodetypes="sssss"
         inkscape:label="path3753-9" /><path
         style="color:#000000;display:inline;fill:#caf5ff;fill-opacity:1;stroke-width:0.605455"
         d="m 184.57985,255.93329 c -8.60506,0 -15.62591,6.90208 -15.62591,15.42314 0,8.52105 7.02085,15.42313 15.62591,15.42313 8.60506,0 15.62709,-6.90208 15.62709,-15.42313 0,-8.52106 -7.02203,-15.42314 -15.62709,-15.42314 z"
         id="path3753-9-04"
         sodipodi:nodetypes="sssss"
         inkscape:label="path3753-9" /><path
         d="m 178.587,280.20771 v -17.70258 h 5.61692 q 2.56774,0 4.06147,1.12338 1.50608,1.12339 1.50608,2.92575 0,1.50607 -0.8518,2.61711 -0.8518,1.11104 -2.35788,1.58015 v 0.0494 q 1.82705,0.20986 2.9134,1.35793 1.09869,1.13573 1.09869,2.96277 0,2.27147 -1.79001,3.67878 -1.79001,1.40732 -4.51823,1.40732 z m 2.92574,-15.3447 v 5.03671 h 1.90111 q 1.53077,0 2.39491,-0.716 0.87648,-0.72835 0.87648,-2.04925 0,-2.27146 -3.03684,-2.27146 z m 0,7.39459 v 5.60458 h 2.50601 q 1.64187,0 2.5307,-0.75304 0.90118,-0.76539 0.90118,-2.09864 0,-2.7529 -3.81457,-2.7529 z"
         style="font-weight:600;font-size:39.6744px;line-height:1.25;font-family:'Segoe UI';-inkscape-font-specification:'Segoe UI Semi-Bold';text-align:center;text-anchor:middle;white-space:pre;display:inline;fill:#000000;fill-opacity:1;stroke-width:0.637247"
         id="path84004"
         inkscape:label="Nintendo - B" /><path
         d="M 192.53394,279.88058 H 189.431 l -1.53363,-4.33936 h -6.7052 l -1.47419,4.33936 h -3.09104 l 6.3842,-17.04831 h 3.18616 z m -5.38555,-6.64575 -2.36584,-6.80031 q -0.107,-0.33288 -0.22589,-1.06997 h -0.0476 q -0.10699,0.67765 -0.23777,1.06997 l -2.34207,6.80031 z"
         style="font-weight:600;font-size:39.6744px;line-height:1.25;font-family:'Segoe UI';-inkscape-font-specification:'Segoe UI Semi-Bold';text-align:center;text-anchor:middle;white-space:pre;fill:#000000;fill-opacity:1;stroke-width:0.613693"
         id="path83828"
         inkscape:label="Xbox - A" /><path
         id="path117084-6-1-9"
         style="display:inline;fill:#000000;fill-opacity:1;stroke-width:1.12262"
         d="m 177.51638,262.70415 -1.58821,1.5869 7.06471,7.06472 -7.06471,7.06471 1.58821,1.58821 7.06472,-7.06471 7.06339,7.06471 1.58822,-1.58821 -7.06472,-7.06471 7.06472,-7.06472 -1.58822,-1.5869 -7.06339,7.06341 z"
         inkscape:label="PlayStation - Cross" /></g><g
       id="g1185"
       transform="translate(54.972353,105.25484)"><path
         style="color:#000000;display:inline;fill:#107893;fill-opacity:1;stroke-width:0.79954;-inkscape-stroke:none"
         d="m 202.32669,172.41011 c -11.36349,0 -20.63494,9.11459 -20.63494,20.36715 0,11.25256 9.27145,20.36716 20.63494,20.36716 11.36348,0 20.63649,-9.1146 20.63649,-20.36716 0,-11.25256 -9.27301,-20.36715 -20.63649,-20.36715 z"
         id="path3753-9-32"
         sodipodi:nodetypes="sssss" /><path
         style="color:#000000;display:inline;fill:#caf5ff;fill-opacity:1;stroke-width:0.605455;-inkscape-stroke:none"
         d="m 202.32687,177.35413 c -8.60505,0 -15.62591,6.90207 -15.62591,15.42314 0,8.52105 7.02086,15.42313 15.62591,15.42313 8.60506,0 15.62709,-6.90208 15.62709,-15.42313 0,-8.52107 -7.02203,-15.42314 -15.62709,-15.42314 z"
         id="path3753-9-04-1"
         sodipodi:nodetypes="sssss"
         inkscape:label="path3753-9" /><path
         d="m 209.16988,184.36215 -5.51618,10.71548 v 6.11475 h -2.79331 v -6.05607 l -5.37534,-10.77416 h 3.1806 l 3.30971,7.21798 q 0.0587,0.12911 0.3521,0.97414 h 0.0352 q 0.10563,-0.37557 0.38731,-0.97414 l 3.46228,-7.21798 z"
         style="font-weight:600;font-size:39.6744px;line-height:1.25;font-family:'Segoe UI';-inkscape-font-specification:'Segoe UI Semi-Bold';text-align:center;text-anchor:middle;white-space:pre;display:inline;fill:#000000;fill-opacity:1;stroke-width:0.605842"
         id="path84001"
         inkscape:label="Nintendo - Y" /><path
         d="m 209.5695,201.20672 h -3.35062 l -3.45642,-6.18396 q -0.15285,-0.28215 -0.34094,-0.79944 h -0.047 q -0.10581,0.25864 -0.35269,0.79944 l -3.56224,6.18396 h -3.37413 l 5.52558,-8.47649 -5.07884,-8.38242 h 3.42116 l 3.04495,5.69017 q 0.29392,0.56432 0.52905,1.12863 h 0.0353 q 0.34094,-0.74066 0.58782,-1.17565 l 3.16252,-5.64315 h 3.15076 l -5.1964,8.35891 z"
         style="font-weight:600;font-size:39.6744px;line-height:1.25;font-family:'Segoe UI';-inkscape-font-specification:'Segoe UI Semi-Bold';text-align:center;text-anchor:middle;white-space:pre;fill:#000000;fill-opacity:1;stroke-width:0.606874"
         id="path83871"
         inkscape:label="Xbox - X" /><path
         fill-rule="evenodd"
         clip-rule="evenodd"
         d="m 193.65838,184.10818 h 17.33816 v 17.33817 h -17.33816 z m 2.16727,2.16729 v 13.00361 h 13.00362 v -13.00361 z"
         fill="#d6b4d7"
         id="path117218-9"
         style="display:inline;fill:#000000;fill-opacity:1;stroke-width:1.08363"
         inkscape:label="PlayStation - Square" /></g><g
       id="g1192"
       transform="translate(51.341675,85.101991)"
       style="display:inline"><path
         style="color:#000000;display:inline;fill:#107893;fill-opacity:1;stroke-width:0.79954;-inkscape-stroke:none"
         d="m 243.0969,155.42383 c -11.36348,0 -20.63493,9.1146 -20.63493,20.36716 0,11.25255 9.27145,20.36715 20.63493,20.36715 11.36349,0 20.6365,-9.1146 20.6365,-20.36715 0,-11.25256 -9.27301,-20.36716 -20.6365,-20.36716 z"
         id="path3753-9-0"
         sodipodi:nodetypes="sssss" /><path
         style="color:#000000;display:inline;fill:#caf5ff;fill-opacity:1;stroke-width:0.605455;-inkscape-stroke:none"
         d="m 243.09709,160.36785 c -8.60506,0 -15.62591,6.90208 -15.62591,15.42314 0,8.52105 7.02085,15.42313 15.62591,15.42313 8.60506,0 15.62709,-6.90208 15.62709,-15.42313 0,-8.52106 -7.02202,-15.42314 -15.62709,-15.42314 z"
         id="path3753-9-04-18-6"
         sodipodi:nodetypes="sssss"
         inkscape:label="path3753-9" /><path
         d="m 250.33972,184.22044 h -3.35062 l -3.45643,-6.18396 q -0.15284,-0.28215 -0.34094,-0.79944 h -0.047 q -0.10581,0.25864 -0.35269,0.79944 l -3.56224,6.18396 h -3.37413 l 5.52558,-8.47648 -5.07884,-8.38243 h 3.42116 l 3.04495,5.69017 q 0.29392,0.56432 0.52905,1.12863 h 0.0353 q 0.34094,-0.74066 0.58782,-1.17565 l 3.16251,-5.64315 h 3.15077 l -5.1964,8.35891 z"
         style="font-weight:600;font-size:39.6744px;line-height:1.25;font-family:'Segoe UI';-inkscape-font-specification:'Segoe UI Semi-Bold';text-align:center;text-anchor:middle;white-space:pre;display:inline;fill:#000000;fill-opacity:1;stroke-width:0.606874"
         id="path83998"
         inkscape:label="Nintendo - X" /><path
         d="m 249.94009,167.37587 -5.51618,10.71548 v 6.11475 h -2.7933 v -6.05607 l -5.37534,-10.77416 h 3.1806 l 3.30971,7.21798 q 0.0587,0.12911 0.3521,0.97414 h 0.0352 q 0.10563,-0.37557 0.38731,-0.97414 l 3.46228,-7.21798 z"
         style="font-weight:600;font-size:39.6744px;line-height:1.25;font-family:'Segoe UI';-inkscape-font-specification:'Segoe UI Semi-Bold';text-align:center;text-anchor:middle;white-space:pre;fill:#000000;fill-opacity:1;stroke-width:0.605842"
         id="path83868"
         inkscape:label="Xbox - Y" /><path
         fill-rule="evenodd"
         clip-rule="evenodd"
         d="m 243.09765,165.4902 10.04388,17.57672 h -20.0877 z m -6.48381,15.51075 h 12.96773 l -6.48392,-11.34668 z"
         fill="#3ccad0"
         id="path117232-4"
         style="display:inline;fill:#000000;fill-opacity:1;stroke-width:1.03298"
         inkscape:label="PlayStation - Triangle" /></g><g
       id="g1178"
       transform="translate(97.003583,74.436773)"><path
         style="color:#000000;display:inline;fill:#107893;fill-opacity:1;stroke-width:0.79954;-inkscape-stroke:none"
         d="m 234.57371,203.22818 c -11.36349,0 -20.63494,9.11459 -20.63494,20.36715 0,11.25256 9.27145,20.36716 20.63494,20.36716 11.36348,0 20.63649,-9.1146 20.63649,-20.36716 0,-11.25256 -9.27301,-20.36715 -20.63649,-20.36715 z"
         id="path3753-9-0-9"
         sodipodi:nodetypes="sssss" /><path
         style="color:#000000;display:inline;fill:#caf5ff;fill-opacity:1;stroke-width:0.605455;-inkscape-stroke:none"
         d="m 234.57389,208.1722 c -8.60505,0 -15.62591,6.90208 -15.62591,15.42314 0,8.52105 7.02086,15.42313 15.62591,15.42313 8.60506,0 15.62709,-6.90208 15.62709,-15.42313 0,-8.52106 -7.02202,-15.42314 -15.62709,-15.42314 z"
         id="path3753-9-04-18-6-1"
         sodipodi:nodetypes="sssss"
         inkscape:label="path3753-9" /><path
         d="m 242.52798,232.11949 h -3.10293 l -1.53364,-4.33935 h -6.70519 l -1.47419,4.33935 h -3.09105 l 6.3842,-17.04831 h 3.18616 z m -5.38555,-6.64575 -2.36584,-6.80031 q -0.10699,-0.33288 -0.22588,-1.06997 h -0.0476 q -0.107,0.67765 -0.23778,1.06997 l -2.34207,6.80031 z"
         style="font-weight:600;font-size:39.6744px;line-height:1.25;font-family:'Segoe UI';-inkscape-font-specification:'Segoe UI Semi-Bold';text-align:center;text-anchor:middle;white-space:pre;fill:#000000;fill-opacity:1;stroke-width:0.613693"
         id="path83995"
         inkscape:label="A" /><path
         d="m 228.58104,232.44662 v -17.70258 h 5.61692 q 2.56774,0 4.06147,1.12339 1.50608,1.12338 1.50608,2.92574 0,1.50608 -0.8518,2.61711 -0.8518,1.11104 -2.35788,1.58015 v 0.0494 q 1.82705,0.20986 2.9134,1.35794 1.0987,1.13573 1.0987,2.96277 0,2.27146 -1.79002,3.67878 -1.79001,1.40732 -4.51822,1.40732 z m 2.92574,-15.3447 v 5.03671 h 1.90111 q 1.53077,0 2.39491,-0.716 0.87649,-0.72835 0.87649,-2.04925 0,-2.27146 -3.03685,-2.27146 z m 0,7.39459 v 5.60458 h 2.50601 q 1.64187,0 2.5307,-0.75304 0.90118,-0.76538 0.90118,-2.09863 0,-2.75291 -3.81457,-2.75291 z"
         style="font-weight:600;font-size:39.6744px;line-height:1.25;font-family:'Segoe UI';-inkscape-font-specification:'Segoe UI Semi-Bold';text-align:center;text-anchor:middle;white-space:pre;fill:#000000;fill-opacity:1;stroke-width:0.637247"
         id="path83865"
         inkscape:label="B" /><path
         fill-rule="evenodd"
         clip-rule="evenodd"
         d="m 234.57448,215.09779 c -4.69308,0 -8.49754,3.80446 -8.49754,8.49755 0,4.69308 3.80446,8.49754 8.49754,8.49754 4.69309,0 8.49754,-3.80446 8.49754,-8.49754 0,-4.69309 -3.80445,-8.49755 -8.49754,-8.49755 z m -10.62193,8.49755 c 0,-5.86628 4.75565,-10.62193 10.62193,-10.62193 5.86628,0 10.62193,4.75565 10.62193,10.62193 0,5.86628 -4.75565,10.62193 -10.62193,10.62193 -5.86628,0 -10.62193,-4.75565 -10.62193,-10.62193 z"
         fill="#ed838f"
         id="path117246-7"
         style="display:inline;fill:#000000;fill-opacity:1;stroke-width:1.06219"
         inkscape:label="Circle" /></g></g><text
     xml:space="preserve"
     style="font-style:normal;font-variant:normal;font-weight:normal;font-stretch:normal;font-size:15.5956px;font-family:'Segoe UI';-inkscape-font-specification:'Segoe UI';fill:#000000;fill-opacity:1;stroke-width:0.162453"
     x="20.859423"
     y="41.686592"
     id="text1357"><tspan
       sodipodi:role="line"
       id="tspan1355"
       style="font-style:normal;font-variant:normal;font-weight:600;font-stretch:normal;font-size:15.5956px;font-family:'Segoe UI';-inkscape-font-specification:'Segoe UI Semi-Bold';fill:#000000;fill-opacity:1;stroke-width:0.162453"
       x="20.859423"
       y="41.686592">LS</tspan></text><text
     xml:space="preserve"
     transform="matrix(0.16929059,0,0,0.16929059,-88.264111,7.7167289)"
     id="text2151"
     style="font-style:normal;font-variant:normal;font-weight:600;font-stretch:normal;font-size:96px;font-family:'Segoe UI';-inkscape-font-specification:'Segoe UI Semi-Bold';white-space:pre;shape-inside:url(#rect2153);display:inline;fill:#000000;fill-opacity:1"><tspan
       x="643.41797"
       y="202.01735"
       id="tspan17182">L3</tspan></text><path
     id="path6698-8"
     style="display:inline;fill:#e5faff;fill-opacity:1;stroke:#063647;stroke-width:3.56853;stroke-linecap:round;stroke-linejoin:miter;stroke-miterlimit:4;stroke-dasharray:none;stroke-opacity:1"
     d="m 153.12383,1.7842652 c -5.47691,0.006 -10.74811,1.58847 -16.13366,4.91386 V 33.904355 h 32.05825 V 6.6145352 c -5.3911,-3.32879 -10.52215,-4.82968 -15.92459,-4.83027 z"
     sodipodi:nodetypes="cccccc" /><path
     id="path6698"
     style="display:inline;fill:#e5faff;fill-opacity:1;stroke:#063647;stroke-width:3.633;stroke-linecap:round;stroke-miterlimit:4;stroke-dasharray:none;stroke-opacity:1"
     d="m 153.19407,44.900785 c -9.15596,0.004 -17.96803,0.98464 -26.97128,3.04591 v 18.96068 h 53.59301 v -19.0125 c -9.01248,-2.06338 -17.59027,-2.99373 -26.62173,-2.99409 z"
     sodipodi:nodetypes="cccccc" /><path
     id="path382"
     style="display:inline;fill:#e5faff;fill-opacity:1;stroke:#063647;stroke-width:3.56853;stroke-linecap:round;stroke-linejoin:miter;stroke-miterlimit:4;stroke-dasharray:none;stroke-opacity:1"
     d="m 83.485448,1.7842651 c -5.4769,0.006 -10.74811,1.58847 -16.13367,4.91386 V 33.904355 h 32.05827 V 6.6145351 c -5.3911,-3.32879 -10.52212,-4.82968 -15.9246,-4.83027 z"
     sodipodi:nodetypes="cccccc" /><path
     id="path384"
     style="display:inline;fill:#e5faff;fill-opacity:1;stroke:#063647;stroke-width:3.633;stroke-linecap:round;stroke-miterlimit:4;stroke-dasharray:none;stroke-opacity:1"
     d="m 83.555648,44.900785 c -9.1559,0.004 -17.96803,0.98463 -26.97125,3.04591 v 18.96067 h 53.593012 v -19.01248 c -9.01246,-2.06339 -17.590272,-2.99373 -26.621762,-2.9941 z"
     sodipodi:nodetypes="cccccc" /><path
     id="rect8021-3"
     style="fill:#e5faff;fill-opacity:1;stroke:#063647;stroke-width:2.52979;stroke-linecap:round;stroke-linejoin:miter;stroke-dasharray:none;stroke-opacity:1"
     d="m 193.52097,20.291653 c -1.69165,0 -3.05362,1.36162 -3.05362,3.0533 v 1.36021 c 0,1.69166 1.36197,3.05362 3.05362,3.05362 h 4.19612 v 22.25483 h 24.86978 v -22.25483 h 4.19576 c 1.69165,0 3.05363,-1.36196 3.05363,-3.05362 v -1.36021 c 0,-1.69168 -1.36198,-3.0533 -3.05363,-3.0533 z" /><text
     xml:space="preserve"
     style="font-weight:600;font-size:23.1658px;font-family:'Segoe UI';-inkscape-font-specification:'Segoe UI Semi-Bold';fill:#000000;fill-opacity:1;stroke:none;stroke-width:3.31343;stroke-linecap:round"
     x="201.88315"
     y="43.262901"
     id="text759-8"><tspan
       sodipodi:role="line"
       id="tspan757-1"
       style="fill:#000000;fill-opacity:1;stroke:none;stroke-width:3.31344"
       x="201.88315"
       y="43.262901">R</tspan></text><g
     id="g1207"
     transform="translate(-126.1093,-205.66057)"><path
       id="path83990"
       style="font-weight:600;font-size:39.6744px;line-height:1.25;font-family:'Segoe UI';-inkscape-font-specification:'Segoe UI Semi-Bold';text-align:center;text-anchor:middle;white-space:pre;fill:#000000;fill-opacity:1;stroke-width:0.481394"
       d="m 268.26828,216.81787 v 1.88392 h 6.78906 l -7.35703,10.4729 v 1.0173 h 10.34224 v -1.8746 h -7.23704 l 7.33037,-10.52889 v -0.97063 z m 11.95552,0 v 13.37412 h 2.21057 v -5.42778 h 0.89596 c 0.27978,0 0.53082,0.0343 0.75464,0.10266 0.22382,0.0684 0.42945,0.17744 0.61597,0.32665 0.19273,0.14922 0.37835,0.34106 0.55865,0.57731 0.18651,0.23004 0.37657,0.51046 0.5693,0.83997 l 2.13592,3.58119 h 2.59189 l -2.37724,-3.75851 c -0.19273,-0.29221 -0.37032,-0.54771 -0.53197,-0.76531 -0.15542,-0.22382 -0.31433,-0.42189 -0.47598,-0.59597 -0.16164,-0.17408 -0.33168,-0.34234 -0.51198,-0.50399 -0.1803,-0.16786 -0.39218,-0.32053 -0.63464,-0.45731 v -0.0373 c 0.45385,-0.11813 0.86069,-0.28505 1.22128,-0.50265 0.36681,-0.2176 0.6784,-0.47933 0.93329,-0.78397 0.26113,-0.31086 0.4592,-0.66161 0.59598,-1.05329 0.14299,-0.39789 0.21466,-0.83411 0.21466,-1.30661 0,-0.60306 -0.11218,-1.1283 -0.33599,-1.57593 -0.2176,-0.45385 -0.52161,-0.82953 -0.91329,-1.12796 -0.39168,-0.30464 -0.85148,-0.53209 -1.37994,-0.6813 -0.52846,-0.14921 -1.10667,-0.22399 -1.7346,-0.22399 z m 2.21057,1.79993 h 1.86526 c 0.75849,0 1.33981,0.18071 1.74393,0.54131 0.40411,0.36059 0.60664,0.8609 0.60664,1.50127 0,0.35437 -0.0592,0.6753 -0.17733,0.96129 -0.11812,0.28599 -0.28327,0.52769 -0.49465,0.72664 -0.21138,0.19895 -0.46376,0.35162 -0.75596,0.45731 -0.28599,0.10569 -0.59936,0.15866 -0.94129,0.15866 h -1.8466 z"
       inkscape:label="ZR" /><path
       id="path83860"
       style="font-weight:600;font-size:39.6744px;line-height:1.25;font-family:'Segoe UI';-inkscape-font-specification:'Segoe UI Semi-Bold';text-align:center;text-anchor:middle;white-space:pre;display:inline;fill:#000000;fill-opacity:1;stroke-width:0.481394"
       inkscape:label="RT"
       d="m 269.11758,216.81787 v 13.37412 h 2.21059 v -5.42778 h 0.89462 c 0.27977,0 0.53216,0.0343 0.75597,0.10266 0.22382,0.0684 0.42813,0.17744 0.61464,0.32665 0.19273,0.14922 0.37968,0.34106 0.55998,0.57731 0.18651,0.23004 0.37658,0.51046 0.56931,0.83997 l 2.13458,3.58119 h 2.59322 l -2.37856,-3.75851 c -0.19273,-0.29221 -0.36901,-0.54771 -0.53065,-0.76531 -0.15543,-0.22382 -0.31433,-0.42189 -0.47598,-0.59597 -0.16164,-0.17408 -0.33302,-0.34234 -0.51331,-0.50399 -0.18029,-0.16786 -0.39218,-0.32053 -0.63464,-0.45731 v -0.0373 c 0.45385,-0.11813 0.86202,-0.28505 1.22261,-0.50265 0.36681,-0.2176 0.67706,-0.47933 0.93197,-0.78397 0.26111,-0.31086 0.46053,-0.66161 0.5973,-1.05329 0.14299,-0.39789 0.21466,-0.83411 0.21466,-1.30661 0,-0.60306 -0.11218,-1.1283 -0.33598,-1.57593 -0.2176,-0.45385 -0.52295,-0.82953 -0.91463,-1.12796 -0.39168,-0.30464 -0.85148,-0.53209 -1.37994,-0.6813 -0.52846,-0.14921 -1.10667,-0.22399 -1.7346,-0.22399 z m 10.12759,0 v 1.88392 h 3.83318 v 11.4902 h 2.21857 v -11.4902 h 3.84251 v -1.88392 z m -7.917,1.79993 h 1.86391 c 0.7585,0 1.33982,0.18071 1.74393,0.54131 0.40412,0.36059 0.60664,0.8609 0.60664,1.50127 0,0.35437 -0.0592,0.6753 -0.17732,0.96129 -0.11812,0.28599 -0.28327,0.52769 -0.49465,0.72664 -0.21139,0.19895 -0.46243,0.35162 -0.75464,0.45731 -0.28599,0.10569 -0.60069,0.15866 -0.94263,0.15866 h -1.84525 z" /><path
       id="path83945"
       style="font-weight:600;font-size:39.6744px;line-height:1.25;font-family:'Segoe UI';-inkscape-font-specification:'Segoe UI Semi-Bold';text-align:center;text-anchor:middle;white-space:pre;fill:#000000;fill-opacity:1;stroke-width:0.481394"
       d="m 284.56628,216.70671 c -0.32164,0.005 -0.62631,0.0298 -0.91463,0.0733 -0.32951,0.0497 -0.64421,0.12763 -0.94263,0.23332 -0.29842,0.0995 -0.58686,0.22722 -0.86663,0.38265 -0.27977,0.14921 -0.55708,0.32681 -0.83063,0.53198 v 2.07991 c 0.52224,-0.5098 1.06617,-0.89305 1.63193,-1.14795 0.56576,-0.25491 1.12216,-0.38132 1.66927,-0.38132 0.31707,0 0.60995,0.0454 0.8773,0.13866 0.26733,0.087 0.4979,0.22102 0.69063,0.40132 0.19895,0.17408 0.35029,0.3953 0.45598,0.66264 0.1119,0.26112 0.16799,0.56825 0.16799,0.92263 0,0.32329 -0.0468,0.62552 -0.14,0.90529 -0.0933,0.27356 -0.22278,0.53395 -0.39065,0.78264 -0.16786,0.24868 -0.37039,0.49172 -0.60664,0.72797 -0.23626,0.23003 -0.49798,0.4655 -0.78397,0.70797 -0.30463,0.2549 -0.61489,0.5104 -0.93196,0.7653 -0.31708,0.24869 -0.62865,0.51042 -0.9333,0.78397 -0.30463,0.26733 -0.58995,0.54642 -0.85729,0.83863 -0.26733,0.28599 -0.50102,0.59445 -0.69997,0.92396 -0.19895,0.32329 -0.35652,0.67093 -0.47465,1.04396 -0.11814,0.36681 -0.17733,0.76118 -0.17733,1.18395 v 1.03596 h 8.393 v -1.85593 h -6.03442 v -0.0467 c 0,-0.26733 0.0872,-0.53217 0.26132,-0.7933 0.1803,-0.26733 0.41398,-0.53084 0.69997,-0.79197 0.28599,-0.26733 0.60559,-0.53841 0.95996,-0.81196 0.36059,-0.27977 0.72203,-0.56509 1.08262,-0.8573 0.42898,-0.35438 0.81713,-0.70023 1.16528,-1.03596 0.34817,-0.33572 0.64284,-0.68959 0.8853,-1.06262 0.2487,-0.37303 0.43876,-0.77363 0.56931,-1.20262 0.1368,-0.4352 0.20532,-0.92438 0.20532,-1.46527 0,-0.59684 -0.0966,-1.1252 -0.28932,-1.58527 -0.18651,-0.46007 -0.45314,-0.84198 -0.8013,-1.14662 -0.34816,-0.31085 -0.76879,-0.54454 -1.25994,-0.69997 -0.49116,-0.16164 -1.03821,-0.24132 -1.64127,-0.24132 -0.0466,0 -0.0927,-7.5e-4 -0.13865,0 z m -15.21137,0.22266 v 13.37412 h 2.21057 v -5.42778 h 0.89463 c 0.27977,0 0.53215,0.0343 0.75597,0.10267 0.22382,0.0684 0.42946,0.17744 0.61597,0.32665 0.19273,0.14921 0.37835,0.34106 0.55865,0.57731 0.18651,0.23003 0.37657,0.51046 0.56931,0.83997 l 2.13591,3.58118 h 2.59189 l -2.37723,-3.75851 c -0.19273,-0.29221 -0.37033,-0.54771 -0.53198,-0.7653 -0.15542,-0.22382 -0.31433,-0.4219 -0.47598,-0.59598 -0.16164,-0.17408 -0.33302,-0.34234 -0.51331,-0.50398 -0.1803,-0.16786 -0.39084,-0.32054 -0.63331,-0.45731 v -0.0373 c 0.45386,-0.11813 0.86069,-0.28638 1.22128,-0.50398 0.36681,-0.2176 0.67839,-0.478 0.9333,-0.78264 0.26112,-0.31086 0.4592,-0.66161 0.59597,-1.05329 0.14299,-0.39789 0.21466,-0.83411 0.21466,-1.30661 0,-0.60306 -0.11218,-1.1283 -0.33599,-1.57594 -0.2176,-0.45384 -0.52161,-0.82953 -0.91329,-1.12795 -0.39168,-0.30464 -0.85149,-0.53209 -1.37994,-0.6813 -0.52847,-0.14921 -1.10667,-0.224 -1.7346,-0.224 z m 2.21057,1.79993 h 1.86526 c 0.75849,0 1.33981,0.18071 1.74393,0.54131 0.40411,0.36059 0.6053,0.86091 0.6053,1.50127 0,0.35438 -0.0579,0.67531 -0.17598,0.96129 -0.11812,0.28599 -0.28327,0.52769 -0.49465,0.72664 -0.21138,0.19895 -0.46376,0.35162 -0.75596,0.45732 -0.286,0.10569 -0.59936,0.15866 -0.9413,0.15866 h -1.84659 z"
       inkscape:label="R2" /></g><g
     id="g1202"
     transform="matrix(0.93158644,0,0,0.93158644,-114.78892,-107.86904)"
     inkscape:label="g1202"><path
       d="m 292.98561,182.93186 h -2.7651 l -2.27773,-3.81942 q -0.30833,-0.52716 -0.60673,-0.89518 -0.28844,-0.37796 -0.59678,-0.61668 -0.29839,-0.23871 -0.65647,-0.34812 -0.35806,-0.10942 -0.80565,-0.10942 h -0.95485 v 5.78881 H 281.965 V 168.6687 h 4.6947 q 1.00458,0 1.85003,0.23871 0.84545,0.23873 1.47207,0.72609 0.62662,0.47743 0.97475,1.20352 0.35807,0.71613 0.35807,1.68094 0,0.75593 -0.22876,1.3925 -0.21883,0.62662 -0.63658,1.12394 -0.4078,0.48738 -0.99465,0.8355 -0.57689,0.34813 -1.30297,0.5371 v 0.0398 q 0.38791,0.21881 0.67636,0.48737 0.28844,0.25861 0.54705,0.53711 0.25861,0.2785 0.50726,0.63656 0.25861,0.34813 0.56695,0.81561 z m -8.66331,-12.3435 v 4.63503 h 1.96938 q 0.54706,0 1.00458,-0.16908 0.46749,-0.16909 0.80567,-0.48738 0.33818,-0.31828 0.52716,-0.77581 0.18899,-0.45754 0.18899,-1.02448 0,-1.02448 -0.64652,-1.60137 -0.64652,-0.5769 -1.85998,-0.5769 z"
       style="font-weight:600;font-size:39.6744px;line-height:1.25;font-family:'Segoe UI';-inkscape-font-specification:'Segoe UI Semi-Bold';text-align:center;text-anchor:middle;white-space:pre;fill:#000000;fill-opacity:1;stroke-width:0.513435"
       id="path83987"
       inkscape:label="R" /><path
       id="path83855"
       style="font-weight:600;font-size:39.6744px;line-height:1.25;font-family:'Segoe UI';-inkscape-font-specification:'Segoe UI Semi-Bold';text-align:center;text-anchor:middle;white-space:pre;fill:#000000;fill-opacity:1;stroke-width:0.481394"
       d="m 277.00241,169.11389 v 13.37278 h 2.21057 v -5.42777 h 0.89463 c 0.27977,0 0.53216,0.0343 0.75597,0.10266 0.22382,0.0684 0.42813,0.17743 0.61465,0.32665 0.19273,0.14921 0.37967,0.34106 0.55997,0.57731 0.18651,0.23004 0.37658,0.51046 0.56931,0.83997 l 2.13458,3.58118 h 2.59322 l -2.37856,-3.75851 c -0.19273,-0.2922 -0.369,-0.5477 -0.53065,-0.7653 -0.15542,-0.22382 -0.31433,-0.42189 -0.47598,-0.59597 -0.16164,-0.17408 -0.33302,-0.34234 -0.51331,-0.50398 -0.18029,-0.16786 -0.39084,-0.32054 -0.63331,-0.45732 v -0.0373 c 0.45385,-0.11812 0.86069,-0.28505 1.22129,-0.50265 0.36681,-0.2176 0.67705,-0.47933 0.93196,-0.78396 0.26112,-0.31087 0.46052,-0.66162 0.5973,-1.05329 0.14299,-0.3979 0.21466,-0.83411 0.21466,-1.30662 0,-0.60306 -0.11215,-1.1283 -0.33598,-1.57593 -0.2176,-0.45385 -0.52162,-0.82953 -0.9133,-1.12795 -0.39168,-0.30464 -0.85281,-0.5321 -1.38127,-0.68131 -0.52846,-0.14921 -1.10667,-0.22266 -1.7346,-0.22266 z m 11.89017,0 v 13.37278 h 4.29049 c 1.37399,0 2.51171,-0.3552 3.41319,-1.06395 0.90149,-0.70876 1.35195,-1.6346 1.35195,-2.77855 0,-0.92014 -0.27731,-1.6666 -0.83064,-2.23858 -0.5471,-0.57819 -1.27977,-0.91959 -2.1999,-1.02529 v -0.0373 c 0.75849,-0.23626 1.35094,-0.63375 1.77992,-1.19329 0.42898,-0.55954 0.64398,-1.21876 0.64398,-1.97725 0,-0.9077 -0.3788,-1.64481 -1.13729,-2.21057 -0.75228,-0.56576 -1.77471,-0.84797 -3.06787,-0.84797 z m 2.21058,1.77993 h 1.61327 c 1.52941,0 2.29323,0.57198 2.29323,1.71593 0,0.66523 -0.21989,1.18246 -0.6613,1.54927 -0.4352,0.36059 -1.03834,0.53998 -1.80926,0.53998 h -1.43594 z m -11.89018,0.0186 h 1.86526 c 0.75849,0 1.33981,0.1807 1.74393,0.54131 0.40411,0.36059 0.60531,0.8609 0.60531,1.50127 0,0.35437 -0.0592,0.67531 -0.17733,0.96129 -0.11811,0.28599 -0.28193,0.52769 -0.49332,0.72664 -0.21138,0.19894 -0.46376,0.35162 -0.75596,0.45731 -0.28599,0.10571 -0.59935,0.15868 -0.9413,0.15868 h -1.84659 z m 11.89018,5.56777 h 1.60393 c 1.92109,0 2.88122,0.69349 2.88122,2.07991 0,0.67145 -0.22613,1.19981 -0.67998,1.58527 -0.44763,0.37924 -1.08504,0.56931 -1.91192,0.56931 h -1.89325 z"
       inkscape:label="RB" /><path
       id="path83940"
       style="font-weight:600;font-size:39.6744px;line-height:1.25;font-family:'Segoe UI';-inkscape-font-specification:'Segoe UI Semi-Bold';text-align:center;text-anchor:middle;white-space:pre;fill:#000000;fill-opacity:1;stroke-width:0.481394"
       d="m 294.54835,168.96456 c -0.35438,0.25491 -0.6989,0.48103 -1.03462,0.67997 -0.32951,0.19895 -0.65979,0.37967 -0.98929,0.54131 -0.32329,0.16165 -0.65224,0.30809 -0.98796,0.43865 -0.33573,0.13056 -0.68337,0.25386 -1.04396,0.37199 v 1.84659 c 0.57819,-0.1492 1.09097,-0.31925 1.5386,-0.51198 0.45385,-0.19895 0.87627,-0.43887 1.26795,-0.71864 V 182.636 h 2.16391 v -13.67144 z m -15.06071,0.29732 V 182.636 h 2.21058 v -5.42778 h 0.89463 c 0.27977,0 0.53215,0.0343 0.75596,0.10266 0.22382,0.0684 0.42813,0.17743 0.61464,0.32666 0.19273,0.1492 0.37968,0.34106 0.55998,0.5773 0.18651,0.23004 0.37658,0.51046 0.56932,0.83997 l 2.1359,3.58119 h 2.5919 l -2.37857,-3.75852 c -0.19273,-0.2922 -0.369,-0.5477 -0.53065,-0.7653 -0.15542,-0.22382 -0.31432,-0.42189 -0.47598,-0.59597 -0.16164,-0.17408 -0.33301,-0.34233 -0.51331,-0.50398 -0.18029,-0.16786 -0.39084,-0.32054 -0.6333,-0.45732 v -0.0373 c 0.45385,-0.11811 0.86069,-0.28638 1.22128,-0.50398 0.36681,-0.2176 0.67705,-0.47799 0.93196,-0.78263 0.26112,-0.31086 0.46053,-0.66162 0.5973,-1.05329 0.14299,-0.3979 0.21466,-0.83411 0.21466,-1.30662 0,-0.60306 -0.11218,-1.1283 -0.33598,-1.57593 -0.2176,-0.45385 -0.52162,-0.82953 -0.9133,-1.12795 -0.39168,-0.30464 -0.85282,-0.5321 -1.38128,-0.68131 -0.52845,-0.1492 -1.10666,-0.224 -1.73459,-0.224 z m 2.21058,1.79993 h 1.86525 c 0.75849,0 1.33981,0.18071 1.74393,0.54131 0.40411,0.36059 0.60531,0.86091 0.60531,1.50127 0,0.35438 -0.0592,0.67531 -0.17733,0.9613 -0.11811,0.28599 -0.28193,0.52768 -0.49331,0.72663 -0.21138,0.19895 -0.46376,0.35162 -0.75596,0.45732 -0.286,0.1057 -0.59936,0.15867 -0.9413,0.15867 h -1.84659 z"
       inkscape:label="R1" /></g><g
     id="g1197"
     transform="matrix(0.93158644,0,0,0.93158644,-153.41249,-107.82804)"><path
       d="m 258.11224,182.85266 h -7.85847 v -14.19277 h 2.35556 v 12.2034 h 5.50291 z"
       style="font-weight:600;font-size:39.6744px;line-height:1.25;font-family:'Segoe UI';-inkscape-font-specification:'Segoe UI Semi-Bold';text-align:center;text-anchor:middle;white-space:pre;fill:#000000;fill-opacity:1;stroke-width:0.510902"
       id="path83984"
       inkscape:label="L" /><path
       id="path83850"
       style="font-weight:600;font-size:39.6744px;line-height:1.25;font-family:'Segoe UI';-inkscape-font-specification:'Segoe UI Semi-Bold';text-align:center;text-anchor:middle;white-space:pre;fill:#000000;fill-opacity:1;stroke-width:0.481394"
       d="m 244.98806,169.06988 v 13.37278 h 7.40502 v -1.87459 h -5.18511 v -11.49819 z m 9.33561,0 v 13.37278 h 4.28916 c 1.37399,0 2.51171,-0.3552 3.41319,-1.06395 0.90149,-0.70876 1.35195,-1.6346 1.35195,-2.77856 0,-0.92013 -0.27598,-1.66659 -0.8293,-2.23857 -0.54711,-0.57819 -1.28111,-0.91959 -2.20124,-1.02529 v -0.0373 c 0.75849,-0.23626 1.35227,-0.63375 1.78125,-1.19329 0.42899,-0.55954 0.64398,-1.21876 0.64398,-1.97725 0,-0.9077 -0.38013,-1.64482 -1.13862,-2.21058 -0.75228,-0.56575 -1.77471,-0.84796 -3.06788,-0.84796 z m 2.20925,1.77993 h 1.61459 c 1.52942,0 2.29325,0.57197 2.29325,1.71593 0,0.66523 -0.2199,1.18246 -0.66131,1.54927 -0.4352,0.36059 -1.03833,0.53997 -1.80926,0.53998 h -1.43727 z m 0,5.58643 h 1.60526 c 1.9211,0 2.88122,0.6935 2.88122,2.07992 0,0.67145 -0.22745,1.19981 -0.68131,1.58527 -0.44763,0.37924 -1.08504,0.56931 -1.91192,0.56931 h -1.89325 z"
       inkscape:label="Xbox - LB" /><path
       id="path83935"
       style="font-weight:600;font-size:39.6744px;line-height:1.25;font-family:'Segoe UI';-inkscape-font-specification:'Segoe UI Semi-Bold';text-align:center;text-anchor:middle;white-space:pre;fill:#000000;fill-opacity:1;stroke-width:0.481394"
       d="m 259.97944,168.92055 c -0.35437,0.25491 -0.6989,0.48103 -1.03462,0.67998 -0.32951,0.19894 -0.65979,0.37966 -0.9893,0.54131 -0.32329,0.16164 -0.65223,0.30809 -0.98795,0.43865 -0.33573,0.13055 -0.6847,0.25385 -1.04529,0.37198 v 1.84659 c 0.57819,-0.1492 1.09096,-0.31925 1.5386,-0.51198 0.45385,-0.19895 0.8776,-0.43886 1.26928,-0.71863 v 11.02354 h 2.16258 v -13.67144 z m -12.50615,0.29733 v 13.37411 h 7.40503 v -1.87459 h -5.18512 v -11.49952 z"
       inkscape:label="PlayStation - L1" /></g><g
     id="g1212"
     transform="translate(-239.91662,-205.76165)"><path
       id="path83979"
       style="font-weight:600;font-size:39.6744px;line-height:1.25;font-family:'Segoe UI';-inkscape-font-specification:'Segoe UI Semi-Bold';text-align:center;text-anchor:middle;white-space:pre;display:inline;fill:#000000;fill-opacity:1;stroke-width:0.481394"
       d="m 313.90264,216.91955 v 1.88392 h 6.78906 l -7.35836,10.4729 v 1.01596 h 10.34223 v -1.87326 h -7.23703 l 7.33037,-10.5289 v -0.97062 z m 11.95551,0 v 13.37278 h 7.4037 v -1.87326 h -5.18513 v -11.49952 z"
       inkscape:label="Nintendo - ZL" /><path
       id="path83874"
       style="font-weight:600;font-size:39.6744px;line-height:1.25;font-family:'Segoe UI';-inkscape-font-specification:'Segoe UI Semi-Bold';text-align:center;text-anchor:middle;white-space:pre;fill:#000000;fill-opacity:1;stroke-width:0.481394"
       d="m 314.91394,216.91955 v 13.37278 h 7.40369 v -1.87326 h -5.18512 v -11.49952 z m 6.87304,0 v 1.88392 h 3.83185 v 11.48886 h 2.2199 v -11.48886 h 3.84252 v -1.88392 z"
       inkscape:label="Xbox - LT" /><path
       id="path83930"
       style="font-weight:600;font-size:39.6744px;line-height:1.25;font-family:'Segoe UI';-inkscape-font-specification:'Segoe UI Semi-Bold';text-align:center;text-anchor:middle;white-space:pre;fill:#000000;fill-opacity:1;stroke-width:0.481394"
       d="m 327.59608,216.80757 c -0.37303,0 -0.72378,0.0249 -1.05329,0.0747 -0.32951,0.0497 -0.64421,0.12763 -0.94263,0.23332 -0.29842,0.0995 -0.58686,0.22723 -0.86663,0.38266 -0.27977,0.14921 -0.55708,0.32681 -0.83063,0.53197 v 2.07858 c 0.52224,-0.5098 1.06618,-0.89171 1.63193,-1.14661 0.56576,-0.25491 1.12216,-0.38266 1.66927,-0.38266 0.31707,0 0.60995,0.0467 0.8773,0.14 0.26733,0.087 0.49657,0.22102 0.6893,0.40132 0.19894,0.17408 0.35162,0.3953 0.45731,0.66263 0.11191,0.26112 0.168,0.56826 0.168,0.92263 0,0.3233 -0.0468,0.6242 -0.14,0.90397 -0.0933,0.27355 -0.22412,0.53528 -0.39198,0.78396 -0.16786,0.24869 -0.36906,0.49172 -0.60531,0.72797 -0.23625,0.23004 -0.49798,0.46551 -0.78397,0.70797 -0.30464,0.25491 -0.61489,0.5104 -0.93196,0.76531 -0.31707,0.24868 -0.62866,0.50908 -0.9333,0.78263 -0.30463,0.26734 -0.58995,0.54776 -0.8573,0.83997 -0.26732,0.28598 -0.50101,0.59312 -0.69997,0.92262 -0.19894,0.32329 -0.35652,0.67226 -0.47464,1.04529 -0.11813,0.36681 -0.17732,0.76119 -0.17732,1.18396 v 1.03462 h 8.39298 v -1.85593 h -6.03442 v -0.0467 c 0,-0.26733 0.0872,-0.53084 0.26133,-0.79196 0.1803,-0.26734 0.41398,-0.53219 0.69997,-0.7933 0.28598,-0.26734 0.60558,-0.53708 0.95996,-0.81064 0.3606,-0.27977 0.72069,-0.56642 1.08128,-0.85862 0.42899,-0.35438 0.81846,-0.69891 1.16663,-1.03463 0.34816,-0.33572 0.64282,-0.6896 0.88529,-1.06262 0.24869,-0.37303 0.43875,-0.77497 0.56931,-1.20396 0.13678,-0.43519 0.20533,-0.92305 0.20533,-1.46393 0,-0.59685 -0.0966,-1.1252 -0.28932,-1.58527 -0.18651,-0.46007 -0.45448,-0.84198 -0.80264,-1.14662 -0.34816,-0.31086 -0.76746,-0.54454 -1.25861,-0.69997 -0.49116,-0.16165 -1.03821,-0.24266 -1.64127,-0.24266 z m -12.79414,0.22399 v 13.37278 h 7.4037 v -1.87459 h -5.18512 v -11.49819 z"
       inkscape:label="PlayStation - L2" /></g><text
     xml:space="preserve"
     style="font-weight:600;font-size:23.1658px;font-family:'Segoe UI';-inkscape-font-specification:'Segoe UI Semi-Bold';fill:#000000;fill-opacity:1;stroke:none;stroke-width:3.31343;stroke-linecap:round"
     x="22.769854"
     y="44.336922"
     id="text759"><tspan
       sodipodi:role="line"
       id="tspan757"
       style="fill:#000000;fill-opacity:1;stroke:none;stroke-width:3.31344"
       x="22.769854"
       y="44.336922">L</tspan></text><text
     xml:space="preserve"
     transform="matrix(0.16929059,0,0,0.16929059,71.337811,21.762483)"
     id="text2139"
     style="font-style:normal;font-variant:normal;font-weight:600;font-stretch:normal;font-size:96px;font-family:'Segoe UI';-inkscape-font-specification:'Segoe UI Semi-Bold';white-space:pre;shape-inside:url(#rect2141);display:inline;fill:#000000;fill-opacity:1"><tspan
       x="761.82617"
       y="112.70485"
       id="tspan17186"><tspan
         style="display:inline"
         id="tspan17184">RS</tspan></tspan></text><text
     xml:space="preserve"
     transform="matrix(0.16929059,0,0,0.16929059,67.136291,11.71284)"
     id="text2157"
     style="font-style:normal;font-variant:normal;font-weight:600;font-stretch:normal;font-size:96px;font-family:'Segoe UI';-inkscape-font-specification:'Segoe UI Semi-Bold';white-space:pre;shape-inside:url(#rect2159);display:inline;fill:#000000;fill-opacity:1"><tspan
       x="787.55859"
       y="172.06813"
       id="tspan17188">R3</tspan></text><rect
     style="fill:#203d45;fill-opacity:1;stroke:#107893;stroke-width:3.314;stroke-linecap:round;stroke-dasharray:none;stroke-opacity:1"
     id="rect1538"
     width="133.19073"
     height="69.303665"
     x="264.30383"
     y="11.262302"
     rx="7.7437773"
     ry="7.7685366" /><path
     style="color:#000000;display:inline;fill:#107893;fill-opacity:1;stroke-width:0.60569"
     d="m 344.57285,178.20986 c -8.60839,0 -15.63196,6.90475 -15.63196,15.4291 0,8.52436 7.02357,15.4291 15.63196,15.4291 8.60839,0 15.63312,-6.90474 15.63312,-15.4291 0,-8.52435 -7.02473,-15.4291 -15.63312,-15.4291 z"
     id="path6440"
     sodipodi:nodetypes="sssss"
     inkscape:label="path3753-9" /><path
     style="color:#000000;display:inline;fill:#caf5ff;fill-opacity:1;stroke-width:0.458661"
     d="m 344.57299,181.95519 c -6.51875,0 -11.83738,5.22867 -11.83738,11.68378 0,6.4551 5.31863,11.68376 11.83738,11.68376 6.51875,0 11.83827,-5.22866 11.83827,-11.68376 0,-6.45511 -5.31952,-11.68378 -11.83827,-11.68378 z"
     id="path6442"
     sodipodi:nodetypes="sssss"
     inkscape:label="path3753-9" /><path
     id="path6444"
     style="display:inline;fill:#000000;fill-opacity:1;fill-rule:nonzero;stroke:none;stroke-width:2.26451"
     d="m 342.20077,186.52162 v 13.2815 l 3.06612,0.95318 v -11.14137 c 0,-0.52084 0.21508,-0.83319 0.60684,-0.75393 0.28533,0.0589 0.61386,0.26477 0.61158,1.1434 v 4.44973 c 1.91126,0.90353 3.41462,7e-5 3.41462,-2.38897 0,-2.4502 -0.87847,-3.53694 -3.47586,-4.40878 -1.0213,-0.33969 -2.9212,-0.89925 -4.2233,-1.13476 z m -0.59605,8.02654 -4.39539,1.53327 c 0,0 -1.0643,0.33962 -1.69157,0.79705 -0.67482,0.49139 -0.42796,1.34282 1.05755,1.75496 1.59195,0.51177 3.20855,0.61366 4.72578,0.37135 0.0996,-0.0158 0.20625,-0.0338 0.30363,-0.0474 v -1.56477 l -1.51732,0.5387 c -0.55934,0.19702 -1.38131,0.24036 -1.83648,0.0932 -0.45516,-0.14492 -0.36914,-0.42137 0.1902,-0.62064 l 3.1636,-1.10715 z m 7.62971,0.75866 c -0.31391,0.002 -0.62044,0.0192 -0.91221,0.0509 -1.33605,0.14494 -2.28459,0.47315 -2.28459,0.47315 l -0.1902,0.0634 v 1.805 l 3.28564,-1.13476 c 0.5616,-0.19474 1.38121,-0.23765 1.83864,-0.0927 0.45289,0.14719 0.36698,0.42363 -0.19236,0.62064 l -4.93192,1.72305 v 1.73943 l 6.70069,-2.35964 c 0,0 0.90107,-0.32421 1.27018,-0.77937 0.36685,-0.45517 0.204,-1.11606 -1.24302,-1.56217 -1.00133,-0.37328 -2.21974,-0.5546 -3.34085,-0.54689 z" /><path
     style="color:#000000;display:inline;fill:#107893;fill-opacity:1;stroke-width:0.60569"
     d="m 271.49958,178.19502 c -8.60839,0 -15.63196,6.90475 -15.63196,15.4291 0,8.52436 7.02357,15.42911 15.63196,15.42911 8.60839,0 15.63313,-6.90475 15.63313,-15.42911 0,-8.52435 -7.02474,-15.4291 -15.63313,-15.4291 z"
     id="path6477"
     sodipodi:nodetypes="sssss"
     inkscape:label="path3753-9" /><path
     style="color:#000000;display:inline;fill:#caf5ff;fill-opacity:1;stroke-width:0.458661"
     d="m 271.49972,181.94035 c -6.51875,0 -11.83738,5.22867 -11.83738,11.68378 0,6.45511 5.31863,11.68376 11.83738,11.68376 6.51875,0 11.83827,-5.22865 11.83827,-11.68376 0,-6.45511 -5.31952,-11.68378 -11.83827,-11.68378 z"
     id="path6479"
     sodipodi:nodetypes="sssss"
     inkscape:label="path3753-9" /><path
     style="color:#000000;display:inline;fill:#107893;fill-opacity:1;stroke-width:0.60569"
     d="m 308.52352,178.19502 c -8.60838,0 -15.63195,6.90475 -15.63195,15.4291 0,8.52436 7.02357,15.42911 15.63195,15.42911 8.6084,0 15.63314,-6.90475 15.63314,-15.42911 0,-8.52435 -7.02474,-15.4291 -15.63314,-15.4291 z"
     id="path6483"
     sodipodi:nodetypes="sssss"
     inkscape:label="path3753-9" /><path
     style="color:#000000;display:inline;fill:#caf5ff;fill-opacity:1;stroke-width:0.458661"
     d="m 308.52367,181.94035 c -6.51875,0 -11.83737,5.22867 -11.83737,11.68378 0,6.45511 5.31862,11.68376 11.83737,11.68376 6.51874,0 11.83828,-5.22865 11.83828,-11.68376 0,-6.45511 -5.31954,-11.68378 -11.83828,-11.68378 z"
     id="path6485"
     sodipodi:nodetypes="sssss"
     inkscape:label="path3753-9" /><path
     id="path6584"
     style="color:#000000;display:inline;fill:#000000;fill-opacity:1;stroke-width:0.693173;stroke-miterlimit:9.53846;-inkscape-stroke:none"
     d="m 301.20666,192.4166 v 0.34603 2.06902 h 14.63492 v -2.41505 z"
     inkscape:label="Symbol" /><path
     id="path8160-9-5"
     style="display:inline;fill:#000000;fill-opacity:1;fill-rule:nonzero;stroke:none;stroke-width:0.113722"
     d="m 344.57305,184.06496 c -1.92859,0 -3.53756,0.52889 -5.0095,1.41028 l -0.0135,0.0484 0.0445,0.0175 c 1.64486,-0.42306 4.25179,0.94745 4.95672,1.34848 l 0.0217,0.009 0.0182,-0.009 c 0.27043,-0.15864 3.08998,-1.75792 4.94322,-1.3613 l 0.0487,-0.0134 -0.0176,-0.0484 c -1.46752,-0.87256 -3.05945,-1.40152 -4.9925,-1.40152 z m 6.44238,2.69579 c -0.46939,7.4e-4 -1.57465,0.34391 -3.80888,2.5617 l -0.013,0.0309 0.013,0.0262 c 1.92859,2.29601 5.66186,7.7695 4.93032,10.02585 l 0.01,0.0484 0.0528,-0.0134 c 1.2281,-1.61295 1.96016,-3.61793 1.96016,-5.80377 0,-2.66179 -1.09095,-5.07253 -2.8511,-6.80886 0.003,0.002 -0.0793,-0.0673 -0.29267,-0.067 z m -12.88593,7.6e-4 c -0.2133,-7.6e-4 -0.29507,0.0686 -0.29091,0.0659 -1.76013,1.73634 -2.85109,4.14708 -2.85109,6.80886 0,2.18584 0.72762,4.19083 1.96016,5.80376 l 0.0487,0.0134 0.0129,-0.0484 c -0.73153,-2.25634 3.00643,-7.72517 4.93502,-10.02119 l 0.013,-0.0268 -0.0176,-0.0309 c -2.23427,-2.21775 -3.34082,-2.56254 -3.81009,-2.56458 z m 6.44355,4.97998 -0.0311,0.0175 c -2.86852,2.17703 -7.77636,7.56683 -6.28225,9.08722 1.68919,1.47192 3.89704,2.3664 6.31334,2.3664 2.41629,0 4.62449,-0.89448 6.30923,-2.3664 1.49856,-1.52039 -3.40962,-6.91019 -6.27815,-9.08721 z" /><path
     style="color:#000000;display:inline;fill:#107893;fill-opacity:1;stroke-width:0.60569"
     d="m 382.13867,178.20986 c -8.60839,0 -15.63196,6.90475 -15.63196,15.4291 0,8.52436 7.02357,15.4291 15.63196,15.4291 8.60839,0 15.63313,-6.90474 15.63313,-15.4291 0,-8.52435 -7.02474,-15.4291 -15.63313,-15.4291 z"
     id="path3753-9-8"
     sodipodi:nodetypes="sssss"
     inkscape:label="path3753-9" /><path
     style="color:#000000;display:inline;fill:#caf5ff;fill-opacity:1;stroke-width:0.458661"
     d="m 382.13881,181.95519 c -6.51874,0 -11.83737,5.22867 -11.83737,11.68378 0,6.4551 5.31863,11.68376 11.83737,11.68376 6.51875,0 11.83827,-5.22866 11.83827,-11.68376 0,-6.45511 -5.31952,-11.68378 -11.83827,-11.68378 z"
     id="path3753-9-04-5"
     sodipodi:nodetypes="sssss"
     inkscape:label="path3753-9" /><path
     style="display:inline;fill:#171717;fill-opacity:1;stroke:#107893;stroke-width:2.15587;stroke-linecap:butt;stroke-linejoin:miter;stroke-miterlimit:10;stroke-dasharray:none;stroke-opacity:1"
     d="m 389.28794,193.60742 c 0,3.98781 -3.19001,7.22671 -7.15015,7.22671 -3.93803,0 -7.14994,-3.2389 -7.14994,-7.22671 0,-4.0099 3.21191,-7.24871 7.14994,-7.24871 3.96014,0 7.15015,3.23881 7.15015,7.24871 z m 0,0"
     id="path1765-8"
     inkscape:label="Nintendo Switch - Capture Button" /><path
     fill-rule="evenodd"
     clip-rule="evenodd"
     d="m 378.79734,195.65324 v -2.14837 l 3.54925,3.0905 h -2.60714 c -0.52033,0 -0.94211,-0.42179 -0.94211,-0.94213 z m -0.0223,2.25978 h 5.08486 l 0.81143,0.70661 h -2.1788 v 1.79985 h 2.15314 v 0.70658 h -5.01287 v -0.70658 h 2.15313 v -1.79985 h -3.01089 c -1.10567,0 -2.00199,-0.89633 -2.00199,-2.00199 v -3.36419 h 0.70659 v 3.36419 c 0,0.71544 0.57997,1.29538 1.2954,1.29538 z m 8.02378,-1.82682 0.70488,0.61378 c 7.6e-4,-0.0272 0.002,-0.0549 0.002,-0.0824 v -3.36418 h -0.70651 z m -8.0015,-6.96716 6.68382,5.81986 v -7.84492 c 0,-0.52031 -0.42179,-0.94212 -0.94211,-0.94212 h -4.79958 c -0.52034,0 -0.94213,0.42181 -0.94213,0.94212 z m -4.17743,-0.61118 14.21653,12.37881 0.82208,-0.95083 -14.21652,-12.37885 z"
     fill="#0e141b"
     id="path7695"
     style="display:inline;fill:#000000;fill-opacity:1;stroke-width:0.471055"
     inkscape:label="PlayStation - Mute Button" /><path
     id="path7881"
     d="m 382.13925,188.82587 -2.36933,2.36932 0.82918,0.82917 0.95386,-0.95294 v 4.05745 h 1.17257 v -4.05745 l 0.95388,0.95294 0.82916,-0.82917 z m -7.62352,4.34778 v 5.2784 h 15.24705 v -5.2784 h -1.17349 v 4.10491 h -12.901 v -4.10491 z"
     style="display:inline;fill:#000000;fill-opacity:1;stroke-width:0.47647"
     inkscape:label="Xbox - Share Button" /><path
     id="path8014"
     d="m 301.51263,187.8708 v 6.83176 h 3.11631 v -1.07843 h -2.03788 v -4.67405 h 6.83175 v 1.58685 h 1.07927 v -2.66613 z m 5.03352,4.67491 v 6.83174 h 8.98945 v -6.83174 z m 1.07927,1.07842 h 6.83177 v 4.67404 h -6.83177 z"
     style="display:inline;fill:#000000;fill-opacity:1;stroke-width:0.438217"
     inkscape:label="Xbox - View Button" /><path
     id="path6498"
     style="color:#000000;display:inline;fill:#000000;fill-opacity:1;stroke-width:0.716359;stroke-miterlimit:9.53846;-inkscape-stroke:none"
     d="m 270.19304,186.2729 v 6.04445 h -6.01041 v 2.6365 h 6.01041 v 6.0215 h 2.61058 v -6.0215 h 6.01408 v -2.6365 h -6.01408 v -6.04445 z"
     inkscape:label="Nintendo Switcch - Plus" /><path
     style="display:inline;fill:#000000;fill-opacity:1;fill-rule:nonzero;stroke:none;stroke-width:0.482798"
     d="m 347.30343,197.50652 c 0,0.3983 -0.15949,0.55782 -0.54605,0.55782 h -4.37263 c -0.38752,0 -0.54703,-0.15949 -0.54703,-0.55782 v -3.26805 c 0,-0.38753 0.15948,-0.54509 0.54703,-0.54509 h 4.37263 c 0.37577,0 0.52354,0.14782 0.54605,0.52454 z m 5.78464,-5.31766 c -2.72149,-2.31166 -5.44302,-4.62313 -8.16452,-6.93481 -0.25051,-0.228 -0.45505,-0.228 -0.70557,0 -2.71015,2.31168 -5.44303,4.62315 -8.16455,6.93481 -0.47853,0.41005 -0.28477,0.9561 0.36406,0.9561 h 1.05896 c 0.37578,0 0.53528,0.15949 0.53528,0.54705 v 7.09404 c 0,0.39828 0.15948,0.55681 0.55781,0.55681 h 12.01341 c 0.38753,0 0.54704,-0.15949 0.54704,-0.55681 v -7.09404 c 0,-0.38753 0.15947,-0.54705 0.53529,-0.54705 h 1.05895 c 0.64883,0 0.85433,-0.54605 0.36406,-0.9561"
     id="path14283"
     inkscape:label="Nintendo Switch - Home Icon" /><path
     id="path8868"
     d="m 264.29156,188.43354 v 1.16855 h 14.02259 v -1.16855 z m 0,4.67419 v 1.16855 h 14.02259 v -1.16855 z m 0,4.6742 v 1.16855 h 14.02259 v -1.16855 z"
     style="fill:#040000;fill-opacity:1;stroke-width:0.483547"
     inkscape:label="DualSense/Xbox Menu/Option Button" /><text
     xml:space="preserve"
     transform="matrix(0.06326675,0,0,0.06326675,173.84501,150.65147)"
     id="text14469"
     style="font-weight:600;font-size:85.3333px;font-family:'Segoe UI';-inkscape-font-specification:'Segoe UI Semi-Bold';text-align:start;writing-mode:lr-tb;direction:ltr;white-space:pre;shape-inside:url(#rect14471);shape-padding:1.57522;display:inline;fill:#000000;fill-opacity:1;stroke:none;stroke-width:13.731;stroke-linecap:round;stroke-dasharray:none;stroke-opacity:1"
     x="171.75"
     y="0"><tspan
       x="1387.3379"
       y="709.10458"
       id="tspan17190">OPTION</tspan></text><text
     xml:space="preserve"
     transform="matrix(0.07195931,0,0,0.07195931,199.05958,144.65934)"
     id="text14485"
     style="font-weight:600;font-size:85.3333px;font-family:'Segoe UI';-inkscape-font-specification:'Segoe UI Semi-Bold';text-align:start;writing-mode:lr-tb;direction:ltr;white-space:pre;shape-inside:url(#rect14487);shape-padding:1.57522;display:inline;fill:#000000;fill-opacity:1;stroke:none;stroke-width:13.731;stroke-linecap:round;stroke-dasharray:none;stroke-opacity:1"
     x="171.75"
     y="0"><tspan
       x="1387.3379"
       y="709.10458"
       id="tspan17192">SHARE</tspan></text><path
     fill-rule="evenodd"
     clip-rule="evenodd"
     d="m 307.9279,197.14906 v -8.61261 h 1.19579 v 8.61261 z m 4.49339,0.95801 3.57108,-6.09187 1.03161,0.60477 -3.57108,6.09182 z m -12.39703,-5.49284 3.36101,5.88178 1.03825,-0.59329 -3.36102,-5.88178 z"
     fill="#0e141b"
     id="path14800"
     style="fill:#030404;fill-opacity:1;stroke-width:0.597899" /><path
     id="path14973"
     style="display:inline;fill:#e5faff;fill-opacity:1;stroke:#063647;stroke-width:2.46827;stroke-miterlimit:4;stroke-dasharray:none;stroke-opacity:1"
     d="m 325.11715,221.3938 v 19.5909 h -57.16237 c -1.45471,-1.54024 -18.528,-18.33771 -19.92391,-19.5909 z" /><path
     id="path14975"
     style="display:inline;fill:#e5faff;fill-opacity:1;stroke:#063647;stroke-width:2.46827;stroke-miterlimit:4;stroke-dasharray:none;stroke-opacity:1"
     d="m 325.11715,245.24734 v 19.59089 h -34.06617 c -1.45469,-1.54024 -18.52797,-18.33771 -19.92386,-19.59089 z" /><text
     xml:space="preserve"
     style="font-style:normal;font-variant:normal;font-weight:600;font-stretch:normal;font-size:17.1335px;font-family:'Segoe UI';-inkscape-font-specification:'Segoe UI Semi-Bold';text-align:start;writing-mode:lr-tb;direction:ltr;text-anchor:start;display:inline;fill:#030404;fill-opacity:1;stroke:none;stroke-width:2.75695;stroke-linecap:round;stroke-dasharray:none;stroke-opacity:1"
     x="302.379"
     y="260.92255"
     id="text15035"
     inkscape:label="Xbox - Paddle 2"><tspan
       sodipodi:role="line"
       id="tspan15033"
       style="stroke-width:2.75695"
       x="302.379"
       y="260.92255">P2</tspan></text><text
     xml:space="preserve"
     style="font-style:normal;font-variant:normal;font-weight:600;font-stretch:normal;font-size:17.1335px;font-family:'Segoe UI';-inkscape-font-specification:'Segoe UI Semi-Bold';text-align:start;writing-mode:lr-tb;direction:ltr;text-anchor:start;fill:#030404;fill-opacity:1;stroke:none;stroke-width:2.75695;stroke-linecap:round;stroke-dasharray:none;stroke-opacity:1"
     x="302.3956"
     y="236.6767"
     id="text15031"
     inkscape:label="Xbox - Paddle 1"><tspan
       sodipodi:role="line"
       id="tspan15029"
       style="stroke-width:2.75695"
       x="302.3956"
       y="236.6767">P1</tspan></text><path
     id="path15087"
     style="display:inline;fill:#e5faff;fill-opacity:1;stroke:#063647;stroke-width:2.46827;stroke-miterlimit:4;stroke-dasharray:none;stroke-opacity:1"
     d="m 332.92071,221.3938 v 19.5909 h 57.16237 c 1.45471,-1.54024 18.52801,-18.33771 19.92392,-19.5909 z" /><path
     id="path15089"
     style="display:inline;fill:#e5faff;fill-opacity:1;stroke:#063647;stroke-width:2.46827;stroke-miterlimit:4;stroke-dasharray:none;stroke-opacity:1"
     d="m 332.92071,245.24734 v 19.59089 h 34.06617 c 1.45469,-1.54024 18.52797,-18.33771 19.92386,-19.59089 z" /><text
     xml:space="preserve"
     style="font-style:normal;font-variant:normal;font-weight:600;font-stretch:normal;font-size:17.1335px;font-family:'Segoe UI';-inkscape-font-specification:'Segoe UI Semi-Bold';text-align:start;writing-mode:lr-tb;direction:ltr;text-anchor:start;display:inline;fill:#030404;fill-opacity:1;stroke:none;stroke-width:2.75695;stroke-linecap:round;stroke-dasharray:none;stroke-opacity:1"
     x="335.81479"
     y="260.92255"
     id="text15093"
     inkscape:label="Xbox - Paddle 4"><tspan
       sodipodi:role="line"
       id="tspan15091"
       style="stroke-width:2.75695"
       x="335.81479"
       y="260.92255">P4</tspan></text><text
     xml:space="preserve"
     style="font-style:normal;font-variant:normal;font-weight:600;font-stretch:normal;font-size:17.1335px;font-family:'Segoe UI';-inkscape-font-specification:'Segoe UI Semi-Bold';text-align:start;writing-mode:lr-tb;direction:ltr;text-anchor:start;fill:#030404;fill-opacity:1;stroke:none;stroke-width:2.75695;stroke-linecap:round;stroke-dasharray:none;stroke-opacity:1"
     x="335.83142"
     y="236.6767"
     id="text15097"
     inkscape:label="Xbox - Paddle 3"><tspan
       sodipodi:role="line"
       id="tspan15095"
       style="stroke-width:2.75695"
       x="335.83142"
       y="236.6767">P3</tspan></text><rect
     style="display:inline;fill:#203d45;fill-opacity:1;stroke:#107893;stroke-width:3.48006;stroke-linecap:square;stroke-dasharray:none;stroke-opacity:1"
     id="rect29984"
     width="63.477524"
     height="63.527142"
     x="264.15601"
     y="92.610748"
     rx="9.3724804"
     ry="7.9371161"
     inkscape:label="Color" /><rect
     style="display:inline;fill:#203d45;fill-opacity:1;stroke:#107893;stroke-width:3.48006;stroke-linecap:square;stroke-dasharray:none;stroke-opacity:1"
     id="rect16886"
     width="63.477524"
     height="63.527142"
     x="333.96262"
     y="92.610748"
     rx="9.3724804"
     ry="7.9371161"
     inkscape:label="Color" /></svg>
