<?xml version="1.0" encoding="UTF-8" standalone="no"?>
<!-- Created with Inkscape (http://www.inkscape.org/) -->

<svg
   width="205.53mm"
   height="144.14766mm"
   viewBox="0 0 205.53 144.14765"
   version="1.1"
   id="svg24072"
   inkscape:version="1.1 (c68e22c387, 2021-05-23)"
   sodipodi:docname="Steam Controller Gyro-Acel.svg"
   inkscape:export-filename="C:\Users\AL200\OneDrive\Pictures\AL2009man Work Projects\VSCView - Controller Theme Layout\VSCView - Controller Theme (Ver. 1.20)\Steam Controller Images\Default Theme\Black\VSCView Image Assets\SC_Gyro-Accel.png"
   inkscape:export-xdpi="31.701454"
   inkscape:export-ydpi="31.701454"
   xmlns:inkscape="http://www.inkscape.org/namespaces/inkscape"
   xmlns:sodipodi="http://sodipodi.sourceforge.net/DTD/sodipodi-0.dtd"
   xmlns="http://www.w3.org/2000/svg"
   xmlns:svg="http://www.w3.org/2000/svg">
  <sodipodi:namedview
     id="namedview24074"
     pagecolor="#ffffff"
     bordercolor="#666666"
     borderopacity="1.0"
     inkscape:pageshadow="2"
     inkscape:pageopacity="0.0"
     inkscape:pagecheckerboard="0"
     inkscape:document-units="mm"
     showgrid="false"
     inkscape:zoom="1.0620589"
     inkscape:cx="385.57184"
     inkscape:cy="267.40513"
     inkscape:window-width="1920"
     inkscape:window-height="995"
     inkscape:window-x="-9"
     inkscape:window-y="-9"
     inkscape:window-maximized="1"
     inkscape:current-layer="layer1" />
  <defs
     id="defs24069">
    <linearGradient
       id="linearGradient851"
       inkscape:swatch="solid">
      <stop
         style="stop-color:#ffffff;stop-opacity:1;"
         offset="0"
         id="stop849" />
    </linearGradient>
    <filter
       style="color-interpolation-filters:sRGB"
       inkscape:label="Drop Shadow"
       id="filter2039-8"
       x="-0.0038726768"
       width="1.0077457"
       y="-0.0038843837"
       height="1.0077691">
      <feFlood
         flood-opacity="0.501961"
         flood-color="rgb(0,0,0)"
         result="flood"
         id="feFlood2029-8" />
      <feComposite
         in="flood"
         in2="SourceGraphic"
         operator="in"
         result="composite1"
         id="feComposite2031-1" />
      <feOffset
         dx="0"
         dy="0"
         result="offset"
         id="feOffset2035-8" />
      <feComposite
         in="SourceGraphic"
         in2="offset"
         operator="over"
         result="composite2"
         id="feComposite2037-0" />
    </filter>
    <filter
       style="color-interpolation-filters:sRGB"
       inkscape:label="Drop Shadow"
       id="filter2039-8-2"
       x="0"
       width="1"
       y="0"
       height="1">
      <feFlood
         flood-opacity="0.501961"
         flood-color="rgb(0,0,0)"
         result="flood"
         id="feFlood2029-8-7" />
      <feComposite
         in="flood"
         in2="SourceGraphic"
         operator="in"
         result="composite1"
         id="feComposite2031-1-2" />
      <feOffset
         dx="0"
         dy="0"
         result="offset"
         id="feOffset2035-8-3" />
      <feComposite
         in="SourceGraphic"
         in2="offset"
         operator="over"
         result="composite2"
         id="feComposite2037-0-3" />
    </filter>
  </defs>
  <g
     inkscape:label="Gyro Controller"
     inkscape:groupmode="layer"
     id="layer1"
     transform="translate(224.38513,-418.60515)">
    <path
       id="path26183"
       style="fill:#107893;fill-opacity:1;fill-rule:nonzero;stroke:#24d2f6;stroke-width:2.377;stroke-linecap:round;stroke-linejoin:round;stroke-miterlimit:4;stroke-dasharray:none;stroke-opacity:1"
       d="m -167.61753,419.79548 c -3.18146,0.0108 -6.77831,0.0695 -9.02278,0.20837 -4.97081,0.30098 -8.25569,0.67962 -11.34542,1.30043 -2.99094,0.60428 -4.50756,1.32372 -5.91845,2.0692 -1.11924,0.59014 -2.08099,1.85999 -3.09912,3.20499 -0.34098,0.44915 -0.689,0.91238 -1.0464,1.34505 -1.21568,1.48138 -2.36783,3.89853 -3.28014,5.97479 l -0.1505,0.33607 c -2.35378,5.22482 -8.31463,19.13577 -12.74225,35.4144 -5.02254,18.46305 -9.92501,44.54441 -8.81045,58.16601 1.19918,14.68669 7.90768,25.10806 19.93027,30.97476 1.88818,0.92171 3.73633,1.61547 5.53984,2.07872 1.79884,0.46316 3.55304,0.69589 5.24605,0.69589 7.96408,0 11.86981,-4.98731 12.57051,-5.98427 2.14442,-3.05444 8.22021,-14.4445 11.84831,-21.25171 l 0.97137,-1.81777 c 3.4965,-6.54387 5.08837,-9.12327 5.10241,-9.14447 0.0168,-0.0258 1.71896,-2.67817 3.75057,-3.90788 2.4172,-1.46256 7.12214,-1.59187 7.16684,-1.59423 l 29.28654,-0.21401 29.281949,0.21401 c 0.04935,0.002 4.754456,0.12693 7.171672,1.59423 2.031601,1.22971 3.734044,3.88212 3.752851,3.90328 0.01166,0.0261 1.608124,2.6052 5.099925,9.14907 l 0.961789,1.79904 c 3.632898,6.81196 9.713717,18.216 11.855827,21.27044 0.703063,0.99696 4.60866,5.98427 12.572798,5.98427 3.385997,0 7.014226,-0.93118 10.785852,-2.77461 12.022616,-5.8667 18.731161,-16.28807 19.93034,-30.97476 1.114526,-13.62632 -3.783525,-39.70296 -8.810745,-58.16601 -4.427652,-16.27863 -10.383799,-30.18958 -12.742243,-35.4144 l -0.150479,-0.33607 c -0.912333,-2.07626 -2.064487,-4.49341 -3.28015,-5.97479 -0.352697,-0.43267 -0.705441,-0.8959 -1.046383,-1.34505 -1.013449,-1.345 -1.97974,-2.61485 -3.094306,-3.20499 -1.415527,-0.74548 -2.932334,-1.46492 -5.923302,-2.0692 -3.089711,-0.62081 -6.374437,-0.99945 -11.340561,-1.30043 -4.488794,-0.2728 -14.392949,-0.23754 -15.556886,-0.12229 -1.241533,0.12228 -1.8903,0.49386 -2.268881,0.75721 -0.406788,0.28225 -0.743135,0.85607 -0.919491,1.20406 -5.579842,-0.17163 -18.698266,-0.51036 -36.279576,-0.51036 -17.5813,0 -30.69715,0.33873 -36.27698,0.51036 -0.17639,-0.34799 -0.51043,-0.92181 -0.91716,-1.20406 -0.37861,-0.26335 -1.0275,-0.63493 -2.2738,-0.75721 -0.58201,-0.0574 -3.34784,-0.0964 -6.52926,-0.0861 z"
       sodipodi:nodetypes="scccccccccccscccccccccccccscccccccccccccscccs"
       inkscape:label="Controller"
       inkscape:export-filename="C:\Users\AL200\OneDrive\Pictures\AL2009man Work Projects\VSCView - PlayStation Controller Layout Updates\VSCView - PlayStation Controller Layout (Ver. 1.03)\Steam Controller Controller Images\VSCView Image Assets\SC_Gyro-Accel.png"
       inkscape:export-xdpi="31.701454"
       inkscape:export-ydpi="31.701454" />
    <path
       id="path994"
       style="color:#000000;mix-blend-mode:normal;fill:#f5f5f5;fill-opacity:1;stroke-width:1.67089;-inkscape-stroke:none;filter:url(#filter2039-8-2)"
       d="m 388.42773,84.373047 c -1.77932,0.0011 -3.55495,0.04617 -5.32617,0.134765 -21.25465,1.063161 -41.84812,8.390345 -59.45703,21.406248 -6.40497,4.73427 -17.25588,15.58522 -21.99023,21.99024 -23.10204,31.25432 -27.96228,71.21138 -13.00586,106.9082 3.92892,9.37727 8.76042,17.38789 15.64844,25.95117 l 3.46289,4.30664 -4.94532,4.96094 c -2.4601,2.467 -3.86698,3.82977 -4.73242,4.48828 -0.86548,0.65855 -0.95671,0.63027 -1.48437,0.55274 -4.68472,-0.68759 -9.81359,2.80215 -11.12891,7.5 -2.21133,7.89806 4.80651,15.25781 12.60547,13.17187 4.87791,-1.30466 7.70949,-4.93548 7.89453,-10.08789 l 0.0879,-2.31836 5.14258,-5.14258 4.8418,-4.84375 4.47265,3.60547 c 16.50767,13.28491 36.90009,21.67306 57.32617,23.57617 27.0701,2.52213 53.42606,-4.84451 75.375,-21.06836 6.40494,-4.73426 17.24812,-15.5853 21.98243,-21.99023 29.44898,-39.84107 28.59133,-93.94896 -2.11329,-132.20313 l -3.98437,-4.9707 4.9375,-4.95312 c 2.45877,-2.4658 3.8752,-3.83018 4.74023,-4.48828 0.86504,-0.65807 0.95668,-0.62836 1.48438,-0.55079 4.68476,0.68759 9.80581,-2.80411 11.12109,-7.50195 2.21133,-7.898106 -4.79873,-15.257771 -12.59765,-13.171874 -4.87792,1.304659 -7.71686,4.943294 -7.90235,10.095703 l -0.0781,2.310551 -5.12696,5.12695 -4.82812,4.82812 -4.49609,-3.58984 c -15.36228,-12.270449 -33.0244,-20.052583 -51.86136,-22.849609 -5.35877,-0.795705 -10.7265,-1.187036 -16.06446,-1.183594 z m -0.6289,11.431641 c 2.08194,-0.0099 4.16309,0.04838 6.24219,0.171874 16.63273,0.987965 33.06267,6.234488 47.46093,15.640628 18.03594,11.78256 31.97172,29.82809 38.72852,50.15625 10.3141,31.03047 4.7418,64.25147 -15.15235,90.29883 -3.07483,4.02596 -11.35605,12.47397 -15.57812,15.88476 -14.6144,11.80635 -32.45644,19.13927 -51.49023,21.16992 -21.41357,2.28459 -44.40972,-3.37484 -62.9043,-15.49804 -10.51506,-6.89262 -20.66003,-17.05036 -27.60547,-27.62305 -21.26362,-32.36849 -21.26297,-74.25115 0,-106.63281 3.89754,-5.93567 5.84297,-8.3242 11.57812,-14.21289 8.20677,-8.42646 15.80087,-13.99351 26.27344,-19.25391 13.31716,-6.689213 27.87371,-10.032315 42.44727,-10.101562 z m 28.1875,21.447262 c -2.02345,0.0444 -4.08764,0.18319 -6.18555,0.41602 v -0.002 c -5.59441,0.62087 -11.44194,1.90888 -17.44726,3.88086 -6.5521,2.15152 -16.51823,6.85449 -22.66797,10.6875 l -3.46289,2.1621 -3.0293,-1.625 c -9.60835,-5.14663 -18.18474,-7.62477 -25.64258,-7.30468 -7.40267,0.31782 -11.99306,2.95508 -14.74219,8.57422 -2.02915,4.14732 -2.24822,10.66642 -0.75586,16.93554 3.20193,13.45081 14.04546,31.60806 29.75977,50.07813 5.69804,6.69735 21.55464,22.55586 28.25195,28.2539 17.95456,15.27566 35.53825,25.91649 48.9668,29.50586 l 1.04883,0.27735 v -0.15039 c 2.71072,0.62115 5.6572,1.03367 8.45508,1.00976 3.14502,-0.0283 6.01658,-0.42792 7.99804,-1.32422 3.16372,-1.43102 6.39888,-4.67721 7.81641,-7.83398 1.60641,-3.57726 1.80363,-10.35742 0.64844,-15.59375 -1.03146,-4.67563 -3.9928,-12.35482 -6.64258,-17.27344 l -1.63281,-3.0293 2.16211,-3.46093 c 1.36733,-2.19385 3.8421,-6.78777 5.56054,-10.31055 13.62486,-27.93085 12.47657,-55.34765 -3.3125,-71.13672 -8.75275,-8.75272 -20.98233,-13.04731 -35.14648,-12.73633 z m 3.30273,11.29493 c 3.43231,-0.0209 4.92869,0.19477 7.66797,0.8496 12.65208,3.0244 21.13269,11.12616 24.54688,23.4336 0.55056,1.98376 0.89205,6.67469 0.89843,11.41211 0.008,4.73746 -0.30558,9.63402 -0.875,12.13281 -1.58916,6.97512 -3.94595,13.35862 -7.74609,20.95703 -1.05484,2.10924 -2.06362,4.02116 -2.82422,5.40235 -0.32348,0.58718 -0.57195,1.01233 -0.78906,1.37304 -0.0202,-0.0242 -0.0279,-0.0336 -0.0469,-0.0566 -0.38486,-0.48162 -0.88996,-1.16908 -1.38867,-1.92383 -12.99951,-19.67223 -40.00183,-46.66795 -59.74804,-59.74023 -0.75895,-0.50246 -1.44522,-0.99128 -1.93165,-1.36524 -0.044,-0.0323 -0.0627,-0.0462 -0.10351,-0.0781 0.25281,-0.17002 0.51361,-0.34894 0.97851,-0.61524 1.22054,-0.69913 3.17073,-1.72097 5.98633,-3.13867 6.4177,-3.23156 11.35086,-5.1196 17.89649,-6.84765 4.78584,-1.26355 6.63107,-1.4985 13.2832,-1.70313 1.69223,-0.052 3.05121,-0.0848 4.19531,-0.0918 z m -81.03515,8.12109 c 2.29208,-0.0293 5.28833,0.50895 8.84961,1.66406 1.98857,0.64494 4.42303,1.60007 6.33398,2.44531 0.9555,0.42263 1.78403,0.8145 2.34961,1.1211 0.0654,0.0363 0.0844,0.0528 0.14258,0.0859 -0.11146,0.10984 -0.18907,0.19014 -0.33203,0.32421 -0.57976,0.5416 -1.39135,1.2494 -2.28711,1.98633 -1.86213,1.5319 -5.10298,4.53332 -7.2793,6.73633 l -4.33984,4.38672 2.66601,5.13476 2.9043,5.60743 6.49805,-6.55469 c 3.36398,-3.39674 6.6027,-6.38396 9.10351,-8.45508 1.25042,-1.03558 2.31559,-1.84664 3.09961,-2.35156 0.39213,-0.2524 0.71725,-0.42611 0.92188,-0.51172 0.0676,-0.0283 0.0892,-0.024 0.12109,-0.0254 0.1832,0.0947 0.72418,0.39418 1.44922,0.85351 0.83321,0.52779 1.9009,1.22838 3.07617,2.02735 2.35054,1.59797 5.1345,3.57329 7.35156,5.23633 14.81576,11.11323 30.49696,26.42402 42.21289,41.22851 3.84068,4.85316 9.94223,13.41889 11.35157,15.87891 l 0.60742,1.05664 -2.51758,3.13086 c -1.51886,1.89564 -5.50526,6.20425 -8.76953,9.44922 l -6.7832,6.74414 5.59179,2.90234 5.11914,2.65039 3.91211,-3.8418 c 1.9427,-1.91127 4.94873,-5.15711 6.74414,-7.27148 0.87695,-1.03271 1.71784,-1.97078 2.34961,-2.64258 0.1894,-0.20152 0.31052,-0.31768 0.45703,-0.46484 l 0.0176,0.0234 c 0.27462,0.49705 0.63728,1.24619 1.0332,2.13086 0.79182,1.76932 1.72943,4.1067 2.5,6.32421 0.71336,2.05315 1.22551,4.72557 1.43555,7.11524 0.21,2.38967 0.0571,4.57148 -0.26758,5.35547 -0.23746,0.57358 -1.13001,1.55103 -1.60937,1.79883 -0.54083,0.27946 -2.32711,0.57126 -4.25196,0.56835 -1.92484,-0.003 -4.07184,-0.22789 -5.62304,-0.64648 -11.79747,-3.18439 -27.04894,-12.31121 -44.16406,-26.54297 -6.807,-5.6602 -23.08987,-22.03182 -28.9629,-29.1289 -12.72166,-15.37299 -20.70881,-28.16492 -24.79882,-39.62696 -0.88983,-2.49402 -1.49661,-5.30689 -1.75782,-7.76953 -0.26128,-2.4626 -0.12374,-4.61607 0.26758,-5.56055 0.6073,-1.46615 1.95158,-2.30568 4.33789,-2.52343 v -0.002 c 0.29829,-0.0272 0.61202,-0.0427 0.93946,-0.0469 z m 28.2832,27.85937 c -1.27526,-0.0404 -2.37897,0.23784 -3.42969,0.78125 -1.91664,0.99112 -2.78463,3.04913 -2.71484,5.48047 0.0699,2.43135 0.96209,5.34842 2.51758,8.6211 3.11097,6.54543 8.91775,14.51154 16.60351,22.19726 4.63024,4.63024 9.83216,8.90713 14.70899,12.23242 4.87682,3.3253 9.40068,5.69981 12.84179,6.49219 3.3631,0.77437 6.02129,0.52646 7.70508,-0.99414 1.68379,-1.52055 2.08482,-4.08934 1.4043,-7.3125 -1.61453,-7.64647 -8.86489,-17.89051 -17.6836,-26.99805 -8.81871,-9.10754 -19.17072,-17.00639 -27.3457,-19.54492 -1.89455,-0.58828 -3.33216,-0.91574 -4.60742,-0.95508 z m -39.81445,12.68164 -0.01,0.002 c -0.32429,-0.0121 -0.49725,0.1103 -0.60742,0.18945 -0.11146,0.08 -0.1767,0.153 -0.24414,0.22852 -0.13529,0.15103 -0.25507,0.3104 -0.38672,0.51171 -0.26331,0.40304 -0.56988,0.94498 -0.92188,1.60938 -0.70402,1.32881 -1.57917,3.14428 -2.49218,5.14258 -1.82607,3.99652 -3.79523,8.71101 -4.78125,11.7207 -6.0882,18.58367 -5.49015,35.40375 0.77343,48.09961 6.26359,12.69582 18.22721,21.2003 34.51563,23.10156 13.41737,1.56607 28.82208,-1.60573 44.3125,-9.05468 1.81722,-0.87388 3.47254,-1.7183 4.67773,-2.37305 0.60258,-0.32752 1.09244,-0.60282 1.45118,-0.82813 0.1793,-0.11267 0.31986,-0.20682 0.44921,-0.30859 0.0646,-0.0509 0.12135,-0.10586 0.19727,-0.18945 0.0364,-0.0416 0.0843,-0.0854 0.13477,-0.17383 0.0242,-0.0444 0.0543,-0.10653 0.0781,-0.18164 0.0121,-0.0363 0.0332,-0.12339 0.0332,-0.125 3.3e-4,-0.002 0.008,-0.1644 0.008,-0.16602 v -0.008 c -1.7e-4,-0.003 -0.0171,-0.14355 -0.0332,-0.19727 -0.0162,-0.0537 -0.0319,-0.0984 -0.0469,-0.13476 -0.0323,-0.0727 -0.0655,-0.12523 -0.0937,-0.16602 -0.0569,-0.082 -0.10813,-0.1284 -0.15821,-0.17968 -0.0997,-0.10298 -0.2036,-0.19579 -0.33203,-0.30079 -0.25684,-0.2104 -0.60174,-0.464 -1.01757,-0.75585 -0.83164,-0.58372 -1.95477,-1.32202 -3.19336,-2.08399 l -4.84375,-2.97266 -4.60547,2.12891 c -4.94108,2.28406 -12.51477,4.84859 -17.47071,5.92383 -5.65446,1.22676 -16.47124,1.47557 -21.1875,0.52148 -13.96425,-2.82485 -23.17168,-12.02828 -25.99609,-25.99023 -1.15306,-5.69978 -0.73654,-16.29152 0.94531,-23.00781 1.37509,-5.49136 4.08893,-13.0403 6.11328,-17.06836 l 1.5625,-3.125 -3.00585,-4.88086 c -0.76711,-1.24683 -1.50407,-2.38154 -2.08985,-3.21875 -0.29279,-0.41859 -0.54769,-0.75944 -0.75781,-1.01758 -0.105,-0.12923 -0.19666,-0.23969 -0.29883,-0.33984 -0.0513,-0.0501 -0.0997,-0.10046 -0.18164,-0.15821 -0.0408,-0.0283 -0.0921,-0.0602 -0.16602,-0.0937 -0.0363,-0.0162 -0.0779,-0.0319 -0.13281,-0.0469 -0.0529,-0.0162 -0.18394,-0.0292 -0.19726,-0.0332 z m 54.73046,8.51172 c 0.20152,0.0121 0.51021,0.0438 0.95508,0.10352 1.89129,0.25361 5.36366,2.59661 8.13868,5.41016 1.38752,1.40675 2.63241,2.91646 3.50976,4.29882 0.87739,1.38236 1.35742,2.65539 1.35742,3.38477 0,0.34973 -0.0111,0.59425 -0.0312,0.72461 -0.13044,0.0202 -0.37687,0.041 -0.72656,0.041 -0.73673,0 -2.08292,-0.52719 -3.5332,-1.47461 -1.45029,-0.94741 -3.04,-2.27747 -4.4961,-3.74023 -1.4561,-1.46276 -2.77931,-3.06226 -3.72265,-4.51953 -0.9433,-1.45731 -1.4668,-2.80426 -1.4668,-3.54883 0,-0.33317 0.004,-0.52213 0.0156,-0.67773 z"
       transform="matrix(0.26458334,0,0,0.26458334,-224.38513,418.60515)"
       inkscape:label="Gyro Icon" />
  </g>
</svg>
