<?xml version="1.0" encoding="UTF-8" standalone="no"?>
<svg
   width="2670.8323"
   height="2685.1301"
   viewBox="0 0 276.70298 278.17949"
   preserveAspectRatio="xMidYMid"
   version="1.1"
   id="svg4"
   sodipodi:docname="VSCView SC Icon - White.svg"
   inkscape:version="1.1 (c68e22c387, 2021-05-23)"
   inkscape:export-filename="C:\Users\AL200\Desktop\new icon.png"
   inkscape:export-xdpi="0.6216107"
   inkscape:export-ydpi="0.6216107"
   xmlns:inkscape="http://www.inkscape.org/namespaces/inkscape"
   xmlns:sodipodi="http://sodipodi.sourceforge.net/DTD/sodipodi-0.dtd"
   xmlns="http://www.w3.org/2000/svg"
   xmlns:svg="http://www.w3.org/2000/svg">
  <defs
     id="defs8" />
  <sodipodi:namedview
     id="namedview6"
     pagecolor="#ffffff"
     bordercolor="#666666"
     borderopacity="1.0"
     inkscape:pageshadow="2"
     inkscape:pageopacity="0.0"
     inkscape:pagecheckerboard="0"
     showgrid="false"
     inkscape:zoom="0.125"
     inkscape:cx="844"
     inkscape:cy="1432"
     inkscape:window-width="1920"
     inkscape:window-height="1005"
     inkscape:window-x="-9"
     inkscape:window-y="-9"
     inkscape:window-maximized="1"
     inkscape:current-layer="svg4" />
  <path
     style="color:#000000;display:inline;fill:#ffffff;fill-rule:evenodd;stroke-width:0.709799;stroke-linejoin:round;-inkscape-stroke:none"
     d="m 17.182344,176.16342 c 0,0 -4.988956,8.75827 -6.79087,-47.06852 C 168.3735,-15.819386 316.88706,44.596507 185.15371,222.40324 c -2.73975,3.69797 -77.90624,14.07162 -96.869012,10.66724 -7.539252,-1.35352 -27.65336,-29.26806 -34.913261,-32.33415 -14.863482,-6.27733 -26.569692,-16.33348 -32.520532,-20.23357 -1.731371,-1.13472 -3.668561,-4.33934 -3.668561,-4.33934 z"
     sodipodi:nodetypes="ccssssc"
     inkscape:label="White Color"
     inkscape:export-filename="C:\Users\AL200\Desktop\icon.png"
     inkscape:export-xdpi="0.57510161"
     inkscape:export-ydpi="0.57510161"
     id="path7114" />
  <path
     d="m 138.17047,10.080863 c -67.358997,0 -122.538995,52.412 -127.778996,119.014037 l 68.723999,28.674 a 35.812,35.812 0 0 1 20.425995,-6.366 c 0.682002,0 1.356002,0.019 2.020002,0.056 l 30.566,-44.71002 v -0.626 c 0,-26.903017 21.69,-48.796017 48.353,-48.796017 26.662,0 48.352,21.893 48.352,48.796017 0,26.90202 -21.69,48.80402 -48.352,48.80402 -0.37,0 -0.73,-0.009 -1.098,-0.018 l -43.593,31.377 c 0.028,0.582 0.046,1.163 0.046,1.735 0,20.204 -16.283,36.636 -36.294002,36.636 -17.565995,0 -32.262995,-12.658 -35.583995,-29.412 l -49.155998,-20.51 c 15.222998,54.313 64.672998,94.132 123.368995,94.132 70.818,0 128.221,-57.938 128.221,-129.393 0,-71.463037 -57.403,-129.393037 -128.221,-129.393037 z M 90.743473,206.4129 l -15.749,-6.568 c 2.787,5.867 7.621,10.775 14.033,13.47 13.856997,5.83 29.835997,-0.803 35.611997,-14.799 a 27.555,27.555 0 0 0 0.046,-21.035 c -2.768,-6.79 -7.999,-12.086 -14.706,-14.909 -6.67,-2.795 -13.810997,-2.694 -20.084997,-0.304 l 16.274997,6.79 c 10.222,4.3 15.056,16.145 10.794,26.46 -4.253,10.314 -15.998,15.195 -26.219997,10.895 z M 212.70047,106.12288 c 0,-17.925017 -14.457,-32.520017 -32.217,-32.520017 -17.769,0 -32.226,14.595 -32.226,32.520017 0,17.92602 14.457,32.51202 32.226,32.51202 17.76,0 32.217,-14.586 32.217,-32.51202 z m -56.37,-0.055 c 0,-13.488017 10.84,-24.420017 24.2,-24.420017 13.368,0 24.208,10.932 24.208,24.420017 0,13.48802 -10.84,24.42102 -24.209,24.42102 -13.359,0 -24.2,-10.933 -24.2,-24.42002 z"
     fill="#1a1918"
     id="path2"
     style="display:inline;fill:#000000;fill-opacity:1;stroke:none;stroke-opacity:1"
     inkscape:export-filename="C:\Users\AL200\Desktop\icon.png"
     inkscape:export-xdpi="0.57510161"
     inkscape:export-ydpi="0.57510161"
     inkscape:label="Black Color " />
  <path
     style="display:inline;fill:none;fill-opacity:1;stroke:#d9d9d9;stroke-width:11.747;stroke-linecap:round;stroke-linejoin:round;stroke-miterlimit:4;stroke-dasharray:none;stroke-opacity:1;paint-order:normal"
     d="M 129.07035,272.10181 C 100.52956,269.8796 74.983849,259.48836 53.093376,241.1967 49.016339,237.78994 40.47226,229.24609 37.083399,225.18714 20.742956,205.61572 10.448785,182.4995 7.0220071,157.68238 6.0298446,150.49703 5.8734999,147.96007 5.8734999,139.04591 c 0,-8.92887 0.1557901,-11.44773 1.1559292,-18.68939 C 10.457412,95.535709 20.719247,72.504492 37.083399,52.904684 42.372563,46.569697 51.798493,37.624376 58.615502,32.470487 76.258542,19.131713 96.683585,10.500455 118.3447,7.2300065 c 7.68807,-1.160767 10.4988,-1.3544271 19.72187,-1.3588202 9.1218,-0.00438 11.54179,0.1446201 18.82034,1.1585184 21.90757,3.0517203 43.1085,11.8564513 60.906,25.2942373 6.91404,5.220363 16.34163,14.159125 21.70619,20.580742 18.50869,22.15568 29.06696,48.439166 31.09764,77.413756 0.28596,4.07945 0.28596,13.37551 0,17.45495 -2.02073,28.83256 -12.33557,54.66247 -30.73314,76.96036 -3.36239,4.07524 -11.8591,12.66704 -15.92221,16.10045 -20.96709,17.71749 -45.02679,27.94836 -72.80203,30.95757 -3.84882,0.41699 -18.12046,0.6175 -22.06901,0.31004 z"
     id="path1174"
     inkscape:export-filename="C:\Users\AL200\Desktop\icon.png"
     inkscape:export-xdpi="0.57510161"
     inkscape:export-ydpi="0.57510161" />
</svg>
