<?xml version="1.0" encoding="UTF-8" standalone="no"?>
<svg
   width="2471"
   height="2497.8918"
   viewBox="0 0 256 258.7816"
   preserveAspectRatio="xMidYMid"
   version="1.1"
   id="svg4"
   sodipodi:docname="VSCView SC Icon.svg"
   inkscape:version="1.1 (c68e22c387, 2021-05-23)"
   inkscape:export-filename="C:\Users\AL200\Desktop\new icon.png"
   inkscape:export-xdpi="0.6216107"
   inkscape:export-ydpi="0.6216107"
   xmlns:inkscape="http://www.inkscape.org/namespaces/inkscape"
   xmlns:sodipodi="http://sodipodi.sourceforge.net/DTD/sodipodi-0.dtd"
   xmlns="http://www.w3.org/2000/svg"
   xmlns:svg="http://www.w3.org/2000/svg">
  <defs
     id="defs8" />
  <sodipodi:namedview
     id="namedview6"
     pagecolor="#ffffff"
     bordercolor="#666666"
     borderopacity="1.0"
     inkscape:pageshadow="2"
     inkscape:pageopacity="0.0"
     inkscape:pagecheckerboard="0"
     showgrid="false"
     inkscape:zoom="0.125"
     inkscape:cx="732"
     inkscape:cy="1336"
     inkscape:window-width="1920"
     inkscape:window-height="1005"
     inkscape:window-x="-9"
     inkscape:window-y="-9"
     inkscape:window-maximized="1"
     inkscape:current-layer="svg4" />
  <path
     style="color:#000000;display:inline;fill:#ffffff;fill-rule:evenodd;stroke-width:0.709799;stroke-linejoin:round;-inkscape-stroke:none"
     d="m 6.79087,166.08017 c 0,0 -4.988956,8.75827 -6.79087,-47.06852 157.98203,-144.914285 306.49559,-84.498392 174.76224,93.30834 -2.73975,3.69797 -77.906244,14.07162 -96.869016,10.66724 C 70.353972,221.63371 50.239864,193.71917 42.979963,190.65308 28.116481,184.37575 16.410271,174.3196 10.459431,170.41951 8.72806,169.28479 6.79087,166.08017 6.79087,166.08017 Z"
     sodipodi:nodetypes="ccssssc"
     inkscape:label="White Color"
     inkscape:export-filename="C:\Users\AL200\Desktop\icon.png"
     inkscape:export-xdpi="0.6216107"
     inkscape:export-ydpi="0.6216107"
     id="path7121" />
  <path
     d="M 127.779,-0.00238644 C 60.419999,-0.00238644 5.240001,52.409614 0,119.01165 l 68.723999,28.674 a 35.812,35.812 0 0 1 20.425995,-6.366 c 0.682002,0 1.356002,0.019 2.020002,0.056 L 121.736,96.665631 v -0.626 c 0,-26.903017 21.69,-48.796017 48.353,-48.796017 26.662,0 48.352,21.893 48.352,48.796017 0,26.902019 -21.69,48.804019 -48.352,48.804019 -0.37,0 -0.73,-0.009 -1.098,-0.018 l -43.593,31.377 c 0.028,0.582 0.046,1.163 0.046,1.735 0,20.204 -16.283,36.636 -36.294006,36.636 -17.565995,0 -32.262995,-12.658 -35.583995,-29.412 l -49.155998,-20.51 c 15.222998,54.313 64.672998,94.132 123.368999,94.132 70.818,0 128.221,-57.938 128.221,-129.393 C 256,57.927614 198.597,-0.00238644 127.779,-0.00238644 Z M 80.351999,196.32965 l -15.749,-6.568 c 2.787,5.867 7.621,10.775 14.033,13.47 13.856997,5.83 29.836001,-0.803 35.612001,-14.799 a 27.555,27.555 0 0 0 0.046,-21.035 c -2.768,-6.79 -7.999,-12.086 -14.706004,-14.909 -6.67,-2.795 -13.810997,-2.694 -20.084997,-0.304 l 16.274997,6.79 c 10.222004,4.3 15.056004,16.145 10.794004,26.46 -4.253,10.314 -15.998004,15.195 -26.220001,10.895 z M 202.309,96.039631 c 0,-17.925017 -14.457,-32.520017 -32.217,-32.520017 -17.769,0 -32.226,14.595 -32.226,32.520017 0,17.926019 14.457,32.512019 32.226,32.512019 17.76,0 32.217,-14.586 32.217,-32.512019 z m -56.37,-0.055 c 0,-13.488017 10.84,-24.420017 24.2,-24.420017 13.368,0 24.208,10.932 24.208,24.420017 0,13.488019 -10.84,24.421019 -24.209,24.421019 -13.359,0 -24.2,-10.933 -24.2,-24.420019 z"
     fill="#1a1918"
     id="path2"
     style="display:inline;fill:#000000;fill-opacity:1;stroke:none;stroke-opacity:1"
     inkscape:export-filename="C:\Users\AL200\Desktop\icon.png"
     inkscape:export-xdpi="0.6216107"
     inkscape:export-ydpi="0.6216107"
     inkscape:label="Black Color " />
  <path
     style="display:none;fill:none;fill-opacity:1;stroke:#d9d9d9;stroke-width:11.747;stroke-linecap:round;stroke-linejoin:round;stroke-miterlimit:4;stroke-dasharray:none;stroke-opacity:1;paint-order:normal"
     d="M 118.67888,262.01856 C 90.138086,259.79635 64.592375,249.40511 42.701902,231.11345 38.624865,227.70669 30.080786,219.16284 26.691925,215.10389 10.351482,195.53247 0.057311,172.41625 -3.3694669,147.59913 c -0.9921625,-7.18535 -1.1485072,-9.72231 -1.1485072,-18.63647 0,-8.92887 0.1557901,-11.44773 1.1559292,-18.68939 C 0.065938,85.45246 10.327773,62.421243 26.691925,42.821435 31.981089,36.486448 41.407019,27.541127 48.224028,22.387238 65.867068,9.0484636 86.292111,0.41720556 107.95323,-2.8532429 c 7.68807,-1.160767 10.4988,-1.3544271 19.72187,-1.3588202 9.1218,-0.00438 11.54179,0.1446201 18.82034,1.1585184 21.90757,3.05172026 43.1085,11.8564513 60.906,25.2942377 6.91404,5.220363 16.34163,14.159125 21.70619,20.580742 18.50869,22.15568 29.06696,48.439166 31.09764,77.413755 0.28596,4.07945 0.28596,13.37551 0,17.45495 -2.02073,28.83256 -12.33557,54.66247 -30.73314,76.96036 -3.36239,4.07524 -11.8591,12.66704 -15.92221,16.10045 -20.96709,17.71749 -45.02679,27.94836 -72.80203,30.95757 -3.84882,0.41699 -18.12046,0.6175 -22.06901,0.31004 z"
     id="path1174"
     inkscape:export-filename="C:\Users\AL200\Desktop\new icon.png"
     inkscape:export-xdpi="0.6216107"
     inkscape:export-ydpi="0.6216107" />
</svg>
