<?xml version="1.0" encoding="UTF-8" standalone="no"?>
<svg
   xmlns:osb="http://www.openswatchbook.org/uri/2009/osb"
   xmlns:dc="http://purl.org/dc/elements/1.1/"
   xmlns:cc="http://creativecommons.org/ns#"
   xmlns:rdf="http://www.w3.org/1999/02/22-rdf-syntax-ns#"
   xmlns:svg="http://www.w3.org/2000/svg"
   xmlns="http://www.w3.org/2000/svg"
   xmlns:xlink="http://www.w3.org/1999/xlink"
   xmlns:sodipodi="http://sodipodi.sourceforge.net/DTD/sodipodi-0.dtd"
   xmlns:inkscape="http://www.inkscape.org/namespaces/inkscape"
   width="212.465mm"
   height="140.52042mm"
   viewBox="0 0 212.465 140.52042"
   version="1.1"
   id="svg8"
   sodipodi:docname="DMC5-Gyro-Acel.svg"
   inkscape:version="1.0.2 (e86c870879, 2021-01-15, custom)">
  <defs
     id="defs2">
    <linearGradient
       id="linearGradient1709"
       osb:paint="solid">
      <stop
         style="stop-color:#ffffff;stop-opacity:1;"
         offset="0"
         id="stop1707" />
    </linearGradient>
    <linearGradient
       inkscape:collect="always"
       xlink:href="#linearGradient1709"
       id="linearGradient853"
       x1="4.7568011"
       y1="147.976"
       x2="207.00575"
       y2="147.976"
       gradientUnits="userSpaceOnUse"
       gradientTransform="translate(283.34443,2.1304096)" />
    <filter
       style="color-interpolation-filters:sRGB"
       inkscape:label="Drop Shadow"
       id="filter1677"
       x="-0.025256095"
       width="1.0505122"
       y="-0.039200675"
       height="1.0784014">
      <feFlood
         flood-opacity="0.498039"
         flood-color="rgb(0,0,0)"
         result="flood"
         id="feFlood1667" />
      <feComposite
         in="flood"
         in2="SourceGraphic"
         operator="in"
         result="composite1"
         id="feComposite1669" />
      <feGaussianBlur
         in="composite1"
         stdDeviation="2.1283413"
         result="blur"
         id="feGaussianBlur1671" />
      <feOffset
         dx="0"
         dy="0"
         result="offset"
         id="feOffset1673" />
      <feComposite
         in="SourceGraphic"
         in2="offset"
         operator="over"
         result="composite2"
         id="feComposite1675" />
    </filter>
    <linearGradient
       inkscape:collect="always"
       xlink:href="#linearGradient1709"
       id="linearGradient1711"
       x1="80.51284"
       y1="130.62366"
       x2="133.7401"
       y2="130.62366"
       gradientUnits="userSpaceOnUse"
       gradientTransform="translate(283.34443,2.1304096)" />
    <filter
       style="color-interpolation-filters:sRGB"
       inkscape:label="Drop Shadow"
       id="filter2039"
       x="-0.26042045"
       width="1.5208409"
       y="-0.26039279"
       height="1.5207856">
      <feFlood
         flood-opacity="0.501961"
         flood-color="rgb(0,0,0)"
         result="flood"
         id="feFlood2029" />
      <feComposite
         in="flood"
         in2="SourceGraphic"
         operator="in"
         result="composite1"
         id="feComposite2031" />
      <feGaussianBlur
         in="composite1"
         stdDeviation="5.7756096"
         result="blur"
         id="feGaussianBlur2033" />
      <feOffset
         dx="0"
         dy="0"
         result="offset"
         id="feOffset2035" />
      <feComposite
         in="SourceGraphic"
         in2="offset"
         operator="over"
         result="composite2"
         id="feComposite2037" />
    </filter>
  </defs>
  <sodipodi:namedview
     id="base"
     pagecolor="#ffffff"
     bordercolor="#666666"
     borderopacity="1.0"
     inkscape:pageopacity="0.0"
     inkscape:pageshadow="2"
     inkscape:zoom="0.70510017"
     inkscape:cx="264.13694"
     inkscape:cy="202.47514"
     inkscape:document-units="mm"
     inkscape:current-layer="layer1"
     inkscape:document-rotation="0"
     showgrid="false"
     inkscape:window-width="1920"
     inkscape:window-height="1005"
     inkscape:window-x="-9"
     inkscape:window-y="-9"
     inkscape:window-maximized="1" />
  <metadata
     id="metadata5">
    <rdf:RDF>
      <cc:Work
         rdf:about="">
        <dc:format>image/svg+xml</dc:format>
        <dc:type
           rdf:resource="http://purl.org/dc/dcmitype/StillImage" />
        <dc:title />
      </cc:Work>
    </rdf:RDF>
  </metadata>
  <g
     inkscape:label="Layer 1"
     inkscape:groupmode="layer"
     id="layer1"
     transform="translate(121.35154,93.694726)">
    <g
       id="g2138"
       transform="translate(-404.34476,-173.54094)"
       inkscape:export-xdpi="30.963217"
       inkscape:export-ydpi="30.963217">
      <path
         style="display:inline;opacity:1;mix-blend-mode:normal;fill:#317f9f;fill-opacity:0.84;stroke:url(#linearGradient853);stroke-width:3.265;stroke-linecap:round;stroke-linejoin:round;stroke-miterlimit:4;stroke-dasharray:none;paint-order:normal;filter:url(#filter1677)"
         d="m 305.97661,215.09708 c -3.45215,-0.51786 -5.74785,-1.46072 -8.50794,-3.49427 -5.1743,-3.81226 -7.50031,-8.09068 -8.94807,-16.45886 -0.49133,-2.8399 -0.56967,-13.33727 -0.13515,-18.10846 1.06599,-11.7049 2.57924,-19.26696 8.31565,-41.55508 5.73329,-22.27605 6.80637,-25.25966 11.84731,-32.94068 0.95505,-1.45524 2.37463,-3.776957 3.15461,-5.159375 1.10224,-1.953577 1.63777,-2.631366 2.40407,-3.042654 0.82035,-0.440305 0.98603,-0.670541 0.98663,-1.371046 7.9e-4,-0.873957 0.60047,-1.462884 2.17918,-2.139928 0.5638,-0.241795 0.76139,-0.548712 0.89627,-1.392189 0.3055,-1.910463 2.68625,-3.611485 5.91042,-4.222937 1.80947,-0.343158 6.41397,-0.343158 8.22344,0 2.80623,0.532192 5.65134,2.351157 5.85819,3.745327 0.0578,0.389508 0.40792,0.679473 1.11478,0.92322 1.53543,0.529463 1.7476,0.802543 1.7476,2.249295 0,1.008201 0.10361,1.329594 0.46302,1.436336 0.25466,0.07563 0.82021,0.328641 1.25677,0.562243 2.64066,1.413002 2.35982,1.366671 8.35358,1.378096 3.11813,0.0059 20.2545,0.01095 38.08079,0.01112 17.82631,1.74e-4 34.91178,0.0032 37.96771,0.0068 l 5.55625,0.0065 2.29866,-1.125598 2.29865,-1.125598 0.0826,-1.322916 c 0.0794,-1.272594 0.12571,-1.342935 1.21589,-1.849163 0.84131,-0.390661 1.18633,-0.731505 1.33914,-1.322917 0.25529,-0.988028 2.16481,-2.482745 4.07891,-3.192847 1.17186,-0.434741 2.08152,-0.514241 5.88407,-0.514241 5.09347,0 6.26643,0.271974 8.5299,1.977839 1.05474,0.794899 1.29798,1.14599 1.49503,2.157932 0.20169,1.035734 0.35882,1.253225 1.09873,1.520781 1.5085,0.54548 2.2378,1.293456 2.2378,2.29511 0,0.731776 0.11998,0.93191 0.63637,1.061515 0.85692,0.215073 1.42239,0.896943 2.94777,3.55453 0.70997,1.236927 2.11202,3.499115 3.11568,5.027085 4.73378,7.20666 6.33707,11.64172 11.4299,31.6177 1.113,4.36563 2.3147,9.0686 2.67043,10.45104 1.82918,7.10856 3.95824,16.9325 4.70197,21.69584 1.66022,10.63324 2.07369,23.12661 0.97456,29.44733 -0.90842,5.22397 -2.60651,9.49091 -4.80876,12.08337 -1.53922,1.81195 -4.68315,4.33965 -6.60308,5.30883 -5.0369,2.54262 -11.20221,2.58752 -16.12317,0.11742 -4.59392,-2.30594 -9.64994,-7.2212 -12.30916,-11.96648 -3.5113,-6.26581 -7.19911,-14.95834 -11.25272,-26.52381 -0.9343,-2.66569 -1.95025,-4.00489 -3.29404,-4.34216 -0.53627,-0.13459 -0.92664,0.0104 -1.71995,0.63869 -1.81863,1.44037 -5.45748,3.11359 -8.09859,3.7239 -5.61436,1.29736 -12.83436,-0.24085 -17.20584,-3.66566 l -1.28533,-1.00698 -17.85938,0.011 -17.85937,0.011 -1.32291,1.01388 c -4.24261,3.25151 -10.95125,4.78984 -16.39976,3.76056 -2.90515,-0.54882 -5.43158,-1.59658 -8.04259,-3.33542 -1.81253,-1.20708 -2.04513,-1.29366 -2.79042,-1.03862 -1.49313,0.51096 -1.92615,1.14192 -3.19231,4.65157 -2.48351,6.88399 -5.645,15.15438 -6.17256,16.14724 -0.14513,0.27314 -1.52357,3.05646 -3.06319,6.18516 -2.70336,5.49355 -2.88783,5.78658 -5.38174,8.54859 -1.42034,1.57303 -3.4754,3.57147 -4.56681,4.44098 -4.42585,3.52601 -9.70369,5.15595 -14.40949,4.45002 z"
         id="path847" />
      <path
         style="display:inline;mix-blend-mode:hard-light;fill:#f0f0f0;fill-opacity:0.963563;stroke:url(#linearGradient1711);stroke-width:0.413745;stroke-miterlimit:4;stroke-dasharray:none;filter:url(#filter2039)"
         d="m 387.87415,159.25134 c -5.0146,-0.46722 -10.02841,-2.52973 -14.08434,-5.79382 l -1.25248,-1.00797 -1.33089,1.3309 -1.3309,1.33089 -0.0235,0.65419 c -0.0434,1.20846 -0.66348,2.00174 -1.80289,2.30649 -1.78549,0.47755 -3.37535,-1.18924 -2.86682,-3.00552 0.29376,-1.04922 1.49279,-1.86101 2.525,-1.70951 0.32529,0.0478 0.49681,-0.0828 1.7168,-1.30622 l 1.35542,-1.35927 -0.97451,-1.21151 c -1.69578,-2.10822 -2.87971,-4.07134 -3.84548,-6.37637 -3.6761,-8.77383 -2.48199,-18.58634 3.19674,-26.26899 1.14828,-1.55349 3.84828,-4.25349 5.40176,-5.40176 5.77095,-4.26567 12.843,-6.04711 19.86617,-5.00428 4.62785,0.68717 8.96699,2.59942 12.74394,5.61622 l 1.25677,1.00384 1.3266,-1.3266 1.3266,-1.3266 0.0235,-0.65418 c 0.0435,-1.20847 0.66349,-2.00175 1.80289,-2.3065 1.78549,-0.47754 3.37535,1.18924 2.86682,3.00553 -0.29376,1.04922 -1.49278,1.861 -2.525,1.7095 -0.32527,-0.0478 -0.49677,0.0827 -1.7161,1.30552 l -1.3547,1.35856 1.10245,1.37354 c 7.54467,9.39973 7.7572,22.69281 0.51938,32.48475 -1.14828,1.55348 -3.84828,4.25349 -5.40176,5.40176 -5.39546,3.98812 -11.86772,5.79734 -18.52147,5.17741 z m 4.9983,-2.4123 c 4.75188,-0.50696 9.20712,-2.33942 12.85736,-5.28829 1.0716,-0.86569 3.10648,-2.94085 3.89103,-3.96808 4.96641,-6.50251 6.35935,-14.8024 3.78438,-22.54934 -1.6884,-5.07962 -5.16666,-9.5848 -9.67282,-12.52859 -7.19221,-4.69855 -16.41004,-5.24605 -24.01441,-1.42637 -2.60979,1.3109 -4.51657,2.70803 -6.56158,4.80778 -1.42345,1.46156 -1.92402,2.07608 -2.89261,3.55117 -5.31008,8.08679 -5.30995,18.54861 3.3e-4,26.63216 1.73718,2.64442 4.26615,5.17398 6.89663,6.89826 4.62062,3.02882 10.35795,4.44248 15.71169,3.8713 z m -11.25114,-5.69 c -7.94962,-0.92791 -11.55436,-8.23445 -8.56472,-17.36004 0.47725,-1.45676 1.94602,-4.67134 2.13042,-4.6627 0.0536,0.002 0.40525,0.50497 0.78153,1.11657 l 0.68414,1.11202 -0.3362,0.66899 c -0.51433,1.02342 -1.18282,2.89143 -1.52791,4.26954 -0.42661,1.70361 -0.53363,4.32044 -0.23672,5.78813 0.71339,3.52651 3.07063,5.88351 6.59768,6.59701 1.23126,0.24908 3.88674,0.18501 5.33249,-0.12866 1.25079,-0.27137 3.12623,-0.90754 4.3689,-1.48198 l 1.0399,-0.4807 1.10428,0.67931 c 0.60735,0.37362 1.10633,0.72383 1.10884,0.77825 0.002,0.0545 -0.72756,0.45099 -1.62237,0.88129 -3.80807,1.8312 -7.58802,2.60491 -10.86026,2.22297 z m 18.96365,-2.22252 c -3.26971,-0.87398 -7.6139,-3.49373 -12.04501,-7.2637 -1.63648,-1.39231 -5.58022,-5.33605 -6.97253,-6.97254 -3.87812,-4.55821 -6.54775,-9.04568 -7.32581,-12.31417 -0.36065,-1.51502 -0.29286,-3.10169 0.17322,-4.05431 0.65377,-1.33628 1.68145,-1.93034 3.47226,-2.0072 1.79405,-0.077 3.88464,0.52023 6.24292,1.78342 l 0.85596,0.45848 0.95987,-0.59828 c 1.50173,-0.936 3.97214,-2.10039 5.5684,-2.62456 5.89902,-1.93706 11.10843,-1.19666 14.34372,2.03862 3.82836,3.82836 4.12845,10.51424 0.78,17.37853 -0.42222,0.86554 -1.0369,2.00566 -1.36594,2.53359 l -0.59828,0.95987 0.46112,0.85596 c 0.64368,1.19481 1.37725,3.10187 1.62476,4.22384 0.27613,1.25164 0.20956,2.93702 -0.14739,3.73191 -0.32256,0.71832 -1.11211,1.50866 -1.8328,1.83465 -0.88189,0.39891 -2.77575,0.41511 -4.19447,0.0358 z m 3.31798,-2.30658 c 0.18706,-0.0967 0.40979,-0.34411 0.49496,-0.54974 0.22762,-0.54952 0.085,-2.17219 -0.28429,-3.23505 -0.38606,-1.11102 -0.93347,-2.33421 -1.04463,-2.33421 -0.0471,0 -0.44411,0.42218 -0.88228,0.93817 -0.43816,0.51601 -1.18426,1.31951 -1.65799,1.78557 l -0.86132,0.84739 -1.13426,-0.58812 -1.13426,-0.58812 1.47858,-1.46982 c 0.81321,-0.8084 1.79821,-1.86878 2.18889,-2.35638 l 0.71032,-0.88657 -0.22029,-0.38452 c -0.37261,-0.65039 -1.87035,-2.74511 -2.82834,-3.95564 -2.91372,-3.68185 -6.80514,-7.4831 -10.49072,-10.24764 -1.10542,-0.82917 -2.76007,-1.95404 -3.02245,-2.05472 -0.25076,-0.0962 -1.79591,1.18345 -3.46994,2.87377 l -1.40807,1.42178 -0.58934,-1.13692 -0.58934,-1.1369 0.96844,-0.9803 c 0.53264,-0.53917 1.33615,-1.2828 1.78557,-1.65252 0.44941,-0.36972 0.81712,-0.71322 0.81712,-0.76333 0,-0.11853 -1.41655,-0.74508 -2.42111,-1.07088 -2.04789,-0.66417 -3.3865,-0.54203 -3.75286,0.34244 -0.2537,0.61247 -0.0875,2.17896 0.3659,3.44971 1.02501,2.87255 3.01696,6.05753 6.1759,9.87483 1.47398,1.78119 5.48693,5.81797 7.19813,7.24087 4.25097,3.53482 8.04142,5.81051 11.01499,6.61314 0.82266,0.22204 2.16675,0.22397 2.59269,0.004 z m -8.76547,-7.22327 c -1.60178,-0.36883 -4.44743,-2.30914 -6.72109,-4.58281 -3.77884,-3.77883 -5.70632,-7.83422 -4.11473,-8.65727 0.47063,-0.24338 0.91256,-0.22974 1.83471,0.0566 3.90785,1.21349 10.24721,7.76048 11.00932,11.36991 0.32146,1.52249 -0.4087,2.18188 -2.00821,1.81357 z m -2.72375,-5.10144 c 0,-1.02372 -2.23619,-3.29095 -3.39984,-3.44703 -0.47062,-0.0631 -0.47393,-0.0607 -0.47393,0.34742 0,1.05496 2.42859,3.49466 3.47872,3.49466 0.36533,0 0.39505,-0.0298 0.39505,-0.39505 z m 11.95449,-0.30102 c 0.94643,-1.89241 1.53749,-3.49184 1.93479,-5.23564 0.29984,-1.31595 0.29515,-4.83936 -0.008,-5.93171 -0.86299,-3.11091 -3.03492,-5.18484 -6.22959,-5.9485 -0.91405,-0.2185 -1.31195,-0.2441 -2.99118,-0.19247 -1.65121,0.0508 -2.14313,0.11401 -3.33518,0.42873 -1.63207,0.43087 -2.87451,0.90613 -4.4729,1.71098 -1.39703,0.70344 -1.93511,1.01167 -1.93612,1.10906 -3.6e-4,0.0405 0.31248,0.28101 0.69531,0.53446 4.85231,3.21231 11.54239,9.902 14.73649,14.73564 0.25298,0.38285 0.50334,0.69607 0.55634,0.69607 0.053,0 0.52546,-0.85797 1.04991,-1.90662 z"
         id="path1705"
         transform="matrix(0.87493582,0,0,0.87493582,47.588346,16.755495)"
         inkscape:transform-center-y="5.3260233" />
    </g>
  </g>
</svg>
