<?xml version="1.0" encoding="UTF-8" standalone="no"?>
<!-- Created with Inkscape (http://www.inkscape.org/) -->

<svg
   width="302.40805mm"
   height="211.91278mm"
   viewBox="0 0 302.40804 211.91279"
   version="1.1"
   id="svg5"
   sodipodi:docname="Switch Pro Active Butons.svg"
   inkscape:version="1.2 (dc2aedaf03, 2022-05-15)"
   inkscape:export-filename="C:\Users\AL200\OneDrive\Pictures\AL2009man Work Projects\VSCView - Controller Theme Layout\VSCView - Controller Theme (Ver. 1.20)\Nintendo Switch Controller Images\Switch Pro Controller\Theme SVG\Theme Assets\Active Presses\NSwitchPro_CaptureButton.png"
   inkscape:export-xdpi="134.694"
   inkscape:export-ydpi="134.694"
   xml:space="preserve"
   xmlns:inkscape="http://www.inkscape.org/namespaces/inkscape"
   xmlns:sodipodi="http://sodipodi.sourceforge.net/DTD/sodipodi-0.dtd"
   xmlns="http://www.w3.org/2000/svg"
   xmlns:svg="http://www.w3.org/2000/svg"><sodipodi:namedview
     id="namedview7"
     pagecolor="#ffffff"
     bordercolor="#666666"
     borderopacity="1.0"
     inkscape:pageshadow="2"
     inkscape:pageopacity="0.0"
     inkscape:pagecheckerboard="0"
     inkscape:document-units="mm"
     showgrid="false"
     inkscape:zoom="0.37104025"
     inkscape:cx="88.939137"
     inkscape:cy="622.57396"
     inkscape:window-width="2560"
     inkscape:window-height="1334"
     inkscape:window-x="-11"
     inkscape:window-y="-11"
     inkscape:window-maximized="1"
     inkscape:current-layer="layer1"
     inkscape:showpageshadow="2"
     inkscape:deskcolor="#d1d1d1"><inkscape:page
       x="0"
       y="0"
       width="302.40802"
       height="211.9128"
       id="page336" /><inkscape:page
       x="597.22327"
       y="-10.502712"
       width="76.306458"
       height="28.720453"
       id="page338" /><inkscape:page
       x="706.62616"
       y="147.10869"
       width="351.34198"
       height="66.308685"
       id="page1270" /></sodipodi:namedview><defs
     id="defs2"><inkscape:path-effect
       effect="bspline"
       id="path-effect11354"
       is_visible="true"
       lpeversion="1"
       weight="33.333333"
       steps="2"
       helper_size="0"
       apply_no_weight="true"
       apply_with_weight="true"
       only_selected="false" /><inkscape:path-effect
       effect="bspline"
       id="path-effect11187"
       is_visible="true"
       lpeversion="1"
       weight="33.333333"
       steps="2"
       helper_size="0"
       apply_no_weight="true"
       apply_with_weight="true"
       only_selected="false" /><inkscape:path-effect
       effect="bspline"
       id="path-effect41470"
       is_visible="true"
       lpeversion="1"
       weight="33.333333"
       steps="2"
       helper_size="0"
       apply_no_weight="true"
       apply_with_weight="true"
       only_selected="false" /><inkscape:path-effect
       effect="bspline"
       id="path-effect11354-5"
       is_visible="true"
       lpeversion="1"
       weight="33.333333"
       steps="2"
       helper_size="0"
       apply_no_weight="true"
       apply_with_weight="true"
       only_selected="false" /><inkscape:path-effect
       effect="bspline"
       id="path-effect11187-0"
       is_visible="true"
       lpeversion="1"
       weight="33.333333"
       steps="2"
       helper_size="0"
       apply_no_weight="true"
       apply_with_weight="true"
       only_selected="false" /><inkscape:path-effect
       effect="bspline"
       id="path-effect41470-7"
       is_visible="true"
       lpeversion="1"
       weight="33.333333"
       steps="2"
       helper_size="0"
       apply_no_weight="true"
       apply_with_weight="true"
       only_selected="false" /></defs><g
     inkscape:label="Layer 1"
     inkscape:groupmode="layer"
     id="layer1"
     transform="translate(-140.89804,-70.391695)"><path
       style="display:inline;fill:#107893;fill-opacity:0.501961;fill-rule:nonzero;stroke:#24d2f6;stroke-width:2.3;stroke-linejoin:round;stroke-miterlimit:8.53146;stroke-dasharray:none;stroke-opacity:1"
       d="m 347.49257,104.4189 c -1.07609,0.006 -2.11636,0.0297 -3.11401,0.0714 l -20.69399,9.75195 0.43832,0.10433 c 23.62748,1.10742 47.91013,3.16778 62.01409,6.79389 15.41678,3.97627 30.13772,11.83061 39.1501,17.26018 l 0.25158,0.0596 c -6.32311,-17.48109 -22.95158,-24.55494 -30.60757,-27.57949 -7.16229,-2.83565 -31.29715,-6.5573 -47.43852,-6.46191 z"
       id="path5183"
       inkscape:label="R"
       inkscape:export-filename="..\Active Presses\NSwitchPro_R_Bumper.png"
       inkscape:export-xdpi="134.694"
       inkscape:export-ydpi="134.694" /><path
       style="display:inline;fill:#107893;fill-opacity:0.501961;fill-rule:nonzero;stroke:#24d2f6;stroke-width:2.3;stroke-linejoin:round;stroke-miterlimit:8.53146;stroke-dasharray:none;stroke-opacity:1"
       d="m 275.52088,104.4189 c 1.07609,0.006 2.11636,0.0297 3.11401,0.0714 l 20.69399,9.75195 -0.43832,0.10433 c -23.62748,1.10742 -47.91013,3.16778 -62.01409,6.79389 -15.41678,3.97627 -30.13772,11.83061 -39.1501,17.26018 l -0.25158,0.0596 c 6.32311,-17.48109 22.95158,-24.55494 30.60757,-27.57949 7.16229,-2.83565 31.29715,-6.5573 47.43852,-6.46191 z"
       id="path1017"
       inkscape:label="L"
       inkscape:export-filename="..\Active Presses\NSwitchPro_L_Bumper.png"
       inkscape:export-xdpi="134.694"
       inkscape:export-ydpi="134.694" /><g
       id="g1997"
       transform="translate(157.29648,24.1547)"
       inkscape:label="Face Buttons"><path
         style="display:inline;fill:#107893;fill-opacity:0.501961;stroke:#24d2f6;stroke-width:1.8;stroke-linecap:butt;stroke-linejoin:miter;stroke-miterlimit:8.53146;stroke-dasharray:none;stroke-opacity:1"
         d="m 252.12759,138.70038 c 0,-8.32305 -6.66169,-15.0436 -14.87451,-15.0436 -8.21289,0 -14.85826,6.72055 -14.85826,15.0436 0,8.30666 6.64537,15.04368 14.85826,15.04368 8.21282,0 14.87451,-6.73702 14.87451,-15.04368 z"
         id="path1739-4"
         inkscape:label="X Button" /><path
         style="display:inline;fill:#107893;fill-opacity:0.501961;stroke:#24d2f6;stroke-width:1.8;stroke-linecap:butt;stroke-linejoin:miter;stroke-miterlimit:8.53146;stroke-dasharray:none;stroke-opacity:1"
         d="m 204.89152,152.71384 c -8.2129,0 -14.87459,6.72055 -14.87459,15.0436 0,8.30674 6.66169,15.04369 14.87459,15.04369 8.21281,0 14.87451,-6.73695 14.87451,-15.04369 0,-8.32305 -6.6617,-15.0436 -14.87451,-15.0436 z"
         id="path1735-4"
         inkscape:label="Y Button" /><path
         style="display:inline;fill:#107893;fill-opacity:0.501961;stroke:#24d2f6;stroke-width:1.8;stroke-linecap:butt;stroke-linejoin:miter;stroke-miterlimit:8.53146;stroke-dasharray:none;stroke-opacity:1"
         d="m 270.23511,182.80113 c 8.21281,0 14.87451,-6.73695 14.87451,-15.04369 0,-8.30666 -6.6617,-15.06 -14.87451,-15.06 -8.2129,0 -14.87467,6.75334 -14.87467,15.06 0,8.30674 6.66177,15.04369 14.87467,15.04369 z"
         id="path1727-2"
         inkscape:label="A Button" /><path
         style="display:inline;fill:#107893;fill-opacity:0.501961;stroke:#24d2f6;stroke-width:1.8;stroke-linecap:butt;stroke-linejoin:miter;stroke-miterlimit:8.53146;stroke-dasharray:none;stroke-opacity:1"
         d="m 222.39482,196.22591 c 0,8.30666 6.64544,15.04361 14.85826,15.04361 8.21282,0 14.87451,-6.73695 14.87451,-15.04361 0,-8.32305 -6.66169,-15.06008 -14.87451,-15.06008 -8.21282,0 -14.85826,6.73703 -14.85826,15.06008 z"
         id="path1731-8"
         inkscape:label="B Button"
         inkscape:export-filename="C:\Users\AL200\OneDrive\Pictures\AL2009man Work Projects\VSCView - Controller Theme Layout\VSCView - Controller Theme (Ver. 1.20)\Nintendo Switch Controller Images\Switch Pro Controller\Theme SVG\Theme Assets\Active Presses\NSwitchPro_B_Button.png"
         inkscape:export-xdpi="134.694"
         inkscape:export-ydpi="134.694" /></g><path
       style="color:#000000;display:inline;fill:#107893;fill-opacity:0.501961;stroke:#24d2f6;stroke-width:1.8;stroke-miterlimit:8.53146;stroke-dasharray:none;stroke-opacity:1"
       d="m 313.61727,182.4608 c -4.94141,0 -8.96655,4.06987 -8.96655,9.06911 0,4.98542 4.0235,9.06911 8.96655,9.06911 4.9568,0 8.96558,-4.08532 8.96558,-9.06911 0,-4.99761 -4.01042,-9.06911 -8.96558,-9.06911 z"
       id="path2583"
       inkscape:label="Home"
       inkscape:export-filename="C:\Users\AL200\OneDrive\Pictures\AL2009man Work Projects\VSCView - Controller Theme Layout\VSCView - Controller Theme (Ver. 1.20)\Nintendo Switch Controller Images\Switch Pro Controller\Theme SVG\Theme Assets\Active Presses\NSwitchPro_HomeButton.png"
       inkscape:export-xdpi="134.694"
       inkscape:export-ydpi="134.694" /><path
       style="display:inline;fill:#107893;fill-opacity:0.501961;fill-rule:nonzero;stroke:#24d2f6;stroke-width:1.8;stroke-miterlimit:8.53146;stroke-dasharray:none;stroke-opacity:1"
       d="m 258.82854,183.46272 h -7.97322 c -2.28885,0 -4.18364,1.91307 -4.18364,4.2359 v 8.18346 c 0,2.33806 1.89479,4.23596 4.18364,4.23596 h 7.97322 c 2.3041,0 4.18374,-1.8979 4.18374,-4.23596 v -8.18346 c 0,-2.32283 -1.87964,-4.2359 -4.18374,-4.2359"
       id="path1761-8"
       inkscape:label="Capture"
       inkscape:export-filename="C:\Users\AL200\OneDrive\Pictures\AL2009man Work Projects\VSCView - Controller Theme Layout\VSCView - Controller Theme (Ver. 1.20)\Nintendo Switch Controller Images\Switch Pro Controller\Theme SVG\Theme Assets\Active Presses\NSwitchPro_CaptureButton.png"
       inkscape:export-xdpi="134.694"
       inkscape:export-ydpi="134.694" /><path
       style="display:inline;opacity:1;fill:#107893;fill-opacity:0.501961;stroke:#24d2f6;stroke-width:1.8;stroke-linecap:butt;stroke-linejoin:miter;stroke-miterlimit:8.53146;stroke-dasharray:none;stroke-opacity:1"
       d="m 242.56392,160.16467 c 0,5.32869 -4.27744,9.66369 -9.54715,9.66369 -5.26979,0 -9.54724,-4.335 -9.54724,-9.66369 0,-5.3287 4.27745,-9.66354 9.54724,-9.66354 5.26971,0 9.54715,4.33484 9.54715,9.66354 z"
       inkscape:label="Minus"
       id="path3923"
       inkscape:export-filename="C:\Users\AL200\OneDrive\Pictures\AL2009man Work Projects\VSCView - Controller Theme Layout\VSCView - Controller Theme (Ver. 1.20)\Nintendo Switch Controller Images\Switch Pro Controller\Theme SVG\Theme Assets\Active Presses\NSwitchPro_MinusButton.png"
       inkscape:export-xdpi="134.694"
       inkscape:export-ydpi="134.694" /><path
       style="display:inline;opacity:1;fill:#107893;fill-opacity:0.501961;stroke:#24d2f6;stroke-width:1.8;stroke-linecap:butt;stroke-linejoin:miter;stroke-miterlimit:8.53146;stroke-dasharray:none;stroke-opacity:1"
       d="m 344.70616,160.09782 c 0,5.08294 -4.07997,9.21801 -9.10638,9.21801 -5.0265,0 -9.10648,-4.13507 -9.10648,-9.21801 0,-5.08295 4.07998,-9.21786 9.10648,-9.21786 5.02641,0 9.10638,4.13491 9.10638,9.21786 z"
       inkscape:label="Plus"
       id="path935"
       inkscape:export-filename="C:\Users\AL200\OneDrive\Pictures\AL2009man Work Projects\VSCView - Controller Theme Layout\VSCView - Controller Theme (Ver. 1.20)\Nintendo Switch Controller Images\Switch Pro Controller\Theme SVG\Theme Assets\Active Presses\NSwitchPro_PlusButton.png"
       inkscape:export-xdpi="134.694"
       inkscape:export-ydpi="134.694" /><path
       style="display:inline;fill:#107893;fill-opacity:0.501961;stroke:#24d2f6;stroke-width:2.2;stroke-linecap:butt;stroke-linejoin:miter;stroke-miterlimit:8.53146;stroke-dasharray:none;stroke-opacity:1"
       d="m 141.99804,191.58523 c 0,14.82808 12.10275,26.85409 27.06002,26.85409 14.95726,0 27.0896,-12.02601 27.0896,-26.85409 0,-14.85733 -12.13234,-26.88348 -27.0896,-26.88348 -14.95727,0 -27.06002,12.02615 -27.06002,26.88348 z"
       id="path1731-8-1"
       inkscape:label="Analog Stick Click"
       inkscape:export-filename="C:\Users\AL200\OneDrive\Pictures\AL2009man Work Projects\VSCView - Controller Theme Layout\VSCView - Controller Theme (Ver. 1.20)\Nintendo Switch Controller Images\Switch Pro Controller\Theme SVG\Theme Assets\Active Presses\NSwitchPro_AnalogStickClick.png"
       inkscape:export-xdpi="134.694"
       inkscape:export-ydpi="134.694" /><g
       id="g1967"
       inkscape:label="D-PAD"
       transform="translate(32.772866,-0.61626435)"><path
         style="display:inline;fill:#107893;fill-opacity:0.501961;fill-rule:nonzero;stroke:#24d2f6;stroke-width:2;stroke-linecap:butt;stroke-linejoin:miter;stroke-miterlimit:9.53846;stroke-dasharray:none;stroke-opacity:1"
         d="m 187.68804,250.64048 -11.44581,11.44581 v 18.13378 c 0,0.9481 0.76745,1.70067 1.69808,1.70067 h 19.49545 c 0.94699,0 1.69809,-0.75235 1.69809,-1.70067 v -18.13378 z"
         id="path1925"
         inkscape:label="D-PAD Down"
         inkscape:export-filename="C:\Users\AL200\OneDrive\Pictures\AL2009man Work Projects\VSCView - Controller Theme Layout\VSCView - Controller Theme (Ver. 1.20)\Nintendo Switch Controller Images\Switch Pro Controller\Theme SVG\Theme Assets\Active Presses\NSwitchPro_D-PAD_Down.png"
         inkscape:export-xdpi="134.694"
         inkscape:export-ydpi="134.694" /><path
         style="display:inline;fill:#107893;fill-opacity:0.501961;fill-rule:nonzero;stroke:#24d2f6;stroke-width:2;stroke-linecap:butt;stroke-linejoin:miter;stroke-miterlimit:9.53846;stroke-dasharray:none;stroke-opacity:1"
         d="m 199.60979,238.71924 -11.57707,11.57707 11.59309,11.59309 h 17.632 c 0.93066,0 1.68155,-0.76867 1.68155,-1.71669 v -19.73678 c 0,-0.9481 -0.75089,-1.71669 -1.68155,-1.71669 z"
         id="path1923"
         inkscape:label="D-PAD Right"
         inkscape:export-filename="C:\Users\AL200\OneDrive\Pictures\AL2009man Work Projects\VSCView - Controller Theme Layout\VSCView - Controller Theme (Ver. 1.20)\Nintendo Switch Controller Images\Switch Pro Controller\Theme SVG\Theme Assets\Active Presses\NSwitchPro_D-PAD_Right.png"
         inkscape:export-xdpi="134.694"
         inkscape:export-ydpi="134.694" /><path
         style="display:inline;fill:#107893;fill-opacity:0.501961;fill-rule:nonzero;stroke:#24d2f6;stroke-width:2;stroke-linecap:butt;stroke-linejoin:miter;stroke-miterlimit:9.53846;stroke-dasharray:none;stroke-opacity:1"
         d="m 158.1348,238.71924 c -0.94692,0 -1.69808,0.76866 -1.69808,1.71669 v 19.73678 c 0,0.9481 0.75108,1.71669 1.69808,1.71669 h 17.61598 l 11.59309,-11.59309 -11.57707,-11.57707 z"
         id="path1921"
         inkscape:label="D-PAD Left"
         inkscape:export-filename="C:\Users\AL200\OneDrive\Pictures\AL2009man Work Projects\VSCView - Controller Theme Layout\VSCView - Controller Theme (Ver. 1.20)\Nintendo Switch Controller Images\Switch Pro Controller\Theme SVG\Theme Assets\Active Presses\NSwitchPro_D-PAD_Left.png"
         inkscape:export-xdpi="134.694"
         inkscape:export-ydpi="134.694" /><path
         style="display:inline;fill:#107893;fill-opacity:0.501961;fill-rule:nonzero;stroke:#24d2f6;stroke-width:2;stroke-linecap:butt;stroke-linejoin:miter;stroke-miterlimit:9.53846;stroke-dasharray:none;stroke-opacity:1"
         d="m 177.94031,218.67189 c -0.93071,0 -1.69808,0.76925 -1.69808,1.7172 v 18.11673 l 11.44581,11.44581 11.44581,-11.44581 v -18.11673 c 0,-0.9481 -0.7511,-1.7172 -1.69809,-1.7172 z"
         id="path1781-2"
         inkscape:label="D-PAD Up"
         inkscape:export-filename="C:\Users\AL200\OneDrive\Pictures\AL2009man Work Projects\VSCView - Controller Theme Layout\VSCView - Controller Theme (Ver. 1.20)\Nintendo Switch Controller Images\Switch Pro Controller\Theme SVG\Theme Assets\Active Presses\NSwitchPro_D-PAD_Up.png"
         inkscape:export-xdpi="134.694"
         inkscape:export-ydpi="134.694" /></g><path
       id="path1411"
       style="display:inline;fill:#107893;fill-opacity:0.501961;fill-rule:nonzero;stroke:#24d2f6;stroke-width:2;stroke-linecap:round;stroke-linejoin:round;stroke-miterlimit:9.53846;stroke-dasharray:none;stroke-opacity:1;paint-order:normal"
       d="m 915.19755,218.50049 c -0.50317,-8.2e-4 -1.00487,0.008 -1.50534,0.0258 -0.50047,0.0181 -0.99929,0.0454 -1.49706,0.0822 -0.49777,0.0368 -0.99425,0.0826 -1.48932,0.13798 -0.49507,0.0554 -0.98918,0.12002 -1.48156,0.19379 -0.49237,0.0738 -0.9831,0.15704 -1.47278,0.24908 -0.48969,0.0921 -0.97804,0.19317 -1.46503,0.30334 -0.48699,0.11017 -0.97245,0.22945 -1.45675,0.3576 -0.48431,0.12815 -0.96738,0.26485 -1.44901,0.41083 -0.48162,0.14598 -0.96179,0.30091 -1.44074,0.46457 -0.47894,0.16367 -0.95673,0.33608 -1.43299,0.51728 -0.47627,0.1812 -0.95113,0.37141 -1.42472,0.56999 -0.4736,0.19859 -0.94605,0.40585 -1.41697,0.62167 -0.47093,0.21582 -0.94044,0.43991 -1.4087,0.67282 -0.46825,0.23291 -0.93534,0.47466 -1.40094,0.72451 -0.46559,0.24985 -0.92974,0.50799 -1.39268,0.77463 -0.46293,0.26665 -0.92465,0.54146 -1.38493,0.82475 -0.46028,0.28329 -0.91903,0.5751 -1.37666,0.87488 -0.45762,0.29978 -0.91393,0.60785 -1.36891,0.92398 -0.45497,0.31613 -0.90883,0.64022 -1.36116,0.97255 -0.45233,0.33233 -0.9032,0.67275 -1.35289,1.02113 -0.44969,0.34838 -0.89808,0.70489 -1.34513,1.06918 -0.44705,0.36428 -0.89298,0.73617 -1.33739,1.11621 -0.44442,0.38003 -0.88735,0.76812 -1.32912,1.16376 -0.44178,0.39563 -0.88221,0.79917 -1.32136,1.21026 -0.43915,0.4111 -0.8771,0.82984 -1.31362,1.25625 -0.43652,0.4264 -0.87145,0.86016 -1.30535,1.30173 -0.4339,0.44156 -0.86684,0.89063 -1.29811,1.34721 -0.43128,0.45657 -0.86118,0.92072 -1.28984,1.39216 -0.42866,0.47144 -0.85604,0.95044 -1.28209,1.4366 -0.42605,0.48615 -0.8504,0.97981 -1.27383,1.48053 -0.42344,0.50072 -0.84576,1.00828 -1.26659,1.52342 -0.42083,0.51514 -0.84061,1.03742 -1.25884,1.56683 0.43544,-0.39048 0.87513,-0.76969 1.31724,-1.13791 0.44212,-0.36821 0.88707,-0.72514 1.33377,-1.07177 0.4467,-0.34662 0.89492,-0.6825 1.3441,-1.00821 0.44919,-0.32571 0.89917,-0.64124 1.34875,-0.94671 0.44959,-0.30546 0.8988,-0.60087 1.34669,-0.88677 0.44789,-0.2859 0.89432,-0.56239 1.33842,-0.8294 0.4441,-0.267 0.88573,-0.52481 1.32395,-0.7736 0.43821,-0.24878 0.87304,-0.48861 1.30328,-0.71985 0.43024,-0.23123 0.85624,-0.45381 1.27641,-0.66818 0.42018,-0.21436 0.83482,-0.42041 1.24282,-0.61857 0.40801,-0.19816 0.80928,-0.38838 1.20303,-0.57102 0.39374,-0.18263 0.77963,-0.35776 1.15703,-0.52555 0.75479,-0.33556 1.47498,-0.64223 2.15181,-0.92242 0.67684,-0.28019 1.31027,-0.53409 1.89239,-0.7643 0.23982,-0.0951 0.50254,-0.18922 0.78651,-0.28267 0.28396,-0.0935 0.5894,-0.18576 0.91519,-0.2775 0.32579,-0.0917 0.67186,-0.18296 1.03715,-0.27285 0.3653,-0.0899 0.7499,-0.17875 1.15238,-0.26665 0.40248,-0.0879 0.82304,-0.17466 1.26039,-0.26045 0.43734,-0.0858 0.89128,-0.17071 1.36116,-0.25425 0.37848,-0.0673 0.77427,-0.13321 1.17254,-0.19896 0.16379,-0.0354 0.32151,-0.0711 0.48834,-0.10645 0.44222,-0.0938 0.89503,-0.18701 1.35754,-0.28008 0.46251,-0.0931 0.93466,-0.18595 1.41593,-0.27802 0.48127,-0.0921 0.9717,-0.18362 1.4702,-0.27441 0.49849,-0.0908 1.00509,-0.18054 1.51929,-0.26975 0.51419,-0.0892 1.03589,-0.17776 1.56424,-0.2651 0.52836,-0.0873 1.06356,-0.17372 1.60455,-0.2589 0.54099,-0.0852 1.0876,-0.16893 1.6397,-0.25166 0.55209,-0.0827 1.10955,-0.16443 1.67121,-0.24443 0.56167,-0.08 1.12786,-0.15867 1.69757,-0.23564 0.56971,-0.077 1.14306,-0.15216 1.71928,-0.22583 0.57622,-0.0737 1.15512,-0.14542 1.73633,-0.21549 0.5812,-0.0701 1.16459,-0.13846 1.74924,-0.20464 0.58466,-0.0662 1.17043,-0.13023 1.757,-0.19224 0.58658,-0.062 1.17417,-0.12178 1.76114,-0.17931 0.58696,-0.0575 1.17375,-0.1131 1.75958,-0.16588 0.58582,-0.0528 1.17023,-0.10316 1.75338,-0.1509 0.58315,-0.0477 1.16461,-0.0925 1.74356,-0.13488 0.57895,-0.0424 1.15536,-0.0821 1.72858,-0.11885 0.57322,-0.0368 1.1435,-0.0709 1.70946,-0.1018 0.56595,-0.0309 1.128,-0.0585 1.68516,-0.0832 0.55716,-0.0247 1.1094,-0.0464 1.65623,-0.0646 0.54684,-0.0182 1.08818,-0.033 1.62316,-0.0444 0.53498,-0.0114 1.06332,-0.0194 1.58492,-0.0238 0.52159,-0.004 1.03638,-0.005 1.54305,-0.002 0.54046,0.003 1.07196,0.0108 1.59371,0.0227 0.52174,0.0119 1.03373,0.0281 1.53479,0.0491 l -4.36976,-2.651 c -1.00191,-0.43709 -1.96649,-0.86432 -2.9037,-1.27744 -0.93721,-0.41312 -1.84695,-0.81173 -2.73834,-1.19218 -0.4457,-0.19022 -0.88668,-0.37613 -1.32446,-0.55655 -0.43778,-0.18042 -0.87209,-0.3555 -1.30432,-0.52503 -0.43223,-0.16954 -0.86235,-0.33337 -1.29139,-0.49093 -0.42903,-0.15756 -0.85699,-0.30871 -1.28519,-0.4532 -0.4282,-0.1445 -0.85651,-0.28255 -1.28623,-0.4129 -0.42973,-0.13034 -0.86088,-0.25335 -1.29449,-0.36845 -0.43361,-0.1151 -0.86963,-0.22213 -1.30948,-0.32091 -0.43986,-0.0988 -0.88375,-0.18891 -1.33222,-0.27027 -0.44846,-0.0814 -0.90172,-0.15418 -1.36116,-0.21704 -0.45943,-0.0629 -0.92509,-0.11589 -1.39785,-0.15916 -0.47276,-0.0433 -0.9528,-0.0766 -1.44125,-0.0992 -0.48845,-0.0226 -0.9854,-0.0343 -1.4919,-0.0351 z"
       sodipodi:nodetypes="scsssssssssssssssssssssssssssssscssssssssssssscsssssscssssssssssssssssssssssssssccssssssssssssss" /><path
       id="path1414"
       style="display:inline;fill:#107893;fill-opacity:0.501961;fill-rule:nonzero;stroke:#24d2f6;stroke-width:2;stroke-linecap:round;stroke-linejoin:round;stroke-miterlimit:9.53846;stroke-dasharray:none;stroke-opacity:1;paint-order:normal"
       d="m 1128.169,218.67981 c -0.2532,4.2e-4 -0.5038,0.003 -0.7524,0.009 -0.2486,0.006 -0.4952,0.0145 -0.7395,0.0258 -0.2442,0.0113 -0.4859,0.0253 -0.726,0.0419 -0.2402,0.0165 -0.4783,0.0357 -0.7147,0.0574 -0.2364,0.0216 -0.4714,0.0456 -0.7043,0.0724 -0.2329,0.0266 -0.4644,0.0554 -0.6941,0.0868 -0.2297,0.0314 -0.4574,0.0657 -0.6842,0.1018 -0.2268,0.0361 -0.4522,0.0746 -0.6764,0.11524 -0.2243,0.0407 -0.4473,0.0836 -0.6692,0.12868 -0.222,0.0451 -0.4431,0.0922 -0.663,0.14159 -0.22,0.0494 -0.439,0.10098 -0.6573,0.15451 -0.2182,0.0535 -0.4354,0.10885 -0.6522,0.1664 -0.2168,0.0576 -0.4334,0.11737 -0.6491,0.1788 -0.2157,0.0614 -0.4306,0.12447 -0.6454,0.18965 -0.2149,0.0652 -0.4291,0.13225 -0.6434,0.20103 -0.2143,0.0688 -0.4292,0.13962 -0.6433,0.21187 -0.4281,0.14449 -0.8557,0.29564 -1.2847,0.4532 -0.4291,0.15756 -0.8592,0.32139 -1.2914,0.49093 -0.4323,0.16953 -0.867,0.34461 -1.3048,0.52503 -0.4377,0.18042 -0.8783,0.36633 -1.324,0.55655 -0.4457,0.19022 -0.8964,0.38502 -1.3524,0.58395 -0.4559,0.19893 -0.9177,0.40167 -1.3864,0.60823 -0.9372,0.41312 -1.9017,0.84035 -2.9037,1.27744 l -4.3641,2.4722 c 0.501,-0.0209 1.013,-0.0376 1.5348,-0.0496 0.5217,-0.012 1.0532,-0.0192 1.5937,-0.0222 0.5067,-0.003 1.0209,-0.002 1.5425,0.002 0.5216,0.004 1.0505,0.0123 1.5855,0.0238 0.5349,0.0114 1.0763,0.0262 1.6231,0.0444 0.5468,0.0182 1.0991,0.0399 1.6562,0.0646 0.5572,0.0247 1.1193,0.0523 1.6852,0.0832 0.566,0.0309 1.1362,0.065 1.7095,0.1018 0.5732,0.0368 1.1496,0.0764 1.7285,0.11885 0.579,0.0424 1.1605,0.0871 1.7436,0.13488 0.5832,0.0477 1.1681,0.0981 1.7539,0.1509 0.5858,0.0528 1.1721,0.10834 1.7591,0.16588 0.5869,0.0575 1.1745,0.11731 1.7611,0.17931 0.5866,0.062 1.1723,0.12606 1.757,0.19224 0.5847,0.0662 1.168,0.13457 1.7492,0.20464 0.5813,0.0701 1.1602,0.14182 1.7364,0.21549 0.5762,0.0737 1.1495,0.14885 1.7193,0.22583 0.5697,0.077 1.1359,0.15564 1.6975,0.23564 0.5617,0.08 1.1191,0.1617 1.6712,0.24443 0.5521,0.0827 1.0987,0.16648 1.6397,0.25166 0.541,0.0852 1.0762,0.17157 1.6046,0.2589 0.5283,0.0873 1.05,0.1759 1.5642,0.2651 0.5142,0.0892 1.0208,0.17897 1.5193,0.26975 0.4985,0.0908 0.9889,0.18233 1.4702,0.27441 0.4813,0.0921 0.9534,0.18494 1.4159,0.27802 0.4626,0.0931 0.9154,0.18629 1.3576,0.28008 0.4422,0.0938 0.8741,0.18794 1.2945,0.28215 0.4204,0.0942 0.8292,0.18884 1.2263,0.28319 0.397,0.0943 0.7822,0.18847 1.1544,0.28267 0.1664,0.0421 0.3205,0.0841 0.4816,0.12609 0.039,0.008 0.082,0.0164 0.1199,0.0248 0.4025,0.0879 0.7871,0.17676 1.1524,0.26665 0.3653,0.0899 0.7109,0.18111 1.0366,0.27285 0.1629,0.0459 0.3213,0.0917 0.4739,0.13797 0.1526,0.0463 0.2999,0.0928 0.4418,0.13953 0.142,0.0467 0.2787,0.0939 0.4098,0.14108 0.1311,0.0471 0.2563,0.0941 0.3762,0.14159 0.5806,0.22958 1.2124,0.48284 1.8873,0.76171 0.3374,0.13943 0.6859,0.28544 1.0438,0.43822 0.3579,0.15278 0.7255,0.31223 1.1018,0.47904 0.3762,0.16681 0.7608,0.34092 1.1534,0.52245 0.3925,0.18152 0.7931,0.37049 1.1999,0.5674 0.4068,0.19692 0.8203,0.40144 1.2392,0.61444 0.4189,0.21299 0.8433,0.43429 1.2723,0.66404 0.429,0.22975 0.8628,0.46801 1.2997,0.7152 0.437,0.24719 0.8769,0.50311 1.3198,0.76843 0.2214,0.13266 0.4435,0.26782 0.6661,0.40514 0.2225,0.13732 0.4458,0.27703 0.6692,0.4191 0.2233,0.14206 0.4469,0.28667 0.6708,0.43356 0.2239,0.1469 0.4475,0.29623 0.6717,0.44804 0.2243,0.1518 0.4491,0.30569 0.6734,0.4625 0.2242,0.15681 0.4482,0.31664 0.6723,0.47853 0.224,0.1619 0.4477,0.32592 0.6713,0.49299 0.2235,0.16706 0.4469,0.33669 0.6697,0.50901 0.2228,0.17232 0.4453,0.34738 0.6671,0.52504 0.2219,0.17767 0.443,0.35795 0.6636,0.54105 0.2205,0.18309 0.4408,0.36899 0.6599,0.55759 0.2179,0.18766 0.4349,0.37782 0.6511,0.57102 v -0.001 c -0.4165,-0.52651 -0.834,-1.04569 -1.2532,-1.55805 -0.4204,-0.51386 -0.842,-1.02084 -1.265,-1.52032 -0.423,-0.49948 -0.8477,-0.99144 -1.2733,-1.47639 -0.4256,-0.48494 -0.8529,-0.96273 -1.2811,-1.43299 -0.4282,-0.47027 -0.8574,-0.93311 -1.2882,-1.38855 -0.4308,-0.45544 -0.8627,-0.90364 -1.2961,-1.3441 -0.4334,-0.44047 -0.8678,-0.87329 -1.3038,-1.29863 -0.4361,-0.42534 -0.8734,-0.84308 -1.3121,-1.25315 -0.4386,-0.41007 -0.8785,-0.81251 -1.3198,-1.20716 -0.4413,-0.39465 -0.8842,-0.78158 -1.3281,-1.16066 -0.4439,-0.37908 -0.8888,-0.75025 -1.3353,-1.11362 -0.2233,-0.18168 -0.4473,-0.36127 -0.6713,-0.53899 -0.2239,-0.17773 -0.4477,-0.35335 -0.6723,-0.5271 -0.2246,-0.17375 -0.4496,-0.34545 -0.6749,-0.51521 -0.2252,-0.16976 -0.4505,-0.33758 -0.6764,-0.50333 -0.2259,-0.16574 -0.4529,-0.32972 -0.6795,-0.49144 -0.2265,-0.16171 -0.4529,-0.32137 -0.6801,-0.47904 -0.2273,-0.15767 -0.4548,-0.31304 -0.6827,-0.46664 -0.2279,-0.1536 -0.4562,-0.30525 -0.6847,-0.45476 -0.2285,-0.14951 -0.4575,-0.29694 -0.6867,-0.44235 -0.2292,-0.14541 -0.4585,-0.28918 -0.6884,-0.43046 -0.2299,-0.14129 -0.4599,-0.2804 -0.6904,-0.41755 -0.2305,-0.13715 -0.4618,-0.27216 -0.693,-0.40514 -0.2312,-0.13299 -0.4627,-0.26394 -0.6945,-0.39274 -0.2319,-0.12881 -0.4641,-0.25521 -0.6966,-0.37982 -0.2325,-0.12461 -0.4654,-0.24755 -0.6986,-0.36794 -0.2331,-0.1204 -0.4665,-0.23834 -0.7003,-0.3545 -0.2338,-0.11616 -0.4677,-0.23019 -0.7022,-0.3421 -0.2345,-0.11191 -0.4698,-0.22205 -0.7049,-0.32969 -0.2352,-0.10763 -0.471,-0.21291 -0.7069,-0.31626 -0.2358,-0.10334 -0.4715,-0.2043 -0.708,-0.30334 -0.2365,-0.099 -0.4734,-0.19623 -0.7106,-0.29094 -0.2372,-0.0947 -0.4748,-0.18713 -0.7126,-0.2775 -0.2379,-0.0904 -0.4757,-0.17858 -0.7142,-0.26459 -0.2385,-0.086 -0.4776,-0.17004 -0.7167,-0.25166 -0.2392,-0.0816 -0.4785,-0.16101 -0.7183,-0.23823 -0.2399,-0.0772 -0.4804,-0.15198 -0.7209,-0.22479 -0.2405,-0.0728 -0.4817,-0.14351 -0.7229,-0.21188 -0.2411,-0.0684 -0.4826,-0.13451 -0.7245,-0.19843 -0.2418,-0.0639 -0.4836,-0.12556 -0.7261,-0.185 -0.2425,-0.0594 -0.4854,-0.11663 -0.7286,-0.17157 -0.2431,-0.055 -0.4868,-0.1077 -0.7307,-0.15813 -0.2438,-0.0504 -0.4878,-0.0988 -0.7323,-0.14469 -0.2446,-0.0459 -0.4896,-0.0894 -0.7348,-0.13075 -0.2452,-0.0414 -0.491,-0.0805 -0.7369,-0.1173 -0.2458,-0.0368 -0.4915,-0.0712 -0.738,-0.10335 -0.2466,-0.0322 -0.4933,-0.0623 -0.7405,-0.0899 -0.2473,-0.0276 -0.4947,-0.053 -0.7426,-0.076 -0.2479,-0.023 -0.4961,-0.0437 -0.7447,-0.062 -0.2485,-0.0183 -0.4975,-0.0339 -0.7467,-0.0475 -0.2492,-0.0137 -0.4989,-0.0251 -0.7488,-0.0341 -0.2499,-0.009 -0.5007,-0.0159 -0.7513,-0.0202 -0.2505,-0.004 -0.5012,-0.006 -0.7525,-0.006 z"
       sodipodi:nodetypes="cssssssssssssssssssssssccssssssssssssssssssssssssssssscsssssscssssssssssssssssssssccssssssssssssssssssssssssssssssssssssssssssssssssssscc" /><path
       id="path1411-7-2"
       style="display:inline;fill:#107893;fill-opacity:0.501961;fill-rule:nonzero;stroke:#24d2f6;stroke-width:2;stroke-linecap:round;stroke-linejoin:round;stroke-miterlimit:9.53846;stroke-dasharray:none;stroke-opacity:1;paint-order:normal"
       inkscape:label="ZR"
       d="m 364.32251,72.044321 c 0.50317,-8.2e-4 1.00486,0.008 1.50533,0.0258 0.50047,0.0181 0.9993,0.0454 1.49707,0.0822 0.49777,0.0368 0.99424,0.0826 1.48931,0.13798 0.49507,0.0554 0.98919,0.12001 1.48157,0.19378 0.49237,0.0738 0.9831,0.15704 1.47278,0.24908 0.48969,0.0921 0.97803,0.19317 1.46502,0.30334 0.48699,0.11017 0.97246,0.22945 1.45676,0.3576 0.48431,0.12815 0.96738,0.26485 1.44901,0.41083 0.48162,0.14598 0.96179,0.30091 1.44074,0.46457 0.47894,0.16367 0.95673,0.33608 1.43298,0.51728 0.47627,0.1812 0.95113,0.37142 1.42472,0.57 0.4736,0.19859 0.94657,0.40584 1.41749,0.62166 0.47093,0.21582 0.94044,0.439924 1.4087,0.672834 0.46825,0.232913 0.93483,0.474663 1.40043,0.724513 0.46559,0.24985 0.92974,0.50799 1.39268,0.77463 0.46293,0.26665 0.92465,0.54147 1.38493,0.82476 0.46028,0.28329 0.91903,0.5751 1.37666,0.87488 0.45762,0.29978 0.91393,0.60784 1.36891,0.92397 0.45497,0.31613 0.90882,0.64022 1.36115,0.97255 0.45233,0.33233 0.9032,0.67275 1.35289,1.02113 0.44969,0.34838 0.89809,0.7049 1.34514,1.06919 0.44705,0.36427 0.89298,0.73617 1.33739,1.11621 0.44442,0.38003 0.88734,0.76811 1.32911,1.16375 0.44178,0.39563 0.88222,0.79917 1.32137,1.21026 0.43915,0.4111 0.8771,0.82985 1.31362,1.25626 0.43651,0.4264 0.87144,0.860162 1.30534,1.301712 0.4339,0.44156 0.86684,0.89063 1.29811,1.34721 0.43128,0.45657 0.86119,0.92072 1.28985,1.39216 0.42866,0.47144 0.85604,0.95045 1.28209,1.43661 0.42605,0.48615 0.85039,0.97981 1.27382,1.48053 0.42344,0.50072 0.84576,1.00828 1.26659,1.52342 0.42083,0.51514 0.84113,1.03742 1.25936,1.56683 -0.43544,-0.39048 -0.87564,-0.7697 -1.31775,-1.13792 -0.44212,-0.36821 -0.88707,-0.72514 -1.33377,-1.07177 -0.4467,-0.34662 -0.89492,-0.68249 -1.3441,-1.0082 -0.44919,-0.32571 -0.89866,-0.64125 -1.34824,-0.94672 -0.44959,-0.30546 -0.89932,-0.60086 -1.34721,-0.88676 -0.44789,-0.2859 -0.89432,-0.5624 -1.33842,-0.82941 -0.4441,-0.267 -0.88573,-0.52481 -1.32395,-0.7736 -0.43821,-0.24878 -0.87304,-0.48861 -1.30328,-0.71985 -0.43024,-0.23123 -0.85623,-0.45381 -1.2764,-0.66818 -0.42018,-0.21436 -0.83482,-0.4204 -1.24282,-0.61856 -0.40801,-0.19816 -0.80928,-0.38838 -1.20303,-0.57102 -0.39374,-0.18263 -0.77964,-0.357762 -1.15703,-0.525552 -0.75479,-0.33556 -1.47498,-0.64223 -2.15181,-0.92242 -0.67684,-0.28019 -1.31027,-0.53409 -1.89239,-0.76429 -0.23982,-0.0951 -0.50255,-0.18923 -0.78652,-0.28267 -0.28396,-0.0935 -0.5894,-0.18577 -0.91519,-0.27751 -0.32579,-0.0917 -0.67185,-0.18296 -1.03714,-0.27285 -0.3653,-0.0899 -0.74991,-0.17875 -1.15239,-0.26665 -0.40248,-0.0879 -0.82304,-0.17466 -1.26039,-0.26045 -0.43734,-0.0858 -0.89127,-0.17071 -1.36115,-0.25425 -0.37848,-0.0673 -0.77427,-0.1332 -1.17254,-0.19895 -0.16379,-0.0354 -0.32151,-0.0711 -0.48834,-0.10645 -0.44222,-0.0938 -0.89503,-0.18702 -1.35754,-0.28009 -0.46251,-0.0931 -0.93467,-0.18595 -1.41594,-0.27802 -0.48127,-0.0921 -0.97169,-0.18361 -1.47019,-0.2744 -0.49849,-0.0908 -1.00509,-0.18054 -1.51929,-0.26975 -0.51419,-0.0892 -1.0359,-0.17776 -1.56424,-0.2651 -0.52836,-0.0873 -1.06357,-0.17372 -1.60456,-0.2589 -0.54099,-0.0852 -1.08759,-0.16894 -1.63969,-0.25167 -0.55209,-0.0827 -1.10956,-0.16443 -1.67122,-0.24443 -0.56167,-0.08 -1.12786,-0.15867 -1.69757,-0.23564 -0.56971,-0.077 -1.14305,-0.15216 -1.71927,-0.22583 -0.57622,-0.0737 -1.15512,-0.14542 -1.73633,-0.21549 -0.5812,-0.0701 -1.1646,-0.13846 -1.74925,-0.20464 -0.58466,-0.0662 -1.17043,-0.13022 -1.757,-0.19223 -0.58658,-0.062 -1.17416,-0.12179 -1.76113,-0.17932 -0.58696,-0.0575 -1.17375,-0.1131 -1.75958,-0.16588 -0.58582,-0.0528 -1.17023,-0.10316 -1.75338,-0.1509 -0.58315,-0.0477 -1.16462,-0.0925 -1.74357,-0.13487 -0.57895,-0.0424 -1.15535,-0.0821 -1.72857,-0.11886 -0.57322,-0.0368 -1.1435,-0.0709 -1.70946,-0.1018 -0.56595,-0.0309 -1.12801,-0.0585 -1.68517,-0.0832 -0.55716,-0.0247 -1.1094,-0.0464 -1.65623,-0.0646 -0.54684,-0.0182 -1.08817,-0.0331 -1.62315,-0.0444 -0.53498,-0.0114 -1.06332,-0.0194 -1.58492,-0.0238 -0.52159,-0.004 -1.03587,-0.005 -1.54254,-0.002 -0.54046,0.003 -1.07247,0.0108 -1.59422,0.0227 -0.52174,0.0119 -1.03373,0.0281 -1.53479,0.0491 l 4.36976,-2.651 c 1.00191,-0.43709 1.96649,-0.86433 2.9037,-1.27745 0.93721,-0.413133 1.84694,-0.811737 2.73833,-1.192187 0.4457,-0.19022 0.88669,-0.37613 1.32447,-0.55655 0.43778,-0.18042 0.87208,-0.35551 1.30431,-0.52504 0.43223,-0.16954 0.86236,-0.33336 1.2914,-0.49092 0.42903,-0.15756 0.85699,-0.30872 1.28519,-0.4532 0.4282,-0.1445 0.85651,-0.28255 1.28623,-0.4129 0.42973,-0.13034 0.86088,-0.25335 1.29449,-0.36845 0.43361,-0.1151 0.86963,-0.22213 1.30948,-0.32091 0.43986,-0.0988 0.88375,-0.18891 1.33222,-0.27027 0.44846,-0.0814 0.90172,-0.15418 1.36116,-0.21704 0.45943,-0.0629 0.92508,-0.1159 1.39784,-0.15917 0.47276,-0.0433 0.95281,-0.0766 1.44126,-0.0992 0.48845,-0.0226 0.9854,-0.0343 1.4919,-0.0351 z"
       inkscape:export-filename="..\Active Presses\NSwitchPro_ZR.png"
       inkscape:export-xdpi="134.694"
       inkscape:export-ydpi="134.694" /><path
       id="path1411-7"
       style="display:inline;fill:#107893;fill-opacity:0.501961;fill-rule:nonzero;stroke:#24d2f6;stroke-width:2;stroke-linecap:round;stroke-linejoin:round;stroke-miterlimit:9.53846;stroke-dasharray:none;stroke-opacity:1;paint-order:normal"
       inkscape:label="ZL"
       d="m 259.92282,71.391747 c -0.50317,-8.2e-4 -1.00486,0.008 -1.50533,0.02584 -0.50047,0.0181 -0.9993,0.04537 -1.49707,0.08217 -0.49777,0.0368 -0.99424,0.0826 -1.48931,0.137976 -0.49507,0.0554 -0.98919,0.120017 -1.48157,0.193787 -0.49237,0.0738 -0.9831,0.15704 -1.47278,0.24908 -0.48969,0.0921 -0.97803,0.193171 -1.46502,0.303341 -0.48699,0.11017 -0.97246,0.229451 -1.45676,0.357601 -0.48431,0.12815 -0.96738,0.264848 -1.44901,0.410827 -0.48162,0.14598 -0.96179,0.300912 -1.44074,0.464572 -0.47894,0.163669 -0.95673,0.336081 -1.43298,0.517281 -0.47627,0.181199 -0.95113,0.371411 -1.42472,0.569991 -0.4736,0.19859 -0.94657,0.405847 -1.41749,0.621667 -0.47093,0.21582 -0.94044,0.439918 -1.4087,0.672827 -0.46825,0.232907 -0.93483,0.474657 -1.40043,0.724507 -0.46559,0.24985 -0.92974,0.50799 -1.39268,0.77463 -0.46293,0.26665 -0.92465,0.54147 -1.38493,0.82476 -0.46028,0.28329 -0.91903,0.5751 -1.37666,0.87488 -0.45762,0.29978 -0.91393,0.60784 -1.36891,0.92397 -0.45497,0.31613 -0.90882,0.64022 -1.36115,0.97255 -0.45233,0.33233 -0.9032,0.67275 -1.35289,1.02113 -0.44969,0.34838 -0.89809,0.7049 -1.34514,1.06919 -0.44705,0.36427 -0.89298,0.73617 -1.33739,1.11621 -0.44442,0.38003 -0.88734,0.76811 -1.32911,1.16375 -0.44178,0.39563 -0.88222,0.79917 -1.32137,1.21026 -0.43915,0.4111 -0.8771,0.82985 -1.31362,1.25626 -0.43651,0.426398 -0.87144,0.860158 -1.30534,1.301718 -0.4339,0.44156 -0.86684,0.89063 -1.29811,1.34721 -0.43128,0.45657 -0.86119,0.92072 -1.28985,1.39216 -0.42866,0.47144 -0.85604,0.95045 -1.28209,1.43661 -0.42605,0.48615 -0.85039,0.97981 -1.27382,1.48053 -0.42344,0.50072 -0.84576,1.00828 -1.26659,1.52342 -0.42083,0.51514 -0.84113,1.03742 -1.25936,1.566831 0.43544,-0.390481 0.87564,-0.769701 1.31775,-1.137921 0.44212,-0.36821 0.88707,-0.72514 1.33377,-1.07177 0.4467,-0.34662 0.89492,-0.68249 1.3441,-1.0082 0.44919,-0.32571 0.89866,-0.64125 1.34824,-0.94672 0.44959,-0.30546 0.89932,-0.60086 1.34721,-0.88676 0.44789,-0.2859 0.89432,-0.5624 1.33842,-0.82941 0.4441,-0.267 0.88573,-0.52481 1.32395,-0.7736 0.43821,-0.24878 0.87304,-0.48861 1.30328,-0.71985 0.43024,-0.23123 0.85623,-0.45381 1.2764,-0.66818 0.42018,-0.21436 0.83482,-0.4204 1.24282,-0.61856 0.40801,-0.19816 0.80928,-0.38839 1.20303,-0.57103 0.39374,-0.18263 0.77964,-0.35776 1.15703,-0.52555 0.75479,-0.335558 1.47498,-0.642228 2.15181,-0.922418 0.67684,-0.28019 1.31027,-0.53409 1.89239,-0.76429 0.23982,-0.0951 0.50255,-0.18923 0.78652,-0.28267 0.28396,-0.0935 0.5894,-0.18577 0.91519,-0.27751 0.32579,-0.0917 0.67185,-0.18296 1.03714,-0.27285 0.3653,-0.0899 0.74991,-0.17875 1.15239,-0.26665 0.40248,-0.0879 0.82304,-0.17466 1.26039,-0.26045 0.43734,-0.0858 0.89127,-0.17071 1.36115,-0.25425 0.37848,-0.0673 0.77427,-0.1332 1.17254,-0.19895 0.16379,-0.0354 0.32151,-0.0711 0.48834,-0.10645 0.44222,-0.0938 0.89503,-0.18702 1.35754,-0.28009 0.46251,-0.0931 0.93467,-0.18595 1.41594,-0.27802 0.48127,-0.0921 0.97169,-0.18361 1.47019,-0.2744 0.49849,-0.0908 1.00509,-0.18054 1.51929,-0.26975 0.51419,-0.0892 1.0359,-0.17776 1.56424,-0.2651 0.52836,-0.0873 1.06357,-0.17372 1.60456,-0.2589 0.54099,-0.0852 1.08759,-0.16894 1.63969,-0.25167 0.55209,-0.0827 1.10956,-0.16443 1.67122,-0.24443 0.56167,-0.08 1.12786,-0.15867 1.69757,-0.23564 0.56971,-0.077 1.14305,-0.15216 1.71927,-0.22583 0.57622,-0.0737 1.15512,-0.14542 1.73633,-0.21549 0.5812,-0.0701 1.1646,-0.13846 1.74925,-0.20464 0.58466,-0.0662 1.17043,-0.13022 1.757,-0.19223 0.58658,-0.062 1.17416,-0.12179 1.76113,-0.17932 0.58696,-0.0575 1.17375,-0.1131 1.75958,-0.16588 0.58582,-0.0528 1.17023,-0.10316 1.75338,-0.1509 0.58315,-0.0477 1.16462,-0.0925 1.74357,-0.13487 0.57895,-0.0424 1.15535,-0.0821 1.72857,-0.11886 0.57322,-0.0368 1.1435,-0.0709 1.70946,-0.1018 0.56595,-0.0309 1.12801,-0.0585 1.68517,-0.0832 0.55716,-0.0247 1.1094,-0.0464 1.65623,-0.0646 0.54684,-0.0182 1.08817,-0.0331 1.62315,-0.0444 0.53498,-0.0114 1.06332,-0.0194 1.58492,-0.0238 0.52159,-0.004 1.03587,-0.005 1.54254,-0.002 0.54046,0.003 1.07247,0.0108 1.59422,0.0227 0.52174,0.0119 1.03373,0.0281 1.53479,0.0491 l -4.36976,-2.651 c -1.00191,-0.43709 -1.96649,-0.86433 -2.9037,-1.27745 -0.93721,-0.413124 -1.84694,-0.811726 -2.73833,-1.192175 -0.4457,-0.19022 -0.88669,-0.376136 -1.32447,-0.556555 -0.43778,-0.18042 -0.87208,-0.355503 -1.30431,-0.525033 -0.43223,-0.16954 -0.86236,-0.333366 -1.2914,-0.490926 -0.42903,-0.15756 -0.85699,-0.308713 -1.28519,-0.453202 -0.4282,-0.1445 -0.85651,-0.282545 -1.28623,-0.412895 -0.42973,-0.13034 -0.86088,-0.253353 -1.29449,-0.368453 -0.43361,-0.1151 -0.86963,-0.222131 -1.30948,-0.320911 -0.43986,-0.0988 -0.88375,-0.188908 -1.33222,-0.270267 -0.44846,-0.0814 -0.90172,-0.154182 -1.36116,-0.217041 -0.45943,-0.0629 -0.92508,-0.115894 -1.39784,-0.159164 -0.47276,-0.0433 -0.95281,-0.07662 -1.44126,-0.09922 -0.48845,-0.0226 -0.9854,-0.03434 -1.4919,-0.03514 z"
       inkscape:export-filename="..\Active Presses\NSwitchPro_ZL.png"
       inkscape:export-xdpi="134.694"
       inkscape:export-ydpi="134.694" /></g></svg>
