<?xml version="1.0" encoding="UTF-8" standalone="no"?>
<!-- Created with Inkscape (http://www.inkscape.org/) -->

<svg
   width="561.77563mm"
   height="88.240067mm"
   viewBox="0 0 561.77564 88.240067"
   version="1.1"
   id="svg18602"
   inkscape:version="1.2 (dc2aedaf03, 2022-05-15)"
   sodipodi:docname="joycon shadows.svg"
   xmlns:inkscape="http://www.inkscape.org/namespaces/inkscape"
   xmlns:sodipodi="http://sodipodi.sourceforge.net/DTD/sodipodi-0.dtd"
   xmlns:xlink="http://www.w3.org/1999/xlink"
   xmlns="http://www.w3.org/2000/svg"
   xmlns:svg="http://www.w3.org/2000/svg">
  <sodipodi:namedview
     id="namedview18604"
     pagecolor="#ffffff"
     bordercolor="#666666"
     borderopacity="1.0"
     inkscape:showpageshadow="2"
     inkscape:pageopacity="0.0"
     inkscape:pagecheckerboard="0"
     inkscape:deskcolor="#d1d1d1"
     inkscape:document-units="mm"
     showgrid="false"
     inkscape:zoom="0.64693624"
     inkscape:cx="1242.7809"
     inkscape:cy="140.66301"
     inkscape:window-width="2560"
     inkscape:window-height="1334"
     inkscape:window-x="-11"
     inkscape:window-y="-11"
     inkscape:window-maximized="1"
     inkscape:current-layer="layer1" />
  <defs
     id="defs18599">
    <linearGradient
       inkscape:collect="always"
       id="linearGradient19252">
      <stop
         style="stop-color:#000000;stop-opacity:1;"
         offset="0"
         id="stop19248" />
      <stop
         style="stop-color:#000000;stop-opacity:0;"
         offset="1"
         id="stop19250" />
    </linearGradient>
    <filter
       style="color-interpolation-filters:sRGB"
       inkscape:label="Drop Shadow"
       id="filter2039-8-2-8"
       x="0"
       width="1"
       y="0"
       height="1">
      <feFlood
         flood-opacity="0.501961"
         flood-color="rgb(0,0,0)"
         result="flood"
         id="feFlood2029-8-2-3" />
      <feComposite
         in="flood"
         in2="SourceGraphic"
         operator="in"
         result="composite1"
         id="feComposite2031-1-21-4" />
      <feOffset
         dx="0"
         dy="0"
         result="offset"
         id="feOffset2035-8-9-4" />
      <feComposite
         in="SourceGraphic"
         in2="offset"
         operator="over"
         result="composite2"
         id="feComposite2037-0-6-9" />
    </filter>
    <filter
       style="color-interpolation-filters:sRGB"
       inkscape:label="Drop Shadow"
       id="filter2039-8-2"
       x="0"
       width="1"
       y="0"
       height="1">
      <feFlood
         flood-opacity="0.501961"
         flood-color="rgb(0,0,0)"
         result="flood"
         id="feFlood2029-8-2" />
      <feComposite
         in="flood"
         in2="SourceGraphic"
         operator="in"
         result="composite1"
         id="feComposite2031-1-21" />
      <feOffset
         dx="0"
         dy="0"
         result="offset"
         id="feOffset2035-8-9" />
      <feComposite
         in="SourceGraphic"
         in2="offset"
         operator="over"
         result="composite2"
         id="feComposite2037-0-6" />
    </filter>
    <linearGradient
       inkscape:collect="always"
       xlink:href="#linearGradient19252"
       id="linearGradient19254"
       x1="364.64563"
       y1="172.92354"
       x2="364.64563"
       y2="83.864738"
       gradientUnits="userSpaceOnUse" />
    <linearGradient
       inkscape:collect="always"
       xlink:href="#linearGradient19252"
       id="linearGradient19256"
       x1="364.64563"
       y1="172.92354"
       x2="364.64563"
       y2="83.864738"
       gradientUnits="userSpaceOnUse" />
  </defs>
  <g
     inkscape:label="Layer 1"
     inkscape:groupmode="layer"
     id="layer1"
     transform="translate(-82.394406,-83.855702)">
    <path
       id="path19198"
       style="color:#000000;fill:url(#linearGradient19254);stroke-width:2.3;-inkscape-stroke:none;fill-opacity:1"
       d="m 600.09313,83.869137 c -4.40646,0.01431 -8.81329,0.04687 -12.17393,0.0956 -1.68032,0.02437 -3.09852,0.05431 -4.1305,0.0863 -0.51599,0.01599 -0.93388,0.03202 -1.25005,0.05064 -0.15808,0.0093 -0.2888,0.01894 -0.40618,0.03101 -0.11738,0.01207 -0.12243,-0.03218 -0.46095,0.0956 -0.5247,0.19807 -0.96093,0.562245 -1.39681,0.916223 -0.0418,-0.04586 -0.0682,-0.0977 -0.11318,-0.142627 -0.17424,-0.174081 -0.56292,-0.462547 -0.97668,-0.586011 -0.41377,-0.123465 -0.84906,-0.166845 -1.52135,-0.203088 -1.3446,-0.07249 -3.6577,-0.07596 -8.12096,-0.07596 -2.95114,0 -5.3241,0.02512 -7.01352,0.07235 -0.84472,0.02361 -1.51689,0.05348 -2.01952,0.0894 -0.25131,0.01796 -0.46026,0.03579 -0.64285,0.06098 -0.1826,0.02518 -0.24917,-0.03011 -0.65629,0.187585 -0.36131,0.193177 -0.60974,0.504916 -0.79272,0.847494 -0.41832,-0.306664 -0.85129,-0.638983 -1.20509,-0.824239 -0.39064,-0.204517 -0.42599,-0.141845 -0.56276,-0.160197 -0.13677,-0.01835 -0.28464,-0.03223 -0.46664,-0.04496 -0.364,-0.02547 -0.8575,-0.0465 -1.51153,-0.06615 -1.30804,-0.03929 -3.25315,-0.0701 -5.9552,-0.09405 -5.40409,-0.04789 -13.83593,-0.06821 -26.18393,-0.06821 h -33.90025 l -1.52342,0.966866 c -0.0297,0.01884 -0.0222,0.01138 -0.0507,0.02894 -0.0633,-0.07968 -0.10297,-0.167124 -0.17983,-0.243913 -0.31678,-0.316507 -0.73053,-0.457338 -1.13482,-0.5333 -0.40429,-0.07596 -0.88606,-0.114392 -1.60352,-0.144694 -1.4349,-0.0606 -3.80063,-0.0739 -7.90804,-0.0739 -5.24716,0 -7.78356,-0.03016 -9.32243,0.230477 -0.76944,0.130318 -1.49088,0.396945 -1.89446,1.048515 -0.10296,0.166233 -0.0333,0.26362 -0.0822,0.415995 -0.2899,-0.309219 -0.5432,-0.633688 -1.0449,-0.890385 -0.69763,-0.356942 -1.53483,-0.513983 -2.89233,-0.619083 -2.71499,-0.210201 -7.71179,-0.185519 -18.2733,-0.185519 h -19.72851 l -0.89452,1.134815 c -0.58201,0.739262 -0.7953,1.705418 -0.7953,2.98018 0,0.717319 0.006,1.238796 0.18965,1.795239 0.09,0.27281 0.29502,0.447597 0.45113,0.667659 -2.09518,0.01039 -3.47108,0.03152 -6.20117,0.03152 -8.54778,0 -12.86503,-3.19e-4 -15.18357,0.07028 -1.15928,0.0353 -1.81383,0.08104 -2.33577,0.185518 -0.52194,0.104477 -0.98845,0.384934 -1.18184,0.536919 l -1.13688,0.894519 v 15.881195 c 0,16.19735 0.13503,18.6735 1.25625,23.72414 0.88306,3.97782 1.94343,6.99044 3.88038,11.02775 2.65592,5.53585 5.68701,9.77228 10.06296,14.06426 4.48127,4.39529 8.1956,7.03477 13.625,9.67951 5.66183,2.75795 11.52403,4.39582 17.85731,4.99246 0.40506,0.0381 1.11134,0.0517 2.35903,0.0724 1.2477,0.0207 2.95499,0.0386 5.05861,0.0563 4.20723,0.0354 9.99993,0.0642 16.84961,0.0879 13.69936,0.0473 31.62821,0.072 49.55099,0.0724 17.92276,3.9e-4 35.83867,-0.0236 49.51377,-0.0703 6.83755,-0.0234 12.61353,-0.0526 16.80259,-0.0879 2.09453,-0.0176 3.79198,-0.0357 5.02915,-0.0563 1.23718,-0.0206 1.92303,-0.0318 2.33216,-0.0723 3.82515,-0.37857 7.90358,-1.21415 11.2851,-2.31873 0.64458,-0.21055 1.19769,-0.38806 1.67793,-0.54053 0.19499,0.43673 0.46336,0.80769 0.78703,1.11673 0.52347,0.49981 1.11021,0.96324 2.04484,0.96324 0.84669,0 1.44301,-0.30531 2.36161,-0.71313 0.91861,-0.40782 2.01056,-0.96668 3.17965,-1.61696 2.33821,-1.30055 4.9701,-2.96002 6.98046,-4.48241 1.04784,-0.79349 3.20113,-2.29287 4.701,-3.26957 12.30345,-8.01181 18.10019,-16.1131 20.40651,-28.63081 0.86249,-4.68132 0.89959,-13.12433 0.0134,-17.139 -0.7307,-3.31031 -1.52868,-5.46258 -2.75797,-7.09363 -0.42114,-0.55877 -1.05857,-1.57083 -1.29087,-2.0314 -0.24875,-0.49318 -0.53244,-0.94782 -0.97049,-1.30276 -0.43805,-0.35493 -0.92916,-0.54364 -1.49035,-0.71469 l -0.42168,-0.12867 v -4.594033 c 0,-1.941218 0.0377,-3.382804 -0.0801,-4.568197 -0.11781,-1.185391 -0.44836,-2.265583 -1.32034,-2.964676 -0.87198,-0.699094 -1.96301,-0.877157 -3.36723,-0.966866 -1.40421,-0.08971 -3.20251,-0.06253 -5.63118,-0.06253 h -5.74177 v -1.37511 c 0,-1.363031 -0.079,-2.40473 -0.32815,-3.271635 -0.24912,-0.866904 -0.7826,-1.668024 -1.61179,-1.985925 -0.35685,-0.136812 -0.35308,-0.08628 -0.47025,-0.09767 -0.11716,-0.01139 -0.24922,-0.0191 -0.40669,-0.02739 -0.31496,-0.01659 -0.73112,-0.03231 -1.24592,-0.04496 -1.02962,-0.02529 -2.44611,-0.04338 -4.12482,-0.05684 -3.35741,-0.02692 -7.76178,-0.03188 -12.16825,-0.01757 z" />
    <path
       id="path19192"
       style="color:#000000;fill:url(#linearGradient19256);stroke-width:2.3;fill-opacity:1"
       d="m 108.1327,83.855702 -1.11879,1.118794 c -0.39245,0.39207 -0.83018,0.911354 -0.98444,1.588017 -0.15426,0.676663 -0.13281,1.359626 -0.13281,2.650484 v 1.507919 l -5.8105,0.07028 c -2.356531,0.02902 -4.095835,0.01884 -5.461162,0.125057 -1.365326,0.10622 -2.449754,0.307774 -3.292822,1.040763 -0.843067,0.732989 -1.134253,1.813696 -1.242301,3.027205 -0.108048,1.213509 -0.06821,2.7055 -0.06821,4.720642 v 4.340307 c -0.733098,0.10116 -1.336518,0.40954 -1.865519,0.81597 -0.311904,0.23963 -0.594043,0.50693 -0.831991,0.82424 -0.237948,0.3173 -0.478524,0.68684 -0.478524,1.27175 0,-0.1145 0.0077,-0.14721 0.01395,-0.17466 -0.02536,0.0569 -0.08263,0.16509 -0.160197,0.29352 -0.156738,0.25953 -0.39669,0.59928 -0.652673,0.90847 -2.285337,2.76031 -3.356359,7.2452 -3.609082,13.60331 -0.500574,12.5932 3.359,23.82354 10.945068,31.49213 2.615162,2.64363 5.79378,5.14086 9.765813,7.6879 1.55838,0.9993 3.48217,2.32883 4.11138,2.82619 2.10095,1.66072 4.90309,3.47084 7.4197,4.8922 1.2583,0.71068 2.44187,1.32253 3.44372,1.76786 1.00183,0.44532 1.69087,0.77152 2.56625,0.77152 0.87123,0 1.59766,-0.39942 2.14664,-0.93379 0.3193,-0.31081 0.56048,-0.70011 0.73587,-1.13068 3.48868,1.28031 8.12051,2.40839 11.9786,2.83187 0.42851,0.047 1.08723,0.0544 2.33009,0.076 1.24284,0.0216 2.95559,0.0405 5.07255,0.0589 4.23395,0.0369 10.08721,0.0689 17.02119,0.0935 13.86794,0.0492 32.0583,0.0742 50.25016,0.0744 18.19186,2.5e-4 36.38482,-0.0256 50.25585,-0.0744 6.93551,-0.0244 12.78907,-0.0547 17.02532,-0.0915 2.11811,-0.0184 3.83198,-0.0374 5.07617,-0.0589 1.24419,-0.0215 1.90692,-0.0294 2.33423,-0.076 16.17687,-1.76306 30.31416,-10.8663 38.74595,-24.93957 3.45017,-5.75857 5.96536,-13.30054 6.74791,-20.20341 0.003,-0.025 0.003,-0.10177 0.006,-0.12868 0.0406,-0.4114 0.0644,-0.9957 0.0915,-1.97094 0.0288,-1.03902 0.055,-2.40429 0.0786,-4.00389 0.0471,-3.1992 0.08,-7.33518 0.0894,-11.63856 0.0165,-7.51275 0.0216,-11.418673 -0.0408,-13.572302 -0.0312,-1.076815 -0.0736,-1.712442 -0.16588,-2.214852 -0.0923,-0.502409 -0.33835,-0.971273 -0.51986,-1.195276 l -0.84956,-1.048515 -18.17357,-0.07441 c -2.7852,-0.01159 -4.24681,-0.0386 -6.39651,-0.05839 0.0506,-0.10934 0.19847,-0.172803 0.23048,-0.281637 0.1775,-0.603523 0.19604,-1.183023 0.23616,-1.89239 0.0494,-0.872511 0.0931,-1.405465 -0.0408,-1.999878 -0.1339,-0.594415 -0.52109,-1.076422 -0.86713,-1.422136 l -1.01389,-1.013375 h -19.4138 c -10.58771,0 -15.54582,-0.03301 -18.28157,0.205156 -1.36789,0.119085 -2.24362,0.308954 -2.96106,0.697115 -0.47465,0.256803 -0.74397,0.579733 -1.05472,0.888834 -0.13854,-0.333862 -0.30606,-0.658234 -0.57412,-0.926041 -0.17421,-0.174044 -0.56194,-0.462287 -0.97462,-0.586011 -0.41267,-0.123725 -0.8458,-0.166805 -1.5136,-0.203088 -1.33561,-0.07257 -3.6311,-0.07596 -8.05636,-0.07596 -4.95903,0 -7.52128,0.0014 -9.05888,0.206706 -0.76881,0.102688 -1.37062,0.225727 -1.89032,0.728638 -0.0577,0.05584 -0.0178,0.11774 -0.0646,0.177767 -0.37332,-0.275616 -0.72257,-0.593581 -1.15652,-0.757577 h -0.002 c -0.32913,-0.123911 -0.36331,-0.08961 -0.50436,-0.103869 -0.14158,-0.0143 -0.30516,-0.0262 -0.50746,-0.03721 -0.40461,-0.02203 -0.95781,-0.04054 -1.67587,-0.0584 -1.43613,-0.03572 -3.5282,-0.06476 -6.31641,-0.08785 -5.5764,-0.04618 -13.93441,-0.06821 -25.3416,-0.06821 -17.96638,0 -26.49103,-0.01879 -30.77745,0.152446 -2.14322,0.08562 -3.22293,0.192109 -4.05867,0.480074 -0.55473,0.191143 -0.75585,0.489655 -1.02939,0.767912 -0.0718,-0.141101 -0.004,-0.261292 -0.12713,-0.392741 -0.50304,-0.539568 -1.12868,-0.68433 -1.89807,-0.793233 -1.53882,-0.217806 -4.09713,-0.214458 -9.10746,-0.214458 -4.42525,0 -6.7192,0.0034 -8.0548,0.07596 -0.66781,0.03628 -1.10298,0.07936 -1.51567,0.203088 -0.41268,0.123728 -0.79833,0.411956 -0.97255,0.586011 -0.0491,0.04905 -0.0816,0.102597 -0.12713,0.152445 -0.0561,-0.03734 -0.0796,-0.04434 -0.13849,-0.08578 l -1.50792,-1.062984 -18.08003,-0.0739 z M 86.859581,106.78247 c 2.63e-4,-5.9e-4 0.0013,-0.003 0.0015,-0.003 0.01489,-0.0337 0.0077,-0.0377 -0.0015,0.003 z" />
  </g>
</svg>
