<?xml version="1.0" encoding="UTF-8" standalone="no"?>
<!-- Created with Inkscape (http://www.inkscape.org/) -->

<svg
   width="342.23273mm"
   height="248.12935mm"
   viewBox="0 0 342.23273 248.12935"
   version="1.1"
   id="svg504"
   xml:space="preserve"
   inkscape:version="1.2 (dc2aedaf03, 2022-05-15)"
   sodipodi:docname="Switch Joycon Grip Gyro-Acell Icon.svg"
   inkscape:export-filename="..\switchjoycongrip_gyro-accel.png"
   inkscape:export-xdpi="95.8863"
   inkscape:export-ydpi="95.8863"
   xmlns:inkscape="http://www.inkscape.org/namespaces/inkscape"
   xmlns:sodipodi="http://sodipodi.sourceforge.net/DTD/sodipodi-0.dtd"
   xmlns="http://www.w3.org/2000/svg"
   xmlns:svg="http://www.w3.org/2000/svg"><sodipodi:namedview
     id="namedview506"
     pagecolor="#ffffff"
     bordercolor="#666666"
     borderopacity="1.0"
     inkscape:showpageshadow="2"
     inkscape:pageopacity="0.0"
     inkscape:pagecheckerboard="0"
     inkscape:deskcolor="#d1d1d1"
     inkscape:document-units="mm"
     showgrid="false"
     inkscape:zoom="0.64693624"
     inkscape:cx="496.18491"
     inkscape:cy="482.27318"
     inkscape:window-width="2560"
     inkscape:window-height="1334"
     inkscape:window-x="-11"
     inkscape:window-y="-11"
     inkscape:window-maximized="1"
     inkscape:current-layer="layer1" /><defs
     id="defs501"><filter
       style="color-interpolation-filters:sRGB"
       inkscape:label="Drop Shadow"
       id="filter2039-8"
       x="0"
       width="1"
       y="0"
       height="1"><feFlood
         flood-opacity="0.501961"
         flood-color="rgb(0,0,0)"
         result="flood"
         id="feFlood2029-8" /><feComposite
         in="flood"
         in2="SourceGraphic"
         operator="in"
         result="composite1"
         id="feComposite2031-1" /><feOffset
         dx="0"
         dy="0"
         result="offset"
         id="feOffset2035-8" /><feComposite
         in="SourceGraphic"
         in2="offset"
         operator="over"
         result="composite2"
         id="feComposite2037-0" /></filter></defs><g
     inkscape:label="Layer 1"
     inkscape:groupmode="layer"
     id="layer1"
     transform="translate(96.668314,2.8610017)"><path
       style="fill:#107893;fill-opacity:1;stroke:#25d1f5;stroke-width:2.3;stroke-linecap:round;stroke-linejoin:round;stroke-dasharray:none;stroke-opacity:1;paint-order:normal"
       d="m -68.681071,243.71615 c -11.211991,-2.11802 -19.398077,-9.80937 -23.450004,-22.03277 -2.223053,-6.70625 -3.116821,-12.50427 -3.345672,-21.70391 -0.275873,-11.0899 0.811592,-22.49753 3.502394,-36.74046 0.857953,-4.54131 11.839078,-53.72007 13.730499,-61.49179 6.526265,-26.815935 14.409164,-44.937866 24.690381,-56.760509 2.071081,-2.381591 2.346007,-2.83104 3.112412,-5.088158 l 0.840664,-2.475813 h -0.605214 c -0.783308,0 -1.657462,-0.747549 -1.854516,-1.585919 -0.280327,-1.192683 3.536111,-8.300784 6.457227,-12.026555 0.683875,-0.872256 2.25585,-3.132191 3.493275,-5.022078 5.530674,-8.446845 10.140104,-12.8997816 16.762959,-16.1938479 8.322528,-4.1394475 20.3548285,-5.4512662 29.3317869,-3.19789124 2.2761966,0.57136598 4.1469278,1.42178339 5.3463522,2.43040354 0.4220036,0.3548709 1.2046819,0.8278653 1.7392879,1.0510982 0.998117,0.4167809 1.800595,1.5527821 1.800595,2.5489565 0,0.5290238 0.131253,0.5417659 5.580624,0.5417659 h 5.580625 l 0.899248,0.8986876 0.899247,0.8986877 v 3.8873497 c 0,3.522772 0.04143,3.871463 0.441708,3.717956 0.242942,-0.09317 0.974692,-0.288764 1.626112,-0.434659 2.566995,-0.574918 3.439458,-1.89968 3.678388,-5.5853226 C 31.696747,7.5089562 31.848064,6.8277742 32.220593,6.4554775 32.68963,5.9867303 34.256254,5.968673 74.455271,5.968673 h 41.747569 l 0.50384,0.5556321 c 0.39841,0.4393586 0.53279,1.1007586 0.64218,3.1606107 0.1096,2.0638592 0.25034,2.7549102 0.67755,3.3267542 0.84656,1.133165 1.73255,1.674124 3.36183,2.052627 l 1.5087,0.350491 0.002,-3.203218 c 7.9e-4,-1.76177 0.12573,-3.6503828 0.2776,-4.1969173 0.49102,-1.7669753 0.94891,-1.8964534 7.23553,-2.0459797 l 5.55648,-0.13216 0.17894,-0.8763082 c 0.20735,-1.0159449 1.1848,-2.1633705 1.84279,-2.1633705 0.24973,0 1.03236,-0.4780413 1.73917,-1.0623141 1.51295,-1.25066697 3.26406,-1.96069388 6.70703,-2.71952275 3.64097,-0.80246725 12.26798,-0.79032195 16.69178,0.0234991 12.4331,2.28724075 20.59742,8.17621005 28.29657,20.41049145 0.77764,1.235695 1.96779,2.960382 2.64479,3.832638 3.04057,3.917493 6.85068,10.739904 6.85068,12.266888 0,0.867305 -1.02903,1.874226 -1.91534,1.874226 -0.30591,0 -0.47126,0.136638 -0.39985,0.3304 0.0669,0.18172 0.45296,1.341424 0.85778,2.577119 0.60553,1.848312 0.97864,2.504513 2.10418,3.700479 10.23667,10.877271 18.78936,30.120422 25.39883,57.146252 2.13756,8.74037 12.9271,57.19344 14.0025,62.88157 2.67198,14.13314 3.84037,27.57661 3.32785,38.28998 -0.30035,6.27802 -0.7615,9.66022 -2.01955,14.81173 -2.04431,8.37099 -4.86292,13.76808 -9.73973,18.64949 -3.94711,3.95087 -7.58978,6.02046 -13.06749,7.42428 -10.80954,2.77028 -21.62434,-0.95998 -30.57474,-10.54586 l -2.25568,-2.41583 -0.64309,0.51451 c -0.3537,0.28299 -1.51434,1.24123 -2.57918,2.12943 -7.21281,6.01626 -17.00214,10.03382 -26.66541,10.94354 -1.93831,0.18248 -8.46198,0.24818 -17.98495,0.18113 -8.21886,-0.0579 -15.12191,-0.10351 -15.34011,-0.10143 -0.2182,0.002 -29.199097,0.0487 -64.401995,0.1037 -66.4236756,0.10369 -67.0038808,0.0957 -72.402979,-0.99661 -7.813329,-1.58076 -16.156419,-5.7063 -22.292696,-11.02342 l -2.126073,-1.84226 -1.576712,1.81956 c -4.668658,5.38776 -11.232467,9.6727 -17.187512,11.22026 -3.355105,0.8719 -8.921411,1.09944 -12.119014,0.49539 z"
       id="path1371"
       sodipodi:nodetypes="csssssscsssssssssscccsssssscssssccssccsssssssscssssssssscssssccsscsscc" /><path
       id="path17403"
       style="color:#000000;display:inline;mix-blend-mode:normal;fill:#f5f5f5;fill-opacity:1;stroke-width:1.51174;-inkscape-stroke:none;filter:url(#filter2039-8)"
       d="m 392.18164,79.720703 c -1.60985,0.001 -3.21584,0.04094 -4.81836,0.121094 -19.23025,0.9619 -37.86318,7.590987 -53.79492,19.367187 -5.79493,4.283356 -15.61306,14.101516 -19.89648,19.896486 -20.90168,28.2775 -25.29947,64.4297 -11.76758,96.72656 3.55471,8.48413 7.92624,15.73085 14.1582,23.47852 l 3.13281,3.89648 -4.47461,4.48828 c -2.22578,2.23204 -3.49824,3.46476 -4.28125,4.06055 -0.78304,0.59582 -0.86439,0.57015 -1.34179,0.5 -4.23852,-0.6221 -8.87832,2.53672 -10.06836,6.78711 -2.00071,7.14581 4.34815,13.80328 11.40429,11.91601 4.41332,-1.18039 6.97516,-4.46528 7.14258,-9.12695 l 0.0781,-2.09765 4.65234,-4.65235 4.38281,-4.38281 4.04688,3.26172 c 14.93538,12.01958 33.38464,19.60822 51.86523,21.33008 24.4918,2.2819 48.33691,-4.38195 68.19532,-19.06055 5.79489,-4.28335 15.60528,-14.10159 19.88867,-19.89649 26.6441,-36.04639 25.86803,-85.00069 -1.91211,-119.61132 l -3.60352,-4.4961 4.4668,-4.48242 c 2.22458,-2.23094 3.50642,-3.46512 4.28906,-4.06055 0.78265,-0.59538 0.86436,-0.56823 1.3418,-0.49804 4.23855,0.62209 8.87249,-2.53672 10.0625,-6.787112 2.00071,-7.145849 -4.34038,-13.805194 -11.39649,-11.917969 -4.41331,1.180397 -6.98257,4.4731 -7.15039,9.134765 l -0.0723,2.089844 -4.63867,4.638672 -4.36719,4.36719 -4.06836,-3.2461 C 439.73766,90.363098 423.75962,83.321638 406.7168,80.791016 c -4.84837,-0.719918 -9.70561,-1.073427 -14.53516,-1.070313 z m -0.57031,10.34375 c 1.88364,-0.0089 3.76737,0.04256 5.64844,0.154297 15.04854,0.893866 29.91255,5.64014 42.93945,14.15039 16.31809,10.66033 28.92581,26.98887 35.03906,45.38086 9.33174,28.07497 4.29033,58.12884 -13.70898,81.69531 -2.78197,3.64251 -10.27381,11.28712 -14.09375,14.37305 -13.22245,10.68185 -29.36503,17.31706 -46.58594,19.1543 -19.37402,2.06699 -40.17905,-3.05491 -56.91211,-14.02344 -9.51355,-6.23613 -18.69265,-15.42455 -24.97656,-24.99024 -19.23836,-29.28554 -19.23778,-67.1791 0,-96.47656 3.52632,-5.37032 5.28765,-7.53155 10.47656,-12.85937 7.42511,-7.62388 14.29442,-12.66056 23.76953,-17.419925 12.04876,-6.052097 25.2188,-9.07602 38.4043,-9.138672 z m 25.50195,19.402347 c -1.83072,0.0402 -3.69566,0.1663 -5.59375,0.37695 -5.06157,0.56174 -10.35376,1.72561 -15.78711,3.50977 -5.92803,1.94659 -14.94576,6.20199 -20.50976,9.66992 l -3.13282,1.95508 -2.74023,-1.46875 c -8.6932,-4.65644 -16.45171,-6.89898 -23.19922,-6.60938 -6.6976,0.28755 -10.8506,2.67388 -13.33789,7.75781 -1.83589,3.75231 -2.03577,9.65025 -0.68555,15.32227 2.89696,12.16968 12.70819,28.59771 26.92578,45.30859 5.15533,6.05947 19.50308,20.40522 25.5625,25.56055 16.24447,13.82072 32.15319,23.44977 44.30274,26.69727 l 0.94922,0.25 v -0.13477 c 2.45254,0.56199 5.11705,0.93569 7.64843,0.91406 2.84548,-0.0256 5.4436,-0.38829 7.23633,-1.19922 2.86239,-1.29472 5.78975,-4.23178 7.07227,-7.08789 1.45341,-3.23653 1.63111,-9.36983 0.58594,-14.10742 -0.93322,-4.2303 -3.61236,-11.17876 -6.00977,-15.62891 l -1.47656,-2.74023 1.95508,-3.13281 c 1.2371,-1.98489 3.47648,-6.14088 5.03125,-9.32813 12.32715,-25.27056 11.28913,-50.0761 -2.9961,-64.36133 -7.91909,-7.91906 -18.9857,-11.8048 -31.80078,-11.52343 z m 2.99024,10.21875 c 3.10539,-0.0189 4.45912,0.17706 6.9375,0.76953 11.44703,2.73633 19.11803,10.06596 22.20703,21.20117 0.49812,1.79482 0.80868,6.03997 0.81445,10.32617 0.007,4.28624 -0.27778,8.71578 -0.79297,10.97656 -1.43781,6.31078 -3.56962,12.08624 -7.00781,18.96094 -0.95437,1.90835 -1.86653,3.63904 -2.55469,4.88867 -0.29267,0.53127 -0.51646,0.91583 -0.71289,1.24219 -0.0183,-0.0219 -0.0258,-0.03 -0.043,-0.0508 -0.34821,-0.43575 -0.80465,-1.05933 -1.25586,-1.74219 -11.76136,-17.79854 -36.19311,-42.22357 -54.05859,-54.05078 -0.68666,-0.4546 -1.30795,-0.89603 -1.74805,-1.23437 -0.0398,-0.0292 -0.0549,-0.0414 -0.0918,-0.0703 0.22872,-0.15382 0.46414,-0.31571 0.88476,-0.55664 1.10429,-0.63254 2.86859,-1.55717 5.41602,-2.83984 5.80643,-2.92377 10.26921,-4.63185 16.1914,-6.19531 4.33001,-1.1432 5.99904,-1.35588 12.01758,-1.54102 1.53105,-0.047 2.76174,-0.0777 3.79688,-0.084 z m -73.31836,7.34961 c 2.07377,-0.0265 4.78573,0.45881 8.00781,1.5039 1.79917,0.58351 4.00153,1.44815 5.73047,2.21289 0.86449,0.38237 1.61328,0.73628 2.125,1.01367 0.0592,0.0329 0.0763,0.0482 0.1289,0.0781 -0.10084,0.0994 -0.16948,0.17166 -0.29882,0.29297 -0.52454,0.49001 -1.25987,1.13208 -2.07032,1.79883 -1.68476,1.38599 -4.6169,4.10056 -6.58593,6.09375 l -3.92579,3.96875 2.41211,4.64453 2.62696,5.07422 5.88086,-5.92969 c 3.04358,-3.07321 5.97175,-5.77654 8.23437,-7.65039 1.13133,-0.93695 2.09534,-1.67012 2.80469,-2.12695 0.35478,-0.22837 0.64885,-0.38543 0.83398,-0.46289 0.0613,-0.0256 0.0825,-0.0203 0.11133,-0.0215 0.16644,0.0861 0.65334,0.35441 1.3086,0.76953 0.75385,0.47752 1.71987,1.11112 2.7832,1.83399 2.12666,1.44577 4.64644,3.2356 6.65234,4.74023 13.40463,10.05475 27.59332,23.90635 38.19336,37.30078 3.47488,4.39092 8.99443,12.13952 10.26953,14.36524 l 0.54883,0.95703 -2.27539,2.83203 c -1.37419,1.71509 -4.98218,5.61292 -7.93555,8.54883 l -6.13867,6.10156 5.06055,2.62695 4.63086,2.39844 3.53906,-3.47656 c 1.75766,-1.72924 4.47716,-4.66514 6.10156,-6.57813 0.79343,-0.93435 1.55535,-1.78477 2.12696,-2.39258 0.17136,-0.18232 0.2815,-0.28677 0.41406,-0.41992 l 0.0156,0.0215 c 0.24846,0.44971 0.57538,1.12733 0.9336,1.92773 0.7164,1.6008 1.56649,3.71636 2.26367,5.72266 0.64541,1.85759 1.10879,4.27543 1.29883,6.4375 0.18999,2.16206 0.0496,4.13639 -0.24414,4.8457 -0.21485,0.51895 -1.02138,1.40276 -1.45508,1.62695 -0.48932,0.25285 -2.10419,0.51631 -3.8457,0.51368 -1.74152,-0.003 -3.68639,-0.20723 -5.08985,-0.58594 -10.67381,-2.8811 -24.47009,-11.13742 -39.95508,-24.01367 -6.15866,-5.1211 -20.89143,-19.9324 -26.20507,-26.35352 -11.50999,-13.90878 -18.73704,-25.48319 -22.4375,-35.85351 -0.80508,-2.25648 -1.35352,-4.80121 -1.58985,-7.0293 -0.2364,-2.22805 -0.11186,-4.17674 0.24219,-5.03125 0.54946,-1.32651 1.7648,-2.08619 3.92383,-2.28321 v -0.002 c 0.26988,-0.0246 0.55335,-0.0372 0.84961,-0.041 z m 25.59179,25.20507 c -1.15379,-0.0365 -2.15482,0.21343 -3.10547,0.70508 -1.73409,0.89672 -2.51821,2.76117 -2.45507,4.96094 0.0632,2.19977 0.87001,4.83786 2.27734,7.79883 2.81467,5.92201 8.06775,13.12833 15.02148,20.08203 4.18923,4.18923 8.89627,8.05978 13.3086,11.06836 4.41233,3.00858 8.50577,5.15613 11.61914,5.87305 3.04277,0.70061 5.44924,0.47732 6.97265,-0.89844 1.52342,-1.37573 1.88524,-3.69906 1.26954,-6.61524 -1.46076,-6.91818 -8.02124,-16.18764 -16,-24.42773 -7.97877,-8.24009 -17.34584,-15.38685 -24.74219,-17.68359 -1.71411,-0.53225 -3.01222,-0.8277 -4.16602,-0.86329 z m -36.0332,11.47461 c -0.2934,-0.011 -0.44915,0.10026 -0.54883,0.17188 -0.10084,0.0723 -0.15968,0.1387 -0.2207,0.20703 -0.1224,0.13665 -0.2305,0.28075 -0.34961,0.46289 -0.23823,0.36465 -0.51747,0.85591 -0.83594,1.45703 -0.63697,1.20225 -1.42785,2.84437 -2.2539,4.65235 -1.65214,3.61587 -3.43211,7.88048 -4.32422,10.60351 -5.50833,16.81366 -4.96779,32.03094 0.69922,43.51758 5.667,11.4866 16.49149,19.18217 31.22851,20.90234 12.13943,1.41691 26.07677,-1.45193 40.0918,-8.1914 1.64414,-0.79065 3.14006,-1.55605 4.23047,-2.14844 0.54518,-0.29632 0.98988,-0.54616 1.31445,-0.75 0.16223,-0.10194 0.28922,-0.18527 0.40625,-0.27734 0.0585,-0.046 0.10904,-0.0962 0.17773,-0.17188 0.0329,-0.0376 0.0754,-0.0782 0.1211,-0.1582 0.0219,-0.0402 0.0507,-0.0941 0.0723,-0.16211 0.011,-0.0329 0.0293,-0.11377 0.0293,-0.11524 2.9e-4,-0.002 0.008,-0.14893 0.008,-0.15039 v -0.006 c -1.4e-4,-0.003 -0.0147,-0.13109 -0.0293,-0.17968 -0.0146,-0.0486 -0.0294,-0.0882 -0.043,-0.1211 -0.0292,-0.0658 -0.0604,-0.11153 -0.0859,-0.14843 -0.0515,-0.0742 -0.0973,-0.11766 -0.14258,-0.16407 -0.0902,-0.0932 -0.18459,-0.17648 -0.30078,-0.27148 -0.23238,-0.19036 -0.54369,-0.42149 -0.91992,-0.68555 -0.75243,-0.52812 -1.77001,-1.19537 -2.89063,-1.88476 l -4.38086,-2.68946 -4.16796,1.92578 c -4.47047,2.06652 -11.32274,4.38655 -15.80664,5.35938 -5.11591,1.10991 -14.90092,1.33587 -19.16797,0.47266 -12.63423,-2.5558 -20.96609,-10.88349 -23.52149,-23.51563 -1.04323,-5.1569 -0.66619,-14.73981 0.85547,-20.81641 1.24412,-4.96833 3.69971,-11.79894 5.53125,-15.44336 l 1.41211,-2.82617 -2.71875,-4.41601 c -0.69404,-1.12808 -1.36064,-2.15464 -1.89062,-2.91211 -0.26491,-0.37872 -0.49544,-0.68637 -0.68555,-0.91992 -0.095,-0.11693 -0.17709,-0.21603 -0.26953,-0.30665 -0.0464,-0.0453 -0.0899,-0.0923 -0.16407,-0.14453 -0.0369,-0.0256 -0.0835,-0.0537 -0.15039,-0.084 -0.0329,-0.0146 -0.0714,-0.0295 -0.12109,-0.043 -0.0479,-0.0146 -0.16763,-0.0256 -0.17969,-0.0293 z m 49.52734,7.70118 c 0.18233,0.011 0.46078,0.0377 0.86329,0.0918 1.71114,0.22946 4.85452,2.35092 7.36523,4.89649 1.25537,1.27276 2.38199,2.63797 3.17578,3.88867 0.79383,1.25069 1.22656,2.40063 1.22656,3.06055 0,0.31641 -0.011,0.5383 -0.0293,0.65625 -0.11802,0.0183 -0.33987,0.0371 -0.65625,0.0371 -0.66657,0 -1.88512,-0.47681 -3.19727,-1.33399 -1.31215,-0.85718 -2.75094,-2.05937 -4.06836,-3.38281 -1.31741,-1.32345 -2.51369,-2.77137 -3.36719,-4.08985 -0.85345,-1.31851 -1.32812,-2.53728 -1.32812,-3.21093 0,-0.30144 0.005,-0.4725 0.0156,-0.61328 z"
       transform="matrix(0.62580507,0,0,0.62580507,-170.96683,9.9824018)"
       inkscape:label="Gyro Icon" /></g></svg>
