<?xml version="1.0" encoding="UTF-8" standalone="no"?>
<!-- Created with Inkscape (http://www.inkscape.org/) -->

<svg
   width="819.16669mm"
   height="248.30292mm"
   viewBox="0 0 819.16672 248.30293"
   version="1.1"
   id="svg10568"
   xml:space="preserve"
   sodipodi:docname="Switch Joycon Gyro-Acell Icon.svg"
   inkscape:version="1.2 (dc2aedaf03, 2022-05-15)"
   xmlns:inkscape="http://www.inkscape.org/namespaces/inkscape"
   xmlns:sodipodi="http://sodipodi.sourceforge.net/DTD/sodipodi-0.dtd"
   xmlns="http://www.w3.org/2000/svg"
   xmlns:svg="http://www.w3.org/2000/svg"><sodipodi:namedview
     id="namedview10570"
     pagecolor="#ffffff"
     bordercolor="#666666"
     borderopacity="1.0"
     inkscape:showpageshadow="2"
     inkscape:pageopacity="0.0"
     inkscape:pagecheckerboard="0"
     inkscape:deskcolor="#d1d1d1"
     inkscape:document-units="mm"
     showgrid="false"
     inkscape:zoom="0.457453"
     inkscape:cx="1230.7275"
     inkscape:cy="290.74025"
     inkscape:window-width="2560"
     inkscape:window-height="1334"
     inkscape:window-x="-11"
     inkscape:window-y="-11"
     inkscape:window-maximized="1"
     inkscape:current-layer="layer1" /><defs
     id="defs10565"><filter
       style="color-interpolation-filters:sRGB"
       inkscape:label="Drop Shadow"
       id="filter2039-8"
       x="0"
       width="1"
       y="0"
       height="1"><feFlood
         flood-opacity="0.501961"
         flood-color="rgb(0,0,0)"
         result="flood"
         id="feFlood2029-8" /><feComposite
         in="flood"
         in2="SourceGraphic"
         operator="in"
         result="composite1"
         id="feComposite2031-1" /><feOffset
         dx="0"
         dy="0"
         result="offset"
         id="feOffset2035-8" /><feComposite
         in="SourceGraphic"
         in2="offset"
         operator="over"
         result="composite2"
         id="feComposite2037-0" /></filter><filter
       style="color-interpolation-filters:sRGB"
       inkscape:label="Drop Shadow"
       id="filter2039-8-4"
       x="0"
       width="1"
       y="0"
       height="1"><feFlood
         flood-opacity="0.501961"
         flood-color="rgb(0,0,0)"
         result="flood"
         id="feFlood2029-8-1" /><feComposite
         in="flood"
         in2="SourceGraphic"
         operator="in"
         result="composite1"
         id="feComposite2031-1-2" /><feOffset
         dx="0"
         dy="0"
         result="offset"
         id="feOffset2035-8-1" /><feComposite
         in="SourceGraphic"
         in2="offset"
         operator="over"
         result="composite2"
         id="feComposite2037-0-8" /></filter><filter
       style="color-interpolation-filters:sRGB"
       inkscape:label="Drop Shadow"
       id="filter2039-8-2"
       x="0"
       width="1"
       y="0"
       height="1"><feFlood
         flood-opacity="0.501961"
         flood-color="rgb(0,0,0)"
         result="flood"
         id="feFlood2029-8-2" /><feComposite
         in="flood"
         in2="SourceGraphic"
         operator="in"
         result="composite1"
         id="feComposite2031-1-21" /><feOffset
         dx="0"
         dy="0"
         result="offset"
         id="feOffset2035-8-9" /><feComposite
         in="SourceGraphic"
         in2="offset"
         operator="over"
         result="composite2"
         id="feComposite2037-0-6" /></filter><filter
       style="color-interpolation-filters:sRGB"
       inkscape:label="Drop Shadow"
       id="filter2039-8-2-8"
       x="0"
       width="1"
       y="0"
       height="1"><feFlood
         flood-opacity="0.501961"
         flood-color="rgb(0,0,0)"
         result="flood"
         id="feFlood2029-8-2-3" /><feComposite
         in="flood"
         in2="SourceGraphic"
         operator="in"
         result="composite1"
         id="feComposite2031-1-21-4" /><feOffset
         dx="0"
         dy="0"
         result="offset"
         id="feOffset2035-8-9-4" /><feComposite
         in="SourceGraphic"
         in2="offset"
         operator="over"
         result="composite2"
         id="feComposite2037-0-6-9" /></filter></defs><g
     inkscape:label="Layer 1"
     inkscape:groupmode="layer"
     id="layer1"
     transform="translate(727.57707,5.5767731)"><g
       id="g18432"><path
         style="fill:#107893;fill-opacity:1;stroke:#25d1f5;stroke-width:2.3;stroke-dasharray:none;stroke-opacity:1"
         d="m -154.82801,83.035669 c 0.68911,-0.54156 0.89587,-0.54786 17.99119,-0.54786 11.35299,0 17.29406,-0.0908 17.29406,-0.26434 0,-0.1659 -1.68243,-0.26433 -4.51815,-0.26433 h -4.51815 l -0.77337,-0.77268 c -0.68125,-0.68063 -0.77338,-0.95979 -0.77338,-2.34338 0,-1.18878 0.13334,-1.74006 0.54835,-2.2672 l 0.54836,-0.69648 h 19.17107 c 21.12595,0 20.10262,-0.0792 21.7856,1.68666 0.50147,0.52619 1.00747,0.9567 1.12444,0.9567 0.11698,0 0.21268,-0.39789 0.21268,-0.88421 0,-1.77764 -0.10915,-1.75915 10.38655,-1.75915 8.20984,0 9.47224,0.0533 9.83463,0.41538 0.22867,0.22846 0.41576,0.5827 0.41576,0.78719 0,0.26054 0.37179,0.13623 1.2424,-0.41539 l 1.24239,-0.78718 h 33.56677 c 24.6935625,0 33.7195425,0.08 34.1446825,0.30258 0.31785,0.16642 1.02437,0.65222 1.57006,1.07956 l 0.99216,0.77697 v -0.80592 c 0,-0.52625 0.17759,-0.90088 0.51176,-1.07956 0.32486,-0.1737 3.9000305,-0.27363 9.7893205,-0.27363 8.9248,0 9.29768,0.0201 9.80672,0.52867 0.29103,0.29077 0.52915,0.66988 0.52915,0.84246 0,0.17259 0.32741,0.002 0.72758,-0.37968 0.40017,-0.38142 1.06275,-0.82 1.4724,-0.97464 0.80688,-0.30458 35.23842,-0.41638 36.01943,-0.11695 0.84682,0.32466 1.20244,1.56214 1.20244,4.18423 v 2.52432 h 6.89213 c 9.74623,0 9.24702,-0.40023 9.24702,7.41364 v 5.44565 l 1.23698,0.37702 c 1.01792,0.31026 1.33142,0.56428 1.77027,1.43437 0.29332,0.58155 0.92306,1.57449 1.39943,2.20654 1.07903,1.431691 1.83875,3.409641 2.55374,6.648741 0.80325,3.63894 0.79109,12.26112 -0.0235,16.68245 -2.26176,12.27583 -7.75041,19.96402 -19.90113,27.87638 -1.52793,0.99497 -3.67387,2.48741 -4.76876,3.31653 -3.8896,2.94548 -10.42029,6.57799 -11.82622,6.57799 -0.76936,0 -1.92535,-1.10375 -1.92535,-1.83834 0,-0.29738 -0.0444,-0.54069 -0.0986,-0.54069 -0.0542,0 -1.33414,0.40358 -2.8442,0.89684 -3.28383,1.07267 -7.30293,1.89835 -11.0416,2.26836 -3.80332,0.37642 -143.277283,0.37316 -147.274783,-0.003 -6.20408,-0.58447 -11.91939,-2.18247 -17.46203,-4.88236 -5.34666,-2.60443 -8.90117,-5.13013 -13.32184,-9.46598 -4.29675,-4.21431 -7.22318,-8.30441 -9.83129,-13.74062 -1.91206,-3.9854 -2.92768,-6.86967 -3.79554,-10.77902 -1.10891,-4.9952 -1.2287,-7.28389 -1.2287,-23.475591 v -15.32279 z"
         id="path18165"
         sodipodi:nodetypes="sssscssscsssssssscssscssssssssscsscsssssssssssscssssscs" /><path
         id="path17403-7"
         style="color:#000000;display:inline;mix-blend-mode:normal;fill:#f5f5f5;fill-opacity:1;stroke-width:1.51174;-inkscape-stroke:none;filter:url(#filter2039-8-2)"
         d="m 392.18164,79.720703 c -1.60985,0.001 -3.21584,0.04094 -4.81836,0.121094 -19.23025,0.9619 -37.86318,7.590987 -53.79492,19.367187 -5.79493,4.283356 -15.61306,14.101516 -19.89648,19.896486 -20.90168,28.2775 -25.29947,64.4297 -11.76758,96.72656 3.55471,8.48413 7.92624,15.73085 14.1582,23.47852 l 3.13281,3.89648 -4.47461,4.48828 c -2.22578,2.23204 -3.49824,3.46476 -4.28125,4.06055 -0.78304,0.59582 -0.86439,0.57015 -1.34179,0.5 -4.23852,-0.6221 -8.87832,2.53672 -10.06836,6.78711 -2.00071,7.14581 4.34815,13.80328 11.40429,11.91601 4.41332,-1.18039 6.97516,-4.46528 7.14258,-9.12695 l 0.0781,-2.09765 4.65234,-4.65235 4.38281,-4.38281 4.04688,3.26172 c 14.93538,12.01958 33.38464,19.60822 51.86523,21.33008 24.4918,2.2819 48.33691,-4.38195 68.19532,-19.06055 5.79489,-4.28335 15.60528,-14.10159 19.88867,-19.89649 26.6441,-36.04639 25.86803,-85.00069 -1.91211,-119.61132 l -3.60352,-4.4961 4.4668,-4.48242 c 2.22458,-2.23094 3.50642,-3.46512 4.28906,-4.06055 0.78265,-0.59538 0.86436,-0.56823 1.3418,-0.49804 4.23855,0.62209 8.87249,-2.53672 10.0625,-6.787112 2.00071,-7.145849 -4.34038,-13.805194 -11.39649,-11.917969 -4.41331,1.180397 -6.98257,4.4731 -7.15039,9.134765 l -0.0723,2.089844 -4.63867,4.638672 -4.36719,4.36719 -4.06836,-3.2461 C 439.73766,90.363098 423.75962,83.321638 406.7168,80.791016 c -4.84837,-0.719918 -9.70561,-1.073427 -14.53516,-1.070313 z m -0.57031,10.34375 c 1.88364,-0.0089 3.76737,0.04256 5.64844,0.154297 15.04854,0.893866 29.91255,5.64014 42.93945,14.15039 16.31809,10.66033 28.92581,26.98887 35.03906,45.38086 9.33174,28.07497 4.29033,58.12884 -13.70898,81.69531 -2.78197,3.64251 -10.27381,11.28712 -14.09375,14.37305 -13.22245,10.68185 -29.36503,17.31706 -46.58594,19.1543 -19.37402,2.06699 -40.17905,-3.05491 -56.91211,-14.02344 -9.51355,-6.23613 -18.69265,-15.42455 -24.97656,-24.99024 -19.23836,-29.28554 -19.23778,-67.1791 0,-96.47656 3.52632,-5.37032 5.28765,-7.53155 10.47656,-12.85937 7.42511,-7.62388 14.29442,-12.66056 23.76953,-17.419925 12.04876,-6.052097 25.2188,-9.07602 38.4043,-9.138672 z m 25.50195,19.402347 c -1.83072,0.0402 -3.69566,0.1663 -5.59375,0.37695 -5.06157,0.56174 -10.35376,1.72561 -15.78711,3.50977 -5.92803,1.94659 -14.94576,6.20199 -20.50976,9.66992 l -3.13282,1.95508 -2.74023,-1.46875 c -8.6932,-4.65644 -16.45171,-6.89898 -23.19922,-6.60938 -6.6976,0.28755 -10.8506,2.67388 -13.33789,7.75781 -1.83589,3.75231 -2.03577,9.65025 -0.68555,15.32227 2.89696,12.16968 12.70819,28.59771 26.92578,45.30859 5.15533,6.05947 19.50308,20.40522 25.5625,25.56055 16.24447,13.82072 32.15319,23.44977 44.30274,26.69727 l 0.94922,0.25 v -0.13477 c 2.45254,0.56199 5.11705,0.93569 7.64843,0.91406 2.84548,-0.0256 5.4436,-0.38829 7.23633,-1.19922 2.86239,-1.29472 5.78975,-4.23178 7.07227,-7.08789 1.45341,-3.23653 1.63111,-9.36983 0.58594,-14.10742 -0.93322,-4.2303 -3.61236,-11.17876 -6.00977,-15.62891 l -1.47656,-2.74023 1.95508,-3.13281 c 1.2371,-1.98489 3.47648,-6.14088 5.03125,-9.32813 12.32715,-25.27056 11.28913,-50.0761 -2.9961,-64.36133 -7.91909,-7.91906 -18.9857,-11.8048 -31.80078,-11.52343 z m 2.99024,10.21875 c 3.10539,-0.0189 4.45912,0.17706 6.9375,0.76953 11.44703,2.73633 19.11803,10.06596 22.20703,21.20117 0.49812,1.79482 0.80868,6.03997 0.81445,10.32617 0.007,4.28624 -0.27778,8.71578 -0.79297,10.97656 -1.43781,6.31078 -3.56962,12.08624 -7.00781,18.96094 -0.95437,1.90835 -1.86653,3.63904 -2.55469,4.88867 -0.29267,0.53127 -0.51646,0.91583 -0.71289,1.24219 -0.0183,-0.0219 -0.0258,-0.03 -0.043,-0.0508 -0.34821,-0.43575 -0.80465,-1.05933 -1.25586,-1.74219 -11.76136,-17.79854 -36.19311,-42.22357 -54.05859,-54.05078 -0.68666,-0.4546 -1.30795,-0.89603 -1.74805,-1.23437 -0.0398,-0.0292 -0.0549,-0.0414 -0.0918,-0.0703 0.22872,-0.15382 0.46414,-0.31571 0.88476,-0.55664 1.10429,-0.63254 2.86859,-1.55717 5.41602,-2.83984 5.80643,-2.92377 10.26921,-4.63185 16.1914,-6.19531 4.33001,-1.1432 5.99904,-1.35588 12.01758,-1.54102 1.53105,-0.047 2.76174,-0.0777 3.79688,-0.084 z m -73.31836,7.34961 c 2.07377,-0.0265 4.78573,0.45881 8.00781,1.5039 1.79917,0.58351 4.00153,1.44815 5.73047,2.21289 0.86449,0.38237 1.61328,0.73628 2.125,1.01367 0.0592,0.0329 0.0763,0.0482 0.1289,0.0781 -0.10084,0.0994 -0.16948,0.17166 -0.29882,0.29297 -0.52454,0.49001 -1.25987,1.13208 -2.07032,1.79883 -1.68476,1.38599 -4.6169,4.10056 -6.58593,6.09375 l -3.92579,3.96875 2.41211,4.64453 2.62696,5.07422 5.88086,-5.92969 c 3.04358,-3.07321 5.97175,-5.77654 8.23437,-7.65039 1.13133,-0.93695 2.09534,-1.67012 2.80469,-2.12695 0.35478,-0.22837 0.64885,-0.38543 0.83398,-0.46289 0.0613,-0.0256 0.0825,-0.0203 0.11133,-0.0215 0.16644,0.0861 0.65334,0.35441 1.3086,0.76953 0.75385,0.47752 1.71987,1.11112 2.7832,1.83399 2.12666,1.44577 4.64644,3.2356 6.65234,4.74023 13.40463,10.05475 27.59332,23.90635 38.19336,37.30078 3.47488,4.39092 8.99443,12.13952 10.26953,14.36524 l 0.54883,0.95703 -2.27539,2.83203 c -1.37419,1.71509 -4.98218,5.61292 -7.93555,8.54883 l -6.13867,6.10156 5.06055,2.62695 4.63086,2.39844 3.53906,-3.47656 c 1.75766,-1.72924 4.47716,-4.66514 6.10156,-6.57813 0.79343,-0.93435 1.55535,-1.78477 2.12696,-2.39258 0.17136,-0.18232 0.2815,-0.28677 0.41406,-0.41992 l 0.0156,0.0215 c 0.24846,0.44971 0.57538,1.12733 0.9336,1.92773 0.7164,1.6008 1.56649,3.71636 2.26367,5.72266 0.64541,1.85759 1.10879,4.27543 1.29883,6.4375 0.18999,2.16206 0.0496,4.13639 -0.24414,4.8457 -0.21485,0.51895 -1.02138,1.40276 -1.45508,1.62695 -0.48932,0.25285 -2.10419,0.51631 -3.8457,0.51368 -1.74152,-0.003 -3.68639,-0.20723 -5.08985,-0.58594 -10.67381,-2.8811 -24.47009,-11.13742 -39.95508,-24.01367 -6.15866,-5.1211 -20.89143,-19.9324 -26.20507,-26.35352 -11.50999,-13.90878 -18.73704,-25.48319 -22.4375,-35.85351 -0.80508,-2.25648 -1.35352,-4.80121 -1.58985,-7.0293 -0.2364,-2.22805 -0.11186,-4.17674 0.24219,-5.03125 0.54946,-1.32651 1.7648,-2.08619 3.92383,-2.28321 v -0.002 c 0.26988,-0.0246 0.55335,-0.0372 0.84961,-0.041 z m 25.59179,25.20507 c -1.15379,-0.0365 -2.15482,0.21343 -3.10547,0.70508 -1.73409,0.89672 -2.51821,2.76117 -2.45507,4.96094 0.0632,2.19977 0.87001,4.83786 2.27734,7.79883 2.81467,5.92201 8.06775,13.12833 15.02148,20.08203 4.18923,4.18923 8.89627,8.05978 13.3086,11.06836 4.41233,3.00858 8.50577,5.15613 11.61914,5.87305 3.04277,0.70061 5.44924,0.47732 6.97265,-0.89844 1.52342,-1.37573 1.88524,-3.69906 1.26954,-6.61524 -1.46076,-6.91818 -8.02124,-16.18764 -16,-24.42773 -7.97877,-8.24009 -17.34584,-15.38685 -24.74219,-17.68359 -1.71411,-0.53225 -3.01222,-0.8277 -4.16602,-0.86329 z m -36.0332,11.47461 c -0.2934,-0.011 -0.44915,0.10026 -0.54883,0.17188 -0.10084,0.0723 -0.15968,0.1387 -0.2207,0.20703 -0.1224,0.13665 -0.2305,0.28075 -0.34961,0.46289 -0.23823,0.36465 -0.51747,0.85591 -0.83594,1.45703 -0.63697,1.20225 -1.42785,2.84437 -2.2539,4.65235 -1.65214,3.61587 -3.43211,7.88048 -4.32422,10.60351 -5.50833,16.81366 -4.96779,32.03094 0.69922,43.51758 5.667,11.4866 16.49149,19.18217 31.22851,20.90234 12.13943,1.41691 26.07677,-1.45193 40.0918,-8.1914 1.64414,-0.79065 3.14006,-1.55605 4.23047,-2.14844 0.54518,-0.29632 0.98988,-0.54616 1.31445,-0.75 0.16223,-0.10194 0.28922,-0.18527 0.40625,-0.27734 0.0585,-0.046 0.10904,-0.0962 0.17773,-0.17188 0.0329,-0.0376 0.0754,-0.0782 0.1211,-0.1582 0.0219,-0.0402 0.0507,-0.0941 0.0723,-0.16211 0.011,-0.0329 0.0293,-0.11377 0.0293,-0.11524 2.9e-4,-0.002 0.008,-0.14893 0.008,-0.15039 v -0.006 c -1.4e-4,-0.003 -0.0147,-0.13109 -0.0293,-0.17968 -0.0146,-0.0486 -0.0294,-0.0882 -0.043,-0.1211 -0.0292,-0.0658 -0.0604,-0.11153 -0.0859,-0.14843 -0.0515,-0.0742 -0.0973,-0.11766 -0.14258,-0.16407 -0.0902,-0.0932 -0.18459,-0.17648 -0.30078,-0.27148 -0.23238,-0.19036 -0.54369,-0.42149 -0.91992,-0.68555 -0.75243,-0.52812 -1.77001,-1.19537 -2.89063,-1.88476 l -4.38086,-2.68946 -4.16796,1.92578 c -4.47047,2.06652 -11.32274,4.38655 -15.80664,5.35938 -5.11591,1.10991 -14.90092,1.33587 -19.16797,0.47266 -12.63423,-2.5558 -20.96609,-10.88349 -23.52149,-23.51563 -1.04323,-5.1569 -0.66619,-14.73981 0.85547,-20.81641 1.24412,-4.96833 3.69971,-11.79894 5.53125,-15.44336 l 1.41211,-2.82617 -2.71875,-4.41601 c -0.69404,-1.12808 -1.36064,-2.15464 -1.89062,-2.91211 -0.26491,-0.37872 -0.49544,-0.68637 -0.68555,-0.91992 -0.095,-0.11693 -0.17709,-0.21603 -0.26953,-0.30665 -0.0464,-0.0453 -0.0899,-0.0923 -0.16407,-0.14453 -0.0369,-0.0256 -0.0835,-0.0537 -0.15039,-0.084 -0.0329,-0.0146 -0.0714,-0.0295 -0.12109,-0.043 -0.0479,-0.0146 -0.16763,-0.0256 -0.17969,-0.0293 z m 49.52734,7.70118 c 0.18233,0.011 0.46078,0.0377 0.86329,0.0918 1.71114,0.22946 4.85452,2.35092 7.36523,4.89649 1.25537,1.27276 2.38199,2.63797 3.17578,3.88867 0.79383,1.25069 1.22656,2.40063 1.22656,3.06055 0,0.31641 -0.011,0.5383 -0.0293,0.65625 -0.11802,0.0183 -0.33987,0.0371 -0.65625,0.0371 -0.66657,0 -1.88512,-0.47681 -3.19727,-1.33399 -1.31215,-0.85718 -2.75094,-2.05937 -4.06836,-3.38281 -1.31741,-1.32345 -2.51369,-2.77137 -3.36719,-4.08985 -0.85345,-1.31851 -1.32812,-2.53728 -1.32812,-3.21093 0,-0.30144 0.005,-0.4725 0.0156,-0.61328 z"
         transform="matrix(0.25694949,0,0,0.25694949,-133.30771,72.90227)"
         inkscape:label="Gyro Icon" /></g><g
       id="g18436"><path
         style="fill:#107893;fill-opacity:1;stroke:#25d1f5;stroke-width:2.3;stroke-dasharray:none;stroke-opacity:1"
         d="m -480.7042,117.12651 c -0.76174,6.71936 -3.24406,14.15328 -6.59193,19.74111 -8.25329,13.77533 -22.05943,22.66267 -37.88497,24.38744 -3.59892,0.39223 -145.53925,0.39033 -149.11357,-0.002 -4.02558,-0.44186 -9.16588,-1.68102 -12.55728,-3.02714 -0.34664,-0.13759 -0.46303,-0.0528 -0.46303,0.33752 0,0.93451 -1.00654,1.91428 -1.96659,1.91428 -1.62094,0 -8.6608,-3.97608 -12.71778,-7.18294 -0.7276,-0.57514 -2.61895,-1.87678 -4.20298,-2.89253 -3.9193,-2.51323 -7.02706,-4.958 -9.56913,-7.52774 -7.32839,-7.40811 -11.10349,-18.30599 -10.61329,-30.63822 0.24817,-6.24354 1.35297,-10.50796 3.34599,-12.915197 0.58485,-0.70641 1.06337,-1.49876 1.06337,-1.76077 0,-0.69738 1.49384,-1.84507 2.40155,-1.84507 h 0.77345 v -5.40647 c 0,-8.11101 -0.53349,-7.64719 8.92969,-7.76374 l 6.94531,-0.0855 v -2.64425 c 0,-2.57571 0.0202,-2.66445 0.78063,-3.42414 l 0.78062,-0.77989 17.71882,0.0733 17.71881,0.0733 1.21202,0.85365 c 0.66661,0.4695 1.21201,0.73714 1.21201,0.59475 0,-0.14238 0.23813,-0.49679 0.52917,-0.78756 0.50888,-0.5084 0.88195,-0.52867 9.73071,-0.52867 10.01677,0 10.37762,0.0511 10.37762,1.46884 0,0.82877 0.27984,0.81604 1.07836,-0.0491 1.37577,-1.49047 -0.3936,-1.41978 35.54072,-1.41978 22.81148,0 33.42949,0.0879 33.94131,0.28115 0.40966,0.15464 1.07225,0.59322 1.47244,0.97463 0.70162,0.66872 0.7276,0.67338 0.7276,0.13035 0,-1.32411 0.46433,-1.38613 10.37762,-1.38613 8.84877,0 9.22184,0.0203 9.73071,0.52867 0.3389,0.33858 0.52917,0.88112 0.52917,1.50889 v 0.98022 l 1.12448,-1.09988 c 2.06927,-2.02398 0.85079,-1.9179 22.03009,-1.9179 h 18.93823 l 0.67834,0.6777 c 0.62561,0.62503 0.67013,0.82269 0.57284,2.54301 -0.15909,2.81281 -0.25263,2.85903 -5.78684,2.85903 -2.5993,0 -4.51919,0.10701 -4.61202,0.25707 -0.10224,0.16527 6.13621,0.28326 17.47037,0.33042 l 17.62939,0.0734 0.50569,0.62404 c 0.48601,0.59977 0.50434,1.23221 0.47135,16.25671 -0.0189,8.597957 -0.13546,16.524797 -0.25907,17.615177 z"
         id="path18167" /><path
         id="path17403-7-9"
         style="color:#000000;display:inline;mix-blend-mode:normal;fill:#f5f5f5;fill-opacity:1;stroke-width:1.51174;-inkscape-stroke:none;filter:url(#filter2039-8-2-8)"
         d="m 392.18164,79.720703 c -1.60985,0.001 -3.21584,0.04094 -4.81836,0.121094 -19.23025,0.9619 -37.86318,7.590987 -53.79492,19.367187 -5.79493,4.283356 -15.61306,14.101516 -19.89648,19.896486 -20.90168,28.2775 -25.29947,64.4297 -11.76758,96.72656 3.55471,8.48413 7.92624,15.73085 14.1582,23.47852 l 3.13281,3.89648 -4.47461,4.48828 c -2.22578,2.23204 -3.49824,3.46476 -4.28125,4.06055 -0.78304,0.59582 -0.86439,0.57015 -1.34179,0.5 -4.23852,-0.6221 -8.87832,2.53672 -10.06836,6.78711 -2.00071,7.14581 4.34815,13.80328 11.40429,11.91601 4.41332,-1.18039 6.97516,-4.46528 7.14258,-9.12695 l 0.0781,-2.09765 4.65234,-4.65235 4.38281,-4.38281 4.04688,3.26172 c 14.93538,12.01958 33.38464,19.60822 51.86523,21.33008 24.4918,2.2819 48.33691,-4.38195 68.19532,-19.06055 5.79489,-4.28335 15.60528,-14.10159 19.88867,-19.89649 26.6441,-36.04639 25.86803,-85.00069 -1.91211,-119.61132 l -3.60352,-4.4961 4.4668,-4.48242 c 2.22458,-2.23094 3.50642,-3.46512 4.28906,-4.06055 0.78265,-0.59538 0.86436,-0.56823 1.3418,-0.49804 4.23855,0.62209 8.87249,-2.53672 10.0625,-6.787112 2.00071,-7.145849 -4.34038,-13.805194 -11.39649,-11.917969 -4.41331,1.180397 -6.98257,4.4731 -7.15039,9.134765 l -0.0723,2.089844 -4.63867,4.638672 -4.36719,4.36719 -4.06836,-3.2461 C 439.73766,90.363098 423.75962,83.321638 406.7168,80.791016 c -4.84837,-0.719918 -9.70561,-1.073427 -14.53516,-1.070313 z m -0.57031,10.34375 c 1.88364,-0.0089 3.76737,0.04256 5.64844,0.154297 15.04854,0.893866 29.91255,5.64014 42.93945,14.15039 16.31809,10.66033 28.92581,26.98887 35.03906,45.38086 9.33174,28.07497 4.29033,58.12884 -13.70898,81.69531 -2.78197,3.64251 -10.27381,11.28712 -14.09375,14.37305 -13.22245,10.68185 -29.36503,17.31706 -46.58594,19.1543 -19.37402,2.06699 -40.17905,-3.05491 -56.91211,-14.02344 -9.51355,-6.23613 -18.69265,-15.42455 -24.97656,-24.99024 -19.23836,-29.28554 -19.23778,-67.1791 0,-96.47656 3.52632,-5.37032 5.28765,-7.53155 10.47656,-12.85937 7.42511,-7.62388 14.29442,-12.66056 23.76953,-17.419925 12.04876,-6.052097 25.2188,-9.07602 38.4043,-9.138672 z m 25.50195,19.402347 c -1.83072,0.0402 -3.69566,0.1663 -5.59375,0.37695 -5.06157,0.56174 -10.35376,1.72561 -15.78711,3.50977 -5.92803,1.94659 -14.94576,6.20199 -20.50976,9.66992 l -3.13282,1.95508 -2.74023,-1.46875 c -8.6932,-4.65644 -16.45171,-6.89898 -23.19922,-6.60938 -6.6976,0.28755 -10.8506,2.67388 -13.33789,7.75781 -1.83589,3.75231 -2.03577,9.65025 -0.68555,15.32227 2.89696,12.16968 12.70819,28.59771 26.92578,45.30859 5.15533,6.05947 19.50308,20.40522 25.5625,25.56055 16.24447,13.82072 32.15319,23.44977 44.30274,26.69727 l 0.94922,0.25 v -0.13477 c 2.45254,0.56199 5.11705,0.93569 7.64843,0.91406 2.84548,-0.0256 5.4436,-0.38829 7.23633,-1.19922 2.86239,-1.29472 5.78975,-4.23178 7.07227,-7.08789 1.45341,-3.23653 1.63111,-9.36983 0.58594,-14.10742 -0.93322,-4.2303 -3.61236,-11.17876 -6.00977,-15.62891 l -1.47656,-2.74023 1.95508,-3.13281 c 1.2371,-1.98489 3.47648,-6.14088 5.03125,-9.32813 12.32715,-25.27056 11.28913,-50.0761 -2.9961,-64.36133 -7.91909,-7.91906 -18.9857,-11.8048 -31.80078,-11.52343 z m 2.99024,10.21875 c 3.10539,-0.0189 4.45912,0.17706 6.9375,0.76953 11.44703,2.73633 19.11803,10.06596 22.20703,21.20117 0.49812,1.79482 0.80868,6.03997 0.81445,10.32617 0.007,4.28624 -0.27778,8.71578 -0.79297,10.97656 -1.43781,6.31078 -3.56962,12.08624 -7.00781,18.96094 -0.95437,1.90835 -1.86653,3.63904 -2.55469,4.88867 -0.29267,0.53127 -0.51646,0.91583 -0.71289,1.24219 -0.0183,-0.0219 -0.0258,-0.03 -0.043,-0.0508 -0.34821,-0.43575 -0.80465,-1.05933 -1.25586,-1.74219 -11.76136,-17.79854 -36.19311,-42.22357 -54.05859,-54.05078 -0.68666,-0.4546 -1.30795,-0.89603 -1.74805,-1.23437 -0.0398,-0.0292 -0.0549,-0.0414 -0.0918,-0.0703 0.22872,-0.15382 0.46414,-0.31571 0.88476,-0.55664 1.10429,-0.63254 2.86859,-1.55717 5.41602,-2.83984 5.80643,-2.92377 10.26921,-4.63185 16.1914,-6.19531 4.33001,-1.1432 5.99904,-1.35588 12.01758,-1.54102 1.53105,-0.047 2.76174,-0.0777 3.79688,-0.084 z m -73.31836,7.34961 c 2.07377,-0.0265 4.78573,0.45881 8.00781,1.5039 1.79917,0.58351 4.00153,1.44815 5.73047,2.21289 0.86449,0.38237 1.61328,0.73628 2.125,1.01367 0.0592,0.0329 0.0763,0.0482 0.1289,0.0781 -0.10084,0.0994 -0.16948,0.17166 -0.29882,0.29297 -0.52454,0.49001 -1.25987,1.13208 -2.07032,1.79883 -1.68476,1.38599 -4.6169,4.10056 -6.58593,6.09375 l -3.92579,3.96875 2.41211,4.64453 2.62696,5.07422 5.88086,-5.92969 c 3.04358,-3.07321 5.97175,-5.77654 8.23437,-7.65039 1.13133,-0.93695 2.09534,-1.67012 2.80469,-2.12695 0.35478,-0.22837 0.64885,-0.38543 0.83398,-0.46289 0.0613,-0.0256 0.0825,-0.0203 0.11133,-0.0215 0.16644,0.0861 0.65334,0.35441 1.3086,0.76953 0.75385,0.47752 1.71987,1.11112 2.7832,1.83399 2.12666,1.44577 4.64644,3.2356 6.65234,4.74023 13.40463,10.05475 27.59332,23.90635 38.19336,37.30078 3.47488,4.39092 8.99443,12.13952 10.26953,14.36524 l 0.54883,0.95703 -2.27539,2.83203 c -1.37419,1.71509 -4.98218,5.61292 -7.93555,8.54883 l -6.13867,6.10156 5.06055,2.62695 4.63086,2.39844 3.53906,-3.47656 c 1.75766,-1.72924 4.47716,-4.66514 6.10156,-6.57813 0.79343,-0.93435 1.55535,-1.78477 2.12696,-2.39258 0.17136,-0.18232 0.2815,-0.28677 0.41406,-0.41992 l 0.0156,0.0215 c 0.24846,0.44971 0.57538,1.12733 0.9336,1.92773 0.7164,1.6008 1.56649,3.71636 2.26367,5.72266 0.64541,1.85759 1.10879,4.27543 1.29883,6.4375 0.18999,2.16206 0.0496,4.13639 -0.24414,4.8457 -0.21485,0.51895 -1.02138,1.40276 -1.45508,1.62695 -0.48932,0.25285 -2.10419,0.51631 -3.8457,0.51368 -1.74152,-0.003 -3.68639,-0.20723 -5.08985,-0.58594 -10.67381,-2.8811 -24.47009,-11.13742 -39.95508,-24.01367 -6.15866,-5.1211 -20.89143,-19.9324 -26.20507,-26.35352 -11.50999,-13.90878 -18.73704,-25.48319 -22.4375,-35.85351 -0.80508,-2.25648 -1.35352,-4.80121 -1.58985,-7.0293 -0.2364,-2.22805 -0.11186,-4.17674 0.24219,-5.03125 0.54946,-1.32651 1.7648,-2.08619 3.92383,-2.28321 v -0.002 c 0.26988,-0.0246 0.55335,-0.0372 0.84961,-0.041 z m 25.59179,25.20507 c -1.15379,-0.0365 -2.15482,0.21343 -3.10547,0.70508 -1.73409,0.89672 -2.51821,2.76117 -2.45507,4.96094 0.0632,2.19977 0.87001,4.83786 2.27734,7.79883 2.81467,5.92201 8.06775,13.12833 15.02148,20.08203 4.18923,4.18923 8.89627,8.05978 13.3086,11.06836 4.41233,3.00858 8.50577,5.15613 11.61914,5.87305 3.04277,0.70061 5.44924,0.47732 6.97265,-0.89844 1.52342,-1.37573 1.88524,-3.69906 1.26954,-6.61524 -1.46076,-6.91818 -8.02124,-16.18764 -16,-24.42773 -7.97877,-8.24009 -17.34584,-15.38685 -24.74219,-17.68359 -1.71411,-0.53225 -3.01222,-0.8277 -4.16602,-0.86329 z m -36.0332,11.47461 c -0.2934,-0.011 -0.44915,0.10026 -0.54883,0.17188 -0.10084,0.0723 -0.15968,0.1387 -0.2207,0.20703 -0.1224,0.13665 -0.2305,0.28075 -0.34961,0.46289 -0.23823,0.36465 -0.51747,0.85591 -0.83594,1.45703 -0.63697,1.20225 -1.42785,2.84437 -2.2539,4.65235 -1.65214,3.61587 -3.43211,7.88048 -4.32422,10.60351 -5.50833,16.81366 -4.96779,32.03094 0.69922,43.51758 5.667,11.4866 16.49149,19.18217 31.22851,20.90234 12.13943,1.41691 26.07677,-1.45193 40.0918,-8.1914 1.64414,-0.79065 3.14006,-1.55605 4.23047,-2.14844 0.54518,-0.29632 0.98988,-0.54616 1.31445,-0.75 0.16223,-0.10194 0.28922,-0.18527 0.40625,-0.27734 0.0585,-0.046 0.10904,-0.0962 0.17773,-0.17188 0.0329,-0.0376 0.0754,-0.0782 0.1211,-0.1582 0.0219,-0.0402 0.0507,-0.0941 0.0723,-0.16211 0.011,-0.0329 0.0293,-0.11377 0.0293,-0.11524 2.9e-4,-0.002 0.008,-0.14893 0.008,-0.15039 v -0.006 c -1.4e-4,-0.003 -0.0147,-0.13109 -0.0293,-0.17968 -0.0146,-0.0486 -0.0294,-0.0882 -0.043,-0.1211 -0.0292,-0.0658 -0.0604,-0.11153 -0.0859,-0.14843 -0.0515,-0.0742 -0.0973,-0.11766 -0.14258,-0.16407 -0.0902,-0.0932 -0.18459,-0.17648 -0.30078,-0.27148 -0.23238,-0.19036 -0.54369,-0.42149 -0.91992,-0.68555 -0.75243,-0.52812 -1.77001,-1.19537 -2.89063,-1.88476 l -4.38086,-2.68946 -4.16796,1.92578 c -4.47047,2.06652 -11.32274,4.38655 -15.80664,5.35938 -5.11591,1.10991 -14.90092,1.33587 -19.16797,0.47266 -12.63423,-2.5558 -20.96609,-10.88349 -23.52149,-23.51563 -1.04323,-5.1569 -0.66619,-14.73981 0.85547,-20.81641 1.24412,-4.96833 3.69971,-11.79894 5.53125,-15.44336 l 1.41211,-2.82617 -2.71875,-4.41601 c -0.69404,-1.12808 -1.36064,-2.15464 -1.89062,-2.91211 -0.26491,-0.37872 -0.49544,-0.68637 -0.68555,-0.91992 -0.095,-0.11693 -0.17709,-0.21603 -0.26953,-0.30665 -0.0464,-0.0453 -0.0899,-0.0923 -0.16407,-0.14453 -0.0369,-0.0256 -0.0835,-0.0537 -0.15039,-0.084 -0.0329,-0.0146 -0.0714,-0.0295 -0.12109,-0.043 -0.0479,-0.0146 -0.16763,-0.0256 -0.17969,-0.0293 z m 49.52734,7.70118 c 0.18233,0.011 0.46078,0.0377 0.86329,0.0918 1.71114,0.22946 4.85452,2.35092 7.36523,4.89649 1.25537,1.27276 2.38199,2.63797 3.17578,3.88867 0.79383,1.25069 1.22656,2.40063 1.22656,3.06055 0,0.31641 -0.011,0.5383 -0.0293,0.65625 -0.11802,0.0183 -0.33987,0.0371 -0.65625,0.0371 -0.66657,0 -1.88512,-0.47681 -3.19727,-1.33399 -1.31215,-0.85718 -2.75094,-2.05937 -4.06836,-3.38281 -1.31741,-1.32345 -2.51369,-2.77137 -3.36719,-4.08985 -0.85345,-1.31851 -1.32812,-2.53728 -1.32812,-3.21093 0,-0.30144 0.005,-0.4725 0.0156,-0.61328 z"
         transform="matrix(0.25694949,0,0,0.25694949,-704.19578,72.912409)"
         inkscape:label="Gyro Icon" /></g><g
       id="g390"
       inkscape:export-filename="..\switchleftjoycon_gyro-accel.png"
       inkscape:export-xdpi="95.8863"
       inkscape:export-ydpi="95.8863"><path
         style="fill:#107893;fill-opacity:1;stroke:#25d1f5;stroke-width:2.3;stroke-dasharray:none;stroke-opacity:1"
         d="m -380.27994,241.3065 c -6.71936,-0.76174 -14.15328,-3.24406 -19.74111,-6.59193 -13.77533,-8.25329 -22.66267,-22.05943 -24.38744,-37.88497 -0.39223,-3.59892 -0.39033,-145.539241 0.002,-149.113569 0.44186,-4.025577 1.68102,-9.165878 3.02714,-12.557281 0.13759,-0.346636 0.0528,-0.463021 -0.33752,-0.463021 -0.93451,0 -1.91428,-1.006546 -1.91428,-1.966595 0,-1.62094 3.97608,-8.660804 7.18294,-12.71778 0.57514,-0.727604 1.87678,-2.618945 2.89253,-4.20298 2.51323,-3.919299 4.958,-7.0270577 7.52774,-9.5691337 7.40811,-7.328384 18.30599,-11.103483 30.63822,-10.613289 6.24354,0.248174 10.50796,1.352974 12.9152,3.345989 0.70641,0.58485502 1.49876,1.06337302 1.76077,1.06337302 0.69738,0 1.84507,1.49384098 1.84507,2.40154998 v 0.77345 h 5.40647 c 8.11101,0 7.64719,-0.533486 7.76374,8.9296867 l 0.0855,6.945313 h 2.64425 c 2.57571,0 2.66445,0.02023 3.42414,0.780627 l 0.77989,0.780627 -0.0733,17.718814 -0.0733,17.718815 -0.85365,1.212017 c -0.4695,0.66661 -0.73714,1.212016 -0.59475,1.212016 0.14238,0 0.49679,0.238125 0.78756,0.529167 0.5084,0.508878 0.52867,0.881944 0.52867,9.730711 0,10.016765 -0.0511,10.377622 -1.46884,10.377622 -0.82877,0 -0.81604,0.279837 0.0491,1.07836 1.49047,1.37577 1.41978,-0.393602 1.41978,35.540711 0,22.81148 -0.0879,33.42949 -0.28115,33.94131 -0.15464,0.40966 -0.59322,1.07225 -0.97463,1.47244 -0.66872,0.70162 -0.67338,0.7276 -0.13035,0.7276 1.32411,0 1.38613,0.46433 1.38613,10.37762 0,8.84877 -0.0203,9.22184 -0.52867,9.73071 -0.33858,0.3389 -0.88112,0.52917 -1.50889,0.52917 h -0.98022 l 1.09988,1.12448 c 2.02398,2.06927 1.9179,0.85079 1.9179,22.03009 v 18.93823 l -0.6777,0.67834 c -0.62503,0.62561 -0.82269,0.67013 -2.54301,0.57284 -2.81281,-0.15909 -2.85903,-0.25263 -2.85903,-5.78684 0,-2.5993 -0.10701,-4.51919 -0.25707,-4.61202 -0.16527,-0.10224 -0.28326,6.13621 -0.33042,17.47037 l -0.0734,17.62939 -0.62404,0.50569 c -0.59977,0.48601 -1.23221,0.50434 -16.25671,0.47135 -8.59796,-0.0189 -16.5248,-0.13546 -17.61518,-0.25907 z"
         id="path12097" /><path
         id="path17403-4"
         style="color:#000000;display:inline;mix-blend-mode:normal;fill:#f5f5f5;fill-opacity:1;stroke-width:1.51174;-inkscape-stroke:none;filter:url(#filter2039-8-4)"
         d="m 392.18164,79.720703 c -1.60985,0.001 -3.21584,0.04094 -4.81836,0.121094 -19.23025,0.9619 -37.86318,7.590987 -53.79492,19.367187 -5.79493,4.283356 -15.61306,14.101516 -19.89648,19.896486 -20.90168,28.2775 -25.29947,64.4297 -11.76758,96.72656 3.55471,8.48413 7.92624,15.73085 14.1582,23.47852 l 3.13281,3.89648 -4.47461,4.48828 c -2.22578,2.23204 -3.49824,3.46476 -4.28125,4.06055 -0.78304,0.59582 -0.86439,0.57015 -1.34179,0.5 -4.23852,-0.6221 -8.87832,2.53672 -10.06836,6.78711 -2.00071,7.14581 4.34815,13.80328 11.40429,11.91601 4.41332,-1.18039 6.97516,-4.46528 7.14258,-9.12695 l 0.0781,-2.09765 4.65234,-4.65235 4.38281,-4.38281 4.04688,3.26172 c 14.93538,12.01958 33.38464,19.60822 51.86523,21.33008 24.4918,2.2819 48.33691,-4.38195 68.19532,-19.06055 5.79489,-4.28335 15.60528,-14.10159 19.88867,-19.89649 26.6441,-36.04639 25.86803,-85.00069 -1.91211,-119.61132 l -3.60352,-4.4961 4.4668,-4.48242 c 2.22458,-2.23094 3.50642,-3.46512 4.28906,-4.06055 0.78265,-0.59538 0.86436,-0.56823 1.3418,-0.49804 4.23855,0.62209 8.87249,-2.53672 10.0625,-6.787112 2.00071,-7.145849 -4.34038,-13.805194 -11.39649,-11.917969 -4.41331,1.180397 -6.98257,4.4731 -7.15039,9.134765 l -0.0723,2.089844 -4.63867,4.638672 -4.36719,4.36719 -4.06836,-3.2461 C 439.73766,90.363098 423.75962,83.321638 406.7168,80.791016 c -4.84837,-0.719918 -9.70561,-1.073427 -14.53516,-1.070313 z m -0.57031,10.34375 c 1.88364,-0.0089 3.76737,0.04256 5.64844,0.154297 15.04854,0.893866 29.91255,5.64014 42.93945,14.15039 16.31809,10.66033 28.92581,26.98887 35.03906,45.38086 9.33174,28.07497 4.29033,58.12884 -13.70898,81.69531 -2.78197,3.64251 -10.27381,11.28712 -14.09375,14.37305 -13.22245,10.68185 -29.36503,17.31706 -46.58594,19.1543 -19.37402,2.06699 -40.17905,-3.05491 -56.91211,-14.02344 -9.51355,-6.23613 -18.69265,-15.42455 -24.97656,-24.99024 -19.23836,-29.28554 -19.23778,-67.1791 0,-96.47656 3.52632,-5.37032 5.28765,-7.53155 10.47656,-12.85937 7.42511,-7.62388 14.29442,-12.66056 23.76953,-17.419925 12.04876,-6.052097 25.2188,-9.07602 38.4043,-9.138672 z m 25.50195,19.402347 c -1.83072,0.0402 -3.69566,0.1663 -5.59375,0.37695 -5.06157,0.56174 -10.35376,1.72561 -15.78711,3.50977 -5.92803,1.94659 -14.94576,6.20199 -20.50976,9.66992 l -3.13282,1.95508 -2.74023,-1.46875 c -8.6932,-4.65644 -16.45171,-6.89898 -23.19922,-6.60938 -6.6976,0.28755 -10.8506,2.67388 -13.33789,7.75781 -1.83589,3.75231 -2.03577,9.65025 -0.68555,15.32227 2.89696,12.16968 12.70819,28.59771 26.92578,45.30859 5.15533,6.05947 19.50308,20.40522 25.5625,25.56055 16.24447,13.82072 32.15319,23.44977 44.30274,26.69727 l 0.94922,0.25 v -0.13477 c 2.45254,0.56199 5.11705,0.93569 7.64843,0.91406 2.84548,-0.0256 5.4436,-0.38829 7.23633,-1.19922 2.86239,-1.29472 5.78975,-4.23178 7.07227,-7.08789 1.45341,-3.23653 1.63111,-9.36983 0.58594,-14.10742 -0.93322,-4.2303 -3.61236,-11.17876 -6.00977,-15.62891 l -1.47656,-2.74023 1.95508,-3.13281 c 1.2371,-1.98489 3.47648,-6.14088 5.03125,-9.32813 12.32715,-25.27056 11.28913,-50.0761 -2.9961,-64.36133 -7.91909,-7.91906 -18.9857,-11.8048 -31.80078,-11.52343 z m 2.99024,10.21875 c 3.10539,-0.0189 4.45912,0.17706 6.9375,0.76953 11.44703,2.73633 19.11803,10.06596 22.20703,21.20117 0.49812,1.79482 0.80868,6.03997 0.81445,10.32617 0.007,4.28624 -0.27778,8.71578 -0.79297,10.97656 -1.43781,6.31078 -3.56962,12.08624 -7.00781,18.96094 -0.95437,1.90835 -1.86653,3.63904 -2.55469,4.88867 -0.29267,0.53127 -0.51646,0.91583 -0.71289,1.24219 -0.0183,-0.0219 -0.0258,-0.03 -0.043,-0.0508 -0.34821,-0.43575 -0.80465,-1.05933 -1.25586,-1.74219 -11.76136,-17.79854 -36.19311,-42.22357 -54.05859,-54.05078 -0.68666,-0.4546 -1.30795,-0.89603 -1.74805,-1.23437 -0.0398,-0.0292 -0.0549,-0.0414 -0.0918,-0.0703 0.22872,-0.15382 0.46414,-0.31571 0.88476,-0.55664 1.10429,-0.63254 2.86859,-1.55717 5.41602,-2.83984 5.80643,-2.92377 10.26921,-4.63185 16.1914,-6.19531 4.33001,-1.1432 5.99904,-1.35588 12.01758,-1.54102 1.53105,-0.047 2.76174,-0.0777 3.79688,-0.084 z m -73.31836,7.34961 c 2.07377,-0.0265 4.78573,0.45881 8.00781,1.5039 1.79917,0.58351 4.00153,1.44815 5.73047,2.21289 0.86449,0.38237 1.61328,0.73628 2.125,1.01367 0.0592,0.0329 0.0763,0.0482 0.1289,0.0781 -0.10084,0.0994 -0.16948,0.17166 -0.29882,0.29297 -0.52454,0.49001 -1.25987,1.13208 -2.07032,1.79883 -1.68476,1.38599 -4.6169,4.10056 -6.58593,6.09375 l -3.92579,3.96875 2.41211,4.64453 2.62696,5.07422 5.88086,-5.92969 c 3.04358,-3.07321 5.97175,-5.77654 8.23437,-7.65039 1.13133,-0.93695 2.09534,-1.67012 2.80469,-2.12695 0.35478,-0.22837 0.64885,-0.38543 0.83398,-0.46289 0.0613,-0.0256 0.0825,-0.0203 0.11133,-0.0215 0.16644,0.0861 0.65334,0.35441 1.3086,0.76953 0.75385,0.47752 1.71987,1.11112 2.7832,1.83399 2.12666,1.44577 4.64644,3.2356 6.65234,4.74023 13.40463,10.05475 27.59332,23.90635 38.19336,37.30078 3.47488,4.39092 8.99443,12.13952 10.26953,14.36524 l 0.54883,0.95703 -2.27539,2.83203 c -1.37419,1.71509 -4.98218,5.61292 -7.93555,8.54883 l -6.13867,6.10156 5.06055,2.62695 4.63086,2.39844 3.53906,-3.47656 c 1.75766,-1.72924 4.47716,-4.66514 6.10156,-6.57813 0.79343,-0.93435 1.55535,-1.78477 2.12696,-2.39258 0.17136,-0.18232 0.2815,-0.28677 0.41406,-0.41992 l 0.0156,0.0215 c 0.24846,0.44971 0.57538,1.12733 0.9336,1.92773 0.7164,1.6008 1.56649,3.71636 2.26367,5.72266 0.64541,1.85759 1.10879,4.27543 1.29883,6.4375 0.18999,2.16206 0.0496,4.13639 -0.24414,4.8457 -0.21485,0.51895 -1.02138,1.40276 -1.45508,1.62695 -0.48932,0.25285 -2.10419,0.51631 -3.8457,0.51368 -1.74152,-0.003 -3.68639,-0.20723 -5.08985,-0.58594 -10.67381,-2.8811 -24.47009,-11.13742 -39.95508,-24.01367 -6.15866,-5.1211 -20.89143,-19.9324 -26.20507,-26.35352 -11.50999,-13.90878 -18.73704,-25.48319 -22.4375,-35.85351 -0.80508,-2.25648 -1.35352,-4.80121 -1.58985,-7.0293 -0.2364,-2.22805 -0.11186,-4.17674 0.24219,-5.03125 0.54946,-1.32651 1.7648,-2.08619 3.92383,-2.28321 v -0.002 c 0.26988,-0.0246 0.55335,-0.0372 0.84961,-0.041 z m 25.59179,25.20507 c -1.15379,-0.0365 -2.15482,0.21343 -3.10547,0.70508 -1.73409,0.89672 -2.51821,2.76117 -2.45507,4.96094 0.0632,2.19977 0.87001,4.83786 2.27734,7.79883 2.81467,5.92201 8.06775,13.12833 15.02148,20.08203 4.18923,4.18923 8.89627,8.05978 13.3086,11.06836 4.41233,3.00858 8.50577,5.15613 11.61914,5.87305 3.04277,0.70061 5.44924,0.47732 6.97265,-0.89844 1.52342,-1.37573 1.88524,-3.69906 1.26954,-6.61524 -1.46076,-6.91818 -8.02124,-16.18764 -16,-24.42773 -7.97877,-8.24009 -17.34584,-15.38685 -24.74219,-17.68359 -1.71411,-0.53225 -3.01222,-0.8277 -4.16602,-0.86329 z m -36.0332,11.47461 c -0.2934,-0.011 -0.44915,0.10026 -0.54883,0.17188 -0.10084,0.0723 -0.15968,0.1387 -0.2207,0.20703 -0.1224,0.13665 -0.2305,0.28075 -0.34961,0.46289 -0.23823,0.36465 -0.51747,0.85591 -0.83594,1.45703 -0.63697,1.20225 -1.42785,2.84437 -2.2539,4.65235 -1.65214,3.61587 -3.43211,7.88048 -4.32422,10.60351 -5.50833,16.81366 -4.96779,32.03094 0.69922,43.51758 5.667,11.4866 16.49149,19.18217 31.22851,20.90234 12.13943,1.41691 26.07677,-1.45193 40.0918,-8.1914 1.64414,-0.79065 3.14006,-1.55605 4.23047,-2.14844 0.54518,-0.29632 0.98988,-0.54616 1.31445,-0.75 0.16223,-0.10194 0.28922,-0.18527 0.40625,-0.27734 0.0585,-0.046 0.10904,-0.0962 0.17773,-0.17188 0.0329,-0.0376 0.0754,-0.0782 0.1211,-0.1582 0.0219,-0.0402 0.0507,-0.0941 0.0723,-0.16211 0.011,-0.0329 0.0293,-0.11377 0.0293,-0.11524 2.9e-4,-0.002 0.008,-0.14893 0.008,-0.15039 v -0.006 c -1.4e-4,-0.003 -0.0147,-0.13109 -0.0293,-0.17968 -0.0146,-0.0486 -0.0294,-0.0882 -0.043,-0.1211 -0.0292,-0.0658 -0.0604,-0.11153 -0.0859,-0.14843 -0.0515,-0.0742 -0.0973,-0.11766 -0.14258,-0.16407 -0.0902,-0.0932 -0.18459,-0.17648 -0.30078,-0.27148 -0.23238,-0.19036 -0.54369,-0.42149 -0.91992,-0.68555 -0.75243,-0.52812 -1.77001,-1.19537 -2.89063,-1.88476 l -4.38086,-2.68946 -4.16796,1.92578 c -4.47047,2.06652 -11.32274,4.38655 -15.80664,5.35938 -5.11591,1.10991 -14.90092,1.33587 -19.16797,0.47266 -12.63423,-2.5558 -20.96609,-10.88349 -23.52149,-23.51563 -1.04323,-5.1569 -0.66619,-14.73981 0.85547,-20.81641 1.24412,-4.96833 3.69971,-11.79894 5.53125,-15.44336 l 1.41211,-2.82617 -2.71875,-4.41601 c -0.69404,-1.12808 -1.36064,-2.15464 -1.89062,-2.91211 -0.26491,-0.37872 -0.49544,-0.68637 -0.68555,-0.91992 -0.095,-0.11693 -0.17709,-0.21603 -0.26953,-0.30665 -0.0464,-0.0453 -0.0899,-0.0923 -0.16407,-0.14453 -0.0369,-0.0256 -0.0835,-0.0537 -0.15039,-0.084 -0.0329,-0.0146 -0.0714,-0.0295 -0.12109,-0.043 -0.0479,-0.0146 -0.16763,-0.0256 -0.17969,-0.0293 z m 49.52734,7.70118 c 0.18233,0.011 0.46078,0.0377 0.86329,0.0918 1.71114,0.22946 4.85452,2.35092 7.36523,4.89649 1.25537,1.27276 2.38199,2.63797 3.17578,3.88867 0.79383,1.25069 1.22656,2.40063 1.22656,3.06055 0,0.31641 -0.011,0.5383 -0.0293,0.65625 -0.11802,0.0183 -0.33987,0.0371 -0.65625,0.0371 -0.66657,0 -1.88512,-0.47681 -3.19727,-1.33399 -1.31215,-0.85718 -2.75094,-2.05937 -4.06836,-3.38281 -1.31741,-1.32345 -2.51369,-2.77137 -3.36719,-4.08985 -0.85345,-1.31851 -1.32812,-2.53728 -1.32812,-3.21093 0,-0.30144 0.005,-0.4725 0.0156,-0.61328 z"
         transform="matrix(0.25694949,0,0,0.25694949,-482.49718,72.913515)"
         inkscape:label="Gyro Icon" /></g><g
       id="g394"
       inkscape:export-filename="..\switchrightjoycon_gyro-accel.png"
       inkscape:export-xdpi="95.8863"
       inkscape:export-ydpi="95.8863"><path
         style="fill:#107893;fill-opacity:1;stroke:#25d1f5;stroke-width:2.3;stroke-dasharray:none;stroke-opacity:1"
         d="m -287.41902,240.84083 c -0.54156,-0.68911 -0.54786,-0.89587 -0.54786,-17.99119 0,-11.35299 -0.0908,-17.29406 -0.26434,-17.29406 -0.1659,0 -0.26433,1.68243 -0.26433,4.51815 v 4.51815 l -0.77268,0.77337 c -0.68063,0.68125 -0.95979,0.77338 -2.34338,0.77338 -1.18878,0 -1.74006,-0.13334 -2.2672,-0.54835 l -0.69648,-0.54836 v -19.17107 c 0,-21.12595 -0.0792,-20.10262 1.68666,-21.7856 0.52619,-0.50147 0.9567,-1.00747 0.9567,-1.12444 0,-0.11698 -0.39789,-0.21268 -0.88421,-0.21268 -1.77764,0 -1.75915,0.10915 -1.75915,-10.38655 0,-8.20984 0.0533,-9.47224 0.41538,-9.83463 0.22846,-0.22867 0.5827,-0.41576 0.78719,-0.41576 0.26054,0 0.13623,-0.37179 -0.41539,-1.2424 l -0.78718,-1.24239 v -33.56677 c 0,-24.693565 0.08,-33.719545 0.30258,-34.144682 0.16642,-0.317846 0.65222,-1.024375 1.07956,-1.570064 l 0.77697,-0.992161 h -0.80592 c -0.52625,0 -0.90088,-0.177588 -1.07956,-0.511759 -0.1737,-0.32486 -0.27363,-3.900022 -0.27363,-9.78932 0,-8.924793 0.0201,-9.297681 0.52867,-9.806713 0.29077,-0.291034 0.66988,-0.529152 0.84246,-0.529152 0.17259,0 0.002,-0.327413 -0.37968,-0.727585 -0.38142,-0.400171 -0.82,-1.062747 -0.97464,-1.472393 -0.30458,-0.806881 -0.41638,-35.238426 -0.11695,-36.019432 0.32466,-0.846824 1.56214,-1.202446 4.18423,-1.202446 h 2.52432 v -6.892121 c 0,-9.7462327 -0.40023,-9.2470277 7.41364,-9.2470277 h 5.44565 l 0.37702,-1.236979 c 0.31026,-1.01791698 0.56428,-1.33142098 1.43437,-1.77027298 0.58155,-0.293312 1.57449,-0.923052 2.20654,-1.39942202 1.43169,-1.079037 3.40964,-1.838758 6.64874,-2.553745 3.63894,-0.803246 12.26112,-0.791089 16.68245,0.02352 12.27583,2.261763 19.96402,7.750413 27.87638,19.9011307 0.99497,1.527928 2.48741,3.673869 3.31653,4.768758 2.94548,3.889605 6.57799,10.420298 6.57799,11.826222 0,0.769366 -1.10375,1.925355 -1.83834,1.925355 -0.29738,0 -0.54069,0.04438 -0.54069,0.09863 0,0.05425 0.40358,1.334134 0.89684,2.844195 1.07267,3.283832 1.89835,7.302936 2.26836,11.041601 0.37642,3.80332 0.37316,143.277283 -0.003,147.274783 -0.58447,6.20408 -2.18247,11.91939 -4.88236,17.46203 -2.60443,5.34666 -5.13013,8.90117 -9.46598,13.32184 -4.21431,4.29675 -8.30441,7.22318 -13.74062,9.83129 -3.9854,1.91206 -6.86967,2.92768 -10.77902,3.79554 -4.9952,1.10891 -7.28389,1.2287 -23.47559,1.2287 h -15.32279 z"
         id="path12099"
         sodipodi:nodetypes="sssscssscsssssssscssscssssssssscsscsssssssssssscssssscs" /><path
         id="path17403"
         style="color:#000000;display:inline;mix-blend-mode:normal;fill:#f5f5f5;fill-opacity:1;stroke-width:1.51174;-inkscape-stroke:none;filter:url(#filter2039-8)"
         d="m 392.18164,79.720703 c -1.60985,0.001 -3.21584,0.04094 -4.81836,0.121094 -19.23025,0.9619 -37.86318,7.590987 -53.79492,19.367187 -5.79493,4.283356 -15.61306,14.101516 -19.89648,19.896486 -20.90168,28.2775 -25.29947,64.4297 -11.76758,96.72656 3.55471,8.48413 7.92624,15.73085 14.1582,23.47852 l 3.13281,3.89648 -4.47461,4.48828 c -2.22578,2.23204 -3.49824,3.46476 -4.28125,4.06055 -0.78304,0.59582 -0.86439,0.57015 -1.34179,0.5 -4.23852,-0.6221 -8.87832,2.53672 -10.06836,6.78711 -2.00071,7.14581 4.34815,13.80328 11.40429,11.91601 4.41332,-1.18039 6.97516,-4.46528 7.14258,-9.12695 l 0.0781,-2.09765 4.65234,-4.65235 4.38281,-4.38281 4.04688,3.26172 c 14.93538,12.01958 33.38464,19.60822 51.86523,21.33008 24.4918,2.2819 48.33691,-4.38195 68.19532,-19.06055 5.79489,-4.28335 15.60528,-14.10159 19.88867,-19.89649 26.6441,-36.04639 25.86803,-85.00069 -1.91211,-119.61132 l -3.60352,-4.4961 4.4668,-4.48242 c 2.22458,-2.23094 3.50642,-3.46512 4.28906,-4.06055 0.78265,-0.59538 0.86436,-0.56823 1.3418,-0.49804 4.23855,0.62209 8.87249,-2.53672 10.0625,-6.787112 2.00071,-7.145849 -4.34038,-13.805194 -11.39649,-11.917969 -4.41331,1.180397 -6.98257,4.4731 -7.15039,9.134765 l -0.0723,2.089844 -4.63867,4.638672 -4.36719,4.36719 -4.06836,-3.2461 C 439.73766,90.363098 423.75962,83.321638 406.7168,80.791016 c -4.84837,-0.719918 -9.70561,-1.073427 -14.53516,-1.070313 z m -0.57031,10.34375 c 1.88364,-0.0089 3.76737,0.04256 5.64844,0.154297 15.04854,0.893866 29.91255,5.64014 42.93945,14.15039 16.31809,10.66033 28.92581,26.98887 35.03906,45.38086 9.33174,28.07497 4.29033,58.12884 -13.70898,81.69531 -2.78197,3.64251 -10.27381,11.28712 -14.09375,14.37305 -13.22245,10.68185 -29.36503,17.31706 -46.58594,19.1543 -19.37402,2.06699 -40.17905,-3.05491 -56.91211,-14.02344 -9.51355,-6.23613 -18.69265,-15.42455 -24.97656,-24.99024 -19.23836,-29.28554 -19.23778,-67.1791 0,-96.47656 3.52632,-5.37032 5.28765,-7.53155 10.47656,-12.85937 7.42511,-7.62388 14.29442,-12.66056 23.76953,-17.419925 12.04876,-6.052097 25.2188,-9.07602 38.4043,-9.138672 z m 25.50195,19.402347 c -1.83072,0.0402 -3.69566,0.1663 -5.59375,0.37695 -5.06157,0.56174 -10.35376,1.72561 -15.78711,3.50977 -5.92803,1.94659 -14.94576,6.20199 -20.50976,9.66992 l -3.13282,1.95508 -2.74023,-1.46875 c -8.6932,-4.65644 -16.45171,-6.89898 -23.19922,-6.60938 -6.6976,0.28755 -10.8506,2.67388 -13.33789,7.75781 -1.83589,3.75231 -2.03577,9.65025 -0.68555,15.32227 2.89696,12.16968 12.70819,28.59771 26.92578,45.30859 5.15533,6.05947 19.50308,20.40522 25.5625,25.56055 16.24447,13.82072 32.15319,23.44977 44.30274,26.69727 l 0.94922,0.25 v -0.13477 c 2.45254,0.56199 5.11705,0.93569 7.64843,0.91406 2.84548,-0.0256 5.4436,-0.38829 7.23633,-1.19922 2.86239,-1.29472 5.78975,-4.23178 7.07227,-7.08789 1.45341,-3.23653 1.63111,-9.36983 0.58594,-14.10742 -0.93322,-4.2303 -3.61236,-11.17876 -6.00977,-15.62891 l -1.47656,-2.74023 1.95508,-3.13281 c 1.2371,-1.98489 3.47648,-6.14088 5.03125,-9.32813 12.32715,-25.27056 11.28913,-50.0761 -2.9961,-64.36133 -7.91909,-7.91906 -18.9857,-11.8048 -31.80078,-11.52343 z m 2.99024,10.21875 c 3.10539,-0.0189 4.45912,0.17706 6.9375,0.76953 11.44703,2.73633 19.11803,10.06596 22.20703,21.20117 0.49812,1.79482 0.80868,6.03997 0.81445,10.32617 0.007,4.28624 -0.27778,8.71578 -0.79297,10.97656 -1.43781,6.31078 -3.56962,12.08624 -7.00781,18.96094 -0.95437,1.90835 -1.86653,3.63904 -2.55469,4.88867 -0.29267,0.53127 -0.51646,0.91583 -0.71289,1.24219 -0.0183,-0.0219 -0.0258,-0.03 -0.043,-0.0508 -0.34821,-0.43575 -0.80465,-1.05933 -1.25586,-1.74219 -11.76136,-17.79854 -36.19311,-42.22357 -54.05859,-54.05078 -0.68666,-0.4546 -1.30795,-0.89603 -1.74805,-1.23437 -0.0398,-0.0292 -0.0549,-0.0414 -0.0918,-0.0703 0.22872,-0.15382 0.46414,-0.31571 0.88476,-0.55664 1.10429,-0.63254 2.86859,-1.55717 5.41602,-2.83984 5.80643,-2.92377 10.26921,-4.63185 16.1914,-6.19531 4.33001,-1.1432 5.99904,-1.35588 12.01758,-1.54102 1.53105,-0.047 2.76174,-0.0777 3.79688,-0.084 z m -73.31836,7.34961 c 2.07377,-0.0265 4.78573,0.45881 8.00781,1.5039 1.79917,0.58351 4.00153,1.44815 5.73047,2.21289 0.86449,0.38237 1.61328,0.73628 2.125,1.01367 0.0592,0.0329 0.0763,0.0482 0.1289,0.0781 -0.10084,0.0994 -0.16948,0.17166 -0.29882,0.29297 -0.52454,0.49001 -1.25987,1.13208 -2.07032,1.79883 -1.68476,1.38599 -4.6169,4.10056 -6.58593,6.09375 l -3.92579,3.96875 2.41211,4.64453 2.62696,5.07422 5.88086,-5.92969 c 3.04358,-3.07321 5.97175,-5.77654 8.23437,-7.65039 1.13133,-0.93695 2.09534,-1.67012 2.80469,-2.12695 0.35478,-0.22837 0.64885,-0.38543 0.83398,-0.46289 0.0613,-0.0256 0.0825,-0.0203 0.11133,-0.0215 0.16644,0.0861 0.65334,0.35441 1.3086,0.76953 0.75385,0.47752 1.71987,1.11112 2.7832,1.83399 2.12666,1.44577 4.64644,3.2356 6.65234,4.74023 13.40463,10.05475 27.59332,23.90635 38.19336,37.30078 3.47488,4.39092 8.99443,12.13952 10.26953,14.36524 l 0.54883,0.95703 -2.27539,2.83203 c -1.37419,1.71509 -4.98218,5.61292 -7.93555,8.54883 l -6.13867,6.10156 5.06055,2.62695 4.63086,2.39844 3.53906,-3.47656 c 1.75766,-1.72924 4.47716,-4.66514 6.10156,-6.57813 0.79343,-0.93435 1.55535,-1.78477 2.12696,-2.39258 0.17136,-0.18232 0.2815,-0.28677 0.41406,-0.41992 l 0.0156,0.0215 c 0.24846,0.44971 0.57538,1.12733 0.9336,1.92773 0.7164,1.6008 1.56649,3.71636 2.26367,5.72266 0.64541,1.85759 1.10879,4.27543 1.29883,6.4375 0.18999,2.16206 0.0496,4.13639 -0.24414,4.8457 -0.21485,0.51895 -1.02138,1.40276 -1.45508,1.62695 -0.48932,0.25285 -2.10419,0.51631 -3.8457,0.51368 -1.74152,-0.003 -3.68639,-0.20723 -5.08985,-0.58594 -10.67381,-2.8811 -24.47009,-11.13742 -39.95508,-24.01367 -6.15866,-5.1211 -20.89143,-19.9324 -26.20507,-26.35352 -11.50999,-13.90878 -18.73704,-25.48319 -22.4375,-35.85351 -0.80508,-2.25648 -1.35352,-4.80121 -1.58985,-7.0293 -0.2364,-2.22805 -0.11186,-4.17674 0.24219,-5.03125 0.54946,-1.32651 1.7648,-2.08619 3.92383,-2.28321 v -0.002 c 0.26988,-0.0246 0.55335,-0.0372 0.84961,-0.041 z m 25.59179,25.20507 c -1.15379,-0.0365 -2.15482,0.21343 -3.10547,0.70508 -1.73409,0.89672 -2.51821,2.76117 -2.45507,4.96094 0.0632,2.19977 0.87001,4.83786 2.27734,7.79883 2.81467,5.92201 8.06775,13.12833 15.02148,20.08203 4.18923,4.18923 8.89627,8.05978 13.3086,11.06836 4.41233,3.00858 8.50577,5.15613 11.61914,5.87305 3.04277,0.70061 5.44924,0.47732 6.97265,-0.89844 1.52342,-1.37573 1.88524,-3.69906 1.26954,-6.61524 -1.46076,-6.91818 -8.02124,-16.18764 -16,-24.42773 -7.97877,-8.24009 -17.34584,-15.38685 -24.74219,-17.68359 -1.71411,-0.53225 -3.01222,-0.8277 -4.16602,-0.86329 z m -36.0332,11.47461 c -0.2934,-0.011 -0.44915,0.10026 -0.54883,0.17188 -0.10084,0.0723 -0.15968,0.1387 -0.2207,0.20703 -0.1224,0.13665 -0.2305,0.28075 -0.34961,0.46289 -0.23823,0.36465 -0.51747,0.85591 -0.83594,1.45703 -0.63697,1.20225 -1.42785,2.84437 -2.2539,4.65235 -1.65214,3.61587 -3.43211,7.88048 -4.32422,10.60351 -5.50833,16.81366 -4.96779,32.03094 0.69922,43.51758 5.667,11.4866 16.49149,19.18217 31.22851,20.90234 12.13943,1.41691 26.07677,-1.45193 40.0918,-8.1914 1.64414,-0.79065 3.14006,-1.55605 4.23047,-2.14844 0.54518,-0.29632 0.98988,-0.54616 1.31445,-0.75 0.16223,-0.10194 0.28922,-0.18527 0.40625,-0.27734 0.0585,-0.046 0.10904,-0.0962 0.17773,-0.17188 0.0329,-0.0376 0.0754,-0.0782 0.1211,-0.1582 0.0219,-0.0402 0.0507,-0.0941 0.0723,-0.16211 0.011,-0.0329 0.0293,-0.11377 0.0293,-0.11524 2.9e-4,-0.002 0.008,-0.14893 0.008,-0.15039 v -0.006 c -1.4e-4,-0.003 -0.0147,-0.13109 -0.0293,-0.17968 -0.0146,-0.0486 -0.0294,-0.0882 -0.043,-0.1211 -0.0292,-0.0658 -0.0604,-0.11153 -0.0859,-0.14843 -0.0515,-0.0742 -0.0973,-0.11766 -0.14258,-0.16407 -0.0902,-0.0932 -0.18459,-0.17648 -0.30078,-0.27148 -0.23238,-0.19036 -0.54369,-0.42149 -0.91992,-0.68555 -0.75243,-0.52812 -1.77001,-1.19537 -2.89063,-1.88476 l -4.38086,-2.68946 -4.16796,1.92578 c -4.47047,2.06652 -11.32274,4.38655 -15.80664,5.35938 -5.11591,1.10991 -14.90092,1.33587 -19.16797,0.47266 -12.63423,-2.5558 -20.96609,-10.88349 -23.52149,-23.51563 -1.04323,-5.1569 -0.66619,-14.73981 0.85547,-20.81641 1.24412,-4.96833 3.69971,-11.79894 5.53125,-15.44336 l 1.41211,-2.82617 -2.71875,-4.41601 c -0.69404,-1.12808 -1.36064,-2.15464 -1.89062,-2.91211 -0.26491,-0.37872 -0.49544,-0.68637 -0.68555,-0.91992 -0.095,-0.11693 -0.17709,-0.21603 -0.26953,-0.30665 -0.0464,-0.0453 -0.0899,-0.0923 -0.16407,-0.14453 -0.0369,-0.0256 -0.0835,-0.0537 -0.15039,-0.084 -0.0329,-0.0146 -0.0714,-0.0295 -0.12109,-0.043 -0.0479,-0.0146 -0.16763,-0.0256 -0.17969,-0.0293 z m 49.52734,7.70118 c 0.18233,0.011 0.46078,0.0377 0.86329,0.0918 1.71114,0.22946 4.85452,2.35092 7.36523,4.89649 1.25537,1.27276 2.38199,2.63797 3.17578,3.88867 0.79383,1.25069 1.22656,2.40063 1.22656,3.06055 0,0.31641 -0.011,0.5383 -0.0293,0.65625 -0.11802,0.0183 -0.33987,0.0371 -0.65625,0.0371 -0.66657,0 -1.88512,-0.47681 -3.19727,-1.33399 -1.31215,-0.85718 -2.75094,-2.05937 -4.06836,-3.38281 -1.31741,-1.32345 -2.51369,-2.77137 -3.36719,-4.08985 -0.85345,-1.31851 -1.32812,-2.53728 -1.32812,-3.21093 0,-0.30144 0.005,-0.4725 0.0156,-0.61328 z"
         transform="matrix(0.25694949,0,0,0.25694949,-352.65101,72.889215)"
         inkscape:label="Gyro Icon" /></g></g><script
     id="mesh_polyfill"
     type="text/javascript">
!function(){const t=&quot;http://www.w3.org/2000/svg&quot;,e=&quot;http://www.w3.org/1999/xlink&quot;,s=&quot;http://www.w3.org/1999/xhtml&quot;,r=2;if(document.createElementNS(t,&quot;meshgradient&quot;).x)return;const n=(t,e,s,r)=&gt;{let n=new x(.5*(e.x+s.x),.5*(e.y+s.y)),o=new x(.5*(t.x+e.x),.5*(t.y+e.y)),i=new x(.5*(s.x+r.x),.5*(s.y+r.y)),a=new x(.5*(n.x+o.x),.5*(n.y+o.y)),h=new x(.5*(n.x+i.x),.5*(n.y+i.y)),l=new x(.5*(a.x+h.x),.5*(a.y+h.y));return[[t,o,a,l],[l,h,i,r]]},o=t=&gt;{let e=t[0].distSquared(t[1]),s=t[2].distSquared(t[3]),r=.25*t[0].distSquared(t[2]),n=.25*t[1].distSquared(t[3]),o=e&gt;s?e:s,i=r&gt;n?r:n;return 18*(o&gt;i?o:i)},i=(t,e)=&gt;Math.sqrt(t.distSquared(e)),a=(t,e)=&gt;t.scale(2/3).add(e.scale(1/3)),h=t=&gt;{let e,s,r,n,o,i,a,h=new g;return t.match(/(\w+\(\s*[^)]+\))+/g).forEach(t=&gt;{let l=t.match(/[\w.-]+/g),d=l.shift();switch(d){case&quot;translate&quot;:2===l.length?e=new g(1,0,0,1,l[0],l[1]):(console.error(&quot;mesh.js: translate does not have 2 arguments!&quot;),e=new g(1,0,0,1,0,0)),h=h.append(e);break;case&quot;scale&quot;:1===l.length?s=new g(l[0],0,0,l[0],0,0):2===l.length?s=new g(l[0],0,0,l[1],0,0):(console.error(&quot;mesh.js: scale does not have 1 or 2 arguments!&quot;),s=new g(1,0,0,1,0,0)),h=h.append(s);break;case&quot;rotate&quot;:if(3===l.length&amp;&amp;(e=new g(1,0,0,1,l[1],l[2]),h=h.append(e)),l[0]){r=l[0]*Math.PI/180;let t=Math.cos(r),e=Math.sin(r);Math.abs(t)&lt;1e-16&amp;&amp;(t=0),Math.abs(e)&lt;1e-16&amp;&amp;(e=0),a=new g(t,e,-e,t,0,0),h=h.append(a)}else console.error(&quot;math.js: No argument to rotate transform!&quot;);3===l.length&amp;&amp;(e=new g(1,0,0,1,-l[1],-l[2]),h=h.append(e));break;case&quot;skewX&quot;:l[0]?(r=l[0]*Math.PI/180,n=Math.tan(r),o=new g(1,0,n,1,0,0),h=h.append(o)):console.error(&quot;math.js: No argument to skewX transform!&quot;);break;case&quot;skewY&quot;:l[0]?(r=l[0]*Math.PI/180,n=Math.tan(r),i=new g(1,n,0,1,0,0),h=h.append(i)):console.error(&quot;math.js: No argument to skewY transform!&quot;);break;case&quot;matrix&quot;:6===l.length?h=h.append(new g(...l)):console.error(&quot;math.js: Incorrect number of arguments for matrix!&quot;);break;default:console.error(&quot;mesh.js: Unhandled transform type: &quot;+d)}}),h},l=t=&gt;{let e=[],s=t.split(/[ ,]+/);for(let t=0,r=s.length-1;t&lt;r;t+=2)e.push(new x(parseFloat(s[t]),parseFloat(s[t+1])));return e},d=(t,e)=&gt;{for(let s in e)t.setAttribute(s,e[s])},c=(t,e,s,r,n)=&gt;{let o,i,a=[0,0,0,0];for(let h=0;h&lt;3;++h)e[h]&lt;t[h]&amp;&amp;e[h]&lt;s[h]||t[h]&lt;e[h]&amp;&amp;s[h]&lt;e[h]?a[h]=0:(a[h]=.5*((e[h]-t[h])/r+(s[h]-e[h])/n),o=Math.abs(3*(e[h]-t[h])/r),i=Math.abs(3*(s[h]-e[h])/n),a[h]&gt;o?a[h]=o:a[h]&gt;i&amp;&amp;(a[h]=i));return a},u=[[1,0,0,0,0,0,0,0,0,0,0,0,0,0,0,0],[0,0,0,0,1,0,0,0,0,0,0,0,0,0,0,0],[-3,3,0,0,-2,-1,0,0,0,0,0,0,0,0,0,0],[2,-2,0,0,1,1,0,0,0,0,0,0,0,0,0,0],[0,0,0,0,0,0,0,0,1,0,0,0,0,0,0,0],[0,0,0,0,0,0,0,0,0,0,0,0,1,0,0,0],[0,0,0,0,0,0,0,0,-3,3,0,0,-2,-1,0,0],[0,0,0,0,0,0,0,0,2,-2,0,0,1,1,0,0],[-3,0,3,0,0,0,0,0,-2,0,-1,0,0,0,0,0],[0,0,0,0,-3,0,3,0,0,0,0,0,-2,0,-1,0],[9,-9,-9,9,6,3,-6,-3,6,-6,3,-3,4,2,2,1],[-6,6,6,-6,-3,-3,3,3,-4,4,-2,2,-2,-2,-1,-1],[2,0,-2,0,0,0,0,0,1,0,1,0,0,0,0,0],[0,0,0,0,2,0,-2,0,0,0,0,0,1,0,1,0],[-6,6,6,-6,-4,-2,4,2,-3,3,-3,3,-2,-1,-2,-1],[4,-4,-4,4,2,2,-2,-2,2,-2,2,-2,1,1,1,1]],f=t=&gt;{let e=[];for(let s=0;s&lt;16;++s){e[s]=0;for(let r=0;r&lt;16;++r)e[s]+=u[s][r]*t[r]}return e},p=(t,e,s)=&gt;{const r=e*e,n=s*s,o=e*e*e,i=s*s*s;return t[0]+t[1]*e+t[2]*r+t[3]*o+t[4]*s+t[5]*s*e+t[6]*s*r+t[7]*s*o+t[8]*n+t[9]*n*e+t[10]*n*r+t[11]*n*o+t[12]*i+t[13]*i*e+t[14]*i*r+t[15]*i*o},y=t=&gt;{let e=[],s=[],r=[];for(let s=0;s&lt;4;++s)e[s]=[],e[s][0]=n(t[0][s],t[1][s],t[2][s],t[3][s]),e[s][1]=[],e[s][1].push(...n(...e[s][0][0])),e[s][1].push(...n(...e[s][0][1])),e[s][2]=[],e[s][2].push(...n(...e[s][1][0])),e[s][2].push(...n(...e[s][1][1])),e[s][2].push(...n(...e[s][1][2])),e[s][2].push(...n(...e[s][1][3]));for(let t=0;t&lt;8;++t){s[t]=[];for(let r=0;r&lt;4;++r)s[t][r]=[],s[t][r][0]=n(e[0][2][t][r],e[1][2][t][r],e[2][2][t][r],e[3][2][t][r]),s[t][r][1]=[],s[t][r][1].push(...n(...s[t][r][0][0])),s[t][r][1].push(...n(...s[t][r][0][1])),s[t][r][2]=[],s[t][r][2].push(...n(...s[t][r][1][0])),s[t][r][2].push(...n(...s[t][r][1][1])),s[t][r][2].push(...n(...s[t][r][1][2])),s[t][r][2].push(...n(...s[t][r][1][3]))}for(let t=0;t&lt;8;++t){r[t]=[];for(let e=0;e&lt;8;++e)r[t][e]=[],r[t][e][0]=s[t][0][2][e],r[t][e][1]=s[t][1][2][e],r[t][e][2]=s[t][2][2][e],r[t][e][3]=s[t][3][2][e]}return r};class x{constructor(t,e){this.x=t||0,this.y=e||0}toString(){return`(x=${this.x}, y=${this.y})`}clone(){return new x(this.x,this.y)}add(t){return new x(this.x+t.x,this.y+t.y)}scale(t){return void 0===t.x?new x(this.x*t,this.y*t):new x(this.x*t.x,this.y*t.y)}distSquared(t){let e=this.x-t.x,s=this.y-t.y;return e*e+s*s}transform(t){let e=this.x*t.a+this.y*t.c+t.e,s=this.x*t.b+this.y*t.d+t.f;return new x(e,s)}}class g{constructor(t,e,s,r,n,o){void 0===t?(this.a=1,this.b=0,this.c=0,this.d=1,this.e=0,this.f=0):(this.a=t,this.b=e,this.c=s,this.d=r,this.e=n,this.f=o)}toString(){return`affine: ${this.a} ${this.c} ${this.e} \n       ${this.b} ${this.d} ${this.f}`}append(t){t instanceof g||console.error(&quot;mesh.js: argument to Affine.append is not affine!&quot;);let e=this.a*t.a+this.c*t.b,s=this.b*t.a+this.d*t.b,r=this.a*t.c+this.c*t.d,n=this.b*t.c+this.d*t.d,o=this.a*t.e+this.c*t.f+this.e,i=this.b*t.e+this.d*t.f+this.f;return new g(e,s,r,n,o,i)}}class w{constructor(t,e){this.nodes=t,this.colors=e}paintCurve(t,e){if(o(this.nodes)&gt;r){const s=n(...this.nodes);let r=[[],[]],o=[[],[]];for(let t=0;t&lt;4;++t)r[0][t]=this.colors[0][t],r[1][t]=(this.colors[0][t]+this.colors[1][t])/2,o[0][t]=r[1][t],o[1][t]=this.colors[1][t];let i=new w(s[0],r),a=new w(s[1],o);i.paintCurve(t,e),a.paintCurve(t,e)}else{let s=Math.round(this.nodes[0].x);if(s&gt;=0&amp;&amp;s&lt;e){let r=4*(~~this.nodes[0].y*e+s);t[r]=Math.round(this.colors[0][0]),t[r+1]=Math.round(this.colors[0][1]),t[r+2]=Math.round(this.colors[0][2]),t[r+3]=Math.round(this.colors[0][3])}}}}class m{constructor(t,e){this.nodes=t,this.colors=e}split(){let t=[[],[],[],[]],e=[[],[],[],[]],s=[[[],[]],[[],[]]],r=[[[],[]],[[],[]]];for(let s=0;s&lt;4;++s){const r=n(this.nodes[0][s],this.nodes[1][s],this.nodes[2][s],this.nodes[3][s]);t[0][s]=r[0][0],t[1][s]=r[0][1],t[2][s]=r[0][2],t[3][s]=r[0][3],e[0][s]=r[1][0],e[1][s]=r[1][1],e[2][s]=r[1][2],e[3][s]=r[1][3]}for(let t=0;t&lt;4;++t)s[0][0][t]=this.colors[0][0][t],s[0][1][t]=this.colors[0][1][t],s[1][0][t]=(this.colors[0][0][t]+this.colors[1][0][t])/2,s[1][1][t]=(this.colors[0][1][t]+this.colors[1][1][t])/2,r[0][0][t]=s[1][0][t],r[0][1][t]=s[1][1][t],r[1][0][t]=this.colors[1][0][t],r[1][1][t]=this.colors[1][1][t];return[new m(t,s),new m(e,r)]}paint(t,e){let s,n=!1;for(let t=0;t&lt;4;++t)if((s=o([this.nodes[0][t],this.nodes[1][t],this.nodes[2][t],this.nodes[3][t]]))&gt;r){n=!0;break}if(n){let s=this.split();s[0].paint(t,e),s[1].paint(t,e)}else{new w([...this.nodes[0]],[...this.colors[0]]).paintCurve(t,e)}}}class b{constructor(t){this.readMesh(t),this.type=t.getAttribute(&quot;type&quot;)||&quot;bilinear&quot;}readMesh(t){let e=[[]],s=[[]],r=Number(t.getAttribute(&quot;x&quot;)),n=Number(t.getAttribute(&quot;y&quot;));e[0][0]=new x(r,n);let o=t.children;for(let t=0,r=o.length;t&lt;r;++t){e[3*t+1]=[],e[3*t+2]=[],e[3*t+3]=[],s[t+1]=[];let r=o[t].children;for(let n=0,o=r.length;n&lt;o;++n){let o=r[n].children;for(let r=0,i=o.length;r&lt;i;++r){let i=r;0!==t&amp;&amp;++i;let h,d=o[r].getAttribute(&quot;path&quot;),c=&quot;l&quot;;null!=d&amp;&amp;(c=(h=d.match(/\s*([lLcC])\s*(.*)/))[1]);let u=l(h[2]);switch(c){case&quot;l&quot;:0===i?(e[3*t][3*n+3]=u[0].add(e[3*t][3*n]),e[3*t][3*n+1]=a(e[3*t][3*n],e[3*t][3*n+3]),e[3*t][3*n+2]=a(e[3*t][3*n+3],e[3*t][3*n])):1===i?(e[3*t+3][3*n+3]=u[0].add(e[3*t][3*n+3]),e[3*t+1][3*n+3]=a(e[3*t][3*n+3],e[3*t+3][3*n+3]),e[3*t+2][3*n+3]=a(e[3*t+3][3*n+3],e[3*t][3*n+3])):2===i?(0===n&amp;&amp;(e[3*t+3][3*n+0]=u[0].add(e[3*t+3][3*n+3])),e[3*t+3][3*n+1]=a(e[3*t+3][3*n],e[3*t+3][3*n+3]),e[3*t+3][3*n+2]=a(e[3*t+3][3*n+3],e[3*t+3][3*n])):(e[3*t+1][3*n]=a(e[3*t][3*n],e[3*t+3][3*n]),e[3*t+2][3*n]=a(e[3*t+3][3*n],e[3*t][3*n]));break;case&quot;L&quot;:0===i?(e[3*t][3*n+3]=u[0],e[3*t][3*n+1]=a(e[3*t][3*n],e[3*t][3*n+3]),e[3*t][3*n+2]=a(e[3*t][3*n+3],e[3*t][3*n])):1===i?(e[3*t+3][3*n+3]=u[0],e[3*t+1][3*n+3]=a(e[3*t][3*n+3],e[3*t+3][3*n+3]),e[3*t+2][3*n+3]=a(e[3*t+3][3*n+3],e[3*t][3*n+3])):2===i?(0===n&amp;&amp;(e[3*t+3][3*n+0]=u[0]),e[3*t+3][3*n+1]=a(e[3*t+3][3*n],e[3*t+3][3*n+3]),e[3*t+3][3*n+2]=a(e[3*t+3][3*n+3],e[3*t+3][3*n])):(e[3*t+1][3*n]=a(e[3*t][3*n],e[3*t+3][3*n]),e[3*t+2][3*n]=a(e[3*t+3][3*n],e[3*t][3*n]));break;case&quot;c&quot;:0===i?(e[3*t][3*n+1]=u[0].add(e[3*t][3*n]),e[3*t][3*n+2]=u[1].add(e[3*t][3*n]),e[3*t][3*n+3]=u[2].add(e[3*t][3*n])):1===i?(e[3*t+1][3*n+3]=u[0].add(e[3*t][3*n+3]),e[3*t+2][3*n+3]=u[1].add(e[3*t][3*n+3]),e[3*t+3][3*n+3]=u[2].add(e[3*t][3*n+3])):2===i?(e[3*t+3][3*n+2]=u[0].add(e[3*t+3][3*n+3]),e[3*t+3][3*n+1]=u[1].add(e[3*t+3][3*n+3]),0===n&amp;&amp;(e[3*t+3][3*n+0]=u[2].add(e[3*t+3][3*n+3]))):(e[3*t+2][3*n]=u[0].add(e[3*t+3][3*n]),e[3*t+1][3*n]=u[1].add(e[3*t+3][3*n]));break;case&quot;C&quot;:0===i?(e[3*t][3*n+1]=u[0],e[3*t][3*n+2]=u[1],e[3*t][3*n+3]=u[2]):1===i?(e[3*t+1][3*n+3]=u[0],e[3*t+2][3*n+3]=u[1],e[3*t+3][3*n+3]=u[2]):2===i?(e[3*t+3][3*n+2]=u[0],e[3*t+3][3*n+1]=u[1],0===n&amp;&amp;(e[3*t+3][3*n+0]=u[2])):(e[3*t+2][3*n]=u[0],e[3*t+1][3*n]=u[1]);break;default:console.error(&quot;mesh.js: &quot;+c+&quot; invalid path type.&quot;)}if(0===t&amp;&amp;0===n||r&gt;0){let e=window.getComputedStyle(o[r]).stopColor.match(/^rgb\s*\(\s*(\d+)\s*,\s*(\d+)\s*,\s*(\d+)\s*\)$/i),a=window.getComputedStyle(o[r]).stopOpacity,h=255;a&amp;&amp;(h=Math.floor(255*a)),e&amp;&amp;(0===i?(s[t][n]=[],s[t][n][0]=Math.floor(e[1]),s[t][n][1]=Math.floor(e[2]),s[t][n][2]=Math.floor(e[3]),s[t][n][3]=h):1===i?(s[t][n+1]=[],s[t][n+1][0]=Math.floor(e[1]),s[t][n+1][1]=Math.floor(e[2]),s[t][n+1][2]=Math.floor(e[3]),s[t][n+1][3]=h):2===i?(s[t+1][n+1]=[],s[t+1][n+1][0]=Math.floor(e[1]),s[t+1][n+1][1]=Math.floor(e[2]),s[t+1][n+1][2]=Math.floor(e[3]),s[t+1][n+1][3]=h):3===i&amp;&amp;(s[t+1][n]=[],s[t+1][n][0]=Math.floor(e[1]),s[t+1][n][1]=Math.floor(e[2]),s[t+1][n][2]=Math.floor(e[3]),s[t+1][n][3]=h))}}e[3*t+1][3*n+1]=new x,e[3*t+1][3*n+2]=new x,e[3*t+2][3*n+1]=new x,e[3*t+2][3*n+2]=new x,e[3*t+1][3*n+1].x=(-4*e[3*t][3*n].x+6*(e[3*t][3*n+1].x+e[3*t+1][3*n].x)+-2*(e[3*t][3*n+3].x+e[3*t+3][3*n].x)+3*(e[3*t+3][3*n+1].x+e[3*t+1][3*n+3].x)+-1*e[3*t+3][3*n+3].x)/9,e[3*t+1][3*n+2].x=(-4*e[3*t][3*n+3].x+6*(e[3*t][3*n+2].x+e[3*t+1][3*n+3].x)+-2*(e[3*t][3*n].x+e[3*t+3][3*n+3].x)+3*(e[3*t+3][3*n+2].x+e[3*t+1][3*n].x)+-1*e[3*t+3][3*n].x)/9,e[3*t+2][3*n+1].x=(-4*e[3*t+3][3*n].x+6*(e[3*t+3][3*n+1].x+e[3*t+2][3*n].x)+-2*(e[3*t+3][3*n+3].x+e[3*t][3*n].x)+3*(e[3*t][3*n+1].x+e[3*t+2][3*n+3].x)+-1*e[3*t][3*n+3].x)/9,e[3*t+2][3*n+2].x=(-4*e[3*t+3][3*n+3].x+6*(e[3*t+3][3*n+2].x+e[3*t+2][3*n+3].x)+-2*(e[3*t+3][3*n].x+e[3*t][3*n+3].x)+3*(e[3*t][3*n+2].x+e[3*t+2][3*n].x)+-1*e[3*t][3*n].x)/9,e[3*t+1][3*n+1].y=(-4*e[3*t][3*n].y+6*(e[3*t][3*n+1].y+e[3*t+1][3*n].y)+-2*(e[3*t][3*n+3].y+e[3*t+3][3*n].y)+3*(e[3*t+3][3*n+1].y+e[3*t+1][3*n+3].y)+-1*e[3*t+3][3*n+3].y)/9,e[3*t+1][3*n+2].y=(-4*e[3*t][3*n+3].y+6*(e[3*t][3*n+2].y+e[3*t+1][3*n+3].y)+-2*(e[3*t][3*n].y+e[3*t+3][3*n+3].y)+3*(e[3*t+3][3*n+2].y+e[3*t+1][3*n].y)+-1*e[3*t+3][3*n].y)/9,e[3*t+2][3*n+1].y=(-4*e[3*t+3][3*n].y+6*(e[3*t+3][3*n+1].y+e[3*t+2][3*n].y)+-2*(e[3*t+3][3*n+3].y+e[3*t][3*n].y)+3*(e[3*t][3*n+1].y+e[3*t+2][3*n+3].y)+-1*e[3*t][3*n+3].y)/9,e[3*t+2][3*n+2].y=(-4*e[3*t+3][3*n+3].y+6*(e[3*t+3][3*n+2].y+e[3*t+2][3*n+3].y)+-2*(e[3*t+3][3*n].y+e[3*t][3*n+3].y)+3*(e[3*t][3*n+2].y+e[3*t+2][3*n].y)+-1*e[3*t][3*n].y)/9}}this.nodes=e,this.colors=s}paintMesh(t,e){let s=(this.nodes.length-1)/3,r=(this.nodes[0].length-1)/3;if(&quot;bilinear&quot;===this.type||s&lt;2||r&lt;2){let n;for(let o=0;o&lt;s;++o)for(let s=0;s&lt;r;++s){let r=[];for(let t=3*o,e=3*o+4;t&lt;e;++t)r.push(this.nodes[t].slice(3*s,3*s+4));let i=[];i.push(this.colors[o].slice(s,s+2)),i.push(this.colors[o+1].slice(s,s+2)),(n=new m(r,i)).paint(t,e)}}else{let n,o,a,h,l,d,u;const x=s,g=r;s++,r++;let w=new Array(s);for(let t=0;t&lt;s;++t){w[t]=new Array(r);for(let e=0;e&lt;r;++e)w[t][e]=[],w[t][e][0]=this.nodes[3*t][3*e],w[t][e][1]=this.colors[t][e]}for(let t=0;t&lt;s;++t)for(let e=0;e&lt;r;++e)0!==t&amp;&amp;t!==x&amp;&amp;(n=i(w[t-1][e][0],w[t][e][0]),o=i(w[t+1][e][0],w[t][e][0]),w[t][e][2]=c(w[t-1][e][1],w[t][e][1],w[t+1][e][1],n,o)),0!==e&amp;&amp;e!==g&amp;&amp;(n=i(w[t][e-1][0],w[t][e][0]),o=i(w[t][e+1][0],w[t][e][0]),w[t][e][3]=c(w[t][e-1][1],w[t][e][1],w[t][e+1][1],n,o));for(let t=0;t&lt;r;++t){w[0][t][2]=[],w[x][t][2]=[];for(let e=0;e&lt;4;++e)n=i(w[1][t][0],w[0][t][0]),o=i(w[x][t][0],w[x-1][t][0]),w[0][t][2][e]=n&gt;0?2*(w[1][t][1][e]-w[0][t][1][e])/n-w[1][t][2][e]:0,w[x][t][2][e]=o&gt;0?2*(w[x][t][1][e]-w[x-1][t][1][e])/o-w[x-1][t][2][e]:0}for(let t=0;t&lt;s;++t){w[t][0][3]=[],w[t][g][3]=[];for(let e=0;e&lt;4;++e)n=i(w[t][1][0],w[t][0][0]),o=i(w[t][g][0],w[t][g-1][0]),w[t][0][3][e]=n&gt;0?2*(w[t][1][1][e]-w[t][0][1][e])/n-w[t][1][3][e]:0,w[t][g][3][e]=o&gt;0?2*(w[t][g][1][e]-w[t][g-1][1][e])/o-w[t][g-1][3][e]:0}for(let s=0;s&lt;x;++s)for(let r=0;r&lt;g;++r){let n=i(w[s][r][0],w[s+1][r][0]),o=i(w[s][r+1][0],w[s+1][r+1][0]),c=i(w[s][r][0],w[s][r+1][0]),x=i(w[s+1][r][0],w[s+1][r+1][0]),g=[[],[],[],[]];for(let t=0;t&lt;4;++t){(d=[])[0]=w[s][r][1][t],d[1]=w[s+1][r][1][t],d[2]=w[s][r+1][1][t],d[3]=w[s+1][r+1][1][t],d[4]=w[s][r][2][t]*n,d[5]=w[s+1][r][2][t]*n,d[6]=w[s][r+1][2][t]*o,d[7]=w[s+1][r+1][2][t]*o,d[8]=w[s][r][3][t]*c,d[9]=w[s+1][r][3][t]*x,d[10]=w[s][r+1][3][t]*c,d[11]=w[s+1][r+1][3][t]*x,d[12]=0,d[13]=0,d[14]=0,d[15]=0,u=f(d);for(let e=0;e&lt;9;++e){g[t][e]=[];for(let s=0;s&lt;9;++s)g[t][e][s]=p(u,e/8,s/8),g[t][e][s]&gt;255?g[t][e][s]=255:g[t][e][s]&lt;0&amp;&amp;(g[t][e][s]=0)}}h=[];for(let t=3*s,e=3*s+4;t&lt;e;++t)h.push(this.nodes[t].slice(3*r,3*r+4));l=y(h);for(let s=0;s&lt;8;++s)for(let r=0;r&lt;8;++r)(a=new m(l[s][r],[[[g[0][s][r],g[1][s][r],g[2][s][r],g[3][s][r]],[g[0][s][r+1],g[1][s][r+1],g[2][s][r+1],g[3][s][r+1]]],[[g[0][s+1][r],g[1][s+1][r],g[2][s+1][r],g[3][s+1][r]],[g[0][s+1][r+1],g[1][s+1][r+1],g[2][s+1][r+1],g[3][s+1][r+1]]]])).paint(t,e)}}}transform(t){if(t instanceof x)for(let e=0,s=this.nodes.length;e&lt;s;++e)for(let s=0,r=this.nodes[0].length;s&lt;r;++s)this.nodes[e][s]=this.nodes[e][s].add(t);else if(t instanceof g)for(let e=0,s=this.nodes.length;e&lt;s;++e)for(let s=0,r=this.nodes[0].length;s&lt;r;++s)this.nodes[e][s]=this.nodes[e][s].transform(t)}scale(t){for(let e=0,s=this.nodes.length;e&lt;s;++e)for(let s=0,r=this.nodes[0].length;s&lt;r;++s)this.nodes[e][s]=this.nodes[e][s].scale(t)}}document.querySelectorAll(&quot;rect,circle,ellipse,path,text&quot;).forEach((r,n)=&gt;{let o=r.getAttribute(&quot;id&quot;);o||(o=&quot;patchjs_shape&quot;+n,r.setAttribute(&quot;id&quot;,o));const i=r.style.fill.match(/^url\(\s*&quot;?\s*#([^\s&quot;]+)&quot;?\s*\)/),a=r.style.stroke.match(/^url\(\s*&quot;?\s*#([^\s&quot;]+)&quot;?\s*\)/);if(i&amp;&amp;i[1]){const a=document.getElementById(i[1]);if(a&amp;&amp;&quot;meshgradient&quot;===a.nodeName){const i=r.getBBox();let l=document.createElementNS(s,&quot;canvas&quot;);d(l,{width:i.width,height:i.height});const c=l.getContext(&quot;2d&quot;);let u=c.createImageData(i.width,i.height);const f=new b(a);&quot;objectBoundingBox&quot;===a.getAttribute(&quot;gradientUnits&quot;)&amp;&amp;f.scale(new x(i.width,i.height));const p=a.getAttribute(&quot;gradientTransform&quot;);null!=p&amp;&amp;f.transform(h(p)),&quot;userSpaceOnUse&quot;===a.getAttribute(&quot;gradientUnits&quot;)&amp;&amp;f.transform(new x(-i.x,-i.y)),f.paintMesh(u.data,l.width),c.putImageData(u,0,0);const y=document.createElementNS(t,&quot;image&quot;);d(y,{width:i.width,height:i.height,x:i.x,y:i.y});let g=l.toDataURL();y.setAttributeNS(e,&quot;xlink:href&quot;,g),r.parentNode.insertBefore(y,r),r.style.fill=&quot;none&quot;;const w=document.createElementNS(t,&quot;use&quot;);w.setAttributeNS(e,&quot;xlink:href&quot;,&quot;#&quot;+o);const m=&quot;patchjs_clip&quot;+n,M=document.createElementNS(t,&quot;clipPath&quot;);M.setAttribute(&quot;id&quot;,m),M.appendChild(w),r.parentElement.insertBefore(M,r),y.setAttribute(&quot;clip-path&quot;,&quot;url(#&quot;+m+&quot;)&quot;),u=null,l=null,g=null}}if(a&amp;&amp;a[1]){const o=document.getElementById(a[1]);if(o&amp;&amp;&quot;meshgradient&quot;===o.nodeName){const i=parseFloat(r.style.strokeWidth.slice(0,-2))*(parseFloat(r.style.strokeMiterlimit)||parseFloat(r.getAttribute(&quot;stroke-miterlimit&quot;))||1),a=r.getBBox(),l=Math.trunc(a.width+i),c=Math.trunc(a.height+i),u=Math.trunc(a.x-i/2),f=Math.trunc(a.y-i/2);let p=document.createElementNS(s,&quot;canvas&quot;);d(p,{width:l,height:c});const y=p.getContext(&quot;2d&quot;);let g=y.createImageData(l,c);const w=new b(o);&quot;objectBoundingBox&quot;===o.getAttribute(&quot;gradientUnits&quot;)&amp;&amp;w.scale(new x(l,c));const m=o.getAttribute(&quot;gradientTransform&quot;);null!=m&amp;&amp;w.transform(h(m)),&quot;userSpaceOnUse&quot;===o.getAttribute(&quot;gradientUnits&quot;)&amp;&amp;w.transform(new x(-u,-f)),w.paintMesh(g.data,p.width),y.putImageData(g,0,0);const M=document.createElementNS(t,&quot;image&quot;);d(M,{width:l,height:c,x:0,y:0});let S=p.toDataURL();M.setAttributeNS(e,&quot;xlink:href&quot;,S);const k=&quot;pattern_clip&quot;+n,A=document.createElementNS(t,&quot;pattern&quot;);d(A,{id:k,patternUnits:&quot;userSpaceOnUse&quot;,width:l,height:c,x:u,y:f}),A.appendChild(M),o.parentNode.appendChild(A),r.style.stroke=&quot;url(#&quot;+k+&quot;)&quot;,g=null,p=null,S=null}}})}();
</script></svg>
