<?xml version="1.0" encoding="UTF-8" standalone="no"?>
<!-- Created with Inkscape (http://www.inkscape.org/) -->

<svg
   width="213.40042mm"
   height="94.295418mm"
   viewBox="0 0 213.40042 94.295417"
   version="1.1"
   id="svg7821"
   inkscape:version="1.2 (dc2aedaf03, 2022-05-15)"
   sodipodi:docname="SwitchJoycon Active Button Presses.svg"
   xmlns:inkscape="http://www.inkscape.org/namespaces/inkscape"
   xmlns:sodipodi="http://sodipodi.sourceforge.net/DTD/sodipodi-0.dtd"
   xmlns="http://www.w3.org/2000/svg"
   xmlns:svg="http://www.w3.org/2000/svg">
  <sodipodi:namedview
     id="namedview7823"
     pagecolor="#ffffff"
     bordercolor="#666666"
     borderopacity="1.0"
     inkscape:showpageshadow="2"
     inkscape:pageopacity="0.0"
     inkscape:pagecheckerboard="0"
     inkscape:deskcolor="#d1d1d1"
     inkscape:document-units="mm"
     showgrid="false"
     inkscape:zoom="1.2938725"
     inkscape:cx="377.16236"
     inkscape:cy="259.68556"
     inkscape:window-width="2560"
     inkscape:window-height="1334"
     inkscape:window-x="-11"
     inkscape:window-y="-11"
     inkscape:window-maximized="1"
     inkscape:current-layer="layer1" />
  <defs
     id="defs7818" />
  <g
     inkscape:label="Layer 1"
     inkscape:groupmode="layer"
     id="layer1"
     transform="translate(-13.998883,-11.558231)">
    <path
       style="color:#000000;fill:#107893;fill-opacity:0.501961;stroke:#24d2f6;stroke-width:1.2;stroke-linecap:round;stroke-linejoin:round;stroke-miterlimit:10;stroke-dasharray:none;stroke-opacity:1"
       d="m 17.384104,73.177028 h -2.023562 c -0.418361,0 -0.761659,0.63721 -0.761659,1.41515 v 16.75867 c 0,0.77751 0.343344,1.41289 0.761659,1.41289 h 2.289467 c 0.01581,-0.0323 0.03219,-0.064 0.0473,-0.0969 0.02457,-0.0535 0.04719,-0.10982 0.06992,-0.1645 0.02261,-0.0547 0.04488,-0.10907 0.0653,-0.1645 0.02054,-0.0554 0.0405,-0.11099 0.05861,-0.16675 0.01811,-0.0558 0.03404,-0.11111 0.04961,-0.16676 0.01558,-0.0556 0.03,-0.11165 0.0428,-0.16675 0.01281,-0.0551 0.02388,-0.11037 0.03381,-0.1645 0.01038,-0.0541 0.02019,-0.10726 0.027,-0.15999 0.0069,-0.0527 0.01038,-0.1046 0.0135,-0.15549 0.0023,-0.0254 0.0035,-0.0495 0.0046,-0.0744 8.76e-4,-0.0249 0.0023,-0.05 0.0023,-0.0744 v -16.0173 c 0,-0.0243 -0.0012,-0.0495 -0.0023,-0.0744 -8.89e-4,-0.0249 -0.0023,-0.0489 -0.0046,-0.0744 -0.0035,-0.0509 -0.0069,-0.10278 -0.0135,-0.15549 -0.0069,-0.0527 -0.01708,-0.10586 -0.027,-0.15999 -0.01038,-0.0541 -0.021,-0.1094 -0.03381,-0.1645 -0.01281,-0.0551 -0.02723,-0.1111 -0.0428,-0.16675 -0.01558,-0.0556 -0.0315,-0.11099 -0.04961,-0.16675 -0.01811,-0.0558 -0.03807,-0.11131 -0.05861,-0.16676 -0.02054,-0.0554 -0.04269,-0.1098 -0.0653,-0.1645 -0.02261,-0.0547 -0.04523,-0.10873 -0.06992,-0.16224 -0.02457,-0.0535 -0.05019,-0.1081 -0.07661,-0.15999 -0.02642,-0.0519 -0.05307,-0.10113 -0.08111,-0.15098 -0.02804,-0.0499 -0.0585,-0.0991 -0.08792,-0.14648 -0.02181,-0.0351 -0.04511,-0.0678 -0.06761,-0.1014 z"
       id="path7208"
       inkscape:label="Small L/R Button"
       inkscape:export-filename="NSwitchJoycon_Small-L-R_Button.png"
       inkscape:export-xdpi="95.8863"
       inkscape:export-ydpi="95.8863" />
    <path
       style="display:inline;fill:#107893;fill-opacity:0.501961;fill-rule:nonzero;stroke:#24d2f6;stroke-width:1.6;stroke-dasharray:none;stroke-opacity:1"
       d="m 65.060644,84.812238 c -4.73515,0 -8.56897,3.83984 -8.56897,8.57499 0,4.72918 3.83382,8.563002 8.56897,8.563002 4.72918,0 8.56897,-3.833822 8.56897,-8.563002 0,-4.73515 -3.83979,-8.57499 -8.56897,-8.57499"
       id="path14259-2"
       inkscape:label="Face/D-PAD Buttons"
       inkscape:export-filename="NSwitchJoycon_FaceD-PAD_Button.png"
       inkscape:export-xdpi="95.8863"
       inkscape:export-ydpi="95.8863" />
    <path
       style="display:inline;fill:#107893;fill-opacity:0.501961;fill-rule:nonzero;stroke:#24d2f6;stroke-width:1.6;stroke-linecap:round;stroke-linejoin:round;stroke-dasharray:none;stroke-opacity:1"
       d="m 93.917624,41.683893 c -0.33054,0 -0.46868,0.138232 -0.46868,0.468724 v 2.686099 c 0,0.330535 0.13823,0.468679 0.46868,0.468679 h 3.46124 c 0.25858,0 0.47474,0.210182 0.47474,0.474741 v 3.455226 c 0,0.33664 0.13213,0.474697 0.46868,0.474697 h 2.680076 c 0.33664,0 0.47474,-0.138232 0.47474,-0.474697 v -3.455226 c 0,-0.264253 0.21018,-0.474741 0.46868,-0.474741 h 3.46726 c 0.33054,0 0.46271,-0.138231 0.46271,-0.468679 v -2.686099 c 0,-0.330536 -0.13213,-0.468724 -0.46271,-0.468724 h -3.46726 c -0.25858,0 -0.46868,-0.210182 -0.46868,-0.474697 v -3.461243 c 0,-0.33664 -0.13823,-0.468723 -0.47474,-0.468723 h -2.680076 c -0.33664,0 -0.46868,0.132126 -0.46868,0.468723 v 3.461243 c 0,0.264254 -0.21629,0.468723 -0.47474,0.468723 z m 0,0"
       id="path14303-1"
       inkscape:label="Plus Button"
       inkscape:export-filename="NSwitchJoycon_Plus_Button.png"
       inkscape:export-xdpi="95.8863"
       inkscape:export-ydpi="95.8863" />
    <path
       style="display:inline;fill:#107893;fill-opacity:0.501961;fill-rule:nonzero;stroke:#24d2f6;stroke-width:1.6;stroke-dasharray:none;stroke-opacity:1;paint-order:normal"
       d="m 68.202704,45.561364 c 0,0.330536 0.13823,0.468681 0.4747,0.468681 h 11.48343 c 0.33664,0 0.47474,-0.138232 0.47474,-0.468681 v -2.68611 c 0,-0.330536 -0.13823,-0.468725 -0.47474,-0.468725 h -11.48343 c -0.33665,0 -0.4747,0.138233 -0.4747,0.468725 z m 0,0"
       id="path14301-1"
       inkscape:label="Symbol Color"
       inkscape:export-filename="NSwitchJoycon_Minus_Button.png"
       inkscape:export-xdpi="95.8863"
       inkscape:export-ydpi="95.8863" />
    <path
       style="display:inline;fill:#107893;fill-opacity:0.501961;fill-rule:nonzero;stroke:#24d2f6;stroke-width:1.6;stroke-dasharray:none;stroke-opacity:1"
       d="m 122.98629,21.348321 c 0,3.89988 -3.16079,7.06068 -7.06071,7.06068 -3.89988,0 -7.0667,-3.1608 -7.0667,-7.06068 0,-3.90594 3.16682,-7.06673 7.0667,-7.06673 3.89992,0 7.06071,3.16079 7.06071,7.06673"
       id="path14263-7"
       inkscape:label="Home Button"
       inkscape:export-filename="NSwitchJoycon_HomeButton.png"
       inkscape:export-xdpi="95.8863"
       inkscape:export-ydpi="95.8863" />
    <path
       style="fill:#107893;fill-opacity:0.501961;fill-rule:nonzero;stroke:#24d2f6;stroke-width:1.6;stroke-dasharray:none;stroke-opacity:1"
       d="m 79.609404,14.00472 c 0,-0.907361 0.73909,-1.646489 1.64649,-1.646489 h 10.99068 c 0.90736,0 1.64649,0.739128 1.64649,1.646489 v 10.990683 c 0,0.907405 -0.73913,1.646533 -1.64649,1.646533 h -10.99068 c -0.9074,0 -1.64649,-0.739128 -1.64649,-1.646533 z m 0,0"
       id="path14271-0"
       inkscape:label="Capture Button"
       inkscape:export-filename="NSwitchJoycon_CaptureButton.png"
       inkscape:export-xdpi="95.8863"
       inkscape:export-ydpi="95.8863" />
    <path
       id="path4308"
       style="display:inline;fill:#107893;fill-opacity:0.501961;fill-rule:nonzero;stroke:#24d2f6;stroke-width:1.2;stroke-linecap:round;stroke-linejoin:round;stroke-dasharray:none;stroke-opacity:1"
       d="m 165.15431,71.671218 c -1.15377,0 -2.10542,0.9029 -2.12723,2.05061 l -0.0158,1.19431 0.036,0.018 h 14.11992 c 0.43501,0 0.87001,0.005 1.30248,0.0158 0.43246,0.0105 0.86366,0.0265 1.29346,0.0473 0.42979,0.0209 0.85746,0.0477 1.28444,0.0789 0.42699,0.0311 0.85365,0.0669 1.27769,0.10816 0.42405,0.0413 0.84547,0.0884 1.26642,0.13971 0.42096,0.0513 0.83967,0.10558 1.25741,0.16675 0.41774,0.0612 0.83399,0.12734 1.2484,0.19831 0.41439,0.071 0.82846,0.14696 1.23937,0.22759 0.41092,0.0806 0.81857,0.1667 1.22586,0.25689 0.40729,0.0902 0.81331,0.18431 1.21685,0.28393 0.40353,0.0996 0.80592,0.20429 1.20557,0.31323 0.39965,0.10893 0.79645,0.22212 1.19207,0.34026 0.39562,0.11814 0.78932,0.24234 1.18078,0.36956 0.39147,0.12722 0.78011,0.25816 1.16727,0.39435 0.38717,0.13619 0.77328,0.27635 1.15601,0.42139 0.38274,0.14503 0.76205,0.29466 1.14023,0.44843 0.37817,0.15377 0.75549,0.31309 1.12896,0.47547 0.37347,0.16238 0.74456,0.32713 1.11319,0.49801 0.36862,0.17087 0.73375,0.34804 1.09741,0.5273 0.36367,0.17925 0.72534,0.36231 1.08389,0.54983 0.35856,0.18752 0.71482,0.37896 1.06812,0.57462 0.35332,0.19566 0.70442,0.39572 1.05235,0.59941 0.34794,0.20369 0.6919,0.41034 1.03432,0.62194 0.34243,0.21161 0.68178,0.42734 1.01855,0.64673 0.33676,0.2194 0.67178,0.4422 1.00277,0.66927 0.33098,0.22707 0.65966,0.45942 0.98475,0.69405 0.32506,0.23463 0.64544,0.47226 0.96445,0.71434 0.31902,0.24207 0.63587,0.48747 0.94869,0.73686 0.31283,0.2494 0.62191,0.5028 0.92841,0.7594 0.30651,0.25661 0.61034,0.51599 0.91038,0.77969 0.30005,0.26369 0.59665,0.53155 0.8901,0.80221 0.29345,0.27067 0.5831,0.54498 0.86982,0.8225 0.28672,0.27752 0.56968,0.55852 0.84954,0.84278 0.27985,0.28426 0.5564,0.57218 0.82926,0.86306 0.27286,0.29088 0.54325,0.5837 0.80897,0.88108 0.26572,0.29739 0.52799,0.5976 0.78645,0.90137 0.25845,0.30377 0.51286,0.61161 0.7639,0.92165 0.25105,0.31004 0.49787,0.62348 0.74138,0.93967 0.24351,0.3162 0.48301,0.63548 0.71883,0.95771 0.23584,0.32222 0.46829,0.64758 0.69631,0.97573 0.22803,0.32814 0.45144,0.65981 0.67152,0.99375 0.22008,0.33395 0.437,0.6699 0.64899,1.00954 0.21199,0.33962 0.42041,0.68236 0.6242,1.02755 0.20377,0.3452 0.40172,0.692692 0.59714,1.043342 0.19544,0.35064 0.38769,0.70313 0.57463,1.0591 0.18694,0.35598 0.36927,0.71594 0.54758,1.07714 0.17832,0.36119 0.35323,0.72436 0.5228,1.09065 0.16955,0.36629 0.33508,0.73516 0.49574,1.10643 0.0494,0.11417 0.0957,0.23014 0.14422,0.34477 l 0.002,0.002 1.49626,-0.002 c 1.30405,0 1.55799,-1.25665 1.22136,-2.02582 -0.50479,-1.15374 -1.04635,-2.27744 -1.62922,-3.389142 -0.51678,-0.9494 -1.05084,-1.88611 -1.6157,-2.80551 -9.46426,-15.60566 -26.01946,-25.0896 -44.2751,-25.35996 z"
       inkscape:label="Bumper"
       inkscape:export-filename="NSwitchJoycon_R_Bumper.png"
       inkscape:export-xdpi="95.8863"
       inkscape:export-ydpi="95.8863" />
    <path
       style="color:#000000;fill:#107893;fill-opacity:0.501961;stroke:#24d2f6;stroke-width:1.2;stroke-linecap:round;stroke-linejoin:round;stroke-dasharray:none;stroke-opacity:1"
       d="m 186.89132,56.826303 c -4.5003,0.004 -8.7278,0.64995 -11.49545,1.68416 -1.94924,0.72836 -3.17357,1.65041 -3.99455,2.65048 h 13.77383 c 0.14259,0.002 0.28562,0.004 0.42778,0.009 0.14259,0.003 0.28475,0.009 0.42691,0.0131 0.14215,0.004 0.28431,0.009 0.42646,0.0131 0.14216,0.004 0.28345,0.0131 0.42517,0.0174 0.14172,0.009 0.28387,0.0131 0.42516,0.02179 0.14172,0.009 0.28257,0.0174 0.42385,0.0262 0.14129,0.009 0.28257,0.0174 0.42385,0.0262 0.14085,0.009 0.28214,0.0218 0.42255,0.0305 0.14085,0.0131 0.2817,0.0218 0.42211,0.0349 0.14041,0.0131 0.28082,0.0262 0.42123,0.0392 0.14042,0.0131 0.27996,0.0262 0.42037,0.0392 0.13998,0.0131 0.28039,0.0305 0.41993,0.0445 0.13954,0.0174 0.27908,0.0305 0.41862,0.048 0.13954,0.0174 0.27908,0.0349 0.41818,0.051 0.13911,0.0174 0.27865,0.0349 0.41775,0.0541 0.1391,0.0174 0.27734,0.0393 0.416,0.0576 0.13867,0.0218 0.2769,0.0393 0.41557,0.0611 0.13823,0.0218 0.2769,0.0436 0.41513,0.0641 0.13824,0.0218 0.2756,0.044 0.41339,0.0672 0.1378,0.0218 0.27559,0.0462 0.41295,0.0702 0.13736,0.0218 0.27472,0.0488 0.41165,0.0737 0.13736,0.0262 0.27384,0.0506 0.41077,0.0763 0.13692,0.0262 0.27341,0.0528 0.4099,0.0802 0.13649,0.0262 0.27297,0.0549 0.40946,0.0833 0.13605,0.0262 0.2721,0.0571 0.40772,0.0863 0.13562,0.0305 0.27167,0.0589 0.40728,0.0894 0.13562,0.0305 0.27036,0.0615 0.40554,0.0929 0.13518,0.0305 0.27036,0.0632 0.4051,0.0955 0.13475,0.0305 0.26905,0.065 0.4038,0.0985 0.13431,0.0349 0.26905,0.0676 0.40292,0.10247 0.13387,0.0349 0.26774,0.0693 0.40161,0.10509 0.13388,0.0349 0.26731,0.072 0.40031,0.10858 0.13343,0.0349 0.26687,0.0737 0.39987,0.1112 0.133,0.0392 0.26556,0.0754 0.39812,0.11425 0.13257,0.0392 0.26513,0.078 0.39726,0.11773 0.13213,0.0392 0.26382,0.0798 0.39594,0.12036 0.13169,0.0392 0.26339,0.082 0.39464,0.1234 0.13126,0.0436 0.26295,0.0837 0.39377,0.12646 0.13081,0.0436 0.26207,0.0859 0.39289,0.12951 0.13082,0.0436 0.2612,0.0881 0.39115,0.133 0.13038,0.0449 0.26033,0.0898 0.39027,0.13562 0.12995,0.0458 0.25902,0.0924 0.38853,0.1391 0.12952,0.0467 0.25859,0.0937 0.38766,0.14172 0.12908,0.048 0.25772,0.0959 0.38592,0.14477 0.12864,0.0488 0.25684,0.0981 0.38504,0.14783 0.12821,0.0497 0.25597,0.10029 0.3833,0.15088 0.12777,0.0506 0.2551,0.1016 0.38243,0.15349 0.12733,0.0519 0.25423,0.10378 0.38068,0.15655 0.1269,0.0528 0.25292,0.10596 0.37938,0.1596 0.12646,0.0536 0.25248,0.1077 0.37806,0.16221 0.12603,0.0545 0.25118,0.10989 0.37676,0.16527 0.12515,0.0558 0.2503,0.11163 0.37502,0.16832 0.12471,0.0567 0.24986,0.11381 0.37414,0.17137 0.12428,0.0576 0.24855,0.11556 0.3724,0.17399 0.12384,0.0584 0.24768,0.1173 0.37109,0.17661 0.1234,0.0593 0.24637,0.11948 0.36934,0.17966 0.12297,0.0606 0.24551,0.12166 0.36804,0.18271 0.12253,0.0615 0.24463,0.12384 0.36629,0.18619 0.1221,0.0624 0.24376,0.12515 0.36542,0.18882 0.12166,0.0632 0.24245,0.12689 0.36324,0.191 0.12079,0.0641 0.24202,0.12907 0.36237,0.19448 0.12035,0.0654 0.24027,0.13082 0.36019,0.1971 0.11992,0.0663 0.2394,0.133 0.35844,0.20015 0.11948,0.0672 0.23897,0.13518 0.35757,0.20321 0.11905,0.068 0.23722,0.13605 0.3554,0.20495 0.11817,0.0689 0.23634,0.13823 0.35408,0.20844 0.11774,0.0698 0.23547,0.14041 0.35234,0.21149 0.1173,0.0706 0.23373,0.14215 0.35016,0.2141 0.11686,0.0719 0.23329,0.1439 0.34928,0.21673 0.116,0.0728 0.23155,0.14608 0.34711,0.21977 0.11556,0.0737 0.23068,0.14783 0.3458,0.22239 0.11512,0.0746 0.22937,0.14957 0.34361,0.22458 0.11425,0.0754 0.2285,0.15175 0.34231,0.22806 0.11382,0.0763 0.22719,0.15306 0.34057,0.23067 0.11294,0.0772 0.22632,0.15481 0.33882,0.23286 0.1125,0.0781 0.22501,0.15655 0.33708,0.23548 0.11206,0.0789 0.2237,0.15872 0.33489,0.23852 0.1112,0.0798 0.22239,0.16047 0.33315,0.24115 0.11076,0.0807 0.22109,0.16221 0.33141,0.24375 0.11033,0.0816 0.22021,0.16396 0.32967,0.24638 0.10945,0.0824 0.2189,0.1657 0.32748,0.24899 0.10902,0.0837 0.21759,0.16789 0.32617,0.25205 0.10815,0.0846 0.21629,0.16963 0.324,0.25466 0.10771,0.0855 0.21498,0.1705 0.32181,0.25684 0.10684,0.0863 0.21411,0.17268 0.32051,0.25989 0.1064,0.0872 0.2128,0.17443 0.31833,0.26251 0.10552,0.0881 0.21105,0.17617 0.31614,0.26513 0.10509,0.089 0.20975,0.17791 0.31397,0.26774 0.10465,0.0898 0.20887,0.17966 0.31265,0.27036 0.10379,0.0907 0.20713,0.1814 0.31004,0.27298 0.10335,0.0916 0.20626,0.18314 0.30874,0.27559 0.10247,0.092 0.20451,0.18489 0.30655,0.27821 0.1016,0.0933 0.2032,0.18663 0.30437,0.28038 0.10117,0.0942 0.20146,0.18838 0.30176,0.28344 0.10029,0.0946 0.20059,0.19013 0.30001,0.28563 0.0999,0.0955 0.19928,0.19186 0.29827,0.28823 0.099,0.0964 0.19797,0.19318 0.29608,0.29042 0.0981,0.0972 0.19579,0.19536 0.29347,0.29347 0.0977,0.0981 0.19492,0.19667 0.29216,0.29565 0.0968,0.099 0.19318,0.19841 0.28955,0.29827 0.0964,0.0999 0.19187,0.20015 0.28737,0.30088 0.0955,0.10073 0.19056,0.2019 0.28518,0.3035 0.0946,0.10161 0.18925,0.20364 0.28344,0.30568 0.0938,0.10248 0.18751,0.20495 0.28039,0.30786 0.0933,0.10335 0.18664,0.2067 0.27908,0.31048 0.0924,0.10378 0.18402,0.20844 0.27603,0.31309 0.0916,0.10466 0.18358,0.20975 0.27428,0.31528 0.0911,0.10552 0.1814,0.21192 0.27167,0.31832 0.048,0.0562 0.0951,0.11338 0.14259,0.17007 -1.69109,-2.94984 -3.42623,-5.40496 -5.09012,-7.5861 -1.92395,-2.5221 -3.75241,-4.67826 -6.38099,-6.84401 -2.62859,-2.16579 -6.057,-4.340565 -10.36941,-5.903455 -4.31244,-1.56294 -9.50796,-2.51347 -14.52211,-2.65562 -0.47008,-0.0131 -0.9385,-0.0218 -1.40404,-0.0174 z"
       id="path5608"
       inkscape:label="Digital Trigger Press"
       inkscape:export-filename="NSwitchJoycon_ZR.png"
       inkscape:export-xdpi="95.8863"
       inkscape:export-ydpi="95.8863" />
    <path
       id="path8518"
       style="display:inline;fill:#107893;fill-opacity:0.501961;fill-rule:nonzero;stroke:#24d2f6;stroke-width:1.2;stroke-linecap:round;stroke-linejoin:round;stroke-dasharray:none;stroke-opacity:1"
       d="m 146.95027,71.671218 c 1.15377,0 2.10542,0.9029 2.12723,2.05061 l 0.0158,1.19431 -0.036,0.018 h -14.11992 c -0.43501,0 -0.87001,0.005 -1.30248,0.0158 -0.43246,0.0105 -0.86366,0.0265 -1.29346,0.0473 -0.42979,0.0209 -0.85746,0.0477 -1.28444,0.0789 -0.42699,0.0311 -0.85365,0.0669 -1.27769,0.10816 -0.42405,0.0413 -0.84547,0.0884 -1.26642,0.13971 -0.42096,0.0513 -0.83967,0.10558 -1.25741,0.16675 -0.41774,0.0612 -0.83399,0.12734 -1.2484,0.19831 -0.41439,0.071 -0.82846,0.14696 -1.23937,0.22759 -0.41092,0.0806 -0.81857,0.1667 -1.22586,0.25689 -0.40729,0.0902 -0.81331,0.18431 -1.21685,0.28393 -0.40353,0.0996 -0.80592,0.20429 -1.20557,0.31323 -0.39965,0.10893 -0.79645,0.22212 -1.19207,0.34026 -0.39562,0.11814 -0.78932,0.24234 -1.18078,0.36956 -0.39147,0.12722 -0.78011,0.25816 -1.16727,0.39435 -0.38717,0.13619 -0.77328,0.27635 -1.15601,0.42139 -0.38274,0.14503 -0.76205,0.29466 -1.14023,0.44843 -0.37817,0.15377 -0.75549,0.31309 -1.12896,0.47547 -0.37347,0.16238 -0.74456,0.32713 -1.11319,0.49801 -0.36862,0.17087 -0.73375,0.34804 -1.09741,0.5273 -0.36367,0.17925 -0.72534,0.36231 -1.08389,0.54983 -0.35856,0.18752 -0.71482,0.37896 -1.06812,0.57462 -0.35332,0.19566 -0.70442,0.39572 -1.05235,0.59941 -0.34794,0.20369 -0.6919,0.41034 -1.03432,0.62194 -0.34243,0.21161 -0.68178,0.42734 -1.01855,0.64673 -0.33676,0.2194 -0.67178,0.4422 -1.00277,0.66927 -0.33098,0.22707 -0.65966,0.45942 -0.98475,0.69405 -0.32506,0.23463 -0.64544,0.47226 -0.96445,0.71434 -0.31902,0.24207 -0.63587,0.48747 -0.94869,0.73686 -0.31283,0.2494 -0.62191,0.5028 -0.92841,0.7594 -0.30651,0.25661 -0.61034,0.51599 -0.91038,0.77969 -0.30005,0.26369 -0.59665,0.53155 -0.8901,0.80221 -0.293452,0.27067 -0.583102,0.54498 -0.869822,0.8225 -0.28672,0.27752 -0.56968,0.55852 -0.84954,0.84278 -0.27985,0.28426 -0.5564,0.57218 -0.82926,0.86306 -0.27286,0.29088 -0.54325,0.5837 -0.80897,0.88108 -0.26572,0.29739 -0.52799,0.5976 -0.78645,0.90137 -0.25845,0.30377 -0.51286,0.61161 -0.7639,0.92165 -0.25105,0.31004 -0.49787,0.62348 -0.74138,0.93967 -0.24351,0.3162 -0.48301,0.63548 -0.71883,0.95771 -0.23584,0.32222 -0.46829,0.64758 -0.69631,0.97573 -0.22803,0.32814 -0.45144,0.65981 -0.67152,0.99375 -0.22008,0.33395 -0.437,0.6699 -0.64899,1.00954 -0.21199,0.33962 -0.42041,0.68236 -0.6242,1.02755 -0.20377,0.3452 -0.40172,0.692692 -0.59714,1.043342 -0.19544,0.35064 -0.38769,0.70313 -0.57463,1.0591 -0.18694,0.35598 -0.36927,0.71594 -0.54758,1.07714 -0.17832,0.36119 -0.35323,0.72436 -0.5228,1.09065 -0.16955,0.36629 -0.33508,0.73516 -0.49574,1.10643 -0.0494,0.11417 -0.0957,0.23014 -0.14422,0.34477 l -0.002,0.002 -1.49626,-0.002 c -1.30405,0 -1.55799,-1.25665 -1.22136,-2.02582 0.50479,-1.15374 1.04635,-2.27744 1.62922,-3.389142 0.51678,-0.9494 1.05084,-1.88611 1.6157,-2.80551 9.46426,-15.60566 26.019462,-25.0896 44.275102,-25.35996 z"
       inkscape:label="Bumper"
       inkscape:export-filename="NSwitchJoycon_L_Bumper.png"
       inkscape:export-xdpi="95.8863"
       inkscape:export-ydpi="95.8863" />
    <path
       style="color:#000000;fill:#107893;fill-opacity:0.501961;stroke:#24d2f6;stroke-width:1.2;stroke-linecap:round;stroke-linejoin:round;stroke-dasharray:none;stroke-opacity:1"
       d="m 125.21326,56.826303 c 4.5003,0.004 8.7278,0.64995 11.49545,1.68416 1.94924,0.72836 3.17357,1.65041 3.99455,2.65048 h -13.77383 c -0.14259,0.002 -0.28562,0.004 -0.42778,0.009 -0.14259,0.003 -0.28475,0.009 -0.42691,0.0131 -0.14215,0.004 -0.28431,0.009 -0.42646,0.0131 -0.14216,0.004 -0.28345,0.0131 -0.42517,0.0174 -0.14172,0.009 -0.28387,0.0131 -0.42516,0.02179 -0.14172,0.009 -0.28257,0.0174 -0.42385,0.0262 -0.14129,0.009 -0.28257,0.0174 -0.42385,0.0262 -0.14085,0.009 -0.28214,0.0218 -0.42255,0.0305 -0.14085,0.0131 -0.2817,0.0218 -0.42211,0.0349 -0.14041,0.0131 -0.28082,0.0262 -0.42123,0.0392 -0.14042,0.0131 -0.27996,0.0262 -0.42037,0.0392 -0.13998,0.0131 -0.28039,0.0305 -0.41993,0.0445 -0.13954,0.0174 -0.27908,0.0305 -0.41862,0.048 -0.13954,0.0174 -0.27908,0.0349 -0.41818,0.051 -0.13911,0.0174 -0.27865,0.0349 -0.41775,0.0541 -0.1391,0.0174 -0.27734,0.0393 -0.416,0.0576 -0.13867,0.0218 -0.2769,0.0393 -0.41557,0.0611 -0.13823,0.0218 -0.2769,0.0436 -0.41513,0.0641 -0.13824,0.0218 -0.2756,0.044 -0.41339,0.0672 -0.1378,0.0218 -0.27559,0.0462 -0.41295,0.0702 -0.13736,0.0218 -0.27472,0.0488 -0.41165,0.0737 -0.13736,0.0262 -0.27384,0.0506 -0.41077,0.0763 -0.13692,0.0262 -0.27341,0.0528 -0.4099,0.0802 -0.13649,0.0262 -0.27297,0.0549 -0.40946,0.0833 -0.13605,0.0262 -0.2721,0.0571 -0.40772,0.0863 -0.13562,0.0305 -0.27167,0.0589 -0.40728,0.0894 -0.13562,0.0305 -0.27036,0.0615 -0.40554,0.0929 -0.13518,0.0305 -0.27036,0.0632 -0.4051,0.0955 -0.13475,0.0305 -0.26905,0.065 -0.4038,0.0985 -0.13431,0.0349 -0.26905,0.0676 -0.40292,0.10247 -0.13387,0.0349 -0.26774,0.0693 -0.40161,0.10509 -0.13388,0.0349 -0.26731,0.072 -0.40031,0.10858 -0.13343,0.0349 -0.26687,0.0737 -0.39987,0.1112 -0.133,0.0392 -0.26556,0.0754 -0.39812,0.11425 -0.13257,0.0392 -0.26513,0.078 -0.39726,0.11773 -0.13213,0.0392 -0.26382,0.0798 -0.39594,0.12036 -0.13169,0.0392 -0.26339,0.082 -0.39464,0.1234 -0.13126,0.0436 -0.26295,0.0837 -0.39377,0.12646 -0.13081,0.0436 -0.26207,0.0859 -0.39289,0.12951 -0.13082,0.0436 -0.2612,0.0881 -0.39115,0.133 -0.13038,0.0449 -0.26033,0.0898 -0.39027,0.13562 -0.12995,0.0458 -0.25902,0.0924 -0.38853,0.1391 -0.12952,0.0467 -0.25859,0.0937 -0.38766,0.14172 -0.12908,0.048 -0.25772,0.0959 -0.38592,0.14477 -0.12864,0.0488 -0.25684,0.0981 -0.38504,0.14783 -0.12821,0.0497 -0.25597,0.10029 -0.3833,0.15088 -0.12777,0.0506 -0.2551,0.1016 -0.38243,0.15349 -0.12733,0.0519 -0.25423,0.10378 -0.38068,0.15655 -0.1269,0.0528 -0.25292,0.10596 -0.37938,0.1596 -0.12646,0.0536 -0.25248,0.1077 -0.37806,0.16221 -0.12603,0.0545 -0.25118,0.10989 -0.37676,0.16527 -0.12515,0.0558 -0.2503,0.11163 -0.37502,0.16832 -0.12471,0.0567 -0.24986,0.11381 -0.37414,0.17137 -0.12428,0.0576 -0.24855,0.11556 -0.3724,0.17399 -0.12384,0.0584 -0.24768,0.1173 -0.37109,0.17661 -0.1234,0.0593 -0.24637,0.11948 -0.36934,0.17966 -0.12297,0.0606 -0.24551,0.12166 -0.36804,0.18271 -0.12253,0.0615 -0.24463,0.12384 -0.36629,0.18619 -0.1221,0.0624 -0.24376,0.12515 -0.36542,0.18882 -0.12166,0.0632 -0.24245,0.12689 -0.36324,0.191 -0.12079,0.0641 -0.24202,0.12907 -0.36237,0.19448 -0.12035,0.0654 -0.24027,0.13082 -0.36019,0.1971 -0.11992,0.0663 -0.2394,0.133 -0.35844,0.20015 -0.11948,0.0672 -0.23897,0.13518 -0.35757,0.20321 -0.11905,0.068 -0.23722,0.13605 -0.3554,0.20495 -0.11817,0.0689 -0.23634,0.13823 -0.35408,0.20844 -0.11774,0.0698 -0.23547,0.14041 -0.35234,0.21149 -0.1173,0.0706 -0.23373,0.14215 -0.35016,0.2141 -0.116862,0.0719 -0.233292,0.1439 -0.349282,0.21673 -0.116,0.0728 -0.23155,0.14608 -0.34711,0.21977 -0.11556,0.0737 -0.23068,0.14783 -0.3458,0.22239 -0.11512,0.0746 -0.22937,0.14957 -0.34361,0.22458 -0.11425,0.0754 -0.2285,0.15175 -0.34231,0.22806 -0.11382,0.0763 -0.22719,0.15306 -0.34057,0.23067 -0.11294,0.0772 -0.22632,0.15481 -0.33882,0.23286 -0.1125,0.0781 -0.22501,0.15655 -0.33708,0.23548 -0.11206,0.0789 -0.2237,0.15872 -0.33489,0.23852 -0.1112,0.0798 -0.22239,0.16047 -0.33315,0.24115 -0.11076,0.0807 -0.22109,0.16221 -0.33141,0.24375 -0.11033,0.0816 -0.22021,0.16396 -0.32967,0.24638 -0.10945,0.0824 -0.2189,0.1657 -0.32748,0.24899 -0.10902,0.0837 -0.21759,0.16789 -0.32617,0.25205 -0.10815,0.0846 -0.21629,0.16963 -0.324,0.25466 -0.10771,0.0855 -0.21498,0.1705 -0.32181,0.25684 -0.10684,0.0863 -0.21411,0.17268 -0.32051,0.25989 -0.1064,0.0872 -0.2128,0.17443 -0.31833,0.26251 -0.10552,0.0881 -0.21105,0.17617 -0.31614,0.26513 -0.10509,0.089 -0.20975,0.17791 -0.31397,0.26774 -0.10465,0.0898 -0.20887,0.17966 -0.31265,0.27036 -0.10379,0.0907 -0.20713,0.1814 -0.31004,0.27298 -0.10335,0.0916 -0.20626,0.18314 -0.30874,0.27559 -0.10247,0.092 -0.20451,0.18489 -0.30655,0.27821 -0.1016,0.0933 -0.2032,0.18663 -0.30437,0.28038 -0.10117,0.0942 -0.20146,0.18838 -0.30176,0.28344 -0.10029,0.0946 -0.20059,0.19013 -0.30001,0.28563 -0.0999,0.0955 -0.19928,0.19186 -0.29827,0.28823 -0.099,0.0964 -0.19797,0.19318 -0.29608,0.29042 -0.0981,0.0972 -0.19579,0.19536 -0.29347,0.29347 -0.0977,0.0981 -0.19492,0.19667 -0.29216,0.29565 -0.0968,0.099 -0.19318,0.19841 -0.28955,0.29827 -0.0964,0.0999 -0.19187,0.20015 -0.28737,0.30088 -0.0955,0.10073 -0.19056,0.2019 -0.28518,0.3035 -0.0946,0.10161 -0.18925,0.20364 -0.28344,0.30568 -0.0938,0.10248 -0.18751,0.20495 -0.28039,0.30786 -0.0933,0.10335 -0.18664,0.2067 -0.27908,0.31048 -0.0924,0.10378 -0.18402,0.20844 -0.27603,0.31309 -0.0916,0.10466 -0.18358,0.20975 -0.27428,0.31528 -0.0911,0.10552 -0.1814,0.21192 -0.27167,0.31832 -0.048,0.0562 -0.0951,0.11338 -0.14259,0.17007 1.69109,-2.94984 3.42623,-5.40496 5.09012,-7.5861 1.92395,-2.5221 3.75241,-4.67826 6.38099,-6.84401 2.628592,-2.16579 6.057002,-4.340565 10.369412,-5.903455 4.31244,-1.56294 9.50796,-2.51347 14.52211,-2.65562 0.47008,-0.0131 0.9385,-0.0218 1.40404,-0.0174 z"
       id="path8520"
       inkscape:label="Digital Trigger Press"
       inkscape:export-filename="NSwitchJoycon_ZL.png"
       inkscape:export-xdpi="95.8863"
       inkscape:export-ydpi="95.8863" />
    <path
       style="color:#000000;display:inline;fill:#107893;fill-opacity:0.501961;stroke:#24d2f6;stroke-width:3;stroke-linecap:round;stroke-linejoin:round;stroke-dasharray:none;stroke-opacity:1"
       d="m 22.973844,35.994746 c 0,10.448889 8.464864,18.913749 18.913793,18.913749 10.448886,0 18.913747,-8.46486 18.913747,-18.913749 0,-10.442704 -8.464861,-18.913791 -18.913747,-18.913791 -10.448929,0 -18.913793,8.471087 -18.913793,18.913791"
       id="path5532-2"
       inkscape:label="Stick Click"
       inkscape:export-filename="NSwitchJoycon_AnalogStickClick.png"
       inkscape:export-xdpi="95.8863"
       inkscape:export-ydpi="95.8863" />
  </g>
</svg>
