<?xml version="1.0" encoding="UTF-8" standalone="no"?>
<!-- Created with Inkscape (http://www.inkscape.org/) -->
<svg
   xmlns:svg="http://www.w3.org/2000/svg"
   xmlns="http://www.w3.org/2000/svg"
   version="1.0"
   width="171.81796"
   height="43.527214"
   id="svg2">
  <defs
     id="defs4" />
  <g
     transform="translate(-32.711327,-529.05475)"
     id="layer1">
    <path
       d="M 143.28396,551.60591 L 143.28396,548.93807 L 146.33292,548.93807 C 148.54703,548.93807 150.13504,548.48436 151.09692,547.57692 C 152.05878,546.66951 152.53972,545.56244 152.53973,544.25572 C 152.53972,542.82806 152.00435,541.69377 150.93359,540.85287 C 149.86282,540.012 148.52284,539.59157 146.91367,539.59153 C 143.92519,539.59157 141.85627,541.0374 140.70685,543.92906 L 137.67604,543.92906 C 139.40621,539.27094 142.58827,536.94186 147.22221,536.94184 C 149.82348,536.94186 151.92569,537.63453 153.52883,539.01986 C 155.13195,540.40522 155.93351,542.07186 155.93353,544.0198 C 155.93351,545.5322 155.44955,546.85098 154.48163,547.97619 C 153.51369,549.10142 152.27958,549.80921 150.77932,550.09958 C 152.47318,550.34156 153.92809,551.04937 155.14406,552.22295 C 156.36,553.39657 156.96798,554.91499 156.96798,556.77826 C 156.96798,558.99238 156.06357,560.85867 154.25478,562.37708 C 152.44595,563.89551 149.96262,564.65473 146.80477,564.65473 C 144.31236,564.65473 142.17688,564.06188 140.39832,562.87618 C 138.61977,561.69048 136.98078,558.28662 136.69601,555.09708 L 139.81758,555.09708 C 140.35641,559.26015 143.07222,561.9506 146.75034,561.9506 C 149.14593,561.9506 150.86703,561.43941 151.91361,560.41704 C 152.96017,559.39467 153.48344,558.17569 153.48346,556.7601 C 153.48344,555.22353 152.85731,553.98034 151.60509,553.03057 C 150.35282,552.08081 148.59543,551.60593 146.33292,551.60591 L 143.28396,551.60591 z M 177.07561,543.74755 L 174.02666,543.74755 C 172.99821,541.04949 171.12286,539.70044 168.40058,539.70043 C 163.40367,539.70044 160.85076,543.07225 160.74189,551.16651 C 161.50412,549.52104 162.62024,548.25064 164.09029,547.3553 C 165.56032,546.45998 167.11203,546.01233 168.74541,546.0123 C 171.2136,546.01233 173.28255,546.87438 174.95222,548.59848 C 176.62188,550.32261 177.45671,553.06386 177.45673,555.47155 C 177.45671,557.96396 176.57046,560.11759 174.79796,561.93246 C 173.02543,563.74731 170.75383,564.65473 167.98318,564.65473 C 164.82531,564.65473 162.31476,563.46903 160.4515,561.09761 C 158.58824,558.72619 157.65662,555.49577 157.65662,551.40626 C 157.65662,547.41359 158.53682,544.00469 160.29724,541.17955 C 162.05764,538.35443 164.789,536.94186 168.49132,536.94184 C 172.73808,536.94186 175.59951,539.21044 177.07561,543.74755 L 177.07561,543.74755 z M 167.91058,561.9869 C 169.79801,561.9869 171.34367,561.3638 172.54754,560.11759 C 173.75138,558.87138 174.35331,557.37717 174.35334,555.6349 C 174.35331,553.91683 173.76651,551.76845 172.5929,550.54038 C 171.41928,549.31235 169.96136,548.69832 168.21911,548.69829 C 166.41632,548.69832 164.84649,549.34259 163.50955,550.63112 C 162.17259,551.91969 161.50412,554.10436 161.50412,555.83453 C 161.50412,557.4316 162.10301,558.85626 163.30083,560.1085 C 164.49863,561.36077 166.0352,561.9869 167.91058,561.9869 L 167.91058,561.9869 z M 189.46343,564.65473 C 186.26927,564.65473 183.75569,563.32385 181.92271,560.66206 C 180.08968,558.00026 179.17319,554.69722 179.17319,550.75292 C 179.17319,546.88124 180.04432,543.61147 181.78657,540.9436 C 183.52884,538.27578 186.05755,536.94186 189.37269,536.94184 C 192.833,536.94186 195.42522,538.33328 197.14936,541.11602 C 198.87346,543.89882 199.73551,547.16557 199.73554,550.91625 C 199.73551,554.58228 198.84926,557.78852 197.07678,560.53501 C 195.30425,563.28149 192.76647,564.65473 189.46343,564.65473 L 189.46343,564.65473 z M 189.48158,562.04135 C 191.86509,562.04135 193.59828,561.022 194.68115,558.9833 C 195.764,556.94463 196.30543,554.38871 196.30546,551.31553 C 196.30543,547.93991 195.7519,545.13292 194.64486,542.89459 C 193.53778,540.65628 191.76829,539.53711 189.33639,539.53709 C 186.97707,539.53711 185.25597,540.55948 184.17311,542.60421 C 183.09025,544.64897 182.54882,547.33495 182.54882,550.66218 C 182.54882,554.12251 183.12049,556.88412 184.26386,558.94702 C 185.40721,561.0099 187.14645,562.04135 189.48158,562.04135 L 189.48158,562.04135 z"
       id="text2400"
       style="font-size:566.09667969px;font-style:normal;font-weight:normal;text-align:start;line-height:125%;text-anchor:start;fill:#989898;fill-opacity:1;stroke:none;stroke-width:1px;stroke-linecap:butt;stroke-linejoin:miter;stroke-opacity:1;font-family:Bitstream Vera Sans" />
    <path
       d="M 60.145898,537.10519 L 50.861113,550.46255 L 60.127835,564.12844 L 55.991229,564.12844 L 48.657331,553.00336 L 41.142798,564.12844 L 37.241021,564.12844 L 46.616125,550.62589 L 37.457787,537.10519 L 41.57633,537.10519 L 48.819906,548.08508 L 56.226059,537.10519 L 60.145898,537.10519 z M 83.584296,555.81639 C 83.584271,557.1594 83.331381,558.3451 82.825618,559.37352 C 82.31981,560.40192 81.639407,561.24887 80.784409,561.91432 C 79.772817,562.71285 78.661895,563.28151 77.451641,563.62028 C 76.241352,563.95904 74.02759,564.12844 72.161015,564.12844 L 62.623336,564.12844 L 62.623336,551.007 L 57.2042,551.007 L 59.010578,547.97619 L 62.623336,547.97619 L 62.623336,537.10519 L 70.589464,537.10519 C 72.552384,537.10521 74.6969,537.17782 75.672359,537.32296 C 76.647787,537.46818 77.918747,537.77065 78.809912,538.2304 C 79.79738,538.75068 80.513908,539.41915 80.959502,540.23582 C 81.405053,541.05253 81.62784,542.02953 81.627862,543.16682 C 81.62784,544.44934 81.302694,545.54127 80.652417,546.44264 C 80.002102,547.34402 79.135041,548.06696 78.051233,548.61139 L 78.051233,548.75658 C 79.869634,549.13166 80.965027,549.93323 82.012747,551.16127 C 83.060423,552.38933 83.584271,553.94104 83.584296,555.81639 L 83.584296,555.81639 z M 77.906721,543.63867 C 77.906704,542.98534 77.798322,542.43484 77.581573,541.98716 C 77.364792,541.53951 77.015558,541.17654 76.533875,540.89825 C 75.96786,540.57159 74.268439,540.36894 73.461608,540.29026 C 72.654744,540.21165 71.655217,540.17233 70.463018,540.1723 L 66.199965,540.1723 L 66.199965,547.97619 L 70.824293,547.97619 C 71.944235,547.9762 72.83538,547.91874 73.497734,547.80379 C 74.160058,547.68886 75.449556,547.4499 76.015571,547.08691 C 76.581552,546.72395 77.319632,546.25511 77.554477,545.68038 C 77.789289,545.10571 77.906704,544.42514 77.906721,543.63867 L 77.906721,543.63867 z M 79.863157,555.96157 C 79.863137,554.87268 79.700562,554.00759 79.375436,553.36632 C 79.050268,552.72508 78.460184,552.18062 77.605183,551.73295 C 77.027125,551.43049 76.325649,551.23388 75.500753,551.14312 C 74.675825,551.05239 72.997957,551.00702 71.817802,551.007 L 66.199965,551.007 L 66.199965,561.06132 L 70.932676,561.06132 C 72.498192,561.06133 74.456048,560.97967 75.455595,560.81632 C 76.455106,560.65299 77.273997,560.35353 77.912268,559.91797 C 78.586631,559.44611 79.080371,558.9077 79.393499,558.30274 C 79.706584,557.69779 79.863137,556.91742 79.863157,555.96157 L 79.863157,555.96157 z M 86.771764,550.35366 C 86.771759,553.29374 87.729138,555.84664 89.643906,558.01236 C 91.52253,560.2144 93.91297,561.31542 96.815228,561.3154 C 98.922654,561.31542 100.96987,560.58343 102.95691,559.11942 C 105.61829,557.14729 106.94899,554.39476 106.94901,550.86181 C 106.94899,548.05486 106.06988,545.66528 104.3117,543.69312 C 102.38487,541.52741 99.861967,540.44456 96.742974,540.44452 C 94.045435,540.44456 91.71521,541.41247 89.752288,543.3483 C 87.765265,545.32046 86.771759,547.65558 86.771764,550.35366 L 86.771764,550.35366 z M 82.97837,550.35366 C 82.978367,546.68767 84.405408,543.5298 87.259486,540.8801 C 89.981087,538.3635 93.033864,537.10521 96.417824,537.10519 C 99.898094,537.10521 102.99302,538.15179 105.70261,540.24489 C 109.01428,542.76152 110.67012,546.25209 110.67015,550.71662 C 110.67012,554.14067 109.41168,557.26223 106.89482,560.08129 C 104.17319,563.06978 100.89762,564.56401 97.068121,564.56401 C 93.2988,564.56401 90.065386,563.33596 87.367868,560.87984 C 84.441534,558.15755 82.978367,554.64884 82.97837,550.35366 L 82.97837,550.35366 z M 130.19552,537.10519 L 120.91074,550.46255 L 130.17745,564.12844 L 126.04085,564.12844 L 118.70695,553.00336 L 111.19242,564.12844 L 107.29064,564.12844 L 116.66575,550.62589 L 107.50741,537.10519 L 111.62595,537.10519 L 118.86953,548.08508 L 126.27569,537.10519 L 130.19552,537.10519 z"
       id="text2383"
       style="font-size:564.77246094px;font-style:normal;font-weight:normal;text-align:start;line-height:125%;text-anchor:start;fill:#99cb33;fill-opacity:1;stroke:none;stroke-width:1px;stroke-linecap:butt;stroke-linejoin:miter;stroke-opacity:1;font-family:Bitstream Vera Sans" />
  </g>
</svg>
