<?xml version="1.0" encoding="UTF-8" standalone="no"?>
<svg
   width="205.53026mm"
   height="133.6134mm"
   viewBox="0 0 205.53026 133.61341"
   version="1.1"
   id="svg8"
   sodipodi:docname="Gyro-Acel.svg"
   inkscape:version="1.1 (c68e22c387, 2021-05-23)"
   inkscape:export-filename="C:\Users\AL200\OneDrive\Pictures\AL2009man Work Projects\VSCView - Controller Theme Layout\VSCView - Controller Theme (Ver. 1.20)\DualShock 4 Controller Images\Image Assets\DualShock 4 Assets\ps4_gyro-accel.png"
   inkscape:export-xdpi="32.007938"
   inkscape:export-ydpi="32.007938"
   xmlns:inkscape="http://www.inkscape.org/namespaces/inkscape"
   xmlns:sodipodi="http://sodipodi.sourceforge.net/DTD/sodipodi-0.dtd"
   xmlns:xlink="http://www.w3.org/1999/xlink"
   xmlns="http://www.w3.org/2000/svg"
   xmlns:svg="http://www.w3.org/2000/svg"
   xmlns:rdf="http://www.w3.org/1999/02/22-rdf-syntax-ns#"
   xmlns:cc="http://creativecommons.org/ns#"
   xmlns:dc="http://purl.org/dc/elements/1.1/">
  <defs
     id="defs2">
    <linearGradient
       id="linearGradient851"
       inkscape:swatch="solid">
      <stop
         style="stop-color:#ffffff;stop-opacity:1;"
         offset="0"
         id="stop849" />
    </linearGradient>
    <linearGradient
       id="linearGradient1709"
       inkscape:swatch="solid">
      <stop
         style="stop-color:#24d2f6;stop-opacity:1;"
         offset="0"
         id="stop1707" />
    </linearGradient>
    <linearGradient
       inkscape:collect="always"
       xlink:href="#linearGradient1709"
       id="linearGradient853"
       x1="4.7568011"
       y1="147.976"
       x2="207.00575"
       y2="147.976"
       gradientUnits="userSpaceOnUse"
       gradientTransform="translate(285.62417,4.3680433)" />
    <filter
       style="color-interpolation-filters:sRGB"
       inkscape:label="Drop Shadow"
       id="filter1677"
       x="-0.008072515"
       width="1.016224"
       y="-0.012852669"
       height="1.0253947">
      <feFlood
         flood-opacity="0.498039"
         flood-color="rgb(0,0,0)"
         result="flood"
         id="feFlood1667" />
      <feComposite
         in="flood"
         in2="SourceGraphic"
         operator="in"
         result="composite1"
         id="feComposite1669" />
      <feOffset
         dx="0"
         dy="0"
         result="offset"
         id="feOffset1673" />
      <feComposite
         in="SourceGraphic"
         in2="offset"
         operator="over"
         result="composite2"
         id="feComposite1675" />
    </filter>
    <filter
       style="color-interpolation-filters:sRGB"
       inkscape:label="Drop Shadow"
       id="filter2039"
       x="-0.050983097"
       width="1.1019661"
       y="-0.050977685"
       height="1.1019554">
      <feFlood
         flood-opacity="0.501961"
         flood-color="rgb(0,0,0)"
         result="flood"
         id="feFlood2029" />
      <feComposite
         in="flood"
         in2="SourceGraphic"
         operator="in"
         result="composite1"
         id="feComposite2031" />
      <feOffset
         dx="0"
         dy="0"
         result="offset"
         id="feOffset2035" />
      <feComposite
         in="SourceGraphic"
         in2="offset"
         operator="over"
         result="composite2"
         id="feComposite2037" />
    </filter>
    <filter
       style="color-interpolation-filters:sRGB"
       inkscape:label="Drop Shadow"
       id="filter2039-8"
       x="0"
       width="1"
       y="0"
       height="1">
      <feFlood
         flood-opacity="0.501961"
         flood-color="rgb(0,0,0)"
         result="flood"
         id="feFlood2029-8" />
      <feComposite
         in="flood"
         in2="SourceGraphic"
         operator="in"
         result="composite1"
         id="feComposite2031-1" />
      <feOffset
         dx="0"
         dy="0"
         result="offset"
         id="feOffset2035-8" />
      <feComposite
         in="SourceGraphic"
         in2="offset"
         operator="over"
         result="composite2"
         id="feComposite2037-0" />
    </filter>
  </defs>
  <sodipodi:namedview
     id="base"
     pagecolor="#ffffff"
     bordercolor="#666666"
     borderopacity="1.0"
     inkscape:pageopacity="0.0"
     inkscape:pageshadow="2"
     inkscape:zoom="0.5"
     inkscape:cx="253"
     inkscape:cy="376"
     inkscape:document-units="mm"
     inkscape:current-layer="layer1"
     inkscape:document-rotation="0"
     showgrid="false"
     inkscape:window-width="1920"
     inkscape:window-height="995"
     inkscape:window-x="-9"
     inkscape:window-y="-9"
     inkscape:window-maximized="1"
     inkscape:pagecheckerboard="0" />
  <metadata
     id="metadata5">
    <rdf:RDF>
      <cc:Work
         rdf:about="">
        <dc:format>image/svg+xml</dc:format>
        <dc:type
           rdf:resource="http://purl.org/dc/dcmitype/StillImage" />
        <dc:title />
      </cc:Work>
    </rdf:RDF>
  </metadata>
  <g
     inkscape:label="Gyro Controller "
     inkscape:groupmode="layer"
     id="layer1"
     transform="translate(-286.46858,-83.279474)">
    <path
       style="display:inline;opacity:1;mix-blend-mode:normal;fill:#107893;fill-opacity:1;stroke:url(#linearGradient853);stroke-width:3.265;stroke-linecap:round;stroke-linejoin:round;stroke-miterlimit:4;stroke-dasharray:none;paint-order:normal;filter:url(#filter1677)"
       d="m 305.97661,215.09708 c -3.45215,-0.51786 -5.74785,-1.46072 -8.50794,-3.49427 -5.1743,-3.81226 -7.50031,-8.09068 -8.94807,-16.45886 -0.49133,-2.8399 -0.56967,-13.33727 -0.13515,-18.10846 1.06599,-11.7049 2.57924,-19.26696 8.31565,-41.55508 5.73329,-22.27605 6.80637,-25.25966 11.84731,-32.94068 0.95505,-1.45524 2.37463,-3.776957 3.15461,-5.159375 1.10224,-1.953577 1.63777,-2.631366 2.40407,-3.042654 0.82035,-0.440305 0.98603,-0.670541 0.98663,-1.371046 7.9e-4,-0.873957 0.60047,-1.462884 2.17918,-2.139928 0.5638,-0.241795 0.76139,-0.548712 0.89627,-1.392189 0.3055,-1.910463 2.68625,-3.611485 5.91042,-4.222937 1.80947,-0.343158 6.41397,-0.343158 8.22344,0 2.80623,0.532192 5.65134,2.351157 5.85819,3.745327 0.0578,0.389508 0.40792,0.679473 1.11478,0.92322 1.53543,0.529463 1.7476,0.802543 1.7476,2.249295 0,1.008201 0.10361,1.329594 0.46302,1.436336 0.25466,0.07563 0.82021,0.328641 1.25677,0.562243 2.64066,1.413002 2.35982,1.366671 8.35358,1.378096 3.11813,0.0059 20.2545,0.01095 38.08079,0.01112 17.82631,1.74e-4 34.91178,0.0032 37.96771,0.0068 l 5.55625,0.0065 2.29866,-1.125598 2.29865,-1.125598 0.0826,-1.322916 c 0.0794,-1.272594 0.12571,-1.342935 1.21589,-1.849163 0.84131,-0.390661 1.18633,-0.731505 1.33914,-1.322917 0.25529,-0.988028 2.16481,-2.482745 4.07891,-3.192847 1.17186,-0.434741 2.08152,-0.514241 5.88407,-0.514241 5.09347,0 6.26643,0.271974 8.5299,1.977839 1.05474,0.794899 1.29798,1.14599 1.49503,2.157932 0.20169,1.035734 0.35882,1.253225 1.09873,1.520781 1.5085,0.54548 2.2378,1.293456 2.2378,2.29511 0,0.731776 0.11998,0.93191 0.63637,1.061515 0.85692,0.215073 1.42239,0.896943 2.94777,3.55453 0.70997,1.236927 2.11202,3.499115 3.11568,5.027085 4.73378,7.20666 6.33707,11.64172 11.4299,31.6177 1.113,4.36563 2.3147,9.0686 2.67043,10.45104 1.82918,7.10856 3.95824,16.9325 4.70197,21.69584 1.66022,10.63324 2.07369,23.12661 0.97456,29.44733 -0.90842,5.22397 -2.60651,9.49091 -4.80876,12.08337 -1.53922,1.81195 -4.68315,4.33965 -6.60308,5.30883 -5.0369,2.54262 -11.20221,2.58752 -16.12317,0.11742 -4.59392,-2.30594 -9.64994,-7.2212 -12.30916,-11.96648 -3.5113,-6.26581 -7.19911,-14.95834 -11.25272,-26.52381 -0.9343,-2.66569 -1.95025,-4.00489 -3.29404,-4.34216 -0.53627,-0.13459 -0.92664,0.0104 -1.71995,0.63869 -1.81863,1.44037 -5.45748,3.11359 -8.09859,3.7239 -5.61436,1.29736 -12.83436,-0.24085 -17.20584,-3.66566 l -1.28533,-1.00698 -17.85938,0.011 -17.85937,0.011 -1.32291,1.01388 c -4.24261,3.25151 -10.95125,4.78984 -16.39976,3.76056 -2.90515,-0.54882 -5.43158,-1.59658 -8.04259,-3.33542 -1.81253,-1.20708 -2.04513,-1.29366 -2.79042,-1.03862 -1.49313,0.51096 -1.92615,1.14192 -3.19231,4.65157 -2.48351,6.88399 -5.645,15.15438 -6.17256,16.14724 -0.14513,0.27314 -1.52357,3.05646 -3.06319,6.18516 -2.70336,5.49355 -2.88783,5.78658 -5.38174,8.54859 -1.42034,1.57303 -3.4754,3.57147 -4.56681,4.44098 -4.42585,3.52601 -9.70369,5.15595 -14.40949,4.45002 z"
       id="path847"
       inkscape:label="Controller"
       inkscape:export-filename="C:\Users\AL200\OneDrive\Pictures\VSCView - DS4 Layout image update\VSCView - DualShock 4 Updated Default Layout (Ver. 1.01)\DualShock 4 Controller Images\VSCView Image Assets\DualShock 4 Assets\ps4_gyro-accel.png"
       inkscape:export-xdpi="31.31567"
       inkscape:export-ydpi="31.31567" />
    <path
       id="path961"
       style="color:#000000;display:inline;mix-blend-mode:normal;fill:#f5f5f5;fill-opacity:1;stroke-width:1.36819;-inkscape-stroke:none;filter:url(#filter2039-8)"
       d="m 397.00977,107.32617 c -1.45698,9.4e-4 -2.91098,0.0388 -4.36133,0.11133 h -0.002 c -17.40418,0.87056 -34.26664,6.87134 -48.68554,17.5293 -5.24466,3.87661 -14.12918,12.76117 -18.00586,18.00586 -18.9169,25.59232 -22.89732,58.31099 -10.65039,87.54101 3.21716,7.67849 7.17426,14.23804 12.81445,21.25 l 2.83398,3.52539 -4.04882,4.0625 c -2.01443,2.02009 -3.16635,3.13657 -3.875,3.67578 -0.70869,0.53925 -0.78277,0.51467 -1.21485,0.45118 -3.83604,-0.56303 -8.03624,2.29579 -9.11328,6.14257 -1.81073,6.46726 3.93616,12.49321 10.32227,10.78516 3.99424,-1.06831 6.31332,-4.04076 6.46484,-8.25977 l 0.0703,-1.89843 4.21094,-4.21094 3.9668,-3.9668 3.66211,2.95313 c 13.51715,10.87822 30.21568,17.74633 46.9414,19.30468 22.16611,2.06523 43.74606,-3.9672 61.71875,-17.25195 5.24463,-3.87661 14.12336,-12.76124 18,-18.00586 24.11404,-32.6235 23.41173,-76.92982 -1.73047,-108.2539 l -3.26171,-4.07032 4.04297,-4.05468 c 2.01333,-2.0191 3.17253,-3.1369 3.88085,-3.67579 0.70833,-0.53885 0.78274,-0.51469 1.21485,-0.45117 3.83607,0.56303 8.03041,-2.29579 9.10742,-6.14257 1.81073,-6.4673 -3.92838,-12.49513 -10.31445,-10.78711 -3.99424,1.0683 -6.32078,4.04857 -6.47266,8.26757 l -0.0645,1.89258 -4.19727,4.19727 -3.95312,3.95312 -3.68164,-2.9375 c -12.57924,-10.04755 -27.04037,-16.42061 -42.46485,-18.71093 -4.38797,-0.65156 -8.78335,-0.97353 -13.15429,-0.97071 z m -0.51563,9.36328 c 1.70478,-0.008 3.40888,0.0376 5.11133,0.13867 13.61957,0.80899 27.07144,5.10451 38.86133,12.80665 14.76856,9.64804 26.18014,24.42673 31.71289,41.07226 8.44561,25.40903 3.88194,52.60885 -12.40821,73.9375 -2.51779,3.29663 -9.29865,10.21492 -12.75586,13.00781 -11.96687,9.66753 -26.57645,15.67316 -42.1621,17.33594 -17.53431,1.87072 -36.36369,-2.76442 -51.50782,-12.6914 -8.61016,-5.64396 -16.91826,-13.96179 -22.60547,-22.61915 -17.41152,-26.50465 -17.41099,-60.79902 0,-87.31445 3.19147,-4.86037 4.78624,-6.81676 9.48243,-11.63867 6.72003,-6.89993 12.93829,-11.4582 21.51367,-15.76563 10.90463,-5.4774 22.82438,-8.21282 34.75781,-8.26953 z M 419.57422,134.25 c -1.65688,0.0364 -3.34661,0.1492 -5.06445,0.33984 -4.58094,0.5084 -9.3697,1.56301 -14.28711,3.17774 -5.36513,1.76175 -13.52489,5.61333 -18.56055,8.75195 l -2.83594,1.76953 -2.48047,-1.33203 c -7.86771,-4.21427 -14.89126,-6.24257 -20.99804,-5.98047 -6.06161,0.26025 -9.81922,2.42031 -12.07032,7.02149 -1.66155,3.39599 -1.8431,8.73377 -0.62109,13.86718 2.62186,11.01408 11.50162,25.88181 24.36914,41.00586 4.66579,5.48407 17.65073,18.46898 23.13477,23.13477 14.70193,12.50834 29.09985,21.22299 40.0957,24.16211 l 0.85937,0.22656 v -0.12305 c 2.21966,0.50863 4.63282,0.84575 6.92383,0.82618 2.57527,-0.0231 4.92633,-0.35007 6.54883,-1.08399 2.59058,-1.17178 5.23966,-3.82917 6.40039,-6.41406 1.3154,-2.9292 1.47522,-8.48181 0.5293,-12.76953 -0.8446,-3.8286 -3.26775,-10.11696 -5.4375,-14.14453 l -1.33789,-2.48047 1.77148,-2.83399 c 1.11963,-1.79641 3.14561,-5.55681 4.55274,-8.4414 11.15659,-22.87093 10.21584,-45.32322 -2.71289,-58.25196 -7.16712,-7.16708 -17.18113,-10.68237 -28.7793,-10.42773 z m 2.70508,9.24805 c 2.81051,-0.0171 4.03626,0.1591 6.27929,0.69531 10.36005,2.47649 17.30199,9.11161 20.09766,19.18945 0.45082,1.62439 0.7311,5.46651 0.73633,9.34571 0.007,3.87922 -0.25053,7.88748 -0.7168,9.93359 -1.30127,5.71151 -3.23009,10.93826 -6.3418,17.16016 -0.86374,1.72713 -1.68968,3.29285 -2.3125,4.42382 -0.26487,0.48082 -0.4687,0.82964 -0.64648,1.125 -0.0165,-0.0198 -0.0216,-0.028 -0.0371,-0.0469 -0.31514,-0.39438 -0.72836,-0.95816 -1.13672,-1.57617 -10.64453,-16.10843 -32.75677,-38.21385 -48.92578,-48.91797 -0.62145,-0.41144 -1.18372,-0.81098 -1.58203,-1.11719 -0.036,-0.0264 -0.0506,-0.0383 -0.084,-0.0644 0.207,-0.13922 0.42009,-0.28586 0.80078,-0.50391 0.99942,-0.57248 2.59681,-1.40944 4.90234,-2.57031 5.25507,-2.64614 9.29446,-4.19047 14.6543,-5.60547 3.91884,-1.03465 5.42992,-1.22697 10.87695,-1.39453 1.38567,-0.0426 2.49871,-0.0705 3.43555,-0.0762 z m -66.35547,6.65039 c 1.87685,-0.024 4.32998,0.41743 7.24609,1.36328 1.62832,0.5281 3.62078,1.30983 5.18555,2.00195 0.7824,0.34606 1.46266,0.66496 1.92578,0.91602 0.0536,0.0298 0.0676,0.0452 0.11523,0.0723 -0.0913,0.09 -0.15246,0.15389 -0.26953,0.26367 -0.47473,0.44349 -1.13955,1.02548 -1.87304,1.62891 -1.52479,1.25439 -4.18084,3.71171 -5.96289,5.51563 l -3.55079,3.58984 2.18165,4.20508 2.37695,4.5918 5.32226,-5.36719 c 2.75457,-2.78139 5.40537,-5.22792 7.45313,-6.92383 1.0239,-0.84797 1.89707,-1.51037 2.53906,-1.92383 0.3211,-0.20668 0.5883,-0.34982 0.75586,-0.41992 0.0555,-0.0232 0.0735,-0.0185 0.0996,-0.0195 0.15145,0.0784 0.59338,0.32211 1.18555,0.69726 0.68226,0.43218 1.55522,1.00593 2.51758,1.66016 1.92471,1.30849 4.2041,2.9273 6.01953,4.28906 12.13175,9.09997 24.97487,21.63724 34.56836,33.75977 3.1449,3.97396 8.13894,10.98563 9.29296,13 l 0.49805,0.86719 -2.06055,2.5625 c -1.2437,1.55223 -4.50871,5.08116 -7.18164,7.73828 l -5.55468,5.52148 4.57812,2.37695 4.19141,2.16993 3.20508,-3.14454 c 1.59075,-1.56503 4.05132,-4.22374 5.52148,-5.95507 0.71808,-0.84563 1.40651,-1.61397 1.92383,-2.16407 0.15509,-0.16501 0.25503,-0.26035 0.375,-0.38086 l 0.0137,0.0195 c 0.22487,0.407 0.5215,1.01974 0.8457,1.74414 0.64838,1.44879 1.4159,3.3639 2.04688,5.17968 0.58412,1.6812 1.00379,3.86942 1.17578,5.82618 0.17196,1.95676 0.0471,3.7428 -0.21875,4.38476 -0.19444,0.46967 -0.92584,1.26975 -1.31836,1.47266 -0.44285,0.22883 -1.90433,0.46722 -3.48047,0.46484 -1.57614,-0.002 -3.33528,-0.18654 -4.60547,-0.5293 -9.66025,-2.60751 -22.14754,-10.07887 -36.16211,-21.73242 -5.57385,-4.6348 -18.90772,-18.04018 -23.71679,-23.85156 -10.41703,-12.58803 -16.95562,-23.06363 -20.30469,-32.44922 -0.72863,-2.04221 -1.22752,-4.34481 -1.44141,-6.36133 -0.21395,-2.01648 -0.0997,-3.78131 0.22071,-4.55468 0.49728,-1.20055 1.59676,-1.8881 3.55078,-2.06641 0.24425,-0.0223 0.50141,-0.0356 0.76953,-0.0391 z m 23.16015,22.8125 c -1.04423,-0.0331 -1.94821,0.1937 -2.80859,0.63867 -1.56943,0.81157 -2.2798,2.4974 -2.22266,4.48828 0.0572,1.99089 0.78685,4.38075 2.06055,7.06055 2.5474,5.35966 7.30228,11.88044 13.5957,18.17383 3.79143,3.79142 8.05158,7.29469 12.04493,10.01757 3.99334,2.72289 7.69789,4.66757 10.51562,5.31641 2.75384,0.63409 4.92984,0.43067 6.30859,-0.81445 1.37876,-1.2451 1.70763,-3.34707 1.1504,-5.98633 -1.32205,-6.26125 -7.25935,-14.65175 -14.48047,-22.10938 -7.22113,-7.45762 -15.69857,-13.92525 -22.39258,-16.0039 -1.55134,-0.48171 -2.72725,-0.74904 -3.77149,-0.78125 z m -32.60937,10.38476 c -0.26554,-0.01 -0.40784,0.0914 -0.49805,0.15625 -0.0913,0.0655 -0.14399,0.12371 -0.19922,0.18555 -0.11078,0.12368 -0.2086,0.25508 -0.3164,0.41992 -0.21561,0.33002 -0.46764,0.77432 -0.75586,1.31836 -0.57648,1.08809 -1.29341,2.57465 -2.04102,4.21094 -1.49525,3.27252 -3.10666,7.1332 -3.91406,9.59766 -4.98527,15.21707 -4.49607,28.98887 0.63281,39.38476 5.12888,10.39586 14.92605,17.36114 28.26367,18.91797 10.9867,1.28236 23.60097,-1.31456 36.28516,-7.41406 1.48801,-0.71557 2.84322,-1.40918 3.83008,-1.94532 0.49341,-0.26818 0.89375,-0.49324 1.1875,-0.67773 0.14682,-0.0923 0.26127,-0.16862 0.36719,-0.25195 0.0529,-0.0417 0.0999,-0.0858 0.16211,-0.1543 0.0298,-0.0341 0.068,-0.0702 0.10937,-0.14258 0.0198,-0.0364 0.0449,-0.0869 0.0644,-0.14844 0.01,-0.0298 0.0274,-0.10219 0.0274,-0.10351 2.6e-4,-0.002 0.006,-0.13344 0.006,-0.13477 v -0.008 c -1.4e-4,-0.003 -0.0122,-0.11617 -0.0254,-0.16016 -0.0132,-0.044 -0.0268,-0.0816 -0.0391,-0.11132 -0.0264,-0.0595 -0.055,-0.10137 -0.0781,-0.13477 -0.0466,-0.0671 -0.0879,-0.10644 -0.12891,-0.14844 -0.0817,-0.0843 -0.16632,-0.16011 -0.27148,-0.24609 -0.21032,-0.17229 -0.49153,-0.38016 -0.83203,-0.61914 -0.68098,-0.47797 -1.60298,-1.08114 -2.61719,-1.70508 l -3.96484,-2.43555 -3.77149,1.74414 c -4.04596,1.87029 -10.24851,3.96917 -14.30664,4.84961 -4.63011,1.00452 -13.48579,1.20898 -17.34766,0.42774 -11.4345,-2.31311 -18.97436,-9.84863 -21.28711,-21.28125 -0.94417,-4.66722 -0.60373,-13.34027 0.77344,-18.83985 1.12598,-4.49654 3.34824,-10.67821 5.00586,-13.97656 l 1.2793,-2.55859 -2.46094,-3.99805 c -0.62813,-1.02095 -1.23128,-1.94922 -1.71094,-2.63476 -0.23974,-0.34276 -0.44903,-0.62262 -0.62109,-0.83399 -0.086,-0.10582 -0.16048,-0.19533 -0.24414,-0.27734 -0.042,-0.041 -0.0813,-0.0816 -0.14844,-0.12891 -0.0334,-0.0232 -0.0762,-0.0507 -0.13672,-0.0781 -0.0298,-0.0132 -0.0644,-0.0268 -0.10937,-0.0391 -0.0433,-0.0132 -0.1512,-0.0221 -0.16211,-0.0254 z m 44.82227,6.96875 c 0.16501,0.01 0.41696,0.0351 0.78124,0.084 1.54867,0.20767 4.39372,2.12779 6.66602,4.43164 1.13617,1.1519 2.15659,2.3876 2.875,3.51953 0.71845,1.13193 1.10938,2.17423 1.10938,2.77148 0,0.28638 -0.009,0.48701 -0.0254,0.59375 -0.10681,0.0165 -0.30741,0.0332 -0.59374,0.0332 -0.60327,0 -1.70698,-0.4332 -2.89454,-1.20899 -1.18755,-0.77578 -2.48932,-1.86277 -3.68164,-3.06054 -1.19231,-1.19778 -2.27638,-2.5079 -3.04882,-3.70118 -0.77242,-1.1933 -1.20118,-2.29656 -1.20118,-2.90625 0,-0.27281 0.004,-0.42727 0.0137,-0.55468 z"
       transform="matrix(0.26458333,0,0,0.26458333,284.18884,81.04184)"
       inkscape:label="Gyro Icon" />
  </g>
</svg>
