<?xml version="1.0" encoding="UTF-8" standalone="no"?>
<svg
   width="323.02255mm"
   height="322.96896mm"
   viewBox="0 0 323.02255 322.96896"
   version="1.1"
   id="svg8"
   inkscape:version="1.2 (dc2aedaf03, 2022-05-15)"
   sodipodi:docname="VSCView DualShock 4 Theme icon (Midnight Blue).svg"
   inkscape:export-filename="..\..\..\..\..\..\..\..\..\Desktop\New folder\icon.png"
   inkscape:export-xdpi="1.2581165"
   inkscape:export-ydpi="1.2581165"
   xmlns:inkscape="http://www.inkscape.org/namespaces/inkscape"
   xmlns:sodipodi="http://sodipodi.sourceforge.net/DTD/sodipodi-0.dtd"
   xmlns="http://www.w3.org/2000/svg"
   xmlns:svg="http://www.w3.org/2000/svg"
   xmlns:rdf="http://www.w3.org/1999/02/22-rdf-syntax-ns#"
   xmlns:cc="http://creativecommons.org/ns#"
   xmlns:dc="http://purl.org/dc/elements/1.1/">
  <defs
     id="defs2">
    <linearGradient
       id="linearGradient1125"
       inkscape:swatch="solid">
      <stop
         style="stop-color:#ffffff;stop-opacity:1;"
         offset="0"
         id="stop1123" />
    </linearGradient>
    <linearGradient
       id="linearGradient1015"
       inkscape:swatch="solid">
      <stop
         style="stop-color:#ffffff;stop-opacity:1;"
         offset="0"
         id="stop1013" />
    </linearGradient>
    <style
       id="style41121">

      .cls-2 {
        fill: #ffffff;
      }
    </style>
  </defs>
  <sodipodi:namedview
     id="base"
     pagecolor="#ffffff"
     bordercolor="#666666"
     borderopacity="1.0"
     inkscape:pageopacity="0.0"
     inkscape:pageshadow="2"
     inkscape:zoom="0.78724556"
     inkscape:cx="487.77665"
     inkscape:cy="602.0993"
     inkscape:document-units="mm"
     inkscape:current-layer="layer1"
     inkscape:document-rotation="0"
     showgrid="false"
     inkscape:window-width="2560"
     inkscape:window-height="1334"
     inkscape:window-x="-11"
     inkscape:window-y="-11"
     inkscape:window-maximized="1"
     inkscape:pagecheckerboard="0"
     inkscape:showpageshadow="2"
     inkscape:deskcolor="#d1d1d1" />
  <metadata
     id="metadata5">
    <rdf:RDF>
      <cc:Work
         rdf:about="">
        <dc:format>image/svg+xml</dc:format>
        <dc:type
           rdf:resource="http://purl.org/dc/dcmitype/StillImage" />
      </cc:Work>
    </rdf:RDF>
  </metadata>
  <g
     inkscape:label="Layer 1"
     inkscape:groupmode="layer"
     id="layer1"
     transform="translate(79.799848,28.390351)">
    <path
       style="display:inline;fill:#000000;fill-opacity:1;stroke:#243251;stroke-width:12;stroke-miterlimit:4;stroke-dasharray:none;stroke-opacity:1;paint-order:normal;stroke-linejoin:miter"
       d="m 70.817809,288.34682 c -33.503296,-2.59371 -63.4907691,-14.72208 -89.187449,-36.0716 -4.785929,-3.97629 -14.815585,-13.94843 -18.793701,-18.68593 -19.181628,-22.84322 -31.265695,-49.82383 -35.288304,-78.7897 -1.164675,-8.38655 -1.348203,-11.34761 -1.348203,-21.75197 0,-10.42154 0.182878,-13.36149 1.356916,-21.81375 4.024023,-28.970151 16.070129,-55.851556 35.279591,-78.727918 6.208821,-7.394024 17.273696,-17.834758 25.275993,-23.8502372 20.710731,-15.568654 44.68718,-25.6428228 70.114583,-29.4599998 9.024848,-1.354816 12.324331,-1.580849 23.151042,-1.585979 10.707838,-0.0051 13.548608,0.168798 22.092713,1.352193 25.71675,3.561882 50.60397,13.8385251 71.49601,29.5227433 8.11622,6.0930627 19.18299,16.5261417 25.48034,24.0212797 21.72689,25.859505 34.12098,56.536871 36.50477,90.355208 0.33563,4.7614 0.33563,15.61152 0,20.37292 -2.37212,33.65256 -14.48046,63.80054 -36.07689,89.82604 -3.94703,4.7565 -13.92107,14.7846 -18.69069,18.79198 -24.61274,20.67938 -52.85577,32.62058 -85.46042,36.13285 -4.518057,0.4867 -21.271159,0.72072 -25.906301,0.36187 z"
       id="path1174"
       inkscape:export-filename="C:\Users\AL200\source\repos\VSCView\VSCView\bin\Release\themes\dualshock4\icon.png"
       inkscape:export-xdpi="1.28"
       inkscape:export-ydpi="1.28" />
    <path
       style="display:inline;fill:#ffffff;fill-opacity:1;fill-rule:evenodd;stroke-width:1.24043"
       class="cls-2"
       id="path-1"
       d="m 202.26159,183.35015 c -4.79763,6.05282 -16.5518,10.37069 -16.5518,10.37069 L 98.270237,225.12853 V 201.96607 L 162.61981,179.0379 c 7.30243,-2.61639 8.42374,-6.31504 2.48807,-8.25641 -5.92451,-1.94692 -16.65222,-1.38907 -23.96023,1.23845 l -42.877413,15.10139 v -24.03836 l 2.471343,-0.83676 c 0,0 12.39015,-4.38483 29.81223,-6.31504 17.42209,-1.91903 38.75477,0.26208 55.50185,6.61067 18.87252,5.96356 20.99797,14.75553 16.20593,20.80831 z M 106.59357,143.90923 V 84.675297 c 0,-6.956571 -1.28308,-13.360816 -7.810093,-15.173908 -4.99845,-1.601044 -8.10017,3.040386 -8.10017,9.991321 V 227.82864 L 50.678916,215.13163 V 38.266598 c 17.009261,3.157543 41.789541,10.621757 55.111334,15.112544 33.87907,11.631459 45.36546,26.108047 45.36546,58.726288 0,31.79264 -19.62564,43.84248 -44.56214,31.8038 z m -129.318334,55.63569 c -19.374598,-5.45586 -22.599048,-16.8251 -13.768071,-23.37447 8.161544,-6.04722 22.041185,-10.59938 22.041185,-10.59938 l 57.359521,-20.3955 v 23.25177 L 1.6315556,183.19956 c -7.291275,2.61637 -8.412579,6.32056 -2.48807,8.26197 5.930088,1.94131 16.6633804,1.38904 23.9658154,-1.23291 l 19.79857,-7.18528 v 20.80273 c -1.255187,0.22315 -2.655427,0.44632 -3.949672,0.66385 -19.804149,3.2356 -40.8969684,1.88557 -61.682963,-4.965 z"
       sodipodi:nodetypes="ccccccccccccccscsccccsccccccccccccc"
       inkscape:export-xdpi="1.28"
       inkscape:export-ydpi="1.28"
       inkscape:export-filename="C:\Users\AL200\source\repos\VSCView\VSCView\bin\Release\themes\dualshock4\icon.png" />
  </g>
</svg>
