<?xml version="1.0" encoding="UTF-8" standalone="no"?>
<!-- Created with Inkscape (http://www.inkscape.org/) -->

<svg
   width="302.40805mm"
   height="222.4155mm"
   viewBox="0 0 302.40805 222.4155"
   version="1.1"
   id="svg5"
   sodipodi:docname="Switch Pro Active Butons.svg"
   inkscape:version="1.1 (c68e22c387, 2021-05-23)"
   inkscape:export-filename="C:\Users\AL200\OneDrive\Pictures\AL2009man Work Projects\VSCView - Controller Theme Layout\VSCView - Controller Theme (Ver. 1.20)\Nintendo Switch Controller Images\Switch Pro Controller\Theme SVG\Theme Assets\Active Presses\NSwitchPro_CaptureButton.png"
   inkscape:export-xdpi="134.694"
   inkscape:export-ydpi="134.694"
   xmlns:inkscape="http://www.inkscape.org/namespaces/inkscape"
   xmlns:sodipodi="http://sodipodi.sourceforge.net/DTD/sodipodi-0.dtd"
   xmlns="http://www.w3.org/2000/svg"
   xmlns:svg="http://www.w3.org/2000/svg">
  <sodipodi:namedview
     id="namedview7"
     pagecolor="#ffffff"
     bordercolor="#666666"
     borderopacity="1.0"
     inkscape:pageshadow="2"
     inkscape:pageopacity="0.0"
     inkscape:pagecheckerboard="0"
     inkscape:document-units="mm"
     showgrid="false"
     inkscape:zoom="0.52473016"
     inkscape:cx="485.96406"
     inkscape:cy="491.68129"
     inkscape:window-width="1920"
     inkscape:window-height="995"
     inkscape:window-x="-9"
     inkscape:window-y="-9"
     inkscape:window-maximized="1"
     inkscape:current-layer="layer1" />
  <defs
     id="defs2" />
  <g
     inkscape:label="Layer 1"
     inkscape:groupmode="layer"
     id="layer1"
     transform="translate(-140.89804,-59.888982)">
    <path
       style="display:none;fill:#3a3b40;fill-opacity:1;fill-rule:nonzero;stroke:#211e1e;stroke-width:2.8;stroke-linecap:butt;stroke-linejoin:round;stroke-miterlimit:9.53846;stroke-dasharray:none;stroke-opacity:1"
       d="m 121.34446,105.63673 c -28.76946,0 -85.94915,1.52075 -111.02858,7.99604 -25.07936,6.45905 269.26062,6.45905 244.18129,0 -25.09573,-6.47529 -82.27548,-7.99604 -111.04494,-7.99604 z m 0,0"
       id="path1675-3"
       inkscape:label="Shoulder Top" />
    <path
       style="display:inline;fill:#107893;fill-opacity:0.501961;fill-rule:nonzero;stroke:#24d2f6;stroke-width:2.3;stroke-linejoin:round;stroke-miterlimit:8.53146;stroke-dasharray:none;stroke-opacity:1"
       d="m 347.49257,104.4189 c -1.07609,0.006 -2.11636,0.0297 -3.11401,0.0714 l -20.69399,9.75195 0.43832,0.10433 c 23.62748,1.10742 47.91013,3.16778 62.01409,6.79389 15.41678,3.97627 30.13772,11.83061 39.1501,17.26018 l 0.25158,0.0596 c -6.32311,-17.48109 -22.95158,-24.55494 -30.60757,-27.57949 -7.16229,-2.83565 -31.29715,-6.5573 -47.43852,-6.46191 z"
       id="path5183"
       inkscape:label="R"
       inkscape:export-filename="C:\Users\AL200\OneDrive\Pictures\AL2009man Work Projects\VSCView - Controller Theme Layout\VSCView - Controller Theme (Ver. 1.20)\Nintendo Switch Controller Images\Switch Pro Controller\Theme SVG\Theme Assets\Active Presses\NSwitchPro_R_Bumper.png"
       inkscape:export-xdpi="134.694"
       inkscape:export-ydpi="134.694" />
    <path
       style="display:inline;fill:#107893;fill-opacity:0.501961;fill-rule:nonzero;stroke:#24d2f6;stroke-width:2.3;stroke-linejoin:round;stroke-miterlimit:8.53146;stroke-dasharray:none;stroke-opacity:1"
       d="m 275.52088,104.4189 c 1.07609,0.006 2.11636,0.0297 3.11401,0.0714 l 20.69399,9.75195 -0.43832,0.10433 c -23.62748,1.10742 -47.91013,3.16778 -62.01409,6.79389 -15.41678,3.97627 -30.13772,11.83061 -39.1501,17.26018 l -0.25158,0.0596 c 6.32311,-17.48109 22.95158,-24.55494 30.60757,-27.57949 7.16229,-2.83565 31.29715,-6.5573 47.43852,-6.46191 z"
       id="path1017"
       inkscape:label="L"
       inkscape:export-filename="C:\Users\AL200\OneDrive\Pictures\AL2009man Work Projects\VSCView - Controller Theme Layout\VSCView - Controller Theme (Ver. 1.20)\Nintendo Switch Controller Images\Switch Pro Controller\Theme SVG\Theme Assets\Active Presses\NSwitchPro_L_Bumper.png"
       inkscape:export-xdpi="134.694"
       inkscape:export-ydpi="134.694" />
    <g
       id="g10592"
       inkscape:label="Digital Triggers"
       style="display:inline;fill:#107893;fill-opacity:0.501961;stroke:#24d2f6;stroke-width:1.8;stroke-linecap:round;stroke-linejoin:round;stroke-miterlimit:8.53146;stroke-dasharray:none;stroke-opacity:1"
       transform="translate(-33.425137,44.600264)">
      <path
         style="display:inline;fill:#107893;fill-opacity:0.501961;fill-rule:nonzero;stroke:#24d2f6;stroke-width:2;stroke-linecap:round;stroke-linejoin:round;stroke-miterlimit:9.53846;stroke-dasharray:none;stroke-opacity:1;paint-order:normal"
         d="m 390.27598,16.288771 c -8.10395,0.01317 -13.74664,2.882032 -21.76198,6.378775 l -8.19849,4.132565 v 0 c 16.03391,-0.670645 46.90713,1.590778 54.58119,4.632275 4.64412,1.836643 12.57326,5.163156 19.52643,11.3776 C 421.05411,25.910855 406.35629,16.262645 390.27598,16.288771 Z"
         id="path1458"
         inkscape:export-filename="C:\Users\AL200\OneDrive\Pictures\AL2009man Work Projects\VSCView - Controller Theme Layout\VSCView - Controller Theme (Ver. 1.20)\Nintendo Switch Controller Images\Switch Pro Controller\Theme SVG\Theme Assets\Active Presses\NSwitchPro_ZR_Active.png"
         inkscape:export-xdpi="134.694"
         inkscape:export-ydpi="134.694" />
      <path
         style="display:inline;fill:#107893;fill-opacity:0.501961;fill-rule:nonzero;stroke:#24d2f6;stroke-width:2;stroke-linecap:round;stroke-linejoin:round;stroke-miterlimit:9.53846;stroke-dasharray:none;stroke-opacity:1;paint-order:normal"
         d="m 280.46085,16.288771 c -16.10169,-0.02616 -30.81715,9.646856 -44.20041,26.587877 6.96697,-6.24769 14.92271,-9.602539 19.57969,-11.444262 7.67405,-3.041497 38.54726,-5.30292 54.58116,-4.632275 v 0 l -8.19847,-4.132565 c -8.01532,-3.496743 -13.65804,-6.36561 -21.76197,-6.378775 z"
         id="path8519-2"
         inkscape:export-filename="C:\Users\AL200\OneDrive\Pictures\AL2009man Work Projects\VSCView - Controller Theme Layout\VSCView - Controller Theme (Ver. 1.20)\Nintendo Switch Controller Images\Switch Pro Controller\Theme SVG\Theme Assets\Active Presses\NSwitchPro_ZL_Active.png"
         inkscape:export-xdpi="134.694"
         inkscape:export-ydpi="134.694" />
    </g>
    <g
       id="g1997"
       transform="translate(157.29648,24.1547)"
       inkscape:label="Face Buttons">
      <path
         style="display:inline;fill:#107893;fill-opacity:0.501961;stroke:#24d2f6;stroke-width:1.8;stroke-linecap:butt;stroke-linejoin:miter;stroke-miterlimit:8.53146;stroke-dasharray:none;stroke-opacity:1"
         d="m 252.12759,138.70038 c 0,-8.32305 -6.66169,-15.0436 -14.87451,-15.0436 -8.21289,0 -14.85826,6.72055 -14.85826,15.0436 0,8.30666 6.64537,15.04368 14.85826,15.04368 8.21282,0 14.87451,-6.73702 14.87451,-15.04368 z"
         id="path1739-4"
         inkscape:label="X Button" />
      <path
         style="display:inline;fill:#107893;fill-opacity:0.501961;stroke:#24d2f6;stroke-width:1.8;stroke-linecap:butt;stroke-linejoin:miter;stroke-miterlimit:8.53146;stroke-dasharray:none;stroke-opacity:1"
         d="m 204.89152,152.71384 c -8.2129,0 -14.87459,6.72055 -14.87459,15.0436 0,8.30674 6.66169,15.04369 14.87459,15.04369 8.21281,0 14.87451,-6.73695 14.87451,-15.04369 0,-8.32305 -6.6617,-15.0436 -14.87451,-15.0436 z"
         id="path1735-4"
         inkscape:label="Y Button" />
      <path
         style="display:inline;fill:#107893;fill-opacity:0.501961;stroke:#24d2f6;stroke-width:1.8;stroke-linecap:butt;stroke-linejoin:miter;stroke-miterlimit:8.53146;stroke-dasharray:none;stroke-opacity:1"
         d="m 270.23511,182.80113 c 8.21281,0 14.87451,-6.73695 14.87451,-15.04369 0,-8.30666 -6.6617,-15.06 -14.87451,-15.06 -8.2129,0 -14.87467,6.75334 -14.87467,15.06 0,8.30674 6.66177,15.04369 14.87467,15.04369 z"
         id="path1727-2"
         inkscape:label="A Button" />
      <path
         style="display:inline;fill:#107893;fill-opacity:0.501961;stroke:#24d2f6;stroke-width:1.8;stroke-linecap:butt;stroke-linejoin:miter;stroke-miterlimit:8.53146;stroke-dasharray:none;stroke-opacity:1"
         d="m 222.39482,196.22591 c 0,8.30666 6.64544,15.04361 14.85826,15.04361 8.21282,0 14.87451,-6.73695 14.87451,-15.04361 0,-8.32305 -6.66169,-15.06008 -14.87451,-15.06008 -8.21282,0 -14.85826,6.73703 -14.85826,15.06008 z"
         id="path1731-8"
         inkscape:label="B Button"
         inkscape:export-filename="C:\Users\AL200\OneDrive\Pictures\AL2009man Work Projects\VSCView - Controller Theme Layout\VSCView - Controller Theme (Ver. 1.20)\Nintendo Switch Controller Images\Switch Pro Controller\Theme SVG\Theme Assets\Active Presses\NSwitchPro_B_Button.png"
         inkscape:export-xdpi="134.694"
         inkscape:export-ydpi="134.694" />
    </g>
    <path
       style="color:#000000;display:inline;fill:#107893;fill-opacity:0.501961;stroke:#24d2f6;stroke-width:1.8;stroke-miterlimit:8.53146;stroke-dasharray:none;stroke-opacity:1"
       d="m 313.61727,182.4608 c -4.94141,0 -8.96655,4.06987 -8.96655,9.06911 0,4.98542 4.0235,9.06911 8.96655,9.06911 4.9568,0 8.96558,-4.08532 8.96558,-9.06911 0,-4.99761 -4.01042,-9.06911 -8.96558,-9.06911 z"
       id="path2583"
       inkscape:label="Home"
       inkscape:export-filename="C:\Users\AL200\OneDrive\Pictures\AL2009man Work Projects\VSCView - Controller Theme Layout\VSCView - Controller Theme (Ver. 1.20)\Nintendo Switch Controller Images\Switch Pro Controller\Theme SVG\Theme Assets\Active Presses\NSwitchPro_HomeButton.png"
       inkscape:export-xdpi="134.694"
       inkscape:export-ydpi="134.694" />
    <path
       style="display:inline;fill:#107893;fill-opacity:0.501961;fill-rule:nonzero;stroke:#24d2f6;stroke-width:1.8;stroke-miterlimit:8.53146;stroke-dasharray:none;stroke-opacity:1"
       d="m 258.82854,183.46272 h -7.97322 c -2.28885,0 -4.18364,1.91307 -4.18364,4.2359 v 8.18346 c 0,2.33806 1.89479,4.23596 4.18364,4.23596 h 7.97322 c 2.3041,0 4.18374,-1.8979 4.18374,-4.23596 v -8.18346 c 0,-2.32283 -1.87964,-4.2359 -4.18374,-4.2359"
       id="path1761-8"
       inkscape:label="Capture"
       inkscape:export-filename="C:\Users\AL200\OneDrive\Pictures\AL2009man Work Projects\VSCView - Controller Theme Layout\VSCView - Controller Theme (Ver. 1.20)\Nintendo Switch Controller Images\Switch Pro Controller\Theme SVG\Theme Assets\Active Presses\NSwitchPro_CaptureButton.png"
       inkscape:export-xdpi="134.694"
       inkscape:export-ydpi="134.694" />
    <path
       style="display:inline;opacity:1;fill:#107893;fill-opacity:0.501961;stroke:#24d2f6;stroke-width:1.8;stroke-linecap:butt;stroke-linejoin:miter;stroke-miterlimit:8.53146;stroke-dasharray:none;stroke-opacity:1"
       d="m 242.56392,160.16467 c 0,5.32869 -4.27744,9.66369 -9.54715,9.66369 -5.26979,0 -9.54724,-4.335 -9.54724,-9.66369 0,-5.3287 4.27745,-9.66354 9.54724,-9.66354 5.26971,0 9.54715,4.33484 9.54715,9.66354 z"
       inkscape:label="Minus"
       id="path3923"
       inkscape:export-filename="C:\Users\AL200\OneDrive\Pictures\AL2009man Work Projects\VSCView - Controller Theme Layout\VSCView - Controller Theme (Ver. 1.20)\Nintendo Switch Controller Images\Switch Pro Controller\Theme SVG\Theme Assets\Active Presses\NSwitchPro_MinusButton.png"
       inkscape:export-xdpi="134.694"
       inkscape:export-ydpi="134.694" />
    <path
       style="display:inline;opacity:1;fill:#107893;fill-opacity:0.501961;stroke:#24d2f6;stroke-width:1.8;stroke-linecap:butt;stroke-linejoin:miter;stroke-miterlimit:8.53146;stroke-dasharray:none;stroke-opacity:1"
       d="m 344.70616,160.09782 c 0,5.08294 -4.07997,9.21801 -9.10638,9.21801 -5.0265,0 -9.10648,-4.13507 -9.10648,-9.21801 0,-5.08295 4.07998,-9.21786 9.10648,-9.21786 5.02641,0 9.10638,4.13491 9.10638,9.21786 z"
       inkscape:label="Plus"
       id="path935"
       inkscape:export-filename="C:\Users\AL200\OneDrive\Pictures\AL2009man Work Projects\VSCView - Controller Theme Layout\VSCView - Controller Theme (Ver. 1.20)\Nintendo Switch Controller Images\Switch Pro Controller\Theme SVG\Theme Assets\Active Presses\NSwitchPro_PlusButton.png"
       inkscape:export-xdpi="134.694"
       inkscape:export-ydpi="134.694" />
    <path
       style="display:inline;fill:#107893;fill-opacity:0.501961;stroke:#24d2f6;stroke-width:2.2;stroke-linecap:butt;stroke-linejoin:miter;stroke-miterlimit:8.53146;stroke-dasharray:none;stroke-opacity:1"
       d="m 141.99804,191.58523 c 0,14.82808 12.10275,26.85409 27.06002,26.85409 14.95726,0 27.0896,-12.02601 27.0896,-26.85409 0,-14.85733 -12.13234,-26.88348 -27.0896,-26.88348 -14.95727,0 -27.06002,12.02615 -27.06002,26.88348 z"
       id="path1731-8-1"
       inkscape:label="Analog Stick Click"
       inkscape:export-filename="C:\Users\AL200\OneDrive\Pictures\AL2009man Work Projects\VSCView - Controller Theme Layout\VSCView - Controller Theme (Ver. 1.20)\Nintendo Switch Controller Images\Switch Pro Controller\Theme SVG\Theme Assets\Active Presses\NSwitchPro_AnalogStickClick.png"
       inkscape:export-xdpi="134.694"
       inkscape:export-ydpi="134.694" />
    <g
       id="g1967"
       inkscape:label="D-PAD"
       transform="translate(32.772866,-0.61626435)">
      <path
         style="display:inline;fill:#107893;fill-opacity:0.501961;fill-rule:nonzero;stroke:#24d2f6;stroke-width:2;stroke-linecap:butt;stroke-linejoin:miter;stroke-miterlimit:9.53846;stroke-dasharray:none;stroke-opacity:1"
         d="m 187.68804,250.64048 -11.44581,11.44581 v 18.13378 c 0,0.9481 0.76745,1.70067 1.69808,1.70067 h 19.49545 c 0.94699,0 1.69809,-0.75235 1.69809,-1.70067 v -18.13378 z"
         id="path1925"
         inkscape:label="D-PAD Down"
         inkscape:export-filename="C:\Users\AL200\OneDrive\Pictures\AL2009man Work Projects\VSCView - Controller Theme Layout\VSCView - Controller Theme (Ver. 1.20)\Nintendo Switch Controller Images\Switch Pro Controller\Theme SVG\Theme Assets\Active Presses\NSwitchPro_D-PAD_Down.png"
         inkscape:export-xdpi="134.694"
         inkscape:export-ydpi="134.694" />
      <path
         style="display:inline;fill:#107893;fill-opacity:0.501961;fill-rule:nonzero;stroke:#24d2f6;stroke-width:2;stroke-linecap:butt;stroke-linejoin:miter;stroke-miterlimit:9.53846;stroke-dasharray:none;stroke-opacity:1"
         d="m 199.60979,238.71924 -11.57707,11.57707 11.59309,11.59309 h 17.632 c 0.93066,0 1.68155,-0.76867 1.68155,-1.71669 v -19.73678 c 0,-0.9481 -0.75089,-1.71669 -1.68155,-1.71669 z"
         id="path1923"
         inkscape:label="D-PAD Right"
         inkscape:export-filename="C:\Users\AL200\OneDrive\Pictures\AL2009man Work Projects\VSCView - Controller Theme Layout\VSCView - Controller Theme (Ver. 1.20)\Nintendo Switch Controller Images\Switch Pro Controller\Theme SVG\Theme Assets\Active Presses\NSwitchPro_D-PAD_Right.png"
         inkscape:export-xdpi="134.694"
         inkscape:export-ydpi="134.694" />
      <path
         style="display:inline;fill:#107893;fill-opacity:0.501961;fill-rule:nonzero;stroke:#24d2f6;stroke-width:2;stroke-linecap:butt;stroke-linejoin:miter;stroke-miterlimit:9.53846;stroke-dasharray:none;stroke-opacity:1"
         d="m 158.1348,238.71924 c -0.94692,0 -1.69808,0.76866 -1.69808,1.71669 v 19.73678 c 0,0.9481 0.75108,1.71669 1.69808,1.71669 h 17.61598 l 11.59309,-11.59309 -11.57707,-11.57707 z"
         id="path1921"
         inkscape:label="D-PAD Left"
         inkscape:export-filename="C:\Users\AL200\OneDrive\Pictures\AL2009man Work Projects\VSCView - Controller Theme Layout\VSCView - Controller Theme (Ver. 1.20)\Nintendo Switch Controller Images\Switch Pro Controller\Theme SVG\Theme Assets\Active Presses\NSwitchPro_D-PAD_Left.png"
         inkscape:export-xdpi="134.694"
         inkscape:export-ydpi="134.694" />
      <path
         style="display:inline;fill:#107893;fill-opacity:0.501961;fill-rule:nonzero;stroke:#24d2f6;stroke-width:2;stroke-linecap:butt;stroke-linejoin:miter;stroke-miterlimit:9.53846;stroke-dasharray:none;stroke-opacity:1"
         d="m 177.94031,218.67189 c -0.93071,0 -1.69808,0.76925 -1.69808,1.7172 v 18.11673 l 11.44581,11.44581 11.44581,-11.44581 v -18.11673 c 0,-0.9481 -0.7511,-1.7172 -1.69809,-1.7172 z"
         id="path1781-2"
         inkscape:label="D-PAD Up"
         inkscape:export-filename="C:\Users\AL200\OneDrive\Pictures\AL2009man Work Projects\VSCView - Controller Theme Layout\VSCView - Controller Theme (Ver. 1.20)\Nintendo Switch Controller Images\Switch Pro Controller\Theme SVG\Theme Assets\Active Presses\NSwitchPro_D-PAD_Up.png"
         inkscape:export-xdpi="134.694"
         inkscape:export-ydpi="134.694" />
    </g>
  </g>
</svg>
