<?xml version="1.0" encoding="UTF-8" standalone="no"?>
<!-- Created with Inkscape (http://www.inkscape.org/) -->

<svg
   width="408.81601mm"
   height="252.6328mm"
   viewBox="0 0 408.81603 252.6328"
   version="1.1"
   id="svg5"
   sodipodi:docname="VSCView Xbox Wikimedia Theme.svg"
   inkscape:version="1.1 (c68e22c387, 2021-05-23)"
   inkscape:export-filename="C:\Users\AL200\OneDrive\Pictures\AL2009man Work Projects\VSCView - Controller Theme Layout\VSCView - Controller Theme (Ver. 1.20)\Xbox 360 Controller Images\Wikimedia\Template\Xbox Wikimedia Overlay.png"
   inkscape:export-xdpi="90.027298"
   inkscape:export-ydpi="90.027298"
   xmlns:inkscape="http://www.inkscape.org/namespaces/inkscape"
   xmlns:sodipodi="http://sodipodi.sourceforge.net/DTD/sodipodi-0.dtd"
   xmlns="http://www.w3.org/2000/svg"
   xmlns:svg="http://www.w3.org/2000/svg">
  <sodipodi:namedview
     id="namedview7"
     pagecolor="#ffffff"
     bordercolor="#666666"
     borderopacity="1.0"
     inkscape:pageshadow="2"
     inkscape:pageopacity="0.0"
     inkscape:pagecheckerboard="0"
     inkscape:document-units="mm"
     showgrid="false"
     inkscape:zoom="0.70710678"
     inkscape:cx="725.49156"
     inkscape:cy="461.03362"
     inkscape:window-width="2560"
     inkscape:window-height="1334"
     inkscape:window-x="-11"
     inkscape:window-y="-11"
     inkscape:window-maximized="1"
     inkscape:current-layer="layer1" />
  <defs
     id="defs2">
    <inkscape:path-effect
       effect="bend_path"
       id="path-effect3820"
       is_visible="true"
       bendpath="M 0,0 H 1"
       prop_scale="1"
       scale_y_rel="false"
       vertical="false"
       lpeversion="0"
       hide_knot="false" />
  </defs>
  <g
     inkscape:label="Xbox Wikimedia Overlay"
     id="layer1"
     transform="translate(197.76003,-92.246148)"
     inkscape:groupmode="layer"
     style="display:inline">
    <path
       d="m -103.37424,145.92497 c -18.31694,-0.13414 -44.257,10.37564 -54.53382,14.45064 -2.92426,1.15954 -10.62183,11.4901 -15.40081,21.53268 -2.13728,4.49128 -17.88309,50.17571 -17.88309,50.17571 0,0 -7.41607,35.32449 -6.10735,56.26398 1.30872,20.93949 13.95148,40.13675 13.95148,40.13675 0,0 10.72264,10.44362 16.48985,12.63458 6.90234,2.62218 19.45445,4.21997 26.26161,3.07276 15.79742,-2.66234 60.119242,-25.22009 63.172918,-26.52881 3.053676,-1.30872 6.056832,-2.50399 8.970173,-3.24453 2.149476,2.04171 18.392948,3.43811 26.681491,0.82068 8.28855,-2.61744 12.775309,-4.85329 16.623448,-8.09224 7.18277,-0.38907 20.137886,-0.36704 32.0063388,-0.30537 11.8445002,-0.0616 24.7617132,-0.0836 31.9299972,0.30537 3.84037,3.23819 8.313449,5.47541 16.585276,8.09224 8.271815,2.61681 24.498187,1.22056 26.643321,-0.82068 2.907472,0.74037 5.884482,1.93612 8.932002,3.24453 3.047513,1.30842 47.292905,23.86709 63.058405,26.52881 6.7934,1.14694 19.31593,-0.47028 26.20435,-3.09185 5.75559,-2.19044 16.45168,-12.61549 16.45168,-12.61549 0,0 12.62626,-19.18309 13.9324,-40.11767 1.30608,-20.93458 -6.08827,-56.26398 -6.08827,-56.26398 0,0 -15.71194,-45.66639 -17.84492,-50.15662 -4.76934,-10.04023 -12.84897,-21.32244 -15.76732,-22.48171 -7.49931,-2.97896 -22.12695,-10.14953 -38.54888,-12.69484 -10.1958,-1.5803 -22.35074,-1.77146 -30.99616,1.05279 -5.830775,1.90477 -10.96991,6.82559 -14.829115,9.02462 -4.507513,2.56844 -22.911228,13.70019 -33.359856,16.31701 -15.216351,2.54507 -30.860564,2.42827 -46.1486752,2.02619 0,0 -35.9285958,0.41796 -46.3983368,-2.19948 -10.469748,-2.61743 -24.438763,-12.06689 -28.955387,-14.63594 -3.867004,-2.19955 -6.623558,-4.59628 -15.241116,-8.65117 -6.661252,-3.88487 -13.823184,-3.77876 -19.791634,-3.77896 z"
       style="display:inline;fill:#c7c7c7;fill-opacity:1;stroke:#000000;stroke-width:0.610735px;stroke-linecap:butt;stroke-linejoin:miter;stroke-opacity:1"
       inkscape:connector-curvature="0"
       inkscape:label="Controller Color 2"
       id="path3048" />
    <path
       d="m -103.15067,112.41808 c -7.77797,0.1702 -15.10959,1.63457 -17.61589,2.30934 -4.01008,1.07964 -6.31729,3.39722 -6.31729,3.39722 l -19.5817,18.34114 c 0,0 -3.08051,3.16847 -3.38898,3.55406 -3.96437,4.95551 -4.85768,5.00989 -5.47462,6.24376 -0.61694,1.23387 -2.63486,3.31594 -3.63738,4.78115 -0.63406,0.92669 -2.30005,3.94527 -3.22545,4.71644 -0.9254,0.77117 -13.11172,31.81549 -13.11172,31.81549 0,0 14.05623,-14.94676 23.23248,-18.85373 19.8614,-8.45639 43.06872,-12.03553 64.268321,-7.96579 16.595622,3.1859 28.170146,19.80407 44.425418,24.4226 15.912692,4.52119 33.020764,2.62694 49.5630019,2.53051 18.0679951,-0.10531 36.7037041,1.49241 54.0984921,-3.3948 16.23651,-4.56179 28.190484,-20.43722 44.757657,-23.59364 21.92479,-4.17716 46.73195,-2.98385 66.5631,7.25679 7.77706,4.01601 17.43322,19.63623 17.43322,19.63623 0,0 -12.14997,-31.06359 -13.07355,-31.83457 -0.69217,-1.15658 -2.45483,-3.46373 -2.76275,-4.54312 -0.3078,-1.07938 -4.25559,-4.39585 -4.87125,-5.62944 -0.61572,-1.23358 -0.62476,-0.14593 -4.68436,-5.00989 -1.22238,-1.46457 -3.38899,-4.09388 -3.38899,-4.09388 l -19.54352,-18.34114 c 0,0 -2.31527,-2.31783 -6.31729,-3.39722 -4.00201,-1.07938 -20.29568,-4.09149 -31.09024,-0.76341 -8.345426,2.57297 -9.542735,4.16063 -9.542735,4.16063 0,0 -4.610513,5.71504 -7.996814,6.79443 -3.386306,1.07938 -18.617045,11.24984 -29.391629,12.32921 -10.774595,1.07939 -21.250572,2.77648 -24.944714,1.85129 -3.694147,-0.92518 -24.3721492,-0.66799 -24.3721492,-0.66799 v -0.0382 c 0,0 -20.7277888,-0.25741 -24.4294058,0.66799 -3.701611,0.92541 -14.186511,-0.77165 -24.982885,-1.85129 -10.796374,-1.07963 -26.074824,-11.26866 -29.467971,-12.3483 -3.393147,-1.07963 -8.015899,-6.77534 -8.015899,-6.77534 0,0 -1.151254,-1.89051 -9.561822,-4.16064 -4.097263,-1.1059 -8.883906,-1.64804 -13.550686,-1.54592 z"
       style="display:inline;fill:#dadada;fill-opacity:1;stroke:#000000;stroke-width:0.610735px;stroke-linecap:butt;stroke-linejoin:miter;stroke-opacity:1"
       inkscape:connector-curvature="0"
       inkscape:label="Controller Color 1"
       id="path4939" />
    <g
       id="g1206"
       inkscape:label="Controller Body Misc"
       style="display:inline">
      <path
         d="m 118.29808,145.6268 c -6.11061,-0.0301 -12.08485,0.6062 -16.9479,2.19483 -5.830782,1.90478 -10.97021,6.8284 -14.829415,9.02743 -4.507513,2.56845 -22.91278,13.70127 -33.361408,16.31808 -15.21635,2.54507 -30.860563,2.42515 -46.1486744,2.02306 0,0 -35.9270446,0.42261 -46.3967856,-2.19483 -10.469748,-2.61743 -24.436039,-12.0695 -28.952664,-14.63855 -3.867004,-2.19955 -6.574863,-4.53144 -15.192421,-8.58634 -6.661252,-3.88486 -13.880056,-3.83811 -19.848512,-3.83831 -18.31694,-0.13414 -44.25037,9.67865 -54.52719,13.75365 -2.87247,1.139 -10.34126,11.81627 -15.13478,21.68808 -1.40511,3.54423 -2.46203,6.20278 -2.46203,6.20278 0,0 14.05078,-14.94948 23.22702,-18.85645 19.8614,-8.45639 43.08028,-12.02838 64.279876,-7.95864 16.595622,3.1859 28.156625,19.79179 44.411896,24.41032 15.912693,4.52118 33.022737,2.63479 49.564975,2.53836 18.067995,-0.10531 36.71253,1.49 54.107317,-3.39721 16.23651,-4.56179 28.188261,-20.43323 44.755436,-23.58965 21.92479,-4.17716 46.73898,-2.98816 66.57013,7.25248 7.77706,4.01602 17.42504,19.63896 17.42504,19.63896 0,0 -1.0455,-2.64606 -2.44294,-6.1837 -4.79678,-9.90618 -12.62927,-20.82806 -15.49741,-21.96738 -7.49931,-2.97896 -22.13072,-10.14652 -38.55265,-12.69184 -4.46067,-0.69137 -9.29421,-1.12171 -14.04691,-1.14513 z"
         style="display:inline;fill:#f3f3f3;fill-opacity:0.452128;stroke:#000000;stroke-width:0.610735px;stroke-linecap:butt;stroke-linejoin:miter;stroke-opacity:1"
         inkscape:connector-curvature="0"
         inkscape:label="Bumper Body Color"
         id="path5180" />
      <g
         id="g1188"
         inkscape:label="Trigger Shadows"
         style="display:inline">
        <path
           d="m 105.38176,115.48674 26.61613,-7.16648 7.63613,28.36041 -26.61613,7.16647 z"
           style="display:inline;fill:#000000;fill-opacity:1;stroke:#000000;stroke-width:0.610124;stroke-miterlimit:4;stroke-opacity:1"
           inkscape:connector-curvature="0"
           id="rect5196"
           inkscape:label="RT Shadow" />
        <path
           d="m -117.61009,108.70868 27.777282,7.41044 -7.547264,28.37632 -25.923268,-6.53795 z"
           style="display:inline;fill:#000000;fill-opacity:1;stroke:#000000;stroke-width:0.598424;stroke-miterlimit:4;stroke-opacity:1"
           inkscape:connector-curvature="0"
           id="rect5193"
           inkscape:label="LT Shadow" />
      </g>
      <g
         id="g1045"
         inkscape:label="D-PAD Body"
         style="display:inline">
        <path
           d="m -9.4006399,277.44286 c 0,20.52863 -20.3360701,37.17037 -45.4218881,37.17037 -25.085818,0 -45.421892,-16.64174 -45.421892,-37.17037 0,-20.52863 20.336074,-37.17037 45.421892,-37.17037 25.085818,0 45.4218881,16.64174 45.4218881,37.17037 z"
           style="display:inline;fill:#e1e1e1;fill-opacity:1;stroke:#000000;stroke-width:0.610124;stroke-miterlimit:4;stroke-opacity:1"
           inkscape:connector-curvature="0"
           id="path5191" />
        <path
           d="m -12.963757,280.86184 c 0,18.99144 -19.05012,34.38704 -42.549633,34.38704 -23.49952,0 -42.54964,-15.3956 -42.54964,-34.38704 0,-18.99144 19.05012,-34.38704 42.54964,-34.38704 23.499513,0 42.549633,15.3956 42.549633,34.38704 z"
           style="display:inline;fill:#c9c9c9;fill-opacity:1;stroke:#000000;stroke-width:0.70368;stroke-miterlimit:4;stroke-opacity:1"
           inkscape:connector-curvature="0"
           id="path5189" />
        <path
           d="m -18.96653,281.45294 c 0,16.35476 -16.468352,29.61291 -36.78309,29.61291 -20.314738,0 -36.783084,-13.25815 -36.783084,-29.61291 0,-16.35477 16.468346,-29.61292 36.783084,-29.61292 20.314738,0 36.78309,13.25815 36.78309,29.61292 z"
           style="display:inline;fill:#181818;fill-opacity:1;stroke:#000000;stroke-width:0.617269;stroke-miterlimit:4;stroke-opacity:1"
           inkscape:connector-curvature="0"
           id="path5106" />
      </g>
      <g
         id="g1035"
         inkscape:label="Right Stick Body"
         style="display:inline">
        <path
           d="m 109.97642,274.02998 c 0,17.5364 -20.12891,31.75246 -44.959185,31.75246 -24.830274,0 -44.959188,-14.21606 -44.959188,-31.75246 0,-17.53641 20.128914,-31.75248 44.959188,-31.75248 24.830275,0 44.959185,14.21607 44.959185,31.75248 z"
           style="display:inline;fill:#dadada;fill-opacity:1;stroke:#000000;stroke-width:0.632605;stroke-miterlimit:4;stroke-opacity:1"
           inkscape:connector-curvature="0"
           id="path5187" />
        <path
           d="m 94.396157,283.0985 c 0,13.30004 -12.928285,24.08185 -28.876128,24.08185 -15.947843,0 -28.876127,-10.78181 -28.876127,-24.08185 0,-13.30004 12.928284,-24.08185 28.876127,-24.08185 15.947843,0 28.876128,10.78181 28.876128,24.08185 z"
           style="display:inline;fill:#181818;fill-opacity:1;stroke:#000000;stroke-width:0.664062;stroke-miterlimit:4;stroke-opacity:1"
           inkscape:connector-curvature="0"
           id="path5110" />
        <path
           d="m 91.598143,282.91483 c 0,12.17018 -11.801589,22.03605 -26.359594,22.03605 -14.557998,0 -26.359594,-9.86587 -26.359594,-22.03605 0,-12.17017 11.801596,-22.03605 26.359594,-22.03605 14.558005,0 26.359594,9.86588 26.359594,22.03605 z"
           style="display:inline;fill:#757575;fill-opacity:1;stroke:#000000;stroke-width:0.667996;stroke-miterlimit:4;stroke-opacity:1"
           inkscape:connector-curvature="0"
           id="path4995"
           inkscape:label="path4995" />
      </g>
      <g
         id="g1040"
         inkscape:label="Left Stick Body"
         style="display:inline">
        <path
           d="m -74.643539,224.88773 c -3.398744,18.92238 -25.823161,30.44201 -50.086341,25.7298 -24.26318,-4.7122 -41.17714,-23.87182 -37.7784,-42.79421 3.39875,-18.92238 25.82316,-30.442 50.08634,-25.7298 24.263176,4.71221 41.177145,23.87183 37.778401,42.79421 z"
           style="display:inline;fill:#dedede;fill-opacity:1;stroke:#000000;stroke-width:0.817171;stroke-miterlimit:4;stroke-opacity:1"
           inkscape:connector-curvature="0"
           id="path5185" />
        <path
           d="m -88.703392,223.7729 c 0,13.36189 -13.006148,24.19384 -29.050038,24.19384 -16.04389,0 -29.05003,-10.83195 -29.05003,-24.19384 0,-13.36189 13.00614,-24.19384 29.05003,-24.19384 16.04389,0 29.050038,10.83195 29.050038,24.19384 z"
           style="display:inline;fill:#181818;fill-opacity:1;stroke:#000000;stroke-width:0.719525;stroke-miterlimit:4;stroke-opacity:1"
           inkscape:connector-curvature="0"
           id="path5108" />
        <path
           d="m -91.186167,223.58627 c 0,12.17018 -11.801593,22.03605 -26.359593,22.03605 -14.558,0 -26.3596,-9.86587 -26.3596,-22.03605 0,-12.17017 11.8016,-22.03605 26.3596,-22.03605 14.558,0 26.359593,9.86588 26.359593,22.03605 z"
           style="fill:#757575;fill-opacity:1;stroke:#000000;stroke-width:0.667996;stroke-miterlimit:4;stroke-opacity:1"
           inkscape:connector-curvature="0"
           id="path4997" />
      </g>
    </g>
    <g
       id="g286"
       transform="matrix(0.61073515,0,0,0.61073515,-226.09929,-95.670836)"
       inkscape:label="Xbox Guide Button"
       style="display:inline">
      <path
         d="m 415.08928,517.67468 c 0,12.84555 -13.79123,23.25893 -30.80357,23.25893 -17.01235,0 -30.80358,-10.41338 -30.80358,-23.25893 0,-12.84555 13.79123,-23.25893 30.80358,-23.25893 17.01234,0 30.80357,10.41338 30.80357,23.25893 z"
         transform="matrix(1.3360021,0,0,1.4387159,-131.28702,-230.44883)"
         style="display:inline;fill:#353535;fill-opacity:1;stroke:#000000;stroke-width:0.999;stroke-miterlimit:4;stroke-opacity:1"
         inkscape:connector-curvature="0"
         id="path4977" />
      <path
         d="m 399.55357,521.06757 c 0,3.57505 -3.71763,6.47321 -8.30357,6.47321 -4.58594,0 -8.30357,-2.89816 -8.30357,-6.47321 0,-3.57506 3.71763,-6.47322 8.30357,-6.47322 4.58594,0 8.30357,2.89816 8.30357,6.47322 z"
         transform="matrix(4.0721273,0,0,4.2220691,-1211.0046,-1685.8277)"
         style="display:inline;fill:#cacaca;fill-opacity:1;stroke:#000000;stroke-width:0.240931;stroke-miterlimit:4;stroke-opacity:1"
         inkscape:connector-curvature="0"
         id="path4979" />
      <path
         d="m 381.71139,515.71864 14.64722,9.21764 c 0,0 7.57614,4.67196 8.08122,5.42957 0.50507,0.75762 2.0203,2.65166 2.0203,2.65166 0,0 2.08344,-1.76777 2.46225,-2.27285 0.37881,-0.50507 -0.31567,-2.84106 -0.31567,-2.84106 0,0 -1.6415,-3.97747 -8.20749,-9.02823 -6.566,-5.05076 -11.8693,-11.11168 -11.8693,-11.11168 l 6.43973,-7.44987 c 0,0 4.73509,-5.36644 5.68211,-5.80838 0.47177,-0.22016 2.46224,-1.4521 2.46224,-1.4521 0,0 -2.08343,-1.95716 -4.35628,-2.58851 -2.27284,-0.63134 -17.5514,9.21764 -17.5514,9.21764 0,0 -15.7205,-7.26047 -17.99334,-8.01809 -1.89404,0.82076 -3.36483,1.86485 -4.54569,2.84105 2.67034,0.78681 3.53553,1.89405 3.53553,1.89405 0,0 10.09241,9.52337 10.79601,10.29092 0.69448,0.75761 1.19956,1.26269 1.19956,1.26269 l -11.00119,11.99557 c 0,0 -5.85755,7.42877 -5.80838,9.35969 0.0378,1.48485 -0.76305,2.46837 -0.26833,3.06203 0,0 3.56711,3.5671 3.06203,2.30441 -0.50508,-1.26269 1.26269,-2.82527 1.26269,-2.82527 0,0 5.33803,-4.72429 6.91323,-5.74525 1.70464,-1.10485 13.35295,-10.38563 13.35295,-10.38563 z"
         style="display:inline;fill:#77ec00;fill-opacity:1;stroke:#000000;stroke-width:1px;stroke-linecap:butt;stroke-linejoin:miter;stroke-opacity:1"
         inkscape:connector-curvature="0"
         id="path4993" />
      <path
         style="font-style:normal;font-variant:normal;font-weight:bold;font-stretch:normal;font-size:9.83636px;line-height:125%;font-family:Arial;-inkscape-font-specification:'Arial Bold';letter-spacing:0px;word-spacing:0px;display:inline;fill:#686868;fill-opacity:1;stroke:none;stroke-width:2.30829"
         d="m 858.07031,400.49414 c -1.44411,2e-5 -2.64665,0.29146 -3.60937,0.875 -0.96274,0.58358 -1.53444,1.54434 -1.7168,2.88477 l 3.0625,0.24414 c 0.0583,-0.71068 0.27698,-1.21915 0.65625,-1.52539 0.37925,-0.30629 0.88943,-0.45897 1.53125,-0.45899 0.64911,2e-5 1.15901,0.14576 1.52734,0.4375 0.36829,0.29182 0.55074,0.70884 0.55079,1.25195 -5e-5,0.49112 -0.2098,0.98756 -0.63282,1.49024 -0.31362,0.36399 -1.16504,1.05741 -2.55078,2.08008 -1.72127,1.26536 -2.87356,2.28128 -3.45703,3.04687 -0.58347,0.76555 -0.93203,1.57456 -1.04883,2.42969 h 10.77539 v -2.26172 h -6.10547 c 0.16045,-0.21956 0.37204,-0.44467 0.63086,-0.67578 0.25892,-0.23111 0.87176,-0.69939 1.8418,-1.4043 0.96999,-0.70488 1.64169,-1.24553 2.01367,-1.62109 0.56159,-0.56622 0.97167,-1.10787 1.23047,-1.625 0.2589,-0.5171 0.38865,-1.0608 0.38867,-1.63281 -2e-5,-1.00533 -0.45305,-1.84548 -1.35742,-2.52149 -0.90439,-0.676 -2.14781,-1.01365 -3.73047,-1.01367 z m -163.6289,0.62305 c -0.4362,0.80552 -1.2398,1.50915 -2.41211,2.11328 -1.17229,0.60412 -2.25816,1.01613 -3.25782,1.23242 v 2.29883 c 1.89931,-0.41475 3.54973,-1.05624 4.94922,-1.92188 v 9.54883 h 3.83008 v -13.27148 z m 1.01562,146.28515 c -0.89804,0 -1.70799,0.12994 -2.43164,0.38868 -0.72363,0.25875 -1.28888,0.61432 -1.69336,1.0664 -0.40448,0.4521 -0.70589,1.05617 -0.90625,1.8125 l 2.88281,0.375 c 0.0816,-0.54591 0.31092,-0.96173 0.68946,-1.24609 0.37849,-0.28431 0.83475,-0.42576 1.36914,-0.42578 0.54178,2e-5 0.97615,0.1248 1.30273,0.375 0.32665,0.25022 0.49021,0.58505 0.49024,1.00586 -3e-5,0.49476 -0.22268,0.89287 -0.66797,1.1914 -0.44532,0.29849 -1.09142,0.43804 -1.9375,0.42188 l -0.34375,1.95312 c 0.55662,-0.11934 1.03478,-0.17966 1.43554,-0.17969 0.60859,3e-5 1.12384,0.17673 1.54688,0.5293 0.42313,0.35257 0.63476,0.83081 0.63476,1.4336 0,0.6369 -0.22051,1.14225 -0.6621,1.51757 -0.4416,0.37531 -0.98517,0.5625 -1.63086,0.5625 -0.60117,0 -1.1141,-0.15597 -1.53711,-0.46875 -0.42307,-0.31277 -0.68281,-0.76403 -0.7793,-1.35546 l -3.02734,0.28124 c 0.15588,1.05203 0.71915,1.90357 1.6914,2.55469 0.97225,0.65113 2.19687,0.97657 3.67383,0.97657 1.55858,0 2.86169,-0.38675 3.9082,-1.16016 1.04647,-0.77337 1.57032,-1.70912 1.57032,-2.80664 0,-0.75634 -0.28149,-1.40099 -0.8418,-1.93555 -0.56038,-0.53455 -1.30705,-0.8797 -2.24219,-1.0332 1.56599,-0.65396 2.34961,-1.52943 2.34961,-2.62695 0,-0.77337 -0.38402,-1.46592 -1.14844,-2.08008 -0.92774,-0.75064 -2.159,-1.12696 -3.69531,-1.12696 z m 161.41016,0.57227 -6.95899,7.6582 v 2.02344 h 6.56446 v 2.42578 h 2.97461 v -2.42578 h 1.99218 v -2.0332 h -1.99218 v -7.64844 z m -0.39453,3.5293 v 4.11914 h -3.6875 z"
         transform="matrix(0.43322107,0,0,0.43322107,46.401874,307.68981)"
         id="path5064" />
    </g>
    <g
       id="g305"
       inkscape:label="Back Button"
       transform="matrix(0.61073515,0,0,0.61073515,-226.09929,-95.670836)"
       style="display:inline">
      <path
         d="m 307.75153,503.99411 c 0,0 -4.70577,-0.14476 -5.84219,-0.0185 -1.13642,0.12627 -11.30108,1.26269 -11.67989,12.05869 -0.3788,10.79601 12.01406,12.95024 12.01406,12.95024 l 5.47421,0.11095 5.76374,0.0185 c 0,0 12.60841,-1.71547 12.79781,-12.63774 0.18941,-10.92228 -13.00571,-12.43751 -13.00571,-12.43751 z"
         style="fill:#f1f1f1;fill-opacity:1;stroke:#000000;stroke-width:1px;stroke-linecap:butt;stroke-linejoin:miter;stroke-opacity:1"
         inkscape:connector-curvature="0"
         inkscape:label="Button Color"
         id="path4983" />
      <path
         d="m 312.85714,513.34432 -0.26785,13.75 -13.75,-7.32142 z"
         style="display:inline;fill:#d9d9d9;fill-opacity:1;stroke:#000000;stroke-width:1px;stroke-linecap:butt;stroke-linejoin:miter;stroke-opacity:1"
         inkscape:connector-curvature="0"
         inkscape:label="Symbol"
         id="path4987" />
      <path
         style="font-style:normal;font-variant:normal;font-weight:bold;font-stretch:normal;font-size:8px;line-height:125%;font-family:Arial;-inkscape-font-specification:'Arial Bold';letter-spacing:0px;word-spacing:0px;fill:#686868;fill-opacity:1;stroke:none;stroke-width:1"
         d="m 304.86478,491.95684 -1.54589,0.16753 -2.04849,2.77871 -0.2733,-2.52825 -1.1499,0.12438 0.61514,5.69364 1.1499,-0.12438 -0.18615,-1.72019 0.82921,-1.05259 1.85388,2.50286 1.48751,-0.16076 -2.63571,-3.23139 z m -8.53496,1.40543 c -0.26811,0.002 -0.54805,0.0488 -0.84021,0.1413 -0.76464,0.24222 -1.30192,0.68893 -1.61189,1.34028 -0.30995,0.65136 -0.32082,1.43179 -0.033,2.34041 0.27209,0.85898 0.72006,1.46161 1.34367,1.80903 0.62361,0.34743 1.29734,0.40648 2.02226,0.17685 0.58588,-0.18559 1.02373,-0.48358 1.3132,-0.89352 0.28945,-0.40993 0.42174,-0.93877 0.39684,-1.5865 h -1.17613 c 0.0348,0.4288 -0.0239,0.76994 -0.176,1.02298 -0.15204,0.25304 -0.37465,0.42587 -0.66759,0.51867 -0.39723,0.12583 -0.7657,0.0815 -1.10675,-0.13284 -0.34105,-0.2143 -0.62159,-0.66619 -0.84021,-1.35635 -0.20604,-0.65044 -0.22851,-1.16123 -0.0685,-1.5315 0.15997,-0.37029 0.44231,-0.61895 0.84698,-0.74714 0.29294,-0.0931 0.56742,-0.0905 0.82414,0.008 0.25671,0.099 0.46263,0.27981 0.61683,0.54237 l 1.00859,-0.60584 c -0.26254,-0.39762 -0.55526,-0.67363 -0.87744,-0.82836 -0.30493,-0.14771 -0.63003,-0.22061 -0.97475,-0.2183 z m -6.96454,2.88955 -1.05005,0.62783 1.02298,6.06002 1.05343,-0.62953 -0.2623,-1.35889 1.96557,-1.17443 1.09659,0.86052 1.07967,-0.64561 z m 0.14892,1.46804 1.76673,1.41897 -1.34112,0.80129 z m -4.69012,2.26934 c -0.0805,8.6e-4 -0.16015,0.008 -0.23861,0.0228 -0.20923,0.0384 -0.40571,0.12249 -0.59061,0.25214 -0.18491,0.12967 -0.43924,0.35415 -0.76152,0.67268 l -1.62796,1.6085 4.02591,4.0733 1.38597,-1.37074 c 0.5205,-0.52177 0.84217,-0.85746 0.96459,-1.00775 0.19475,-0.24009 0.31475,-0.48581 0.36045,-0.73783 0.0457,-0.25201 0.0251,-0.50814 -0.0618,-0.76829 -0.0869,-0.26015 -0.22139,-0.48323 -0.40445,-0.66845 -0.2325,-0.2352 -0.50178,-0.374 -0.80721,-0.4163 -0.30544,-0.0423 -0.61793,0.0232 -0.93752,0.19631 0.0972,-0.25355 0.11891,-0.51078 0.0643,-0.77167 -0.0546,-0.26089 -0.17697,-0.48698 -0.36553,-0.67776 -0.17391,-0.17595 -0.37229,-0.29354 -0.59568,-0.35284 -0.13962,-0.0371 -0.27629,-0.0552 -0.41037,-0.0542 z m -0.14131,1.11012 c 0.0185,-8.6e-4 0.0366,-4.1e-4 0.055,8.7e-4 0.14726,0.01 0.28334,0.078 0.40783,0.20392 0.12997,0.13151 0.1947,0.27726 0.19377,0.43745 -8.7e-4,0.16021 -0.0635,0.31805 -0.18784,0.47383 -0.0686,0.0861 -0.26342,0.28745 -0.58383,0.60415 l -0.53899,0.53306 -0.93075,-0.94175 0.47214,-0.46706 c 0.3871,-0.3826 0.62598,-0.60984 0.71668,-0.68114 0.13434,-0.10394 0.26646,-0.15804 0.39599,-0.16331 z m 1.79973,1.53405 c 0.0363,4.3e-4 0.0724,0.003 0.1083,0.0101 0.14347,0.0266 0.27601,0.10114 0.39684,0.22337 0.14277,0.14447 0.21792,0.29821 0.22592,0.4603 0.008,0.1621 -0.0376,0.31472 -0.13792,0.45776 -0.0632,0.0954 -0.24265,0.28924 -0.53899,0.58214 l -0.76152,0.75222 -1.07629,-1.08898 0.66422,-0.6566 c 0.37413,-0.36978 0.63641,-0.58978 0.78691,-0.66168 0.11287,-0.0539 0.2236,-0.0802 0.33253,-0.0787 z"
         inkscape:label="Text"
         id="path5055" />
    </g>
    <g
       id="g296"
       inkscape:label="Start Button"
       transform="matrix(0.61073515,0,0,0.61073515,-226.09929,-95.670836)"
       style="display:inline">
      <path
         d="m 456.50153,504.52982 c 0,0 -4.70577,-0.14476 -5.84219,-0.0185 -1.13642,0.12627 -11.30108,1.26269 -11.67989,12.05869 -0.3788,10.79601 12.01406,12.95024 12.01406,12.95024 l 5.47421,0.11095 5.76374,0.0185 c 0,0 12.60841,-1.71547 12.79781,-12.63774 0.18941,-10.92228 -13.00571,-12.43751 -13.00571,-12.43751 z"
         style="display:inline;fill:#f1f1f1;fill-opacity:1;stroke:#000000;stroke-width:1px;stroke-linecap:butt;stroke-linejoin:miter;stroke-opacity:1"
         inkscape:connector-curvature="0"
         inkscape:label="Button Color"
         id="path4985" />
      <path
         d="m 452.1875,513.65682 -0.66964,13.125 14.41964,-6.25 z"
         style="display:inline;fill:#d9d9d9;fill-opacity:1;stroke:#000000;stroke-width:1px;stroke-linecap:butt;stroke-linejoin:miter;stroke-opacity:1"
         inkscape:connector-curvature="0"
         inkscape:label="Symbol"
         id="path4989" />
      <path
         style="font-style:normal;font-variant:normal;font-weight:bold;font-stretch:normal;font-size:8px;line-height:125%;font-family:Arial;-inkscape-font-specification:'Arial Bold';letter-spacing:0px;word-spacing:0px;display:inline;fill:#686868;fill-opacity:1;stroke:none;stroke-width:1"
         d="m 459.92154,491.97376 c -0.44009,-0.003 -0.81572,0.0608 -1.1279,0.19123 -0.31219,0.13049 -0.55195,0.32187 -0.71921,0.57452 -0.16727,0.25267 -0.25185,0.52486 -0.25384,0.81652 -0.003,0.45311 0.16949,0.8381 0.51868,1.15582 0.24832,0.22583 0.68103,0.41793 1.29966,0.57622 0.48086,0.1234 0.78892,0.20933 0.92398,0.25723 0.19738,0.0718 0.33591,0.1557 0.41461,0.2513 0.0787,0.0956 0.11691,0.21066 0.11592,0.34607 -0.002,0.21093 -0.0969,0.39469 -0.28684,0.55083 -0.18998,0.15611 -0.47121,0.23315 -0.8436,0.23015 -0.35155,-0.003 -0.63029,-0.093 -0.83598,-0.27161 -0.2057,-0.17863 -0.34125,-0.45703 -0.40615,-0.83514 l -1.12535,0.1007 c 0.0707,0.64117 0.29901,1.13051 0.68452,1.46804 0.3855,0.33753 0.93956,0.50945 1.6635,0.51445 0.49738,0.004 0.91368,-0.0629 1.24805,-0.19969 0.33437,-0.13683 0.59401,-0.34783 0.77844,-0.63291 0.18444,-0.28509 0.27807,-0.59163 0.28007,-0.91975 0.003,-0.36197 -0.0712,-0.66659 -0.22168,-0.91382 -0.15051,-0.24722 -0.36022,-0.44242 -0.62868,-0.58637 -0.26846,-0.14393 -0.68319,-0.2852 -1.24467,-0.42223 -0.56149,-0.13702 -0.91445,-0.26657 -1.05936,-0.39006 -0.11387,-0.0972 -0.17023,-0.21404 -0.16923,-0.34946 10e-4,-0.14843 0.0631,-0.26608 0.18615,-0.35368 0.19113,-0.13662 0.45436,-0.20438 0.79029,-0.20138 0.32551,0.003 0.56927,0.0687 0.73107,0.19884 0.16177,0.13013 0.26661,0.34251 0.31391,0.63714 l 1.15667,-0.0423 c -0.0143,-0.52617 -0.20262,-0.948 -0.56353,-1.26582 -0.36091,-0.31781 -0.90077,-0.47984 -1.6195,-0.48484 z m 3.94722,0.29192 -0.17769,0.9519 1.67027,0.31222 -0.87321,4.67659 1.13636,0.21238 0.87321,-4.67659 1.66688,0.31054 0.17769,-0.95191 z m 7.7066,1.87757 -4.0953,4.58267 1.14905,0.42983 0.8986,-1.05344 2.1441,0.80214 0.0127,1.39358 1.17782,0.44084 -0.14215,-6.16748 z m 0.0914,1.46043 -0.005,2.2668 -1.46381,-0.54745 z m 4.72736,0.57114 -2.98263,4.88812 0.98659,0.60245 1.24551,-2.04088 0.19969,0.12269 c 0.22675,0.13835 0.38158,0.25749 0.46368,0.35792 0.0821,0.10043 0.13961,0.22825 0.17261,0.38414 0.033,0.15589 0.0597,0.50175 0.0812,1.03652 l 0.0651,1.4985 1.18036,0.72091 -0.0152,-1.31828 c -0.004,-0.52392 -0.0298,-0.90265 -0.0778,-1.13636 -0.0481,-0.23372 -0.14093,-0.47805 -0.27838,-0.73275 0.46702,0.19958 0.88152,0.24618 1.24297,0.13876 0.36144,-0.1074 0.65448,-0.34479 0.87829,-0.71159 0.17638,-0.289 0.26138,-0.58895 0.2564,-0.90029 -0.005,-0.31133 -0.0994,-0.5834 -0.28263,-0.81567 -0.18318,-0.23226 -0.5361,-0.50793 -1.05851,-0.82668 z m 0.48229,1.42912 0.76998,0.47045 c 0.40014,0.24415 0.63661,0.39617 0.70991,0.45607 0.14377,0.12433 0.22943,0.26326 0.25553,0.41799 0.0261,0.15472 -0.0113,0.31441 -0.11169,0.47891 -0.0895,0.14672 -0.19771,0.24921 -0.32407,0.3063 -0.12638,0.0571 -0.26053,0.0691 -0.40276,0.0372 -0.14225,-0.0319 -0.45048,-0.1917 -0.92397,-0.48061 l -0.73022,-0.44591 z m 4.85851,2.0138 -0.63801,0.72853 1.2777,1.12028 -3.13579,3.5783 0.86983,0.76153 3.13578,-3.57831 1.2751,1.11774 0.63801,-0.72852 z"
         inkscape:label="Text"
         id="path5076" />
    </g>
    <g
       id="g2783"
       inkscape:label="Analog Stick"
       style="display:inline"
       inkscape:export-filename="C:\Users\AL200\OneDrive\Pictures\AL2009man Work Projects\VSCView - Controller Theme Layout\VSCView - Controller Theme (Ver. 1.20)\Xbox 360 Controller Images\Wikimedia\Xbox Wikimedia Overlay (No Thumbsticks).png"
       inkscape:export-xdpi="90.027298"
       inkscape:export-ydpi="90.027298">
      <g
         id="g219"
         inkscape:label="Right Stick"
         transform="matrix(0.61073515,0,0,0.61073515,-226.09929,-95.670836)"
         style="display:inline"
         inkscape:export-filename="C:\Users\AL200\OneDrive\Pictures\AL2009man Work Projects\VSCView - Controller Theme Layout\VSCView - Controller Theme (Ver. 1.20)\Xbox 360 Controller Images\Wikimedia\Active Images\Wikimedia_RightStick.png"
         inkscape:export-xdpi="90.027298"
         inkscape:export-ydpi="90.027298">
        <path
           d="m 519.28571,638.3443 c 0,17.99857 -18.46826,32.58929 -41.25,32.58929 -22.78175,0 -41.25,-14.59072 -41.25,-32.58929 0,-17.99857 18.46825,-32.58929 41.25,-32.58929 22.78174,0 41.25,14.59072 41.25,32.58929 z"
           transform="matrix(1.0684925,0,0,1.133116,-33.084369,-85.93538)"
           style="display:inline;fill:#868686;fill-opacity:1;stroke:#000000;stroke-width:0.999;stroke-miterlimit:4;stroke-opacity:1"
           inkscape:connector-curvature="0"
           id="path5001" />
        <path
           d="m 207.14285,553.61218 c 0,14.99059 -16.78932,27.14286 -37.5,27.14286 -20.71068,0 -37.5,-12.15227 -37.5,-27.14286 0,-14.99058 16.78932,-27.14285 37.5,-27.14285 20.71068,0 37.5,12.15227 37.5,27.14285 z"
           transform="matrix(1.1404276,0,0,1.2848062,284.32097,-72.709192)"
           style="display:inline;fill:#999999;fill-opacity:1;stroke:#000000;stroke-width:0.999;stroke-miterlimit:4;stroke-opacity:1"
           inkscape:connector-curvature="0"
           id="path5088" />
        <path
           d="m 171.34712,514.961 c 0,0.90657 -0.87625,1.6415 -1.95717,1.6415 -1.08091,0 -1.95717,-0.73493 -1.95717,-1.6415 0,-0.90658 0.87626,-1.6415 1.95717,-1.6415 1.08092,0 1.95717,0.73492 1.95717,1.6415 z"
           transform="translate(309.10668,102.27794)"
           style="display:inline;fill:#afafaf;fill-opacity:1;stroke:#000000;stroke-width:0.999;stroke-miterlimit:4;stroke-opacity:1"
           inkscape:connector-curvature="0"
           id="path5098" />
        <path
           d="m 171.34712,514.961 c 0,0.90657 -0.87625,1.6415 -1.95717,1.6415 -1.08091,0 -1.95717,-0.73493 -1.95717,-1.6415 0,-0.90658 0.87626,-1.6415 1.95717,-1.6415 1.08092,0 1.95717,0.73492 1.95717,1.6415 z"
           transform="translate(339.28499,126.5216)"
           style="display:inline;fill:#979797;fill-opacity:1;stroke:#000000;stroke-width:0.999;stroke-miterlimit:4;stroke-opacity:1"
           inkscape:connector-curvature="0"
           id="path5100" />
        <path
           d="m 171.34712,514.961 c 0,0.90657 -0.87625,1.6415 -1.95717,1.6415 -1.08091,0 -1.95717,-0.73493 -1.95717,-1.6415 0,-0.90658 0.87626,-1.6415 1.95717,-1.6415 1.08092,0 1.95717,0.73492 1.95717,1.6415 z"
           transform="translate(308.34907,148.23988)"
           style="display:inline;fill:#b0b0b0;fill-opacity:1;stroke:#000000;stroke-width:0.999;stroke-miterlimit:4;stroke-opacity:1"
           inkscape:connector-curvature="0"
           id="path5102" />
        <path
           d="m 171.34712,514.961 c 0,0.90657 -0.87625,1.6415 -1.95717,1.6415 -1.08091,0 -1.95717,-0.73493 -1.95717,-1.6415 0,-0.90658 0.87626,-1.6415 1.95717,-1.6415 1.08092,0 1.95717,0.73492 1.95717,1.6415 z"
           transform="translate(279.68599,124.8801)"
           style="display:inline;fill:#b0b0b0;fill-opacity:1;stroke:#000000;stroke-width:0.999;stroke-miterlimit:4;stroke-opacity:1"
           inkscape:connector-curvature="0"
           id="path5104" />
      </g>
      <g
         id="g227"
         inkscape:label="Left Stick"
         transform="matrix(0.61073515,0,0,0.61073515,-226.09929,-95.670836)"
         style="display:inline"
         inkscape:export-filename="C:\Users\AL200\OneDrive\Pictures\AL2009man Work Projects\VSCView - Controller Theme Layout\VSCView - Controller Theme (Ver. 1.20)\Xbox 360 Controller Images\Wikimedia\Active Images\Wikimedia_LeftStick.png"
         inkscape:export-xdpi="90.027298"
         inkscape:export-ydpi="90.027298">
        <path
           d="m 207.14285,553.61218 c 0,14.99059 -16.78932,27.14286 -37.5,27.14286 -20.71068,0 -37.5,-12.15227 -37.5,-27.14286 0,-14.99058 16.78932,-27.14285 37.5,-27.14285 20.71068,0 37.5,12.15227 37.5,27.14285 z"
           transform="matrix(1.2146473,0,0,1.4419691,-32.140059,-262.68317)"
           style="display:inline;fill:#868686;fill-opacity:1;stroke:#000000;stroke-width:0.999;stroke-miterlimit:4;stroke-opacity:1"
           inkscape:connector-curvature="0"
           id="path4999" />
        <path
           d="m 207.14285,553.61218 c 0,14.99059 -16.78932,27.14286 -37.5,27.14286 -20.71068,0 -37.5,-12.15227 -37.5,-27.14286 0,-14.99058 16.78932,-27.14285 37.5,-27.14285 20.71068,0 37.5,12.15227 37.5,27.14285 z"
           transform="matrix(1.1697253,0,0,1.3433058,-24.416901,-206.46917)"
           style="display:inline;fill:#999999;fill-opacity:1;stroke:#000000;stroke-width:0.999;stroke-miterlimit:4;stroke-opacity:1"
           inkscape:connector-curvature="0"
           id="path5086" />
        <path
           d="m 171.34712,514.961 c 0,0.90657 -0.87625,1.6415 -1.95717,1.6415 -1.08091,0 -1.95717,-0.73493 -1.95717,-1.6415 0,-0.90658 0.87626,-1.6415 1.95717,-1.6415 1.08092,0 1.95717,0.73492 1.95717,1.6415 z"
           transform="translate(3.0304576,-2.0203051)"
           style="display:inline;fill:#b0b0b0;fill-opacity:1;stroke:#000000;stroke-width:0.999;stroke-miterlimit:4;stroke-opacity:1"
           inkscape:connector-curvature="0"
           id="path5090" />
        <path
           d="m 171.34712,514.961 c 0,0.90657 -0.87625,1.6415 -1.95717,1.6415 -1.08091,0 -1.95717,-0.73493 -1.95717,-1.6415 0,-0.90658 0.87626,-1.6415 1.95717,-1.6415 1.08092,0 1.95717,0.73492 1.95717,1.6415 z"
           transform="translate(36.365492,24.875006)"
           style="display:inline;fill:#b0b0b0;fill-opacity:1;stroke:#000000;stroke-width:0.999;stroke-miterlimit:4;stroke-opacity:1"
           inkscape:connector-curvature="0"
           id="path5092" />
        <path
           d="m 171.34712,514.961 c 0,0.90657 -0.87625,1.6415 -1.95717,1.6415 -1.08091,0 -1.95717,-0.73493 -1.95717,-1.6415 0,-0.90658 0.87626,-1.6415 1.95717,-1.6415 1.08092,0 1.95717,0.73492 1.95717,1.6415 z"
           transform="translate(3.2829961,48.992398)"
           style="display:inline;fill:#b0b0b0;fill-opacity:1;stroke:#000000;stroke-width:0.999;stroke-miterlimit:4;stroke-opacity:1"
           inkscape:connector-curvature="0"
           id="path5094" />
        <path
           d="m 171.34712,514.961 c 0,0.90657 -0.87625,1.6415 -1.95717,1.6415 -1.08091,0 -1.95717,-0.73493 -1.95717,-1.6415 0,-0.90658 0.87626,-1.6415 1.95717,-1.6415 1.08092,0 1.95717,0.73492 1.95717,1.6415 z"
           transform="translate(-27.400388,23.107239)"
           style="display:inline;fill:#b0b0b0;fill-opacity:1;stroke:#000000;stroke-width:0.999;stroke-miterlimit:4;stroke-opacity:1"
           inkscape:connector-curvature="0"
           id="path5096" />
      </g>
    </g>
    <g
       id="g2753"
       inkscape:label="Triggers"
       style="display:inline">
      <g
         id="g2518"
         inkscape:label="Right Trigger"
         transform="matrix(0.61073515,0,0,0.61073515,-226.09929,-95.670836)"
         style="display:inline"
         inkscape:export-filename="C:\Users\AL200\OneDrive\Pictures\AL2009man Work Projects\VSCView - Controller Theme Layout\VSCView - Controller Theme (Ver. 1.20)\Xbox 360 Controller Images\Wikimedia\Active Images\Wikimedia_RightTrigger.png"
         inkscape:export-xdpi="90.027298"
         inkscape:export-ydpi="90.027298">
        <path
           d="m 597.21353,379.42254 c 0,0 -6.4156,-39.45502 -6.59384,-42.13298 -0.17815,-2.67794 -2.13844,-19.10266 -2.67318,-21.42354 -0.53453,-2.32089 -6.77189,-7.67677 -9.08878,-7.67677 -2.31667,0 -19.42496,0 -19.42496,0 0,0 -11.94019,1.96383 -12.29658,10.35471 -0.35639,8.39089 -0.53463,17.31737 -0.53463,17.31737 l 3.20781,41.0618 z"
           style="display:inline;fill:#f8f8f8;fill-opacity:1;stroke:#000000;stroke-width:0.998874px;stroke-linecap:butt;stroke-linejoin:miter;stroke-opacity:1"
           inkscape:connector-curvature="0"
           id="path4951" />
        <g
           transform="scale(1.2502948,0.79981137)"
           id="text5148"
           style="font-style:normal;font-weight:normal;font-size:11.6627px;line-height:125%;font-family:'Bitstream Vera Sans';letter-spacing:0px;word-spacing:0px;display:inline;fill:#bbbbbb;fill-opacity:1;stroke:none">
          <path
             d="m 450.95686,450.94278 v -8.34838 h 3.54778 c 0.89216,10e-6 1.5404,0.075 1.94473,0.22494 0.40431,0.14997 0.72796,0.41667 0.97094,0.8001 0.24296,0.38345 0.36445,0.82194 0.36445,1.31547 0,0.62642 -0.18413,1.14368 -0.55238,1.55179 -0.36826,0.40813 -0.91874,0.66533 -1.65145,0.77163 0.36445,0.21261 0.66532,0.44609 0.9026,0.70045 0.23727,0.25436 0.55712,0.70614 0.95955,1.35533 l 1.01935,1.62867 h -2.01591 l -1.21866,-1.8166 c -0.4328,-0.64919 -0.72892,-1.05825 -0.88837,-1.2272 -0.15945,-0.16894 -0.32839,-0.28473 -0.50682,-0.34737 -0.17844,-0.0626 -0.46127,-0.094 -0.84851,-0.094 h -0.34168 v 3.48514 z m 1.68562,-4.81769 h 1.24713 c 0.80864,10e-6 1.31357,-0.0342 1.51478,-0.1025 0.20121,-0.0683 0.35876,-0.18602 0.47266,-0.35307 0.11389,-0.16704 0.17084,-0.37584 0.17084,-0.62641 0,-0.28093 -0.075,-0.50777 -0.22494,-0.68052 -0.14996,-0.17273 -0.36161,-0.28187 -0.63495,-0.32744 -0.13668,-0.019 -0.5467,-0.0285 -1.23005,-0.0285 h -1.31547 z"
             style="font-variant:normal;font-weight:bold;font-stretch:normal;font-family:Arial;-inkscape-font-specification:'Arial Bold';fill:#bbbbbb;fill-opacity:1"
             inkscape:connector-curvature="0"
             id="path5167" />
          <path
             d="m 461.25851,450.94278 v -6.9361 h -2.47718 v -1.41228 h 6.63429 v 1.41228 h -2.47149 v 6.9361 z"
             style="font-variant:normal;font-weight:bold;font-stretch:normal;font-family:Arial;-inkscape-font-specification:'Arial Bold';fill:#bbbbbb;fill-opacity:1"
             inkscape:connector-curvature="0"
             id="path5169" />
        </g>
      </g>
      <g
         id="g2512"
         inkscape:label="Left Trigger"
         transform="matrix(0.61073515,0,0,0.61073515,-226.09929,-95.670836)"
         style="display:inline"
         inkscape:export-filename="C:\Users\AL200\OneDrive\Pictures\AL2009man Work Projects\VSCView - Controller Theme Layout\VSCView - Controller Theme (Ver. 1.20)\Xbox 360 Controller Images\Wikimedia\Active Images\Wikimedia_LeftTrigger.png"
         inkscape:export-xdpi="90.027298"
         inkscape:export-ydpi="90.027298">
        <path
           d="m 168.75,379.86218 c 0,0 6.42857,-39.46428 6.60714,-42.14286 0.17857,-2.67857 2.14286,-19.10714 2.67857,-21.42857 0.53572,-2.32143 6.78572,-7.67857 9.10715,-7.67857 2.32143,0 19.46428,0 19.46428,0 0,0 11.96429,1.96429 12.32143,10.35714 0.35714,8.39286 0.53572,17.32143 0.53572,17.32143 L 216.25,377.36218 Z"
           style="display:inline;fill:#f8f8f8;fill-opacity:1;stroke:#000000;stroke-width:1px;stroke-linecap:butt;stroke-linejoin:miter;stroke-opacity:1"
           inkscape:connector-curvature="0"
           id="path4945" />
        <g
           transform="scale(1.2502948,0.79981137)"
           id="text5144"
           style="font-style:normal;font-weight:normal;font-size:11.6627px;line-height:125%;font-family:'Bitstream Vera Sans';letter-spacing:0px;word-spacing:0px;display:inline;fill:#bbbbbb;fill-opacity:1;stroke:none">
          <path
             d="m 148.97675,450.61581 v -8.28004 h 1.68562 v 6.87346 h 4.19127 v 1.40658 z"
             style="font-variant:normal;font-weight:bold;font-stretch:normal;font-family:Arial;-inkscape-font-specification:'Arial Bold';fill:#bbbbbb;fill-opacity:1"
             inkscape:connector-curvature="0"
             id="path5162" />
          <path
             d="m 157.94015,450.61581 v -6.9361 h -2.47718 v -1.41227 h 6.63429 v 1.41227 h -2.47149 v 6.9361 z"
             style="font-variant:normal;font-weight:bold;font-stretch:normal;font-family:Arial;-inkscape-font-specification:'Arial Bold';fill:#bbbbbb;fill-opacity:1"
             inkscape:connector-curvature="0"
             id="path5164" />
        </g>
      </g>
    </g>
    <g
       id="g2767"
       inkscape:label="Bumpers"
       style="display:inline">
      <g
         id="g266"
         inkscape:label="Right Bumper"
         transform="matrix(0.61073515,0,0,0.61073515,-226.09929,-95.670836)"
         style="display:inline">
        <path
           d="m 651.41836,411.88442 -1.06927,-10.53325 c 0,0 0.71288,-9.64059 -13.54409,-15.7106 -14.25677,-6.07 -26.3751,-13.74677 -42.94875,-17.13884 -16.57365,-3.39206 -26.55345,-4.2847 -34.57296,-4.10617 -8.01951,0.17852 -20.67247,1.07117 -22.09821,1.60676 -1.42568,0.53558 -3.56421,6.96266 -5.34634,7.31971 -1.78211,0.35706 -6.23739,1.60677 -6.23739,1.60677 l -0.53462,12.67559 4.09884,14.10385 c 0,0 12.8312,-8.92649 46.51312,-4.28472 33.68194,4.64177 44.19628,9.81913 44.19628,9.81913 0,0 30.11773,11.78295 31.187,10.89031 1.06927,-0.89265 0.35639,-6.24854 0.35639,-6.24854 z"
           style="display:inline;fill:#f1f1f1;fill-opacity:1;stroke:#000000;stroke-width:0.999;stroke-linecap:butt;stroke-linejoin:miter;stroke-miterlimit:4;stroke-dasharray:none;stroke-opacity:1"
           inkscape:connector-curvature="0"
           id="path4953" />
        <path
           d="m 645.97193,401.61656 4.37716,-0.26539 c 0,0 0.71288,-9.64059 -13.54409,-15.7106 -14.25677,-6.07 -26.3751,-13.74677 -42.94875,-17.13884 -16.57365,-3.39206 -26.55345,-4.2847 -34.57296,-4.10617 -8.01951,0.17852 -18.94278,0.93949 -20.36852,1.47508 0.66279,3.41009 0.4635,7.01504 1.24127,9.76946 l 0.88455,4.72885 c 0,0 2.47406,-2.76577 36.15598,1.876 33.68194,4.64177 36.60699,6.60484 36.60699,6.60484 0,0 10.31595,4.09892 11.63343,4.55103 3.12284,1.07163 20.53496,8.21574 20.53496,8.21574 z"
           style="display:inline;fill:#f8f8f8;fill-opacity:1;stroke:#000000;stroke-width:0.999;stroke-linecap:butt;stroke-linejoin:miter;stroke-miterlimit:4;stroke-dasharray:none;stroke-opacity:1"
           inkscape:connector-curvature="0"
           id="path5178" />
        <g
           transform="matrix(1.3128592,0.04676647,-0.02709865,0.76073099,0,0)"
           id="text5152"
           style="font-style:normal;font-weight:normal;font-size:12.254px;line-height:125%;font-family:'Bitstream Vera Sans';letter-spacing:0px;word-spacing:0px;display:inline;fill:#bbbbbb;fill-opacity:1;stroke:none">
          <path
             d="m 441.49862,465.6282 v -8.77168 h 3.72767 c 0.93739,0 1.6185,0.0788 2.04333,0.23634 0.42482,0.15757 0.76488,0.43779 1.02018,0.84067 0.25528,0.40289 0.38293,0.86361 0.38293,1.38217 0,0.65818 -0.19347,1.20167 -0.58039,1.63048 -0.38693,0.42882 -0.96533,0.69907 -1.73519,0.81075 0.38293,0.22339 0.69906,0.46871 0.94837,0.73596 0.24931,0.26727 0.58537,0.74195 1.00821,1.42406 l 1.07103,1.71125 h -2.11813 l -1.28045,-1.90871 c -0.45474,-0.6821 -0.76588,-1.11191 -0.93341,-1.28942 -0.16754,-0.17751 -0.34505,-0.29917 -0.53253,-0.36499 -0.18748,-0.0658 -0.48466,-0.0987 -0.89153,-0.0987 h -0.359 v 3.66185 z m 1.77109,-5.06197 h 1.31037 c 0.84964,10e-6 1.38017,-0.0359 1.59159,-0.1077 0.2114,-0.0718 0.37695,-0.19545 0.49662,-0.37097 0.11966,-0.17551 0.1795,-0.3949 0.1795,-0.65818 0,-0.29517 -0.0788,-0.53351 -0.23634,-0.71501 -0.15757,-0.18149 -0.37996,-0.29618 -0.66715,-0.34405 -0.14361,-0.0199 -0.57442,-0.0299 -1.29242,-0.0299 h -1.38217 z"
             style="font-variant:normal;font-weight:bold;font-stretch:normal;font-family:Arial;-inkscape-font-specification:'Arial Bold';fill:#bbbbbb;fill-opacity:1"
             inkscape:connector-curvature="0"
             id="path5172" />
          <path
             d="m 450.35407,456.85652 h 3.50629 c 0.69407,0 1.21163,0.0289 1.55269,0.0867 0.34105,0.0579 0.64621,0.17852 0.91547,0.362 0.26924,0.1835 0.49362,0.42782 0.67313,0.73297 0.1795,0.30516 0.26925,0.64721 0.26925,1.02616 0,0.41086 -0.1107,0.78782 -0.33208,1.13086 -0.22139,0.34306 -0.52156,0.60034 -0.9005,0.77186 0.53451,0.15558 0.94537,0.42084 1.23258,0.7958 0.2872,0.37496 0.4308,0.81574 0.43081,1.32233 -10e-6,0.3989 -0.0927,0.78682 -0.27823,1.16378 -0.18549,0.37695 -0.43879,0.67812 -0.75989,0.90349 -0.32112,0.22538 -0.71702,0.36399 -1.18771,0.41585 -0.29519,0.0319 -1.00721,0.0519 -2.13608,0.0598 h -2.98573 z m 1.7711,1.45995 v 2.02838 h 1.16078 c 0.69008,0 1.11889,-0.01 1.28643,-0.0299 0.30316,-0.0359 0.5415,-0.1406 0.71502,-0.31413 0.17351,-0.17351 0.26027,-0.40188 0.26028,-0.6851 -1e-5,-0.27124 -0.0748,-0.49163 -0.22438,-0.66117 -0.14959,-0.16952 -0.37197,-0.27224 -0.66715,-0.30814 -0.17552,-0.0199 -0.68012,-0.0299 -1.5138,-0.0299 z m 0,3.48833 v 2.3455 h 1.63945 c 0.63823,0 1.04311,-0.018 1.21464,-0.0539 0.26326,-0.0479 0.47767,-0.16454 0.64321,-0.35003 0.16554,-0.18548 0.24831,-0.4338 0.24831,-0.74494 0,-0.26326 -0.0638,-0.48664 -0.19146,-0.67014 -0.12766,-0.18349 -0.31215,-0.31712 -0.55347,-0.40089 -0.24134,-0.0838 -0.76489,-0.12565 -1.57065,-0.12565 z"
             style="font-variant:normal;font-weight:bold;font-stretch:normal;font-family:Arial;-inkscape-font-specification:'Arial Bold';fill:#bbbbbb;fill-opacity:1"
             inkscape:connector-curvature="0"
             id="path5174" />
        </g>
      </g>
      <g
         id="g273"
         inkscape:label="Left Bumer"
         transform="matrix(0.61073515,0,0,0.61073515,-226.09929,-95.670836)"
         style="display:inline">
        <path
           d="m 110.89286,411.82647 1.07143,-10.53572 c 0,0 -0.71429,-9.64285 13.57142,-15.71428 14.28572,-6.07143 26.42858,-13.75 43.03572,-17.14286 16.60714,-3.39286 26.60714,-4.28571 34.64286,-4.10714 8.03571,0.17857 20.71428,1.07143 22.14285,1.60714 1.42857,0.53571 3.57143,6.96429 5.35715,7.32143 1.78571,0.35714 6.25,1.60714 6.25,1.60714 l 0.53571,12.67857 -4.10714,14.10715 c 0,0 -12.85715,-8.92858 -46.60715,-4.28572 -33.75,4.64286 -44.28571,9.82143 -44.28571,9.82143 0,0 -30.17857,11.78571 -31.25,10.89286 -1.07143,-0.89286 -0.35714,-6.25 -0.35714,-6.25 z"
           style="display:inline;fill:#f1f1f1;fill-opacity:1;stroke:#000000;stroke-width:1px;stroke-linecap:butt;stroke-linejoin:miter;stroke-opacity:1"
           inkscape:connector-curvature="0"
           id="path4943" />
        <path
           d="m 111.96429,401.29075 c 0,0 -0.71429,-9.64285 13.57142,-15.71428 14.28572,-6.07143 26.42858,-13.75 43.03572,-17.14286 16.60714,-3.39286 26.60714,-4.28571 34.64286,-4.10714 8.03571,0.17857 20.71428,1.07143 22.14285,1.60714 1.42857,0.53571 0.51857,3.2878 0.0539,5.04859 -0.36087,1.36729 -1.19988,2.9961 -1.19988,2.9961 l -0.85325,3.71346 -0.19279,3.24801 c 0,0 -4.22877,-4.45374 -37.76832,1.52266 -31.31696,5.58036 -32.03761,6.03336 -32.03761,6.03336 0,0 -11.49075,3.07314 -17.86548,5.8421 -1.27922,0.55564 -17.45511,5.26783 -17.45511,5.26783 -2.25393,0.55781 -4.34805,1.58997 -6.07431,1.68503 z"
           style="display:inline;fill:#f8f8f8;fill-opacity:1;stroke:#000000;stroke-width:1px;stroke-linecap:butt;stroke-linejoin:miter;stroke-opacity:1"
           inkscape:connector-curvature="0"
           id="path5176" />
        <g
           transform="matrix(1.3107349,-0.08809376,0.05104557,0.75950004,0,0)"
           id="text5140"
           style="font-style:normal;font-weight:normal;font-size:12.254px;line-height:125%;font-family:'Bitstream Vera Sans';letter-spacing:0px;word-spacing:0px;display:inline;fill:#bbbbbb;fill-opacity:1;stroke:none">
          <path
             d="m 116.87287,509.30298 v -8.69989 h 1.77109 v 7.22198 h 4.40379 v 1.47791 z"
             style="font-variant:normal;font-weight:bold;font-stretch:normal;font-family:Arial;-inkscape-font-specification:'Arial Bold';fill:#bbbbbb;fill-opacity:1"
             inkscape:connector-curvature="0"
             id="path5157" />
          <path
             d="m 124.32222,500.53129 h 3.50628 c 0.69408,10e-6 1.21164,0.0289 1.5527,0.0868 0.34105,0.0579 0.6462,0.17851 0.91546,0.362 0.26925,0.1835 0.49363,0.42782 0.67314,0.73296 0.17949,0.30517 0.26924,0.64722 0.26925,1.02616 -1e-5,0.41087 -0.1107,0.78782 -0.33208,1.13087 -0.22139,0.34305 -0.52156,0.60034 -0.9005,0.77186 0.53451,0.15557 0.94537,0.42083 1.23258,0.79579 0.2872,0.37497 0.4308,0.81574 0.43081,1.32234 -1e-5,0.39889 -0.0927,0.78682 -0.27823,1.16377 -0.18549,0.37696 -0.43879,0.67812 -0.75989,0.9035 -0.32112,0.22537 -0.71702,0.36399 -1.18771,0.41584 -0.29519,0.0319 -1.00722,0.0519 -2.13608,0.0598 h -2.98573 z m 1.77109,1.45995 v 2.02838 h 1.16079 c 0.69008,1e-5 1.11889,-0.01 1.28643,-0.0299 0.30316,-0.0359 0.54149,-0.1406 0.71502,-0.31413 0.17351,-0.17351 0.26027,-0.40188 0.26028,-0.6851 -1e-5,-0.27124 -0.0748,-0.49163 -0.22438,-0.66116 -0.14959,-0.16953 -0.37197,-0.27224 -0.66715,-0.30815 -0.17552,-0.0199 -0.68012,-0.0299 -1.51381,-0.0299 z m 0,3.48834 v 2.34549 h 1.63946 c 0.63823,1e-5 1.0431,-0.0179 1.21463,-0.0538 0.26327,-0.0479 0.47767,-0.16454 0.64322,-0.35003 0.16554,-0.18548 0.24831,-0.43379 0.24831,-0.74493 0,-0.26327 -0.0638,-0.48665 -0.19147,-0.67014 -0.12765,-0.18349 -0.31214,-0.31712 -0.55346,-0.40089 -0.24134,-0.0838 -0.76489,-0.12565 -1.57065,-0.12565 z"
             style="font-variant:normal;font-weight:bold;font-stretch:normal;font-family:Arial;-inkscape-font-specification:'Arial Bold';fill:#bbbbbb;fill-opacity:1"
             inkscape:connector-curvature="0"
             id="path5159" />
        </g>
      </g>
    </g>
    <g
       id="g259"
       inkscape:label="Face Buttons"
       transform="matrix(0.61073515,0,0,0.61073515,-226.09929,-95.670836)"
       style="display:inline">
      <g
         id="g1164"
         inkscape:label="X Button">
        <g
           id="g1132"
           inkscape:label="Button"
           style="display:inline">
          <path
             d="m 555.71428,521.64789 c 0,9.66498 -8.47461,17.5 -18.92857,17.5 -10.45397,0 -18.92858,-7.83502 -18.92858,-17.5 0,-9.66498 8.47461,-17.5 18.92858,-17.5 10.45396,0 18.92857,7.83502 18.92857,17.5 z"
             transform="matrix(1.2651356,0,0,1.1951606,-146.91893,-109.1041)"
             style="display:inline;fill:#0032b0;fill-opacity:1;stroke:#000000;stroke-width:0.812426;stroke-miterlimit:4;stroke-opacity:1"
             inkscape:connector-curvature="0"
             inkscape:label="Layer 2"
             id="path4957" />
          <path
             d="m 555.71428,521.64789 c 0,9.66498 -8.47461,17.5 -18.92857,17.5 -10.45397,0 -18.92858,-7.83502 -18.92858,-17.5 0,-9.66498 8.47461,-17.5 18.92858,-17.5 10.45396,0 18.92857,7.83502 18.92857,17.5 z"
             transform="matrix(1.1530474,0,0,1,-86.220977,-3.9285716)"
             style="display:inline;fill:#0e52ff;fill-opacity:1;stroke:#000000;stroke-width:0.93034;stroke-miterlimit:4;stroke-opacity:1"
             inkscape:connector-curvature="0"
             sodipodi:insensitive="true"
             inkscape:label="Layer 1"
             id="path4959" />
        </g>
        <g
           id="g1116"
           inkscape:label="Text"
           style="display:inline">
          <path
             d="m 536.44293,516.45609 8.4439,12.01843 h -6.53668 l -5.68904,-8.04383 -5.64013,8.04383 h -6.56928 l 8.44389,-12.01843 -8.11788,-11.52949 h 6.55299 l 5.33041,7.58644 5.31412,-7.58644 h 6.58558 z"
             style="font-style:normal;font-weight:bold;font-size:32.8385px;line-height:125%;font-family:'Bitstream Vera Sans';-inkscape-font-specification:'Bitstream Vera Sans Bold';letter-spacing:0px;word-spacing:0px;fill:#0032b0;fill-opacity:1;stroke:none"
             inkscape:connector-curvature="0"
             inkscape:label="Layer 2"
             id="path5132" />
          <path
             d="m 536.6639,517.46624 8.4439,12.01843 h -6.53668 l -5.68904,-8.04383 -5.64013,8.04383 h -6.56928 l 8.44389,-12.01843 -8.11788,-11.52949 h 6.55299 l 5.33041,7.58644 5.31412,-7.58644 h 6.58558 z"
             style="font-style:normal;font-weight:bold;font-size:32.8385px;line-height:125%;font-family:'Bitstream Vera Sans';-inkscape-font-specification:'Bitstream Vera Sans Bold';letter-spacing:0px;word-spacing:0px;display:inline;fill:#85a7ff;fill-opacity:1;stroke:none"
             inkscape:connector-curvature="0"
             inkscape:label="Layer 1"
             id="path5204" />
        </g>
      </g>
      <g
         id="g1156"
         inkscape:label="Y Button">
        <g
           id="g1120"
           inkscape:label="Button"
           style="display:inline">
          <path
             d="m 619.64287,473.34433 c 0,10.40465 -9.87372,18.83928 -22.05358,18.83928 -12.17985,0 -22.05357,-8.43463 -22.05357,-18.83928 0,-10.40465 9.87372,-18.83929 22.05357,-18.83929 12.17986,0 22.05358,8.43464 22.05358,18.83929 z"
             transform="matrix(1.1476311,-0.28802175,0.28768994,1.146309,-232.42823,96.795394)"
             style="display:inline;fill:#d9c300;fill-opacity:1;stroke:#000000;stroke-width:0.999;stroke-miterlimit:4;stroke-opacity:1"
             inkscape:connector-curvature="0"
             inkscape:label="Layer 2"
             id="path4965" />
          <path
             d="m 619.64287,473.34433 c 0,10.40465 -9.87372,18.83928 -22.05358,18.83928 -12.17985,0 -22.05357,-8.43463 -22.05357,-18.83928 0,-10.40465 9.87372,-18.83929 22.05357,-18.83929 12.17986,0 22.05358,8.43464 22.05358,18.83929 z"
             transform="matrix(1.0110047,-0.2444118,0.25543435,1.0565993,-134.55844,117.91427)"
             style="display:inline;fill:#ffe823;fill-opacity:1;stroke:#000000;stroke-width:0.999;stroke-miterlimit:4;stroke-opacity:1"
             inkscape:connector-curvature="0"
             inkscape:label="Layer 1"
             id="path4967" />
        </g>
        <g
           id="g1112"
           inkscape:label="Text"
           style="display:inline">
          <path
             d="m 577.60526,459.09092 h 6.86269 l 5.54233,8.39082 5.54233,-8.39082 h 6.879 l -9.27525,13.62719 v 9.92074 h -6.27586 v -9.92074 z"
             style="font-style:normal;font-weight:bold;font-size:32.8385px;line-height:125%;font-family:'Bitstream Vera Sans';-inkscape-font-specification:'Bitstream Vera Sans Bold';letter-spacing:0px;word-spacing:0px;fill:#d9c300;fill-opacity:1;stroke:none"
             inkscape:connector-curvature="0"
             inkscape:label="Layer 2"
             id="path5135" />
          <path
             d="m 578.85712,460.73241 h 6.86269 l 5.54233,8.39083 5.54233,-8.39083 h 6.879 l -9.27525,13.6272 v 9.92073 h -6.27586 v -9.92073 z"
             style="font-style:normal;font-weight:bold;font-size:32.8385px;line-height:125%;font-family:'Bitstream Vera Sans';-inkscape-font-specification:'Bitstream Vera Sans Bold';letter-spacing:0px;word-spacing:0px;display:inline;fill:#fff9c1;fill-opacity:1;stroke:none"
             inkscape:connector-curvature="0"
             inkscape:label="Layer 1"
             id="path5208" />
        </g>
      </g>
      <g
         id="g1140"
         inkscape:label="B Button">
        <g
           id="g1124"
           inkscape:label="Button"
           style="display:inline">
          <path
             d="m 685,538.61218 c 0,9.36912 -8.95431,16.96429 -20,16.96429 -11.04569,0 -20,-7.59517 -20,-16.96429 0,-9.36911 8.95431,-16.96428 20,-16.96428 11.04569,0 20,7.59517 20,16.96428 z"
             transform="matrix(1.1727851,-0.49099221,0.43970931,1.1348517,-374.82327,225.47051)"
             style="display:inline;fill:#ab0b00;fill-opacity:1;stroke:#000000;stroke-width:0.999;stroke-miterlimit:4;stroke-opacity:1"
             inkscape:connector-curvature="0"
             inkscape:label="Layer 2"
             id="path4969" />
          <path
             d="m 685,538.61218 c 0,9.36912 -8.95431,16.96429 -20,16.96429 -11.04569,0 -20,-7.59517 -20,-16.96429 0,-9.36911 8.95431,-16.96428 20,-16.96428 11.04569,0 20,7.59517 20,16.96428 z"
             transform="matrix(1.0213899,-0.43107829,0.38294709,0.99637005,-242.06805,263.22356)"
             style="display:inline;fill:#ff1303;fill-opacity:1;stroke:#000000;stroke-width:0.999;stroke-miterlimit:4;stroke-opacity:1"
             inkscape:connector-curvature="0"
             inkscape:label="Layer 1"
             id="path4971" />
        </g>
        <g
           id="g1108"
           inkscape:label="Text"
           style="display:inline">
          <path
             d="m 644.24923,510.35995 c 1.00719,0.0134 1.77373,-0.19057 2.29965,-0.61201 0.52589,-0.42142 0.79439,-1.04978 0.80554,-1.8851 0.011,-0.82458 -0.24074,-1.45719 -0.75514,-1.89786 -0.51443,-0.44063 -1.27523,-0.66766 -2.28241,-0.6811 l -3.53623,-0.0471 -0.0676,5.07607 z m 0.0761,10.49235 c 1.28387,0.0171 2.25305,-0.23239 2.90753,-0.74851 0.65445,-0.51612 0.98876,-1.30427 1.00289,-2.36446 0.0138,-1.03877 -0.29677,-1.82212 -0.93177,-2.35007 -0.63504,-0.52794 -1.60003,-0.80053 -2.89497,-0.81779 l -3.75205,-0.05 -0.0837,6.28083 z m 6.05845,-8.54691 c 1.36727,0.40382 2.42031,1.13012 3.15911,2.17891 0.73876,1.04881 1.09811,2.3282 1.07801,3.83816 -0.0308,2.31315 -0.86179,4.02653 -2.49281,5.14016 -1.63108,1.11362 -4.09573,1.64846 -7.39399,1.60451 l -10.60868,-0.14134 0.31954,-23.98283 9.59596,0.12785 c 3.44213,0.0459 5.9285,0.58243 7.45909,1.60963 1.53056,1.02724 2.28108,2.64923 2.25156,4.86597 -0.0156,1.1673 -0.31104,2.1568 -0.8864,2.96851 -0.57541,0.81172 -1.40253,1.40855 -2.48139,1.79047 z"
             style="font-style:normal;font-weight:bold;font-size:33.4479px;line-height:125%;font-family:'Bitstream Vera Sans';-inkscape-font-specification:'Bitstream Vera Sans Bold';letter-spacing:0px;word-spacing:0px;fill:#ab0b00;fill-opacity:1;stroke:none"
             inkscape:connector-curvature="0"
             inkscape:label="Layer 2"
             id="path5138" />
          <path
             d="m 645.76446,511.24384 c 1.00718,0.0134 1.77373,-0.19058 2.29965,-0.61202 0.52589,-0.42142 0.79439,-1.04978 0.80554,-1.8851 0.011,-0.82458 -0.24074,-1.45719 -0.75514,-1.89786 -0.51443,-0.44062 -1.27523,-0.66765 -2.28241,-0.68109 l -3.53623,-0.0471 -0.0676,5.07607 z m 0.0761,10.49235 c 1.28388,0.0171 2.25306,-0.2324 2.90754,-0.74852 0.65445,-0.51611 0.98876,-1.30426 1.00289,-2.36445 0.0138,-1.03877 -0.29677,-1.82213 -0.93177,-2.35008 -0.63504,-0.52793 -1.60003,-0.80053 -2.89497,-0.81779 l -3.75206,-0.05 -0.0837,6.28083 z m 6.05845,-8.54692 c 1.36728,0.40382 2.42032,1.13013 3.15912,2.17891 0.73876,1.04882 1.0981,2.3282 1.07801,3.83817 -0.0308,2.31314 -0.86179,4.02652 -2.49281,5.14015 -1.63108,1.11363 -4.09574,1.64846 -7.39399,1.60452 l -10.60868,-0.14135 0.31954,-23.98283 9.59596,0.12786 c 3.44213,0.0459 5.9285,0.58242 7.45909,1.60962 1.53056,1.02725 2.28108,2.64923 2.25156,4.86597 -0.0156,1.1673 -0.31104,2.1568 -0.8864,2.96851 -0.57541,0.81173 -1.40254,1.40856 -2.4814,1.79047 z"
             style="font-style:normal;font-weight:bold;font-size:33.4479px;line-height:125%;font-family:'Bitstream Vera Sans';-inkscape-font-specification:'Bitstream Vera Sans Bold';letter-spacing:0px;word-spacing:0px;display:inline;fill:#ffa19b;fill-opacity:1;stroke:none"
             inkscape:connector-curvature="0"
             inkscape:label="Layer 1"
             id="path5216" />
        </g>
      </g>
      <g
         id="g1148"
         inkscape:label="A Button"
         style="display:inline">
        <g
           id="g1128">
          <path
             d="m 608.39285,565.48718 c 0,8.33359 -8.27474,15.08929 -18.48214,15.08929 -10.20741,0 -18.48215,-6.7557 -18.48215,-15.08929 0,-8.33358 8.27474,-15.08928 18.48215,-15.08928 10.2074,0 18.48214,6.7557 18.48214,15.08928 z"
             transform="matrix(1.3491842,-0.20807009,0.20089756,1.3026755,-325.94409,-57.283877)"
             style="display:inline;fill:#249500;fill-opacity:1;stroke:#000000;stroke-width:0.999;stroke-miterlimit:4;stroke-opacity:1"
             inkscape:connector-curvature="0"
             id="path4963" />
          <path
             d="m 608.39285,565.48718 c 0,8.33359 -8.27474,15.08929 -18.48214,15.08929 -10.20741,0 -18.48215,-6.7557 -18.48215,-15.08929 0,-8.33358 8.27474,-15.08928 18.48215,-15.08928 10.2074,0 18.48214,6.7557 18.48214,15.08928 z"
             transform="matrix(1.1905592,-0.20373648,0.20458784,1.1955342,-232.81271,4.8958764)"
             style="display:inline;fill:#35d900;fill-opacity:1;stroke:#000000;stroke-width:0.999;stroke-miterlimit:4;stroke-opacity:1"
             inkscape:connector-curvature="0"
             id="path4961" />
        </g>
        <g
           id="g1104">
          <path
             d="m 589.89301,566.86342 h -9.81317 l -1.54859,4.29005 h -6.30848 l 9.01443,-23.54792 h 7.48214 l 9.01443,23.54792 h -6.30846 z m -8.24828,-4.3689 h 6.66709 l -3.3254,-9.3687 z"
             style="font-style:normal;font-weight:bold;font-size:32.8385px;line-height:125%;font-family:'Bitstream Vera Sans';-inkscape-font-specification:'Bitstream Vera Sans Bold';letter-spacing:0px;word-spacing:0px;display:inline;fill:#249500;fill-opacity:1;stroke:none"
             inkscape:connector-curvature="0"
             id="path5129" />
          <path
             d="m 590.7444,568.29385 h -9.81317 l -1.5486,4.29005 h -6.30847 l 9.01443,-23.54792 h 7.48214 l 9.01443,23.54792 h -6.30847 z m -8.24829,-4.3689 h 6.66709 l -3.32539,-9.3687 z"
             style="font-style:normal;font-weight:bold;font-size:32.8385px;line-height:125%;font-family:'Bitstream Vera Sans';-inkscape-font-specification:'Bitstream Vera Sans Bold';letter-spacing:0px;word-spacing:0px;display:inline;fill:#adff92;fill-opacity:1;stroke:none"
             inkscape:connector-curvature="0"
             id="path5212" />
        </g>
      </g>
    </g>
    <g
       id="g233"
       inkscape:label="D-PAD"
       transform="matrix(0.61073515,0,0,0.61073515,-226.09929,-95.670836)"
       style="display:inline">
      <path
         d="m 323.92856,622.00507 c 0,19.82307 -20.42701,35.89285 -45.625,35.89285 -25.19799,0 -45.625,-16.06978 -45.625,-35.89285 0,-19.82308 20.42701,-35.89286 45.625,-35.89286 25.19799,0 45.625,16.06978 45.625,35.89286 z"
         transform="matrix(1.2274823,0,0,1.2883399,-63.064672,-182.16359)"
         style="display:inline;fill:#999999;fill-opacity:1;stroke:#000000;stroke-width:0.999;stroke-miterlimit:4;stroke-opacity:1"
         inkscape:connector-curvature="0"
         id="path4973" />
      <path
         d="m 323.92856,622.00507 c 0,19.82307 -20.42701,35.89285 -45.625,35.89285 -25.19799,0 -45.625,-16.06978 -45.625,-35.89285 0,-19.82308 20.42701,-35.89286 45.625,-35.89286 25.19799,0 45.625,16.06978 45.625,35.89286 z"
         transform="matrix(1.1728021,0,0,1.162354,-48.013302,-99.982716)"
         style="display:inline;fill:#848484;fill-opacity:1;stroke:#000000;stroke-width:0.999;stroke-miterlimit:4;stroke-opacity:1"
         inkscape:connector-curvature="0"
         id="path4975" />
      <path
         d="m 278.39977,580.99975 10.66974,0.50507 c 0,0 3.21985,1.2627 3.78807,4.41942 0.41789,2.3216 2.90419,14.14214 3.6618,14.77349 0.75762,0.63134 4.16688,6.56599 7.19734,6.94479 3.03046,0.37881 23.35978,3.283 24.62247,4.41942 1.26269,1.13642 3.15672,6.06092 3.15672,6.06092 l 0.25254,12.2481 c 0,0 -0.75761,3.78807 -1.89403,4.41941 -1.13642,0.63135 -22.09709,2.65165 -22.09709,2.65165 0,0 -6.31345,1.51523 -7.44988,5.17704 -1.13642,3.6618 -3.40926,18.81409 -4.41941,19.82424 -1.01016,1.01015 -2.39911,3.15673 -5.3033,3.53553 -2.90419,0.37881 -17.1726,0.63135 -17.1726,0.63135 0,0 -5.3033,-1.13642 -6.56599,-2.90419 -1.26269,-1.76777 -4.41942,-17.42513 -4.41942,-17.42513 0,0 -2.0203,-5.55584 -8.33375,-7.19734 -6.31346,-1.6415 -18.18275,-0.25254 -21.71828,-1.89403 -3.53554,-1.6415 -5.93465,-4.67196 -6.18719,-7.32361 -0.25254,-2.65165 -1.38896,-11.86929 -0.88388,-12.62691 0.50507,-0.75761 2.90419,-5.3033 4.29315,-5.42957 1.38896,-0.12627 20.45559,-2.27284 22.60216,-3.91434 2.14657,-1.6415 6.94481,-5.42957 7.19734,-7.95495 0.25253,-2.52538 1.35892,-16.72262 2.33597,-16.73066 0.80286,-0.72867 1.47665,-0.94007 2.0996,-1.26982 1.04765,-0.55455 3.79211,-0.70026 7.30745,-0.75048 4.41941,-0.0631 7.26047,-0.1894 7.26047,-0.1894 z"
         style="display:inline;fill:#999999;fill-opacity:1;stroke:#000000;stroke-width:1px;stroke-linecap:butt;stroke-linejoin:miter;stroke-opacity:1"
         inkscape:connector-curvature="0"
         id="path4981" />
      <path
         d="m 278.40212,584.26397 10.26896,0.4861 c 0,0 3.09891,1.21527 3.64579,4.25342 0.40219,2.23439 2.7951,13.61094 3.52425,14.21857 0.72917,0.60763 4.01037,6.31936 6.927,6.68393 2.91663,0.36458 22.48235,3.15969 23.69761,4.25342 1.21526,1.09374 3.03815,5.83326 3.03815,5.83326 l 0.24305,11.78804 c 0,0 -0.72915,3.64579 -1.82289,4.25341 -1.09373,0.60764 -21.26708,2.55205 -21.26708,2.55205 0,0 -6.07631,1.45832 -7.17005,4.98259 -1.09374,3.52425 -3.28121,18.1074 -4.25341,19.0796 -0.97222,0.97221 -2.309,3.03816 -5.1041,3.40273 -2.79511,0.36459 -16.52757,0.60764 -16.52757,0.60764 0,0 -5.1041,-1.09373 -6.31936,-2.7951 -1.21526,-1.70137 -4.25342,-16.77062 -4.25342,-16.77062 0,0 -1.94442,-5.34715 -8.02072,-6.92699 -6.07632,-1.57985 -17.49978,-0.24306 -20.90251,-1.82289 -3.40274,-1.57984 -5.71173,-4.49647 -5.95479,-7.04852 -0.24305,-2.55205 -1.33678,-11.42346 -0.85068,-12.15263 0.4861,-0.72915 2.79511,-5.1041 4.1319,-5.22562 1.33678,-0.12153 19.68724,-2.18747 21.75318,-3.76731 2.06594,-1.57985 6.68395,-5.22563 6.927,-7.65615 0.24304,-2.43052 1.30787,-16.09449 2.24822,-16.10223 0.77271,-0.7013 1.42119,-0.90476 2.02074,-1.22212 1.0083,-0.53372 3.64967,-0.67396 7.03297,-0.7223 4.25341,-0.0607 6.98776,-0.18228 6.98776,-0.18228 z"
         style="display:inline;fill:#868686;fill-opacity:1;stroke:#000000;stroke-width:0.962438px;stroke-linecap:butt;stroke-linejoin:miter;stroke-opacity:1"
         inkscape:connector-curvature="0"
         id="path5218" />
    </g>
  </g>
</svg>
