<?xml version="1.0" encoding="UTF-8" standalone="no"?>
<!-- Created with Inkscape (http://www.inkscape.org/) -->

<svg
   width="122.07747mm"
   height="404.23846mm"
   viewBox="0 0 122.07747 404.23847"
   version="1.1"
   id="svg5"
   inkscape:version="1.1 (c68e22c387, 2021-05-23)"
   sodipodi:docname="DS4 Wireless Adapter.svg"
   xmlns:inkscape="http://www.inkscape.org/namespaces/inkscape"
   xmlns:sodipodi="http://sodipodi.sourceforge.net/DTD/sodipodi-0.dtd"
   xmlns:xlink="http://www.w3.org/1999/xlink"
   xmlns="http://www.w3.org/2000/svg"
   xmlns:svg="http://www.w3.org/2000/svg">
  <sodipodi:namedview
     id="namedview7"
     pagecolor="#ffffff"
     bordercolor="#666666"
     borderopacity="1.0"
     inkscape:pageshadow="2"
     inkscape:pageopacity="0.0"
     inkscape:pagecheckerboard="0"
     inkscape:document-units="mm"
     showgrid="false"
     inkscape:zoom="0.25000002"
     inkscape:cx="-339.99997"
     inkscape:cy="1127.9999"
     inkscape:window-width="1920"
     inkscape:window-height="1005"
     inkscape:window-x="-9"
     inkscape:window-y="-9"
     inkscape:window-maximized="1"
     inkscape:current-layer="g896" />
  <defs
     id="defs2">
    <linearGradient
       inkscape:collect="always"
       id="linearGradient10682">
      <stop
         style="stop-color:#072ee2;stop-opacity:1;"
         offset="0"
         id="stop10678" />
      <stop
         style="stop-color:#072ee2;stop-opacity:0;"
         offset="1"
         id="stop10680" />
    </linearGradient>
    <marker
       style="overflow:visible"
       id="Arrow1Lstart"
       refX="0"
       refY="0"
       orient="auto"
       inkscape:stockid="Arrow1Lstart"
       inkscape:isstock="true">
      <path
         transform="matrix(0.8,0,0,0.8,10,0)"
         style="fill:context-stroke;fill-rule:evenodd;stroke:context-stroke;stroke-width:1pt"
         d="M 0,0 5,-5 -12.5,0 5,5 Z"
         id="path6772" />
    </marker>
    <radialGradient
       inkscape:collect="always"
       xlink:href="#linearGradient10682"
       id="radialGradient10684"
       cx="296.86261"
       cy="168.65265"
       fx="296.86261"
       fy="168.65265"
       r="42.743774"
       gradientTransform="matrix(2.1910486,0,0,0.59749315,-556.40612,-253.05589)"
       gradientUnits="userSpaceOnUse" />
  </defs>
  <g
     id="g891"
     inkscape:label="DS4 Wireless Adapter"
     transform="translate(8.7193241e-7,1.8857422e-4)"
     inkscape:export-filename="C:\Users\AL200\Desktop\CONNECTION_DONGLE_DS4.png"
     inkscape:export-xdpi="10.40323"
     inkscape:export-ydpi="10.40323">
    <path
       id="rect852"
       style="display:inline;fill:#000000;fill-opacity:1;fill-rule:evenodd;stroke:#000000;stroke-width:4.824;stroke-linecap:round;stroke-linejoin:round;stroke-miterlimit:4;stroke-dasharray:none;stroke-opacity:1;paint-order:fill markers stroke"
       d="m 35.071882,161.33802 1.474011,-329.57787 H 151.15604 l 1.16931,329.57787 z"
       sodipodi:nodetypes="ccccc"
       transform="translate(-32.659884,170.65185)"
       inkscape:label="Body"
       inkscape:export-filename="C:\Users\AL200\Desktop\CONNECTION_DONGLE_DS4.png"
       inkscape:export-xdpi="10.40323"
       inkscape:export-ydpi="10.40323" />
    <rect
       style="display:inline;opacity:1;fill:url(#radialGradient10684);fill-opacity:1;stroke:none;stroke-width:3.91708;stroke-linecap:round;stroke-linejoin:round;stroke-miterlimit:4;stroke-dasharray:none;stroke-opacity:0"
       id="rect3340"
       width="119.55779"
       height="48.634254"
       x="34.045368"
       y="-170.65204"
       inkscape:label="Lightbar"
       ry="2.5549865"
       rx="2.4811869"
       transform="translate(-32.659884,170.65185)"
       inkscape:export-filename="C:\Users\AL200\Desktop\CONNECTION_DONGLE_DS4.png"
       inkscape:export-xdpi="10.40323"
       inkscape:export-ydpi="10.40323" />
    <g
       id="g896"
       transform="translate(0,1.7202784)"
       style="display:inline"
       inkscape:label="USB Plug"
       inkscape:export-filename="C:\Users\AL200\Desktop\CONNECTION_DONGLE_DS4.png"
       inkscape:export-xdpi="10.40323"
       inkscape:export-ydpi="10.40323">
      <rect
         style="fill:#ffffff;fill-opacity:1;fill-rule:evenodd;stroke:#000000;stroke-width:6;stroke-linecap:round;stroke-linejoin:miter;stroke-miterlimit:4;stroke-dasharray:none;stroke-opacity:1;paint-order:fill markers stroke"
         id="rect1506"
         width="91.058266"
         height="68.839653"
         x="48.005123"
         y="-228.86615"
         transform="matrix(1,0,0,-1,-32.659884,170.65185)" />
      <rect
         style="fill:#000000;fill-opacity:1;fill-rule:evenodd;stroke:none;stroke-width:14.3191;stroke-linecap:round;stroke-linejoin:round;stroke-miterlimit:4;stroke-dasharray:none;stroke-opacity:1;paint-order:stroke fill markers"
         id="rect2708"
         width="17.694019"
         height="20.342834"
         x="63.075027"
         y="-214.25908"
         transform="matrix(1,0,0,-1,-32.659884,170.65185)" />
      <rect
         style="fill:#000000;fill-opacity:1;fill-rule:evenodd;stroke:none;stroke-width:14.3191;stroke-linecap:round;stroke-linejoin:round;stroke-miterlimit:4;stroke-dasharray:none;stroke-opacity:1;paint-order:stroke fill markers"
         id="rect2708-0"
         width="17.694019"
         height="20.342834"
         x="105.36372"
         y="-214.25908"
         transform="matrix(1,0,0,-1,-32.659884,170.65185)" />
    </g>
    <g
       inkscape:label="PlayStation Logo"
       id="layer1-7"
       transform="matrix(1.1924096,0,0,1.1924096,195.47125,48.03035)"
       style="fill:#ffffff;fill-opacity:1"
       inkscape:export-filename="C:\Users\AL200\Desktop\CONNECTION_DONGLE_DS4.png"
       inkscape:export-xdpi="10.40323"
       inkscape:export-ydpi="10.40323">
      <path
         style="fill:#ffffff;fill-opacity:1;fill-rule:nonzero;stroke:none;stroke-width:0.71957"
         d="m -119.94102,166.83818 v 41.06044 l 9.29821,2.94291 v -34.42689 c 0,-1.62185 0.72236,-2.69839 1.88323,-2.32737 1.51503,0.41882 1.81018,1.91418 1.81018,3.51916 v 13.7477 c 5.78747,2.8024 10.343804,0 10.343804,-7.38963 0,-7.54986 -2.673099,-10.9144 -10.532134,-13.62122 -3.10034,-1.03157 -8.84565,-2.77429 -12.80329,-3.5051"
         id="path1038" />
      <path
         style="fill:#ffffff;fill-opacity:1;fill-rule:nonzero;stroke:none;stroke-width:0.71957"
         d="m -108.87482,204.84044 14.931064,-5.31526 c 1.6893,-0.62401 1.945081,-1.47567 0.579016,-1.9226 -1.388521,-0.45535 -3.864869,-0.32605 -5.573831,0.2867 l -9.936249,3.50509 v -5.59352 l 0.5678,-0.18826 c 0,0 2.87546,-1.01752 6.92302,-1.456 4.039147,-0.44413 8.989007,0.059 12.881983,1.52626 4.384881,1.39136 4.876773,3.42358 3.766498,4.83741 -1.124327,1.39981 -3.853635,2.41169 -3.853635,2.41169 l -20.285666,7.28563 z m 0,0"
         id="path1040" />
      <path
         style="fill:#ffffff;fill-opacity:1;fill-rule:nonzero;stroke:none;stroke-width:0.71957"
         d="m -136.97455,204.27546 c -4.49451,-1.25362 -5.24219,-3.89861 -3.19311,-5.42769 1.89168,-1.39696 5.11288,-2.44822 5.11288,-2.44822 l 13.31766,-4.74748 v 5.40521 l -9.57365,3.43202 c -1.69774,0.60712 -1.95071,1.45881 -0.58464,1.90574 1.38854,0.46658 3.85644,0.3401 5.55416,-0.28671 l 4.60413,-1.6584 v 4.82338 c -0.29796,0.0506 -0.62683,0.10117 -0.92758,0.15176 -4.59006,0.76173 -9.48089,0.44974 -14.30985,-1.14963"
         id="path1042" />
    </g>
  </g>
</svg>
