<?xml version="1.0" encoding="UTF-8" standalone="no"?>
<!-- Created with Inkscape (http://www.inkscape.org/) -->

<svg
   width="593.72217mm"
   height="247.21907mm"
   viewBox="0 0 593.72218 247.21909"
   version="1.1"
   id="svg251"
   xml:space="preserve"
   inkscape:version="1.2 (dc2aedaf03, 2022-05-15)"
   sodipodi:docname="Steam Deck Alternative Overlay.svg"
   inkscape:export-filename="..\..\..\..\..\..\..\Videos\Recording Tools\VSCView-0.5.0.0\themes\steamdeck\default\black\SD_base_compact.png"
   inkscape:export-xdpi="95.886299"
   inkscape:export-ydpi="95.886299"
   xmlns:inkscape="http://www.inkscape.org/namespaces/inkscape"
   xmlns:sodipodi="http://sodipodi.sourceforge.net/DTD/sodipodi-0.dtd"
   xmlns="http://www.w3.org/2000/svg"
   xmlns:svg="http://www.w3.org/2000/svg"><sodipodi:namedview
     id="namedview253"
     pagecolor="#ffffff"
     bordercolor="#666666"
     borderopacity="1.0"
     inkscape:showpageshadow="2"
     inkscape:pageopacity="0.0"
     inkscape:pagecheckerboard="0"
     inkscape:deskcolor="#d1d1d1"
     inkscape:document-units="mm"
     showgrid="false"
     inkscape:zoom="0.64693624"
     inkscape:cx="1211.8659"
     inkscape:cy="561.1063"
     inkscape:window-width="2560"
     inkscape:window-height="1334"
     inkscape:window-x="-11"
     inkscape:window-y="-11"
     inkscape:window-maximized="1"
     inkscape:current-layer="layer1" /><defs
     id="defs248"><rect
       x="116.58379"
       y="-200.1355"
       width="56.348831"
       height="53.434235"
       id="rect8787" /><rect
       x="116.58379"
       y="-200.1355"
       width="56.348831"
       height="53.434235"
       id="rect8787-4" /><rect
       x="116.58379"
       y="-200.1355"
       width="56.348831"
       height="53.434235"
       id="rect8787-9" /><rect
       x="116.58379"
       y="-200.1355"
       width="56.348831"
       height="53.434235"
       id="rect8787-4-6" /><rect
       x="116.58379"
       y="-200.1355"
       width="71.372002"
       height="53.434235"
       id="rect8787-4-6-8" /><rect
       x="116.58379"
       y="-200.1355"
       width="56.348831"
       height="53.434235"
       id="rect8787-4-6-8-9" /><rect
       x="116.58379"
       y="-200.1355"
       width="51.173248"
       height="51.734726"
       id="rect8787-4-5" /><rect
       x="116.58379"
       y="-200.1355"
       width="74.936821"
       height="53.701286"
       id="rect8787-4-5-3" /><inkscape:path-effect
       effect="bspline"
       id="path-effect10381"
       is_visible="true"
       lpeversion="1"
       weight="33.333333"
       steps="2"
       helper_size="0"
       apply_no_weight="true"
       apply_with_weight="true"
       only_selected="false" /><inkscape:path-effect
       effect="bspline"
       id="path-effect5614"
       is_visible="true"
       lpeversion="1"
       weight="33.333333"
       steps="2"
       helper_size="0"
       apply_no_weight="true"
       apply_with_weight="true"
       only_selected="false" /><inkscape:path-effect
       effect="bspline"
       id="path-effect5610"
       is_visible="true"
       lpeversion="1"
       weight="33.333333"
       steps="2"
       helper_size="0"
       apply_no_weight="true"
       apply_with_weight="true"
       only_selected="false" /><inkscape:path-effect
       effect="bspline"
       id="path-effect1221"
       is_visible="true"
       lpeversion="1"
       weight="33.333333"
       steps="2"
       helper_size="0"
       apply_no_weight="true"
       apply_with_weight="true"
       only_selected="false" /><inkscape:path-effect
       effect="bspline"
       id="path-effect1209"
       is_visible="true"
       lpeversion="1"
       weight="33.333333"
       steps="2"
       helper_size="0"
       apply_no_weight="true"
       apply_with_weight="true"
       only_selected="false" /><inkscape:path-effect
       effect="bspline"
       id="path-effect1197"
       is_visible="true"
       lpeversion="1"
       weight="33.333333"
       steps="2"
       helper_size="0"
       apply_no_weight="true"
       apply_with_weight="true"
       only_selected="false" /><inkscape:path-effect
       effect="bspline"
       id="path-effect1193"
       is_visible="true"
       lpeversion="1"
       weight="33.333333"
       steps="2"
       helper_size="0"
       apply_no_weight="true"
       apply_with_weight="true"
       only_selected="false" /><inkscape:path-effect
       effect="bspline"
       id="path-effect1185"
       is_visible="true"
       lpeversion="1"
       weight="33.333333"
       steps="2"
       helper_size="0"
       apply_no_weight="true"
       apply_with_weight="true"
       only_selected="false" /><inkscape:path-effect
       effect="bspline"
       id="path-effect339"
       is_visible="true"
       lpeversion="1"
       weight="33.333333"
       steps="2"
       helper_size="0"
       apply_no_weight="true"
       apply_with_weight="true"
       only_selected="false" /><inkscape:path-effect
       effect="bspline"
       id="path-effect10068"
       is_visible="true"
       lpeversion="1"
       weight="33.333333"
       steps="2"
       helper_size="0"
       apply_no_weight="true"
       apply_with_weight="true"
       only_selected="false" /><inkscape:path-effect
       effect="bspline"
       id="path-effect10062"
       is_visible="true"
       lpeversion="1"
       weight="33.333333"
       steps="2"
       helper_size="0"
       apply_no_weight="true"
       apply_with_weight="true"
       only_selected="false" /><inkscape:path-effect
       effect="bspline"
       id="path-effect8481"
       is_visible="true"
       lpeversion="1"
       weight="33.333333"
       steps="2"
       helper_size="0"
       apply_no_weight="true"
       apply_with_weight="true"
       only_selected="false" /><inkscape:path-effect
       effect="bspline"
       id="path-effect8477"
       is_visible="true"
       lpeversion="1"
       weight="33.333333"
       steps="2"
       helper_size="0"
       apply_no_weight="true"
       apply_with_weight="true"
       only_selected="false" /><inkscape:path-effect
       effect="bspline"
       id="path-effect7745"
       is_visible="true"
       lpeversion="1"
       weight="33.333333"
       steps="2"
       helper_size="0"
       apply_no_weight="true"
       apply_with_weight="true"
       only_selected="false" /><inkscape:path-effect
       effect="bspline"
       id="path-effect4006"
       is_visible="true"
       lpeversion="1"
       weight="33.333333"
       steps="2"
       helper_size="0"
       apply_no_weight="true"
       apply_with_weight="true"
       only_selected="false" /><inkscape:path-effect
       effect="bspline"
       id="path-effect5099"
       is_visible="true"
       lpeversion="1"
       weight="33.333333"
       steps="2"
       helper_size="0"
       apply_no_weight="true"
       apply_with_weight="true"
       only_selected="false" /></defs><g
     id="g23677"
     style="display:inline"
     transform="matrix(2.4770907,0,0,2.4770907,17.04943,21.62589)"
     inkscape:label="Steam Deck Handheld Overlay"><g
       id="g52409"
       style="display:none"
       inkscape:label="Triggers"><path
         id="path5612"
         style="display:inline;fill:#393a39;fill-opacity:0.996078;stroke:#131313;stroke-width:0.264583;stroke-linecap:round;stroke-linejoin:round;stroke-dasharray:none;stroke-opacity:0.996078"
         d="m 196.88152,10.168048 c -1.49716,0.01124 -3.16585,0.291386 -4.70514,0.563273 -2.05239,0.362514 -3.8738,0.710517 -5.50044,0.985469 -1.27705,0.215861 -2.46572,0.401812 -3.37562,0.647136 0.27182,-0.0035 8.90164,-0.04573 11.69915,-0.04666 l 5.1e-4,5.17e-4 c 2.79751,-9.3e-4 3.17489,-0.0026 3.56361,0.0155 0.38871,0.01815 0.78863,0.05659 1.23197,0.129191 0.44333,0.0726 0.93039,0.178758 1.45159,0.321428 0.5212,0.142669 1.07699,0.321601 1.61023,0.547253 0.45293,0.19167 0.88211,0.427057 1.34817,0.754978 -0.49052,-0.580337 -0.98137,-1.172204 -1.87061,-1.906329 -0.9089,-0.750362 -2.2252,-1.657734 -4.02457,-1.92288 -0.44984,-0.06629 -0.9298,-0.09263 -1.42885,-0.08888 z"
         sodipodi:nodetypes="csscccsssscsssc"
         inkscape:label="R2 Trigger" /><path
         id="path1329"
         style="display:inline;fill:#393a39;fill-opacity:0.996078;stroke:#131313;stroke-width:0.264583;stroke-linecap:round;stroke-linejoin:round;stroke-dasharray:none;stroke-opacity:0.996078"
         d="m 28.72387,10.113644 c 1.49716,0.01124 3.16585,0.291386 4.70514,0.563273 2.05239,0.362514 3.8738,0.710517 5.50044,0.985469 1.27705,0.215861 2.46572,0.401812 3.37562,0.647136 -0.27182,-0.0035 -8.90164,-0.04573 -11.69915,-0.04666 l -5.1e-4,5.17e-4 c -2.79751,-9.3e-4 -3.17489,-0.0026 -3.56361,0.0155 -0.38871,0.01815 -0.78863,0.05659 -1.23197,0.129191 -0.44333,0.0726 -0.93039,0.178758 -1.45159,0.321428 -0.5212,0.142669 -1.07699,0.321601 -1.61023,0.547253 -0.45293,0.19167 -0.88211,0.427057 -1.34817,0.754978 0.49052,-0.580337 0.98137,-1.172204 1.87061,-1.906329 0.9089,-0.750362 2.2252,-1.657734 4.02457,-1.92288 0.44984,-0.06629 0.9298,-0.09263 1.42885,-0.08888 z"
         sodipodi:nodetypes="csscccsssscsssc"
         inkscape:label="L2 Trigger" /></g><g
       id="g52405"
       inkscape:label="Shoulders"><path
         id="path1200"
         style="display:inline;fill:#393a39;fill-opacity:0.996078;stroke:#131313;stroke-width:0.260814px;stroke-linecap:round;stroke-linejoin:round;stroke-opacity:0.996078"
         d="m 194.99946,12.333661 c -2.79751,9.31e-4 -8.01533,0.0017 -10.74198,0.02325 -2.72665,0.02161 -2.96167,0.06468 -3.1595,0.15813 -0.19783,0.09345 -0.35781,0.237128 -0.45268,0.397392 -0.073,0.123268 -0.10728,0.255998 -0.13281,0.39119 0,0 10.3563,0.01317 12.58053,0.02067 2.22423,0.0075 2.91802,0.01516 3.39463,0.02222 0.61898,0.0092 0.99571,0.01733 1.27692,0.02842 0.28121,0.01109 0.46675,0.02513 0.7028,0.04599 0.23605,0.02086 0.52222,0.04843 0.84336,0.08578 0.32113,0.03734 0.70189,0.08797 1.0511,0.14366 0.38577,0.06152 1.1529,0.210323 1.1529,0.210323 l 1.11156,0.251664 c 0.34877,0.07896 0.6484,0.169355 0.96635,0.274402 0.30566,0.100987 0.59781,0.210086 0.9033,0.341582 0.18154,0.07815 0.36724,0.164237 0.55294,0.255281 0.1857,0.09104 -0.2199,-0.426445 -0.58531,-0.706418 -0.5629,-0.431286 -1.07288,-0.704008 -1.60611,-0.929659 -0.53324,-0.225652 -1.08903,-0.404583 -1.61023,-0.547253 -0.5212,-0.14267 -1.00827,-0.248829 -1.4516,-0.321428 -0.44334,-0.0726 -0.84325,-0.11104 -1.23196,-0.129191 -0.38872,-0.01815 -0.7661,-0.01643 -3.56361,-0.0155 z"
         sodipodi:nodetypes="ccsscsssssacsassssssscc"
         inkscape:label="R1 Button" /><path
         id="path1327"
         style="display:inline;fill:#393a39;fill-opacity:0.996078;stroke:#131313;stroke-width:0.260814px;stroke-linecap:round;stroke-linejoin:round;stroke-opacity:0.996078"
         d="m 30.60593,12.279257 c 2.79751,9.31e-4 8.01533,0.0017 10.74198,0.02325 2.72665,0.02161 2.96167,0.06468 3.1595,0.15813 0.19783,0.09345 0.35781,0.237128 0.45268,0.397392 0.073,0.123268 0.10728,0.255998 0.13281,0.39119 0,0 -10.3563,0.01317 -12.58053,0.02067 -2.22423,0.0075 -2.91802,0.01516 -3.39463,0.02222 -0.61898,0.0092 -0.9213,0.08761 -1.20251,0.0987 -0.28121,0.01109 -0.46675,0.02513 -0.7028,0.04599 -0.23605,0.02086 -0.52222,0.04843 -0.84336,0.08578 -0.32113,0.03734 -0.70188,0.08797 -1.0511,0.14366 -0.38576,0.06152 -1.1529,0.210323 -1.1529,0.210323 l -1.11156,0.251664 c -0.34877,0.07896 -0.6949,0.2462 -1.04076,0.373671 -0.30205,0.111323 -0.59781,0.210086 -0.9033,0.341582 -0.18154,0.07815 -0.36724,0.164237 -0.55294,0.255281 -0.1857,0.09104 0.2199,-0.595994 0.58531,-0.875967 0.5629,-0.431286 1.07288,-0.704008 1.60611,-0.929659 0.53324,-0.225652 1.08903,-0.404583 1.61023,-0.547253 0.5212,-0.14267 1.00827,-0.248829 1.4516,-0.321428 0.44334,-0.0726 0.84325,-0.11104 1.23196,-0.129191 0.38872,-0.01815 0.7661,-0.01643 3.56361,-0.0155 z"
         sodipodi:nodetypes="ccsscsssssacsassssssscc"
         inkscape:label="L1 Button" /></g><g
       id="g26731"
       inkscape:label="Handheld Device Body"
       style="display:inline"><path
         style="display:inline;fill:#373637;fill-opacity:0.996078;stroke:none;stroke-width:0.582083;stroke-linecap:butt;stroke-linejoin:miter;stroke-dasharray:none;stroke-opacity:1"
         d="m 13.852832,44.761083 c 0.03232,3.934161 0.09696,11.802215 0.165015,16.469724 0.06806,4.667509 0.139524,6.134404 0.220968,7.401799 0.08144,1.267394 0.172853,2.33521 0.250763,3.183878 0.07791,0.848669 0.142311,1.478139 0.231654,2.147108 0.08934,0.668968 0.203604,1.377385 0.327225,2.047389 0.123621,0.670004 0.256579,1.301554 0.352156,1.722255 0.09558,0.4207 0.153745,0.630522 0.274265,0.956698 0.120519,0.326176 0.303336,0.768675 0.474735,1.172753 0.1714,0.404079 0.331365,0.769712 0.511088,1.132237 0.179724,0.362526 0.37916,0.721926 0.651338,1.136385 0.272179,0.414459 0.617038,0.883965 0.889195,1.251684 0.272156,0.36772 0.471594,0.633636 0.80327,0.995449 0.331676,0.361813 0.795526,0.819536 1.258838,1.247447 0.463312,0.427912 0.926043,0.826008 1.414508,1.194713 0.488465,0.368706 1.002611,0.708043 1.554973,1.023127 0.552362,0.315084 1.142895,0.605944 1.81865,0.881363 0.675756,0.275419 1.436692,0.535431 2.210133,0.760911 0.773441,0.225479 1.559351,0.416447 2.178401,0.54164 0.619049,0.125193 1.071222,0.184642 1.737748,0.253834 0.666526,0.06919 1.547372,0.148136 2.68793,0.220844 1.140559,0.07271 2.540768,0.139186 4.173701,0.184886 1.632932,0.0457 3.498493,0.07063 27.329997,0.08309 23.831503,0.01246 69.627077,0.01246 93.342477,0.007 23.7154,-0.0055 25.34964,-0.01638 26.53991,-0.02331 1.19028,-0.0069 1.93652,-0.0099 2.69748,-0.02162 0.76095,-0.01175 1.53658,-0.03232 2.44444,-0.07639 0.90785,-0.04408 1.9479,-0.111649 2.69269,-0.168946 0.74479,-0.0573 1.1943,-0.104303 1.93509,-0.215356 0.74079,-0.111052 1.77283,-0.286129 2.60359,-0.460933 0.83076,-0.174804 1.46023,-0.349311 2.21635,-0.621686 0.75613,-0.272375 1.63891,-0.642598 2.23744,-0.942285 0.59854,-0.299687 0.91291,-0.528852 1.38458,-0.867272 0.47168,-0.338421 1.10063,-0.786084 1.72568,-1.327762 0.62505,-0.541679 1.24621,-1.177382 1.79674,-1.793352 0.55053,-0.61597 1.03043,-1.212206 1.47605,-1.892565 0.44561,-0.680359 0.85695,-1.444864 1.19579,-2.231963 0.33884,-0.787098 0.60516,-1.596803 0.82643,-2.401825 0.22126,-0.805023 0.39743,-1.605349 0.53539,-2.396084 0.13795,-0.790735 0.23767,-1.571861 0.33116,-2.380012 0.0935,-0.808152 0.18075,-1.643296 0.25347,-2.696594 0.0727,-1.053298 0.13089,-2.324704 0.18216,-4.133031 0.0513,-1.808327 0.0956,-4.153459 0.15893,-10.386913 0.0633,-6.233455 0.14557,-16.354778 0.1735,-21.613856 0.0279,-5.259078 0.001,-5.655701 -0.0396,-6.235972 -0.0411,-0.58027 -0.097,-1.344141 -0.18338,-2.100632 -0.0864,-0.756491 -0.2035,-1.505572 -0.32394,-2.101989 -0.12045,-0.596418 -0.24429,-1.040156 -0.41638,-1.541145 -0.17208,-0.500988 -0.39243,-1.059204 -0.65389,-1.58806 -0.26145,-0.528856 -0.56407,-1.028311 -0.8314,-1.416148 -0.26734,-0.387837 -0.49944,-0.664005 -0.82115,-1.01511 -0.32171,-0.351106 -0.73303,-0.777115 -1.16637,-1.173772 -0.43335,-0.396657 -0.88874,-0.763902 -1.44752,-1.124688 -0.55879,-0.360786 -1.22096,-0.715021 -1.83667,-0.983587 -0.61572,-0.268566 -1.18494,-0.451381 -1.88403,-0.629029 -0.6991,-0.177647 -1.52801,-0.350077 -2.28216,-0.471628 -0.75415,-0.121551 -1.43347,-0.192184 -1.90923,-0.234782 -0.47576,-0.0426 -0.7479,-0.05714 -1.99547,-0.07584 -1.24757,-0.0187 -3.47046,-0.04156 -31.16307,-0.05299 -27.69262,-0.01143 -80.852807,-0.01143 -107.687752,-0.0081 -26.834946,0.0033 -27.343568,0.0099 -27.991765,0.03902 -0.648197,0.02908 -1.435911,0.08062 -2.260878,0.166632 -0.824967,0.08601 -1.687114,0.206505 -2.422942,0.333508 -0.735829,0.127002 -1.345269,0.260517 -1.943831,0.43745 -0.598562,0.176932 -1.186158,0.39728 -1.756097,0.668121 -0.569939,0.270842 -1.122126,0.592153 -1.615747,0.931512 -0.493622,0.339359 -0.928595,0.69672 -1.347361,1.085492 -0.418767,0.388772 -0.82127,0.808903 -1.172384,1.232007 -0.351113,0.423105 -0.650786,0.849111 -0.954882,1.328031 -0.304095,0.47892 -0.612583,1.010695 -0.843223,1.489632 -0.23064,0.478937 -0.383414,0.904944 -0.483305,1.20758 -0.09989,0.302635 -0.146898,0.48185 -0.196846,0.668416 -0.04995,0.186565 -0.102831,0.380472 -0.164523,0.70221 -0.06169,0.321739 -0.132203,0.771249 -0.186554,1.154671 -0.05435,0.383423 -0.09254,0.700724 -0.12486,1.004819 -0.03232,0.304094 -0.05876,0.594953 -0.08814,1.066521 -0.02938,0.471568 -0.0617,1.123798 -0.07932,3.47721 -0.01762,2.353412 -0.02055,6.407818 -0.02202,8.43493 -0.0015,2.027112 -0.0015,2.027109 0.03082,5.96127 z"
         id="path8473"
         inkscape:label="Controller Body Color" /><g
         id="g10375"
         inkscape:label="Left Side Device Grip"><path
           id="rect8729"
           style="display:inline;opacity:1;fill:#252625;fill-opacity:0.996078;stroke-width:0.2;stroke-linecap:round;stroke-linejoin:round;stroke-miterlimit:2"
           d="m 13.897843,40.896862 h 9.194271 l 1.358482,0.554439 c 0.598043,0.550184 1.036779,1.12848 1.370034,1.725392 l 0.08268,14.587357 0.09852,1.898808 0.134288,1.269696 0.788387,2.249268 0.790293,1.52453 c 0.468397,0.610909 1.750726,3.00976 3.513485,5.230136 2.741084,3.452676 6.111564,8.18665 8.295889,11.820243 0.798844,1.328866 3.595782,4.76967 4.90817,6.934162 0.642306,1.059342 0.422162,1.821861 0.420571,1.864223 -0.0079,0.209341 -11.533576,0.251865 -16.041578,-0.797979 C 27.51183,89.454531 26.247136,88.820838 24.730275,88.41432 20.493283,86.879245 18.65589,83.767291 16.515684,80.854329 L 15.546874,77.999777 14.69884,73.997462 13.897841,68.0828 Z"
           sodipodi:nodetypes="cccccccccssssscccccc"
           inkscape:label="Body Color" /><path
           style="display:inline;fill:none;stroke:#050404;stroke-width:0.264583px;stroke-linecap:round;stroke-linejoin:round;stroke-opacity:0.996078"
           d="m 13.841015,40.845052 c 2.913014,0 5.825764,0 7.36497,0.0027 1.539207,0.0027 1.704854,0.0081 1.840316,0.0216 0.135462,0.01346 0.240698,0.03489 0.388818,0.07877 0.148121,0.04387 0.339102,0.110132 0.485262,0.173507 0.146161,0.06338 0.247499,0.123789 0.375143,0.209554 0.127645,0.08576 0.281601,0.196847 0.419804,0.311648 0.138203,0.114801 0.260675,0.233269 0.3715,0.358672 0.110826,0.125402 0.210041,0.257688 0.30166,0.397915 0.09162,0.140227 0.175676,0.28836 0.245601,0.419623 0.06993,0.131263 0.125734,0.245635 0.162219,0.333484 0.03649,0.08785 0.05371,0.14917 0.07885,0.264578 0.02514,0.115407 0.05821,0.284901 0.07472,2.759135 0.01651,2.474234 0.01651,7.25305 0.01651,9.786577 0,2.533527 0,2.821656 0.01528,3.105227 0.01528,0.283571 0.0458,0.562544 0.08543,0.837487 0.03963,0.274943 0.08835,0.545826 0.148779,0.834261 0.06042,0.288434 0.132529,0.594396 0.212771,0.882934 0.08024,0.288539 0.168582,0.559627 0.330337,1.042939 0.161756,0.483313 0.396915,1.178829 3.234214,5.347371 2.837299,4.168541 8.276405,11.809793 11.116352,15.803945 2.839948,3.994152 3.080625,4.341039 3.226768,4.563215 0.146142,0.222175 0.197784,0.319614 0.250873,0.435088 0.05309,0.115474 0.107654,0.248965 0.147572,0.37807 0.03992,0.129105 0.06525,0.253827 0.08522,0.387802 0.01996,0.133975 0.03458,0.277214 0.04578,0.38294 0.01121,0.105726 0.019,0.173932 0.02289,0.299134 0.0039,0.125203 0.0039,0.307416 0.0039,0.489368"
           id="path10060"
           inkscape:path-effect="#path-effect10062"
           inkscape:original-d="m 13.841015,40.845052 c 2.913014,2.64e-4 5.825764,2.64e-4 8.738249,0 0.165919,0.0057 0.331567,0.01111 0.496954,0.01627 0.105504,0.0217 0.210739,0.04314 0.315712,0.06431 0.191255,0.06653 0.382237,0.132786 0.572959,0.198781 0.101606,0.06068 0.202944,0.121092 0.304019,0.181242 0.154226,0.11135 0.308181,0.222433 0.461875,0.333251 0.122743,0.11874 0.245216,0.237207 0.367426,0.355415 0.09949,0.132559 0.198702,0.264848 0.297657,0.396875 0.08433,0.148407 0.168385,0.296542 0.252181,0.444418 0.05608,0.114644 0.111885,0.229018 0.167431,0.34313 0.01749,0.06159 0.03472,0.12291 0.05168,0.183967 0.03334,0.169768 0.06641,0.339262 0.09922,0.508498 2.65e-4,4.779272 2.65e-4,9.558088 0,14.336739 2.65e-4,0.288403 2.65e-4,0.576532 0,0.864399 0.03079,0.279249 0.06131,0.558223 0.09157,0.836938 0.04899,0.271158 0.09771,0.542041 0.146163,0.812665 0.07237,0.306239 0.144479,0.6122 0.216322,0.917905 0.08861,0.271364 0.17695,0.542452 0.265028,0.813281 0.23543,0.695796 0.470589,1.391312 0.705493,2.086592 5.439586,7.64182 10.878692,15.283072 16.31764,22.924209 0.240951,0.347165 0.481629,0.694052 0.722046,1.04068 0.05191,0.09771 0.103552,0.195149 0.154932,0.292328 0.05484,0.133763 0.1094,0.267256 0.163703,0.400487 0.02561,0.124991 0.05093,0.249716 0.07601,0.374176 0.01487,0.143507 0.0295,0.286745 0.04385,0.42972 0.0081,0.06847 0.01585,0.136681 0.02339,0.204626 2.65e-4,0.182486 2.65e-4,0.364699 0,0.546651"
           sodipodi:nodetypes="cccccccccccccccccccccccccccc"
           inkscape:label="Outline" /></g><g
         id="g10371"
         inkscape:label="Right Side Device Grip"><path
           id="path8815"
           style="display:inline;opacity:1;fill:#252625;fill-opacity:0.996078;stroke-width:0.2;stroke-linecap:round;stroke-linejoin:round;stroke-miterlimit:2"
           d="m 211.85018,40.934535 -9.10332,0.04134 -0.80455,0.139647 -0.75236,0.464401 c -0.59805,0.550184 -1.03678,1.12848 -1.37004,1.725392 l -0.215,14.587357 0.0338,1.898808 -0.24177,1.269696 -0.6809,2.249268 -0.86471,1.52453 c -0.4684,0.610909 -1.99051,3.001492 -3.52176,5.221868 -2.50277,3.629132 -6.02887,8.194918 -8.2132,11.828511 -0.79884,1.328866 -3.59578,4.76967 -4.90817,6.934162 -0.6423,1.059342 -0.42216,1.821861 -0.42057,1.864223 0.008,0.209341 11.53358,0.251865 16.04158,-0.797979 1.2995,-0.302606 2.5642,-0.936299 4.08106,-1.342817 4.23699,-1.535075 6.07438,-4.647029 8.21459,-7.559991 l 0.96881,-2.854552 0.84803,-4.002315 0.801,-5.914662 z"
           sodipodi:nodetypes="ccccccccccssssscccccc"
           inkscape:label="Body Color" /><path
           style="display:inline;fill:none;stroke:#050404;stroke-width:0.264583px;stroke-linecap:round;stroke-linejoin:round;stroke-opacity:0.996078"
           d="m 211.91041,40.845052 c -2.91301,0 -5.82576,0 -7.36497,0.0027 -1.53921,0.0027 -1.70485,0.0081 -1.84031,0.0216 -0.13547,0.01346 -0.2407,0.03489 -0.38882,0.07877 -0.14812,0.04387 -0.3391,0.110132 -0.48526,0.173508 -0.14617,0.06338 -0.24751,0.123789 -0.37515,0.209553 -0.12764,0.08577 -0.2816,0.196844 -0.4198,0.311646 -0.13821,0.114802 -0.26067,0.233269 -0.3715,0.358674 -0.11083,0.125405 -0.21004,0.257686 -0.30166,0.397907 -0.0916,0.140221 -0.17568,0.288365 -0.2456,0.419633 -0.0699,0.131268 -0.12574,0.245635 -0.16222,0.333483 -0.0365,0.08785 -0.0537,0.149159 -0.0789,0.264568 -0.0251,0.115409 -0.0582,0.284909 -0.0747,2.759143 -0.0165,2.474234 -0.0165,7.25305 -0.0165,9.786577 0,2.533527 0,2.821656 -0.0153,3.105227 -0.0153,0.283571 -0.0458,0.562541 -0.0855,0.837487 -0.0396,0.274945 -0.0884,0.545825 -0.14878,0.834263 -0.0604,0.288439 -0.13253,0.594393 -0.21277,0.882931 -0.0802,0.288538 -0.16858,0.559629 -0.33034,1.042941 -0.16175,0.483312 -0.39692,1.178827 -3.23421,5.347368 -2.8373,4.16854 -8.27641,11.809794 -11.11636,15.803947 -2.83994,3.994152 -3.08062,4.341041 -3.22676,4.563213 -0.14614,0.222172 -0.19779,0.319618 -0.25088,0.435084 -0.0531,0.115466 -0.10765,0.248972 -0.14757,0.378075 -0.0399,0.129104 -0.0652,0.253823 -0.0852,0.387803 -0.02,0.13398 -0.0345,0.277218 -0.0457,0.382936 -0.0112,0.105718 -0.019,0.17394 -0.0229,0.299141 -0.004,0.1252 -0.004,0.307413 -0.004,0.489365"
           id="path10064"
           inkscape:path-effect="#path-effect10068"
           inkscape:original-d="m 211.91041,40.845052 c -2.91301,2.64e-4 -5.82576,2.64e-4 -8.73825,0 -0.16592,0.0057 -0.33156,0.01111 -0.49695,0.01627 -0.10551,0.0217 -0.21074,0.04314 -0.31571,0.06431 -0.19126,0.06653 -0.38224,0.132786 -0.57296,0.198781 -0.10161,0.06068 -0.20295,0.121092 -0.30402,0.181242 -0.15423,0.11135 -0.30818,0.222433 -0.46188,0.333251 -0.12274,0.11874 -0.24521,0.237207 -0.36742,0.355415 -0.0995,0.132559 -0.1987,0.264848 -0.29766,0.396875 -0.0843,0.148407 -0.16838,0.296542 -0.25218,0.444418 -0.0561,0.114644 -0.11189,0.229018 -0.16743,0.34313 -0.0175,0.06159 -0.0347,0.12291 -0.0517,0.183967 -0.0333,0.169768 -0.0664,0.339262 -0.0992,0.508498 -2.7e-4,4.779272 -2.7e-4,9.558088 0,14.336739 -2.7e-4,0.288403 -2.7e-4,0.576532 0,0.864399 -0.0308,0.279249 -0.0613,0.558223 -0.0916,0.836938 -0.049,0.271158 -0.0977,0.542041 -0.14616,0.812665 -0.0724,0.306239 -0.14448,0.6122 -0.21633,0.917905 -0.0886,0.271364 -0.17695,0.542452 -0.26502,0.813281 -0.23543,0.695796 -0.47059,1.391312 -0.7055,2.086592 -5.43958,7.64182 -10.87869,15.283072 -16.31764,22.924209 -0.24095,0.347165 -0.48163,0.694052 -0.72204,1.04068 -0.0519,0.09771 -0.10356,0.195149 -0.15494,0.292328 -0.0548,0.133763 -0.1094,0.267256 -0.1637,0.400487 -0.0256,0.124991 -0.0509,0.249716 -0.076,0.374176 -0.0149,0.143507 -0.0295,0.286745 -0.0438,0.42972 -0.008,0.06847 -0.0159,0.136681 -0.0234,0.204626 -2.6e-4,0.182486 -2.6e-4,0.364699 0,0.546651"
           sodipodi:nodetypes="cccccccccccccccccccccccccccc"
           inkscape:label="Outline" /></g><path
         style="display:inline;fill:none;stroke:#777776;stroke-width:0.15875;stroke-linecap:round;stroke-linejoin:round;stroke-dasharray:none;stroke-opacity:0.996078"
         d="m 13.789523,28.275483 c 0.08199,-0.360814 0.164016,-0.721812 0.269431,-1.086198 0.105414,-0.364387 0.234217,-0.732098 0.405611,-1.197468 0.171395,-0.465369 0.385373,-1.028361 0.584816,-1.511399 0.199443,-0.483038 0.384337,-0.886065 0.581704,-1.278731 0.197366,-0.392666 0.40719,-0.774919 0.606643,-1.088653 0.199453,-0.313733 0.388503,-0.558874 0.611837,-0.844535 0.223334,-0.285661 0.48094,-0.611823 0.708443,-0.872571 0.227504,-0.260748 0.424863,-0.456029 0.636766,-0.673126 0.211903,-0.217096 0.438346,-0.456005 0.745848,-0.713639 0.307502,-0.257635 0.695987,-0.533937 1.046056,-0.774933 0.35007,-0.240996 0.661689,-0.446665 0.977486,-0.63884 0.315797,-0.192175 0.635727,-0.370837 0.958798,-0.532887 0.323072,-0.162049 0.649233,-0.307471 1.035661,-0.467441 0.386427,-0.159969 0.833082,-0.334476 1.169665,-0.450814 0.336583,-0.116339 0.563024,-0.174507 0.848684,-0.24722 0.28566,-0.07271 0.63052,-0.159967 1.129155,-0.223316 0.498636,-0.06335 1.150958,-0.10282 1.630872,-0.125652 0.479915,-0.02283 0.78738,-0.02903 29.122633,-0.03213 28.335253,-0.0031 84.697148,-0.0031 113.048168,-0.0016 28.35101,0.0015 28.68887,0.0044 29.06055,0.03821 0.37168,0.03381 0.77713,0.09844 1.30158,0.218923 0.52445,0.12048 1.16787,0.296759 1.75842,0.50098 0.59055,0.204221 1.1282,0.436322 1.65852,0.700767 0.53032,0.264446 1.05328,0.561181 1.52923,0.869699 0.47596,0.308517 0.90491,0.628759 1.30888,0.956364 0.40398,0.327605 0.78298,0.662534 1.15609,1.043031 0.37312,0.380496 0.74037,0.806503 1.03564,1.157604 0.29527,0.351102 0.51856,0.627274 0.78442,1.056243 0.26586,0.42897 0.57435,1.010686 0.81819,1.51016 0.24385,0.499473 0.42306,0.916666 0.55085,1.260425 0.12778,0.343758 0.20416,0.614046 0.31804,0.987024 0.11387,0.372979 0.26522,0.848626 0.41594,1.388513 0.15071,0.539887 0.3008,1.143979 0.38414,1.564437 0.0833,0.420457 0.1,0.657286 0.11658,0.893842"
         id="path8479"
         inkscape:path-effect="#path-effect8481"
         inkscape:original-d="m 13.789523,28.275483 c 0.0823,-0.360743 0.164325,-0.721742 0.246093,-1.083019 0.12907,-0.367454 0.257872,-0.735166 0.386416,-1.103156 0.214247,-0.562739 0.428226,-1.125731 0.641948,-1.689011 0.185163,-0.402771 0.370057,-0.805798 0.554694,-1.209107 0.210092,-0.381996 0.419916,-0.764249 0.629484,-1.146782 0.189317,-0.244881 0.378366,-0.490022 0.567158,-0.735436 0.257875,-0.325904 0.515481,-0.652065 0.772831,-0.978505 0.197628,-0.195021 0.394987,-0.390302 0.592089,-0.585856 0.226712,-0.238648 0.453156,-0.477556 0.679344,-0.716739 0.388758,-0.276043 0.777243,-0.552345 1.165479,-0.828924 0.311891,-0.205408 0.62351,-0.411077 0.934877,-0.617018 0.3202,-0.178401 0.64013,-0.357063 0.959807,-0.535996 0.326433,-0.145161 0.652594,-0.290583 0.978504,-0.436276 0.446928,-0.174246 0.893583,-0.348753 1.33999,-0.523531 0.226713,-0.05791 0.453156,-0.11607 0.679344,-0.17451 0.34513,-0.08699 0.689989,-0.174246 1.034597,-0.261766 0.652602,-0.03921 1.304924,-0.07868 1.957008,-0.118417 0.307734,-0.0059 0.615199,-0.0121 0.922412,-0.0186 56.363287,2.65e-4 112.725182,2.65e-4 169.089072,0 0.33814,0.0032 0.676,0.0061 1.01362,0.0088 0.40571,0.0649 0.81115,0.12954 1.21634,0.19391 0.6437,0.176547 1.28712,0.352825 1.93029,0.528847 0.53793,0.232369 1.07558,0.464469 1.61298,0.696314 0.52324,0.297006 1.0462,0.593741 1.56891,0.890224 0.42922,0.32051 0.85817,0.64075 1.28686,0.960737 0.37927,0.335201 0.75827,0.67013 1.13702,1.004808 0.36752,0.426279 0.73477,0.852286 1.10177,1.278045 0.22355,0.276439 0.44684,0.552609 0.66987,0.828525 0.30876,0.581996 0.61724,1.163715 0.92548,1.745193 0.17948,0.417465 0.3587,0.834657 0.53766,1.251602 0.0767,0.270564 0.15306,0.540858 0.22916,0.810897 0.15162,0.475921 0.30297,0.951568 0.45406,1.426969 0.15036,0.60438 0.30045,1.208472 0.45028,1.812311 0.0169,0.237105 0.0335,0.473936 0.0499,0.710507"
         sodipodi:nodetypes="ccccccccccccccccccccccccccccccccccc"
         inkscape:label="Secondary Outline" /><path
         style="display:inline;fill:#000000;fill-opacity:0;stroke:#131313;stroke-width:0.582083;stroke-linecap:butt;stroke-linejoin:miter;stroke-dasharray:none;stroke-opacity:0.996078"
         d="m 13.852832,44.761083 c 0.03232,3.934161 0.09696,11.802215 0.165015,16.469724 0.06806,4.667509 0.139524,6.134404 0.220968,7.401799 0.08144,1.267394 0.172853,2.33521 0.250763,3.183878 0.07791,0.848669 0.142311,1.478139 0.231654,2.147108 0.08934,0.668968 0.203604,1.377385 0.327225,2.047389 0.123621,0.670004 0.256579,1.301554 0.352156,1.722255 0.09558,0.4207 0.153745,0.630522 0.274265,0.956698 0.120519,0.326176 0.303336,0.768675 0.474735,1.172753 0.1714,0.404079 0.331365,0.769712 0.511088,1.132237 0.179724,0.362526 0.37916,0.721926 0.651338,1.136385 0.272179,0.414459 0.617038,0.883965 0.889195,1.251684 0.272156,0.36772 0.471594,0.633636 0.80327,0.995449 0.331676,0.361813 0.795526,0.819536 1.258838,1.247447 0.463312,0.427912 0.926043,0.826008 1.414508,1.194713 0.488465,0.368706 1.002611,0.708043 1.554973,1.023127 0.552362,0.315084 1.142895,0.605944 1.81865,0.881363 0.675756,0.275419 1.436692,0.535431 2.210133,0.760911 0.773441,0.225479 1.559351,0.416447 2.178401,0.54164 0.619049,0.125193 1.071222,0.184642 1.737748,0.253834 0.666526,0.06919 1.547372,0.148136 2.68793,0.220844 1.140559,0.07271 2.540768,0.139186 4.173701,0.184886 1.632932,0.0457 3.498493,0.07063 27.329997,0.08309 23.831503,0.01246 69.627077,0.01246 93.342477,0.007 23.7154,-0.0055 25.34964,-0.01638 26.53991,-0.02331 1.19028,-0.0069 1.93652,-0.0099 2.69748,-0.02162 0.76095,-0.01175 1.53658,-0.03232 2.44444,-0.07639 0.90785,-0.04408 1.9479,-0.111649 2.69269,-0.168946 0.74479,-0.0573 1.1943,-0.104303 1.93509,-0.215356 0.74079,-0.111052 1.77283,-0.286129 2.60359,-0.460933 0.83076,-0.174804 1.46023,-0.349311 2.21635,-0.621686 0.75613,-0.272375 1.63891,-0.642598 2.23744,-0.942285 0.59854,-0.299687 0.91291,-0.528852 1.38458,-0.867272 0.47168,-0.338421 1.10063,-0.786084 1.72568,-1.327762 0.62505,-0.541679 1.24621,-1.177382 1.79674,-1.793352 0.55053,-0.61597 1.03043,-1.212206 1.47605,-1.892565 0.44561,-0.680359 0.85695,-1.444864 1.19579,-2.231963 0.33884,-0.787098 0.60516,-1.596803 0.82643,-2.401825 0.22126,-0.805023 0.39743,-1.605349 0.53539,-2.396084 0.13795,-0.790735 0.23767,-1.571861 0.33116,-2.380012 0.0935,-0.808152 0.18075,-1.643296 0.25347,-2.696594 0.0727,-1.053298 0.13089,-2.324704 0.18216,-4.133031 0.0513,-1.808327 0.0956,-4.153459 0.15893,-10.386913 0.0633,-6.233455 0.14557,-16.354778 0.1735,-21.613856 0.0279,-5.259078 0.001,-5.655701 -0.0396,-6.235972 -0.0411,-0.58027 -0.097,-1.344141 -0.18338,-2.100632 -0.0864,-0.756491 -0.2035,-1.505572 -0.32394,-2.101989 -0.12045,-0.596418 -0.24429,-1.040156 -0.41638,-1.541145 -0.17208,-0.500988 -0.39243,-1.059204 -0.65389,-1.58806 -0.26145,-0.528856 -0.56407,-1.028311 -0.8314,-1.416148 -0.26734,-0.387837 -0.49944,-0.664005 -0.82115,-1.01511 -0.32171,-0.351106 -0.73303,-0.777115 -1.16637,-1.173772 -0.43335,-0.396657 -0.88874,-0.763902 -1.44752,-1.124688 -0.55879,-0.360786 -1.22096,-0.715021 -1.83667,-0.983587 -0.61572,-0.268566 -1.18494,-0.451381 -1.88403,-0.629029 -0.6991,-0.177647 -1.52801,-0.350077 -2.28216,-0.471628 -0.75415,-0.121551 -1.43347,-0.192184 -1.90923,-0.234782 -0.47576,-0.0426 -0.7479,-0.05714 -1.99547,-0.07584 -1.24757,-0.0187 -3.47046,-0.04156 -31.16307,-0.05299 -27.69262,-0.01143 -80.852807,-0.01143 -107.687752,-0.0081 -26.834946,0.0033 -27.343568,0.0099 -27.991765,0.03902 -0.648197,0.02908 -1.435911,0.08062 -2.260878,0.166632 -0.824967,0.08601 -1.687114,0.206505 -2.422942,0.333508 -0.735829,0.127002 -1.345269,0.260517 -1.943831,0.43745 -0.598562,0.176932 -1.186158,0.39728 -1.756097,0.668121 -0.569939,0.270842 -1.122126,0.592153 -1.615747,0.931512 -0.493622,0.339359 -0.928595,0.69672 -1.347361,1.085492 -0.418767,0.388772 -0.82127,0.808903 -1.172384,1.232007 -0.351113,0.423105 -0.650786,0.849111 -0.954882,1.328031 -0.304095,0.47892 -0.612583,1.010695 -0.843223,1.489632 -0.23064,0.478937 -0.383414,0.904944 -0.483305,1.20758 -0.09989,0.302635 -0.146898,0.48185 -0.196846,0.668416 -0.04995,0.186565 -0.102831,0.380472 -0.164523,0.70221 -0.06169,0.321739 -0.132203,0.771249 -0.186554,1.154671 -0.05435,0.383423 -0.09254,0.700724 -0.12486,1.004819 -0.03232,0.304094 -0.05876,0.594953 -0.08814,1.066521 -0.02938,0.471568 -0.0617,1.123798 -0.07932,3.47721 -0.01762,2.353412 -0.02055,6.407818 -0.02202,8.43493 -0.0015,2.027112 -0.0015,2.027109 0.03082,5.96127 z"
         id="path10377"
         inkscape:path-effect="#path-effect10381"
         inkscape:original-d="m 13.820512,40.826922 c 0.0649,7.86832 0.129539,15.736374 0.193911,23.604167 0.07173,1.467215 0.143198,2.93411 0.214401,4.400767 0.09168,1.068123 0.183085,2.135939 0.27423,3.203511 0.06467,0.629762 0.12907,1.259232 0.193208,1.888451 0.11453,0.708707 0.22879,1.417124 0.342788,2.125287 0.133228,0.631838 0.266185,1.263388 0.398881,1.894683 0.05844,0.210098 0.116605,0.419921 0.17451,0.629484 0.183089,0.442783 0.365906,0.885282 0.548461,1.327526 0.160236,0.365913 0.320201,0.731546 0.479904,1.096922 0.199709,0.35968 0.399145,0.71908 0.598321,1.078225 0.345137,0.469789 0.689996,0.939295 1.034597,1.408546 0.199709,0.26619 0.399145,0.532107 0.598321,0.797761 0.464133,0.458005 0.927982,0.915729 1.391576,1.373193 0.463014,0.398378 0.925746,0.796473 1.388221,1.194311 0.514431,0.339616 1.028577,0.678952 1.542468,1.018029 0.590821,0.291137 1.181355,0.581996 1.771635,0.872596 0.76123,0.260287 1.522167,0.520298 2.282852,0.78005 0.786204,0.191241 1.572114,0.382209 2.357773,0.572915 0.452456,0.05972 0.904629,0.119166 1.356548,0.178351 0.881142,0.07921 1.761988,0.158154 2.642584,0.236836 1.40053,0.06674 2.800739,0.133223 4.200713,0.199441 1.8659,0.02519 3.731461,0.05012 5.596795,0.07479 45.797676,2.65e-4 91.59325,2.65e-4 137.38948,0 1.63457,-0.01066 3.26881,-0.02159 4.90282,-0.03277 0.74654,-0.0027 1.49278,-0.0056 2.23878,-0.0088 0.77592,-0.02029 1.55155,-0.04087 2.32692,-0.0617 1.04035,-0.06731 2.0804,-0.134885 3.1202,-0.202724 0.44979,-0.04674 0.8993,-0.09375 1.34855,-0.141025 1.03235,-0.174821 2.06439,-0.349899 3.09619,-0.525243 0.62976,-0.17425 1.25923,-0.348756 1.88845,-0.523531 0.88307,-0.36997 1.76585,-0.740191 2.64837,-1.110682 0.31464,-0.228906 0.62901,-0.458067 0.94311,-0.687498 0.62924,-0.447413 1.2582,-0.895072 1.8869,-1.343007 0.62145,-0.635463 1.24261,-1.271166 1.86352,-1.907148 0.48017,-0.59599 0.96007,-1.192223 1.43971,-1.788731 0.41162,-0.764271 0.82295,-1.528779 1.23403,-2.293565 0.26661,-0.809474 0.53293,-1.619181 0.799,-2.429169 0.17644,-0.800094 0.35262,-1.600419 0.52853,-2.401027 0.1,-0.780891 0.19971,-1.562018 0.29916,-2.343423 0.0875,-0.834908 0.17478,-1.67005 0.26177,-2.505471 0.0584,-1.271194 0.1166,-2.542599 0.17451,-3.814297 0.0446,-2.344963 0.089,-4.690094 0.13307,-7.035541 0.0825,-10.121466 0.16479,-20.242789 0.24679,-30.364583 -0.0262,-0.396378 -0.0526,-0.793004 -0.0793,-1.189903 -0.0556,-0.76364 -0.11138,-1.527513 -0.16746,-2.291666 -0.11681,-0.748846 -0.23388,-1.497926 -0.35121,-2.247286 -0.12359,-0.443491 -0.24744,-0.887228 -0.37155,-1.33124 -0.22009,-0.557973 -0.44044,-1.116188 -0.66106,-1.674679 -0.30236,-0.499211 -0.60497,-0.998667 -0.90785,-1.498397 -0.23185,-0.275917 -0.46395,-0.552086 -0.69632,-0.828526 -0.41106,-0.425759 -0.82238,-0.851765 -1.23397,-1.278045 -0.45514,-0.366997 -0.91052,-0.734244 -1.36618,-1.101763 -0.66194,-0.353984 -1.32411,-0.708219 -1.98655,-1.062726 -0.56899,-0.182559 -1.13821,-0.365376 -1.70771,-0.548461 -0.82868,-0.172172 -1.65759,-0.344601 -2.48677,-0.517298 -0.6791,-0.07037 -1.35842,-0.141006 -2.03803,-0.211906 -0.2719,-0.01428 -0.54404,-0.02882 -0.81646,-0.04363 -2.22271,-0.02259 -4.4456,-0.04544 -6.66879,-0.06856 -53.16204,2.64e-4 -106.322227,2.64e-4 -159.483739,0 -0.508375,0.0069 -1.016997,0.01352 -1.525894,0.01988 -0.787482,0.05181 -1.575197,0.103349 -2.363192,0.154626 -0.861916,0.120763 -1.724063,0.241255 -2.586492,0.361486 -0.609201,0.133786 -1.218642,0.267301 -1.82836,0.400555 -0.587354,0.220621 -1.174949,0.44097 -1.76282,0.661058 -0.551945,0.321588 -1.104132,0.6429 -1.656595,0.963953 -0.434725,0.35764 -0.869698,0.715001 -1.304944,1.072104 -0.402254,0.420412 -0.804756,0.840543 -1.207532,1.260417 -0.299421,0.426288 -0.599094,0.852294 -0.899038,1.278045 -0.308235,0.532059 -0.616723,1.063833 -0.925481,1.595352 -0.152516,0.426288 -0.305291,0.852295 -0.458333,1.278045 -0.04675,0.179488 -0.09375,0.358705 -0.141026,0.53766 -0.05262,0.194179 -0.105505,0.388085 -0.158654,0.581731 -0.07025,0.449793 -0.140761,0.899303 -0.211538,1.348558 -0.03793,0.317578 -0.07612,0.63488 -0.114583,0.951923 -0.02618,0.291136 -0.05262,0.581995 -0.07933,0.872596 -0.03205,0.652523 -0.06437,1.304753 -0.09696,1.956731 -0.0027,4.054832 -0.0056,8.109238 -0.0088,12.163462 z"
         inkscape:label="Main Outline" /><g
         id="g26696"
         inkscape:label="Speakers"><path
           id="rect322-2"
           style="fill:#000000;fill-opacity:0.996078;stroke:#191919;stroke-width:0.238125;stroke-linecap:square;stroke-dasharray:none;stroke-opacity:0.996078"
           d="m 172.65893,74.023389 c -0.25378,0 -0.45785,0.186228 -0.45785,0.417545 0,0.231318 0.20407,0.417546 0.45785,0.417546 h 1.50275 c 0.25378,0 0.45786,-0.186228 0.45786,-0.417546 0,-0.231317 -0.20408,-0.417545 -0.45786,-0.417545 z m 2.86443,0 c -0.25378,0 -0.45786,0.186228 -0.45786,0.417545 0,0.231318 0.20408,0.417546 0.45786,0.417546 h 1.50275 c 0.25378,0 0.45785,-0.186228 0.45785,-0.417546 0,-0.231317 -0.20407,-0.417545 -0.45785,-0.417545 z m 2.92643,0 c -0.25378,0 -0.45785,0.186228 -0.45785,0.417545 0,0.231318 0.20407,0.417546 0.45785,0.417546 h 1.50275 c 0.25378,0 0.45786,-0.186228 0.45786,-0.417546 0,-0.231317 -0.20408,-0.417545 -0.45786,-0.417545 z m 2.86443,0 c -0.25378,0 -0.45785,0.186228 -0.45785,0.417545 0,0.231318 0.20407,0.417546 0.45785,0.417546 h 1.50275 c 0.25378,0 0.45785,-0.186228 0.45785,-0.417546 0,-0.231317 -0.20407,-0.417545 -0.45785,-0.417545 z m -4.29793,2.094445 c -0.25378,0 -0.45785,0.186228 -0.45785,0.417546 0,0.231318 0.20407,0.417546 0.45785,0.417546 h 1.50275 c 0.25378,0 0.45785,-0.186228 0.45785,-0.417546 0,-0.231318 -0.20407,-0.417546 -0.45785,-0.417546 z m 2.86442,0 c -0.25378,0 -0.45785,0.186228 -0.45785,0.417546 0,0.231318 0.20407,0.417546 0.45785,0.417546 h 1.50275 c 0.25379,0 0.45837,-0.186228 0.45837,-0.417546 0,-0.231318 -0.20458,-0.417546 -0.45837,-0.417546 z m -7.1422,0.02532 c -0.31364,0 -0.56637,0.175046 -0.56637,0.392224 0,0.217178 0.25273,0.391707 0.56637,0.391707 h 2.66651 c 0.31365,0 0.56637,-0.174529 0.56637,-0.391707 0,-0.217178 -0.25272,-0.392224 -0.56637,-0.392224 z m -0.092,2.043803 c -0.25378,0 -0.45785,0.186228 -0.45785,0.417545 0,0.231318 0.20407,0.417546 0.45785,0.417546 h 1.50275 c 0.25378,0 0.45785,-0.186228 0.45785,-0.417546 0,-0.231317 -0.20407,-0.417545 -0.45785,-0.417545 z m 2.86443,0 c -0.25379,0 -0.45786,0.186228 -0.45786,0.417545 0,0.231318 0.20407,0.417546 0.45786,0.417546 h 1.50275 c 0.25378,0 0.45785,-0.186228 0.45785,-0.417546 0,-0.231317 -0.20407,-0.417545 -0.45785,-0.417545 z m 2.92643,0 c -0.25378,0 -0.45785,0.186228 -0.45785,0.417545 0,0.231318 0.20407,0.417546 0.45785,0.417546 h 1.50275 c 0.25378,0 0.45786,-0.186228 0.45786,-0.417546 0,-0.231317 -0.20408,-0.417545 -0.45786,-0.417545 z"
           inkscape:label="Right Speaker" /><path
           id="rect7626"
           style="fill:#000000;fill-opacity:0.996078;stroke:#191919;stroke-width:0.238125;stroke-linecap:square;stroke-dasharray:none;stroke-opacity:0.996078"
           d="m 43.02343,74.023389 c -0.25378,0 -0.45837,0.186228 -0.45837,0.417546 0,0.231317 0.20459,0.417545 0.45837,0.417545 h 1.50224 c 0.25378,0 0.45837,-0.186228 0.45837,-0.417545 0,-0.231318 -0.20459,-0.417546 -0.45837,-0.417546 z m 2.86443,0 c -0.25378,0 -0.45837,0.186228 -0.45837,0.417546 0,0.231317 0.20459,0.417545 0.45837,0.417545 h 1.50223 c 0.25378,0 0.45837,-0.186228 0.45837,-0.417545 0,-0.231318 -0.20459,-0.417546 -0.45837,-0.417546 z m 2.92644,0 c -0.25378,0 -0.45837,0.186228 -0.45837,0.417546 0,0.231317 0.20459,0.417545 0.45837,0.417545 h 1.50223 c 0.25378,0 0.45837,-0.186228 0.45837,-0.417545 0,-0.231318 -0.20459,-0.417546 -0.45837,-0.417546 z m 2.86442,0 c -0.25378,0 -0.45837,0.186228 -0.45837,0.417546 0,0.231317 0.20459,0.417545 0.45837,0.417545 h 1.50223 c 0.25378,0 0.45837,-0.186228 0.45837,-0.417545 0,-0.231318 -0.20459,-0.417546 -0.45837,-0.417546 z m -7.22178,2.094446 c -0.25378,0 -0.45837,0.186228 -0.45837,0.417545 0,0.231318 0.20459,0.417546 0.45837,0.417546 h 1.50223 c 0.25378,0 0.45837,-0.186228 0.45837,-0.417546 0,-0.231317 -0.20459,-0.417545 -0.45837,-0.417545 z m 2.86442,0 c -0.25378,0 -0.45837,0.186228 -0.45837,0.417545 0,0.231318 0.20459,0.417546 0.45837,0.417546 h 1.50224 c 0.25378,0 0.45837,-0.186228 0.45837,-0.417546 0,-0.231317 -0.20459,-0.417545 -0.45837,-0.417545 z m 3.11351,0.02532 c -0.31365,0 -0.56586,0.175046 -0.56586,0.392224 0,0.217179 0.25221,0.391708 0.56586,0.391708 h 2.66702 c 0.31365,0 0.56586,-0.174529 0.56586,-0.391708 0,-0.217178 -0.25221,-0.392224 -0.56586,-0.392224 z m -4.53461,2.043803 c -0.25378,0 -0.45785,0.186228 -0.45785,0.417546 0,0.231317 0.20407,0.417545 0.45785,0.417545 h 1.50275 c 0.25378,0 0.45786,-0.186228 0.45786,-0.417545 0,-0.231318 -0.20408,-0.417546 -0.45786,-0.417546 z m 2.92644,0 c -0.25378,0 -0.45837,0.186228 -0.45837,0.417546 0,0.231317 0.20459,0.417545 0.45837,0.417545 h 1.50223 c 0.25378,0 0.45837,-0.186228 0.45837,-0.417545 0,-0.231318 -0.20459,-0.417546 -0.45837,-0.417546 z m 2.86442,0 c -0.25378,0 -0.45785,0.186228 -0.45785,0.417546 0,0.231317 0.20407,0.417545 0.45785,0.417545 h 1.50275 c 0.25378,0 0.45786,-0.186228 0.45786,-0.417545 0,-0.231318 -0.20408,-0.417546 -0.45786,-0.417546 z"
           inkscape:label="Left Speaker" /></g></g><g
       id="g52231"
       inkscape:label="Trackpads"><g
         id="g31084"
         inkscape:label="Right Pad"><rect
           style="display:inline;opacity:1;fill:#323232;fill-opacity:0.996078;stroke:none;stroke-width:0.238919;stroke-linecap:square;stroke-dasharray:none;stroke-opacity:0"
           id="rect29984"
           width="21.020035"
           height="21.036465"
           x="172.69214"
           y="40.717308"
           rx="3.1036158"
           ry="2.6283076"
           inkscape:label="Color" /><rect
           style="display:inline;opacity:1;fill:none;fill-opacity:0;stroke:#090809;stroke-width:0.238919;stroke-linecap:square;stroke-dasharray:none;stroke-opacity:0.996078"
           id="rect31080"
           width="21.020035"
           height="21.036465"
           x="172.69214"
           y="40.717308"
           rx="3.1036158"
           ry="2.6283076"
           inkscape:label="Outline" /></g><g
         id="g31078"
         inkscape:label="Left Pad"><path
           id="rect31073"
           style="display:inline;opacity:1;fill:#323232;fill-opacity:0.996078;stroke:none;stroke-width:0.238963;stroke-linecap:square;stroke-opacity:0"
           inkscape:label="Color"
           d="m 35.202905,40.717308 h 14.812803 c 1.719403,0 3.103616,1.172225 3.103616,2.628308 v 15.779849 c 0,1.456083 -1.384213,2.628308 -3.103616,2.628308 H 35.202905 c -1.719403,0 -3.103616,-1.172225 -3.103616,-2.628308 V 43.345616 c 0,-1.456083 1.384213,-2.628308 3.103616,-2.628308 z" /><rect
           style="display:inline;opacity:1;fill:none;fill-opacity:0;stroke:#090809;stroke-width:0.238963;stroke-linecap:square;stroke-dasharray:none;stroke-opacity:0.996078"
           id="rect36656"
           width="21.020035"
           height="21.036465"
           x="32.099289"
           y="40.717308"
           rx="3.1036158"
           ry="2.6283076"
           inkscape:label="Outline" /></g></g><g
       id="g21722"
       inkscape:label="Screen"><g
         id="rect9310"
         style="display:inline"
         inkscape:label="Panel"><path
           style="color:#000000;display:inline;fill:#020202;fill-opacity:0.996078;stroke-width:0.264583;stroke-linecap:round;stroke-linejoin:round;-inkscape-stroke:none"
           d="M 56.040471,16.946169 H 169.59546 c 0.35062,0 0.63289,0.282267 0.63289,0.632886 v 69.560842 c 0,0.350619 -0.28227,0.632886 -0.63289,0.632886 H 56.040471 c -0.350619,0 -0.632886,-0.282267 -0.632886,-0.632886 V 17.579055 c 0,-0.350619 0.282267,-0.632886 0.632886,-0.632886 z"
           id="path18921"
           inkscape:label="Collor" /><path
           id="path18923"
           style="color:#000000;display:inline;fill:#0f0f0f;fill-opacity:0.996078;stroke-linecap:round;stroke-linejoin:round;-inkscape-stroke:none"
           d="m 73.492155,16.404167 a 0.42167968,0.42167968 0 0 0 -0.421163,0.410311 H 56.041024 c -0.42162,0 -0.765845,0.342158 -0.765845,0.763777 v 69.562162 c 0,0.42162 0.344225,0.763778 0.765845,0.763778 H 169.59585 c 0.42162,0 0.76533,-0.342158 0.76533,-0.763778 V 17.578255 c 0,-0.421619 -0.34371,-0.763777 -0.76533,-0.763777 h -16.25844 a 0.42167968,0.42167968 0 0 0 -0.42168,-0.410311 0.42167968,0.42167968 0 0 0 -0.42116,0.410311 H 73.913835 a 0.42167968,0.42167968 0 0 0 -0.42168,-0.410311 z m -17.451131,0.67386 h 17.113684 a 0.42167968,0.42167968 0 0 0 0.337447,0.169499 0.42167968,0.42167968 0 0 0 0.337447,-0.169499 h 78.748678 a 0.42167968,0.42167968 0 0 0 0.33745,0.169499 0.42167968,0.42167968 0 0 0 0.33745,-0.169499 h 16.34267 c 0.27962,0 0.49971,0.220611 0.49971,0.500228 v 69.562162 c 0,0.279617 -0.22009,0.500228 -0.49971,0.500228 H 56.041024 c -0.279618,0 -0.501778,-0.220611 -0.501778,-0.500228 V 17.578255 c 0,-0.279617 0.22216,-0.500228 0.501778,-0.500228 z"
           inkscape:label="Outline" /></g><g
         id="g21714"
         inkscape:label="Touchscreen"><path
           id="path17439"
           style="display:inline;fill:#19ff00;fill-opacity:0.993958;stroke:none;stroke-width:0.232833;stroke-linecap:round;stroke-linejoin:round;stroke-opacity:0.996078"
           inkscape:label="Screen"
           d="M 62.886822,21.107239 V 83.599548 H 163.05642 V 21.107239 Z" /><path
           id="path17328"
           style="display:inline;fill:none;fill-opacity:0.996078;stroke:#000000;stroke-width:0.233;stroke-linecap:round;stroke-linejoin:round;stroke-dasharray:none;stroke-opacity:0.996078"
           d="M 62.77002,20.990564 H 163.17223 V 83.715067 H 62.77002 Z"
           inkscape:label="Screen Outline" /></g></g><g
       id="g23314"
       inkscape:label="Quick Access"><rect
         style="display:inline;opacity:1;fill:#2f2f2f;fill-opacity:1;stroke:none;stroke-width:0.238125;stroke-linecap:square;stroke-dasharray:none;stroke-opacity:1"
         id="rect7879"
         width="10.54625"
         height="4.2772303"
         x="172.69571"
         y="65.860085"
         rx="2.1659036"
         ry="2.1386151"
         inkscape:label="Color" /><rect
         style="display:inline;opacity:1;fill:none;fill-opacity:0;stroke:#030303;stroke-width:0.238125;stroke-linecap:square;stroke-dasharray:none;stroke-opacity:0.996078"
         id="rect36710"
         width="10.54625"
         height="4.2772303"
         x="172.69571"
         y="65.860085"
         rx="2.1659036"
         ry="2.1386151"
         inkscape:label="Outline" /><path
         id="path8007"
         style="fill:#ffffff;fill-opacity:1;stroke:none;stroke-width:0.323579;stroke-linecap:round;stroke-linejoin:round;stroke-miterlimit:2;stroke-dasharray:none;stroke-opacity:1"
         d="m 175.48903,67.335425 a 0.62918073,0.62918073 0 0 0 -0.62942,0.629419 0.62918073,0.62918073 0 0 0 0.62942,0.629419 0.62918073,0.62918073 0 0 0 0.62942,-0.629419 0.62918073,0.62918073 0 0 0 -0.62942,-0.629419 z m 2.4474,0 a 0.62918073,0.62918073 0 0 0 -0.62942,0.629419 0.62918073,0.62918073 0 0 0 0.62942,0.629419 0.62918073,0.62918073 0 0 0 0.62941,-0.629419 0.62918073,0.62918073 0 0 0 -0.62941,-0.629419 z m 2.53834,0 a 0.62918073,0.62918073 0 0 0 -0.62942,0.629419 0.62918073,0.62918073 0 0 0 0.62942,0.629419 0.62918073,0.62918073 0 0 0 0.62942,-0.629419 0.62918073,0.62918073 0 0 0 -0.62942,-0.629419 z"
         inkscape:label="Icon" /></g><g
       id="g29482"
       inkscape:label="View"><path
         id="rect29484"
         style="display:inline;fill:#2f2f2f;fill-opacity:1;stroke:none;stroke-width:0.238125;stroke-linecap:square"
         d="m 34.96557,16.850269 h 3.463358 c 0.66872,0 1.207075,0.58296 1.207075,1.307084 0,0.724124 -0.538355,1.307084 -1.207075,1.307084 H 34.96557 c -0.668719,0 -1.207075,-0.58296 -1.207075,-1.307084 0,-0.724124 0.538356,-1.307084 1.207075,-1.307084 z"
         inkscape:label="Color" /><rect
         style="display:inline;fill:none;fill-opacity:1;stroke:#030303;stroke-width:0.238125;stroke-linecap:square;stroke-dasharray:none;stroke-opacity:0.996078"
         id="rect37480-0"
         width="5.8775082"
         height="2.6141675"
         x="33.758495"
         y="16.850269"
         rx="1.2070751"
         ry="1.3070837"
         inkscape:label="Outline" /><path
         fill-rule="evenodd"
         clip-rule="evenodd"
         d="m 37.034669,17.264233 h -1.963276 v 1.331524 h 1.070886 v -0.332876 h -0.713927 v -0.665772 h 1.606317 z m 1.249376,0.665772 h -1.784817 v 0.998628 h 1.784817 z"
         fill="#ffffff"
         id="path8185"
         style="display:inline;fill:#fdfdfd;fill-opacity:1;stroke-width:0.192877"
         inkscape:label="Icon" /></g><g
       id="g29475"
       inkscape:label="Menu"><path
         id="rect29477"
         style="display:inline;fill:#2f2f2f;fill-opacity:1;stroke:none;stroke-width:0.238125;stroke-linecap:square"
         d="m 187.48137,16.850269 h 3.46336 c 0.66871,0 1.20707,0.58296 1.20707,1.307084 0,0.724124 -0.53836,1.307084 -1.20707,1.307084 h -3.46336 c -0.66872,0 -1.20708,-0.58296 -1.20708,-1.307084 0,-0.724124 0.53836,-1.307084 1.20708,-1.307084 z"
         inkscape:label="Color" /><rect
         style="display:inline;fill:#ffffff;fill-opacity:0;stroke:#030303;stroke-width:0.238125;stroke-linecap:square;stroke-dasharray:none;stroke-opacity:0.996078"
         id="rect322"
         width="5.8775082"
         height="2.6141675"
         x="186.27429"
         y="16.850269"
         rx="1.2070751"
         ry="1.3070837"
         inkscape:label="Outline" /><path
         id="rect8208"
         style="fill:#fdfdfd;fill-opacity:1;stroke-width:0.193507"
         d="m 188.36808,17.319878 v 0.331077 h 1.80619 v -0.331077 z m 0,0.662155 v 0.331078 h 1.80619 v -0.331078 z m 0,0.662156 v 0.331078 h 1.80619 v -0.331078 z"
         inkscape:label="Icon" /></g><g
       id="g23310"
       inkscape:label="Guide Button"><rect
         style="display:inline;opacity:1;fill:#2f2f2f;fill-opacity:0.996078;stroke:none;stroke-width:0.238125;stroke-linecap:square;stroke-dasharray:none;stroke-opacity:0"
         id="rect37480"
         width="10.54625"
         height="4.2772303"
         x="42.674713"
         y="65.860085"
         rx="2.1659036"
         ry="2.1386151"
         inkscape:label="Color" /><rect
         style="display:inline;opacity:1;fill:none;fill-opacity:0;stroke:#030303;stroke-width:0.238125;stroke-linecap:square;stroke-dasharray:none;stroke-opacity:0.996078"
         id="rect7877"
         width="10.54625"
         height="4.2772303"
         x="42.674713"
         y="65.860085"
         rx="2.1659036"
         ry="2.1386151"
         inkscape:label="Outline" /><path
         id="path8593"
         style="fill:#fcfcfc;fill-opacity:1;stroke-width:0.344879"
         d="m 44.848942,67.243958 c -0.101974,0 -0.192132,0.01719 -0.270268,0.05168 -0.07813,0.03449 -0.138714,0.08399 -0.182417,0.148828 -0.04238,0.06346 -0.06356,0.138229 -0.06356,0.223759 0,0.09243 0.02044,0.16737 0.06149,0.225309 0.04238,0.05656 0.09263,0.09988 0.150896,0.130225 0.05827,0.02897 0.135124,0.05974 0.230477,0.09147 0.08476,0.02897 0.147564,0.05716 0.188619,0.08475 0.04105,0.02759 0.06149,0.06609 0.06149,0.115755 0,0.04966 -0.01895,0.08954 -0.05736,0.119889 -0.03708,0.03035 -0.09349,0.04548 -0.168982,0.04548 -0.06887,0 -0.138809,-0.01031 -0.210323,-0.031 -0.07019,-0.02207 -0.137454,-0.05095 -0.201022,-0.08682 l -0.09147,0.252696 c 0.06754,0.04139 0.145881,0.07439 0.234611,0.09922 0.09005,0.02345 0.177985,0.03514 0.264067,0.03514 0.105946,0 0.200044,-0.01788 0.282153,-0.05374 0.08211,-0.03725 0.145659,-0.09002 0.190686,-0.157613 0.04635,-0.0676 0.06976,-0.147351 0.06976,-0.239779 0,-0.08691 -0.02118,-0.158243 -0.06356,-0.213423 -0.04105,-0.05656 -0.08959,-0.09919 -0.145211,-0.128158 -0.05562,-0.02897 -0.129505,-0.0606 -0.222208,-0.09509 -0.09006,-0.03311 -0.157319,-0.06336 -0.201022,-0.09095 -0.0437,-0.02897 -0.06511,-0.06816 -0.06511,-0.117823 0,-0.04966 0.01821,-0.08868 0.05529,-0.116271 0.03708,-0.02897 0.08881,-0.04341 0.155029,-0.04341 0.0543,0 0.111454,0.011 0.171049,0.03307 0.06092,0.02207 0.115848,0.05147 0.164848,0.08733 l 0.12299,-0.227894 c -0.0543,-0.04001 -0.121045,-0.0737 -0.200505,-0.101285 -0.07946,-0.02759 -0.166421,-0.04134 -0.260449,-0.04134 z m 0.771012,0.03307 v 0.26045 h 0.421163 v 1.188041 h 0.291972 v -1.188041 h 0.421163 v -0.26045 z m 1.492933,0 v 1.448491 h 0.937927 V 68.462488 H 47.404858 V 68.12349 h 0.556555 v -0.260966 h -0.556555 v -0.327111 h 0.645956 V 67.27703 Z m 1.76785,0 -0.520381,1.448491 h 0.303857 l 0.09147,-0.281637 h 0.544153 l 0.0956,0.281637 h 0.315743 l -0.536401,-1.448491 z m 1.183907,0 v 1.448491 h 0.266651 V 67.81498 l 0.381372,0.869198 H 50.8894 l 0.373104,-0.879533 v 0.920874 h 0.280086 v -1.448491 h -0.295589 l -0.433048,1.028362 -0.469222,-1.028362 z m -1.038696,0.345716 0.19482,0.579293 h -0.385506 z"
         inkscape:label="Text" /></g><path
       id="path337-4"
       style="display:inline;fill:#121212;fill-opacity:0.996078;stroke:#1d1d1d;stroke-width:0.263556px;stroke-linecap:butt;stroke-linejoin:miter;stroke-opacity:0.996078"
       d="m 25.751532,18.643386 c -0.40803,-9.13e-4 -0.795498,0.01989 -1.104927,0.06046 -0.353636,0.04638 -0.605878,0.118279 -0.769091,0.181914 -0.163212,0.06363 -0.237345,0.118816 -0.27995,0.182431 -0.04259,0.06361 -0.05354,0.135417 -0.05998,0.787087 -0.0065,0.651667 -0.0086,1.882835 -0.02307,2.536973 -0.01458,0.654134 -0.04168,0.731447 -0.07485,0.807243 -0.03319,0.07579 -0.0724,0.150129 -0.133309,0.206203 -0.06092,0.05608 -0.143757,0.09379 -0.204579,0.113696 -0.06083,0.01987 -0.100167,0.02257 -0.138436,0.02377 -0.03826,0.0012 -0.07519,0.001 -0.630142,0.001 -0.554941,0 -1.627379,3.5e-5 -2.240618,0.0041 -0.613237,0.0041 -0.767192,0.01215 -0.868047,0.02842 -0.100856,0.01628 -0.148733,0.04059 -0.213295,0.102326 -0.06456,0.06173 -0.146023,0.160708 -0.210218,0.284757 -0.0642,0.124049 -0.111301,0.272891 -0.149203,0.653236 -0.03789,0.380347 -0.06684,0.992613 -0.0723,1.42947 -0.0055,0.436858 0.01264,0.698392 0.03999,0.920938 0.02736,0.222549 0.06426,0.405705 0.106647,0.576233 0.04239,0.170528 0.09024,0.328734 0.132284,0.436181 0.04205,0.107446 0.07815,0.164225 0.12972,0.216538 0.05157,0.05231 0.118638,0.100094 0.169199,0.131784 0.05055,0.03169 0.08463,0.04729 0.117415,0.05529 0.03279,0.008 0.06459,0.0083 0.639884,0.0083 h 2.275483 c 0.581401,0 0.624988,2e-6 0.678338,0.0093 0.05335,0.0093 0.116506,0.02784 0.188172,0.05839 0.07167,0.03056 0.152034,0.07281 0.218422,0.130751 0.06639,0.05793 0.118278,0.131632 0.158432,0.204136 0.04013,0.0725 0.0682,0.143958 0.08357,0.216024 0.01542,0.07206 0.0181,0.144182 0.01948,0.759695 0.0013,0.615518 0.0016,1.774341 0.0016,2.371081 0,0.596736 -3.2e-5,0.631379 0.0052,0.681143 0.0052,0.04976 0.01566,0.114866 0.149204,0.180881 0.133542,0.06601 0.39055,0.133322 0.612709,0.176745 0.222158,0.04342 0.409156,0.06305 0.624502,0.08372 0.215344,0.02068 0.458731,0.0427 0.660392,0.05374 0.123327,0.0067 0.248708,0.0082 0.359422,0.0083 0.0031,0 0.214559,-0.0015 0.337888,-0.0083 0.201662,-0.01104 0.445049,-0.03306 0.660392,-0.05374 0.215345,-0.02067 0.402345,-0.0403 0.624501,-0.08372 0.22216,-0.04342 0.479169,-0.110728 0.61271,-0.176745 0.133542,-0.06601 0.14406,-0.131121 0.149204,-0.180881 0.0052,-0.04976 0.0052,-0.0844 0.0052,-0.681143 0,-0.59674 1.5e-4,-1.755563 0.0015,-2.371081 0.0014,-0.615513 0.0041,-0.687632 0.01948,-0.759695 0.01537,-0.07206 0.04343,-0.14352 0.08357,-0.216024 0.04015,-0.0725 0.09205,-0.146198 0.158432,-0.204136 0.06639,-0.05793 0.146751,-0.100196 0.218421,-0.130751 0.07167,-0.03055 0.134823,-0.04912 0.188171,-0.05839 0.05335,-0.0093 0.09694,-0.0093 0.678339,-0.0093 h 2.275483 c 0.575305,0 0.607096,-2.67e-4 0.639884,-0.0083 0.03279,-0.008 0.06686,-0.0236 0.117414,-0.05529 0.05056,-0.03169 0.117634,-0.07947 0.1692,-0.131784 0.05157,-0.05231 0.08769,-0.109092 0.12972,-0.216538 0.04203,-0.107447 0.0899,-0.265653 0.132284,-0.436181 0.04238,-0.170528 0.07929,-0.353684 0.106648,-0.576233 0.02735,-0.222546 0.04545,-0.48408 0.03999,-0.920938 -0.0055,-0.436857 -0.03439,-1.049123 -0.07229,-1.42947 -0.0379,-0.380345 -0.08502,-0.529187 -0.149205,-0.653236 -0.0642,-0.124049 -0.145652,-0.22302 -0.210217,-0.284757 -0.06457,-0.06173 -0.112439,-0.08605 -0.213295,-0.102326 -0.100855,-0.01627 -0.254809,-0.02428 -0.868047,-0.02842 -0.613238,-0.0041 -1.685677,-0.0041 -2.240618,-0.0041 -0.554943,0 -0.591871,1.67e-4 -0.630141,-0.001 -0.03827,-0.0012 -0.07762,-0.0039 -0.138437,-0.02377 -0.06082,-0.01991 -0.143658,-0.05761 -0.204579,-0.113696 -0.06092,-0.05607 -0.100126,-0.130409 -0.133309,-0.206203 -0.03318,-0.07579 -0.06027,-0.153109 -0.07485,-0.807243 -0.01458,-0.654138 -0.01659,-1.885306 -0.02308,-2.536973 -0.0065,-0.65167 -0.01739,-0.723477 -0.05998,-0.787087 -0.0426,-0.06361 -0.116737,-0.118799 -0.279949,-0.182431 -0.163214,-0.06363 -0.415457,-0.135541 -0.769091,-0.181914 -0.353633,-0.04637 -0.809058,-0.06716 -1.280793,-0.05891 -0.0038,6.6e-5 -0.140136,-0.0014 -0.198426,-0.0016 z"
       sodipodi:nodetypes="sssscsssccscssscccsssscsscsscccscssccsccsscsscssscssssssssccssscsscssscsssss"
       inkscape:label="D-PAD" /><g
       id="g19382"
       inkscape:label="Back Buttons"
       style="display:none"><g
         id="g19414"
         inkscape:label="Right Side"><g
           id="g11836"
           inkscape:label="R5"><path
             id="rect11953"
             style="display:inline;fill:#303233;fill-opacity:0.996078;stroke:none;stroke-width:0.28095;stroke-linecap:square;stroke-miterlimit:2;stroke-opacity:0"
             inkscape:label="Color"
             d="m 216.47899,55.784504 h 9.27244 c 1.13532,0 2.04931,0.963383 2.04931,2.160052 v 9.027878 c 0,1.196669 -0.91399,2.160052 -2.04931,2.160052 h -9.27244 c -1.13531,0 -2.0493,-0.963383 -2.0493,-2.160052 v -9.027878 c 0,-1.196669 0.91399,-2.160052 2.0493,-2.160052 z" /><rect
             style="display:inline;fill:none;fill-opacity:0;stroke:#030303;stroke-width:0.28095;stroke-linecap:square;stroke-miterlimit:2;stroke-opacity:0.996078"
             id="rect11324"
             width="13.37105"
             height="13.347982"
             x="214.42969"
             y="55.784504"
             rx="2.0493057"
             ry="2.1600525"
             inkscape:label="Outline" /><path
             id="path11332"
             style="display:inline;fill:#b2b2b2;fill-opacity:0.996078;stroke-width:0.122718"
             d="m 223.2189,58.011664 v 1.374593 h 0.28887 V 58.92272 h 0.20412 0.0331 l 0.27698,0.463537 h 0.31988 l -0.32401,-0.520382 c 0.0838,-0.03664 0.14901,-0.09055 0.19482,-0.16123 0.0471,-0.07068 0.0703,-0.159072 0.0703,-0.2651 0,-0.134817 -0.0443,-0.239579 -0.13333,-0.314193 -0.089,-0.07589 -0.22801,-0.113688 -0.41651,-0.113688 z m 1.40767,0 v 0.709001 l 0.18241,0.09974 c 0.0406,-0.03271 0.0816,-0.05662 0.12351,-0.07235 0.0419,-0.01698 0.0877,-0.02532 0.13746,-0.02532 0.0668,0 0.11914,0.01737 0.1571,0.05271 0.0393,0.03534 0.0589,0.0862 0.0589,0.152962 0,0.07592 -0.0254,0.1346 -0.0765,0.175184 -0.0511,0.0406 -0.12306,0.06046 -0.21601,0.06046 -0.12304,0 -0.2351,-0.03373 -0.3359,-0.101803 l -0.1018,0.219625 c 0.0511,0.04319 0.11501,0.07669 0.19224,0.100252 0.0772,0.02356 0.16059,0.03566 0.24959,0.03566 0.12044,0 0.22443,-0.02039 0.31213,-0.06098 0.089,-0.04188 0.15624,-0.100057 0.20205,-0.174667 0.0471,-0.07461 0.0708,-0.161994 0.0708,-0.261483 0,-0.133513 -0.0375,-0.234992 -0.11214,-0.304374 -0.0733,-0.07069 -0.1715,-0.105936 -0.29455,-0.105936 -0.0484,0 -0.0968,0.0058 -0.14521,0.01757 -0.0471,0.01046 -0.0897,0.0276 -0.12764,0.05116 v -0.321944 h 0.60099 v -0.245463 z m -1.1188,0.245463 h 0.20774 c 0.0903,0 0.1558,0.01712 0.19637,0.05116 0.0419,0.03273 0.0631,0.08258 0.0631,0.149345 0,0.06807 -0.0219,0.121428 -0.0651,0.160713 -0.0419,0.03797 -0.1008,0.05684 -0.17673,0.05684 h -0.22531 z"
             inkscape:label="Text" /></g><g
           id="g11832"
           inkscape:label="R4"><path
             id="rect11955"
             style="display:inline;fill:#303233;fill-opacity:0.996078;stroke:none;stroke-width:0.28095;stroke-linecap:square;stroke-miterlimit:2;stroke-opacity:0"
             inkscape:label="Color"
             d="m 216.47899,40.593605 h 9.27244 c 1.13532,0 2.04931,0.963383 2.04931,2.160053 v 9.027877 c 0,1.196669 -0.91399,2.160052 -2.04931,2.160052 h -9.27244 c -1.13531,0 -2.0493,-0.963383 -2.0493,-2.160052 v -9.027877 c 0,-1.19667 0.91399,-2.160053 2.0493,-2.160053 z" /><rect
             style="display:inline;fill:#000000;fill-opacity:0;stroke:#030303;stroke-width:0.28095;stroke-linecap:square;stroke-miterlimit:2;stroke-opacity:0.996078"
             id="rect2495"
             width="13.37105"
             height="13.347982"
             x="214.42969"
             y="40.593605"
             rx="2.0493057"
             ry="2.1600525"
             inkscape:label="Outline" /><path
             id="path7928"
             style="fill:#b2b2b2;fill-opacity:0.996078;stroke-width:0.122616"
             d="m 223.21839,42.821893 v 1.373043 h 0.28835 v -0.463021 h 0.20412 0.0331 l 0.27647,0.463021 h 0.31988 l -0.32349,-0.519865 c 0.0837,-0.03661 0.1485,-0.09008 0.1943,-0.160714 0.0471,-0.07063 0.0703,-0.158641 0.0703,-0.264583 0,-0.134706 -0.0444,-0.239643 -0.13333,-0.314193 -0.0889,-0.07585 -0.22765,-0.113688 -0.41599,-0.113688 z m 1.96732,0 -0.67283,0.872815 v 0.188619 h 0.64699 v 0.311609 h 0.29249 v -0.311609 h 0.19844 v -0.221692 h -0.19844 v -0.839742 z m -1.67897,0.244946 h 0.20774 c 0.0902,0 0.15587,0.01714 0.19637,0.05116 0.0419,0.0327 0.0625,0.08264 0.0625,0.149345 0,0.06802 -0.0215,0.121444 -0.0646,0.160714 -0.0419,0.03795 -0.10083,0.05684 -0.17673,0.05684 h -0.22531 z m 1.66501,0.09819 v 0.49661 h -0.37878 z"
             inkscape:label="Text" /></g></g><g
         id="g19404"
         inkscape:label="Left Side"><g
           id="g11828"
           inkscape:label="L5"><path
             id="rect11949"
             style="display:inline;fill:#303233;fill-opacity:0.996078;stroke:none;stroke-width:0.28095;stroke-linecap:square;stroke-miterlimit:2;stroke-opacity:0"
             inkscape:label="Color"
             d="M -0.34704614,55.701828 H 8.9253933 c 1.1353157,0 2.0493057,0.963383 2.0493057,2.160053 v 9.027876 c 0,1.196669 -0.91399,2.160052 -2.0493057,2.160052 h -9.27243944 c -1.13531536,0 -2.04930566,-0.963383 -2.04930566,-2.160052 v -9.027876 c 0,-1.19667 0.9139903,-2.160053 2.04930566,-2.160053 z" /><rect
             style="display:inline;fill:none;fill-opacity:0;stroke:#030303;stroke-width:0.28095;stroke-linecap:square;stroke-miterlimit:2;stroke-opacity:0.996078"
             id="rect11352"
             width="13.371051"
             height="13.347981"
             x="-2.3963518"
             y="55.701828"
             rx="2.0493057"
             ry="2.1600525"
             inkscape:label="Outline" /><path
             id="path11346"
             style="fill:#b2b2b2;fill-opacity:0.996078;stroke-width:0.123243"
             d="m -0.14937573,57.910378 v 1.380277 H 0.7771827 V 59.030206 H 0.14052906 v -1.119828 z m 1.21491293,0 v 0.711584 l 0.1834513,0.100769 c 0.040744,-0.03287 0.082465,-0.05708 0.1245402,-0.07286 0.042063,-0.01713 0.088013,-0.02584 0.1379761,-0.02584 0.067044,0 0.1194822,0.01774 0.1576131,0.05323 0.039438,0.03549 0.058911,0.08696 0.058911,0.153996 0,0.07625 -0.025212,0.134423 -0.076481,0.175183 -0.051269,0.04076 -0.1237091,0.06098 -0.217041,0.06098 -0.1235756,0 -0.2362278,-0.03396 -0.3374471,-0.102319 l -0.10231932,0.220658 c 0.051269,0.04338 0.11570082,0.0771 0.19326982,0.100769 0.077557,0.02366 0.1607141,0.03566 0.250114,0.03566 0.1209382,0 0.225594,-0.02074 0.3136759,-0.0615 0.089388,-0.04206 0.1570694,-0.100253 0.2030884,-0.175183 0.047325,-0.07493 0.071313,-0.162606 0.071313,-0.262516 0,-0.134088 -0.037723,-0.235738 -0.1126547,-0.305408 -0.073625,-0.07099 -0.172026,-0.106453 -0.2955891,-0.106453 -0.048644,0 -0.097612,0.0057 -0.1462443,0.01757 -0.047326,0.01051 -0.090039,0.0275 -0.1281576,0.05116 V 58.15688 h 0.6035807 v -0.246496 z"
             inkscape:label="Text" /></g><g
           id="g11824"
           inkscape:label="L4"><path
             id="rect11951"
             style="display:inline;fill:#303233;fill-opacity:0.996078;stroke:none;stroke-width:0.28095;stroke-linecap:square;stroke-miterlimit:2;stroke-opacity:0"
             inkscape:label="Color"
             d="M -0.34703755,40.676277 H 8.925401 c 1.135315,0 2.049306,0.963384 2.049306,2.160053 v 9.027877 c 0,1.196669 -0.913991,2.160053 -2.049306,2.160053 h -9.27243855 c -1.13531535,0 -2.04930565,-0.963384 -2.04930565,-2.160053 V 42.83633 c 0,-1.196669 0.9139903,-2.160053 2.04930565,-2.160053 z" /><rect
             style="display:inline;fill:none;fill-opacity:0;stroke:#030303;stroke-width:0.28095;stroke-linecap:square;stroke-miterlimit:2;stroke-opacity:0.996078"
             id="rect11247"
             width="13.37105"
             height="13.347982"
             x="-2.3963432"
             y="40.676277"
             rx="2.0493057"
             ry="2.1600525"
             inkscape:label="Outline" /><path
             id="path11168"
             style="fill:#b2b2b2;fill-opacity:0.996078;stroke-width:0.12248"
             d="m -0.1483422,42.893207 v 1.371492 H 0.77253182 V 44.006317 H 0.13949553 v -1.11311 z m 1.7678507,0 -0.67231033,0.871781 V 43.95309 H 1.5941871 v 0.311609 H 1.8861589 V 43.95309 H 2.0840797 V 43.731915 H 1.8861589 v -0.838708 z m -0.013953,0.342614 v 0.496094 H 1.2272844 Z"
             inkscape:label="Text" /></g></g></g><g
       id="g23691"
       style="display:inline"
       inkscape:label="Face Buttons"><g
         id="g23695"
         inkscape:label="Y Button"><path
           id="ellipse26997-9-9"
           style="display:inline;fill:#191918;fill-opacity:0.996078;stroke:none;stroke-width:0.238125;stroke-linecap:round;stroke-linejoin:round;stroke-miterlimit:2;stroke-opacity:0"
           d="m 203.32346,20.21727 a 2.9631851,2.9415665 0 0 1 -2.96319,2.941566 2.9631851,2.9415665 0 0 1 -2.96318,-2.941566 2.9631851,2.9415665 0 0 1 2.96318,-2.941567 2.9631851,2.9415665 0 0 1 2.96319,2.941567 z"
           inkscape:label="Color" /><ellipse
           style="fill:none;fill-opacity:0;stroke:#030303;stroke-width:0.238125;stroke-linecap:round;stroke-linejoin:round;stroke-miterlimit:2;stroke-dasharray:none;stroke-opacity:0.996078"
           id="path7957-4"
           cx="200.36028"
           cy="20.21727"
           rx="2.9631851"
           ry="2.9415665"
           inkscape:label="Outline" /><path
           d="m 200.6122,21.657638 h -0.59744 V 20.49434 l -0.99847,-1.755379 h 0.69566 l 0.62199,1.167471 0.62608,-1.167471 h 0.65065 l -0.99847,1.759552 z"
           fill="#ffffff"
           id="path11302"
           style="opacity:1;fill:#fdfdfd;fill-opacity:1;stroke-width:0.216198"
           inkscape:label="Text" /></g><g
         id="g26995"
         inkscape:label="X Button"><path
           id="ellipse26997-9"
           style="display:inline;fill:#191918;fill-opacity:0.996078;stroke:none;stroke-width:0.238125;stroke-linecap:round;stroke-linejoin:round;stroke-miterlimit:2;stroke-opacity:0"
           d="m 197.40885,26.089144 a 2.9631851,2.9415665 0 0 1 -2.96319,2.941566 2.9631851,2.9415665 0 0 1 -2.96318,-2.941566 2.9631851,2.9415665 0 0 1 2.96318,-2.941567 2.9631851,2.9415665 0 0 1 2.96319,2.941567 z"
           inkscape:label="Color" /><ellipse
           style="display:inline;opacity:1;fill:none;fill-opacity:0;stroke:#030303;stroke-width:0.238125;stroke-linecap:round;stroke-linejoin:round;stroke-miterlimit:2;stroke-dasharray:none;stroke-opacity:0.996078"
           id="path7957"
           cx="194.44566"
           cy="26.089144"
           rx="2.9631851"
           ry="2.9415665"
           inkscape:label="Outline" /><path
           d="m 194.93297,24.627011 h 0.78081 l -1.03268,1.403984 1.12505,1.547354 h -0.75563 l -0.68847,-1.07514 -0.65909,1.07514 h -0.73884 l 1.0453,-1.526257 -1.00332,-1.425081 h 0.75984 l 0.58351,0.948647 z"
           fill="#ffffff"
           id="path10846"
           style="display:inline;opacity:1;fill:#fdfdfd;fill-opacity:1;stroke-width:0.218618"
           inkscape:label="Text" /></g><g
         id="g26987"
         inkscape:label="B Button"><path
           id="ellipse26997-2"
           style="display:inline;fill:#191918;fill-opacity:0.996078;stroke:none;stroke-width:0.238125;stroke-linecap:round;stroke-linejoin:round;stroke-miterlimit:2;stroke-opacity:0"
           d="m 209.06474,26.075483 a 2.9631851,2.9415665 0 0 1 -2.96319,2.941566 2.9631851,2.9415665 0 0 1 -2.96318,-2.941566 2.9631851,2.9415665 0 0 1 2.96318,-2.941567 2.9631851,2.9415665 0 0 1 2.96319,2.941567 z"
           inkscape:label="Color" /><ellipse
           style="fill:none;fill-opacity:0;stroke:#030303;stroke-width:0.238125;stroke-linecap:round;stroke-linejoin:round;stroke-miterlimit:2;stroke-dasharray:none;stroke-opacity:0.996078"
           id="path7957-6"
           cx="206.10156"
           cy="26.075483"
           rx="2.9631851"
           ry="2.9415665"
           inkscape:label="Outline" /><path
           d="m 206.8508,25.912364 c 0.37269,0.113326 0.55904,0.351004 0.55904,0.713056 0,0.262549 -0.096,0.467059 -0.28787,0.613553 -0.19192,0.146471 -0.44918,0.219707 -0.77183,0.219707 h -1.19735 v -2.901921 h 1.08054 c 0.34211,0 0.5952,0.06357 0.7593,0.190697 0.1641,0.127138 0.24617,0.306778 0.24617,0.538932 0,0.129898 -0.0306,0.248727 -0.0918,0.356528 -0.0612,0.107779 -0.15993,0.197588 -0.29621,0.269448 z m -1.07638,-0.849833 v 0.708886 h 0.42136 c 0.13908,0 0.24615,-0.03177 0.32125,-0.09535 0.0751,-0.06631 0.11264,-0.158896 0.11264,-0.277746 0,-0.223857 -0.14879,-0.335785 -0.4464,-0.335785 z m 0.51315,1.894525 c 0.15576,0 0.27256,-0.03454 0.35044,-0.103631 0.0807,-0.06909 0.121,-0.160293 0.121,-0.273619 0,-0.121601 -0.0389,-0.212807 -0.11683,-0.273597 -0.0779,-0.06356 -0.19051,-0.09535 -0.33793,-0.09535 h -0.52983 v 0.746202 z"
           fill="#ffffff"
           id="path9725"
           style="opacity:1;fill:#fdfdfd;fill-opacity:1;stroke-width:0.214957"
           inkscape:label="Text" /></g><g
         id="g26991"
         inkscape:label="A Button"><path
           id="ellipse26997"
           style="display:inline;fill:#191918;fill-opacity:0.996078;stroke:none;stroke-width:0.238125;stroke-linecap:round;stroke-linejoin:round;stroke-miterlimit:2;stroke-opacity:0"
           d="m 203.33515,31.886925 a 2.9631851,2.9415665 0 0 1 -2.96319,2.941566 2.9631851,2.9415665 0 0 1 -2.96318,-2.941566 2.9631851,2.9415665 0 0 1 2.96318,-2.941567 2.9631851,2.9415665 0 0 1 2.96319,2.941567 z"
           inkscape:label="Color" /><ellipse
           style="display:inline;fill:none;fill-opacity:0;stroke:#030303;stroke-width:0.238125;stroke-linecap:round;stroke-linejoin:round;stroke-miterlimit:2;stroke-dasharray:none;stroke-opacity:0.996078"
           id="path7957-2"
           cx="200.37196"
           cy="31.886925"
           rx="2.9631851"
           ry="2.9415665"
           inkscape:label="Outline" /><path
           d="m 201.72584,33.246652 h -0.65227 l -0.19693,-0.562836 h -1.12404 l -0.18871,0.562836 h -0.62766 l 1.07482,-2.896904 h 0.60715 z m -1.41532,-2.205789 -0.39383,1.158762 h 0.79586 z"
           fill="#ffffff"
           id="path10104"
           style="opacity:1;fill:#fdfdfd;fill-opacity:1;stroke-width:0.214586"
           inkscape:label="Text" /></g></g><ellipse
       style="display:inline;opacity:1;fill:#232323;fill-opacity:1;stroke:#1a1a1a;stroke-width:0.238125;stroke-linecap:round;stroke-linejoin:round;stroke-dasharray:none;stroke-opacity:0.996078"
       id="path10934"
       cx="44.803616"
       cy="29.343945"
       rx="9.2500648"
       ry="9.230794" /><ellipse
       style="display:inline;opacity:1;fill:#232323;fill-opacity:1;stroke:#1a1a1a;stroke-width:0.238125;stroke-linecap:round;stroke-linejoin:round;stroke-dasharray:none;stroke-opacity:0.996078"
       id="ellipse10936"
       cx="180.97783"
       cy="29.343945"
       rx="9.2500648"
       ry="9.230794" /><ellipse
       style="display:inline;opacity:1;fill:#c3c4c4;fill-opacity:0.996078;stroke:#4f4e4f;stroke-width:0.2;stroke-linecap:round;stroke-linejoin:round;stroke-miterlimit:2;stroke-dasharray:none;stroke-opacity:0.996078"
       id="ellipse37881"
       cx="44.834351"
       cy="29.16713"
       rx="6.6801295"
       ry="6.6736498" /><ellipse
       style="display:inline;opacity:1;fill:#c3c4c4;fill-opacity:0.996078;stroke:#4f4e4f;stroke-width:0.2;stroke-linecap:round;stroke-linejoin:round;stroke-miterlimit:2;stroke-dasharray:none;stroke-opacity:0.996078"
       id="ellipse37872"
       cx="180.92941"
       cy="29.315958"
       rx="6.6801295"
       ry="6.6736498" /><g
       id="g37879"
       style="display:none"
       inkscape:label="Right Joystick"><ellipse
         style="display:inline;opacity:1;fill:#111111;fill-opacity:0.996078;stroke:#797979;stroke-width:0.2;stroke-linecap:round;stroke-linejoin:round;stroke-miterlimit:2;stroke-dasharray:none;stroke-opacity:0.996078"
         id="ellipse13342"
         cx="180.92941"
         cy="29.315958"
         rx="6.6801295"
         ry="6.6736498" /><ellipse
         style="display:inline;opacity:1;fill:#444444;fill-opacity:0.996078;stroke:#090909;stroke-width:0.2;stroke-linecap:round;stroke-linejoin:round;stroke-miterlimit:2;stroke-dasharray:none;stroke-opacity:0.996078"
         id="ellipse13340"
         cx="180.84798"
         cy="29.307446"
         rx="4.5851336"
         ry="4.6163721" /></g><g
       id="g37885"
       inkscape:label="Left Joystick"
       style="display:none"><ellipse
         style="display:inline;opacity:1;fill:#111111;fill-opacity:0.996078;stroke:#797979;stroke-width:0.2;stroke-linecap:round;stroke-linejoin:round;stroke-miterlimit:2;stroke-dasharray:none;stroke-opacity:0.996078"
         id="ellipse13338"
         cx="44.834351"
         cy="29.16713"
         rx="6.6801295"
         ry="6.6736498" /><ellipse
         style="display:inline;opacity:1;fill:#444444;fill-opacity:0.996078;stroke:#090909;stroke-width:0.2;stroke-linecap:round;stroke-linejoin:round;stroke-miterlimit:2;stroke-dasharray:none;stroke-opacity:0.996078"
         id="path12972"
         cx="44.752911"
         cy="29.307446"
         rx="4.5851336"
         ry="4.6163721" /></g></g><g
     inkscape:label="Layer 1"
     inkscape:groupmode="layer"
     id="layer1"
     transform="translate(304.99821,-18.63332)"><path
       d="m -242.6601,58.053539 c -4.84392,0 -8.77088,-3.869079 -8.77088,-10.327192 0,0 0.73145,-5.555635 0.98667,-7.852613 0.21839,-1.96414 0.65779,-4.563698 0.12367,-10.442962 -0.14735,-1.616831 -1.11034,-6.458113 -1.11034,-6.458113 0,-1.291886 0.78539,-2.339076 1.75365,-2.339076 h 38.58949 c 0.96826,0 1.75497,1.04719 1.75497,2.339076 v 32.741804 c 0,1.291886 -0.78671,2.339076 -1.75497,2.339076 z"
       fill="#0e141b"
       id="path1483"
       style="fill:#107893;fill-opacity:0.913725;stroke:#24d2f6;stroke-width:4;stroke-dasharray:none;stroke-opacity:1;paint-order:stroke fill markers" /><text
       xml:space="preserve"
       transform="matrix(0.56786682,0,0,0.54145211,-311.06768,134.39826)"
       id="text8785-8"
       style="font-style:normal;font-variant:normal;font-weight:normal;font-stretch:normal;font-size:44.869px;line-height:1.25;font-family:'Open Sans';-inkscape-font-specification:'Open Sans';letter-spacing:0px;white-space:pre;shape-inside:url(#rect8787-4);display:inline;fill:#ffffff;fill-opacity:1"><tspan
         x="116.58398"
         y="-159.30985"
         id="tspan852">L2</tspan></text><path
       d="m -302.99821,143.9891 c 0,-1.45313 1.178,-2.63113 2.63113,-2.63113 h 36.83585 c 1.45317,0 2.63113,1.178 2.63113,2.63113 v 36.83585 c 0,1.45317 -1.17796,2.63113 -2.63113,2.63113 h -36.83585 c -1.45313,0 -2.63113,-1.17796 -2.63113,-2.63113 z"
       fill="#0e141b"
       id="path1534"
       style="fill:#107893;fill-opacity:0.913725;stroke:#24d2f6;stroke-width:4;stroke-dasharray:none;stroke-opacity:1;paint-order:stroke fill markers" /><text
       xml:space="preserve"
       transform="matrix(0.56786682,0,0,0.54145211,-363.08901,257.38462)"
       id="text8785-8-94"
       style="font-style:normal;font-variant:normal;font-weight:normal;font-stretch:normal;font-size:44.869px;line-height:1.25;font-family:'Open Sans';-inkscape-font-specification:'Open Sans';letter-spacing:0px;white-space:pre;shape-inside:url(#rect8787-4-5);display:inline;fill:#ffffff;fill-opacity:1"><tspan
         x="116.58398"
         y="-159.30985"
         id="tspan854">L4
</tspan></text><path
       d="m -203.57442,32.327254 c 0,-6.45839 3.92666,-11.693934 8.77044,-11.693934 h 31.57362 c 0.96866,0 1.75405,1.047111 1.75405,2.338787 v 32.743014 c 0,1.291623 -0.78539,2.338681 -1.75405,2.338681 h -38.58998 c -0.96875,0 -1.75408,-1.047058 -1.75408,-2.338681 z"
       fill="#0e141b"
       id="path1551"
       style="fill:#107893;fill-opacity:0.913725;stroke:#24d2f6;stroke-width:4;stroke-dasharray:none;stroke-opacity:1;paint-order:stroke fill markers" /><text
       xml:space="preserve"
       transform="matrix(0.56786682,0,0,0.54145211,-260.17485,134.27371)"
       id="text8785"
       style="font-style:normal;font-variant:normal;font-weight:normal;font-stretch:normal;font-size:44.869px;line-height:1.25;font-family:'Open Sans';-inkscape-font-specification:'Open Sans';letter-spacing:-3.24465px;white-space:pre;shape-inside:url(#rect8787);display:inline;fill:#ffffff;fill-opacity:1"><tspan
         x="116.58398"
         y="-159.30985"
         id="tspan856">L1</tspan></text><path
       d="m -302.99821,192.57432 c 0,-1.45313 1.178,-2.63113 2.63113,-2.63113 h 36.83585 c 1.45317,0 2.63113,1.178 2.63113,2.63113 v 36.83585 c 0,1.45317 -1.17796,2.63113 -2.63113,2.63113 h -36.83585 c -1.45313,0 -2.63113,-1.17796 -2.63113,-2.63113 z"
       fill="#0e141b"
       id="path1534-6"
       style="fill:#107893;fill-opacity:0.913725;stroke:#24d2f6;stroke-width:4;stroke-dasharray:none;stroke-opacity:1;paint-order:stroke fill markers" /><text
       xml:space="preserve"
       transform="matrix(0.56786682,0,0,0.54145211,-362.59759,305.80377)"
       id="text8785-8-94-7"
       style="font-style:normal;font-variant:normal;font-weight:normal;font-stretch:normal;font-size:44.869px;line-height:1.25;font-family:'Open Sans';-inkscape-font-specification:'Open Sans';letter-spacing:0px;white-space:pre;shape-inside:url(#rect8787-4-5-3);display:inline;fill:#ffffff;fill-opacity:1"><tspan
         x="116.58398"
         y="-159.30985"
         id="tspan858">L5
</tspan></text><path
       d="m 244.62585,143.9891 c 0,-1.45313 1.178,-2.63113 2.63113,-2.63113 h 36.83585 c 1.45317,0 2.63113,1.178 2.63113,2.63113 v 36.83585 c 0,1.45317 -1.17796,2.63113 -2.63113,2.63113 h -36.83585 c -1.45313,0 -2.63113,-1.17796 -2.63113,-2.63113 z"
       fill="#0e141b"
       id="path1534-7"
       style="fill:#107893;fill-opacity:0.913725;stroke:#24d2f6;stroke-width:4;stroke-dasharray:none;stroke-opacity:1;paint-order:stroke fill markers" /><text
       xml:space="preserve"
       transform="matrix(0.56786682,0,0,0.54145211,183.32203,257.38462)"
       id="text8785-8-9-0"
       style="font-style:normal;font-variant:normal;font-weight:normal;font-stretch:normal;font-size:44.869px;line-height:1.25;font-family:'Open Sans';-inkscape-font-specification:'Open Sans';letter-spacing:0px;white-space:pre;shape-inside:url(#rect8787-4-6-8);display:inline;fill:#ffffff;fill-opacity:1"><tspan
         x="116.58398"
         y="-159.30985"
         id="tspan860">R4</tspan></text><path
       d="m 244.62585,192.57432 c 0,-1.45313 1.178,-2.63113 2.63113,-2.63113 h 36.83585 c 1.45317,0 2.63113,1.178 2.63113,2.63113 v 36.83585 c 0,1.45317 -1.17796,2.63113 -2.63113,2.63113 h -36.83585 c -1.45313,0 -2.63113,-1.17796 -2.63113,-2.63113 z"
       fill="#0e141b"
       id="path1534-6-8"
       style="fill:#107893;fill-opacity:0.913725;stroke:#24d2f6;stroke-width:4;stroke-dasharray:none;stroke-opacity:1;paint-order:stroke fill markers" /><text
       xml:space="preserve"
       transform="matrix(0.56786682,0,0,0.54145211,183.81345,305.80377)"
       id="text8785-8-9-0-6"
       style="font-style:normal;font-variant:normal;font-weight:normal;font-stretch:normal;font-size:44.869px;line-height:1.25;font-family:'Open Sans';-inkscape-font-specification:'Open Sans';letter-spacing:0px;white-space:pre;shape-inside:url(#rect8787-4-6-8-9);display:inline;fill:#ffffff;fill-opacity:1"><tspan
         x="116.58398"
         y="-159.30985"
         id="tspan862">R5</tspan></text><path
       d="m 225.22023,58.053539 c 4.84392,0 8.77088,-3.869079 8.77088,-10.327192 0,0 -0.73145,-5.555635 -0.98667,-7.852613 -0.21839,-1.96414 -0.65779,-4.563698 -0.12367,-10.442962 0.14735,-1.616831 1.11034,-6.458113 1.11034,-6.458113 0,-1.291886 -0.78539,-2.339076 -1.75365,-2.339076 h -38.58949 c -0.96826,0 -1.75497,1.04719 -1.75497,2.339076 v 32.741804 c 0,1.291886 0.78671,2.339076 1.75497,2.339076 z"
       fill="#0e141b"
       id="path1483-6"
       style="fill:#107893;fill-opacity:0.913725;stroke:#24d2f6;stroke-width:4;stroke-dasharray:none;stroke-opacity:1;paint-order:stroke fill markers" /><text
       xml:space="preserve"
       transform="matrix(0.56786682,0,0,0.54145211,131.04328,134.39826)"
       id="text8785-8-9"
       style="font-style:normal;font-variant:normal;font-weight:normal;font-stretch:normal;font-size:44.869px;line-height:1.25;font-family:'Open Sans';-inkscape-font-specification:'Open Sans';letter-spacing:0px;white-space:pre;shape-inside:url(#rect8787-4-6);display:inline;fill:#ffffff;fill-opacity:1"><tspan
         x="116.58398"
         y="-159.30985"
         id="tspan864">R2</tspan></text><path
       d="m 186.13455,32.327254 c 0,-6.45839 -3.92666,-11.693934 -8.77044,-11.693934 h -31.57362 c -0.96866,0 -1.75405,1.047111 -1.75405,2.338787 v 32.743014 c 0,1.291623 0.78539,2.338681 1.75405,2.338681 h 38.58998 c 0.96875,0 1.75408,-1.047058 1.75408,-2.338681 z"
       fill="#0e141b"
       id="path1551-4"
       style="fill:#107893;fill-opacity:0.913725;stroke:#24d2f6;stroke-width:4;stroke-dasharray:none;stroke-opacity:1;paint-order:stroke fill markers" /><text
       xml:space="preserve"
       transform="matrix(0.56786682,0,0,0.54145211,86.222993,134.27371)"
       id="text8785-5"
       style="font-style:normal;font-variant:normal;font-weight:normal;font-stretch:normal;font-size:44.869px;line-height:1.25;font-family:'Open Sans';-inkscape-font-specification:'Open Sans';letter-spacing:-3.24465px;white-space:pre;shape-inside:url(#rect8787-9);display:inline;fill:#ffffff;fill-opacity:1"><tspan
         x="116.58398"
         y="-159.30985"
         id="tspan866">R1</tspan></text></g></svg>
