<?xml version="1.0" encoding="UTF-8" standalone="no"?>
<svg
   width="87.098976mm"
   height="21.391422mm"
   viewBox="0 0 87.098974 21.391423"
   version="1.1"
   id="svg1430"
   inkscape:version="1.1 (c68e22c387, 2021-05-23)"
   sodipodi:docname="L1-R1 Anniversary Active.svg"
   xmlns:inkscape="http://www.inkscape.org/namespaces/inkscape"
   xmlns:sodipodi="http://sodipodi.sourceforge.net/DTD/sodipodi-0.dtd"
   xmlns="http://www.w3.org/2000/svg"
   xmlns:svg="http://www.w3.org/2000/svg"
   xmlns:rdf="http://www.w3.org/1999/02/22-rdf-syntax-ns#"
   xmlns:cc="http://creativecommons.org/ns#"
   xmlns:dc="http://purl.org/dc/elements/1.1/">
  <defs
     id="defs1424">
    <linearGradient
       id="linearGradient2011"
       inkscape:swatch="solid">
      <stop
         style="stop-color:#24d2f6;stop-opacity:1;"
         offset="0"
         id="stop2009" />
    </linearGradient>
    <filter
       style="color-interpolation-filters:sRGB"
       inkscape:label="Drop Shadow"
       id="filter1421"
       x="-0.036318922"
       y="-0.075486965"
       width="1.0726514"
       height="1.178542">
      <feFlood
         flood-opacity="0.498039"
         flood-color="rgb(0,0,0)"
         result="flood"
         id="feFlood1411" />
      <feComposite
         in="flood"
         in2="SourceGraphic"
         operator="in"
         result="composite1"
         id="feComposite1413" />
      <feGaussianBlur
         in="composite1"
         stdDeviation="0.3"
         result="blur"
         id="feGaussianBlur1415" />
      <feOffset
         dx="0"
         dy="0.5"
         result="offset"
         id="feOffset1417" />
      <feComposite
         in="SourceGraphic"
         in2="offset"
         operator="over"
         result="composite2"
         id="feComposite1419" />
    </filter>
    <filter
       style="color-interpolation-filters:sRGB"
       inkscape:label="Drop Shadow"
       id="filter1433"
       x="-0.036332478"
       y="-0.075486965"
       width="1.0726514"
       height="1.178542">
      <feFlood
         flood-opacity="0.498039"
         flood-color="rgb(0,0,0)"
         result="flood"
         id="feFlood1423" />
      <feComposite
         in="flood"
         in2="SourceGraphic"
         operator="in"
         result="composite1"
         id="feComposite1425" />
      <feGaussianBlur
         in="composite1"
         stdDeviation="0.3"
         result="blur"
         id="feGaussianBlur1427" />
      <feOffset
         dx="0"
         dy="0.5"
         result="offset"
         id="feOffset1429" />
      <feComposite
         in="SourceGraphic"
         in2="offset"
         operator="over"
         result="composite2"
         id="feComposite1431" />
    </filter>
  </defs>
  <sodipodi:namedview
     id="base"
     pagecolor="#ffffff"
     bordercolor="#666666"
     borderopacity="1.0"
     inkscape:pageopacity="0.0"
     inkscape:pageshadow="2"
     inkscape:zoom="2.0410132"
     inkscape:cx="162.90928"
     inkscape:cy="64.673761"
     inkscape:document-units="mm"
     inkscape:current-layer="layer3"
     inkscape:document-rotation="0"
     showgrid="false"
     inkscape:window-width="1920"
     inkscape:window-height="1005"
     inkscape:window-x="-9"
     inkscape:window-y="-9"
     inkscape:window-maximized="1"
     inkscape:pagecheckerboard="0" />
  <metadata
     id="metadata1427">
    <rdf:RDF>
      <cc:Work
         rdf:about="">
        <dc:format>image/svg+xml</dc:format>
        <dc:type
           rdf:resource="http://purl.org/dc/dcmitype/StillImage" />
      </cc:Work>
    </rdf:RDF>
  </metadata>
  <g
     inkscape:label="R1"
     inkscape:groupmode="layer"
     id="layer1"
     transform="translate(469.0847,-116.99994)"
     style="display:inline">
    <path
       style="display:inline;opacity:1;fill:#ee7679;fill-opacity:1;stroke:#ffffff;stroke-width:1.3;stroke-linecap:round;stroke-linejoin:round;stroke-miterlimit:4;stroke-dasharray:none;stroke-opacity:1;filter:url(#filter1433)"
       d="m -407.93562,136.13939 c -3.58924,-0.43315 -6.66347,-1.16947 -8.61729,-2.06396 -2.99949,-1.37321 -4.83503,-4.22126 -4.48595,-6.96047 0.46869,-3.6777 0.72462,-4.57004 1.57789,-5.5016 3.55804,-2.8819 12.24338,-3.34695 16.62344,-3.22626 4.11178,0.1626 6.71893,0.55407 10.24774,1.53875 1.37443,0.4584 4.21914,1.32973 5.18124,2.21481 0.37584,0.34831 0.93535,0.67005 1.24338,0.71497 0.74171,0.10818 1.37705,1.25442 2.17736,3.92824 0.88921,2.97083 0.85605,3.86773 -0.20146,5.4501 -1.53228,2.29277 -5.06236,3.57701 -11.17865,4.06677 -4.27361,0.34221 -8.88578,0.283 -12.5677,-0.16133 z"
       id="path2007"
       sodipodi:nodetypes="ccccccccssscc"
       inkscape:export-filename="C:\Users\AL200\OneDrive\Pictures\AL2009man Work Projects\VSCView - Controller Theme Layout\VSCView - Controller Theme (Ver. 1.10)\DualShock 4 Controller Images\VSCView Image Assets\PlayStation 20th Anniversary Assets\DS4_Anniversary_R1-Active.png"
       inkscape:export-xdpi="129.51822"
       inkscape:export-ydpi="129.51822"
       inkscape:label="Active Button Press" />
    <path
       id="path1023-2-8"
       style="display:inline;fill:#ffffff;fill-opacity:1;fill-rule:nonzero;stroke:none;stroke-width:1.037"
       d="m -404.36474,120.4884 v 2.61287 h 0.54696 v -1.11396 h 0.42137 c 0.12557,0 0.22682,0.008 0.29972,0.0203 0.077,0.0121 0.13754,0.0323 0.19023,0.0646 0.0486,0.0284 0.0894,0.0691 0.11769,0.11769 0.0283,0.0527 0.0565,0.11328 0.0849,0.19023 0.0162,0.0446 0.0325,0.0973 0.0567,0.15805 0.0202,0.0608 0.0447,0.12568 0.0649,0.19049 0.0243,0.0689 0.0444,0.1336 0.0646,0.19841 0.0202,0.0689 0.0405,0.1255 0.0567,0.17413 h 0.5873 c -0.0567,-0.14176 -0.10912,-0.2796 -0.15777,-0.40923 -0.0486,-0.12962 -0.10142,-0.26716 -0.15409,-0.40894 -0.0283,-0.0769 -0.0565,-0.14196 -0.0849,-0.19869 -0.0283,-0.0527 -0.0606,-0.10121 -0.0971,-0.13773 -0.0325,-0.0364 -0.077,-0.0686 -0.12164,-0.0889 -0.0486,-0.0244 -0.0972,-0.0406 -0.14986,-0.0528 v -0.008 c 0.19038,-0.0405 0.33606,-0.11741 0.4414,-0.21872 0.10121,-0.10532 0.1541,-0.23103 0.1541,-0.38496 0,-0.12962 -0.0325,-0.23483 -0.0892,-0.32795 -0.0608,-0.0891 -0.14169,-0.162 -0.24301,-0.21872 -0.0972,-0.0527 -0.21468,-0.0934 -0.34432,-0.11769 -0.13368,-0.0284 -0.27148,-0.0403 -0.42136,-0.0403 z m 3.47139,0 -0.85063,0.42928 0.21055,0.31186 0.66041,-0.33219 v 2.20364 h 0.54272 v -2.61259 z m -2.92472,0.34828 h 0.57123 c 0.081,0 0.15805,0.004 0.23905,0.0164 0.081,0.0121 0.15382,0.0324 0.21054,0.0607 0.0567,0.0244 0.10932,0.0647 0.14986,0.1174 0.0365,0.0527 0.0567,0.12165 0.0567,0.20264 -0.008,0.14987 -0.0688,0.25505 -0.18628,0.31581 -0.12151,0.0567 -0.28342,0.0892 -0.49811,0.0892 h -0.54302 z"
       inkscape:label="R1 Text"
       inkscape:export-filename="C:\Users\AL200\OneDrive\Pictures\AL2009man Work Projects\VSCView - Controller Theme Layout\VSCView - Controller Theme (Ver. 1.10)\DualShock 4 Controller Images\VSCView Image Assets\PlayStation 20th Anniversary Assets\DS4_Anniversary_R1-Active.png"
       inkscape:export-xdpi="129.51822"
       inkscape:export-ydpi="129.51822" />
  </g>
  <g
     inkscape:groupmode="layer"
     id="layer3"
     inkscape:label="L1"
     transform="translate(47.919906,1.0425787)"
     style="display:inline;opacity:1">
    <path
       style="display:inline;opacity:1;fill:#90b4da;fill-opacity:1;stroke:#ffffff;stroke-width:1.3;stroke-linecap:round;stroke-linejoin:round;stroke-miterlimit:4;stroke-dasharray:none;stroke-opacity:1;filter:url(#filter1421)"
       d="m -21.970007,18.09689 c 3.58924,-0.43315 6.66347,-1.16947 8.61729,-2.06396 2.99949,-1.37321 4.8350302,-4.22126 4.4859502,-6.96047 -0.46869,-3.6777 -0.72462,-4.57004 -1.5778902,-5.5016 -3.55804,-2.88190001 -12.24338,-3.34695001 -16.62344,-3.22626001 -4.11178,0.1626 -6.71893,0.55407 -10.247741,1.53875001 -1.37443,0.4584 -4.21914,1.32973 -5.18124,2.21481 -0.37584,0.34831 -0.93535,0.67005 -1.24338,0.71497 -0.74171,0.10818 -1.37705,1.25442 -2.17736,3.92824 -0.88921,2.97083 -0.85605,3.86773 0.20146,5.4501 1.53228,2.29277 5.06236,3.57701 11.178651,4.06677 4.27361,0.34221 8.88578,0.283 12.5677,-0.16133 z"
       id="path2007-4"
       sodipodi:nodetypes="ccccccccssscc"
       inkscape:export-filename="C:\Users\AL200\OneDrive\Pictures\AL2009man Work Projects\VSCView - Controller Theme Layout\VSCView - Controller Theme (Ver. 1.10)\DualShock 4 Controller Images\VSCView Image Assets\PlayStation 20th Anniversary Assets\DS4_Anniversary_L1-Active.png"
       inkscape:export-xdpi="129.51823"
       inkscape:export-ydpi="129.51823"
       inkscape:label="Active Button Press" />
    <path
       id="path1031-2-9"
       style="display:inline;fill:#ffffff;fill-opacity:1;fill-rule:nonzero;stroke:none;stroke-width:1.03708"
       d="m -29.820834,2.4455572 v 2.6127951 h 1.944706 V 4.7100584 h -1.397707 V 2.4455572 Z m 2.888545,0 -0.85465,0.4293108 0.214511,0.3118818 0.660466,-0.3322087 v 2.2038112 h 0.542767 V 2.4455572 Z"
       inkscape:label="L1 Text"
       inkscape:export-filename="C:\Users\AL200\OneDrive\Pictures\AL2009man Work Projects\VSCView - Controller Theme Layout\VSCView - Controller Theme (Ver. 1.10)\DualShock 4 Controller Images\VSCView Image Assets\PlayStation 20th Anniversary Assets\DS4_Anniversary_L1-Active.png"
       inkscape:export-xdpi="129.51823"
       inkscape:export-ydpi="129.51823" />
  </g>
</svg>
